<svg width="11" height="11" viewBox="0 0 11 11" fill="none" xmlns="http://www.w3.org/2000/svg">
<g clip-path="url(#clip0_1062_8836)">
<path d="M5.5 5.84375C6.24708 5.84375 6.90708 6.0225 7.44333 6.25625C7.93833 6.47625 8.25 6.97125 8.25 7.5075V8.25H2.75V7.51208C2.75 6.97125 3.06167 6.47625 3.55667 6.26083C4.09292 6.0225 4.75292 5.84375 5.5 5.84375ZM1.83333 5.95833C2.3375 5.95833 2.75 5.54583 2.75 5.04167C2.75 4.5375 2.3375 4.125 1.83333 4.125C1.32917 4.125 0.916667 4.5375 0.916667 5.04167C0.916667 5.54583 1.32917 5.95833 1.83333 5.95833ZM2.35125 6.4625C2.18167 6.435 2.01208 6.41667 1.83333 6.41667C1.37958 6.41667 0.94875 6.51292 0.559167 6.6825C0.22 6.82917 0 7.15917 0 7.53042V8.25H2.0625V7.51208C2.0625 7.13167 2.16792 6.77417 2.35125 6.4625ZM9.16667 5.95833C9.67083 5.95833 10.0833 5.54583 10.0833 5.04167C10.0833 4.5375 9.67083 4.125 9.16667 4.125C8.6625 4.125 8.25 4.5375 8.25 5.04167C8.25 5.54583 8.6625 5.95833 9.16667 5.95833ZM11 7.53042C11 7.15917 10.78 6.82917 10.4408 6.6825C10.0513 6.51292 9.62042 6.41667 9.16667 6.41667C8.98792 6.41667 8.81833 6.435 8.64875 6.4625C8.83208 6.77417 8.9375 7.13167 8.9375 7.51208V8.25H11V7.53042ZM5.5 2.75C6.26083 2.75 6.875 3.36417 6.875 4.125C6.875 4.88583 6.26083 5.5 5.5 5.5C4.73917 5.5 4.125 4.88583 4.125 4.125C4.125 3.36417 4.73917 2.75 5.5 2.75Z" fill="#F25858"/>
</g>
<defs>
<clipPath id="clip0_1062_8836">
<rect width="11" height="11" fill="white"/>
</clipPath>
</defs>
</svg>
