<svg width="55" height="34" viewBox="0 0 55 34" fill="none" xmlns="http://www.w3.org/2000/svg">
<path d="M27.5 0.146484C25.1625 0.146484 22.8766 0.840579 20.9344 2.15068L17.7461 4.30238C16.389 5.21366 14.7955 5.69964 13.1656 5.69924H4.8125C2.15703 5.69924 0 7.87696 0 10.5579V17.9327C0 22.7132 3.22266 26.8778 7.81172 28.0317L17.093 30.3743C20.0922 32.3351 23.6672 33.463 27.5 33.463C31.3328 33.463 34.9078 32.3351 37.907 30.383L47.1883 28.0404C51.7773 26.8778 55 22.7132 55 17.9327V10.5579C55 7.87696 52.843 5.69924 50.1875 5.69924H41.8344C40.2016 5.69924 38.6117 5.21338 37.2539 4.30238L34.0656 2.15068C32.1234 0.840579 29.8375 0.146484 27.5 0.146484ZM11.3695 24.6393L8.80859 23.9973C6.05859 23.3032 4.125 20.8045 4.125 17.9327V10.5579C4.125 10.1762 4.43437 9.86381 4.8125 9.86381H8.25V14.0284C8.25 17.9413 9.40156 21.594 11.3695 24.6393ZM46.1828 23.9973L43.6219 24.6393C45.5984 21.5853 46.7414 17.9413 46.7414 14.0284V9.86381H50.1789C50.557 9.86381 50.8664 10.1762 50.8664 10.5579V17.9327C50.8664 20.7958 48.9328 23.2945 46.1828 23.9973ZM16.5 12.6402C16.5 11.8767 17.1187 11.252 17.875 11.252H37.125C37.8812 11.252 38.5 11.8767 38.5 12.6402C38.5 13.4037 37.8812 14.0284 37.125 14.0284H17.875C17.1187 14.0284 16.5 13.4037 16.5 12.6402ZM17.875 16.8048H37.125C37.8812 16.8048 38.5 17.4294 38.5 18.1929C38.5 18.9565 37.8812 19.5811 37.125 19.5811H17.875C17.1187 19.5811 16.5 18.9565 16.5 18.1929C16.5 17.4294 17.1187 16.8048 17.875 16.8048ZM19.25 23.7457C19.25 22.9822 19.8687 22.3575 20.625 22.3575H34.375C35.1312 22.3575 35.75 22.9822 35.75 23.7457C35.75 24.5092 35.1312 25.1339 34.375 25.1339H20.625C19.8687 25.1339 19.25 24.5092 19.25 23.7457Z" fill="#4382EE"/>
</svg>
