<svg width="52" height="53" viewBox="0 0 52 53" fill="none" xmlns="http://www.w3.org/2000/svg">
<path d="M6.17566 52.297H9.49891C10.314 52.297 10.9724 51.6386 10.9724 50.8235V44.3808C10.9724 43.9858 10.8155 43.6071 10.5362 43.3278C10.257 43.0485 9.87819 42.8916 9.48323 42.8916H6.17566C5.36053 42.8916 4.70215 43.5657 4.70215 44.3808V50.8235C4.70215 51.6386 5.36053 52.297 6.17566 52.297V52.297ZM34.4076 52.297H37.7151C38.5303 52.297 39.1886 51.6386 39.173 50.8235V44.3808C39.173 43.5657 38.5146 42.9073 37.6994 42.9073H34.3919C33.5767 42.9073 32.9184 43.5657 32.9184 44.3808V50.8235C32.9184 51.6386 33.5767 52.297 34.4076 52.297V52.297Z" fill="#321B41"/>
<path d="M36.9627 47.5944H6.92809C5.70539 47.5944 4.70215 46.6069 4.70215 45.3685V36.6215C7.83728 35.8377 20.7227 34.3955 21.9454 34.3955C26.0336 34.3955 30.567 35.0539 39.1886 36.6215V45.3685C39.1886 46.6069 38.1854 47.5944 36.9627 47.5944Z" fill="#EDC808"/>
<path d="M1.91243 31.9179C2.58649 31.9179 3.13514 31.3693 3.13514 30.6952V30.3503H6.27027V27.2152H3.13514V25.3028C3.13514 24.6287 2.58649 24.0801 1.91243 24.0801H1.2227C0.548649 24.0801 0 24.6287 0 25.3028V30.6952C0 31.3693 0.548649 31.9179 1.2227 31.9179H1.91243V31.9179ZM42.6692 31.9179C43.3432 31.9179 43.8919 31.3693 43.8919 30.6952V25.3028C43.8919 24.6287 43.3432 24.0801 42.6692 24.0801H41.9795C41.3054 24.0801 40.7568 24.6287 40.7568 25.3028V27.2152H37.6216V30.3503H40.7568V30.6952C40.7568 31.3693 41.3054 31.9179 41.9795 31.9179H42.6692Z" fill="#321B41"/>
<path d="M33.8432 11.54H10.0476C7.08485 11.54 4.70215 13.8444 4.70215 16.6973V36.6211H39.1886V16.6973C39.1886 13.8444 36.8059 11.54 33.8432 11.54Z" fill="#EDC808"/>
<path d="M34.5022 35.0536H9.38978C8.52762 35.0536 7.83789 34.3482 7.83789 33.5017V20.9455L21.946 19.3779L36.0541 20.9455V33.5017C36.0541 34.3482 35.3644 35.0536 34.5022 35.0536V35.0536Z" fill="#868686"/>
<path d="M13.3238 39.757H30.5671C31.006 39.757 31.3508 39.4122 31.3508 38.9732C31.3508 38.5343 31.006 38.1895 30.5671 38.1895H13.3238C12.8849 38.1895 12.54 38.55 12.54 38.9732C12.54 39.4122 12.8849 39.757 13.3238 39.757ZM16.459 42.8922H27.4319C27.8708 42.8922 28.2157 42.5473 28.2157 42.1084C28.2157 41.6695 27.8708 41.3246 27.4319 41.3246H16.459C16.02 41.3246 15.6752 41.6695 15.6752 42.1084C15.6752 42.5473 16.02 42.8922 16.459 42.8922Z" fill="#E6E6E6"/>
<path d="M7.83728 38.1895C8.69945 38.1895 9.40485 38.8949 9.40485 39.757V42.8922C9.40485 43.7543 8.69945 44.4597 7.83728 44.4597H4.70215V38.1895H7.83728ZM36.0535 44.4597C35.1913 44.4597 34.4859 43.7543 34.4859 42.8922V39.757C34.4859 38.8949 35.1913 38.1895 36.0535 38.1895H39.1886V44.4597H36.0535Z" fill="#868686"/>
<path d="M36.0541 20.9449H7.83789V17.7941C7.83789 16.9319 8.52762 16.2422 9.38978 16.2422H34.5179C35.3644 16.2422 36.0541 16.9319 36.0541 17.7941V20.9449V20.9449Z" fill="#433B6B"/>
<circle cx="40.0543" cy="12.2432" r="8.44706" transform="rotate(-45 40.0543 12.2432)" fill="#4382EE"/>
<path d="M38.2554 9.59682L38.2554 15.7295L37.1444 15.7295L37.1444 10.6778L37.1085 10.6778L35.6742 11.5941L35.6742 10.576L37.1983 9.59681L38.2554 9.59682ZM42.0793 15.8463C41.5862 15.8463 41.163 15.7215 40.8097 15.472C40.4583 15.2204 40.1878 14.8581 39.9982 14.385C39.8105 13.9099 39.7167 13.3379 39.7167 12.6691C39.7187 12.0004 39.8135 11.4314 40.0012 10.9623C40.1908 10.4912 40.4613 10.1318 40.8127 9.88428C41.166 9.63674 41.5882 9.51297 42.0793 9.51297C42.5704 9.51297 42.9926 9.63674 43.346 9.88429C43.6993 10.1318 43.9698 10.4912 44.1575 10.9623C44.3471 11.4334 44.442 12.0024 44.442 12.6691C44.442 13.3399 44.3471 13.9128 44.1575 14.388C43.9698 14.8611 43.6993 15.2224 43.346 15.472C42.9946 15.7215 42.5724 15.8463 42.0793 15.8463ZM42.0793 14.909C42.4626 14.909 42.7651 14.7204 42.9867 14.3431C43.2102 13.9638 43.322 13.4058 43.322 12.6691C43.322 12.182 43.2711 11.7728 43.1693 11.4414C43.0675 11.11 42.9238 10.8605 42.7381 10.6928C42.5525 10.5231 42.3329 10.4383 42.0793 10.4383C41.698 10.4383 41.3966 10.6279 41.175 11.0072C40.9534 11.3845 40.8416 11.9385 40.8396 12.6691C40.8376 13.1582 40.8865 13.5695 40.9864 13.9029C41.0882 14.2363 41.2319 14.4878 41.4176 14.6575C41.6032 14.8252 41.8238 14.909 42.0793 14.909Z" fill="white"/>
</svg>
