<svg width="52" height="52" viewBox="0 0 52 52" fill="none" xmlns="http://www.w3.org/2000/svg">
<path d="M6.17566 52.0001H9.49891C10.314 52.0001 10.9724 51.3418 10.9724 50.5266V44.0839C10.9724 43.689 10.8155 43.3102 10.5362 43.0309C10.257 42.7516 9.87819 42.5947 9.48323 42.5947H6.17566C5.36053 42.5947 4.70215 43.2688 4.70215 44.0839V50.5266C4.70215 51.3418 5.36053 52.0001 6.17566 52.0001V52.0001ZM34.4076 52.0001H37.7151C38.5303 52.0001 39.1886 51.3418 39.173 50.5266V44.0839C39.173 43.2688 38.5146 42.6104 37.6994 42.6104H34.3919C33.5767 42.6104 32.9184 43.2688 32.9184 44.0839V50.5266C32.9184 51.3418 33.5767 52.0001 34.4076 52.0001V52.0001Z" fill="#321B41"/>
<path d="M36.9627 47.2976H6.92809C5.70539 47.2976 4.70215 46.31 4.70215 45.0716V36.3246C7.83728 35.5408 20.7227 34.0986 21.9454 34.0986C26.0336 34.0986 30.567 34.757 39.1886 36.3246V45.0716C39.1886 46.31 38.1854 47.2976 36.9627 47.2976Z" fill="#EDC808"/>
<path d="M1.91243 31.621C2.58649 31.621 3.13514 31.0724 3.13514 30.3983V30.0535H6.27027V26.9183H3.13514V25.0059C3.13514 24.3319 2.58649 23.7832 1.91243 23.7832H1.2227C0.548649 23.7832 0 24.3319 0 25.0059V30.3983C0 31.0724 0.548649 31.621 1.2227 31.621H1.91243V31.621ZM42.6692 31.621C43.3432 31.621 43.8919 31.0724 43.8919 30.3983V25.0059C43.8919 24.3319 43.3432 23.7832 42.6692 23.7832H41.9795C41.3054 23.7832 40.7568 24.3319 40.7568 25.0059V26.9183H37.6216V30.0535H40.7568V30.3983C40.7568 31.0724 41.3054 31.621 41.9795 31.621H42.6692Z" fill="#321B41"/>
<path d="M33.8432 11.2432H10.0476C7.08485 11.2432 4.70215 13.5475 4.70215 16.4005V36.3242H39.1886V16.4005C39.1886 13.5475 36.8059 11.2432 33.8432 11.2432Z" fill="#EDC808"/>
<path d="M34.5022 34.7567H9.38978C8.52762 34.7567 7.83789 34.0513 7.83789 33.2048V20.6486L21.946 19.0811L36.0541 20.6486V33.2048C36.0541 34.0513 35.3644 34.7567 34.5022 34.7567V34.7567Z" fill="#868686"/>
<path d="M13.3238 39.4601H30.5671C31.006 39.4601 31.3508 39.1153 31.3508 38.6764C31.3508 38.2374 31.006 37.8926 30.5671 37.8926H13.3238C12.8849 37.8926 12.54 38.2531 12.54 38.6764C12.54 39.1153 12.8849 39.4601 13.3238 39.4601ZM16.459 42.5953H27.4319C27.8708 42.5953 28.2157 42.2504 28.2157 41.8115C28.2157 41.3726 27.8708 41.0277 27.4319 41.0277H16.459C16.02 41.0277 15.6752 41.3726 15.6752 41.8115C15.6752 42.2504 16.02 42.5953 16.459 42.5953Z" fill="#E6E6E6"/>
<path d="M7.83728 37.8926C8.69945 37.8926 9.40485 38.598 9.40485 39.4601V42.5953C9.40485 43.4574 8.69945 44.1628 7.83728 44.1628H4.70215V37.8926H7.83728ZM36.0535 44.1628C35.1913 44.1628 34.4859 43.4574 34.4859 42.5953V39.4601C34.4859 38.598 35.1913 37.8926 36.0535 37.8926H39.1886V44.1628H36.0535Z" fill="#868686"/>
<path d="M36.0541 20.648H7.83789V17.4972C7.83789 16.635 8.52762 15.9453 9.38978 15.9453H34.5179C35.3644 15.9453 36.0541 16.635 36.0541 17.4972V20.648V20.648Z" fill="#433B6B"/>
<circle cx="40.0543" cy="11.9463" r="8.44706" transform="rotate(-45 40.0543 11.9463)" fill="#4382EE"/>
<path d="M41.639 8.2336L41.639 17.4326L39.9726 17.4326L39.9726 9.85511L39.9187 9.85511L37.7672 11.2296L37.7672 9.70239L40.0535 8.2336L41.639 8.2336Z" fill="white"/>
</svg>
