<svg width="52" height="53" viewBox="0 0 52 53" fill="none" xmlns="http://www.w3.org/2000/svg">
<path d="M6.17566 52.8107H9.49891C10.314 52.8107 10.9724 52.1523 10.9724 51.3372V44.8945C10.9724 44.4995 10.8155 44.1207 10.5362 43.8414C10.257 43.5622 9.87819 43.4053 9.48323 43.4053H6.17566C5.36053 43.4053 4.70215 44.0793 4.70215 44.8945V51.3372C4.70215 52.1523 5.36053 52.8107 6.17566 52.8107V52.8107ZM34.4076 52.8107H37.7151C38.5303 52.8107 39.1886 52.1523 39.173 51.3372V44.8945C39.173 44.0793 38.5146 43.4209 37.6994 43.4209H34.3919C33.5767 43.4209 32.9184 44.0793 32.9184 44.8945V51.3372C32.9184 52.1523 33.5767 52.8107 34.4076 52.8107V52.8107Z" fill="#321B41"/>
<path d="M36.9627 48.1081H6.92809C5.70539 48.1081 4.70215 47.1205 4.70215 45.8822V37.1351C7.83728 36.3513 20.7227 34.9092 21.9454 34.9092C26.0336 34.9092 30.567 35.5676 39.1886 37.1351V45.8822C39.1886 47.1205 38.1854 48.1081 36.9627 48.1081Z" fill="#EDC808"/>
<path d="M1.91243 32.4316C2.58649 32.4316 3.13514 31.8829 3.13514 31.2089V30.864H6.27027V27.7289H3.13514V25.8165C3.13514 25.1424 2.58649 24.5938 1.91243 24.5938H1.2227C0.548649 24.5938 0 25.1424 0 25.8165V31.2089C0 31.8829 0.548649 32.4316 1.2227 32.4316H1.91243V32.4316ZM42.6692 32.4316C43.3432 32.4316 43.8919 31.8829 43.8919 31.2089V25.8165C43.8919 25.1424 43.3432 24.5938 42.6692 24.5938H41.9795C41.3054 24.5938 40.7568 25.1424 40.7568 25.8165V27.7289H37.6216V30.864H40.7568V31.2089C40.7568 31.8829 41.3054 32.4316 41.9795 32.4316H42.6692Z" fill="#321B41"/>
<path d="M33.8432 12.0537H10.0476C7.08485 12.0537 4.70215 14.358 4.70215 17.211V37.1348H39.1886V17.211C39.1886 14.358 36.8059 12.0537 33.8432 12.0537Z" fill="#EDC808"/>
<path d="M34.5022 35.5673H9.38978C8.52762 35.5673 7.83789 34.8619 7.83789 34.0154V21.4592L21.946 19.8916L36.0541 21.4592V34.0154C36.0541 34.8619 35.3644 35.5673 34.5022 35.5673V35.5673Z" fill="#868686"/>
<path d="M13.3238 40.2707H30.5671C31.006 40.2707 31.3508 39.9258 31.3508 39.4869C31.3508 39.048 31.006 38.7031 30.5671 38.7031H13.3238C12.8849 38.7031 12.54 39.0637 12.54 39.4869C12.54 39.9258 12.8849 40.2707 13.3238 40.2707ZM16.459 43.4058H27.4319C27.8708 43.4058 28.2157 43.061 28.2157 42.622C28.2157 42.1831 27.8708 41.8383 27.4319 41.8383H16.459C16.02 41.8383 15.6752 42.1831 15.6752 42.622C15.6752 43.061 16.02 43.4058 16.459 43.4058Z" fill="#E6E6E6"/>
<path d="M7.83728 38.7031C8.69945 38.7031 9.40485 39.4085 9.40485 40.2707V43.4058C9.40485 44.268 8.69945 44.9734 7.83728 44.9734H4.70215V38.7031H7.83728ZM36.0535 44.9734C35.1913 44.9734 34.4859 44.268 34.4859 43.4058V40.2707C34.4859 39.4085 35.1913 38.7031 36.0535 38.7031H39.1886V44.9734H36.0535Z" fill="#868686"/>
<path d="M36.0541 21.4586H7.83789V18.3078C7.83789 17.4456 8.52762 16.7559 9.38978 16.7559H34.5179C35.3644 16.7559 36.0541 17.4456 36.0541 18.3078V21.4586V21.4586Z" fill="#433B6B"/>
<circle cx="40.0543" cy="12.7559" r="8.44706" transform="rotate(-45 40.0543 12.7559)" fill="#4382EE"/>
<path d="M37.0081 18.2432L37.0081 17.0394L40.2017 13.9087C40.5071 13.6002 40.7617 13.3262 40.9653 13.0867C41.1689 12.8471 41.3216 12.6151 41.4234 12.3905C41.5252 12.1659 41.5762 11.9263 41.5762 11.6718C41.5762 11.3813 41.5103 11.1328 41.3785 10.9262C41.2468 10.7166 41.0656 10.5549 40.835 10.4411C40.6044 10.3273 40.3424 10.2704 40.049 10.2704C39.7465 10.2704 39.4815 10.3333 39.2539 10.459C39.0264 10.5818 38.8497 10.757 38.7239 10.9846C38.6011 11.2121 38.5398 11.4831 38.5398 11.7976L36.9542 11.7976C36.9542 11.2136 37.0874 10.7061 37.3539 10.2749C37.6205 9.84367 37.9873 9.50979 38.4544 9.27322C38.9245 9.03666 39.4636 8.91838 40.0714 8.91838C40.6883 8.91838 41.2303 9.03367 41.6974 9.26424C42.1646 9.49482 42.5269 9.81073 42.7844 10.212C43.0449 10.6133 43.1752 11.0714 43.1752 11.5865C43.1752 11.9308 43.1093 12.2692 42.9776 12.6016C42.8458 12.934 42.6137 13.3023 42.2813 13.7065C41.952 14.1108 41.4893 14.6004 40.8934 15.1753L39.3078 16.7879L39.3078 16.8507L43.3144 16.8507L43.3144 18.2432L37.0081 18.2432Z" fill="white"/>
</svg>
