<svg width="52" height="53" viewBox="0 0 52 53" fill="none" xmlns="http://www.w3.org/2000/svg">
<path d="M6.17566 52.6212H9.49891C10.314 52.6212 10.9724 51.9628 10.9724 51.1477V44.705C10.9724 44.3101 10.8155 43.9313 10.5362 43.652C10.257 43.3727 9.87819 43.2158 9.48323 43.2158H6.17566C5.36053 43.2158 4.70215 43.8899 4.70215 44.705V51.1477C4.70215 51.9628 5.36053 52.6212 6.17566 52.6212V52.6212ZM34.4076 52.6212H37.7151C38.5303 52.6212 39.1886 51.9628 39.173 51.1477V44.705C39.173 43.8899 38.5146 43.2315 37.6994 43.2315H34.3919C33.5767 43.2315 32.9184 43.8899 32.9184 44.705V51.1477C32.9184 51.9628 33.5767 52.6212 34.4076 52.6212V52.6212Z" fill="#321B41"/>
<path d="M36.9627 47.9186H6.92809C5.70539 47.9186 4.70215 46.9311 4.70215 45.6927V36.9457C7.83728 36.1619 20.7227 34.7197 21.9454 34.7197C26.0336 34.7197 30.567 35.3781 39.1886 36.9457V45.6927C39.1886 46.9311 38.1854 47.9186 36.9627 47.9186Z" fill="#EDC808"/>
<path d="M1.91243 32.2421C2.58649 32.2421 3.13514 31.6935 3.13514 31.0194V30.6746H6.27027V27.5394H3.13514V25.627C3.13514 24.9529 2.58649 24.4043 1.91243 24.4043H1.2227C0.548649 24.4043 0 24.9529 0 25.627V31.0194C0 31.6935 0.548649 32.2421 1.2227 32.2421H1.91243V32.2421ZM42.6692 32.2421C43.3432 32.2421 43.8919 31.6935 43.8919 31.0194V25.627C43.8919 24.9529 43.3432 24.4043 42.6692 24.4043H41.9795C41.3054 24.4043 40.7568 24.9529 40.7568 25.627V27.5394H37.6216V30.6746H40.7568V31.0194C40.7568 31.6935 41.3054 32.2421 41.9795 32.2421H42.6692Z" fill="#321B41"/>
<path d="M33.8432 11.8643H10.0476C7.08485 11.8643 4.70215 14.1686 4.70215 17.0216V36.9453H39.1886V17.0216C39.1886 14.1686 36.8059 11.8643 33.8432 11.8643Z" fill="#EDC808"/>
<path d="M34.5022 35.3778H9.38978C8.52762 35.3778 7.83789 34.6724 7.83789 33.8259V21.2697L21.946 19.7021L36.0541 21.2697V33.8259C36.0541 34.6724 35.3644 35.3778 34.5022 35.3778V35.3778Z" fill="#868686"/>
<path d="M13.3238 40.0812H30.5671C31.006 40.0812 31.3508 39.7364 31.3508 39.2975C31.3508 38.8585 31.006 38.5137 30.5671 38.5137H13.3238C12.8849 38.5137 12.54 38.8742 12.54 39.2975C12.54 39.7364 12.8849 40.0812 13.3238 40.0812ZM16.459 43.2164H27.4319C27.8708 43.2164 28.2157 42.8715 28.2157 42.4326C28.2157 41.9937 27.8708 41.6488 27.4319 41.6488H16.459C16.02 41.6488 15.6752 41.9937 15.6752 42.4326C15.6752 42.8715 16.02 43.2164 16.459 43.2164Z" fill="#E6E6E6"/>
<path d="M7.83728 38.5137C8.69945 38.5137 9.40485 39.2191 9.40485 40.0812V43.2164C9.40485 44.0785 8.69945 44.7839 7.83728 44.7839H4.70215V38.5137H7.83728ZM36.0535 44.7839C35.1913 44.7839 34.4859 44.0785 34.4859 43.2164V40.0812C34.4859 39.2191 35.1913 38.5137 36.0535 38.5137H39.1886V44.7839H36.0535Z" fill="#868686"/>
<path d="M36.0541 21.2691H7.83789V18.1183C7.83789 17.2561 8.52762 16.5664 9.38978 16.5664H34.5179C35.3644 16.5664 36.0541 17.2561 36.0541 18.1183V21.2691V21.2691Z" fill="#433B6B"/>
<circle cx="40.0543" cy="12.5674" r="8.44706" transform="rotate(-45 40.0543 12.5674)" fill="#4382EE"/>
<path d="M40.118 18.1795C39.4712 18.1795 38.8963 18.0687 38.3932 17.8471C37.8931 17.6255 37.4979 17.3171 37.2074 16.9218C36.9169 16.5265 36.7627 16.0699 36.7448 15.5518L38.4336 15.5518C38.4486 15.8004 38.531 16.0175 38.6807 16.2031C38.8304 16.3858 39.0295 16.528 39.2781 16.6298C39.5266 16.7317 39.8051 16.7826 40.1135 16.7826C40.4429 16.7826 40.7349 16.7257 40.9894 16.6119C41.244 16.4951 41.4431 16.3334 41.5868 16.1268C41.7306 15.9202 41.8009 15.6821 41.7979 15.4126C41.8009 15.1341 41.7291 14.8886 41.5823 14.6759C41.4356 14.4633 41.223 14.2971 40.9445 14.1774C40.669 14.0576 40.3366 13.9977 39.9473 13.9977L39.1343 13.9977L39.1343 12.7131L39.9473 12.7131C40.2678 12.7131 40.5477 12.6577 40.7873 12.5469C41.0298 12.4361 41.22 12.2804 41.3577 12.0797C41.4955 11.8761 41.5629 11.6411 41.5599 11.3745C41.5629 11.114 41.5045 10.8879 41.3847 10.6963C41.2679 10.5017 41.1017 10.3504 40.8861 10.2426C40.6735 10.1348 40.4235 10.0809 40.136 10.0809C39.8545 10.0809 39.594 10.1318 39.3544 10.2336C39.1149 10.3355 38.9217 10.4807 38.775 10.6693C38.6283 10.855 38.5504 11.0766 38.5414 11.3341L36.9379 11.3341C36.9499 10.8191 37.0981 10.3669 37.3826 9.97762C37.6701 9.58534 38.0533 9.27991 38.5325 9.06131C39.0116 8.83972 39.5491 8.72893 40.145 8.72893C40.7588 8.72893 41.2919 8.84421 41.744 9.07479C42.1992 9.30237 42.551 9.6093 42.7996 9.99559C43.0481 10.3819 43.1724 10.8086 43.1724 11.2757C43.1754 11.7938 43.0227 12.228 42.7142 12.5783C42.4088 12.9287 42.0075 13.1578 41.5105 13.2656L41.5105 13.3374C42.1573 13.4273 42.6529 13.6668 42.9972 14.0561C43.3446 14.4424 43.5168 14.923 43.5138 15.4979C43.5138 16.013 43.367 16.4741 43.0736 16.8814C42.7831 17.2856 42.3819 17.603 41.8698 17.8336C41.3607 18.0642 40.7768 18.1795 40.118 18.1795Z" fill="white"/>
</svg>
