<svg width="52" height="53" viewBox="0 0 52 53" fill="none" xmlns="http://www.w3.org/2000/svg">
<path d="M6.17566 52.4327H9.49891C10.314 52.4327 10.9724 51.7744 10.9724 50.9592V44.5165C10.9724 44.1216 10.8155 43.7428 10.5362 43.4635C10.257 43.1842 9.87819 43.0273 9.48323 43.0273H6.17566C5.36053 43.0273 4.70215 43.7014 4.70215 44.5165V50.9592C4.70215 51.7744 5.36053 52.4327 6.17566 52.4327V52.4327ZM34.4076 52.4327H37.7151C38.5303 52.4327 39.1886 51.7744 39.173 50.9592V44.5165C39.173 43.7014 38.5146 43.043 37.6994 43.043H34.3919C33.5767 43.043 32.9184 43.7014 32.9184 44.5165V50.9592C32.9184 51.7744 33.5767 52.4327 34.4076 52.4327V52.4327Z" fill="#321B41"/>
<path d="M36.9627 47.7302H6.92809C5.70539 47.7302 4.70215 46.7426 4.70215 45.5042V36.7572C7.83728 35.9734 20.7227 34.5312 21.9454 34.5312C26.0336 34.5312 30.567 35.1896 39.1886 36.7572V45.5042C39.1886 46.7426 38.1854 47.7302 36.9627 47.7302Z" fill="#EDC808"/>
<path d="M1.91243 32.0537C2.58649 32.0537 3.13514 31.505 3.13514 30.831V30.4861H6.27027V27.351H3.13514V25.4385C3.13514 24.7645 2.58649 24.2158 1.91243 24.2158H1.2227C0.548649 24.2158 0 24.7645 0 25.4385V30.831C0 31.505 0.548649 32.0537 1.2227 32.0537H1.91243V32.0537ZM42.6692 32.0537C43.3432 32.0537 43.8919 31.505 43.8919 30.831V25.4385C43.8919 24.7645 43.3432 24.2158 42.6692 24.2158H41.9795C41.3054 24.2158 40.7568 24.7645 40.7568 25.4385V27.351H37.6216V30.4861H40.7568V30.831C40.7568 31.505 41.3054 32.0537 41.9795 32.0537H42.6692Z" fill="#321B41"/>
<path d="M33.8432 11.6758H10.0476C7.08485 11.6758 4.70215 13.9801 4.70215 16.8331V36.7569H39.1886V16.8331C39.1886 13.9801 36.8059 11.6758 33.8432 11.6758Z" fill="#EDC808"/>
<path d="M34.5022 35.1893H9.38978C8.52762 35.1893 7.83789 34.4839 7.83789 33.6375V21.0812L21.946 19.5137L36.0541 21.0812V33.6375C36.0541 34.4839 35.3644 35.1893 34.5022 35.1893V35.1893Z" fill="#868686"/>
<path d="M13.3238 39.8928H30.5671C31.006 39.8928 31.3508 39.5479 31.3508 39.109C31.3508 38.6701 31.006 38.3252 30.5671 38.3252H13.3238C12.8849 38.3252 12.54 38.6857 12.54 39.109C12.54 39.5479 12.8849 39.8928 13.3238 39.8928ZM16.459 43.0279H27.4319C27.8708 43.0279 28.2157 42.683 28.2157 42.2441C28.2157 41.8052 27.8708 41.4603 27.4319 41.4603H16.459C16.02 41.4603 15.6752 41.8052 15.6752 42.2441C15.6752 42.683 16.02 43.0279 16.459 43.0279Z" fill="#E6E6E6"/>
<path d="M7.83728 38.3252C8.69945 38.3252 9.40485 39.0306 9.40485 39.8928V43.0279C9.40485 43.8901 8.69945 44.5955 7.83728 44.5955H4.70215V38.3252H7.83728ZM36.0535 44.5955C35.1913 44.5955 34.4859 43.8901 34.4859 43.0279V39.8928C34.4859 39.0306 35.1913 38.3252 36.0535 38.3252H39.1886V44.5955H36.0535Z" fill="#868686"/>
<path d="M36.0541 21.0806H7.83789V17.9298C7.83789 17.0677 8.52762 16.3779 9.38978 16.3779H34.5179C35.3644 16.3779 36.0541 17.0677 36.0541 17.9298V21.0806V21.0806Z" fill="#433B6B"/>
<circle cx="40.0543" cy="12.3779" r="8.44706" transform="rotate(-45 40.0543 12.3779)" fill="#4382EE"/>
<path d="M36.5578 16.1574L36.5578 14.8324L40.4611 8.66524L41.566 8.66524L41.566 10.5518L40.8923 10.5518L38.2646 14.7156L38.2646 14.7874L43.7131 14.7874L43.7131 16.1574L36.5578 16.1574ZM40.9462 17.8643L40.9462 15.7532L40.9642 15.1603L40.9642 8.66524L42.5363 8.66524L42.5363 17.8643L40.9462 17.8643Z" fill="white"/>
</svg>
