<svg width="52" height="53" viewBox="0 0 52 53" fill="none" xmlns="http://www.w3.org/2000/svg">
<path d="M6.17566 52.2433H9.49891C10.314 52.2433 10.9724 51.5849 10.9724 50.7698V44.3271C10.9724 43.9321 10.8155 43.5533 10.5362 43.2741C10.257 42.9948 9.87819 42.8379 9.48323 42.8379H6.17566C5.36053 42.8379 4.70215 43.5119 4.70215 44.3271V50.7698C4.70215 51.5849 5.36053 52.2433 6.17566 52.2433V52.2433ZM34.4076 52.2433H37.7151C38.5303 52.2433 39.1886 51.5849 39.173 50.7698V44.3271C39.173 43.5119 38.5146 42.8536 37.6994 42.8536H34.3919C33.5767 42.8536 32.9184 43.5119 32.9184 44.3271V50.7698C32.9184 51.5849 33.5767 52.2433 34.4076 52.2433V52.2433Z" fill="#321B41"/>
<path d="M36.9627 47.5407H6.92809C5.70539 47.5407 4.70215 46.5531 4.70215 45.3148V36.5677C7.83728 35.784 20.7227 34.3418 21.9454 34.3418C26.0336 34.3418 30.567 35.0002 39.1886 36.5677V45.3148C39.1886 46.5531 38.1854 47.5407 36.9627 47.5407Z" fill="#EDC808"/>
<path d="M1.91243 31.8642C2.58649 31.8642 3.13514 31.3156 3.13514 30.6415V30.2966H6.27027V27.1615H3.13514V25.2491C3.13514 24.575 2.58649 24.0264 1.91243 24.0264H1.2227C0.548649 24.0264 0 24.575 0 25.2491V30.6415C0 31.3156 0.548649 31.8642 1.2227 31.8642H1.91243V31.8642ZM42.6692 31.8642C43.3432 31.8642 43.8919 31.3156 43.8919 30.6415V25.2491C43.8919 24.575 43.3432 24.0264 42.6692 24.0264H41.9795C41.3054 24.0264 40.7568 24.575 40.7568 25.2491V27.1615H37.6216V30.2966H40.7568V30.6415C40.7568 31.3156 41.3054 31.8642 41.9795 31.8642H42.6692Z" fill="#321B41"/>
<path d="M33.8432 11.4863H10.0476C7.08485 11.4863 4.70215 13.7907 4.70215 16.6436V36.5674H39.1886V16.6436C39.1886 13.7907 36.8059 11.4863 33.8432 11.4863Z" fill="#EDC808"/>
<path d="M34.5022 34.9999H9.38978C8.52762 34.9999 7.83789 34.2945 7.83789 33.448V20.8918L21.946 19.3242L36.0541 20.8918V33.448C36.0541 34.2945 35.3644 34.9999 34.5022 34.9999V34.9999Z" fill="#868686"/>
<path d="M13.3238 39.7033H30.5671C31.006 39.7033 31.3508 39.3584 31.3508 38.9195C31.3508 38.4806 31.006 38.1357 30.5671 38.1357H13.3238C12.8849 38.1357 12.54 38.4963 12.54 38.9195C12.54 39.3584 12.8849 39.7033 13.3238 39.7033ZM16.459 42.8384H27.4319C27.8708 42.8384 28.2157 42.4936 28.2157 42.0547C28.2157 41.6157 27.8708 41.2709 27.4319 41.2709H16.459C16.02 41.2709 15.6752 41.6157 15.6752 42.0547C15.6752 42.4936 16.02 42.8384 16.459 42.8384Z" fill="#E6E6E6"/>
<path d="M7.83728 38.1357C8.69945 38.1357 9.40485 38.8411 9.40485 39.7033V42.8384C9.40485 43.7006 8.69945 44.406 7.83728 44.406H4.70215V38.1357H7.83728ZM36.0535 44.406C35.1913 44.406 34.4859 43.7006 34.4859 42.8384V39.7033C34.4859 38.8411 35.1913 38.1357 36.0535 38.1357H39.1886V44.406H36.0535Z" fill="#868686"/>
<path d="M36.0541 20.8912H7.83789V17.7404C7.83789 16.8782 8.52762 16.1885 9.38978 16.1885H34.5179C35.3644 16.1885 36.0541 16.8782 36.0541 17.7404V20.8912V20.8912Z" fill="#433B6B"/>
<circle cx="40.0543" cy="12.1895" r="8.44706" transform="rotate(-45 40.0543 12.1895)" fill="#4382EE"/>
<path d="M40.1321 17.8015C39.5332 17.8015 38.9972 17.6893 38.524 17.4647C38.0509 17.2371 37.6751 16.9257 37.3966 16.5304C37.1211 16.1351 36.9744 15.683 36.9564 15.1739L38.5734 15.1739C38.6034 15.5512 38.7666 15.8596 39.063 16.0992C39.3595 16.3358 39.7158 16.454 40.1321 16.454C40.4585 16.454 40.7489 16.3792 41.0035 16.2295C41.258 16.0797 41.4586 15.8716 41.6053 15.6051C41.7521 15.3386 41.8239 15.0347 41.8209 14.6933C41.8239 14.3459 41.7506 14.0375 41.6009 13.768C41.4511 13.4985 41.246 13.2874 40.9855 13.1347C40.725 12.979 40.4255 12.9011 40.0872 12.9011C39.8117 12.8981 39.5407 12.949 39.2742 13.0538C39.0076 13.1586 38.7965 13.2964 38.6408 13.4671L37.1361 13.22L37.6167 8.47676L42.9529 8.47677L42.9529 9.86919L38.9957 9.86919L38.7307 12.3082L38.7846 12.3082C38.9552 12.1076 39.1963 11.9414 39.5077 11.8096C39.8191 11.6749 40.1605 11.6075 40.5318 11.6075C41.0888 11.6075 41.5859 11.7392 42.0231 12.0028C42.4603 12.2633 42.8046 12.6226 43.0562 13.0808C43.3077 13.5389 43.4335 14.063 43.4335 14.6529C43.4335 15.2607 43.2927 15.8027 43.0113 16.2789C42.7328 16.752 42.345 17.1248 41.8479 17.3973C41.3538 17.6668 40.7819 17.8015 40.1321 17.8015Z" fill="white"/>
</svg>
