<svg width="52" height="53" viewBox="0 0 52 53" fill="none" xmlns="http://www.w3.org/2000/svg">
<path d="M6.17566 52.0538H9.49891C10.314 52.0538 10.9724 51.3955 10.9724 50.5803V44.1376C10.9724 43.7427 10.8155 43.3639 10.5362 43.0846C10.257 42.8053 9.87819 42.6484 9.48323 42.6484H6.17566C5.36053 42.6484 4.70215 43.3225 4.70215 44.1376V50.5803C4.70215 51.3955 5.36053 52.0538 6.17566 52.0538V52.0538ZM34.4076 52.0538H37.7151C38.5303 52.0538 39.1886 51.3955 39.173 50.5803V44.1376C39.173 43.3225 38.5146 42.6641 37.6994 42.6641H34.3919C33.5767 42.6641 32.9184 43.3225 32.9184 44.1376V50.5803C32.9184 51.3955 33.5767 52.0538 34.4076 52.0538V52.0538Z" fill="#321B41"/>
<path d="M36.9627 47.3513H6.92809C5.70539 47.3513 4.70215 46.3637 4.70215 45.1253V36.3783C7.83728 35.5945 20.7227 34.1523 21.9454 34.1523C26.0336 34.1523 30.567 34.8107 39.1886 36.3783V45.1253C39.1886 46.3637 38.1854 47.3513 36.9627 47.3513Z" fill="#EDC808"/>
<path d="M1.91243 31.6748C2.58649 31.6748 3.13514 31.1261 3.13514 30.452V30.1072H6.27027V26.972H3.13514V25.0596C3.13514 24.3856 2.58649 23.8369 1.91243 23.8369H1.2227C0.548649 23.8369 0 24.3856 0 25.0596V30.452C0 31.1261 0.548649 31.6748 1.2227 31.6748H1.91243V31.6748ZM42.6692 31.6748C43.3432 31.6748 43.8919 31.1261 43.8919 30.452V25.0596C43.8919 24.3856 43.3432 23.8369 42.6692 23.8369H41.9795C41.3054 23.8369 40.7568 24.3856 40.7568 25.0596V26.972H37.6216V30.1072H40.7568V30.452C40.7568 31.1261 41.3054 31.6748 41.9795 31.6748H42.6692Z" fill="#321B41"/>
<path d="M33.8432 11.2969H10.0476C7.08485 11.2969 4.70215 13.6012 4.70215 16.4542V36.378H39.1886V16.4542C39.1886 13.6012 36.8059 11.2969 33.8432 11.2969Z" fill="#EDC808"/>
<path d="M34.5022 34.8104H9.38978C8.52762 34.8104 7.83789 34.105 7.83789 33.2585V20.7023L21.946 19.1348L36.0541 20.7023V33.2585C36.0541 34.105 35.3644 34.8104 34.5022 34.8104V34.8104Z" fill="#868686"/>
<path d="M13.3238 39.5139H30.5671C31.006 39.5139 31.3508 39.169 31.3508 38.7301C31.3508 38.2912 31.006 37.9463 30.5671 37.9463H13.3238C12.8849 37.9463 12.54 38.3068 12.54 38.7301C12.54 39.169 12.8849 39.5139 13.3238 39.5139ZM16.459 42.649H27.4319C27.8708 42.649 28.2157 42.3041 28.2157 41.8652C28.2157 41.4263 27.8708 41.0814 27.4319 41.0814H16.459C16.02 41.0814 15.6752 41.4263 15.6752 41.8652C15.6752 42.3041 16.02 42.649 16.459 42.649Z" fill="#E6E6E6"/>
<path d="M7.83728 37.9463C8.69945 37.9463 9.40485 38.6517 9.40485 39.5139V42.649C9.40485 43.5112 8.69945 44.2166 7.83728 44.2166H4.70215V37.9463H7.83728ZM36.0535 44.2166C35.1913 44.2166 34.4859 43.5112 34.4859 42.649V39.5139C34.4859 38.6517 35.1913 37.9463 36.0535 37.9463H39.1886V44.2166H36.0535Z" fill="#868686"/>
<path d="M36.0541 20.7017H7.83789V17.5509C7.83789 16.6888 8.52762 15.999 9.38978 15.999H34.5179C35.3644 15.999 36.0541 16.6888 36.0541 17.5509V20.7017V20.7017Z" fill="#433B6B"/>
<circle cx="40.0543" cy="12" r="8.44706" transform="rotate(-45 40.0543 12)" fill="#4382EE"/>
<path d="M40.2039 17.6121C39.7637 17.6091 39.334 17.5327 38.9148 17.383C38.4956 17.2303 38.1183 16.9833 37.7829 16.6419C37.4475 16.2975 37.181 15.8409 36.9834 15.2719C36.7857 14.7 36.6884 13.9918 36.6914 13.1473C36.6914 12.3598 36.7753 11.6576 36.943 11.0407C37.1106 10.4239 37.3517 9.90283 37.6661 9.47761C37.9805 9.0494 38.3593 8.72301 38.8025 8.49842C39.2487 8.27384 39.7473 8.16154 40.2983 8.16154C40.8762 8.16154 41.3882 8.27533 41.8344 8.50291C42.2836 8.73049 42.6459 9.04192 42.9214 9.43719C43.1969 9.82947 43.3676 10.2726 43.4335 10.7667L41.794 10.7667C41.7102 10.4134 41.538 10.1319 41.2775 9.92229C41.0199 9.70969 40.6935 9.60338 40.2983 9.60338C39.6604 9.60338 39.1693 9.88037 38.825 10.4343C38.4836 10.9883 38.3114 11.7489 38.3084 12.7161L38.3713 12.7161C38.518 12.4526 38.7082 12.2265 38.9418 12.0379C39.1753 11.8492 39.4388 11.704 39.7323 11.6022C40.0288 11.4974 40.3417 11.445 40.6711 11.445C41.2101 11.445 41.6937 11.5737 42.1219 11.8313C42.5531 12.0888 42.8945 12.4436 43.146 12.8958C43.3975 13.345 43.5218 13.86 43.5188 14.441C43.5218 15.0458 43.3841 15.5893 43.1056 16.0714C42.8271 16.5506 42.4393 16.9279 41.9422 17.2034C41.4451 17.4788 40.8657 17.6151 40.2039 17.6121ZM40.195 16.2646C40.5213 16.2646 40.8133 16.1852 41.0708 16.0265C41.3284 15.8678 41.532 15.6537 41.6817 15.3842C41.8314 15.1147 41.9048 14.8123 41.9018 14.4769C41.9048 14.1475 41.8329 13.8495 41.6862 13.583C41.5425 13.3165 41.3433 13.1054 41.0888 12.9497C40.8343 12.794 40.5438 12.7161 40.2174 12.7161C39.9749 12.7161 39.7488 12.7625 39.5392 12.8554C39.3295 12.9482 39.1469 13.077 38.9912 13.2417C38.8355 13.4034 38.7127 13.592 38.6229 13.8076C38.536 14.0202 38.4911 14.2478 38.4881 14.4904C38.4911 14.8108 38.566 15.1057 38.7127 15.3752C38.8594 15.6447 39.0615 15.8603 39.3191 16.022C39.5766 16.1837 39.8686 16.2646 40.195 16.2646Z" fill="white"/>
</svg>
