<svg width="52" height="53" viewBox="0 0 52 53" fill="none" xmlns="http://www.w3.org/2000/svg">
<path d="M6.17566 52.8654H9.49891C10.314 52.8654 10.9724 52.207 10.9724 51.3919V44.9492C10.9724 44.5542 10.8155 44.1754 10.5362 43.8961C10.257 43.6169 9.87819 43.46 9.48323 43.46H6.17566C5.36053 43.46 4.70215 44.134 4.70215 44.9492V51.3919C4.70215 52.207 5.36053 52.8654 6.17566 52.8654V52.8654ZM34.4076 52.8654H37.7151C38.5303 52.8654 39.1886 52.207 39.173 51.3919V44.9492C39.173 44.134 38.5146 43.4756 37.6994 43.4756H34.3919C33.5767 43.4756 32.9184 44.134 32.9184 44.9492V51.3919C32.9184 52.207 33.5767 52.8654 34.4076 52.8654V52.8654Z" fill="#321B41"/>
<path d="M36.9627 48.1628H6.92809C5.70539 48.1628 4.70215 47.1752 4.70215 45.9368V37.1898C7.83728 36.406 20.7227 34.9639 21.9454 34.9639C26.0336 34.9639 30.567 35.6222 39.1886 37.1898V45.9368C39.1886 47.1752 38.1854 48.1628 36.9627 48.1628Z" fill="#EDC808"/>
<path d="M1.91243 32.4863C2.58649 32.4863 3.13514 31.9376 3.13514 31.2636V30.9187H6.27027V27.7836H3.13514V25.8711C3.13514 25.1971 2.58649 24.6484 1.91243 24.6484H1.2227C0.548649 24.6484 0 25.1971 0 25.8711V31.2636C0 31.9376 0.548649 32.4863 1.2227 32.4863H1.91243V32.4863ZM42.6692 32.4863C43.3432 32.4863 43.8919 31.9376 43.8919 31.2636V25.8711C43.8919 25.1971 43.3432 24.6484 42.6692 24.6484H41.9795C41.3054 24.6484 40.7568 25.1971 40.7568 25.8711V27.7836H37.6216V30.9187H40.7568V31.2636C40.7568 31.9376 41.3054 32.4863 41.9795 32.4863H42.6692Z" fill="#321B41"/>
<path d="M33.8432 12.1084H10.0476C7.08485 12.1084 4.70215 14.4127 4.70215 17.2657V37.1895H39.1886V17.2657C39.1886 14.4127 36.8059 12.1084 33.8432 12.1084Z" fill="#EDC808"/>
<path d="M34.5022 35.622H9.38978C8.52762 35.622 7.83789 34.9166 7.83789 34.0701V21.5139L21.946 19.9463L36.0541 21.5139V34.0701C36.0541 34.9166 35.3644 35.622 34.5022 35.622V35.622Z" fill="#868686"/>
<path d="M13.3238 40.3254H30.5671C31.006 40.3254 31.3508 39.9805 31.3508 39.5416C31.3508 39.1027 31.006 38.7578 30.5671 38.7578H13.3238C12.8849 38.7578 12.54 39.1184 12.54 39.5416C12.54 39.9805 12.8849 40.3254 13.3238 40.3254ZM16.459 43.4605H27.4319C27.8708 43.4605 28.2157 43.1157 28.2157 42.6767C28.2157 42.2378 27.8708 41.8929 27.4319 41.8929H16.459C16.02 41.8929 15.6752 42.2378 15.6752 42.6767C15.6752 43.1157 16.02 43.4605 16.459 43.4605Z" fill="#E6E6E6"/>
<path d="M7.83728 38.7578C8.69945 38.7578 9.40485 39.4632 9.40485 40.3254V43.4605C9.40485 44.3227 8.69945 45.0281 7.83728 45.0281H4.70215V38.7578H7.83728ZM36.0535 45.0281C35.1913 45.0281 34.4859 44.3227 34.4859 43.4605V40.3254C34.4859 39.4632 35.1913 38.7578 36.0535 38.7578H39.1886V45.0281H36.0535Z" fill="#868686"/>
<path d="M36.0541 21.5132H7.83789V18.3624C7.83789 17.5003 8.52762 16.8105 9.38978 16.8105H34.5179C35.3644 16.8105 36.0541 17.5003 36.0541 18.3624V21.5132V21.5132Z" fill="#433B6B"/>
<circle cx="40.0543" cy="12.8105" r="8.44706" transform="rotate(-45 40.0543 12.8105)" fill="#4382EE"/>
<path d="M37.5611 18.2969L41.4734 10.5532L41.4734 10.4903L36.9323 10.4903L36.9323 9.09786L43.1982 9.09786L43.1982 10.5217L39.2904 18.2969L37.5611 18.2969Z" fill="white"/>
</svg>
