<svg width="52" height="53" viewBox="0 0 52 53" fill="none" xmlns="http://www.w3.org/2000/svg">
<path d="M6.17566 52.6749H9.49891C10.314 52.6749 10.9724 52.0166 10.9724 51.2014V44.7587C10.9724 44.3638 10.8155 43.985 10.5362 43.7057C10.257 43.4264 9.87819 43.2695 9.48323 43.2695H6.17566C5.36053 43.2695 4.70215 43.9436 4.70215 44.7587V51.2014C4.70215 52.0166 5.36053 52.6749 6.17566 52.6749V52.6749ZM34.4076 52.6749H37.7151C38.5303 52.6749 39.1886 52.0166 39.173 51.2014V44.7587C39.173 43.9436 38.5146 43.2852 37.6994 43.2852H34.3919C33.5767 43.2852 32.9184 43.9436 32.9184 44.7587V51.2014C32.9184 52.0166 33.5767 52.6749 34.4076 52.6749V52.6749Z" fill="#321B41"/>
<path d="M36.9627 47.9724H6.92809C5.70539 47.9724 4.70215 46.9848 4.70215 45.7464V36.9994C7.83728 36.2156 20.7227 34.7734 21.9454 34.7734C26.0336 34.7734 30.567 35.4318 39.1886 36.9994V45.7464C39.1886 46.9848 38.1854 47.9724 36.9627 47.9724Z" fill="#EDC808"/>
<path d="M1.91243 32.2958C2.58649 32.2958 3.13514 31.7472 3.13514 31.0731V30.7283H6.27027V27.5931H3.13514V25.6807C3.13514 25.0067 2.58649 24.458 1.91243 24.458H1.2227C0.548649 24.458 0 25.0067 0 25.6807V31.0731C0 31.7472 0.548649 32.2958 1.2227 32.2958H1.91243V32.2958ZM42.6692 32.2958C43.3432 32.2958 43.8919 31.7472 43.8919 31.0731V25.6807C43.8919 25.0067 43.3432 24.458 42.6692 24.458H41.9795C41.3054 24.458 40.7568 25.0067 40.7568 25.6807V27.5931H37.6216V30.7283H40.7568V31.0731C40.7568 31.7472 41.3054 32.2958 41.9795 32.2958H42.6692Z" fill="#321B41"/>
<path d="M33.8432 11.918H10.0476C7.08485 11.918 4.70215 14.2223 4.70215 17.0753V36.999H39.1886V17.0753C39.1886 14.2223 36.8059 11.918 33.8432 11.918Z" fill="#EDC808"/>
<path d="M34.5022 35.4315H9.38978C8.52762 35.4315 7.83789 34.7261 7.83789 33.8796V21.3234L21.946 19.7559L36.0541 21.3234V33.8796C36.0541 34.7261 35.3644 35.4315 34.5022 35.4315V35.4315Z" fill="#868686"/>
<path d="M13.3238 40.135H30.5671C31.006 40.135 31.3508 39.7901 31.3508 39.3512C31.3508 38.9122 31.006 38.5674 30.5671 38.5674H13.3238C12.8849 38.5674 12.54 38.9279 12.54 39.3512C12.54 39.7901 12.8849 40.135 13.3238 40.135ZM16.459 43.2701H27.4319C27.8708 43.2701 28.2157 42.9252 28.2157 42.4863C28.2157 42.0474 27.8708 41.7025 27.4319 41.7025H16.459C16.02 41.7025 15.6752 42.0474 15.6752 42.4863C15.6752 42.9252 16.02 43.2701 16.459 43.2701Z" fill="#E6E6E6"/>
<path d="M7.83728 38.5674C8.69945 38.5674 9.40485 39.2728 9.40485 40.135V43.2701C9.40485 44.1322 8.69945 44.8377 7.83728 44.8377H4.70215V38.5674H7.83728ZM36.0535 44.8377C35.1913 44.8377 34.4859 44.1322 34.4859 43.2701V40.135C34.4859 39.2728 35.1913 38.5674 36.0535 38.5674H39.1886V44.8377H36.0535Z" fill="#868686"/>
<path d="M36.0541 21.3228H7.83789V18.172C7.83789 17.3098 8.52762 16.6201 9.38978 16.6201H34.5179C35.3644 16.6201 36.0541 17.3098 36.0541 18.172V21.3228V21.3228Z" fill="#433B6B"/>
<circle cx="40.0543" cy="12.6211" r="8.44706" transform="rotate(-45 40.0543 12.6211)" fill="#4382EE"/>
<path d="M40.1236 18.2332C39.4559 18.2332 38.863 18.1209 38.3449 17.8963C37.8299 17.6717 37.4256 17.3648 37.1322 16.9755C36.8417 16.5832 36.698 16.1386 36.701 15.6415C36.698 15.2552 36.7818 14.9003 36.9525 14.5769C37.1232 14.2535 37.3538 13.984 37.6442 13.7684C37.9377 13.5498 38.2641 13.4106 38.6234 13.3507L38.6234 13.2878C38.1503 13.183 37.767 12.942 37.4735 12.5647C37.1831 12.1844 37.0393 11.7457 37.0423 11.2486C37.0393 10.7755 37.1711 10.3532 37.4376 9.98192C37.7041 9.61061 38.0694 9.31865 38.5336 9.10604C38.9977 8.89044 39.5277 8.78264 40.1236 8.78264C40.7136 8.78264 41.2391 8.89044 41.7002 9.10604C42.1644 9.31865 42.5297 9.61061 42.7962 9.98192C43.0657 10.3532 43.2005 10.7755 43.2005 11.2486C43.2005 11.7457 43.0522 12.1844 42.7558 12.5647C42.4623 12.942 42.0835 13.183 41.6194 13.2878L41.6194 13.3507C41.9787 13.4106 42.3021 13.5498 42.5896 13.7684C42.8801 13.984 43.1106 14.2535 43.2813 14.5769C43.455 14.9003 43.5418 15.2552 43.5418 15.6415C43.5418 16.1386 43.3951 16.5832 43.1016 16.9755C42.8082 17.3648 42.4039 17.6717 41.8889 17.8963C41.3768 18.1209 40.7884 18.2332 40.1236 18.2332ZM40.1236 16.9486C40.468 16.9486 40.7675 16.8902 41.022 16.7734C41.2765 16.6536 41.4742 16.4859 41.6149 16.2703C41.7556 16.0547 41.8275 15.8062 41.8305 15.5247C41.8275 15.2312 41.7511 14.9722 41.6014 14.7476C41.4547 14.52 41.2526 14.3419 40.995 14.2131C40.7405 14.0843 40.45 14.02 40.1236 14.02C39.7943 14.02 39.5008 14.0843 39.2433 14.2131C38.9857 14.3419 38.7821 14.52 38.6324 14.7476C38.4857 14.9722 38.4138 15.2312 38.4168 15.5247C38.4138 15.8062 38.4827 16.0547 38.6234 16.2703C38.7642 16.4829 38.9618 16.6491 39.2163 16.7689C39.4738 16.8887 39.7763 16.9486 40.1236 16.9486ZM40.1236 12.7578C40.4051 12.7578 40.6537 12.7009 40.8693 12.5871C41.0879 12.4733 41.26 12.3146 41.3858 12.111C41.5116 11.9074 41.576 11.6723 41.579 11.4058C41.576 11.1423 41.5131 10.9117 41.3903 10.7141C41.2675 10.5134 41.0968 10.3592 40.8783 10.2514C40.6597 10.1406 40.4081 10.0852 40.1236 10.0852C39.8332 10.0852 39.5772 10.1406 39.3556 10.2514C39.137 10.3592 38.9663 10.5134 38.8435 10.7141C38.7237 10.9117 38.6653 11.1423 38.6683 11.4058C38.6653 11.6723 38.7252 11.9074 38.848 12.111C38.9738 12.3116 39.146 12.4703 39.3645 12.5871C39.5861 12.7009 39.8392 12.7578 40.1236 12.7578Z" fill="white"/>
</svg>
