<svg width="52" height="53" viewBox="0 0 52 53" fill="none" xmlns="http://www.w3.org/2000/svg">
<path d="M6.17566 52.4855H9.49891C10.314 52.4855 10.9724 51.8271 10.9724 51.012V44.5693C10.9724 44.1743 10.8155 43.7955 10.5362 43.5163C10.257 43.237 9.87819 43.0801 9.48323 43.0801H6.17566C5.36053 43.0801 4.70215 43.7541 4.70215 44.5693V51.012C4.70215 51.8271 5.36053 52.4855 6.17566 52.4855V52.4855ZM34.4076 52.4855H37.7151C38.5303 52.4855 39.1886 51.8271 39.173 51.012V44.5693C39.173 43.7541 38.5146 43.0958 37.6994 43.0958H34.3919C33.5767 43.0958 32.9184 43.7541 32.9184 44.5693V51.012C32.9184 51.8271 33.5767 52.4855 34.4076 52.4855V52.4855Z" fill="#321B41"/>
<path d="M36.9627 47.7839H6.92809C5.70539 47.7839 4.70215 46.7963 4.70215 45.5579V36.8109C7.83728 36.0271 20.7227 34.585 21.9454 34.585C26.0336 34.585 30.567 35.2433 39.1886 36.8109V45.5579C39.1886 46.7963 38.1854 47.7839 36.9627 47.7839Z" fill="#EDC808"/>
<path d="M1.91243 32.1074C2.58649 32.1074 3.13514 31.5587 3.13514 30.8847V30.5398H6.27027V27.4047H3.13514V25.4922C3.13514 24.8182 2.58649 24.2695 1.91243 24.2695H1.2227C0.548649 24.2695 0 24.8182 0 25.4922V30.8847C0 31.5587 0.548649 32.1074 1.2227 32.1074H1.91243V32.1074ZM42.6692 32.1074C43.3432 32.1074 43.8919 31.5587 43.8919 30.8847V25.4922C43.8919 24.8182 43.3432 24.2695 42.6692 24.2695H41.9795C41.3054 24.2695 40.7568 24.8182 40.7568 25.4922V27.4047H37.6216V30.5398H40.7568V30.8847C40.7568 31.5587 41.3054 32.1074 41.9795 32.1074H42.6692Z" fill="#321B41"/>
<path d="M33.8432 11.7295H10.0476C7.08485 11.7295 4.70215 14.0338 4.70215 16.8868V36.8106H39.1886V16.8868C39.1886 14.0338 36.8059 11.7295 33.8432 11.7295Z" fill="#EDC808"/>
<path d="M34.5022 35.2431H9.38978C8.52762 35.2431 7.83789 34.5377 7.83789 33.6912V21.135L21.946 19.5674L36.0541 21.135V33.6912C36.0541 34.5377 35.3644 35.2431 34.5022 35.2431V35.2431Z" fill="#868686"/>
<path d="M13.3238 39.9465H30.5671C31.006 39.9465 31.3508 39.6016 31.3508 39.1627C31.3508 38.7238 31.006 38.3789 30.5671 38.3789H13.3238C12.8849 38.3789 12.54 38.7394 12.54 39.1627C12.54 39.6016 12.8849 39.9465 13.3238 39.9465ZM16.459 43.0816H27.4319C27.8708 43.0816 28.2157 42.7367 28.2157 42.2978C28.2157 41.8589 27.8708 41.514 27.4319 41.514H16.459C16.02 41.514 15.6752 41.8589 15.6752 42.2978C15.6752 42.7367 16.02 43.0816 16.459 43.0816Z" fill="#E6E6E6"/>
<path d="M7.83728 38.3789C8.69945 38.3789 9.40485 39.0843 9.40485 39.9465V43.0816C9.40485 43.9438 8.69945 44.6492 7.83728 44.6492H4.70215V38.3789H7.83728ZM36.0535 44.6492C35.1913 44.6492 34.4859 43.9438 34.4859 43.0816V39.9465C34.4859 39.0843 35.1913 38.3789 36.0535 38.3789H39.1886V44.6492H36.0535Z" fill="#868686"/>
<path d="M36.0541 21.1343H7.83789V17.9835C7.83789 17.1214 8.52762 16.4316 9.38978 16.4316H34.5179C35.3644 16.4316 36.0541 17.1214 36.0541 17.9835V21.1343V21.1343Z" fill="#433B6B"/>
<circle cx="40.0543" cy="12.4326" r="8.44706" transform="rotate(-45 40.0543 12.4326)" fill="#4382EE"/>
<path d="M40.0288 8.59416C40.4689 8.59716 40.8972 8.67501 41.3134 8.82773C41.7326 8.97745 42.1099 9.223 42.4453 9.56437C42.7807 9.90275 43.0472 10.3564 43.2448 10.9254C43.4425 11.4943 43.5413 12.198 43.5413 13.0365C43.5443 13.827 43.4604 14.5337 43.2897 15.1565C43.122 15.7764 42.881 16.3004 42.5666 16.7286C42.2522 17.1569 41.8734 17.4833 41.4302 17.7078C40.987 17.9324 40.4884 18.0447 39.9344 18.0447C39.3535 18.0447 38.8385 17.9309 38.3893 17.7033C37.9431 17.4758 37.5823 17.1643 37.3068 16.7691C37.0313 16.3738 36.8621 15.9216 36.7992 15.4126L38.4387 15.4126C38.5225 15.7779 38.6932 16.0684 38.9507 16.284C39.2113 16.4966 39.5392 16.6029 39.9344 16.6029C40.5723 16.6029 41.0633 16.3259 41.4077 15.7719C41.7521 15.2179 41.9243 14.4484 41.9243 13.4632L41.8614 13.4632C41.7146 13.7267 41.5245 13.9543 41.2909 14.1459C41.0574 14.3346 40.7923 14.4798 40.4959 14.5816C40.2024 14.6834 39.891 14.7343 39.5616 14.7343C39.0226 14.7343 38.5375 14.6056 38.1063 14.348C37.6781 14.0905 37.3382 13.7372 37.0867 13.288C36.8381 12.8388 36.7124 12.3253 36.7094 11.7473C36.7094 11.1484 36.8471 10.6109 37.1226 10.1348C37.4011 9.6557 37.7889 9.2784 38.286 9.00291C38.7831 8.72442 39.364 8.58817 40.0288 8.59416ZM40.0333 9.94167C39.7098 9.94167 39.4179 10.021 39.1574 10.1797C38.8998 10.3354 38.6962 10.5481 38.5465 10.8176C38.3998 11.0841 38.3264 11.382 38.3264 11.7114C38.3294 12.0378 38.4028 12.3343 38.5465 12.6008C38.6932 12.8673 38.8924 13.0784 39.1439 13.2341C39.3984 13.3898 39.6889 13.4677 40.0153 13.4677C40.2578 13.4677 40.4839 13.4212 40.6935 13.3284C40.9031 13.2356 41.0858 13.1068 41.2415 12.9421C41.4002 12.7744 41.523 12.5843 41.6098 12.3717C41.6997 12.1591 41.7431 11.9345 41.7401 11.6979C41.7401 11.3835 41.6652 11.093 41.5155 10.8265C41.3688 10.56 41.1667 10.3459 40.9091 10.1842C40.6546 10.0225 40.3626 9.94167 40.0333 9.94167Z" fill="white"/>
</svg>
