<svg width="15" height="18" viewBox="0 0 15 18" fill="none" xmlns="http://www.w3.org/2000/svg">
<path d="M0 13.125C0 13.95 0.365625 14.6906 0.9375 15.2062V16.875C0.9375 17.3906 1.35938 17.8125 1.875 17.8125H2.8125C3.32812 17.8125 3.75 17.3906 3.75 16.875V15.9375H11.25V16.875C11.25 17.3906 11.6719 17.8125 12.1875 17.8125H13.125C13.6406 17.8125 14.0625 17.3906 14.0625 16.875V15.2062C14.6344 14.6906 15 13.95 15 13.125V3.75C15 0.46875 11.6438 0 7.5 0C3.35625 0 0 0.46875 0 3.75V13.125ZM3.28125 14.0625C2.50312 14.0625 1.875 13.4344 1.875 12.6562C1.875 11.8781 2.50312 11.25 3.28125 11.25C4.05937 11.25 4.6875 11.8781 4.6875 12.6562C4.6875 13.4344 4.05937 14.0625 3.28125 14.0625ZM11.7188 14.0625C10.9406 14.0625 10.3125 13.4344 10.3125 12.6562C10.3125 11.8781 10.9406 11.25 11.7188 11.25C12.4969 11.25 13.125 11.8781 13.125 12.6562C13.125 13.4344 12.4969 14.0625 11.7188 14.0625ZM13.125 8.4375H1.875V3.75H13.125V8.4375Z" fill="#453B2A"/>
</svg>
