<svg width="33" height="41" viewBox="0 0 33 41" fill="none" xmlns="http://www.w3.org/2000/svg">
<path d="M16.1078 0C11.8372 0.00484465 7.74295 1.70346 4.72321 4.72321C1.70346 7.74295 0.00484465 11.8372 0 16.1078C0 29.8909 14.6434 40.306 15.2658 40.7453C15.5152 40.9114 15.8081 41 16.1078 41C16.4074 41 16.7004 40.9114 16.9498 40.7453C17.5721 40.306 32.2155 29.8909 32.2155 16.1078C32.2107 11.8372 30.5121 7.74295 27.4923 4.72321C24.4726 1.70346 20.3783 0.00484465 16.1078 0ZM16.1078 10.2504C17.2662 10.2504 18.3987 10.5939 19.3619 11.2375C20.3252 11.8812 21.0759 12.796 21.5193 13.8662C21.9626 14.9365 22.0786 16.1143 21.8526 17.2505C21.6266 18.3867 21.0687 19.4304 20.2496 20.2496C19.4304 21.0687 18.3867 21.6266 17.2505 21.8526C16.1143 22.0786 14.9365 21.9626 13.8663 21.5193C12.796 21.0759 11.8812 20.3252 11.2375 19.3619C10.5939 18.3987 10.2504 17.2662 10.2504 16.1078C10.2504 14.5543 10.8675 13.0645 11.966 11.966C13.0645 10.8675 14.5543 10.2504 16.1078 10.2504Z" fill="#4382EE"/>
<rect x="9.27441" y="8.29785" width="14.1553" height="15.1315" fill="#4382EE"/>
<circle cx="16.2842" cy="16.5" r="12.5" fill="white"/>
<path d="M15.9175 9C12.8508 9 9.78418 9.38333 9.78418 12.0667V19.35C9.78418 20.0783 10.0755 20.7377 10.5508 21.2207V22.8C10.5508 23.2217 10.8958 23.5667 11.3175 23.5667H12.0842C12.5058 23.5667 12.8508 23.2217 12.8508 22.8V22.0333H18.9842V22.8C18.9842 23.2217 19.3292 23.5667 19.7508 23.5667H20.5175C20.9392 23.5667 21.2842 23.2217 21.2842 22.8V21.2207C21.7595 20.7377 22.0508 20.0783 22.0508 19.35V12.0667C22.0508 9.38333 19.3062 9 15.9175 9ZM13.2342 19.7333C12.5978 19.7333 12.0842 19.2197 12.0842 18.5833C12.0842 17.947 12.5978 17.4333 13.2342 17.4333C13.8705 17.4333 14.3842 17.947 14.3842 18.5833C14.3842 19.2197 13.8705 19.7333 13.2342 19.7333ZM18.6008 19.7333C17.9645 19.7333 17.4508 19.2197 17.4508 18.5833C17.4508 17.947 17.9645 17.4333 18.6008 17.4333C19.2372 17.4333 19.7508 17.947 19.7508 18.5833C19.7508 19.2197 19.2372 19.7333 18.6008 19.7333ZM20.5175 15.1333H11.3175V12.8333H20.5175V15.1333Z" fill="#4382EE"/>
</svg>
