<svg width="425" height="522" viewBox="0 0 425 522" fill="none" xmlns="http://www.w3.org/2000/svg">
<path opacity="0.8" d="M5.04102 0V382.053C5.04102 382.053 37.2761 450.788 120.153 442.811C203.03 434.835 220.218 391.876 320.284 471.049C320.284 471.049 355.584 504.185 420.041 502.967V0H5.04102Z" fill="#4382EE"/>
<path opacity="0.7" d="M398.445 505.528C346.799 502.964 317.336 478.471 317.023 478.19C258.132 428.763 220.18 435.748 167.664 445.434C153.736 448.002 139.319 450.659 122.93 452.676C42.8299 462.546 5.3712 414.935 5 414.5L5 403C5.35877 403.422 43.4336 461.199 122.743 451.428C139.106 449.411 153.483 446.764 167.399 444.195C220.284 434.452 258.487 427.416 317.868 477.247C318.233 477.555 358.115 507.48 420 504.5L420 505.5C413.922 505.805 404.022 505.805 398.445 505.528Z" fill="#4382EE"/>
<path opacity="0.7" d="M398.769 511.251C347.453 508.704 318.052 486.908 317.739 486.658C258.969 442.676 221.307 448.638 169.194 456.906C155.372 459.098 141.065 461.366 124.797 463.058C45.2832 471.338 5.36684 434.012 4.99572 433.626L5.00195 429C5.36065 429.375 45.8755 470.151 124.604 461.955C140.847 460.262 155.114 458.003 168.923 455.81C221.403 447.494 259.314 441.488 318.573 485.829C318.937 486.104 358.461 512.438 419.918 510.145L419.916 511.687C413.881 511.923 404.311 511.526 398.769 511.251Z" fill="#4382EE"/>
<path opacity="0.7" d="M398.892 520.053C347.563 517.505 318.094 496.921 317.781 496.685C258.875 455.152 221.227 460.646 169.134 468.266C155.317 470.287 141.016 472.377 124.751 473.919C45.2543 481.469 5.31762 444.865 4.94531 444.5L4.94531 441C5.30515 441.354 45.8431 480.355 124.555 472.882C140.794 471.338 155.056 469.256 168.86 467.235C221.32 459.571 259.216 454.036 318.613 495.908C318.978 496.168 358.487 520.974 419.943 519L419.943 520.053C413.908 520.257 404.435 520.328 398.892 520.053Z" fill="#4382EE"/>
<path d="M87.4071 371.723C155.946 391.532 267.06 391.532 335.599 371.723C404.138 351.914 404.13 319.813 335.599 299.994C267.067 280.175 155.946 280.19 87.4071 299.994C18.8682 319.798 18.8604 351.904 87.4071 371.723Z" fill="#FAFAFA"/>
<path d="M87.4071 371.723C155.946 391.532 267.06 391.532 335.599 371.723C404.138 351.914 404.13 319.813 335.599 299.994C267.067 280.175 155.946 280.19 87.4071 299.994C18.8682 319.798 18.8604 351.904 87.4071 371.723Z" fill="#FAFAFA"/>
<path d="M266.598 192.707L342.506 193.02C342.506 193.02 335.303 176.761 319.936 176.751C308.223 176.751 307.704 183.958 300.674 186.018C293.644 188.078 278.829 175.465 266.598 192.707Z" fill="#EBEBEB"/>
<path d="M146.547 166.574L201.614 166.802C201.614 166.802 196.398 155.009 185.253 155C176.757 155 176.378 160.222 171.283 161.722C166.188 163.222 155.421 154.07 146.547 166.574Z" fill="#EBEBEB"/>
<path d="M226 151.633L314 152C314 152 305.666 133.015 287.854 133C274.278 133 273.672 141.407 265.53 143.822C257.387 146.237 240.182 131.502 226 151.633Z" fill="#EBEBEB"/>
<path d="M108 218.846L57 219C57 219 61.83 211.006 72.1528 211C80.0205 211 80.3718 214.54 85.0907 215.557C89.8095 216.574 99.7809 210.369 108 218.846Z" fill="#EBEBEB"/>
<path d="M107 150.846L56 151C56 151 60.83 143.006 71.1528 143C79.0205 143 79.3718 146.54 84.0907 147.557C88.8095 148.574 98.7809 142.369 107 150.846Z" fill="#EBEBEB"/>
<path d="M330.812 302.871C326.433 294.8 316.612 289.165 307.762 291.8C308.722 283.198 303.92 274.235 296.15 270.229C291.363 267.834 285.862 267.227 280.658 268.52V341.56H328.997L333.391 329.659C335.125 320.668 335.197 310.927 330.812 302.871Z" fill="#EBEBEB"/>
<path d="M344.561 321.081C342.062 320.797 339.532 321.058 337.146 321.845C337.357 317.843 336.478 313.858 334.602 310.305C332.726 306.752 329.922 303.761 326.48 301.643C323.038 299.525 319.085 298.358 315.032 298.262C310.98 298.167 306.975 299.146 303.435 301.1C303.057 298.639 302.114 296.296 300.679 294.251C299.244 292.205 297.355 290.511 295.156 289.299C292.957 288.086 290.506 287.387 287.992 287.254C285.477 287.122 282.965 287.559 280.648 288.534V341.038H361.176V339.751C361.176 330.309 354.088 322.111 344.561 321.081Z" fill="#E0E0E0"/>
<path d="M55.5506 341.461C54.4713 338.191 54.1006 334.734 54.4626 331.314C54.8246 327.893 55.9113 324.587 57.6518 321.609C59.3922 318.632 61.7476 316.05 64.5644 314.032C67.3812 312.014 70.5964 310.605 74.0007 309.896C74.0871 299.51 80.4116 289.403 89.7711 284.684C99.1305 279.965 111.122 280.844 119.674 286.872L121.528 341.641L55.5506 341.461Z" fill="#E0E0E0"/>
<path d="M370.733 341.703C370.733 341.774 300.357 341.826 213.567 341.826C126.777 341.826 56.3867 341.788 56.3867 341.703C56.3867 341.617 126.748 341.579 213.567 341.579C300.386 341.579 370.733 341.651 370.733 341.703Z" fill="#263238"/>
<path d="M280.252 318.807H94.4648V223.388H279.152C279.152 223.388 280.252 319.866 280.252 318.807Z" fill="#F5F5F5"/>
<path d="M211.768 229.066V271.791H243.942V229.066C243.942 229.066 211.768 229.408 211.768 229.066Z" fill="#E0E0E0"/>
<path d="M211.768 229.151V235.797L243.933 235.992V229.066L211.768 229.151Z" fill="#455A64"/>
<path d="M223.398 232.123V233.424H233.699V232.294L223.398 232.123Z" fill="white"/>
<path d="M223.629 238.855H213.559V249.527H223.629V238.855Z" fill="#EDC808"/>
<path d="M222.223 260.711H222.669H223.947H228.624L228.586 260.749C228.586 257.568 228.586 253.372 228.586 248.776V246.051H228.634H237.892L237.854 246.085C237.887 244.115 237.916 242.505 237.935 241.337C237.935 240.796 237.935 240.388 237.959 240.046C237.983 239.704 237.959 239.595 237.959 239.595C237.959 239.595 237.959 239.752 237.959 240.046C237.959 240.341 237.959 240.796 237.959 241.337C237.959 242.486 237.931 244.096 237.911 246.085V246.118H237.873H228.614L228.667 246.07V248.743C228.667 253.338 228.667 257.535 228.667 260.716V260.754H228.629H223.951H222.674L222.223 260.711Z" fill="#4382EE"/>
<path d="M241.177 263.873H240.413H238.262H230.578H230.535V263.83C230.535 260.759 230.535 257.141 230.535 253.282V248.354H236.932L236.888 248.397C236.888 245.454 236.888 242.999 236.888 241.276C236.888 240.431 236.888 239.762 236.888 239.282C236.888 238.803 236.888 238.58 236.888 238.58C236.888 238.58 236.888 238.822 236.888 239.282C236.888 239.743 236.888 240.431 236.888 241.276C236.888 243.013 236.888 245.468 236.888 248.397V248.44H230.569L230.617 248.392V253.315C230.617 257.174 230.617 260.792 230.617 263.863L230.574 263.82H238.257H240.408L241.177 263.873Z" fill="#263238"/>
<path d="M213.625 251.919V252.925H221.77V251.719L213.625 251.919Z" fill="white"/>
<path d="M213.559 253.61V254.611H221.708V253.41L213.559 253.61Z" fill="white"/>
<path d="M82.545 179.102V210.3H290.533V179.482C290.533 179.482 81.7863 178.352 82.545 179.102Z" fill="#263238"/>
<path d="M252.205 207.642L252.229 341.703H255.5L255.529 208.383C255.529 208.383 251.658 207.642 252.205 207.642Z" fill="#263238"/>
<path d="M275.157 208.648L275.704 341.456H282.245V208.648C282.245 208.648 274.614 208.088 275.157 208.648Z" fill="#263238"/>
<path d="M83 185.91V201H291V185L83 185.91Z" fill="#4382EE"/>
<path d="M88.7112 206.84L89.2586 341.756H95.8088V206.84C95.8088 206.84 88.1685 206.27 88.7112 206.84Z" fill="#263238"/>
<path d="M118.677 210.011V341.826H121.947V209.379C121.947 209.379 118.129 210.011 118.677 210.011Z" fill="#263238"/>
<path d="M98.2188 227.918L98.4108 313.999H116.232L115.876 227.918H98.2188Z" fill="#4382EE"/>
<path d="M174.599 306.284H171.242V341.508H174.599V306.284Z" fill="#263238"/>
<path d="M212.775 306.521H131.345C130.977 306.521 130.613 306.45 130.273 306.311C129.934 306.172 129.625 305.968 129.365 305.711C129.105 305.454 128.899 305.149 128.758 304.813C128.617 304.477 128.545 304.117 128.545 303.754V303.754C128.546 303.021 128.842 302.318 129.367 301.8C129.892 301.282 130.603 300.991 131.345 300.991H212.79C213.531 300.992 214.241 301.284 214.765 301.802C215.289 302.319 215.583 303.021 215.585 303.754V303.754C215.585 304.118 215.512 304.479 215.371 304.815C215.229 305.152 215.022 305.457 214.761 305.714C214.5 305.971 214.191 306.175 213.85 306.314C213.509 306.452 213.144 306.523 212.775 306.521V306.521Z" fill="#455A64"/>
<path d="M356.758 227.831H352.455V341.721H356.758V227.831Z" fill="#263238"/>
<path d="M374.877 196.153H337.146V227.826H374.877V196.153Z" fill="#4382EE"/>
<path d="M372.679 225.695H339.76V198.023H372.66L372.679 225.695ZM340.139 225.339H372.314V198.379H340.139V225.339Z" fill="white"/>
<path d="M344.795 207.014L344.709 216.655H368.806V212.995C368.806 212.733 368.754 212.472 368.652 212.229C368.55 211.987 368.401 211.766 368.213 211.58C368.024 211.395 367.801 211.248 367.555 211.148C367.309 211.047 367.046 210.996 366.78 210.997C366.243 210.996 365.729 210.784 365.35 210.408C364.971 210.033 364.758 209.524 364.758 208.993V206.952C364.759 206.69 364.707 206.429 364.606 206.187C364.504 205.944 364.355 205.723 364.167 205.538C363.98 205.352 363.756 205.205 363.511 205.104C363.265 205.004 363.002 204.953 362.736 204.954L346.793 205.03C346.262 205.032 345.754 205.242 345.38 205.614C345.006 205.986 344.795 206.489 344.795 207.014Z" fill="#EDC808"/>
<path d="M367.226 216.66C367.226 217.105 367.093 217.541 366.842 217.911C366.592 218.281 366.236 218.569 365.82 218.739C365.404 218.91 364.946 218.954 364.504 218.867C364.063 218.779 363.657 218.565 363.339 218.25C363.021 217.934 362.804 217.533 362.717 217.096C362.63 216.659 362.675 216.207 362.848 215.796C363.021 215.385 363.314 215.034 363.689 214.787C364.064 214.54 364.504 214.409 364.955 214.41C365.254 214.41 365.549 214.468 365.825 214.581C366.101 214.694 366.352 214.86 366.563 215.069C366.774 215.278 366.941 215.526 367.055 215.799C367.169 216.072 367.227 216.365 367.226 216.66Z" fill="#4382EE"/>
<path d="M364.924 218.251C365.801 218.251 366.513 217.547 366.513 216.679C366.513 215.812 365.801 215.108 364.924 215.108C364.046 215.108 363.334 215.812 363.334 216.679C363.334 217.547 364.046 218.251 364.924 218.251Z" fill="#EDC808"/>
<path d="M351.183 216.324C351.183 216.769 351.05 217.204 350.799 217.574C350.549 217.944 350.193 218.233 349.777 218.403C349.361 218.573 348.903 218.617 348.461 218.53C348.02 218.443 347.614 218.228 347.296 217.913C346.978 217.598 346.761 217.197 346.674 216.76C346.587 216.323 346.633 215.87 346.806 215.459C346.979 215.048 347.271 214.697 347.646 214.45C348.021 214.204 348.462 214.073 348.912 214.073C349.211 214.073 349.506 214.132 349.782 214.245C350.058 214.358 350.309 214.524 350.52 214.733C350.731 214.942 350.898 215.19 351.012 215.463C351.126 215.736 351.184 216.028 351.183 216.324Z" fill="#4382EE"/>
<path d="M350.468 216.343C350.468 216.654 350.375 216.958 350.2 217.216C350.025 217.475 349.776 217.676 349.486 217.795C349.195 217.914 348.875 217.945 348.567 217.884C348.258 217.823 347.975 217.672 347.753 217.452C347.531 217.232 347.38 216.952 347.319 216.646C347.258 216.341 347.29 216.025 347.411 215.738C347.532 215.451 347.737 215.206 347.999 215.034C348.261 214.862 348.569 214.771 348.883 214.771C349.304 214.773 349.707 214.939 350.004 215.233C350.301 215.528 350.468 215.927 350.468 216.343V216.343Z" fill="#EDC808"/>
<path d="M345.771 207.683V210.94H348.009V207.683C347.264 207.636 346.517 207.636 345.771 207.683V207.683Z" fill="#4382EE"/>
<path d="M349.014 207.683V210.94H351.256V207.683C350.51 207.636 349.76 207.636 349.014 207.683V207.683Z" fill="#4382EE"/>
<path d="M352.244 207.683V210.94H354.487V207.683C353.74 207.636 352.991 207.636 352.244 207.683V207.683Z" fill="#4382EE"/>
<path d="M355.688 207.683V210.94H357.93V207.683C357.183 207.636 356.434 207.636 355.688 207.683Z" fill="#4382EE"/>
<path d="M358.887 207.683V210.94H361.129V207.683C360.383 207.636 359.633 207.636 358.887 207.683Z" fill="#4382EE"/>
<path d="M362.33 207.683V210.94H364.573V207.683C363.826 207.636 363.077 207.636 362.33 207.683Z" fill="#4382EE"/>
<path d="M359.413 254.853C358.87 254.549 356.666 256.852 356.776 256.144C356.887 255.437 359.888 253.571 359.302 253.296C358.544 252.911 356.287 255.352 356.075 255.546C355.864 255.741 355.504 255.513 355.706 255.347C355.994 255.105 358.957 252.498 358.217 252.109C357.804 251.896 357.372 252.517 357.372 252.517C357.372 252.517 354.827 255.114 354.491 254.924C354.154 254.734 355.576 253.163 356.104 252.665C356.632 252.166 356.541 251.772 356.075 251.777C355.758 251.777 354.092 253.286 353.583 253.79C353.074 254.293 351.705 255.689 351.662 254.587C351.619 253.486 351.067 252.631 350.702 252.489C350.337 252.347 349.957 252.684 350.154 252.992C350.318 253.338 350.422 253.709 350.462 254.089C350.499 254.353 350.486 254.622 350.423 254.882C349.151 255.921 340.026 263.327 338.965 263.009C337.827 262.672 333.447 248.573 333.447 248.573L328.977 261.418C328.977 261.418 332.112 270.694 337.923 270.789C344.891 270.908 354.798 258.504 354.798 258.499C356.114 257.711 357.521 256.833 358.232 256.277C359.744 255.071 359.615 254.962 359.413 254.853Z" fill="#FFBE9D"/>
<path d="M331.446 261.974L337.66 257.977C337.66 257.977 334.586 245.459 329.496 245.06L329.016 249.641L331.446 261.974Z" fill="#4382EE"/>
<path d="M317.355 278.789C317.754 279.339 320.89 302.349 320.89 302.349L299.789 322.762L304.735 327.936C304.735 327.936 329.563 307.248 330.067 304.879C330.672 302.031 328.986 280.441 328.986 280.441L317.355 278.789Z" fill="#F8B491"/>
<path d="M317.735 291.407H322.321L316.371 282.093L317.735 291.407Z" fill="#263238"/>
<path d="M316.092 233.975C316.026 235.161 315.577 236.294 314.811 237.209C314.046 238.124 313.003 238.773 311.837 239.059C310.632 239.349 309.244 239.211 308.284 240.009C306.646 241.38 307.607 244.229 306.502 246.075C305.82 247.205 304.471 247.765 303.707 248.838C302.435 250.628 303.29 253.329 305.023 254.663C306.757 255.997 309.067 256.249 311.237 256.192C316.039 256.073 320.914 254.568 324.371 251.221C325.994 249.645 331.253 243.664 328.866 235.038" fill="#263238"/>
<path d="M326.985 245.088C326.86 244.428 326.769 240.873 326.769 240.873C326.769 240.873 329.271 240.559 329.376 238.024C329.482 235.489 329.232 229.698 329.232 229.698L324.632 227.514L319.686 231.454L320.54 244.272L326.985 245.088Z" fill="#FFBE9D"/>
<path d="M328.809 233.941C328.815 233.986 328.811 234.031 328.797 234.074C328.783 234.117 328.761 234.157 328.731 234.191C328.701 234.225 328.663 234.252 328.622 234.27C328.58 234.289 328.535 234.298 328.49 234.298C328.444 234.298 328.399 234.289 328.358 234.27C328.316 234.252 328.279 234.225 328.249 234.191C328.219 234.157 328.196 234.117 328.182 234.074C328.169 234.031 328.165 233.986 328.17 233.941C328.165 233.897 328.169 233.851 328.182 233.808C328.196 233.765 328.219 233.726 328.249 233.692C328.279 233.658 328.316 233.631 328.358 233.613C328.399 233.594 328.444 233.584 328.49 233.584C328.535 233.584 328.58 233.594 328.622 233.613C328.663 233.631 328.701 233.658 328.731 233.692C328.761 233.726 328.783 233.765 328.797 233.808C328.811 233.851 328.815 233.897 328.809 233.941V233.941Z" fill="#263238"/>
<path d="M329.107 233.595C329.069 233.638 328.829 233.443 328.488 233.429C328.147 233.414 327.892 233.585 327.854 233.543C327.816 233.5 327.854 233.443 327.988 233.362C328.137 233.26 328.316 233.21 328.497 233.22C328.674 233.231 328.842 233.298 328.978 233.41C329.093 233.495 329.127 233.576 329.107 233.595Z" fill="#263238"/>
<path d="M325.127 234.017C325.128 234.101 325.096 234.182 325.038 234.243C324.98 234.305 324.9 234.341 324.815 234.345C324.772 234.345 324.73 234.337 324.69 234.322C324.651 234.306 324.615 234.283 324.584 234.253C324.554 234.224 324.53 234.188 324.513 234.149C324.497 234.11 324.488 234.069 324.488 234.027C324.487 233.943 324.519 233.861 324.577 233.8C324.635 233.739 324.716 233.703 324.8 233.699C324.843 233.698 324.885 233.706 324.925 233.722C324.965 233.738 325.001 233.761 325.031 233.79C325.061 233.82 325.086 233.855 325.102 233.894C325.119 233.933 325.127 233.975 325.127 234.017V234.017Z" fill="#263238"/>
<path d="M325.318 233.662C325.275 233.705 325.04 233.505 324.694 233.496C324.348 233.486 324.099 233.652 324.06 233.605C324.022 233.557 324.084 233.51 324.195 233.429C324.343 233.326 324.522 233.274 324.704 233.282C324.88 233.292 325.049 233.359 325.184 233.472C325.299 233.562 325.352 233.643 325.318 233.662Z" fill="#263238"/>
<path d="M326.6 236.572C326.782 236.519 326.971 236.491 327.162 236.486C327.248 236.486 327.33 236.486 327.344 236.406C327.355 236.311 327.337 236.215 327.291 236.13L327.046 235.414C326.815 234.806 326.631 234.183 326.494 233.548C326.77 234.136 327.001 234.744 327.186 235.366C327.267 235.618 327.344 235.841 327.421 236.083C327.473 236.198 327.486 236.326 327.459 236.448C327.447 236.48 327.428 236.507 327.403 236.53C327.378 236.552 327.348 236.568 327.315 236.577C327.266 236.585 327.216 236.585 327.166 236.577C326.978 236.602 326.787 236.6 326.6 236.572V236.572Z" fill="#263238"/>
<path d="M325.476 236.918C325.98 237.228 326.551 237.416 327.142 237.469C327.02 237.643 326.843 237.771 326.638 237.834C326.434 237.897 326.214 237.89 326.014 237.815C325.822 237.766 325.659 237.644 325.558 237.476C325.457 237.308 325.428 237.108 325.476 236.918V236.918Z" fill="white"/>
<path d="M326.791 240.872C325.606 240.841 324.456 240.468 323.482 239.799C323.801 240.38 324.289 240.852 324.882 241.155C325.475 241.458 326.147 241.578 326.81 241.499L326.791 240.872Z" fill="#A36957"/>
<path d="M329.36 233.249C329.716 232.335 329.79 231.339 329.575 230.384C329.36 229.428 328.864 228.557 328.15 227.88C325.643 225.326 323.963 225.895 322.997 225.91C322.032 225.924 317.566 226.982 316.303 232.257C316.24 232.596 316.195 232.938 316.169 233.282C316.14 233.567 316.116 233.833 316.092 234.013H316.149C316.149 236.197 316.462 242.648 320.471 243.45L320.082 233.415C320.082 233.415 324.169 232.94 324.827 229.171C324.841 229.161 327.804 233.386 329.36 233.249Z" fill="#263238"/>
<path d="M331.24 304.224C332.637 310.894 337.751 338.878 337.751 338.878L344.844 337.635L341.526 302.301C341.444 301.369 341.253 300.45 340.954 299.562L332.791 275.351L316.795 265.097C316.641 265.097 314.912 271.929 315.248 276.258C315.411 278.186 316.08 280.038 317.188 281.632C318.149 283.056 319.527 285.007 319.834 285.463C320.334 286.189 331.24 304.224 331.24 304.224Z" fill="#FFBE9D"/>
<path d="M300.649 237.568C299.924 231.914 301.609 225.776 302.291 223.621C302.527 223.398 302.815 223.146 303.165 222.852C303.469 222.608 303.811 222.415 304.179 222.282C304.629 222.103 305.103 221.985 305.586 221.931C305.679 221.936 305.772 221.913 305.852 221.864C305.931 221.814 305.993 221.742 306.029 221.657C306.065 221.571 306.073 221.476 306.052 221.386C306.031 221.296 305.982 221.214 305.912 221.153C305.581 220.92 304.347 220.901 303.031 221.504C301.715 222.107 302.709 220.08 303.055 219.349C303.401 218.618 304.356 216.263 304.207 215.978C303.996 215.56 303.501 215.712 303.175 216.453C302.848 217.193 301.71 219.382 301.321 219.182C300.932 218.983 302.762 215.233 302.762 215.233C302.762 215.233 303.281 214.492 302.844 214.25C302.046 213.809 300.442 217.939 300.279 218.333C300.178 218.608 299.751 218.409 299.876 218.119C300.001 217.829 301.763 214.416 300.961 213.961C300.342 213.609 299.593 217.345 298.829 217.848C298.065 218.352 299.693 215.076 299.088 214.763C298.863 214.649 298.68 214.592 298.022 216.609C297.612 218.085 297.282 219.581 297.033 221.091V221.091C297.033 221.091 288.74 241.3 297.566 245.302C306.935 249.536 315.262 252.508 315.262 252.508L317.668 243.911C317.668 243.911 300.783 238.589 300.649 237.568Z" fill="#FFBE9D"/>
<path d="M315.295 252.508L316.707 265.667L316.102 268.364L330.989 268.435L333.779 254.436L334.062 252.878C334.238 251.926 334.21 250.947 333.982 250.006C333.753 249.064 333.328 248.18 332.734 247.41C332.141 246.64 331.391 246 330.533 245.533C329.675 245.065 328.728 244.78 327.752 244.694H327.565L314.34 242.829L315.295 252.508Z" fill="#FFBE9D"/>
<path d="M330.894 271.829L331.004 268.435L316.703 266.127L330.894 271.829Z" fill="#FFBE9D"/>
<path d="M299.79 322.781L297.557 324.746L297.84 325.088C299.117 326.607 304.443 332.717 305.644 333.41C306.988 334.179 303.819 328.805 303.819 328.805L304.736 327.955" fill="#4382EE"/>
<g opacity="0.5">
<path d="M299.382 326.602C299.751 326.113 299.923 325.505 299.862 324.898C299.816 324.297 299.543 323.734 299.098 323.322L297.619 324.684L299.382 326.602Z" fill="white"/>
</g>
<path opacity="0.5" d="M305.288 331.506C305.288 331.506 306.301 333.481 305.86 333.524C305.418 333.567 299.799 327.595 297.557 324.746L297.682 324.647L304.174 331.668C304.174 331.668 304.99 331.212 305.288 331.506Z" fill="white"/>
<path d="M297.609 324.561C297.63 324.596 297.654 324.63 297.681 324.66L297.912 324.931L298.762 325.923C299.487 326.749 300.505 327.884 301.643 329.113C302.781 330.343 303.862 331.425 304.645 332.204L305.605 333.12L305.864 333.362C305.891 333.393 305.922 333.42 305.956 333.443C305.929 333.412 305.898 333.385 305.864 333.362C305.792 333.281 305.711 333.201 305.619 333.106L304.707 332.156C303.934 331.368 302.873 330.257 301.725 329.047C300.577 327.836 299.545 326.673 298.81 325.876L297.936 324.926C297.849 324.827 297.768 324.741 297.696 324.665C297.67 324.628 297.641 324.593 297.609 324.561V324.561Z" fill="#263238"/>
<path d="M304.088 331.734C304.287 331.627 304.498 331.545 304.717 331.487C304.94 331.463 305.166 331.463 305.389 331.487C305.176 331.379 304.929 331.353 304.698 331.416C304.462 331.444 304.244 331.557 304.088 331.734V331.734Z" fill="#263238"/>
<path d="M303.43 329.47C303.548 329.498 303.672 329.498 303.79 329.47C303.982 329.432 304.136 329.384 304.131 329.361C304.011 329.339 303.887 329.347 303.771 329.384C303.579 329.399 303.425 329.446 303.43 329.47Z" fill="#263238"/>
<path d="M303.262 328.838C303.262 328.862 303.396 328.895 303.559 328.909C303.723 328.924 303.867 328.909 303.867 328.909C303.867 328.909 303.737 328.852 303.569 328.838C303.401 328.824 303.262 328.814 303.262 328.838Z" fill="#263238"/>
<path d="M303.506 328.112C303.506 328.112 303.587 328.264 303.727 328.415C303.866 328.567 303.996 328.681 304.015 328.662C303.962 328.546 303.885 328.443 303.789 328.358C303.65 328.207 303.525 328.097 303.506 328.112Z" fill="#263238"/>
<path d="M303.771 327.699C303.798 327.843 303.867 327.976 303.968 328.083C304.122 328.273 304.295 328.377 304.309 328.358C304.324 328.339 304.184 328.211 304.036 328.031C303.887 327.851 303.795 327.684 303.771 327.699Z" fill="#263238"/>
<path d="M304.059 329.223C304.142 329.355 304.249 329.469 304.376 329.56C304.507 329.667 304.647 329.762 304.794 329.845C304.882 329.896 304.975 329.938 305.073 329.968C305.101 329.981 305.132 329.987 305.164 329.987C305.195 329.987 305.226 329.981 305.255 329.968C305.285 329.951 305.31 329.925 305.325 329.893C305.341 329.862 305.346 329.827 305.341 329.793C305.285 329.606 305.164 329.445 305 329.337C304.836 329.229 304.64 329.18 304.443 329.199C304.327 329.21 304.215 329.244 304.112 329.299C304.045 329.337 304.011 329.37 304.016 329.375C304.152 329.311 304.298 329.273 304.448 329.261C304.608 329.256 304.766 329.295 304.904 329.375C304.989 329.419 305.063 329.48 305.124 329.553C305.184 329.627 305.228 329.711 305.255 329.802C305.255 329.892 305.183 329.926 305.092 329.902C305.002 329.871 304.916 329.833 304.832 329.788C304.688 329.71 304.548 329.623 304.415 329.527C304.189 329.361 304.069 329.213 304.059 329.223Z" fill="#263238"/>
<path d="M304.121 329.327C304.121 329.327 304.255 329.303 304.395 329.147C304.473 329.055 304.529 328.946 304.558 328.828C304.581 328.753 304.585 328.673 304.569 328.596C304.553 328.519 304.518 328.447 304.467 328.387C304.427 328.36 304.378 328.35 304.331 328.358C304.283 328.366 304.241 328.392 304.212 328.43C304.167 328.487 304.134 328.554 304.116 328.624C304.083 328.739 304.063 328.857 304.058 328.976C304.047 329.084 304.062 329.193 304.102 329.294C304.102 329.294 304.102 329.17 304.102 328.98C304.115 328.868 304.139 328.756 304.174 328.648C304.203 328.539 304.299 328.387 304.395 328.458C304.432 328.509 304.458 328.567 304.469 328.629C304.481 328.69 304.478 328.754 304.462 328.814C304.44 328.921 304.394 329.022 304.327 329.109C304.267 329.188 304.197 329.262 304.121 329.327Z" fill="#263238"/>
<path d="M299.156 323.336C299.156 323.336 299.315 323.474 299.507 323.735C299.758 324.077 299.911 324.481 299.949 324.903C299.978 325.325 299.889 325.748 299.689 326.123C299.54 326.412 299.392 326.56 299.406 326.569C299.42 326.579 299.449 326.541 299.512 326.469C299.601 326.371 299.679 326.265 299.747 326.151C299.965 325.771 300.065 325.335 300.035 324.898C300.001 324.461 299.833 324.043 299.555 323.702C299.473 323.597 299.38 323.501 299.276 323.417C299.204 323.36 299.161 323.331 299.156 323.336Z" fill="#263238"/>
<path d="M300.52 326.787C300.9 327.385 301.388 327.908 301.96 328.33C301.96 328.33 301.634 327.988 301.245 327.566C300.856 327.143 300.539 326.773 300.52 326.787Z" fill="#263238"/>
<path d="M299.554 325.762C299.554 325.762 299.506 325.857 299.462 325.966C299.419 326.075 299.362 326.156 299.381 326.175C299.4 326.194 299.491 326.123 299.539 325.999C299.587 325.876 299.578 325.762 299.554 325.762Z" fill="#263238"/>
<path d="M299.679 324.926C299.679 324.926 299.631 325.011 299.627 325.116C299.622 325.22 299.627 325.306 299.66 325.311C299.694 325.315 299.708 325.225 299.713 325.121C299.718 325.016 299.703 324.931 299.679 324.926Z" fill="#263238"/>
<path d="M299.381 324.172C299.381 324.172 299.434 324.262 299.477 324.362C299.52 324.462 299.53 324.557 299.559 324.561C299.587 324.566 299.611 324.452 299.559 324.329C299.506 324.205 299.39 324.139 299.381 324.172Z" fill="#263238"/>
<path d="M299.117 323.664C299.117 323.664 299.117 323.726 299.117 323.787C299.117 323.849 299.18 323.887 299.204 323.878C299.228 323.868 299.204 323.811 299.204 323.754C299.204 323.697 299.136 323.664 299.117 323.664Z" fill="#263238"/>
<path d="M316.707 265.667C316.707 265.667 313.393 274.782 315.199 279.544C317.004 284.305 322.301 292.47 322.301 292.47L338.922 285.074L331.008 271.094V268.435L316.707 265.667Z" fill="#455A64"/>
<path d="M320.486 243.436L307.943 240.645L305.863 251.901L314.656 253.833L316.707 265.668L331.008 268.435C331.008 268.435 333.639 256.363 334.124 254.156C335.085 249.84 333.327 247.78 333.327 247.78C332.909 247.091 332.352 246.494 331.692 246.026C331.031 245.558 330.28 245.229 329.485 245.06L320.486 243.436Z" fill="#4382EE"/>
<path d="M331.56 250.69C331.44 251.234 331.44 251.798 331.56 252.342C331.718 252.926 331.954 253.486 332.261 254.008C332.654 254.658 332.994 255.338 333.279 256.04C333.745 257.363 333.762 258.8 333.327 260.132C333.198 260.532 333.025 260.916 332.809 261.276C332.739 261.413 332.649 261.538 332.54 261.647C332.777 261.137 332.983 260.614 333.159 260.08C333.528 258.781 333.488 257.402 333.044 256.126C332.774 255.434 332.453 254.763 332.084 254.118C331.777 253.573 331.551 252.988 331.411 252.38C331.326 251.965 331.326 251.537 331.411 251.122C331.429 250.969 331.48 250.822 331.56 250.69V250.69Z" fill="#263238"/>
<path d="M337.152 281.935C337.185 281.992 333.574 283.834 329.093 286.07C324.613 288.306 320.93 290.048 320.93 289.987C320.93 289.925 324.507 288.088 328.988 285.852C333.468 283.616 337.123 281.888 337.152 281.935Z" fill="#263238"/>
<path d="M328.382 268.05C328.468 268.388 328.468 268.742 328.382 269.08C328.25 269.923 327.855 270.703 327.252 271.314C326.65 271.924 325.87 272.333 325.021 272.484C324.678 272.567 324.321 272.567 323.979 272.484C323.979 272.441 324.377 272.45 324.982 272.294C325.776 272.114 326.503 271.716 327.078 271.146C327.653 270.575 328.054 269.856 328.233 269.07C328.363 268.444 328.339 268.05 328.382 268.05Z" fill="#263238"/>
<path d="M312.198 275.66C312.198 275.66 309.422 275.148 307.247 279.069C305.747 281.892 304.526 284.852 303.602 287.908C303.313 288.832 303.403 289.831 303.852 290.689C304.301 291.548 305.074 292.198 306.003 292.499L308.063 293.168C308.995 293.47 310.01 293.396 310.887 292.963C311.764 292.531 312.434 291.773 312.75 290.856C314.484 285.743 316.899 276.595 312.198 275.66Z" fill="#263238"/>
<path d="M314.176 276.457C314.02 276.976 313.821 277.481 313.581 277.967C313.369 278.442 313.129 278.992 312.865 279.581C312.805 279.759 312.709 279.924 312.584 280.066C312.458 280.208 312.306 280.324 312.135 280.407C311.752 280.54 311.338 280.56 310.944 280.464C310.73 280.422 310.534 280.316 310.382 280.16C310.312 280.076 310.26 279.978 310.232 279.872C310.204 279.766 310.199 279.655 310.219 279.548C310.305 279.196 310.451 278.862 310.651 278.56L311.525 277.027C311.773 276.545 312.059 276.083 312.38 275.646C312.186 276.152 311.951 276.642 311.679 277.112L310.853 278.669C310.675 278.952 310.543 279.259 310.459 279.581C310.447 279.655 310.451 279.73 310.471 279.802C310.491 279.874 310.526 279.941 310.574 279.999C310.69 280.115 310.839 280.193 311.002 280.222C311.341 280.317 311.7 280.317 312.039 280.222C312.329 280.078 312.55 279.828 312.654 279.524L313.413 277.934C313.63 277.424 313.885 276.93 314.176 276.457Z" fill="#455A64"/>
<path d="M311.291 280.346C311.273 280.531 311.235 280.715 311.176 280.892C311.084 281.238 310.945 281.737 310.753 282.349C310.369 283.574 309.792 285.245 309.106 287.096L308.251 289.47V289.536H308.179C306.839 289.698 305.696 289.821 304.885 289.902C304.459 289.969 304.028 289.999 303.598 289.992C304.015 289.885 304.441 289.809 304.87 289.764C305.672 289.641 306.815 289.484 308.15 289.289L308.054 289.365C308.304 288.63 308.592 287.823 308.894 286.992C309.567 285.155 310.186 283.498 310.609 282.292L311.089 280.868C311.133 280.686 311.201 280.51 311.291 280.346V280.346Z" fill="#455A64"/>
<path d="M308.141 289.417C308.753 289.877 309.311 290.403 309.807 290.984C310.363 291.511 310.86 292.095 311.291 292.726C310.681 292.262 310.122 291.735 309.625 291.155C309.068 290.63 308.571 290.047 308.141 289.417V289.417Z" fill="#455A64"/>
<path d="M308.221 277.497C308.221 277.497 308.274 277.497 308.37 277.497C308.51 277.541 308.639 277.614 308.749 277.711C308.944 277.898 309.089 278.13 309.173 278.386C309.256 278.641 309.276 278.913 309.23 279.178C309.148 279.861 308.692 280.54 308.322 281.295C308.119 281.677 308.01 282.102 308.005 282.534C308.047 282.999 308.188 283.45 308.418 283.858C308.672 284.297 308.835 284.781 308.898 285.282C308.933 285.524 308.907 285.77 308.823 285.999C308.74 286.228 308.6 286.434 308.418 286.597C308.231 286.723 308.014 286.797 307.788 286.811C307.563 286.825 307.337 286.779 307.136 286.678C306.8 286.52 306.495 286.303 306.238 286.037C305.909 285.649 305.528 285.307 305.105 285.021C304.938 284.936 304.765 284.865 304.586 284.808C304.586 284.808 304.639 284.808 304.74 284.808C304.883 284.83 305.022 284.874 305.153 284.936C305.605 285.197 306.014 285.527 306.363 285.914C306.61 286.155 306.9 286.349 307.218 286.488C307.385 286.571 307.571 286.608 307.758 286.595C307.944 286.583 308.124 286.521 308.279 286.417C308.432 286.276 308.547 286.1 308.616 285.905C308.684 285.71 308.704 285.501 308.673 285.297C308.615 284.831 308.465 284.381 308.231 283.972C307.989 283.532 307.843 283.047 307.803 282.548C307.811 282.078 307.931 281.616 308.154 281.2C308.557 280.426 309.004 279.776 309.114 279.159C309.164 278.917 309.156 278.667 309.091 278.429C309.026 278.191 308.906 277.971 308.74 277.787C308.586 277.66 308.41 277.562 308.221 277.497V277.497Z" fill="#E0E0E0"/>
<path d="M313.633 288.007C313.516 288.076 313.387 288.125 313.253 288.15C312.898 288.257 312.53 288.316 312.159 288.325C311.873 288.338 311.588 288.294 311.32 288.196C311.052 288.098 310.807 287.949 310.598 287.756C310.336 287.522 310.166 287.204 310.118 286.859C310.09 286.488 310.195 286.12 310.415 285.819C310.84 285.274 311.434 284.883 312.106 284.703C312.621 284.557 313.123 284.367 313.604 284.134C314.039 283.911 314.4 283.568 314.641 283.146C314.641 283.146 314.641 283.298 314.502 283.526C314.298 283.841 314.019 284.101 313.69 284.286C313.21 284.545 312.705 284.756 312.183 284.917C311.565 285.093 311.019 285.457 310.622 285.957C310.434 286.21 310.342 286.521 310.363 286.835C310.394 287.124 310.529 287.393 310.742 287.594C311.117 287.953 311.618 288.152 312.139 288.15C312.5 288.156 312.861 288.124 313.215 288.055C313.351 288.017 313.492 288.001 313.633 288.007Z" fill="#E0E0E0"/>
<path d="M312.867 291.459C312.592 291.247 312.307 291.049 312.012 290.866C311.288 290.452 310.43 290.333 309.619 290.533C308.808 290.734 308.108 291.237 307.666 291.938C307.49 292.239 307.329 292.548 307.186 292.864C307.191 292.503 307.301 292.15 307.503 291.848C307.718 291.465 308.01 291.129 308.362 290.861C308.714 290.594 309.118 290.401 309.549 290.295C309.979 290.189 310.427 290.171 310.865 290.243C311.303 290.315 311.721 290.475 312.093 290.714C312.416 290.886 312.684 291.144 312.867 291.459V291.459Z" fill="#E0E0E0"/>
<path opacity="0.7" d="M320.717 254.545C320.837 254.754 320.717 257.445 320.717 257.445L330.633 257.977V255.152L320.717 254.545Z" fill="white"/>
<path d="M327.565 244.68L311.953 276.159L313.754 277.36L329.476 245.079C329.201 244.89 328.89 244.757 328.561 244.688C328.233 244.62 327.894 244.617 327.565 244.68V244.68Z" fill="#263238"/>
<path d="M318.752 228.055C319.031 227.748 319.213 227.369 319.278 226.962C319.343 226.555 319.287 226.138 319.117 225.762C318.939 225.39 318.67 225.069 318.335 224.826C317.999 224.583 317.608 224.427 317.196 224.371C316.782 224.323 316.363 224.361 315.964 224.482C315.566 224.603 315.197 224.805 314.882 225.073C314.64 225.245 314.45 225.478 314.331 225.748C314.213 226.018 314.171 226.315 314.209 226.607C314.321 226.952 314.537 227.255 314.829 227.476C315.438 228.048 316.221 228.406 317.057 228.496C317.473 228.535 317.892 228.46 318.268 228.279C318.644 228.098 318.963 227.818 319.189 227.471" fill="#263238"/>
<path d="M344.911 337.241L345.18 338.484C345.18 338.484 351.605 338.617 350.208 339.363C348.955 340.032 340.733 341.366 338.716 341.656L338.236 341.717L337.693 338.746L344.911 337.241Z" fill="#4382EE"/>
<g opacity="0.5">
<path d="M340.871 341.133C340.639 340.551 340.198 340.075 339.632 339.795C339.077 339.514 338.436 339.449 337.836 339.614L338.244 341.613L340.871 341.133Z" fill="white"/>
</g>
<path opacity="0.5" d="M348.34 338.656C348.34 338.656 350.621 338.836 350.424 339.244C350.227 339.653 341.967 341.305 338.26 341.718V341.556L347.907 339.705C347.907 339.705 347.922 338.76 348.34 338.656Z" fill="white"/>
<path d="M338.125 341.575H338.25L338.615 341.522L339.94 341.314C341.059 341.133 342.601 340.839 344.296 340.521C345.991 340.203 347.518 339.842 348.618 339.571L349.919 339.253L350.275 339.158C350.317 339.153 350.357 339.14 350.395 339.12L350.27 339.144L349.914 339.22L348.603 339.51C347.499 339.756 345.967 340.084 344.281 340.421C342.596 340.758 341.05 341.043 339.959 341.242L338.634 341.48L338.279 341.546L338.125 341.575Z" fill="#263238"/>
<path d="M347.922 339.805C347.926 339.342 348.096 338.896 348.402 338.547C348.193 338.671 348.041 338.87 347.975 339.102C347.872 339.322 347.853 339.572 347.922 339.805V339.805Z" fill="#263238"/>
<path d="M345.555 339.173C345.555 339.173 345.656 339.04 345.728 338.855C345.8 338.67 345.838 338.513 345.814 338.504C345.735 338.596 345.678 338.705 345.646 338.822C345.591 338.931 345.56 339.051 345.555 339.173Z" fill="#263238"/>
<path d="M344.906 338.988C344.906 338.988 345.026 338.903 345.127 338.77C345.227 338.637 345.295 338.509 345.275 338.494C345.256 338.48 345.155 338.58 345.055 338.713C344.954 338.846 344.886 338.974 344.906 338.988Z" fill="#263238"/>
<path d="M344.396 338.38C344.527 338.401 344.66 338.392 344.785 338.352C344.916 338.342 345.042 338.303 345.155 338.238C345.025 338.219 344.892 338.229 344.766 338.266C344.636 338.276 344.51 338.315 344.396 338.38Z" fill="#263238"/>
<path d="M344.176 337.934C344.315 337.993 344.47 338.007 344.618 337.972C344.77 337.968 344.917 337.918 345.04 337.83C344.895 337.836 344.75 337.855 344.608 337.887C344.463 337.89 344.318 337.906 344.176 337.934V337.934Z" fill="#263238"/>
<path d="M345.674 338.503C345.839 338.5 346.002 338.466 346.154 338.404C346.321 338.352 346.482 338.284 346.634 338.199C346.725 338.15 346.812 338.093 346.894 338.029C346.941 337.985 346.971 337.926 346.98 337.862C346.981 337.826 346.97 337.791 346.951 337.761C346.931 337.73 346.903 337.706 346.87 337.692C346.673 337.643 346.465 337.664 346.282 337.751C346.098 337.837 345.951 337.984 345.866 338.166C345.812 338.271 345.783 338.386 345.78 338.503C345.78 338.589 345.78 338.631 345.78 338.631C345.794 338.48 345.838 338.334 345.909 338.199C345.989 338.056 346.109 337.939 346.255 337.862C346.339 337.814 346.432 337.782 346.528 337.769C346.625 337.756 346.723 337.762 346.817 337.786C346.898 337.829 346.889 337.919 346.817 337.986C346.743 338.048 346.662 338.102 346.577 338.147C346.432 338.232 346.281 338.305 346.125 338.366C345.847 338.451 345.669 338.489 345.674 338.503Z" fill="#263238"/>
<path d="M345.799 338.499C345.838 338.393 345.838 338.277 345.799 338.171C345.763 338.053 345.697 337.947 345.607 337.862C345.553 337.802 345.485 337.756 345.409 337.728C345.332 337.701 345.25 337.693 345.17 337.706C345.147 337.715 345.127 337.728 345.109 337.745C345.092 337.761 345.078 337.781 345.069 337.804C345.06 337.826 345.055 337.849 345.055 337.873C345.055 337.897 345.06 337.921 345.069 337.943C345.094 338.015 345.135 338.08 345.189 338.133C345.273 338.222 345.366 338.302 345.467 338.37C345.64 338.48 345.77 338.513 345.77 338.499C345.77 338.484 345.664 338.437 345.506 338.318C345.413 338.248 345.327 338.169 345.251 338.081C345.17 337.995 345.088 337.829 345.203 337.787C345.319 337.744 345.458 337.843 345.549 337.919C345.63 337.996 345.696 338.088 345.741 338.19C345.767 338.292 345.786 338.395 345.799 338.499V338.499Z" fill="#263238"/>
<path d="M337.871 339.591C337.871 339.591 338.073 339.529 338.409 339.501C338.844 339.462 339.282 339.545 339.671 339.742C340.06 339.939 340.385 340.24 340.608 340.612C340.781 340.896 340.834 341.086 340.853 341.086C340.85 341.038 340.841 340.99 340.824 340.944C340.784 340.816 340.731 340.692 340.666 340.574C340.444 340.18 340.11 339.86 339.706 339.653C339.3 339.452 338.844 339.374 338.395 339.43C338.259 339.446 338.125 339.476 337.996 339.52C337.95 339.535 337.907 339.559 337.871 339.591Z" fill="#263238"/>
<path d="M341.641 340.279C342.003 340.289 342.364 340.252 342.716 340.169C343.075 340.118 343.426 340.019 343.758 339.875C343.758 339.851 343.278 339.975 342.697 340.084C342.116 340.193 341.636 340.231 341.641 340.279Z" fill="#263238"/>
<path d="M340.238 340.535C340.238 340.535 340.301 340.63 340.368 340.725C340.435 340.82 340.483 340.915 340.507 340.905C340.531 340.896 340.507 340.787 340.44 340.673C340.373 340.559 340.238 340.516 340.238 340.535Z" fill="#263238"/>
<path d="M339.551 339.989C339.551 339.989 339.599 340.075 339.69 340.132C339.782 340.189 339.864 340.228 339.878 340.204C339.892 340.18 339.83 340.118 339.738 340.061C339.647 340.004 339.565 339.966 339.551 339.989Z" fill="#263238"/>
<path d="M338.726 339.842C338.726 339.842 338.832 339.842 338.947 339.842C339.062 339.842 339.149 339.894 339.163 339.875C339.177 339.856 339.096 339.771 338.956 339.752C338.817 339.733 338.712 339.804 338.726 339.842Z" fill="#263238"/>
<path d="M338.154 339.805C338.154 339.828 338.198 339.857 338.26 339.866C338.323 339.876 338.381 339.866 338.385 339.843C338.39 339.819 338.342 339.79 338.279 339.781C338.217 339.771 338.154 339.805 338.154 339.805Z" fill="#263238"/>
<path d="M204.894 338.982L205.408 335.184L198.253 334.188L197.441 339.704L197.883 339.794C199.842 340.178 207.867 341.612 209.245 341.403C210.777 341.185 204.894 338.982 204.894 338.982Z" fill="#4382EE"/>
<g opacity="0.3">
<path d="M200.046 340.031C200.024 339.421 199.776 338.84 199.349 338.398C198.93 337.96 198.359 337.692 197.75 337.648L197.467 339.623L200.046 340.031Z" fill="white"/>
</g>
<g opacity="0.3">
<path d="M207.754 340.164C207.754 340.164 209.799 341.066 209.482 341.38C209.166 341.693 201.002 340.544 197.443 339.723L197.477 339.571L206.995 340.995C206.995 340.995 207.336 340.122 207.754 340.164Z" fill="white"/>
</g>
<path d="M197.365 339.547C197.404 339.562 197.444 339.573 197.485 339.58L197.836 339.651L199.128 339.888C200.223 340.078 201.735 340.325 203.411 340.563C205.087 340.8 206.609 340.98 207.733 341.099L209.039 341.227L209.395 341.256H209.52L209.4 341.232L209.044 341.189L207.7 341.037C206.6 340.904 205.078 340.714 203.378 340.477C201.678 340.24 200.189 340.002 199.094 339.827L197.797 339.618L197.447 339.561L197.365 339.547Z" fill="#263238"/>
<path d="M206.975 341.095C207.061 340.889 207.172 340.694 207.306 340.515C207.46 340.353 207.633 340.208 207.82 340.083C207.587 340.135 207.38 340.268 207.239 340.459C207.073 340.63 206.979 340.857 206.975 341.095V341.095Z" fill="#263238"/>
<path d="M205.016 339.742C205.016 339.742 205.151 339.647 205.28 339.499C205.41 339.352 205.497 339.219 205.477 339.205C205.458 339.191 205.343 339.295 205.213 339.443C205.084 339.59 204.997 339.723 205.016 339.742Z" fill="#263238"/>
<path d="M204.477 339.357C204.477 339.357 204.616 339.319 204.756 339.224C204.895 339.129 204.996 339.043 204.981 339.02C204.967 338.996 204.847 339.062 204.708 339.153C204.568 339.243 204.468 339.328 204.477 339.357Z" fill="#263238"/>
<path d="M204.209 338.636C204.321 338.697 204.446 338.731 204.574 338.735C204.7 338.765 204.832 338.765 204.958 338.735C204.843 338.677 204.717 338.643 204.588 338.636C204.463 338.609 204.334 338.609 204.209 338.636V338.636Z" fill="#263238"/>
<path d="M204.15 338.147C204.261 338.247 204.4 338.31 204.549 338.327C204.691 338.372 204.844 338.372 204.986 338.327C204.849 338.286 204.71 338.255 204.568 338.237C204.431 338.197 204.292 338.167 204.15 338.147V338.147Z" fill="#263238"/>
<path d="M205.348 339.157C205.503 339.207 205.665 339.228 205.828 339.219C205.997 339.219 206.165 339.206 206.332 339.181C206.434 339.168 206.534 339.142 206.63 339.105C206.688 339.083 206.735 339.038 206.76 338.982C206.772 338.949 206.774 338.913 206.767 338.878C206.759 338.844 206.742 338.812 206.716 338.787C206.553 338.678 206.357 338.628 206.16 338.646C205.964 338.664 205.78 338.749 205.641 338.887C205.557 338.966 205.492 339.061 205.448 339.167C205.429 339.205 205.419 339.247 205.42 339.29C205.484 339.155 205.574 339.033 205.684 338.93C205.804 338.824 205.952 338.756 206.111 338.735C206.3 338.7 206.495 338.741 206.654 338.849C206.721 338.911 206.678 338.991 206.591 339.029C206.503 339.062 206.411 339.086 206.318 339.1C206.16 339.133 205.999 339.152 205.837 339.157C205.525 339.167 205.348 339.143 205.348 339.157Z" fill="#263238"/>
<path d="M205.461 339.196C205.53 339.108 205.566 338.999 205.561 338.887C205.562 338.767 205.534 338.648 205.48 338.541C205.45 338.469 205.403 338.405 205.343 338.356C205.283 338.306 205.211 338.272 205.134 338.256C205.11 338.257 205.087 338.263 205.065 338.273C205.043 338.283 205.024 338.298 205.008 338.315C204.992 338.333 204.979 338.354 204.971 338.376C204.963 338.398 204.96 338.422 204.961 338.446C204.961 338.52 204.978 338.593 205.009 338.659C205.055 338.768 205.115 338.87 205.187 338.963C205.312 339.125 205.417 339.191 205.422 339.182C205.427 339.172 205.345 339.091 205.24 338.93C205.177 338.835 205.126 338.733 205.086 338.626C205.033 338.522 205.014 338.346 205.134 338.341C205.254 338.337 205.35 338.474 205.408 338.574C205.46 338.671 205.491 338.778 205.499 338.887C205.495 338.991 205.482 339.094 205.461 339.196Z" fill="#263238"/>
<path d="M197.787 337.634C197.787 337.634 197.998 337.634 198.315 337.729C198.73 337.834 199.106 338.053 199.4 338.36C199.694 338.668 199.894 339.051 199.977 339.466C200.039 339.784 200.02 339.988 200.039 339.988C200.048 339.941 200.048 339.893 200.039 339.846C200.054 339.717 200.054 339.586 200.039 339.457C199.971 339.023 199.772 338.619 199.468 338.298C199.162 337.981 198.767 337.762 198.335 337.667C198.205 337.639 198.073 337.623 197.941 337.62L197.787 337.634Z" fill="#263238"/>
<path d="M198.954 334.795C198.834 335.264 198.743 335.74 198.681 336.219C198.591 336.701 198.53 337.188 198.498 337.677C198.616 337.208 198.706 336.732 198.767 336.253C198.857 335.771 198.919 335.284 198.954 334.795V334.795Z" fill="#263238"/>
<path d="M201.043 339.466C201.372 339.596 201.718 339.68 202.071 339.717C202.42 339.783 202.777 339.804 203.132 339.779C203.132 339.755 202.652 339.717 202.085 339.632C201.518 339.547 201.048 339.442 201.043 339.466Z" fill="#263238"/>
<path d="M199.641 339.272C199.641 339.272 199.641 339.371 199.698 339.485C199.756 339.599 199.741 339.694 199.77 339.699C199.799 339.704 199.823 339.59 199.77 339.462C199.717 339.334 199.66 339.253 199.641 339.272Z" fill="#263238"/>
<path d="M199.208 338.545C199.184 338.545 199.208 338.64 199.285 338.726C199.362 338.811 199.415 338.868 199.434 338.854C199.453 338.84 199.434 338.759 199.357 338.674C199.28 338.588 199.227 338.531 199.208 338.545Z" fill="#263238"/>
<path d="M198.494 338.141C198.494 338.165 198.59 338.179 198.691 338.232C198.792 338.284 198.859 338.35 198.878 338.336C198.898 338.322 198.854 338.217 198.73 338.156C198.605 338.094 198.489 338.118 198.494 338.141Z" fill="#263238"/>
<path d="M197.975 337.928C197.975 337.928 197.999 337.99 198.056 338.023C198.114 338.056 198.167 338.061 198.177 338.023C198.186 337.985 198.153 337.961 198.1 337.932C198.047 337.904 197.989 337.904 197.975 337.928Z" fill="#263238"/>
<path d="M224.095 319.736L222.174 316.413L215.893 319.941L218.659 324.802L219.062 324.612C220.848 323.734 228.09 320.021 229.051 319.024C230.117 317.932 224.095 319.736 224.095 319.736Z" fill="#4382EE"/>
<g opacity="0.3">
<path d="M220.901 323.496C220.509 323.023 219.952 322.711 219.34 322.622C218.737 322.528 218.12 322.66 217.611 322.993L218.605 324.73L220.901 323.496Z" fill="white"/>
</g>
<g opacity="0.3">
<path d="M227.091 318.948C227.091 318.948 229.267 318.431 229.209 318.868C229.151 319.304 221.972 323.32 218.644 324.821L218.572 324.678L226.986 320.059C226.986 320.059 226.731 319.167 227.091 318.948Z" fill="white"/>
</g>
<path d="M218.48 324.731L218.596 324.683L218.917 324.527L220.089 323.933C221.074 323.43 222.423 322.708 223.897 321.887C225.372 321.066 226.687 320.287 227.633 319.713L228.748 319.025L229.05 318.835L229.151 318.763C229.111 318.777 229.074 318.796 229.04 318.82L228.733 318.996L227.6 319.661C226.639 320.221 225.328 320.985 223.854 321.811C222.38 322.637 221.035 323.359 220.06 323.881L218.903 324.498L218.586 324.664L218.48 324.731Z" fill="#263238"/>
<path d="M227.048 320.155C226.989 319.941 226.956 319.721 226.952 319.5C226.973 319.278 227.02 319.06 227.091 318.849C226.938 319.029 226.857 319.26 226.866 319.495C226.838 319.73 226.903 319.966 227.048 320.155V320.155Z" fill="#263238"/>
<path d="M224.655 320.264C224.684 320.264 224.708 320.112 224.717 319.917C224.737 319.798 224.729 319.676 224.693 319.561C224.623 319.789 224.61 320.03 224.655 320.264V320.264Z" fill="#263238"/>
<path d="M223.998 320.283C224.022 320.283 224.079 320.169 224.132 320.012C224.185 319.855 224.214 319.722 224.19 319.718C224.166 319.713 224.103 319.832 224.05 319.988C223.998 320.145 223.974 320.278 223.998 320.283Z" fill="#263238"/>
<path d="M223.341 319.865C223.467 319.843 223.586 319.794 223.691 319.723C223.874 319.623 224.013 319.523 223.999 319.504C223.984 319.485 223.831 319.547 223.648 319.647C223.466 319.747 223.326 319.865 223.341 319.865Z" fill="#263238"/>
<path d="M222.99 319.528C223.14 319.54 223.289 319.505 223.418 319.428C223.557 319.376 223.679 319.285 223.768 319.167C223.634 319.216 223.503 319.277 223.379 319.348C223.244 319.396 223.114 319.456 222.99 319.528V319.528Z" fill="#263238"/>
<path d="M224.561 319.604C224.715 319.558 224.86 319.486 224.988 319.39C225.124 319.29 225.249 319.177 225.363 319.053C225.435 318.981 225.499 318.901 225.555 318.816C225.587 318.761 225.597 318.697 225.584 318.635C225.572 318.603 225.552 318.574 225.525 318.552C225.497 318.53 225.465 318.516 225.43 318.512C225.233 318.523 225.046 318.602 224.902 318.735C224.757 318.867 224.664 319.045 224.637 319.238C224.611 319.351 224.611 319.468 224.637 319.58C224.646 319.621 224.665 319.66 224.69 319.694C224.664 319.546 224.664 319.395 224.69 319.248C224.724 319.093 224.8 318.95 224.911 318.835C224.972 318.766 225.045 318.71 225.127 318.669C225.21 318.628 225.3 318.604 225.391 318.597C225.483 318.597 225.497 318.697 225.454 318.778C225.403 318.857 225.345 318.932 225.281 319.001C225.171 319.123 225.052 319.238 224.926 319.343C224.71 319.504 224.556 319.59 224.561 319.604Z" fill="#263238"/>
<path d="M224.676 319.566C224.679 319.455 224.639 319.347 224.565 319.263C224.493 319.165 224.397 319.087 224.287 319.035C224.218 318.995 224.14 318.975 224.061 318.975C223.982 318.975 223.904 318.995 223.835 319.035C223.802 319.069 223.783 319.115 223.783 319.163C223.783 319.211 223.802 319.257 223.835 319.291C223.88 319.349 223.937 319.396 224.003 319.429C224.108 319.486 224.22 319.533 224.335 319.566C224.532 319.619 224.657 319.609 224.657 319.595C224.657 319.581 224.536 319.571 224.354 319.505C224.246 319.469 224.143 319.421 224.047 319.362C223.941 319.31 223.816 319.177 223.907 319.101C223.964 319.073 224.027 319.059 224.09 319.059C224.153 319.059 224.216 319.073 224.272 319.101C224.374 319.145 224.465 319.212 224.536 319.296C224.592 319.381 224.639 319.472 224.676 319.566V319.566Z" fill="#263238"/>
<path d="M217.635 322.96C217.791 322.87 217.951 322.787 218.115 322.713C218.511 322.546 218.946 322.492 219.371 322.558C219.796 322.625 220.193 322.808 220.516 323.088C220.766 323.302 220.877 323.477 220.891 323.468C220.876 323.421 220.851 323.377 220.819 323.34C220.743 323.234 220.656 323.135 220.56 323.045C220.237 322.744 219.831 322.546 219.393 322.476C218.954 322.409 218.504 322.472 218.101 322.656C217.982 322.715 217.868 322.783 217.76 322.86C217.669 322.917 217.63 322.955 217.635 322.96Z" fill="#263238"/>
<path d="M216.824 320.008C217.022 320.456 217.248 320.892 217.501 321.313C217.726 321.751 217.978 322.174 218.255 322.581C218.055 322.133 217.829 321.697 217.578 321.275C217.352 320.839 217.1 320.415 216.824 320.008V320.008Z" fill="#263238"/>
<path d="M221.348 322.448C222.019 322.222 222.643 321.88 223.192 321.437C223.192 321.413 222.784 321.669 222.275 321.949C221.766 322.229 221.334 322.424 221.348 322.448Z" fill="#263238"/>
<path d="M220.113 323.136C220.113 323.16 220.195 323.203 220.291 323.274C220.387 323.345 220.454 323.411 220.478 323.397C220.502 323.383 220.454 323.283 220.344 323.203C220.233 323.122 220.118 323.112 220.113 323.136Z" fill="#263238"/>
<path d="M219.32 322.822C219.32 322.822 219.392 322.889 219.493 322.917C219.594 322.946 219.685 322.95 219.69 322.917C219.695 322.884 219.618 322.856 219.517 322.827C219.416 322.799 219.325 322.803 219.32 322.822Z" fill="#263238"/>
<path d="M218.509 322.936C218.509 322.936 218.605 322.908 218.715 322.889C218.826 322.87 218.922 322.889 218.931 322.855C218.941 322.822 218.835 322.775 218.701 322.803C218.566 322.832 218.49 322.922 218.509 322.936Z" fill="#263238"/>
<path d="M217.963 323.079C217.963 323.102 218.021 323.112 218.088 323.102C218.155 323.093 218.199 323.069 218.194 323.045C218.189 323.021 218.136 323.007 218.074 323.017C218.011 323.026 217.963 323.055 217.963 323.079Z" fill="#263238"/>
<path d="M199.958 266.933C199.958 266.933 202.734 277.961 203.603 277.491C208.328 274.932 213.011 270.218 214.763 268.362C214.831 268.11 214.898 267.83 214.965 267.512C215.039 267.142 215.05 266.762 214.999 266.387C214.956 265.92 214.848 265.462 214.677 265.025C214.485 264.64 214.85 264.218 215.196 264.393C215.541 264.569 216.103 265.618 216.156 267.004C216.209 268.391 217.501 266.648 217.981 266.017C218.461 265.386 220.036 263.515 220.344 263.515C220.795 263.515 220.881 263.99 220.392 264.616C219.902 265.243 218.547 267.189 218.888 267.432C219.229 267.674 221.621 264.436 221.621 264.436C221.621 264.436 222.024 263.658 222.428 263.928C223.153 264.403 220.353 267.655 220.079 267.954C219.887 268.167 220.247 268.428 220.444 268.205C220.641 267.982 222.759 264.925 223.503 265.409C224.075 265.78 221.227 268.101 221.131 268.979C221.035 269.857 223.119 266.995 223.647 267.375C223.849 267.512 223.974 267.645 222.548 269.112C221.347 270.241 220.084 271.303 218.764 272.293C214.979 276.47 200.995 289.91 198.138 282.703C194.738 274.13 195.257 268.59 195.257 268.59L199.958 266.933Z" fill="#FFBE9D"/>
<path d="M180.049 270.888L180.903 279.609L179.895 285.709L178.454 289.07L197.327 287.067L195.761 279.238L195.91 276.585C196.3 278.328 196.781 280.051 197.351 281.745C198.345 284.494 200.189 285.068 200.189 285.068C206.432 286.43 218.437 273.148 218.437 273.148L214.163 268.044L204.016 276.665C204.09 276.58 204.13 276.471 204.13 276.359C204.13 276.247 204.09 276.139 204.016 276.053C203.757 275.744 203.291 276.665 203.291 276.665L200.919 268.239C200.919 268.239 200.227 260.672 192.726 260.311H186.484C183.617 260.888 181.001 262.326 178.993 264.428C176.984 266.53 175.681 269.194 175.261 272.056C175.141 272.921 175.074 273.793 175.059 274.667C174.881 285.111 180.058 287.437 180.058 287.437L182.94 278.863L180.049 270.888Z" fill="#455A64"/>
<path d="M195.215 276.874C195.511 276.65 195.758 276.369 195.94 276.048C196.43 275.304 196.738 274.459 196.842 273.577C196.945 272.696 196.84 271.803 196.535 270.968C196.429 270.621 196.253 270.298 196.017 270.019C195.983 270.019 196.185 270.404 196.382 271.035C196.635 271.855 196.717 272.718 196.622 273.57C196.522 274.422 196.246 275.245 195.81 275.986C195.479 276.537 195.215 276.85 195.215 276.874Z" fill="#263238"/>
<path d="M197.034 285.21C196.739 285.081 196.452 284.933 196.175 284.769C194.253 283.739 192.198 282.973 190.066 282.495C189.351 282.338 188.587 282.2 187.795 282.105C187.401 282.058 186.993 282.015 186.58 281.991C186.167 281.968 185.749 281.963 185.312 281.892C184.86 281.839 184.444 281.624 184.141 281.289C183.876 280.953 183.694 280.562 183.607 280.145C183.435 279.352 183.367 278.592 183.281 277.861C183.147 276.571 183.082 275.275 183.084 273.978C183.084 272.872 183.142 271.98 183.195 271.362C183.195 271.054 183.243 270.812 183.267 270.65C183.269 270.568 183.283 270.486 183.31 270.408C183.326 270.724 183.326 271.041 183.31 271.358C183.31 271.975 183.262 272.867 183.281 273.969C183.3 275.07 183.367 276.38 183.531 277.828C183.617 278.55 183.699 279.323 183.867 280.078C183.941 280.458 184.106 280.814 184.347 281.118C184.611 281.411 184.975 281.597 185.37 281.64C185.773 281.702 186.196 281.702 186.614 281.735C187.031 281.768 187.44 281.806 187.838 281.854C188.61 281.95 189.377 282.088 190.134 282.267C191.413 282.562 192.663 282.969 193.87 283.482C194.685 283.826 195.476 284.224 196.237 284.674C196.506 284.825 196.717 284.963 196.847 285.053C196.915 285.099 196.978 285.152 197.034 285.21Z" fill="#263238"/>
<path d="M182.768 283.24C182.878 282.782 183.131 282.369 183.493 282.062C183.854 281.755 184.305 281.569 184.78 281.531C184.78 281.602 184.208 281.773 183.656 282.248C183.104 282.723 182.835 283.268 182.768 283.24Z" fill="#263238"/>
<path d="M189.58 243.791C190.777 243.376 192.078 243.356 193.287 243.734C193.887 243.931 194.424 244.279 194.845 244.745C195.266 245.21 195.557 245.777 195.688 246.387C195.789 247 195.688 247.66 195.996 248.201C196.303 248.742 196.956 249.074 197.47 249.506C197.856 249.851 198.146 250.288 198.314 250.774C198.482 251.261 198.522 251.782 198.431 252.288C198.253 252.821 198.147 253.375 198.114 253.935C198.204 254.505 198.483 255.029 198.906 255.426C199.329 255.818 199.696 256.265 199.996 256.755C200.144 257.002 200.217 257.286 200.205 257.572C200.193 257.859 200.097 258.136 199.929 258.369C199.506 258.844 198.762 258.844 198.118 258.844C195.872 258.834 193.627 258.959 191.395 259.219" fill="#263238"/>
<path d="M192.731 260.212C192.731 259.125 192.702 258.194 192.702 258.194C192.702 258.194 195.387 257.857 195.507 255.151C195.627 252.445 195.348 246.198 195.348 246.198L190.412 243.853L186.09 248.714L186.244 260.316C186.254 261.156 186.597 261.959 187.2 262.551C187.802 263.143 188.616 263.478 189.466 263.482C189.899 263.486 190.329 263.403 190.729 263.239C191.13 263.076 191.493 262.834 191.798 262.529C192.102 262.224 192.342 261.862 192.502 261.464C192.662 261.066 192.74 260.64 192.731 260.212V260.212Z" fill="#FFBE9D"/>
<path d="M194.656 250.76C194.656 250.827 194.636 250.893 194.598 250.949C194.561 251.006 194.507 251.049 194.444 251.075C194.381 251.101 194.312 251.108 194.245 251.096C194.178 251.083 194.116 251.051 194.068 251.003C194.019 250.956 193.986 250.896 193.972 250.83C193.958 250.764 193.964 250.695 193.99 250.632C194.015 250.57 194.059 250.516 194.115 250.478C194.171 250.44 194.238 250.419 194.306 250.418C194.352 250.418 194.397 250.426 194.44 250.443C194.482 250.46 194.521 250.485 194.553 250.517C194.586 250.548 194.612 250.586 194.63 250.628C194.647 250.67 194.656 250.715 194.656 250.76V250.76Z" fill="#263238"/>
<path d="M195.213 250.376C195.17 250.423 194.916 250.21 194.551 250.195C194.186 250.181 193.907 250.366 193.869 250.314C193.83 250.262 193.893 250.21 194.013 250.124C194.172 250.014 194.364 249.959 194.559 249.967C194.753 249.976 194.94 250.048 195.088 250.172C195.213 250.267 195.237 250.357 195.213 250.376Z" fill="#263238"/>
<path d="M190.653 250.76C190.652 250.826 190.631 250.891 190.593 250.945C190.555 251 190.502 251.043 190.44 251.068C190.378 251.092 190.31 251.099 190.244 251.086C190.178 251.072 190.118 251.04 190.071 250.994C190.023 250.947 189.991 250.887 189.977 250.822C189.964 250.757 189.971 250.69 189.996 250.628C190.021 250.567 190.064 250.514 190.119 250.477C190.175 250.44 190.24 250.419 190.307 250.418C190.399 250.418 190.486 250.454 190.551 250.518C190.616 250.582 190.653 250.669 190.653 250.76V250.76Z" fill="#263238"/>
<path d="M191.142 250.447C191.099 250.49 190.839 250.276 190.474 250.262C190.109 250.248 189.831 250.433 189.793 250.385C189.754 250.338 189.817 250.281 189.937 250.195C190.097 250.085 190.289 250.03 190.484 250.039C190.678 250.047 190.864 250.119 191.012 250.243C191.123 250.338 191.161 250.423 191.142 250.447Z" fill="#263238"/>
<path d="M192.52 253.575C192.714 253.516 192.916 253.486 193.12 253.485C193.216 253.485 193.307 253.484 193.322 253.394C193.331 253.291 193.311 253.188 193.264 253.095C193.177 252.848 193.091 252.621 193 252.326C192.752 251.672 192.553 251.001 192.404 250.318C192.702 250.951 192.951 251.604 193.149 252.274C193.235 252.545 193.322 252.801 193.403 253.048C193.46 253.171 193.475 253.309 193.446 253.442C193.432 253.475 193.411 253.505 193.383 253.529C193.356 253.553 193.323 253.57 193.288 253.579C193.235 253.586 193.182 253.586 193.129 253.579C192.927 253.603 192.722 253.601 192.52 253.575V253.575Z" fill="#263238"/>
<path d="M192.702 258.194C191.429 258.161 190.193 257.76 189.148 257.04C189.148 257.04 189.984 259.015 192.659 258.858L192.702 258.194Z" fill="#EB996E"/>
<path d="M179.714 257.064C180.01 256.843 180.262 256.569 180.458 256.257C180.712 255.716 180.458 255.08 180.179 254.548C179.901 254.016 179.569 253.456 179.675 252.868C179.858 251.833 181.212 251.406 181.596 250.432C181.947 249.559 181.423 248.481 181.894 247.66C182.273 247 183.152 246.786 183.656 246.207C183.976 245.71 184.23 245.174 184.41 244.612C184.635 244.143 184.971 243.734 185.389 243.42C185.807 243.106 186.295 242.895 186.813 242.806C187.33 242.716 187.862 242.751 188.363 242.907C188.864 243.063 189.32 243.335 189.692 243.701C190.445 243.511 191.229 243.474 191.996 243.592C192.764 243.709 193.499 243.979 194.158 244.384C194.764 244.706 195.255 245.203 195.566 245.809C195.776 246.371 195.866 246.971 195.83 247.57V248.856C195.84 248.965 195.82 249.076 195.772 249.174C195.711 249.238 195.636 249.286 195.552 249.317C195.469 249.347 195.38 249.359 195.292 249.35L193.285 249.426C193.147 249.442 193.007 249.421 192.881 249.364C192.778 249.295 192.694 249.201 192.639 249.09C192.585 248.979 192.56 248.856 192.569 248.733C192.569 248.543 192.569 248.163 192.569 248.054C192.478 248.481 192.396 248.562 192.329 248.828C192.308 248.966 192.259 249.098 192.185 249.216C192.11 249.335 192.012 249.437 191.897 249.516C191.715 249.593 191.517 249.626 191.32 249.611H190.451C190.306 249.616 190.163 249.58 190.038 249.507C189.961 249.422 189.906 249.319 189.88 249.208C189.854 249.096 189.857 248.98 189.889 248.87C189.963 248.58 190.008 248.282 190.024 247.983C189.764 248.486 189.64 249.113 189.323 249.198C189.001 249.245 188.674 249.222 188.362 249.132C188.041 249.032 187.81 248.946 187.575 248.875C187.596 249.008 187.63 249.138 187.676 249.265C187.92 249.915 188.468 250.542 188.276 251.211C188.084 251.88 187.411 252.113 187.061 252.635C186.896 252.938 186.803 253.274 186.79 253.618C186.776 253.962 186.843 254.305 186.984 254.619C187.264 255.239 187.511 255.873 187.724 256.518C187.829 256.85 187.837 257.204 187.746 257.54C187.656 257.876 187.472 258.18 187.215 258.417C186.753 258.688 186.217 258.808 185.683 258.759L180.808 258.768C180.494 258.791 180.179 258.757 179.877 258.669C179.725 258.624 179.588 258.54 179.479 258.427C179.369 258.314 179.291 258.175 179.252 258.023C179.247 257.839 179.286 257.655 179.366 257.489C179.446 257.322 179.565 257.176 179.714 257.064V257.064Z" fill="#263238"/>
<path d="M197.832 255.597C197.832 255.597 197.784 255.55 197.731 255.436C197.659 255.266 197.62 255.084 197.616 254.9C197.645 254.221 197.865 253.563 198.25 253.001C198.485 252.617 198.671 252.205 198.802 251.776C198.938 251.291 198.882 250.773 198.644 250.328C198.527 250.09 198.364 249.877 198.164 249.701C197.94 249.521 197.687 249.382 197.414 249.288C197.107 249.179 196.821 249.019 196.569 248.814C196.44 248.691 196.338 248.544 196.269 248.38C196.2 248.217 196.167 248.041 196.171 247.864C196.171 247.527 196.195 247.214 196.171 246.915C196.159 246.62 196.102 246.329 196.003 246.051C195.814 245.511 195.5 245.024 195.085 244.627C194.38 243.957 193.466 243.544 192.492 243.454C191.833 243.387 191.167 243.422 190.519 243.558C190.038 243.649 189.808 243.729 189.803 243.71C189.798 243.691 189.861 243.672 189.976 243.63C190.147 243.564 190.322 243.508 190.499 243.464C191.154 243.287 191.835 243.226 192.511 243.283C193.534 243.353 194.5 243.769 195.249 244.46C195.688 244.875 196.026 245.383 196.238 245.946C196.344 246.253 196.406 246.572 196.42 246.896C196.42 247.219 196.396 247.537 196.42 247.845C196.417 247.987 196.444 248.128 196.498 248.26C196.553 248.391 196.634 248.51 196.737 248.61C196.97 248.791 197.231 248.933 197.511 249.032C197.805 249.143 198.078 249.303 198.317 249.507C198.545 249.704 198.733 249.942 198.87 250.209C199.127 250.707 199.182 251.283 199.023 251.819C198.88 252.261 198.678 252.682 198.423 253.072C198.037 253.605 197.8 254.228 197.736 254.881C197.728 255.123 197.761 255.365 197.832 255.597V255.597Z" fill="#263238"/>
<path d="M178.848 252.117C179.012 252.206 179.186 252.274 179.367 252.322C179.609 252.37 179.86 252.358 180.096 252.287C180.332 252.215 180.547 252.087 180.721 251.913C180.963 251.641 181.122 251.307 181.181 250.949C181.239 250.592 181.195 250.225 181.052 249.891C180.843 249.461 180.789 248.974 180.899 248.51C181.13 248.043 181.534 247.682 182.027 247.503C182.47 247.349 182.876 247.109 183.223 246.796C183.486 246.456 183.652 246.053 183.703 245.628C183.758 245.217 183.866 244.815 184.025 244.432C184.188 244.099 184.428 243.81 184.726 243.587C185.155 243.273 185.676 243.106 186.21 243.112C186.354 243.114 186.497 243.132 186.637 243.164C186.686 243.176 186.732 243.193 186.776 243.216C186.776 243.216 186.57 243.188 186.215 243.216C185.709 243.247 185.227 243.435 184.836 243.753C184.57 243.966 184.358 244.237 184.217 244.546C184.074 244.917 183.977 245.305 183.929 245.699C183.878 246.167 183.699 246.612 183.41 246.986C183.042 247.325 182.607 247.587 182.133 247.755C181.7 247.911 181.343 248.221 181.129 248.623C181.038 249.036 181.089 249.467 181.273 249.848C181.422 250.22 181.461 250.626 181.386 251.018C181.31 251.411 181.123 251.774 180.846 252.065C180.65 252.252 180.408 252.385 180.145 252.451C179.881 252.518 179.605 252.516 179.343 252.445C179.203 252.403 179.072 252.339 178.954 252.255C178.886 252.165 178.843 252.122 178.848 252.117Z" fill="#4382EE"/>
<path d="M192.39 254.529C192.366 254.415 192.315 254.307 192.241 254.216C192.166 254.126 192.071 254.054 191.962 254.007C191.887 253.972 191.805 253.954 191.722 253.954C191.639 253.954 191.557 253.972 191.482 254.007C191.41 254.045 191.351 254.103 191.312 254.174C191.274 254.245 191.257 254.326 191.266 254.406C191.288 254.494 191.336 254.574 191.403 254.637C191.471 254.699 191.555 254.741 191.645 254.757C191.828 254.782 192.015 254.769 192.193 254.719C192.242 254.712 192.29 254.694 192.332 254.667C192.354 254.654 192.371 254.635 192.382 254.612C192.393 254.589 192.397 254.564 192.394 254.539" fill="#EB996E"/>
<path d="M191.478 253.561C191.545 253.561 191.55 253.974 191.881 254.282C192.212 254.591 192.63 254.572 192.635 254.638C192.64 254.705 192.539 254.724 192.356 254.724C192.115 254.72 191.883 254.627 191.708 254.463C191.533 254.297 191.425 254.074 191.406 253.836C191.396 253.656 191.444 253.556 191.478 253.561Z" fill="#263238"/>
<path d="M178.762 288.823C178.762 288.823 206.701 283.036 209.405 284.303C212.108 285.571 224.359 317.966 224.359 317.966L215.571 323.188L203.733 294.424C203.733 294.424 184.174 301.483 180.755 300.786C177.336 300.088 178.762 288.823 178.762 288.823Z" fill="#263238"/>
<path d="M191.247 290.432C191.674 290.575 207.834 297.14 208.972 299.253C210.11 301.365 207.219 337.843 207.219 337.843L197.096 337.007L198.705 305.277L180.764 300.786L191.247 290.432Z" fill="#263238"/>
<path d="M180.664 300.876C180.745 300.88 180.826 300.872 180.904 300.852L181.596 300.738L184.131 300.263C186.268 299.86 189.222 299.314 192.449 298.497C194.057 298.094 195.58 297.657 196.948 297.216C198.317 296.774 199.537 296.328 200.54 295.91C201.544 295.492 202.351 295.141 202.893 294.866L203.522 294.553C203.596 294.519 203.667 294.479 203.734 294.434C203.653 294.448 203.575 294.475 203.503 294.515L202.86 294.79C202.308 295.041 201.496 295.379 200.483 295.773C199.469 296.167 198.254 296.594 196.891 297.031C195.527 297.467 194.009 297.885 192.391 298.289C189.178 299.086 186.23 299.67 184.102 300.112L181.581 300.638L180.899 300.795C180.818 300.814 180.739 300.841 180.664 300.876Z" fill="#455A64"/>
<path d="M208.973 307.318C209.018 307.147 209.047 306.972 209.059 306.795C209.098 306.411 209.15 305.931 209.213 305.371C209.275 304.811 209.338 304.028 209.414 303.235C209.537 302.358 209.537 301.468 209.414 300.591C209.231 299.705 208.758 298.903 208.07 298.307C207.533 297.822 206.922 297.423 206.259 297.125C205.815 296.925 205.359 296.747 204.896 296.594C204.729 296.526 204.555 296.476 204.377 296.447C204.377 296.485 205.088 296.736 206.192 297.263C206.837 297.567 207.434 297.962 207.964 298.436C208.61 299.012 209.052 299.777 209.227 300.619C209.34 301.478 209.34 302.348 209.227 303.207C209.17 303.999 209.117 304.721 209.073 305.343C209.03 305.965 209.011 306.401 208.987 306.767C208.962 306.949 208.957 307.134 208.973 307.318V307.318Z" fill="#455A64"/>
<path d="M200.91 304.308C200.512 304.363 200.128 304.49 199.776 304.683C199.398 304.811 199.045 305.003 198.734 305.253C199.131 305.197 199.513 305.07 199.863 304.878C200.243 304.749 200.597 304.556 200.91 304.308V304.308Z" fill="#455A64"/>
<path d="M200.098 303.349C199.835 303.678 199.589 304.02 199.364 304.375C199.079 304.685 198.813 305.012 198.566 305.353C198.959 305.161 199.291 304.867 199.527 304.503C199.824 304.18 200.023 303.78 200.098 303.349V303.349Z" fill="#455A64"/>
<path d="M150.58 339.803L150.306 336.005L157.509 335.45L157.965 341.009L157.524 341.071C155.545 341.337 147.439 342.262 146.08 341.968C144.567 341.645 150.58 339.803 150.58 339.803Z" fill="#4382EE"/>
<g opacity="0.3">
<path d="M155.354 341.166C155.411 340.557 155.695 339.99 156.151 339.576C156.595 339.162 157.182 338.931 157.793 338.93L157.952 340.919L155.354 341.166Z" fill="white"/>
</g>
<g opacity="0.3">
<path d="M147.67 340.814C147.67 340.814 145.571 341.593 145.864 341.92C146.157 342.248 154.383 341.612 157.985 341.018L157.961 340.862L148.356 341.683C148.356 341.683 148.068 340.8 147.67 340.814Z" fill="white"/>
</g>
<path d="M158.058 340.848L157.933 340.871L157.582 340.919L156.276 341.076C155.171 341.204 153.649 341.356 151.954 341.484C150.259 341.612 148.736 341.702 147.632 341.75L146.316 341.797H145.961C145.919 341.802 145.877 341.802 145.836 341.797H145.961L146.316 341.773L147.627 341.702C148.736 341.636 150.264 341.541 151.949 341.408C153.635 341.275 155.162 341.132 156.271 341.023L157.577 340.895L157.933 340.862L158.058 340.848Z" fill="#263238"/>
<path d="M148.372 341.792C148.294 341.583 148.194 341.383 148.074 341.194C147.933 341.018 147.772 340.858 147.594 340.719C147.816 340.799 148.009 340.942 148.149 341.131C148.288 341.319 148.368 341.545 148.377 341.778L148.372 341.792Z" fill="#263238"/>
<path d="M150.407 340.563C150.407 340.563 150.277 340.463 150.162 340.307C150.047 340.15 149.96 340.017 149.984 340.003C150.009 339.989 150.114 340.103 150.229 340.255C150.345 340.406 150.431 340.549 150.407 340.563Z" fill="#263238"/>
<path d="M150.97 340.217C150.97 340.217 150.836 340.169 150.701 340.065C150.567 339.96 150.475 339.87 150.49 339.851C150.504 339.832 150.624 339.899 150.754 339.998C150.884 340.098 150.984 340.198 150.97 340.217Z" fill="#263238"/>
<path d="M151.287 339.514C151.169 339.565 151.041 339.591 150.913 339.59C150.788 339.618 150.658 339.618 150.533 339.59C150.651 339.538 150.779 339.512 150.908 339.514C151.033 339.486 151.162 339.486 151.287 339.514Z" fill="#263238"/>
<path d="M151.373 339.03C151.255 339.121 151.113 339.174 150.964 339.182C150.82 339.219 150.667 339.211 150.527 339.158C150.666 339.126 150.808 339.105 150.95 339.096C151.088 339.061 151.23 339.039 151.373 339.03V339.03Z" fill="#263238"/>
<path d="M150.115 339.96C149.958 340.002 149.795 340.013 149.634 339.993C149.473 339.986 149.312 339.964 149.154 339.927C149.053 339.907 148.955 339.875 148.861 339.832C148.804 339.805 148.759 339.757 148.736 339.699C148.726 339.665 148.726 339.63 148.735 339.596C148.745 339.563 148.763 339.532 148.789 339.509C148.96 339.41 149.16 339.372 149.355 339.403C149.55 339.433 149.729 339.529 149.86 339.675C149.939 339.759 149.998 339.86 150.033 339.969C150.053 340.007 150.061 340.05 150.057 340.093C150 339.955 149.919 339.828 149.817 339.718C149.702 339.606 149.557 339.528 149.399 339.495C149.307 339.47 149.211 339.464 149.117 339.478C149.023 339.492 148.932 339.525 148.852 339.575C148.78 339.632 148.818 339.718 148.905 339.76C148.99 339.799 149.081 339.828 149.173 339.846C149.331 339.888 149.491 339.918 149.654 339.936C149.937 339.96 150.115 339.945 150.115 339.96Z" fill="#263238"/>
<path d="M150 339.993C149.936 339.901 149.907 339.79 149.918 339.68C149.925 339.56 149.96 339.443 150.019 339.338C150.053 339.267 150.105 339.205 150.17 339.159C150.234 339.112 150.31 339.082 150.389 339.072C150.436 339.079 150.479 339.104 150.508 339.141C150.537 339.178 150.552 339.224 150.547 339.271C150.541 339.346 150.52 339.419 150.485 339.485C150.431 339.59 150.365 339.689 150.288 339.779C150.154 339.931 150.043 339.993 150.038 339.983C150.033 339.974 150.125 339.893 150.24 339.741C150.307 339.65 150.365 339.553 150.413 339.452C150.466 339.347 150.494 339.172 150.379 339.157C150.264 339.143 150.154 339.281 150.091 339.376C150.033 339.47 149.995 339.575 149.981 339.684C149.977 339.788 149.983 339.891 150 339.993V339.993Z" fill="#263238"/>
<path d="M157.755 338.91C157.755 338.91 157.549 338.91 157.227 338.972C156.807 339.051 156.417 339.245 156.103 339.532C155.793 339.825 155.569 340.196 155.455 340.605C155.369 340.919 155.378 341.123 155.359 341.123C155.352 341.075 155.352 341.027 155.359 340.98C155.36 340.848 155.376 340.715 155.407 340.586C155.504 340.159 155.728 339.771 156.05 339.471C156.377 339.175 156.785 338.98 157.222 338.91C157.355 338.895 157.488 338.895 157.621 338.91C157.665 338.903 157.711 338.903 157.755 338.91V338.91Z" fill="#263238"/>
<path d="M156.795 336.006C156.881 336.488 156.94 336.975 156.973 337.463C157.031 337.95 157.061 338.44 157.064 338.93C156.975 338.448 156.915 337.962 156.886 337.473C156.825 336.986 156.795 336.496 156.795 336.006V336.006Z" fill="#263238"/>
<path d="M154.394 340.539C154.057 340.648 153.707 340.71 153.352 340.724C153 340.767 152.643 340.767 152.291 340.724C152.291 340.696 152.771 340.691 153.348 340.639C153.924 340.587 154.394 340.515 154.394 340.539Z" fill="#263238"/>
<path d="M155.8 340.43C155.8 340.43 155.771 340.53 155.733 340.639C155.694 340.748 155.675 340.848 155.646 340.848C155.618 340.848 155.603 340.739 155.646 340.61C155.69 340.482 155.786 340.411 155.8 340.43Z" fill="#263238"/>
<path d="M156.281 339.732C156.281 339.732 156.281 339.827 156.19 339.908C156.099 339.988 156.05 340.041 156.036 340.026C156.022 340.012 156.036 339.931 156.127 339.851C156.219 339.77 156.267 339.718 156.281 339.732Z" fill="#263238"/>
<path d="M157.021 339.376C157.021 339.376 156.92 339.405 156.819 339.452C156.719 339.5 156.647 339.557 156.623 339.543C156.599 339.528 156.656 339.424 156.786 339.372C156.915 339.32 157.026 339.353 157.021 339.376Z" fill="#263238"/>
<path d="M157.548 339.191C157.548 339.215 157.548 339.253 157.466 339.282C157.385 339.31 157.351 339.315 157.341 339.282C157.332 339.248 157.37 339.22 157.428 339.196C157.486 339.172 157.539 339.172 157.548 339.191Z" fill="#263238"/>
<path d="M134.581 339.804L134.677 336.006L141.904 336.139L141.818 341.703L141.371 341.726C139.373 341.797 131.219 341.954 129.894 341.527C128.42 341.071 134.581 339.804 134.581 339.804Z" fill="#4382EE"/>
<g opacity="0.3">
<path d="M139.199 341.612C139.322 341.011 139.663 340.475 140.16 340.107C140.647 339.746 141.253 339.577 141.86 339.632L141.821 341.631L139.199 341.612Z" fill="white"/>
</g>
<g opacity="0.3">
<path d="M131.569 340.534C131.569 340.534 129.403 341.108 129.648 341.483C129.893 341.858 138.158 341.987 141.798 341.735V341.578L132.193 341.483C132.193 341.483 131.987 340.558 131.569 340.534Z" fill="white"/>
</g>
<path d="M141.909 341.555C141.868 341.562 141.825 341.562 141.784 341.555H141.429L140.113 341.583C139.004 341.583 137.472 341.612 135.791 341.583C134.11 341.555 132.569 341.493 131.469 341.436L130.158 341.36L129.803 341.332H129.678H129.803H130.158L131.474 341.384C132.578 341.427 134.11 341.474 135.796 341.507C137.481 341.541 139.018 341.536 140.118 341.536H141.909V341.555Z" fill="#263238"/>
<path d="M132.188 341.579C132.135 341.362 132.056 341.151 131.953 340.952C131.829 340.767 131.682 340.598 131.516 340.449C131.741 340.538 131.925 340.707 132.029 340.924C132.161 341.116 132.218 341.349 132.188 341.579V341.579Z" fill="#263238"/>
<path d="M134.34 340.549C134.34 340.549 134.22 340.435 134.119 340.269C134.018 340.102 133.951 339.96 133.97 339.946C133.989 339.931 134.09 340.055 134.191 340.221C134.265 340.318 134.316 340.43 134.34 340.549V340.549Z" fill="#263238"/>
<path d="M134.931 340.25C134.931 340.25 134.801 340.193 134.681 340.079C134.561 339.965 134.47 339.861 134.489 339.842C134.508 339.823 134.619 339.903 134.739 340.017C134.859 340.131 134.945 340.236 134.931 340.25Z" fill="#263238"/>
<path d="M135.313 339.585C135.192 339.626 135.062 339.639 134.934 339.623C134.806 339.637 134.676 339.623 134.555 339.581C134.676 339.539 134.806 339.524 134.934 339.538C135.063 339.525 135.192 339.541 135.313 339.585V339.585Z" fill="#263238"/>
<path d="M135.449 339.11C135.323 339.19 135.175 339.23 135.026 339.224C134.878 339.248 134.727 339.225 134.594 339.158C134.736 339.146 134.879 339.146 135.021 339.158C135.162 339.128 135.305 339.112 135.449 339.11V339.11Z" fill="#263238"/>
<path d="M134.104 339.917C133.946 339.946 133.783 339.946 133.624 339.917C133.461 339.893 133.3 339.853 133.144 339.798C133.047 339.769 132.954 339.729 132.866 339.68C132.81 339.648 132.769 339.597 132.75 339.537C132.745 339.502 132.749 339.467 132.763 339.434C132.776 339.402 132.799 339.373 132.827 339.352C133.006 339.27 133.208 339.252 133.398 339.301C133.589 339.349 133.757 339.461 133.874 339.618C133.944 339.71 133.993 339.815 134.018 339.927C134.018 340.007 134.018 340.05 134.018 340.05C133.976 339.907 133.908 339.774 133.816 339.656C133.714 339.533 133.577 339.442 133.423 339.395C133.333 339.363 133.238 339.349 133.144 339.354C133.049 339.359 132.956 339.382 132.87 339.423C132.793 339.476 132.822 339.561 132.904 339.608C132.986 339.658 133.073 339.697 133.163 339.727C133.319 339.784 133.48 339.826 133.643 339.855C133.932 339.903 134.104 339.903 134.104 339.917Z" fill="#263238"/>
<path d="M133.984 339.942C133.93 339.843 133.913 339.729 133.936 339.619C133.953 339.499 133.999 339.385 134.07 339.286C134.111 339.22 134.168 339.164 134.236 339.124C134.304 339.085 134.38 339.062 134.459 339.059C134.507 339.07 134.548 339.099 134.574 339.14C134.6 339.181 134.609 339.23 134.599 339.277C134.586 339.35 134.558 339.419 134.517 339.481C134.454 339.581 134.378 339.672 134.291 339.752C134.219 339.834 134.126 339.896 134.022 339.932C134.022 339.932 134.118 339.851 134.248 339.709C134.324 339.626 134.392 339.535 134.45 339.438C134.512 339.343 134.56 339.168 134.45 339.144C134.339 339.12 134.214 339.244 134.142 339.334C134.073 339.422 134.026 339.524 134.003 339.633C133.987 339.735 133.981 339.838 133.984 339.942Z" fill="#263238"/>
<path d="M141.812 339.599C141.812 339.599 141.606 339.575 141.279 339.599C140.851 339.646 140.445 339.81 140.107 340.074C139.769 340.335 139.51 340.683 139.358 341.08C139.302 341.247 139.253 341.417 139.214 341.588C139.205 341.539 139.205 341.49 139.214 341.441C139.23 341.31 139.258 341.181 139.3 341.056C139.438 340.639 139.7 340.273 140.052 340.006C140.405 339.739 140.831 339.584 141.274 339.561C141.407 339.547 141.54 339.547 141.673 339.561C141.721 339.566 141.768 339.579 141.812 339.599Z" fill="#263238"/>
<path d="M141.121 336.614C141.161 337.101 141.172 337.591 141.155 338.08C141.166 338.572 141.149 339.063 141.102 339.552C141.062 339.063 141.051 338.571 141.068 338.08C141.054 337.591 141.072 337.101 141.121 336.614V336.614Z" fill="#263238"/>
<path d="M138.306 340.9C137.959 340.974 137.604 341.002 137.25 340.985C136.895 340.997 136.539 340.962 136.193 340.881C136.193 340.881 136.674 340.881 137.25 340.881C137.826 340.881 138.302 340.876 138.306 340.9Z" fill="#263238"/>
<path d="M139.719 340.924C139.719 340.924 139.68 341.023 139.632 341.128C139.584 341.232 139.551 341.327 139.527 341.327C139.503 341.327 139.493 341.213 139.551 341.09C139.608 340.966 139.704 340.905 139.719 340.924Z" fill="#263238"/>
<path d="M140.265 340.278C140.265 340.278 140.236 340.369 140.159 340.44C140.082 340.511 140.005 340.563 139.991 340.544C139.977 340.525 140.02 340.454 140.097 340.378C140.174 340.302 140.25 340.278 140.265 340.278Z" fill="#263238"/>
<path d="M141.033 339.993C141.033 340.017 140.933 339.993 140.827 340.045C140.721 340.097 140.64 340.135 140.625 340.121C140.611 340.107 140.668 340.007 140.798 339.964C140.928 339.922 141.043 339.969 141.033 339.993Z" fill="#263238"/>
<path d="M141.582 339.86C141.582 339.884 141.548 339.917 141.486 339.941C141.423 339.965 141.37 339.941 141.361 339.941C141.351 339.941 141.394 339.884 141.457 339.865C141.52 339.846 141.572 339.837 141.582 339.86Z" fill="#263238"/>
<path d="M140.567 292.099C146.927 291.47 153.33 291.39 159.704 291.861L151.617 303.335L144.318 303.364L142.791 338.64H133.109L134.031 299.295C134.073 297.522 134.755 295.822 135.954 294.503C137.152 293.183 138.788 292.33 140.567 292.099V292.099Z" fill="#263238"/>
<path d="M143.114 335.92C141.444 336.045 139.769 336.086 138.096 336.043C136.423 336.086 134.75 336.045 133.082 335.92C133.082 335.853 135.325 335.796 138.096 335.796C140.866 335.796 143.114 335.853 143.114 335.92Z" fill="#455A64"/>
<path d="M146.946 296.253C146.785 296.253 146.625 296.244 146.466 296.224C146.153 296.201 145.697 296.163 145.111 296.144C144.399 296.113 143.685 296.126 142.974 296.182C142.533 296.214 142.096 296.286 141.668 296.395C141.189 296.485 140.751 296.721 140.415 297.069C140.261 297.275 140.15 297.509 140.088 297.758C140.002 298.014 139.935 298.28 139.867 298.555C139.733 299.126 139.64 299.705 139.589 300.288C139.478 301.508 139.378 302.813 139.282 304.185C139.089 306.929 138.95 309.953 138.835 313.129C138.619 319.481 138.355 325.235 138.196 329.393C138.1 331.458 138.023 333.139 137.971 334.321C137.937 334.886 137.913 335.337 137.894 335.659C137.894 335.802 137.894 335.916 137.894 336.011C137.898 336.05 137.898 336.09 137.894 336.129C137.89 336.088 137.89 336.047 137.894 336.006C137.894 335.916 137.894 335.802 137.894 335.659C137.894 335.332 137.894 334.886 137.918 334.316C137.956 333.134 138.004 331.468 138.067 329.388C138.211 325.206 138.412 319.462 138.633 313.12C138.748 309.944 138.893 306.915 139.113 304.166C139.214 302.794 139.325 301.489 139.445 300.269C139.502 299.677 139.601 299.09 139.743 298.512C139.81 298.234 139.887 297.963 139.973 297.701C140.047 297.431 140.172 297.178 140.343 296.955C140.705 296.586 141.175 296.337 141.687 296.243C142.127 296.139 142.576 296.072 143.027 296.044C143.744 295.996 144.462 295.996 145.179 296.044C145.769 296.077 146.225 296.129 146.533 296.167L146.883 296.22L146.946 296.253Z" fill="#455A64"/>
<path d="M158.336 304.242L159.037 338.118L147.839 338.659C147.839 338.659 146.057 305.472 146.946 296.053C147.555 289.607 172.436 292.379 172.436 292.379C172.796 305.196 158.336 304.247 158.336 304.247" fill="#263238"/>
<path d="M159.038 335.446C158.511 335.542 157.978 335.597 157.443 335.612C156.454 335.683 155.085 335.764 153.601 335.84C152.118 335.916 150.72 335.968 149.731 335.996C149.197 336.038 148.661 336.038 148.127 335.996C148.653 335.896 149.186 335.839 149.721 335.826C150.711 335.754 152.074 335.674 153.587 335.598C155.1 335.522 156.468 335.469 157.429 335.441C157.964 335.397 158.502 335.398 159.038 335.446V335.446Z" fill="#455A64"/>
<path d="M170.021 292.132C170.031 292.18 170.031 292.23 170.021 292.279C170.021 292.378 170.021 292.521 169.973 292.711C169.871 293.258 169.673 293.784 169.387 294.263C169.015 294.883 168.507 295.412 167.899 295.81C167.291 296.208 166.599 296.465 165.877 296.561C165.252 296.612 164.625 296.626 163.999 296.603H157.401C156.997 296.603 156.575 296.603 156.166 296.603C155.531 296.622 154.916 296.831 154.402 297.201C153.888 297.571 153.498 298.086 153.285 298.678C153.139 299.089 153.072 299.524 153.088 299.96V301.351C153.088 303.197 153.088 305.11 153.088 307.047C153.088 314.875 153.059 321.958 153.05 327.109C153.05 329.663 153.021 331.733 153.011 333.185C153.011 333.893 153.011 334.443 153.011 334.837C153.011 335.018 153.011 335.16 153.011 335.269C153.017 335.318 153.017 335.368 153.011 335.417C153.006 335.368 153.006 335.318 153.011 335.269C153.011 335.16 153.011 335.018 153.011 334.837C153.011 334.443 153.011 333.888 152.987 333.185C152.987 331.733 152.963 329.663 152.949 327.109C152.949 321.958 152.949 314.875 152.911 307.047V301.351C152.911 300.876 152.911 300.43 152.911 299.979C152.894 299.515 152.965 299.053 153.122 298.616C153.279 298.193 153.52 297.804 153.831 297.474C154.142 297.144 154.516 296.879 154.932 296.694C155.333 296.514 155.765 296.414 156.205 296.399C156.627 296.399 157.036 296.399 157.444 296.399H159.811L164.056 296.423C164.67 296.445 165.284 296.432 165.896 296.385C166.586 296.294 167.247 296.054 167.832 295.681C168.417 295.308 168.912 294.813 169.281 294.23C169.571 293.764 169.781 293.254 169.901 292.72C169.939 292.535 169.954 292.393 169.973 292.298C169.985 292.241 170.001 292.186 170.021 292.132Z" fill="#455A64"/>
<path d="M158.481 301.398C158.572 301.943 158.581 302.498 158.509 303.045C158.518 303.597 158.445 304.147 158.293 304.679C158.196 304.134 158.185 303.579 158.26 303.031C158.252 302.479 158.326 301.929 158.481 301.398V301.398Z" fill="#455A64"/>
<path d="M158.913 291.857C158.645 291.906 158.374 291.936 158.102 291.947L155.878 292.108C154.918 292.18 153.828 292.279 152.603 292.469C151.281 292.657 150.012 293.113 148.877 293.808C148.298 294.158 147.852 294.684 147.604 295.308C147.41 295.912 147.278 296.534 147.21 297.164C147.066 298.38 147.052 299.486 147.028 300.416C147.004 301.347 146.985 302.097 146.956 302.619C146.956 302.88 146.922 303.094 146.908 303.217C146.908 303.288 146.895 303.359 146.869 303.426C146.851 303.156 146.851 302.884 146.869 302.614C146.869 302.054 146.869 301.313 146.869 300.411C146.856 299.32 146.899 298.228 146.999 297.141C147.063 296.496 147.195 295.859 147.393 295.242C147.657 294.568 148.136 293.998 148.757 293.618C149.924 292.899 151.234 292.436 152.598 292.26C153.832 292.08 154.956 291.999 155.897 291.947C156.839 291.895 157.597 291.876 158.126 291.862C158.388 291.839 158.651 291.838 158.913 291.857V291.857Z" fill="#455A64"/>
<path d="M142.389 272.331C142.389 272.331 144.554 286.862 151.551 286.393L151.129 278.512L144.967 272.915L142.389 272.331Z" fill="#F5AE88"/>
<path d="M172.508 292.256L170.976 280.312L172.556 268.093C171.519 262.396 163.432 261.983 163.432 261.983L157.069 261.878C157.069 261.878 151.724 261.109 149.775 264.665L146.178 277.402C146.178 277.402 148.656 277.753 150.98 277.834L151.138 279.225H151.177L151.849 291.786L172.508 292.256Z" fill="#4382EE"/>
<path d="M163.476 261.812C163.487 261.937 163.472 262.063 163.433 262.182C163.342 262.604 163.163 263.003 162.909 263.353C162.654 263.704 162.329 263.999 161.954 264.219C161.405 264.553 160.773 264.729 160.129 264.727C159.544 264.737 158.967 264.598 158.453 264.322C157.938 264.047 157.505 263.645 157.195 263.155C157.023 262.862 156.906 262.54 156.849 262.206C156.813 262.084 156.805 261.956 156.825 261.831C156.954 262.266 157.129 262.686 157.348 263.084C157.657 263.53 158.072 263.893 158.557 264.142C159.042 264.39 159.582 264.516 160.129 264.508C160.674 264.511 161.211 264.383 161.694 264.135C162.178 263.887 162.593 263.526 162.904 263.084C163.133 262.678 163.324 262.252 163.476 261.812Z" fill="#263238"/>
<path d="M151.512 267.385C151.636 268.394 151.678 269.412 151.637 270.428C151.678 271.444 151.636 272.461 151.512 273.471C151.386 272.461 151.344 271.444 151.388 270.428C151.344 269.412 151.386 268.394 151.512 267.385Z" fill="#263238"/>
<path d="M139.465 261.384C139.657 261.607 146.615 270.807 146.615 270.807L145.655 271.353L138.514 262.277L139.465 261.384Z" fill="#263238"/>
<path d="M167.414 268.657C167.414 268.657 160.095 279.072 159.677 279.276C158.808 279.68 148.795 271.125 147.84 270.309C147.71 270.133 147.436 269.767 146.879 269.036C146.879 269.036 146.092 265.462 145.247 265.737C144.401 266.012 145.727 267.555 145.16 268.913C144.594 270.271 142.096 267.014 141.996 266.739L141.347 265.903C141.347 265.903 140.665 267.802 140.713 268.604C140.862 271.154 143.302 274.187 143.302 274.187C143.302 274.187 154.26 287.607 161.766 288.025C165.219 288.215 172.95 272.649 172.95 272.649L167.414 268.657Z" fill="#FFBE9D"/>
<path d="M141.941 269.07C141.695 268.812 141.499 268.511 141.365 268.182C141.182 267.875 141.059 267.537 141 267.185C141.188 267.487 141.349 267.805 141.48 268.135C141.664 268.431 141.818 268.744 141.941 269.07V269.07Z" fill="#EB996E"/>
<path d="M169.108 263.573C169.108 263.573 176.389 266.611 170.823 279.324L162.016 274.193L169.108 263.573Z" fill="#4382EE"/>
<path d="M169.28 263.801C169.201 263.826 169.118 263.841 169.035 263.844C168.805 263.856 168.577 263.897 168.358 263.967C167.543 264.22 166.817 264.695 166.264 265.339C164.785 266.92 163.551 269.673 162.293 272.707C162.105 273.158 161.913 273.609 161.736 274.031L161.683 273.879C164.305 275.303 166.581 276.647 168.18 277.677C168.982 278.19 169.621 278.626 170.043 278.916L170.524 279.267C170.583 279.306 170.636 279.352 170.682 279.405C170.439 279.283 170.205 279.145 169.981 278.992L168.084 277.819C166.466 276.832 164.175 275.512 161.553 274.102L161.457 274.05L161.5 273.946L162.053 272.621C163.311 269.588 164.578 266.815 166.13 265.23C166.708 264.577 167.47 264.109 168.319 263.886C168.549 263.823 168.787 263.795 169.025 263.801C169.11 263.79 169.195 263.79 169.28 263.801V263.801Z" fill="#263238"/>
<path d="M160.156 264.536C159.712 264.536 159.271 264.449 158.861 264.28C158.451 264.11 158.078 263.862 157.766 263.549C157.453 263.237 157.206 262.866 157.04 262.458C156.873 262.051 156.79 261.615 156.795 261.175C156.795 260.017 156.824 259.02 156.824 259.02C156.824 259.02 154.12 258.768 153.942 256.124C153.765 253.48 153.827 247.375 153.827 247.375C155.309 246.635 156.965 246.3 158.622 246.404C160.279 246.508 161.878 247.048 163.254 247.968L163.667 248.244L163.518 261.246C163.509 262.122 163.151 262.959 162.521 263.575C161.892 264.191 161.042 264.536 160.156 264.536Z" fill="#FFBE9D"/>
<path d="M156.732 254.496C156.535 254.549 156.331 254.568 156.127 254.553C156.071 254.559 156.015 254.559 155.959 254.553C155.921 254.544 155.886 254.526 155.856 254.502C155.826 254.477 155.802 254.446 155.786 254.41C155.748 254.278 155.759 254.137 155.815 254.012C155.887 253.765 155.964 253.537 156.041 253.247C156.215 252.585 156.453 251.942 156.751 251.325C156.647 252.001 156.477 252.666 156.242 253.309C156.156 253.57 156.074 253.822 155.997 254.069C155.952 254.153 155.934 254.249 155.945 254.344C155.945 254.396 156.031 254.415 156.127 254.42C156.332 254.41 156.537 254.435 156.732 254.496V254.496Z" fill="#263238"/>
<path d="M157.956 254.829C158.326 254.582 156.934 255.451 156.18 255.46C156.317 255.644 156.513 255.777 156.737 255.836C156.96 255.896 157.197 255.879 157.409 255.788C158.192 255.446 157.956 254.829 157.956 254.829Z" fill="white"/>
<path d="M156.795 258.983C158.033 258.929 159.226 258.513 160.224 257.786C160.224 257.786 159.518 259.742 156.829 259.685L156.795 258.983Z" fill="#EB996E"/>
<path d="M162.932 251.168C162.984 251.168 164.627 250.94 164.473 252.858C164.319 254.776 162.408 253.988 162.408 253.931C162.408 253.874 162.932 251.168 162.932 251.168Z" fill="#FFBE9D"/>
<path d="M163.037 253.304C163.037 253.304 163.071 253.333 163.124 253.361C163.162 253.383 163.204 253.396 163.248 253.401C163.292 253.406 163.336 253.402 163.378 253.39C163.509 253.32 163.619 253.218 163.698 253.093C163.776 252.968 163.82 252.825 163.825 252.678C163.841 252.517 163.821 252.355 163.767 252.203C163.753 252.142 163.725 252.086 163.685 252.038C163.645 251.99 163.594 251.952 163.537 251.928C163.498 251.914 163.456 251.915 163.417 251.928C163.379 251.942 163.346 251.969 163.325 252.004C163.296 252.056 163.325 252.094 163.296 252.099C163.268 252.103 163.258 252.061 163.296 251.985C163.312 251.939 163.343 251.899 163.383 251.871C163.44 251.836 163.508 251.822 163.575 251.833C163.654 251.855 163.726 251.897 163.784 251.954C163.842 252.011 163.884 252.082 163.906 252.16C163.973 252.334 163.998 252.521 163.978 252.706C163.974 252.878 163.918 253.044 163.818 253.184C163.718 253.325 163.578 253.432 163.416 253.494C163.364 253.506 163.309 253.505 163.256 253.491C163.204 253.478 163.155 253.453 163.114 253.418C163.037 253.352 163.037 253.309 163.037 253.304Z" fill="#EB996E"/>
<path d="M153.996 247.532C153.668 247.436 153.382 247.235 153.183 246.961C152.983 246.687 152.88 246.355 152.891 246.018C152.919 245.681 153.037 245.359 153.233 245.083C153.429 244.806 153.695 244.587 154.006 244.446C154.32 244.315 154.659 244.251 155.001 244.256C155.342 244.262 155.679 244.338 155.989 244.48C156.085 243.986 156.355 243.543 156.752 243.228C157.148 242.914 157.645 242.749 158.153 242.763C158.661 242.778 159.147 242.97 159.525 243.306C159.903 243.642 160.147 244.1 160.215 244.598C160.282 244.085 160.863 243.801 161.387 243.767C161.646 243.742 161.907 243.775 162.152 243.864C162.396 243.953 162.617 244.095 162.798 244.28C162.972 244.472 163.069 244.72 163.069 244.978C163.069 245.236 162.972 245.484 162.798 245.676C163.383 245.597 163.975 245.738 164.46 246.07C164.698 246.236 164.891 246.459 165.02 246.717C165.149 246.976 165.211 247.263 165.199 247.551C165.178 247.84 165.066 248.115 164.878 248.337C164.69 248.56 164.436 248.718 164.153 248.79C163.956 248.828 163.72 248.837 163.615 249.008C163.566 249.107 163.548 249.218 163.562 249.326L163.62 251.225C163.44 251.162 163.243 251.169 163.069 251.245C162.895 251.321 162.757 251.46 162.683 251.634C162.552 251.989 162.515 252.371 162.577 252.744C162.414 252.986 161.996 252.915 161.819 252.683C161.664 252.429 161.595 252.133 161.622 251.838C161.622 250.817 161.622 249.796 161.583 248.776C161.431 248.86 161.259 248.905 161.084 248.905C160.909 248.905 160.737 248.861 160.584 248.777C160.432 248.692 160.303 248.571 160.212 248.424C160.12 248.276 160.068 248.108 160.061 247.935C159.842 248.144 159.579 248.301 159.291 248.397C159.002 248.492 158.696 248.522 158.395 248.486C158.093 248.45 157.803 248.347 157.547 248.186C157.29 248.025 157.073 247.81 156.911 247.556C156.601 247.82 156.259 248.044 155.893 248.225C155.523 248.406 155.097 248.442 154.702 248.325C154.507 248.263 154.336 248.144 154.212 247.984C154.087 247.823 154.015 247.629 154.006 247.428L154.145 247.314" fill="#263238"/>
<path d="M154.695 251.392C154.694 251.436 154.702 251.481 154.718 251.523C154.734 251.565 154.759 251.603 154.79 251.636C154.821 251.669 154.859 251.695 154.9 251.713C154.941 251.732 154.986 251.742 155.032 251.743C155.125 251.743 155.214 251.706 155.279 251.641C155.345 251.576 155.382 251.488 155.382 251.396C155.382 251.304 155.345 251.216 155.279 251.151C155.214 251.086 155.125 251.05 155.032 251.05C154.942 251.053 154.857 251.091 154.795 251.154C154.732 251.218 154.697 251.303 154.695 251.392V251.392Z" fill="#263238"/>
<path d="M154.134 251.03C154.177 251.078 154.432 250.864 154.801 250.85C155.171 250.836 155.445 251.021 155.483 250.973C155.522 250.926 155.459 250.864 155.339 250.779C155.179 250.669 154.987 250.614 154.792 250.622C154.598 250.632 154.413 250.704 154.264 250.826C154.148 250.902 154.115 250.987 154.134 251.03Z" fill="#263238"/>
<path d="M158.715 251.392C158.714 251.482 158.748 251.569 158.811 251.635C158.874 251.7 158.96 251.739 159.051 251.743C159.097 251.744 159.142 251.735 159.185 251.718C159.227 251.701 159.266 251.676 159.299 251.644C159.331 251.613 159.357 251.575 159.375 251.533C159.392 251.491 159.402 251.446 159.402 251.401C159.403 251.311 159.369 251.224 159.306 251.158C159.243 251.092 159.157 251.054 159.065 251.05C158.974 251.051 158.886 251.087 158.821 251.151C158.755 251.215 158.717 251.301 158.715 251.392V251.392Z" fill="#263238"/>
<path d="M158.235 251.078C158.278 251.125 158.533 250.912 158.903 250.898C159.272 250.883 159.541 251.068 159.584 251.016C159.628 250.964 159.556 250.912 159.436 250.826C159.277 250.716 159.086 250.661 158.893 250.67C158.697 250.678 158.51 250.75 158.36 250.874C158.235 250.969 158.192 251.059 158.235 251.078Z" fill="#263238"/>
</svg>
