<svg width="424" height="522" viewBox="0 0 424 522" fill="none" xmlns="http://www.w3.org/2000/svg">
<path opacity="0.8" d="M4.15039 0V382.053C4.15039 382.053 36.3855 450.788 119.262 442.811C202.139 434.835 219.328 391.876 319.393 471.049C319.393 471.049 354.694 504.185 419.15 502.967V0H4.15039Z" fill="#4382EE"/>
<path opacity="0.7" d="M397.554 505.528C345.909 502.964 316.446 478.471 316.132 478.19C257.241 428.763 219.289 435.748 166.774 445.434C152.846 448.002 138.428 450.659 122.039 452.676C41.9393 462.546 4.48058 414.935 4.10938 414.5L4.10938 403C4.46814 403.422 42.543 461.199 121.853 451.428C138.215 449.411 152.593 446.764 166.508 444.195C219.393 434.452 257.596 427.416 316.978 477.247C317.342 477.555 357.224 507.48 419.109 504.5L419.109 505.5C413.032 505.805 403.131 505.805 397.554 505.528Z" fill="#699BF1"/>
<path opacity="0.7" d="M397.878 511.251C346.562 508.704 317.161 486.908 316.848 486.658C258.078 442.676 220.417 448.638 168.303 456.906C154.482 459.098 140.175 461.366 123.906 463.058C44.3926 471.338 4.47621 434.012 4.10509 433.626L4.11133 429C4.47002 429.375 44.9849 470.151 123.714 461.955C139.956 460.262 154.224 458.003 168.032 455.81C220.512 447.494 258.423 441.488 317.683 485.829C318.047 486.104 357.57 512.438 419.028 510.145L419.026 511.687C412.99 511.923 403.42 511.526 397.878 511.251Z" fill="#699BF1"/>
<path opacity="0.7" d="M398.001 520.053C346.673 517.505 317.204 496.921 316.89 496.685C257.984 455.152 220.337 460.646 168.243 468.266C154.427 470.287 140.125 472.377 123.86 473.919C44.3637 481.469 4.42699 444.865 4.05469 444.5L4.05469 441C4.41453 441.354 44.9525 480.355 123.664 472.882C139.904 471.338 154.165 469.256 167.969 467.235C220.429 459.571 258.326 454.036 317.723 495.908C318.087 496.168 357.597 520.974 419.053 519L419.053 520.053C413.017 520.257 403.544 520.328 398.001 520.053Z" fill="#699BF1"/>
<path d="M202.948 387.913C263.762 387.913 313.062 380.865 313.062 372.171C313.062 363.476 263.762 356.428 202.948 356.428C142.134 356.428 92.834 363.476 92.834 372.171C92.834 380.865 142.134 387.913 202.948 387.913Z" fill="#F5F5F5"/>
<path d="M249.97 266.699L242.414 273.504L248.756 280.3L249.97 266.699Z" fill="#407BFF"/>
<path opacity="0.7" d="M249.97 266.699L242.414 273.504L248.756 280.3L249.97 266.699Z" fill="white"/>
<path d="M291.187 293.149H248.296C248.108 293.152 247.921 293.116 247.748 293.043C247.575 292.97 247.42 292.861 247.293 292.725C247.166 292.588 247.071 292.427 247.012 292.251C246.954 292.075 246.935 291.89 246.955 291.706L249.46 263.611C249.496 263.216 249.682 262.849 249.981 262.582C250.281 262.314 250.671 262.167 251.076 262.169H293.958C294.146 262.165 294.333 262.201 294.506 262.274C294.679 262.348 294.834 262.456 294.961 262.592C295.088 262.729 295.184 262.89 295.242 263.066C295.3 263.242 295.32 263.428 295.299 263.611L292.795 291.706C292.758 292.1 292.573 292.466 292.276 292.733C291.978 293 291.59 293.148 291.187 293.149V293.149Z" fill="#407BFF"/>
<path opacity="0.7" d="M291.187 293.149H248.296C248.108 293.152 247.921 293.116 247.748 293.043C247.575 292.97 247.42 292.861 247.293 292.725C247.166 292.588 247.071 292.427 247.012 292.251C246.954 292.075 246.935 291.89 246.955 291.706L249.46 263.611C249.496 263.216 249.682 262.849 249.981 262.582C250.281 262.314 250.671 262.167 251.076 262.169H293.958C294.146 262.165 294.333 262.201 294.506 262.274C294.679 262.348 294.834 262.456 294.961 262.592C295.088 262.729 295.184 262.89 295.242 263.066C295.3 263.242 295.32 263.428 295.299 263.611L292.795 291.706C292.758 292.1 292.573 292.466 292.276 292.733C291.978 293 291.59 293.148 291.187 293.149V293.149Z" fill="white"/>
<path d="M252.008 265.909L249.976 289.406C249.957 289.595 249.977 289.785 250.036 289.964C250.094 290.144 250.19 290.309 250.316 290.448C250.443 290.588 250.597 290.698 250.768 290.773C250.94 290.848 251.125 290.884 251.312 290.881H288.643C289.043 290.883 289.43 290.732 289.726 290.459C290.023 290.186 290.207 289.81 290.243 289.406L292.276 265.909C292.296 265.722 292.277 265.532 292.219 265.352C292.161 265.173 292.067 265.007 291.941 264.868C291.815 264.728 291.661 264.618 291.49 264.543C291.319 264.468 291.134 264.431 290.947 264.435H253.593C253.195 264.437 252.812 264.59 252.519 264.862C252.226 265.135 252.044 265.508 252.008 265.909Z" fill="#407BFF"/>
<path opacity="0.4" d="M252.008 265.909L249.976 289.406C249.957 289.595 249.977 289.785 250.036 289.964C250.094 290.144 250.19 290.309 250.316 290.448C250.443 290.588 250.597 290.698 250.768 290.773C250.94 290.848 251.125 290.884 251.312 290.881H288.643C289.043 290.883 289.43 290.732 289.726 290.459C290.023 290.186 290.207 289.81 290.243 289.406L292.276 265.909C292.296 265.722 292.277 265.532 292.219 265.352C292.161 265.173 292.067 265.007 291.941 264.868C291.815 264.728 291.661 264.618 291.49 264.543C291.319 264.468 291.134 264.431 290.947 264.435H253.593C253.195 264.437 252.812 264.59 252.519 264.862C252.226 265.135 252.044 265.508 252.008 265.909Z" fill="white"/>
<path d="M285.079 180.559H233.448C233.223 180.56 233 180.513 232.793 180.421C232.587 180.329 232.402 180.193 232.25 180.024C232.099 179.854 231.985 179.654 231.915 179.437C231.845 179.22 231.821 178.99 231.845 178.763L234.859 143.818C234.908 143.332 235.131 142.881 235.485 142.55C235.84 142.219 236.302 142.031 236.783 142.022H288.406C288.632 142.021 288.855 142.068 289.062 142.16C289.268 142.252 289.453 142.387 289.604 142.557C289.756 142.726 289.87 142.926 289.94 143.143C290.01 143.361 290.034 143.591 290.01 143.818L286.995 178.763C286.945 179.247 286.723 179.695 286.371 180.026C286.018 180.356 285.559 180.546 285.079 180.559V180.559Z" fill="#407BFF"/>
<path d="M92.2221 287.856H157.264C157.548 287.858 157.829 287.797 158.089 287.678C158.349 287.559 158.582 287.384 158.773 287.164C158.963 286.945 159.107 286.686 159.195 286.405C159.284 286.124 159.314 285.826 159.284 285.532L155.486 240.31C155.425 239.681 155.144 239.097 154.698 238.669C154.251 238.241 153.669 237.998 153.062 237.985H88.0307C87.7466 237.984 87.4654 238.045 87.2054 238.164C86.9454 238.283 86.7125 238.458 86.5219 238.677C86.3313 238.897 86.1872 239.155 86.0991 239.437C86.0111 239.718 85.981 240.015 86.0108 240.31L89.8083 285.532C89.8717 286.158 90.1515 286.739 90.5955 287.167C91.0395 287.594 91.6175 287.839 92.2221 287.856V287.856Z" fill="#407BFF"/>
<path opacity="0.7" d="M285.079 180.559H233.448C233.223 180.56 233 180.513 232.793 180.421C232.587 180.329 232.402 180.193 232.25 180.024C232.099 179.854 231.985 179.654 231.915 179.437C231.845 179.22 231.821 178.99 231.845 178.763L234.859 143.818C234.908 143.332 235.131 142.881 235.485 142.55C235.84 142.219 236.302 142.031 236.783 142.022H288.406C288.632 142.021 288.855 142.068 289.062 142.16C289.268 142.252 289.453 142.387 289.604 142.557C289.756 142.726 289.87 142.926 289.94 143.143C290.01 143.361 290.034 143.591 290.01 143.818L286.995 178.763C286.945 179.247 286.723 179.695 286.371 180.026C286.018 180.356 285.559 180.546 285.079 180.559V180.559Z" fill="white"/>
<path opacity="0.7" d="M92.2221 287.856H157.264C157.548 287.858 157.829 287.797 158.089 287.678C158.349 287.559 158.582 287.384 158.773 287.164C158.963 286.945 159.107 286.686 159.195 286.405C159.284 286.124 159.314 285.826 159.284 285.532L155.486 240.31C155.425 239.681 155.144 239.097 154.698 238.669C154.251 238.241 153.669 237.998 153.062 237.985H88.0307C87.7466 237.984 87.4654 238.045 87.2054 238.164C86.9454 238.283 86.7125 238.458 86.5219 238.677C86.3313 238.897 86.1872 239.155 86.0991 239.437C86.0111 239.718 85.981 240.015 86.0108 240.31L89.8083 285.532C89.8717 286.158 90.1515 286.739 90.5955 287.167C91.0395 287.594 91.6175 287.839 92.2221 287.856V287.856Z" fill="white"/>
<path d="M237.327 147.564L234.866 175.766C234.843 175.99 234.867 176.217 234.936 176.431C235.006 176.645 235.121 176.843 235.272 177.01C235.423 177.177 235.608 177.31 235.814 177.401C236.021 177.492 236.244 177.538 236.469 177.537H281.839C282.321 177.528 282.782 177.343 283.137 177.016C283.491 176.69 283.714 176.245 283.763 175.766L286.232 147.564C286.254 147.341 286.229 147.115 286.159 146.901C286.088 146.688 285.974 146.492 285.823 146.326C285.672 146.159 285.487 146.027 285.281 145.936C285.076 145.846 284.853 145.8 284.628 145.801H239.259C238.777 145.808 238.314 145.991 237.959 146.316C237.603 146.641 237.378 147.085 237.327 147.564V147.564Z" fill="#407BFF"/>
<path d="M150.919 244.073L153.995 281.004C154.024 281.298 153.995 281.594 153.907 281.875C153.82 282.156 153.677 282.414 153.488 282.633C153.299 282.852 153.068 283.026 152.81 283.145C152.552 283.264 152.273 283.325 151.991 283.323H95.2789C94.6768 283.311 94.0997 283.069 93.6566 282.641C93.2136 282.214 92.9353 281.632 92.8742 281.004L89.7881 244.073C89.76 243.78 89.791 243.485 89.879 243.205C89.9671 242.926 90.1102 242.669 90.2992 242.451C90.4881 242.233 90.7187 242.06 90.9759 241.941C91.2331 241.823 91.5111 241.763 91.792 241.764H148.504C149.106 241.773 149.685 242.013 150.129 242.439C150.574 242.864 150.855 243.446 150.919 244.073V244.073Z" fill="#407BFF"/>
<path opacity="0.4" d="M237.327 147.564L234.866 175.766C234.843 175.99 234.867 176.217 234.936 176.431C235.006 176.645 235.121 176.843 235.272 177.01C235.423 177.177 235.608 177.31 235.814 177.401C236.021 177.492 236.244 177.538 236.469 177.537H281.839C282.321 177.528 282.782 177.343 283.137 177.016C283.491 176.69 283.714 176.245 283.763 175.766L286.232 147.564C286.254 147.341 286.229 147.115 286.159 146.901C286.088 146.688 285.974 146.492 285.823 146.326C285.672 146.159 285.487 146.027 285.281 145.936C285.076 145.846 284.853 145.8 284.628 145.801H239.259C238.777 145.808 238.314 145.991 237.959 146.316C237.603 146.641 237.378 147.085 237.327 147.564V147.564Z" fill="white"/>
<path opacity="0.4" d="M150.919 244.073L153.995 281.004C154.024 281.298 153.995 281.594 153.907 281.875C153.82 282.156 153.677 282.414 153.488 282.633C153.299 282.852 153.068 283.026 152.81 283.145C152.552 283.264 152.273 283.325 151.991 283.323H95.2789C94.6768 283.311 94.0997 283.069 93.6566 282.641C93.2136 282.214 92.9353 281.632 92.8742 281.004L89.7881 244.073C89.76 243.78 89.791 243.485 89.879 243.205C89.9671 242.926 90.1102 242.669 90.2992 242.451C90.4881 242.233 90.7187 242.06 90.9759 241.941C91.2331 241.823 91.5111 241.763 91.792 241.764H148.504C149.106 241.773 149.685 242.013 150.129 242.439C150.574 242.864 150.855 243.446 150.919 244.073V244.073Z" fill="white"/>
<path d="M263.132 151.299L263.619 145.801H261.729L261.195 151.988L256.794 167.816H245.798L248.262 154.633L251.395 145.801H249.434L246.444 154.216L243.741 168.609L240.902 177.537H242.856L245.336 169.723H256.259L254.091 177.537H256.02L260.174 162.599H272.366L268.762 177.537H270.683L274.335 162.398L285.347 159.666L285.474 158.191L273.474 161.164H260.573L262.917 152.741L276.105 151.836L286.112 150.858L286.24 149.423L276.105 150.409L263.132 151.299Z" fill="white"/>
<path d="M119.803 248.964L119.187 241.764H121.58L122.257 249.866L127.832 270.593H141.76L138.639 253.329L134.67 241.764H137.154L140.942 252.784L144.365 271.632L147.961 283.323H145.486L142.345 273.091H128.509L131.256 283.323H128.812L123.55 263.761H108.107L112.672 283.323H110.238L105.613 263.499L91.6649 259.92L91.5033 257.989L106.703 261.883H123.045L120.075 250.853L103.371 249.667L90.6953 248.386L90.5337 246.508L103.371 247.799L119.803 248.964Z" fill="white"/>
<path d="M268.862 154.112H266.59L264.326 156.504V159.401H271.127V156.504L268.862 154.112Z" fill="#407BFF"/>
<path d="M112.444 252.344H115.473L118.492 255.42V259.144H109.425V255.42L112.444 252.344Z" fill="#407BFF"/>
<path opacity="0.3" d="M268.862 154.112H266.59L264.326 156.504V159.401H271.127V156.504L268.862 154.112Z" fill="black"/>
<path opacity="0.3" d="M112.444 252.344H115.473L118.492 255.42V259.144H109.425V255.42L112.444 252.344Z" fill="black"/>
<path d="M264.326 156.504L266.589 154.112L268.86 156.504V159.401H264.326V156.504Z" fill="#407BFF"/>
<path d="M118.492 255.42L115.475 252.344L112.447 255.42V259.144H118.492V255.42Z" fill="#407BFF"/>
<path d="M267.728 139C266.225 139 264.783 139.57 263.72 140.586C262.658 141.601 262.061 142.978 262.061 144.414C262.061 147.398 267.728 153.357 267.728 153.357C267.728 153.357 273.395 147.406 273.395 144.414C273.395 143.703 273.248 142.999 272.963 142.342C272.679 141.685 272.261 141.089 271.735 140.586C271.209 140.083 270.584 139.684 269.896 139.412C269.209 139.14 268.472 139 267.728 139ZM267.728 146.666C267.259 146.666 266.802 146.533 266.413 146.285C266.023 146.036 265.72 145.683 265.541 145.269C265.363 144.856 265.316 144.401 265.408 143.962C265.5 143.524 265.726 143.121 266.058 142.805C266.39 142.489 266.812 142.275 267.271 142.189C267.731 142.102 268.207 142.148 268.639 142.321C269.071 142.493 269.44 142.784 269.699 143.156C269.958 143.529 270.095 143.967 270.093 144.414C270.093 144.711 270.032 145.004 269.913 145.278C269.794 145.552 269.62 145.8 269.4 146.009C269.18 146.219 268.919 146.384 268.632 146.497C268.345 146.61 268.038 146.667 267.728 146.666V146.666Z" fill="#407BFF"/>
<path d="M113.957 232.699C115.761 232.699 117.491 233.449 118.766 234.785C120.041 236.121 120.758 237.933 120.758 239.823C120.758 243.749 113.957 251.589 113.957 251.589C113.957 251.589 107.157 243.759 107.157 239.823C107.157 238.887 107.333 237.961 107.674 237.097C108.016 236.232 108.517 235.447 109.148 234.785C109.78 234.124 110.53 233.599 111.355 233.241C112.18 232.883 113.064 232.699 113.957 232.699ZM113.957 242.786C114.519 242.786 115.068 242.611 115.535 242.284C116.002 241.957 116.366 241.492 116.581 240.948C116.795 240.404 116.851 239.805 116.741 239.228C116.63 238.651 116.359 238.121 115.961 237.706C115.563 237.29 115.056 237.008 114.505 236.894C113.953 236.781 113.382 236.841 112.864 237.068C112.345 237.295 111.903 237.677 111.592 238.168C111.281 238.658 111.117 239.234 111.119 239.823C111.119 240.213 111.192 240.599 111.335 240.959C111.478 241.319 111.687 241.646 111.951 241.922C112.214 242.197 112.527 242.415 112.872 242.563C113.216 242.712 113.585 242.787 113.957 242.786V242.786Z" fill="#407BFF"/>
<path d="M234.101 160.157L227.301 166.58L233.001 173.002L234.101 160.157Z" fill="#407BFF"/>
<path d="M155.518 261.41L164.586 269.722L156.986 278.034L155.518 261.41Z" fill="#407BFF"/>
<path opacity="0.7" d="M234.101 160.157L227.301 166.58L233.001 173.002L234.101 160.157Z" fill="white"/>
<path opacity="0.7" d="M155.518 261.41L164.586 269.722L156.986 278.034L155.518 261.41Z" fill="white"/>
<path d="M157.877 200.961H111.795C111.569 200.963 111.345 200.916 111.139 200.824C110.932 200.733 110.747 200.599 110.595 200.43C110.443 200.262 110.329 200.064 110.259 199.848C110.189 199.632 110.165 199.404 110.189 199.178L114.204 152.874C114.251 152.391 114.474 151.942 114.829 151.613C115.185 151.284 115.648 151.098 116.132 151.09H162.214C162.44 151.089 162.663 151.136 162.87 151.227C163.077 151.319 163.262 151.453 163.414 151.621C163.565 151.79 163.68 151.988 163.75 152.204C163.82 152.42 163.844 152.648 163.82 152.874L159.804 199.178C159.754 199.66 159.53 200.107 159.175 200.435C158.821 200.763 158.359 200.95 157.877 200.961V200.961Z" fill="#407BFF"/>
<path opacity="0.7" d="M157.877 200.961H111.795C111.569 200.963 111.345 200.916 111.139 200.824C110.932 200.733 110.747 200.599 110.595 200.43C110.443 200.262 110.329 200.064 110.259 199.848C110.189 199.632 110.165 199.404 110.189 199.178L114.204 152.874C114.251 152.391 114.474 151.942 114.829 151.613C115.185 151.284 115.648 151.098 116.132 151.09H162.214C162.44 151.089 162.663 151.136 162.87 151.227C163.077 151.319 163.262 151.453 163.414 151.621C163.565 151.79 163.68 151.988 163.75 152.204C163.82 152.42 163.844 152.648 163.82 152.874L159.804 199.178C159.754 199.66 159.53 200.107 159.175 200.435C158.821 200.763 158.359 200.95 157.877 200.961V200.961Z" fill="white"/>
<path d="M116.743 155.886L113.21 196.164C113.186 196.388 113.21 196.615 113.281 196.83C113.351 197.045 113.466 197.242 113.618 197.41C113.77 197.577 113.956 197.711 114.164 197.802C114.372 197.893 114.596 197.939 114.823 197.938H155.28C155.766 197.931 156.232 197.746 156.591 197.419C156.949 197.092 157.174 196.645 157.223 196.164L160.796 155.886C160.82 155.661 160.796 155.434 160.726 155.22C160.656 155.005 160.541 154.808 160.388 154.64C160.236 154.473 160.05 154.339 159.842 154.248C159.635 154.157 159.41 154.111 159.183 154.112H118.678C118.193 154.119 117.728 154.304 117.371 154.632C117.014 154.959 116.79 155.405 116.743 155.886Z" fill="#407BFF"/>
<path opacity="0.2" d="M116.743 155.886L113.21 196.164C113.186 196.388 113.21 196.615 113.281 196.83C113.351 197.045 113.466 197.242 113.618 197.41C113.77 197.577 113.956 197.711 114.164 197.802C114.372 197.893 114.596 197.939 114.823 197.938H155.28C155.766 197.931 156.232 197.746 156.591 197.419C156.949 197.092 157.174 196.645 157.223 196.164L160.796 155.886C160.82 155.661 160.796 155.434 160.726 155.22C160.656 155.005 160.541 154.808 160.388 154.64C160.236 154.473 160.05 154.339 159.842 154.248C159.635 154.157 159.41 154.111 159.183 154.112H118.678C118.193 154.119 117.728 154.304 117.371 154.632C117.014 154.959 116.79 155.405 116.743 155.886Z" fill="white"/>
<path d="M157.028 185.469L152.496 159.403L150.056 159.669L146.449 186.605L157.028 185.469Z" fill="#407BFF"/>
<path opacity="0.3" d="M157.028 185.469L152.496 159.403L150.056 159.669L146.449 186.605L157.028 185.469Z" fill="black"/>
<path d="M148.748 186.091L114.713 189.628L118.459 162.939L152.494 159.403L148.748 186.091Z" fill="#407BFF"/>
<path opacity="0.9" d="M148.748 186.091L114.713 189.628L118.459 162.939L152.494 159.403L148.748 186.091Z" fill="white"/>
<path d="M139.25 168.096L120.002 169.981L120.392 167.333L139.648 165.448L139.25 168.096Z" fill="#407BFF"/>
<path d="M121.801 180.965L118.492 181.315L118.962 177.895L122.27 177.537L121.801 180.965Z" fill="#407BFF"/>
<path d="M121.052 186.248L117.736 186.605L118.199 183.185L121.514 182.827L121.052 186.248Z" fill="#407BFF"/>
<path opacity="0.3" d="M121.801 180.965L118.492 181.315L118.962 177.895L122.27 177.537L121.801 180.965Z" fill="white"/>
<path opacity="0.3" d="M121.052 186.248L117.736 186.605L118.199 183.185L121.514 182.827L121.052 186.248Z" fill="white"/>
<path d="M122.563 175.676L119.248 176.026L119.711 172.605L123.026 172.248L122.563 175.676Z" fill="#407BFF"/>
<path d="M127.758 175.668L123.779 176.026L124.335 172.605L128.313 172.248L127.758 175.668Z" fill="#407BFF"/>
<path opacity="0.7" d="M122.563 175.676L119.248 176.026L119.711 172.605L123.026 172.248L122.563 175.676Z" fill="white"/>
<path opacity="0.7" d="M127.758 175.668L123.779 176.026L124.335 172.605L128.313 172.248L127.758 175.668Z" fill="white"/>
<path d="M127.088 180.202L123.779 180.559L124.249 177.131L127.557 176.781L127.088 180.202Z" fill="#407BFF"/>
<path d="M126.343 185.497L123.027 185.848L123.49 182.42L126.805 182.07L126.343 185.497Z" fill="#407BFF"/>
<path d="M132.379 174.912L129.07 175.269L129.54 171.841L132.848 171.491L132.379 174.912Z" fill="#407BFF"/>
<path d="M131.632 180.209L128.316 180.559L128.779 177.132L132.095 176.781L131.632 180.209Z" fill="#407BFF"/>
<path d="M130.867 184.743L127.559 185.093L128.028 181.673L131.337 181.315L130.867 184.743Z" fill="#407BFF"/>
<path d="M137.574 174.164L133.604 174.514L134.167 171.093L138.137 170.736L137.574 174.164Z" fill="#407BFF"/>
<path d="M136.828 179.445L132.85 179.803L133.414 176.382L137.383 176.025L136.828 179.445Z" fill="#407BFF"/>
<path d="M136.165 184.735L132.85 185.093L133.312 181.673L136.628 181.315L136.165 184.735Z" fill="#407BFF"/>
<path d="M142.21 174.156L138.895 174.514L139.357 171.093L142.673 170.736L142.21 174.156Z" fill="#407BFF"/>
<path d="M141.445 178.691L138.137 179.049L138.606 175.62L141.915 175.271L141.445 178.691Z" fill="#407BFF"/>
<path d="M140.698 183.987L137.383 184.338L137.846 180.91L141.161 180.56L140.698 183.987Z" fill="#407BFF"/>
<path opacity="0.3" d="M127.088 180.202L123.779 180.559L124.249 177.131L127.557 176.781L127.088 180.202Z" fill="white"/>
<path opacity="0.3" d="M126.343 185.497L123.027 185.848L123.49 182.42L126.805 182.07L126.343 185.497Z" fill="white"/>
<path opacity="0.3" d="M132.379 174.912L129.07 175.269L129.54 171.841L132.848 171.491L132.379 174.912Z" fill="white"/>
<path opacity="0.3" d="M131.632 180.209L128.316 180.559L128.779 177.132L132.095 176.781L131.632 180.209Z" fill="white"/>
<path opacity="0.3" d="M130.867 184.743L127.559 185.093L128.028 181.673L131.337 181.315L130.867 184.743Z" fill="white"/>
<path opacity="0.3" d="M137.574 174.164L133.604 174.514L134.167 171.093L138.137 170.736L137.574 174.164Z" fill="white"/>
<path opacity="0.3" d="M136.828 179.445L132.85 179.803L133.414 176.382L137.383 176.025L136.828 179.445Z" fill="white"/>
<path opacity="0.3" d="M142.21 174.156L138.895 174.514L139.357 171.093L142.673 170.736L142.21 174.156Z" fill="white"/>
<path opacity="0.3" d="M141.445 178.691L138.137 179.049L138.606 175.62L141.915 175.271L141.445 178.691Z" fill="white"/>
<path opacity="0.3" d="M140.698 183.987L137.383 184.338L137.846 180.91L141.161 180.56L140.698 183.987Z" fill="white"/>
<path d="M147.406 173.409L143.428 173.76L143.992 170.332L147.961 169.981L147.406 173.409Z" fill="#407BFF"/>
<path d="M146.642 178.698L142.672 179.049L143.235 175.621L147.206 175.271L146.642 178.698Z" fill="#407BFF"/>
<path opacity="0.2" d="M147.406 173.409L143.428 173.76L143.992 170.332L147.961 169.981L147.406 173.409Z" fill="black"/>
<path opacity="0.2" d="M146.642 178.698L142.672 179.049L143.235 175.621L147.206 175.271L146.642 178.698Z" fill="black"/>
<path d="M145.886 183.231L141.916 183.58L142.479 180.16L146.45 179.802L145.886 183.231Z" fill="#407BFF"/>
<path opacity="0.7" d="M145.886 183.231L141.916 183.58L142.479 180.16L146.45 179.802L145.886 183.231Z" fill="white"/>
<path d="M255.098 269.644C254.333 269.644 253.34 270.582 253.34 271.528V281.689L257.351 282.256C257.999 281.144 259.217 280.388 260.6 280.388C262.205 280.388 263.581 281.394 264.108 282.809H278.491C279.018 281.394 280.394 280.388 281.999 280.388C283.603 280.388 284.979 281.394 285.506 282.809H288.8V276.968L286.393 269.644H255.098ZM254.41 270.703H285.407L287.363 276.907H274.127V281.75H266.637V276.907H254.41V270.703ZM255.785 272.065V275.545H260.524V272.065H255.785ZM261.899 272.065V275.545H266.637V272.065H261.899ZM268.013 272.065V280.388H269.694V272.065H268.013ZM271.07 272.065V280.388H272.751V272.065H271.07ZM274.127 272.065V275.545H278.865V272.065H274.127ZM280.745 272.065V275.545H285.499L284.398 272.065H280.745ZM260.6 281.75C259.286 281.75 258.231 282.794 258.231 284.095C258.231 285.396 259.286 286.441 260.6 286.441C261.915 286.441 262.969 285.396 262.969 284.095C262.969 282.794 261.915 281.75 260.6 281.75ZM281.999 281.75C280.684 281.75 279.629 282.794 279.629 284.095C279.629 285.396 280.684 286.441 281.999 286.441C283.313 286.441 284.368 285.396 284.368 284.095C284.368 282.794 283.313 281.75 281.999 281.75ZM260.6 283.49C260.762 283.49 260.918 283.554 261.032 283.667C261.147 283.781 261.211 283.935 261.211 284.095C261.211 284.256 261.147 284.41 261.032 284.523C260.918 284.637 260.762 284.7 260.6 284.7C260.438 284.7 260.282 284.637 260.168 284.523C260.053 284.41 259.989 284.256 259.989 284.095C259.989 283.935 260.053 283.781 260.168 283.667C260.282 283.554 260.438 283.49 260.6 283.49ZM281.999 283.49C282.161 283.49 282.316 283.554 282.431 283.667C282.546 283.781 282.61 283.935 282.61 284.095C282.61 284.256 282.546 284.41 282.431 284.523C282.316 284.637 282.161 284.7 281.999 284.7C281.836 284.7 281.681 284.637 281.566 284.523C281.452 284.41 281.387 284.256 281.387 284.095C281.387 283.935 281.452 283.781 281.566 283.667C281.681 283.554 281.836 283.49 281.999 283.49Z" fill="white"/>
<path d="M121.522 163.931C121.427 163.942 121.33 163.933 121.238 163.904C121.146 163.875 121.061 163.826 120.989 163.76C120.917 163.695 120.859 163.615 120.819 163.525C120.779 163.436 120.758 163.338 120.758 163.24V161.766C120.759 161.555 120.836 161.352 120.973 161.196C121.111 161.04 121.3 160.941 121.504 160.918V160.918C121.6 160.906 121.697 160.915 121.789 160.945C121.881 160.974 121.966 161.023 122.038 161.088C122.11 161.153 122.168 161.234 122.208 161.323C122.248 161.413 122.268 161.51 122.269 161.609V163.083C122.268 163.294 122.191 163.496 122.054 163.653C121.916 163.809 121.727 163.908 121.522 163.931Z" fill="#263238"/>
<path d="M287.401 254.713C288.762 254.713 290.067 255.269 291.03 256.259C291.992 257.249 292.533 258.592 292.533 259.992C292.533 262.901 287.401 268.71 287.401 268.71C287.401 268.71 282.268 262.909 282.268 259.992C282.268 259.298 282.401 258.612 282.659 257.972C282.917 257.331 283.295 256.749 283.772 256.259C284.248 255.769 284.814 255.38 285.437 255.115C286.059 254.849 286.727 254.713 287.401 254.713ZM287.401 262.187C287.825 262.187 288.239 262.058 288.592 261.815C288.944 261.573 289.219 261.228 289.381 260.825C289.543 260.422 289.585 259.979 289.501 259.551C289.418 259.123 289.213 258.731 288.913 258.423C288.613 258.115 288.23 257.906 287.814 257.822C287.398 257.738 286.967 257.782 286.576 257.95C286.184 258.118 285.85 258.402 285.616 258.765C285.381 259.129 285.257 259.556 285.258 259.992C285.258 260.281 285.314 260.567 285.422 260.834C285.529 261.101 285.687 261.343 285.886 261.547C286.085 261.751 286.322 261.913 286.582 262.022C286.841 262.132 287.12 262.188 287.401 262.187V262.187Z" fill="#407BFF"/>
<path d="M125.311 163.176C125.215 163.185 125.117 163.178 125.025 163.156C124.933 163.134 124.847 163.098 124.774 163.049C124.702 163 124.643 162.94 124.602 162.873C124.561 162.805 124.539 162.732 124.537 162.658V161.552C124.538 161.396 124.613 161.244 124.749 161.127C124.885 161.01 125.072 160.935 125.275 160.917V160.917C125.371 160.908 125.468 160.915 125.56 160.937C125.653 160.959 125.738 160.995 125.811 161.044C125.884 161.093 125.943 161.153 125.984 161.22C126.024 161.288 126.047 161.361 126.048 161.435V162.541C126.046 162.697 125.97 162.847 125.834 162.964C125.699 163.081 125.513 163.156 125.311 163.176V163.176Z" fill="#263238"/>
<path d="M129.081 163.174C128.985 163.186 128.889 163.177 128.797 163.148C128.705 163.118 128.62 163.069 128.548 163.004C128.476 162.939 128.418 162.859 128.378 162.769C128.338 162.679 128.317 162.582 128.316 162.483V161.009C128.317 160.799 128.394 160.596 128.532 160.44C128.67 160.283 128.859 160.184 129.063 160.162V160.162C129.159 160.15 129.256 160.159 129.347 160.188C129.439 160.218 129.524 160.267 129.596 160.332C129.669 160.397 129.726 160.477 129.766 160.567C129.806 160.657 129.827 160.754 129.828 160.853V162.327C129.814 162.533 129.733 162.729 129.598 162.883C129.462 163.037 129.28 163.14 129.081 163.174Z" fill="#263238"/>
<path d="M132.867 162.418C132.772 162.429 132.674 162.424 132.581 162.403C132.488 162.382 132.402 162.347 132.328 162.298C132.255 162.249 132.196 162.189 132.156 162.122C132.115 162.054 132.094 161.98 132.094 161.906V160.798C132.107 160.643 132.188 160.496 132.323 160.38C132.459 160.265 132.641 160.187 132.84 160.161C132.935 160.152 133.032 160.157 133.124 160.179C133.216 160.2 133.301 160.236 133.373 160.284C133.446 160.333 133.504 160.393 133.544 160.46C133.584 160.527 133.605 160.6 133.605 160.674V161.781C133.606 161.939 133.531 162.091 133.395 162.209C133.259 162.326 133.071 162.401 132.867 162.418Z" fill="#263238"/>
<path d="M136.636 162.419C136.541 162.432 136.444 162.424 136.352 162.396C136.26 162.368 136.175 162.32 136.103 162.255C136.03 162.19 135.972 162.111 135.932 162.021C135.892 161.932 135.872 161.834 135.871 161.736V160.258C135.872 160.049 135.947 159.847 136.083 159.69C136.219 159.534 136.406 159.434 136.609 159.409C136.704 159.396 136.801 159.404 136.894 159.432C136.986 159.46 137.072 159.508 137.145 159.573C137.218 159.637 137.277 159.717 137.318 159.806C137.359 159.896 137.381 159.993 137.382 160.092V161.57C137.379 161.78 137.302 161.982 137.165 162.139C137.027 162.295 136.839 162.395 136.636 162.419V162.419Z" fill="#263238"/>
<path d="M140.422 161.664C140.326 161.675 140.229 161.67 140.136 161.649C140.043 161.629 139.956 161.593 139.883 161.544C139.81 161.495 139.751 161.435 139.71 161.368C139.67 161.3 139.649 161.226 139.648 161.152V160.044C139.651 159.887 139.729 159.735 139.866 159.618C140.003 159.501 140.191 159.426 140.395 159.407V159.407C140.49 159.398 140.587 159.403 140.679 159.425C140.771 159.446 140.856 159.482 140.928 159.53C141 159.579 141.058 159.639 141.098 159.706C141.138 159.773 141.159 159.846 141.16 159.92V161.027C141.159 161.184 141.083 161.336 140.948 161.453C140.812 161.57 140.625 161.645 140.422 161.664V161.664Z" fill="#263238"/>
<path d="M144.201 161.661C144.106 161.674 144.009 161.667 143.916 161.638C143.824 161.61 143.738 161.562 143.665 161.498C143.592 161.433 143.533 161.354 143.492 161.264C143.451 161.174 143.429 161.077 143.428 160.978V159.501C143.427 159.29 143.501 159.087 143.638 158.93C143.774 158.773 143.962 158.674 144.165 158.651V158.651C144.261 158.638 144.358 158.646 144.45 158.674C144.543 158.702 144.628 158.75 144.701 158.815C144.774 158.879 144.833 158.959 144.874 159.049C144.915 159.138 144.937 159.236 144.939 159.334V160.812C144.938 161.021 144.863 161.224 144.727 161.38C144.591 161.537 144.404 161.637 144.201 161.661V161.661Z" fill="#263238"/>
<path d="M147.97 160.908C147.875 160.917 147.779 160.91 147.687 160.889C147.596 160.867 147.512 160.831 147.44 160.782C147.368 160.734 147.31 160.675 147.269 160.608C147.229 160.541 147.207 160.469 147.205 160.395V159.287C147.204 159.128 147.28 158.975 147.418 158.857C147.556 158.739 147.747 158.665 147.952 158.65V158.65C148.047 158.64 148.144 158.646 148.235 158.667C148.327 158.688 148.412 158.724 148.485 158.773C148.557 158.821 148.615 158.881 148.655 158.948C148.695 159.015 148.716 159.088 148.716 159.162V160.271C148.715 160.429 148.639 160.582 148.501 160.699C148.363 160.817 148.174 160.891 147.97 160.908V160.908Z" fill="#263238"/>
<g opacity="0.5">
<path d="M121.677 163.841C121.592 163.851 121.505 163.843 121.423 163.817C121.341 163.792 121.265 163.749 121.201 163.692C121.136 163.635 121.085 163.566 121.049 163.487C121.013 163.409 120.995 163.324 120.994 163.238V161.953C120.995 161.77 121.064 161.593 121.186 161.457C121.309 161.32 121.478 161.234 121.661 161.214V161.214C121.746 161.204 121.833 161.212 121.915 161.238C121.997 161.263 122.073 161.306 122.137 161.363C122.201 161.42 122.253 161.489 122.289 161.568C122.324 161.646 122.343 161.731 122.344 161.817V163.102C122.343 163.285 122.274 163.462 122.151 163.598C122.028 163.735 121.859 163.821 121.677 163.841Z" fill="white"/>
<path d="M125.468 163.448C125.382 163.458 125.295 163.45 125.213 163.424C125.13 163.399 125.054 163.356 124.989 163.299C124.924 163.243 124.872 163.173 124.835 163.095C124.799 163.017 124.779 162.932 124.777 162.845V161.56C124.778 161.378 124.845 161.202 124.967 161.066C125.088 160.93 125.255 160.843 125.436 160.821V160.821C125.522 160.811 125.609 160.819 125.691 160.845C125.774 160.87 125.85 160.913 125.915 160.969C125.98 161.026 126.032 161.096 126.069 161.174C126.105 161.252 126.125 161.337 126.127 161.424V162.709C126.124 162.89 126.056 163.065 125.935 163.201C125.814 163.337 125.648 163.424 125.468 163.448V163.448Z" fill="white"/>
<path d="M129.251 163.053C129.166 163.063 129.079 163.055 128.997 163.03C128.915 163.004 128.839 162.962 128.775 162.905C128.71 162.848 128.659 162.778 128.623 162.7C128.588 162.622 128.569 162.537 128.568 162.451V161.166C128.569 160.982 128.638 160.805 128.761 160.669C128.884 160.533 129.052 160.446 129.235 160.427V160.427C129.32 160.416 129.407 160.424 129.489 160.45C129.571 160.476 129.647 160.518 129.711 160.575C129.776 160.632 129.827 160.702 129.863 160.78C129.899 160.858 129.917 160.943 129.918 161.029V162.314C129.906 162.494 129.834 162.665 129.713 162.799C129.592 162.933 129.429 163.023 129.251 163.053Z" fill="white"/>
<path d="M133.042 162.653C132.957 162.665 132.87 162.659 132.787 162.635C132.703 162.611 132.627 162.57 132.561 162.513C132.496 162.457 132.443 162.387 132.407 162.309C132.371 162.23 132.352 162.145 132.352 162.058V160.773C132.363 160.593 132.436 160.422 132.557 160.288C132.678 160.154 132.84 160.064 133.018 160.034C133.103 160.023 133.189 160.03 133.272 160.054C133.354 160.079 133.429 160.121 133.494 160.177C133.559 160.233 133.611 160.303 133.646 160.38C133.682 160.458 133.701 160.543 133.701 160.629V161.914C133.702 162.096 133.635 162.273 133.514 162.41C133.392 162.546 133.224 162.633 133.042 162.653Z" fill="white"/>
<path d="M136.825 162.258C136.74 162.269 136.654 162.263 136.572 162.238C136.49 162.213 136.414 162.172 136.349 162.115C136.285 162.059 136.233 161.99 136.197 161.912C136.162 161.834 136.143 161.749 136.143 161.664V160.379C136.143 160.196 136.211 160.02 136.332 159.884C136.453 159.748 136.62 159.661 136.801 159.64C136.886 159.628 136.973 159.635 137.056 159.66C137.138 159.684 137.215 159.726 137.28 159.782C137.345 159.838 137.398 159.907 137.434 159.985C137.471 160.063 137.49 160.148 137.492 160.234V161.519C137.489 161.702 137.42 161.878 137.298 162.014C137.175 162.15 137.007 162.237 136.825 162.258V162.258Z" fill="white"/>
<path d="M140.617 161.865C140.531 161.878 140.444 161.872 140.361 161.848C140.278 161.824 140.201 161.783 140.135 161.726C140.07 161.67 140.017 161.6 139.981 161.521C139.945 161.443 139.926 161.358 139.926 161.271V159.986C139.928 159.803 139.997 159.627 140.12 159.491C140.243 159.355 140.411 159.268 140.592 159.247V159.247C140.677 159.236 140.764 159.242 140.846 159.267C140.928 159.292 141.004 159.334 141.068 159.39C141.133 159.446 141.185 159.515 141.22 159.593C141.256 159.671 141.275 159.756 141.275 159.841V161.127C141.274 161.309 141.207 161.485 141.086 161.621C140.964 161.757 140.798 161.844 140.617 161.865V161.865Z" fill="white"/>
<path d="M144.4 161.472C144.314 161.484 144.228 161.477 144.145 161.452C144.063 161.428 143.986 161.386 143.921 161.33C143.856 161.274 143.803 161.205 143.767 161.127C143.73 161.049 143.711 160.964 143.709 160.878V159.593C143.708 159.41 143.775 159.233 143.896 159.097C144.018 158.96 144.186 158.874 144.368 158.854V158.854C144.453 158.843 144.54 158.849 144.622 158.874C144.705 158.899 144.781 158.94 144.846 158.996C144.911 159.052 144.964 159.122 145.001 159.2C145.037 159.278 145.057 159.362 145.058 159.448V160.733C145.058 160.916 144.99 161.092 144.869 161.228C144.748 161.364 144.581 161.451 144.4 161.472V161.472Z" fill="white"/>
<path d="M148.183 161.078C148.098 161.088 148.012 161.08 147.931 161.055C147.849 161.03 147.774 160.988 147.71 160.932C147.645 160.876 147.593 160.807 147.557 160.73C147.521 160.653 147.502 160.569 147.5 160.484V159.198C147.499 159.014 147.567 158.837 147.69 158.7C147.814 158.563 147.983 158.477 148.167 158.459V158.459C148.252 158.448 148.338 158.455 148.42 158.479C148.502 158.504 148.578 158.546 148.643 158.602C148.707 158.658 148.759 158.728 148.795 158.806C148.83 158.884 148.849 158.968 148.849 159.054V160.339C148.848 160.523 148.78 160.699 148.657 160.836C148.534 160.972 148.365 161.058 148.183 161.078V161.078Z" fill="white"/>
</g>
<path d="M134.444 176.647C135.095 176.497 135.764 176.497 136.416 176.647C137.699 177.123 136.473 178.841 135.663 179.184C134.853 179.528 133.576 179.299 133.282 178.171C132.938 176.85 134.157 175.916 135.075 175.74C135.326 175.74 135.319 175.229 135.075 175.273C133.971 175.476 132.687 176.506 132.866 178.057C133.039 179.466 134.351 180.003 135.405 179.739C136.351 179.51 137.635 178.339 137.341 177C137.047 175.661 135.276 176.04 134.473 176.119C134.229 176.119 134.236 176.621 134.473 176.586L134.444 176.647Z" fill="#407BFF"/>
<g opacity="0.4">
<path d="M134.425 176.764C135.154 176.627 135.903 176.627 136.633 176.764C138.071 177.197 136.698 178.764 135.79 179.077C134.882 179.39 133.453 179.181 133.123 178.153C132.738 176.948 134.103 176.097 135.131 175.936C135.413 175.936 135.404 175.471 135.131 175.511C133.894 175.695 132.457 176.635 132.658 178.049C132.85 179.334 134.32 179.824 135.501 179.583C136.561 179.374 137.999 178.306 137.669 177.085C137.34 175.864 135.356 176.21 134.457 176.282C134.184 176.282 134.192 176.74 134.457 176.708L134.425 176.764Z" fill="black"/>
</g>
<path d="M160.051 185.094L168.363 177.538L161.393 169.981L160.051 185.094Z" fill="#407BFF"/>
<path opacity="0.7" d="M160.051 185.094L168.363 177.538L161.393 169.981L160.051 185.094Z" fill="white"/>
<path d="M273.298 243.27H319.385C319.611 243.271 319.834 243.224 320.041 243.133C320.248 243.042 320.433 242.909 320.585 242.741C320.736 242.574 320.851 242.376 320.921 242.161C320.991 241.946 321.015 241.719 320.991 241.494L316.975 195.407C316.928 194.926 316.705 194.48 316.35 194.152C315.994 193.825 315.531 193.64 315.048 193.632H268.96C268.735 193.631 268.511 193.678 268.304 193.769C268.097 193.86 267.912 193.993 267.76 194.161C267.609 194.328 267.494 194.526 267.424 194.741C267.354 194.956 267.33 195.183 267.354 195.407L271.37 241.494C271.421 241.974 271.644 242.419 271.999 242.746C272.354 243.072 272.816 243.259 273.298 243.27V243.27Z" fill="#407BFF"/>
<path opacity="0.7" d="M273.298 243.27H319.385C319.611 243.271 319.834 243.224 320.041 243.133C320.248 243.042 320.433 242.909 320.585 242.741C320.736 242.574 320.851 242.376 320.921 242.161C320.991 241.946 321.015 241.719 320.991 241.494L316.975 195.407C316.928 194.926 316.705 194.48 316.35 194.152C315.994 193.825 315.531 193.64 315.048 193.632H268.96C268.735 193.631 268.511 193.678 268.304 193.769C268.097 193.86 267.912 193.993 267.76 194.161C267.609 194.328 267.494 194.526 267.424 194.741C267.354 194.956 267.33 195.183 267.354 195.407L271.37 241.494C271.421 241.974 271.644 242.419 271.999 242.746C272.354 243.072 272.816 243.259 273.298 243.27V243.27Z" fill="white"/>
<path d="M314.325 198.3L317.843 238.596C317.866 238.821 317.842 239.048 317.772 239.263C317.702 239.477 317.588 239.675 317.436 239.843C317.285 240.01 317.099 240.144 316.893 240.235C316.686 240.326 316.462 240.372 316.236 240.371H275.948C275.464 240.364 275 240.179 274.643 239.852C274.286 239.525 274.062 239.078 274.013 238.596L270.454 198.3C270.431 198.075 270.455 197.848 270.525 197.633C270.595 197.419 270.709 197.221 270.861 197.053C271.012 196.886 271.198 196.752 271.404 196.661C271.611 196.57 271.835 196.524 272.061 196.525H312.397C312.88 196.532 313.344 196.718 313.699 197.045C314.055 197.372 314.277 197.819 314.325 198.3Z" fill="#407BFF"/>
<path opacity="0.2" d="M314.325 198.3L317.843 238.596C317.866 238.821 317.842 239.048 317.772 239.263C317.702 239.477 317.588 239.675 317.436 239.843C317.285 240.01 317.099 240.144 316.893 240.235C316.686 240.326 316.462 240.372 316.236 240.371H275.948C275.464 240.364 275 240.179 274.643 239.852C274.286 239.525 274.062 239.078 274.013 238.596L270.454 198.3C270.431 198.075 270.455 197.848 270.525 197.633C270.595 197.419 270.709 197.221 270.861 197.053C271.012 196.886 271.198 196.752 271.404 196.661C271.611 196.57 271.835 196.524 272.061 196.525H312.397C312.88 196.532 313.344 196.718 313.699 197.045C314.055 197.372 314.277 197.819 314.325 198.3Z" fill="white"/>
<path d="M273.795 227.872L278.478 201.897L281 202.162L284.727 229.005L273.795 227.872Z" fill="#407BFF"/>
<path opacity="0.3" d="M273.795 227.872L278.478 201.897L281 202.162L284.727 229.005L273.795 227.872Z" fill="black"/>
<path d="M282.237 228.748L316.389 232.306L312.63 205.455L278.478 201.897L282.237 228.748Z" fill="#407BFF"/>
<path opacity="0.9" d="M282.237 228.748L316.389 232.306L312.63 205.455L278.478 201.897L282.237 228.748Z" fill="white"/>
<path d="M291.585 210.669L310.99 212.693L310.597 209.85L291.184 207.826L291.585 210.669Z" fill="#407BFF"/>
<path d="M309.062 223.615L312.572 223.976L312.074 220.442L308.564 220.073L309.062 223.615Z" fill="#407BFF"/>
<path d="M309.763 228.627L313.273 228.996L312.783 225.462L309.274 225.093L309.763 228.627Z" fill="#407BFF"/>
<path opacity="0.3" d="M309.062 223.615L312.572 223.976L312.074 220.442L308.564 220.073L309.062 223.615Z" fill="white"/>
<path opacity="0.3" d="M309.763 228.627L313.273 228.996L312.783 225.462L309.274 225.093L309.763 228.627Z" fill="white"/>
<path d="M308.355 218.595L311.865 218.957L311.375 215.423L307.865 215.053L308.355 218.595Z" fill="#407BFF"/>
<path d="M303.472 218.081L306.982 218.451L306.492 214.917L302.983 214.547L303.472 218.081Z" fill="#407BFF"/>
<path opacity="0.7" d="M308.355 218.595L311.865 218.957L311.375 215.423L307.865 215.053L308.355 218.595Z" fill="white"/>
<path opacity="0.7" d="M303.472 218.081L306.982 218.451L306.492 214.917L302.983 214.547L303.472 218.081Z" fill="white"/>
<path d="M304.18 223.102L307.689 223.471L307.191 219.929L303.682 219.568L304.18 223.102Z" fill="#407BFF"/>
<path d="M304.879 228.122L308.389 228.483L307.899 224.949L304.389 224.588L304.879 228.122Z" fill="#407BFF"/>
<path d="M298.59 217.576L302.1 217.945L301.602 214.403L298.092 214.042L298.59 217.576Z" fill="#407BFF"/>
<path d="M299.289 222.595L302.799 222.957L302.309 219.422L298.799 219.061L299.289 222.595Z" fill="#407BFF"/>
<path d="M299.994 227.616L303.504 227.978L303.006 224.444L299.496 224.074L299.994 227.616Z" fill="#407BFF"/>
<path d="M293.705 217.071L297.215 217.432L296.717 213.898L293.207 213.529L293.705 217.071Z" fill="#407BFF"/>
<path d="M294.404 222.081L297.914 222.45L297.416 218.916L293.914 218.547L294.404 222.081Z" fill="#407BFF"/>
<path d="M295.103 227.103L298.613 227.473L298.123 223.939L294.613 223.569L295.103 227.103Z" fill="#407BFF"/>
<path d="M288.814 216.558L292.324 216.927L291.834 213.393L288.324 213.024L288.814 216.558Z" fill="#407BFF"/>
<path d="M289.521 221.576L293.031 221.945L292.533 218.403L289.023 218.042L289.521 221.576Z" fill="#407BFF"/>
<path d="M290.221 226.596L293.73 226.957L293.241 223.423L289.731 223.062L290.221 226.596Z" fill="#407BFF"/>
<path opacity="0.3" d="M304.18 223.102L307.689 223.471L307.191 219.929L303.682 219.568L304.18 223.102Z" fill="white"/>
<path opacity="0.3" d="M304.879 228.122L308.389 228.483L307.899 224.949L304.389 224.588L304.879 228.122Z" fill="white"/>
<path opacity="0.3" d="M298.59 217.576L302.1 217.945L301.602 214.403L298.092 214.042L298.59 217.576Z" fill="white"/>
<path opacity="0.3" d="M299.289 222.595L302.799 222.957L302.309 219.422L298.799 219.061L299.289 222.595Z" fill="white"/>
<path opacity="0.3" d="M299.994 227.616L303.504 227.978L303.006 224.444L299.496 224.074L299.994 227.616Z" fill="white"/>
<path opacity="0.3" d="M293.705 217.071L297.215 217.432L296.717 213.898L293.207 213.529L293.705 217.071Z" fill="white"/>
<path opacity="0.3" d="M294.404 222.081L297.914 222.45L297.416 218.916L293.914 218.547L294.404 222.081Z" fill="white"/>
<path opacity="0.3" d="M295.103 227.103L298.613 227.473L298.123 223.939L294.613 223.569L295.103 227.103Z" fill="white"/>
<path opacity="0.3" d="M288.814 216.558L292.324 216.927L291.834 213.393L288.324 213.024L288.814 216.558Z" fill="white"/>
<path opacity="0.3" d="M289.521 221.576L293.031 221.945L292.533 218.403L289.023 218.042L289.521 221.576Z" fill="white"/>
<path opacity="0.3" d="M290.221 226.596L293.73 226.957L293.241 223.423L289.731 223.062L290.221 226.596Z" fill="white"/>
<path d="M283.931 216.05L287.441 216.412L286.943 212.878L283.442 212.516L283.931 216.05Z" fill="#407BFF"/>
<path d="M284.638 221.071L288.148 221.432L287.65 217.898L284.141 217.537L284.638 221.071Z" fill="#407BFF"/>
<path opacity="0.2" d="M283.931 216.05L287.441 216.412L286.943 212.878L283.442 212.516L283.931 216.05Z" fill="black"/>
<path opacity="0.2" d="M284.638 221.071L288.148 221.432L287.65 217.898L284.141 217.537L284.638 221.071Z" fill="black"/>
<path d="M285.336 226.089L288.846 226.45L288.348 222.916L284.838 222.547L285.336 226.089Z" fill="#407BFF"/>
<path opacity="0.7" d="M285.336 226.089L288.846 226.45L288.348 222.916L284.838 222.547L285.336 226.089Z" fill="white"/>
<path d="M309.417 206.411C309.502 206.421 309.589 206.413 309.671 206.388C309.753 206.362 309.829 206.319 309.893 206.263C309.958 206.206 310.009 206.136 310.045 206.058C310.08 205.979 310.099 205.895 310.1 205.809V204.524C310.099 204.34 310.03 204.163 309.907 204.027C309.784 203.891 309.615 203.804 309.433 203.785V203.785C309.348 203.774 309.261 203.782 309.179 203.808C309.097 203.833 309.021 203.876 308.957 203.933C308.892 203.99 308.841 204.06 308.805 204.138C308.769 204.216 308.751 204.301 308.75 204.387V205.672C308.751 205.856 308.82 206.032 308.943 206.169C309.066 206.305 309.234 206.391 309.417 206.411Z" fill="#263238"/>
<path d="M305.624 206.016C305.709 206.027 305.796 206.019 305.879 205.993C305.961 205.968 306.038 205.925 306.103 205.868C306.168 205.812 306.22 205.742 306.257 205.664C306.293 205.585 306.313 205.5 306.314 205.414V204.129C306.314 203.947 306.246 203.771 306.125 203.635C306.004 203.499 305.837 203.412 305.656 203.39V203.39C305.57 203.38 305.483 203.388 305.401 203.413C305.318 203.439 305.242 203.481 305.177 203.538C305.112 203.595 305.059 203.665 305.023 203.743C304.986 203.821 304.967 203.906 304.965 203.992V205.277C304.967 205.459 305.035 205.634 305.156 205.77C305.277 205.906 305.443 205.993 305.624 206.016V206.016Z" fill="#263238"/>
<path d="M301.843 205.625C301.928 205.635 302.015 205.627 302.097 205.602C302.179 205.576 302.254 205.533 302.319 205.476C302.383 205.42 302.435 205.35 302.471 205.272C302.506 205.193 302.525 205.108 302.525 205.022V203.737C302.524 203.554 302.456 203.377 302.333 203.241C302.21 203.104 302.041 203.018 301.859 202.998V202.998C301.773 202.988 301.687 202.996 301.605 203.022C301.523 203.047 301.447 203.09 301.383 203.147C301.318 203.204 301.266 203.274 301.231 203.352C301.195 203.43 301.177 203.515 301.176 203.601V204.886C301.188 205.066 301.26 205.237 301.381 205.371C301.502 205.505 301.665 205.595 301.843 205.625Z" fill="#263238"/>
<path d="M298.051 205.223C298.137 205.236 298.224 205.23 298.307 205.206C298.39 205.182 298.467 205.141 298.533 205.084C298.598 205.028 298.651 204.958 298.687 204.879C298.723 204.801 298.742 204.715 298.742 204.629V203.344C298.73 203.164 298.658 202.993 298.537 202.859C298.416 202.725 298.254 202.635 298.076 202.605C297.991 202.594 297.904 202.6 297.822 202.625C297.74 202.65 297.664 202.691 297.6 202.748C297.535 202.804 297.483 202.873 297.448 202.951C297.412 203.029 297.393 203.114 297.393 203.199V204.484C297.392 204.667 297.458 204.844 297.58 204.98C297.702 205.117 297.87 205.204 298.051 205.223Z" fill="#263238"/>
<path d="M294.27 204.829C294.355 204.841 294.442 204.834 294.524 204.809C294.606 204.785 294.682 204.743 294.746 204.687C294.811 204.63 294.863 204.561 294.898 204.483C294.934 204.405 294.953 204.321 294.953 204.235V202.95C294.952 202.767 294.885 202.592 294.764 202.456C294.642 202.319 294.476 202.232 294.295 202.211C294.209 202.2 294.122 202.206 294.04 202.231C293.958 202.255 293.881 202.297 293.816 202.353C293.751 202.409 293.698 202.479 293.662 202.557C293.625 202.634 293.605 202.719 293.604 202.805V204.09C293.606 204.273 293.675 204.449 293.798 204.585C293.921 204.721 294.089 204.808 294.27 204.829V204.829Z" fill="#263238"/>
<path d="M290.479 204.437C290.565 204.449 290.652 204.444 290.735 204.42C290.818 204.396 290.895 204.354 290.96 204.298C291.026 204.241 291.079 204.171 291.115 204.093C291.151 204.014 291.17 203.929 291.17 203.842V202.557C291.167 202.374 291.098 202.198 290.976 202.062C290.853 201.927 290.685 201.84 290.503 201.818V201.818C290.418 201.807 290.332 201.814 290.25 201.838C290.168 201.863 290.092 201.905 290.027 201.961C289.963 202.017 289.911 202.087 289.875 202.165C289.84 202.242 289.821 202.327 289.821 202.413V203.698C289.821 203.88 289.889 204.056 290.01 204.192C290.131 204.328 290.298 204.415 290.479 204.437V204.437Z" fill="#263238"/>
<path d="M286.696 204.041C286.781 204.053 286.868 204.046 286.95 204.021C287.033 203.997 287.109 203.955 287.175 203.899C287.24 203.843 287.292 203.773 287.329 203.696C287.366 203.618 287.385 203.533 287.387 203.447V202.162C287.388 201.979 287.321 201.802 287.199 201.666C287.078 201.529 286.91 201.443 286.728 201.423V201.423C286.643 201.411 286.556 201.418 286.474 201.443C286.391 201.467 286.315 201.509 286.25 201.565C286.184 201.621 286.132 201.691 286.095 201.768C286.059 201.846 286.039 201.931 286.037 202.017V203.302C286.038 203.485 286.105 203.66 286.227 203.796C286.348 203.933 286.515 204.02 286.696 204.041V204.041Z" fill="#263238"/>
<path d="M282.913 203.648C282.998 203.658 283.084 203.65 283.165 203.625C283.247 203.6 283.322 203.558 283.386 203.502C283.451 203.446 283.502 203.377 283.538 203.3C283.575 203.223 283.594 203.139 283.596 203.053V201.768C283.597 201.584 283.529 201.406 283.405 201.27C283.282 201.133 283.112 201.047 282.929 201.029V201.029C282.844 201.018 282.758 201.025 282.676 201.049C282.594 201.074 282.518 201.116 282.453 201.172C282.389 201.228 282.337 201.298 282.301 201.376C282.265 201.453 282.247 201.538 282.246 201.624V202.909C282.247 203.092 282.316 203.269 282.439 203.405C282.562 203.542 282.73 203.628 282.913 203.648V203.648Z" fill="#263238"/>
<g opacity="0.5">
<path d="M309.417 206.41C309.502 206.42 309.589 206.412 309.671 206.386C309.753 206.361 309.829 206.318 309.893 206.261C309.958 206.204 310.009 206.134 310.045 206.056C310.08 205.978 310.099 205.893 310.1 205.807V204.522C310.099 204.338 310.03 204.162 309.907 204.025C309.784 203.889 309.615 203.803 309.433 203.783V203.783C309.348 203.773 309.261 203.781 309.179 203.806C309.097 203.832 309.021 203.875 308.957 203.932C308.892 203.988 308.841 204.058 308.805 204.136C308.769 204.215 308.751 204.3 308.75 204.385V205.671C308.751 205.854 308.82 206.031 308.943 206.167C309.066 206.304 309.234 206.39 309.417 206.41Z" fill="white"/>
<path d="M305.626 206.016C305.711 206.027 305.798 206.019 305.881 205.993C305.963 205.968 306.039 205.925 306.105 205.868C306.17 205.812 306.222 205.742 306.259 205.664C306.295 205.585 306.315 205.5 306.316 205.414V204.129C306.316 203.947 306.248 203.771 306.127 203.635C306.006 203.499 305.839 203.412 305.658 203.39V203.39C305.572 203.38 305.485 203.388 305.403 203.413C305.32 203.439 305.244 203.481 305.179 203.538C305.114 203.595 305.061 203.665 305.025 203.743C304.988 203.821 304.969 203.906 304.967 203.992V205.277C304.969 205.459 305.037 205.634 305.158 205.77C305.279 205.906 305.445 205.993 305.626 206.016V206.016Z" fill="white"/>
<path d="M301.843 205.621C301.928 205.631 302.015 205.623 302.097 205.598C302.179 205.572 302.254 205.529 302.319 205.473C302.383 205.416 302.435 205.346 302.471 205.268C302.506 205.189 302.525 205.105 302.525 205.019V203.733C302.524 203.55 302.456 203.373 302.333 203.237C302.21 203.101 302.041 203.014 301.859 202.995V202.995C301.773 202.984 301.687 202.992 301.605 203.018C301.523 203.043 301.447 203.086 301.383 203.143C301.318 203.2 301.266 203.27 301.231 203.348C301.195 203.426 301.177 203.511 301.176 203.597V204.882C301.188 205.062 301.26 205.233 301.381 205.367C301.502 205.501 301.665 205.591 301.843 205.621Z" fill="white"/>
<path d="M298.051 205.221C298.137 205.234 298.224 205.228 298.307 205.204C298.39 205.18 298.467 205.139 298.533 205.082C298.598 205.026 298.651 204.956 298.687 204.877C298.723 204.799 298.742 204.714 298.742 204.627V203.342C298.73 203.162 298.658 202.991 298.537 202.857C298.416 202.723 298.254 202.633 298.076 202.603C297.991 202.592 297.904 202.598 297.822 202.623C297.74 202.648 297.664 202.689 297.6 202.746C297.535 202.802 297.483 202.871 297.448 202.949C297.412 203.027 297.393 203.112 297.393 203.197V204.483C297.392 204.665 297.458 204.842 297.58 204.979C297.702 205.115 297.87 205.202 298.051 205.221Z" fill="white"/>
<path d="M294.268 204.827C294.353 204.838 294.44 204.831 294.522 204.807C294.604 204.782 294.68 204.74 294.744 204.684C294.809 204.628 294.861 204.559 294.896 204.481C294.932 204.403 294.951 204.318 294.951 204.232V202.947C294.95 202.765 294.883 202.589 294.762 202.453C294.641 202.317 294.474 202.23 294.293 202.208C294.207 202.197 294.121 202.204 294.038 202.228C293.956 202.253 293.879 202.295 293.814 202.351C293.749 202.407 293.696 202.476 293.66 202.554C293.623 202.632 293.603 202.717 293.602 202.803V204.088C293.604 204.271 293.674 204.447 293.796 204.583C293.919 204.719 294.087 204.805 294.268 204.827V204.827Z" fill="white"/>
<path d="M290.477 204.434C290.563 204.447 290.65 204.441 290.733 204.417C290.816 204.393 290.893 204.351 290.958 204.295C291.024 204.239 291.077 204.169 291.113 204.09C291.149 204.012 291.168 203.926 291.168 203.84V202.555C291.165 202.372 291.096 202.196 290.974 202.06C290.851 201.924 290.683 201.837 290.501 201.816V201.816C290.416 201.805 290.33 201.811 290.248 201.836C290.166 201.861 290.09 201.902 290.025 201.959C289.961 202.015 289.909 202.084 289.873 202.162C289.838 202.24 289.819 202.325 289.819 202.41V203.695C289.819 203.878 289.887 204.054 290.008 204.19C290.129 204.326 290.296 204.413 290.477 204.434V204.434Z" fill="white"/>
<path d="M286.694 204.04C286.779 204.052 286.866 204.045 286.949 204.02C287.031 203.996 287.107 203.954 287.173 203.898C287.238 203.842 287.29 203.772 287.327 203.695C287.364 203.617 287.383 203.532 287.385 203.446V202.161C287.386 201.978 287.319 201.801 287.197 201.665C287.076 201.528 286.908 201.442 286.726 201.422V201.422C286.641 201.41 286.554 201.417 286.472 201.442C286.389 201.466 286.313 201.508 286.248 201.564C286.182 201.62 286.13 201.69 286.093 201.768C286.057 201.845 286.037 201.93 286.035 202.016V203.301C286.036 203.484 286.103 203.659 286.225 203.796C286.346 203.932 286.513 204.019 286.694 204.04V204.04Z" fill="white"/>
<path d="M282.911 203.647C282.996 203.657 283.082 203.649 283.163 203.624C283.245 203.599 283.32 203.557 283.384 203.501C283.449 203.445 283.5 203.376 283.537 203.299C283.573 203.222 283.592 203.138 283.594 203.052V201.767C283.595 201.583 283.527 201.405 283.403 201.269C283.28 201.132 283.11 201.046 282.927 201.028V201.028C282.842 201.017 282.756 201.024 282.674 201.048C282.592 201.073 282.516 201.115 282.451 201.171C282.387 201.227 282.335 201.297 282.299 201.375C282.263 201.452 282.245 201.537 282.244 201.623V202.908C282.245 203.091 282.314 203.268 282.437 203.404C282.56 203.541 282.729 203.627 282.911 203.647V203.647Z" fill="white"/>
</g>
<path d="M296.671 219.334C295.941 219.197 295.192 219.197 294.462 219.334C293.025 219.768 294.398 221.334 295.306 221.647C296.213 221.96 297.643 221.752 297.972 220.724C298.358 219.519 296.992 218.667 295.964 218.507C295.683 218.507 295.691 218.041 295.964 218.081C297.201 218.266 298.639 219.206 298.438 220.619C298.245 221.904 296.776 222.394 295.595 222.153C294.535 221.944 293.097 220.876 293.426 219.655C293.756 218.434 295.739 218.78 296.639 218.852C296.912 218.852 296.904 219.31 296.639 219.278L296.671 219.334Z" fill="#407BFF"/>
<g opacity="0.4">
<path d="M296.671 219.336C295.941 219.199 295.192 219.199 294.462 219.336C293.025 219.77 294.398 221.336 295.306 221.649C296.213 221.962 297.643 221.754 297.972 220.726C298.358 219.521 296.992 218.669 295.964 218.509C295.683 218.509 295.691 218.043 295.964 218.083C297.201 218.268 298.639 219.207 298.438 220.621C298.245 221.906 296.776 222.396 295.595 222.155C294.535 221.946 293.097 220.878 293.426 219.657C293.756 218.436 295.739 218.782 296.639 218.854C296.912 218.854 296.904 219.312 296.639 219.28L296.671 219.336Z" fill="black"/>
</g>
<path d="M271.209 227.84L262.703 220.025L269.836 212.21L271.209 227.84Z" fill="#407BFF"/>
<path opacity="0.7" d="M271.209 227.84L262.703 220.025L269.836 212.21L271.209 227.84Z" fill="white"/>
<path d="M201.265 157.135C195.628 157.203 183.886 155.707 186.629 178.557C186.803 180.584 186.508 182.624 185.768 184.519L189.266 185.592C189.266 185.592 189.735 181.965 189.266 180.355C189.266 180.355 191.2 181.912 190.52 186.022L193.732 186.778L194.283 181.489L198.114 181.171L199.731 181.066L201.243 180.31C201.243 180.31 201.099 183.808 202.059 185.977L205.331 184.466C205.331 184.466 203.562 181.791 204.469 179.653C204.469 179.653 205.663 182.494 206.54 183.325L208.678 181.882C208.678 181.882 207.242 179.313 207.998 174.545C208.754 169.777 209.562 168.583 209.562 168.583C209.562 168.583 208.701 174.046 209.562 174.545L210.711 173.116C210.232 172.292 209.965 171.362 209.932 170.409C209.899 169.456 210.101 168.509 210.522 167.653C211.942 164.495 207.801 157.059 201.265 157.135Z" fill="#263238"/>
<path d="M211.39 226.457H187.633V239.839H211.39V226.457Z" fill="#263238"/>
<path d="M231.768 356.007L233.514 366.676L227.831 367.152L225.738 357.571L231.768 356.007Z" fill="#FFBE9D"/>
<path d="M224.515 367.893C223.838 368.015 223.139 367.886 222.55 367.53C222.477 367.434 222.433 367.317 222.427 367.196C222.42 367.075 222.45 366.954 222.513 366.85C222.611 366.66 222.779 366.517 222.981 366.449C224.054 366.072 226.434 367.205 226.54 367.273C226.569 367.287 226.593 367.31 226.608 367.339C226.623 367.367 226.628 367.4 226.623 367.432C226.618 367.463 226.605 367.491 226.585 367.515C226.565 367.539 226.539 367.557 226.51 367.568C225.855 367.732 225.188 367.841 224.515 367.893V367.893ZM223.382 366.691C223.281 366.694 223.182 366.712 223.087 366.744C223.024 366.761 222.966 366.791 222.916 366.833C222.867 366.875 222.827 366.927 222.8 366.986C222.694 367.19 222.747 367.281 222.8 367.326C223.132 367.734 224.787 367.628 225.996 367.394C225.171 366.992 224.275 366.753 223.359 366.691H223.382Z" fill="#407BFF"/>
<path d="M226.488 367.568C226.466 367.575 226.442 367.575 226.42 367.568C225.612 367.28 223.934 365.966 224.025 365.218C224.025 365.036 224.146 364.81 224.569 364.742C224.723 364.712 224.88 364.715 225.033 364.751C225.185 364.786 225.328 364.852 225.453 364.946C226.337 365.573 226.639 367.333 226.655 367.409C226.658 367.437 226.655 367.466 226.644 367.492C226.634 367.519 226.616 367.542 226.594 367.56C226.561 367.573 226.524 367.576 226.488 367.568V367.568ZM224.698 365.021H224.607C224.327 365.059 224.32 365.172 224.312 365.218C224.312 365.663 225.408 366.729 226.262 367.129C226.13 366.392 225.777 365.712 225.249 365.18C225.091 365.061 224.895 365.004 224.698 365.021V365.021Z" fill="#407BFF"/>
<path d="M227.137 366.602L234.3 366.096C234.432 366.088 234.562 366.125 234.67 366.2C234.778 366.276 234.858 366.385 234.897 366.511L236.597 372.246C236.634 372.367 236.648 372.493 236.636 372.618C236.624 372.743 236.587 372.865 236.528 372.976C236.469 373.087 236.389 373.185 236.292 373.265C236.195 373.344 236.083 373.404 235.962 373.44C235.896 373.463 235.828 373.478 235.758 373.486C233.174 373.622 230.87 373.637 227.658 373.871C223.88 374.135 224.855 374.521 220.397 374.899C217.714 375.125 217.011 372.103 218.13 371.876C223.298 370.849 223.729 369.239 225.61 367.229C226.025 366.841 226.568 366.618 227.137 366.602V366.602Z" fill="#263238"/>
<path opacity="0.2" d="M232.041 357.692L232.698 361.69L226.865 362.725L226.17 359.544L232.041 357.692Z" fill="black"/>
<path d="M194.447 355.448L193.306 366.201L187.707 365.166L188.213 355.365L194.447 355.448Z" fill="#FFBE9D"/>
<path d="M183.371 365.234C182.54 365.053 181.716 364.705 181.52 364.29C181.473 364.172 181.464 364.043 181.494 363.919C181.523 363.796 181.591 363.685 181.686 363.602C181.839 363.444 182.048 363.352 182.268 363.345C183.454 363.285 185.495 365.136 185.585 365.219C185.608 365.243 185.624 365.272 185.63 365.304C185.637 365.336 185.634 365.37 185.623 365.4C185.609 365.431 185.587 365.457 185.559 365.476C185.531 365.495 185.498 365.505 185.464 365.506C184.76 365.476 184.06 365.385 183.371 365.234V365.234ZM182.616 363.723C182.513 363.705 182.408 363.705 182.306 363.723C182.238 363.718 182.17 363.729 182.107 363.756C182.044 363.782 181.988 363.822 181.943 363.874C181.777 364.048 181.8 364.154 181.83 364.214C182.049 364.72 183.734 365.106 185.011 365.227C184.313 364.568 183.495 364.049 182.601 363.7L182.616 363.723Z" fill="#407BFF"/>
<path d="M185.443 365.499H185.375C184.657 364.962 183.372 363.156 183.682 362.431C183.735 362.257 183.924 362.061 184.37 362.121C184.531 362.138 184.687 362.188 184.829 362.267C184.97 362.346 185.094 362.454 185.193 362.582C185.889 363.474 185.662 365.325 185.654 365.408C185.651 365.437 185.639 365.465 185.621 365.488C185.602 365.511 185.577 365.528 185.549 365.536C185.51 365.536 185.473 365.523 185.443 365.499V365.499ZM184.408 362.416H184.317C184.03 362.416 183.984 362.484 183.962 362.522C183.818 362.967 184.627 364.335 185.344 365.015C185.438 364.233 185.288 363.441 184.914 362.748C184.789 362.584 184.609 362.468 184.408 362.423V362.416Z" fill="#407BFF"/>
<path d="M187.042 364.682L193.314 366.08C193.448 366.107 193.568 366.18 193.655 366.286C193.741 366.392 193.789 366.525 193.79 366.662V372.903C192.77 374.664 189.112 372.253 186.233 372.102C182.818 371.914 179.43 371.377 176.123 370.5C173.373 369.926 174.967 366.586 176.123 366.722C181.632 367.206 186.475 364.546 187.042 364.682Z" fill="#263238"/>
<path opacity="0.2" d="M194.268 357.147L193.845 361.175L187.943 360.631L188.11 357.374L194.268 357.147Z" fill="black"/>
<path d="M186.069 233.37L184.641 299.199L185.313 357.163L195.491 358.281C195.491 358.281 198.514 339.164 199.141 323.568C199.617 310.919 198.506 306.053 198.786 300.22C199.292 289.55 205.813 273.35 206.471 257.905C206.758 251.331 207.226 231.586 207.226 231.586L186.069 233.37Z" fill="#263238"/>
<path opacity="0.5" d="M199.23 252.298C199.358 262.569 200.288 272.813 202.011 282.939C202.699 279.72 203.87 276.04 204.459 272.647C205.784 266.593 206.503 260.422 206.605 254.225L204.066 253.621L199.23 252.298Z" fill="black"/>
<path d="M195.342 235.334L210.976 301.595L223.685 359.309L233.894 357.647C233.894 357.647 232.186 333.006 230.599 324.906C227.826 310.715 225.589 306.265 224.516 299.925C221.781 283.762 223.451 250.341 213.938 235.334H195.342Z" fill="#263238"/>
<path opacity="0.3" d="M213.158 235.335H204.733C204.733 233.499 204.733 232.312 204.733 232.312L185.986 234.678V240.723C187.626 241.35 191.404 242.438 197.094 241.984L198.658 234.897L203.947 241.463C207.806 241.396 211.641 240.834 215.357 239.793C214.756 238.246 214.02 236.754 213.158 235.335Z" fill="black"/>
<path d="M224.735 213.747C224.735 213.747 227.327 221.446 229.103 226.456C230.478 230.31 233.055 237.36 233.055 237.36C233.055 237.36 237.921 240.556 238.405 242.649C238.888 244.742 239.228 247.425 236.742 247.425C234.256 247.425 234.03 246.865 232.783 244.16C231.536 241.455 229.655 240.896 229.723 238.871L218.547 216.369L224.735 213.747Z" fill="#FFBE9D"/>
<path d="M219.43 220.314L226.465 216.823L225.664 214.714L220.866 196.693L213.158 202.111L217.843 216.588L219.43 220.314Z" fill="#407BFF"/>
<path opacity="0.5" d="M219.43 220.314L226.465 216.823L225.664 214.714L220.866 196.693L213.158 202.111L217.843 216.588L219.43 220.314Z" fill="white"/>
<path d="M218.191 219.232L219.302 221.197L227.153 217.494L226.465 214.925L218.191 219.232Z" fill="#407BFF"/>
<path opacity="0.7" d="M218.191 219.232L219.302 221.197L227.153 217.494L226.465 214.925L218.191 219.232Z" fill="white"/>
<path d="M211.456 187.208C211.456 187.208 216.315 186.513 218.536 189.641C220.182 192.114 221.622 194.717 222.843 197.424C219.77 200.335 216.312 202.811 212.567 204.784C212.567 204.784 203.537 188.878 211.456 187.208Z" fill="#407BFF"/>
<path opacity="0.1" d="M212.57 204.784C213.876 204.144 215.138 203.417 216.348 202.608L214.648 192.12L210.771 201.089C211.701 203.25 212.57 204.784 212.57 204.784Z" fill="black"/>
<path d="M230.992 248.708L229.428 249.463C229.386 249.482 229.34 249.488 229.295 249.48C229.25 249.472 229.208 249.451 229.176 249.419C229.143 249.387 229.121 249.346 229.112 249.302C229.103 249.257 229.108 249.211 229.125 249.169L229.881 247.597L229.926 247.536L239.802 237.66C239.923 237.541 240.086 237.473 240.256 237.473C240.426 237.473 240.589 237.541 240.709 237.66L240.936 237.887C241.056 238.009 241.124 238.173 241.124 238.344C241.124 238.516 241.056 238.68 240.936 238.801L231.06 248.67C231.042 248.69 231.018 248.703 230.992 248.708V248.708Z" fill="#263238"/>
<path opacity="0.7" d="M230.992 248.708L229.428 249.463C229.386 249.482 229.34 249.488 229.295 249.48C229.25 249.472 229.208 249.451 229.176 249.419C229.143 249.387 229.121 249.346 229.112 249.302C229.103 249.257 229.108 249.211 229.125 249.169L229.881 247.597L229.926 247.536L239.802 237.66C239.923 237.541 240.086 237.473 240.256 237.473C240.426 237.473 240.589 237.541 240.709 237.66L240.936 237.887C241.056 238.009 241.124 238.173 241.124 238.344C241.124 238.516 241.056 238.68 240.936 238.801L231.06 248.67C231.042 248.69 231.018 248.703 230.992 248.708V248.708Z" fill="white"/>
<path d="M239.246 238.208L238.846 238.609L239.984 239.747L240.385 239.346L239.246 238.208Z" fill="#263238"/>
<path d="M229.48 248.416L229.125 249.171C229.108 249.213 229.103 249.26 229.112 249.304C229.121 249.349 229.143 249.39 229.176 249.422C229.208 249.453 229.25 249.475 229.295 249.483C229.34 249.49 229.386 249.485 229.428 249.466L230.183 249.111L229.48 248.416Z" fill="#263238"/>
<path opacity="0.8" d="M239.246 238.208L238.846 238.609L239.984 239.747L240.385 239.346L239.246 238.208Z" fill="white"/>
<path opacity="0.8" d="M229.48 248.416L229.125 249.171C229.108 249.213 229.103 249.26 229.112 249.304C229.121 249.349 229.143 249.39 229.176 249.422C229.208 249.453 229.25 249.475 229.295 249.483C229.34 249.49 229.386 249.485 229.428 249.466L230.183 249.111L229.48 248.416Z" fill="white"/>
<path d="M232.178 242.785C232.178 242.785 233.13 245.051 234.248 245.218C235.366 245.384 233.44 240.752 233.44 240.752L232.178 242.785Z" fill="#FFBE9D"/>
<path d="M187.544 187.458C194.294 186.666 201.091 186.351 207.885 186.513L203.608 195.286L196.112 197.787L191.004 196.54L186.471 191.644L187.544 187.458Z" fill="#407BFF"/>
<path opacity="0.5" d="M187.544 187.458C194.294 186.666 201.091 186.351 207.885 186.513L203.608 195.286L196.112 197.787L191.004 196.54L186.471 191.644L187.544 187.458Z" fill="white"/>
<path d="M198.174 191.206L202.421 187.338C201.755 186.774 201.249 186.045 200.953 185.224C200.657 184.403 200.582 183.519 200.736 182.66C200.804 182.012 200.91 181.369 201.053 180.733L196.316 176.781L192.847 173.895C193.784 178.104 194.842 185.358 191.971 188.169C194.003 189.242 196.074 190.262 198.174 191.206Z" fill="#FFBE9D"/>
<path d="M185.275 225.655L184.066 237.495C184.066 237.495 190.391 240.208 196.504 239.762L198.438 232.72V226.29L199.277 232.72L204 239.279C204 239.279 212.062 239.279 217.132 236.574C215.385 232.726 213.428 228.977 211.269 225.345C211.269 225.345 192.499 224.091 185.275 225.655Z" fill="#407BFF"/>
<path opacity="0.5" d="M185.275 225.655L184.066 237.495C184.066 237.495 190.391 240.208 196.504 239.762L198.438 232.72V226.29L199.277 232.72L204 239.279C204 239.279 212.062 239.279 217.132 236.574C215.385 232.726 213.428 228.977 211.269 225.345C211.269 225.345 192.499 224.091 185.275 225.655Z" fill="white"/>
<path d="M212.977 187.043C211.375 186.824 208.995 186.552 206.078 186.4C205.224 189.257 201.046 193.639 196.799 193.639C192.553 193.639 189.689 189.914 189.122 187.201C187.958 187.383 186.772 187.579 185.578 187.821C184.959 187.942 184.386 188.236 183.927 188.669C183.469 189.103 183.142 189.658 182.986 190.269C181.906 194.599 180.251 206.137 184.996 227.567C189.473 227.966 193.97 228.082 198.462 227.914C202.413 227.808 207.113 228.164 212.357 227.007L215.108 189.695C215.158 189.064 214.966 188.439 214.569 187.945C214.173 187.452 213.604 187.129 212.977 187.043V187.043Z" fill="#407BFF"/>
<path d="M189.854 187.149L192.498 186.552L197.289 190.791L195.067 193.163L189.854 187.149Z" fill="#407BFF"/>
<path opacity="0.7" d="M189.854 187.149L192.498 186.552L197.289 190.791L195.067 193.163L189.854 187.149Z" fill="white"/>
<path d="M205.087 186.31L202.442 186.068L196.82 190.791L199.042 193.163L205.087 186.31Z" fill="#407BFF"/>
<path opacity="0.7" d="M205.087 186.31L202.442 186.068L196.82 190.791L199.042 193.163L205.087 186.31Z" fill="white"/>
<path opacity="0.2" d="M201.053 180.732C200.909 181.367 200.803 182.011 200.735 182.659C198.952 182.303 196.292 180.717 196.043 178.714C196.058 178.061 196.149 177.412 196.315 176.78L201.053 180.732Z" fill="black"/>
<path d="M167.359 215.863L166.097 218.062C166.005 218.219 165.959 218.399 165.965 218.581C165.972 218.763 166.031 218.94 166.135 219.089C166.573 219.662 167.137 220.128 167.782 220.449C168.412 220.808 169.109 221.032 169.83 221.107C169.988 221.116 170.145 221.086 170.289 221.02C170.432 220.954 170.558 220.854 170.654 220.729L172.822 217.941L167.359 215.863Z" fill="#FFBE9D"/>
<path d="M176.587 198.256L166.938 214.857L173.466 218.393L185.065 203.394L176.587 198.256Z" fill="#407BFF"/>
<path opacity="0.5" d="M176.587 198.256L166.938 214.857L173.466 218.393L185.065 203.394L176.587 198.256Z" fill="white"/>
<path opacity="0.1" d="M183.008 206.045L183.764 203.68C177.829 206.848 172.235 210.618 167.072 214.931L172.014 217.613L172.943 217.22L177.137 213.654L183.008 206.045Z" fill="black"/>
<path d="M186.455 187.656C186.455 187.656 180.41 187.225 174.652 199.353C174.652 199.353 179.995 203.939 185.435 205.783C185.435 205.783 192.984 188.306 186.455 187.656Z" fill="#407BFF"/>
<path opacity="0.1" d="M182.858 204.715L182.186 194.809L180.062 203.196C180.939 203.725 181.884 204.239 182.858 204.715Z" fill="black"/>
<path d="M166.378 213.747L174.652 217.842L173.329 219.368L165.531 216.104L166.378 213.747Z" fill="#407BFF"/>
<path opacity="0.7" d="M166.378 213.747L174.652 217.842L173.329 219.368L165.531 216.104L166.378 213.747Z" fill="white"/>
<path d="M199.336 189.129L185.304 190.584C184.478 190.67 183.878 191.409 183.964 192.235L185.911 211.017C185.997 211.843 186.736 212.443 187.562 212.358L201.594 210.903C202.42 210.817 203.02 210.078 202.935 209.252L200.987 190.47C200.902 189.644 200.163 189.043 199.336 189.129Z" fill="#263238"/>
<path opacity="0.7" d="M199.336 189.129L185.304 190.584C184.478 190.67 183.878 191.409 183.964 192.235L185.911 211.017C185.997 211.843 186.736 212.443 187.562 212.358L201.594 210.903C202.42 210.817 203.02 210.078 202.935 209.252L200.987 190.47C200.902 189.644 200.163 189.043 199.336 189.129Z" fill="white"/>
<path d="M201.372 211.244L187.846 212.665C187.29 212.72 186.735 212.553 186.302 212.2C185.869 211.848 185.593 211.338 185.534 210.783L183.645 192.535C183.615 192.26 183.641 191.982 183.719 191.717C183.797 191.452 183.927 191.205 184.101 190.99C184.276 190.775 184.49 190.597 184.734 190.465C184.977 190.333 185.244 190.251 185.519 190.223L199.022 188.825C199.296 188.796 199.575 188.821 199.84 188.899C200.105 188.978 200.352 189.108 200.567 189.282C200.782 189.456 200.96 189.671 201.092 189.914C201.223 190.157 201.305 190.424 201.334 190.699L203.223 208.955C203.276 209.503 203.112 210.05 202.765 210.478C202.419 210.906 201.919 211.181 201.372 211.244V211.244ZM185.609 190.842C185.231 190.884 184.884 191.073 184.643 191.369C184.403 191.664 184.289 192.042 184.325 192.422L186.221 210.67C186.24 210.858 186.296 211.041 186.386 211.207C186.475 211.374 186.597 211.521 186.744 211.64C186.891 211.76 187.06 211.849 187.241 211.903C187.422 211.957 187.612 211.974 187.801 211.954L201.304 210.549C201.491 210.53 201.672 210.474 201.838 210.385C202.004 210.296 202.15 210.175 202.269 210.029C202.387 209.883 202.476 209.714 202.53 209.534C202.583 209.354 202.6 209.164 202.581 208.977L200.691 190.752C200.65 190.374 200.46 190.027 200.164 189.788C199.869 189.549 199.491 189.436 199.112 189.475L185.609 190.842Z" fill="#263238"/>
<path opacity="0.5" d="M201.372 211.244L187.846 212.665C187.29 212.72 186.735 212.553 186.302 212.2C185.869 211.848 185.593 211.338 185.534 210.783L183.645 192.535C183.615 192.26 183.641 191.982 183.719 191.717C183.797 191.452 183.927 191.205 184.101 190.99C184.276 190.775 184.49 190.597 184.734 190.465C184.977 190.333 185.244 190.251 185.519 190.223L199.022 188.825C199.296 188.796 199.575 188.821 199.84 188.899C200.105 188.978 200.352 189.108 200.567 189.282C200.782 189.456 200.96 189.671 201.092 189.914C201.223 190.157 201.305 190.424 201.334 190.699L203.223 208.955C203.276 209.503 203.112 210.05 202.765 210.478C202.419 210.906 201.919 211.181 201.372 211.244V211.244ZM185.609 190.842C185.231 190.884 184.884 191.073 184.643 191.369C184.403 191.664 184.289 192.042 184.325 192.422L186.221 210.67C186.24 210.858 186.296 211.041 186.386 211.207C186.475 211.374 186.597 211.521 186.744 211.64C186.891 211.76 187.06 211.849 187.241 211.903C187.422 211.957 187.612 211.974 187.801 211.954L201.304 210.549C201.491 210.53 201.672 210.474 201.838 210.385C202.004 210.296 202.15 210.175 202.269 210.029C202.387 209.883 202.476 209.714 202.53 209.534C202.583 209.354 202.6 209.164 202.581 208.977L200.691 190.752C200.65 190.374 200.46 190.027 200.164 189.788C199.869 189.549 199.491 189.436 199.112 189.475L185.609 190.842Z" fill="white"/>
<path d="M188.368 191.83L186.271 192.047C185.827 192.094 185.504 192.491 185.55 192.935L185.768 195.032C185.814 195.476 186.211 195.799 186.655 195.753L188.752 195.535C189.196 195.489 189.519 195.092 189.473 194.648L189.256 192.551C189.209 192.107 188.812 191.784 188.368 191.83Z" fill="#263238"/>
<path opacity="0.5" d="M188.368 191.83L186.271 192.047C185.827 192.094 185.504 192.491 185.55 192.935L185.768 195.032C185.814 195.476 186.211 195.799 186.655 195.753L188.752 195.535C189.196 195.489 189.519 195.092 189.473 194.648L189.256 192.551C189.209 192.107 188.812 191.784 188.368 191.83Z" fill="white"/>
<path d="M188.426 193.684C188.446 193.865 188.412 194.049 188.327 194.211C188.243 194.373 188.112 194.507 187.951 194.594C187.791 194.682 187.608 194.72 187.426 194.703C187.244 194.687 187.071 194.616 186.929 194.501C186.787 194.385 186.682 194.231 186.629 194.056C186.575 193.881 186.574 193.694 186.627 193.519C186.68 193.344 186.784 193.189 186.925 193.073C187.066 192.956 187.239 192.885 187.421 192.868C187.662 192.844 187.903 192.917 188.091 193.07C188.279 193.222 188.399 193.443 188.426 193.684V193.684Z" fill="#263238"/>
<path d="M185.766 205.291C185.766 205.291 159.954 215.923 164.329 220.509C167.352 223.645 173.397 221.265 186.93 207.875C186.93 207.875 187.844 206.311 185.766 205.291Z" fill="#FFBE9D"/>
<path d="M195.348 200.931C195.348 201.282 195.244 201.626 195.049 201.918C194.854 202.21 194.577 202.437 194.252 202.572C193.928 202.706 193.571 202.741 193.226 202.673C192.882 202.604 192.565 202.435 192.317 202.187C192.069 201.938 191.9 201.622 191.831 201.277C191.762 200.933 191.798 200.576 191.932 200.251C192.066 199.927 192.294 199.65 192.586 199.455C192.878 199.259 193.221 199.155 193.573 199.155C194.044 199.155 194.495 199.342 194.828 199.675C195.161 200.008 195.348 200.46 195.348 200.931Z" fill="white"/>
<path d="M183.764 206.152C183.764 206.152 187.179 201.928 189.688 201.618C191.175 201.449 192.675 201.416 194.169 201.52C194.169 201.52 197.327 207.157 194.169 207.89C191.766 208.449 191.675 208.29 190.489 208.645C189.166 209.031 189.265 208.872 185.418 209.038L183.764 206.152Z" fill="#FFBE9D"/>
<path d="M234.994 354.949L235.304 359.656L222.738 361.976L221.182 357.306L234.994 354.949Z" fill="#407BFF"/>
<path d="M197.843 355.275L196.899 359.899L184.167 358.819L183.895 353.907L197.843 355.275Z" fill="#407BFF"/>
<path d="M190.066 170.169C190.374 171.551 191.158 172.782 192.28 173.645C193.723 174.703 194.811 173.418 194.736 171.613C194.66 169.98 193.829 167.472 192.235 167.139C190.64 166.807 189.673 168.431 190.066 170.169Z" fill="#FFBE9D"/>
<path d="M193.202 165.387C192.447 171.069 191.759 174.348 194.064 177.839C197.479 183.076 204.824 181.98 207.189 176.66C209.35 171.885 210.113 163.392 205.096 159.991C204.018 159.226 202.759 158.757 201.443 158.63C200.128 158.503 198.802 158.724 197.598 159.27C196.394 159.816 195.355 160.668 194.584 161.742C193.812 162.815 193.336 164.072 193.202 165.387V165.387Z" fill="#FFBE9D"/>
<path d="M201.015 170.35C200.962 170.773 201.151 171.151 201.423 171.189C201.695 171.227 201.974 170.902 202.035 170.479C202.095 170.056 201.899 169.67 201.627 169.632C201.355 169.595 201.09 169.973 201.015 170.35Z" fill="#263238"/>
<path d="M205.851 171C205.805 171.438 205.987 171.809 206.266 171.846C206.546 171.884 206.818 171.559 206.871 171.129C206.924 170.698 206.742 170.328 206.463 170.297C206.183 170.267 205.911 170.577 205.851 171Z" fill="#263238"/>
<path d="M206.332 170.299L207.397 170.133C207.397 170.133 206.77 170.873 206.332 170.299Z" fill="#263238"/>
<path d="M204.264 171.589C204.523 172.617 204.922 173.603 205.451 174.521C205.21 174.647 204.946 174.721 204.675 174.737C204.403 174.752 204.132 174.71 203.879 174.612L204.264 171.589Z" fill="#D38F84"/>
<path d="M201.341 175.988C201.546 176.05 201.756 176.093 201.968 176.117C201.984 176.12 202.001 176.12 202.017 176.117C202.032 176.114 202.048 176.107 202.061 176.098C202.074 176.089 202.086 176.077 202.095 176.063C202.103 176.05 202.109 176.035 202.112 176.019V176.019C202.112 175.985 202.1 175.952 202.078 175.927C202.055 175.902 202.024 175.886 201.991 175.882C201.456 175.823 200.943 175.64 200.492 175.348C200.041 175.055 199.664 174.661 199.392 174.197C199.384 174.183 199.374 174.17 199.362 174.159C199.35 174.149 199.335 174.141 199.32 174.136C199.304 174.131 199.288 174.129 199.272 174.13C199.255 174.132 199.24 174.137 199.225 174.145C199.196 174.159 199.173 174.185 199.162 174.216C199.151 174.247 199.152 174.281 199.165 174.311C199.397 174.721 199.71 175.081 200.083 175.37C200.457 175.658 200.885 175.868 201.341 175.988Z" fill="#263238"/>
<path d="M199.178 169.158C199.229 169.175 199.284 169.174 199.335 169.156C199.386 169.139 199.429 169.104 199.458 169.059C199.732 168.751 200.067 168.502 200.441 168.328C200.816 168.154 201.222 168.058 201.634 168.047C201.668 168.047 201.701 168.04 201.733 168.027C201.764 168.014 201.792 167.995 201.816 167.972C201.84 167.948 201.859 167.919 201.872 167.888C201.885 167.857 201.891 167.824 201.891 167.79C201.891 167.724 201.865 167.66 201.818 167.614C201.771 167.567 201.708 167.541 201.642 167.541C201.146 167.549 200.658 167.664 200.211 167.878C199.764 168.092 199.368 168.399 199.05 168.78C199.015 168.835 199.002 168.902 199.015 168.967C199.027 169.032 199.064 169.089 199.118 169.127C199.135 169.142 199.156 169.153 199.178 169.158V169.158Z" fill="#263238"/>
<path d="M207.588 168.953C207.632 168.964 207.679 168.965 207.723 168.954C207.768 168.944 207.81 168.923 207.844 168.893C207.891 168.844 207.916 168.779 207.916 168.711C207.916 168.644 207.891 168.579 207.844 168.53C207.574 168.225 207.233 167.991 206.851 167.848C206.469 167.706 206.057 167.66 205.653 167.714C205.621 167.718 205.59 167.728 205.563 167.743C205.535 167.759 205.51 167.78 205.49 167.806C205.471 167.831 205.456 167.86 205.448 167.891C205.439 167.922 205.437 167.954 205.442 167.986V167.986C205.453 168.051 205.489 168.109 205.543 168.147C205.597 168.186 205.664 168.201 205.729 168.19V168.19C206.053 168.15 206.382 168.188 206.688 168.301C206.994 168.414 207.269 168.599 207.489 168.84C207.511 168.886 207.545 168.925 207.588 168.953Z" fill="#263238"/>
<path d="M201.484 169.716L202.55 169.55C202.55 169.55 201.93 170.26 201.484 169.716Z" fill="#263238"/>
<path d="M205.227 159.848C205.227 159.848 206.239 164.502 203.171 166.905C201.797 167.046 200.44 167.325 199.121 167.736C199.707 166.753 200.073 165.655 200.194 164.517C200.194 164.517 198.683 167.736 197.376 168.462C196.108 168.738 194.897 169.229 193.794 169.913C193.992 168.394 194.458 166.923 195.169 165.568C193.173 168.096 192.061 171.21 192.003 174.431L189.275 172.618V165.061L190.787 161.676L194.255 159.341L195.766 158.374C195.766 158.374 199.423 158.616 199.627 158.374C199.831 158.132 202.166 158.049 202.166 158.049L205.227 159.848Z" fill="#263238"/>
<path d="M202.904 161.239C202.904 161.239 206.682 161.541 206.849 167.103C207.245 167.206 207.609 167.405 207.911 167.681C208.213 167.958 208.442 168.304 208.579 168.689C208.972 167.854 209.127 166.925 209.025 166.007C209.025 166.007 208.413 163.121 208.367 162.947C208.322 162.773 207.045 160.808 207.045 160.808L205.224 159.539L204.808 159.259L202.904 161.239Z" fill="#263238"/>
<path opacity="0.3" d="M136.165 184.735L132.85 185.093L133.312 181.673L136.628 181.315L136.165 184.735Z" fill="white"/>
</svg>
