<svg width="2153" height="527" viewBox="0 0 2153 527" fill="none" xmlns="http://www.w3.org/2000/svg">
<path opacity="0.8" d="M60.5078 0V382.053C60.5078 382.053 223.042 450.788 640.919 442.811C1058.8 434.835 1145.46 391.876 1650.01 471.049C1650.01 471.049 1828 504.185 2153 502.967V0H60.5078Z" fill="#4382EE"/>
<path opacity="0.7" d="M2041.19 504.84C1775.32 502.223 1623.87 476.364 1622.26 476.067C1319.52 423.883 1124.07 431.342 853.614 441.686C781.883 444.428 707.634 447.266 623.24 449.43C210.768 460.019 36.8925 409.456 34.9854 408.996L50.8432 406.149C52.6863 406.595 213.889 458.593 622.29 448.11C706.549 445.946 780.593 443.119 852.257 440.376C1124.62 429.971 1321.36 422.457 1626.62 475.067C1628.49 475.393 1812.28 506.744 2130.91 503.478L2131.25 504.804C2099.96 505.138 2069.9 505.123 2041.19 504.84Z" fill="#4382EE"/>
<path opacity="0.7" d="M2040.31 514.336C1774.44 511.719 1622.99 485.86 1621.38 485.563C1318.64 433.379 1123.19 440.838 852.734 451.182C781.003 453.925 706.754 456.763 622.361 458.926C209.888 469.516 19.3478 425.026 17.4408 424.566L18.373 420.841C20.2162 421.287 213.009 468.089 621.41 457.607C705.669 455.442 779.713 452.615 851.377 449.872C1123.74 439.467 1320.48 431.953 1625.74 484.564C1627.61 484.889 1811.4 516.24 2130.03 512.974L2130.37 514.301C2099.08 514.634 2069.02 514.619 2040.31 514.336Z" fill="#4382EE"/>
<path opacity="0.7" d="M2040.31 525.336C1774.44 522.719 1622.99 496.86 1621.38 496.563C1318.64 444.379 1123.19 451.838 852.734 462.182C781.003 464.925 706.754 467.763 622.361 469.926C209.888 480.516 19.3478 436.026 17.4408 435.566L18.373 431.841C20.2162 432.287 213.009 479.089 621.41 468.607C705.669 466.442 779.713 463.615 851.377 460.872C1123.74 450.467 1320.48 442.953 1625.74 495.564C1627.61 495.889 1811.4 527.24 2130.03 523.974L2130.37 525.301C2099.08 525.634 2069.02 525.619 2040.31 525.336Z" fill="#4382EE"/>
</svg>
