<svg width="235" height="249" viewBox="0 0 235 249" fill="none" xmlns="http://www.w3.org/2000/svg">
<path d="M116.948 248.914C177.762 248.914 227.062 241.865 227.062 233.171C227.062 224.477 177.762 217.429 116.948 217.429C56.1336 217.429 6.83398 224.477 6.83398 233.171C6.83398 241.865 56.1336 248.914 116.948 248.914Z" fill="#F5F5F5"/>
<path d="M163.97 127.699L156.414 134.504L162.756 141.3L163.97 127.699Z" fill="#407BFF"/>
<path opacity="0.7" d="M163.97 127.699L156.414 134.504L162.756 141.3L163.97 127.699Z" fill="white"/>
<path d="M205.187 154.148H162.296C162.108 154.152 161.921 154.116 161.748 154.042C161.575 153.969 161.42 153.861 161.293 153.724C161.166 153.588 161.071 153.426 161.012 153.251C160.954 153.075 160.935 152.889 160.955 152.705L163.46 124.611C163.496 124.216 163.682 123.848 163.981 123.581C164.281 123.314 164.671 123.167 165.076 123.168H207.958C208.146 123.165 208.333 123.201 208.506 123.274C208.679 123.347 208.834 123.455 208.961 123.592C209.088 123.728 209.184 123.89 209.242 124.066C209.3 124.241 209.32 124.427 209.299 124.611L206.795 152.705C206.758 153.099 206.573 153.466 206.276 153.733C205.978 154 205.59 154.148 205.187 154.148Z" fill="#407BFF"/>
<path opacity="0.7" d="M205.187 154.148H162.296C162.108 154.152 161.921 154.116 161.748 154.042C161.575 153.969 161.42 153.861 161.293 153.724C161.166 153.588 161.071 153.426 161.012 153.251C160.954 153.075 160.935 152.889 160.955 152.705L163.46 124.611C163.496 124.216 163.682 123.848 163.981 123.581C164.281 123.314 164.671 123.167 165.076 123.168H207.958C208.146 123.165 208.333 123.201 208.506 123.274C208.679 123.347 208.834 123.455 208.961 123.592C209.088 123.728 209.184 123.89 209.242 124.066C209.3 124.241 209.32 124.427 209.299 124.611L206.795 152.705C206.758 153.099 206.573 153.466 206.276 153.733C205.978 154 205.59 154.148 205.187 154.148Z" fill="white"/>
<path d="M166.008 126.909L163.976 150.406C163.957 150.595 163.977 150.785 164.036 150.964C164.094 151.144 164.19 151.309 164.316 151.448C164.443 151.588 164.597 151.698 164.768 151.773C164.94 151.848 165.125 151.884 165.312 151.881H202.643C203.043 151.883 203.43 151.732 203.726 151.459C204.023 151.186 204.207 150.81 204.243 150.406L206.276 126.909C206.296 126.722 206.277 126.532 206.219 126.352C206.161 126.173 206.067 126.007 205.941 125.868C205.815 125.728 205.661 125.618 205.49 125.543C205.319 125.468 205.134 125.431 204.947 125.435H167.593C167.195 125.437 166.812 125.59 166.519 125.862C166.226 126.135 166.044 126.508 166.008 126.909Z" fill="#407BFF"/>
<path opacity="0.4" d="M166.008 126.909L163.976 150.406C163.957 150.595 163.977 150.785 164.036 150.964C164.094 151.144 164.19 151.309 164.316 151.448C164.443 151.588 164.597 151.698 164.768 151.773C164.94 151.848 165.125 151.884 165.312 151.881H202.643C203.043 151.883 203.43 151.732 203.726 151.459C204.023 151.186 204.207 150.81 204.243 150.406L206.276 126.909C206.296 126.722 206.277 126.532 206.219 126.352C206.161 126.173 206.067 126.007 205.941 125.868C205.815 125.728 205.661 125.618 205.49 125.543C205.319 125.468 205.134 125.431 204.947 125.435H167.593C167.195 125.437 166.812 125.59 166.519 125.862C166.226 126.135 166.044 126.508 166.008 126.909Z" fill="white"/>
<path d="M199.079 41.5582H147.448C147.223 41.5594 147 41.5125 146.793 41.4203C146.587 41.3282 146.402 41.193 146.25 41.0235C146.099 40.854 145.985 40.654 145.915 40.4367C145.845 40.2193 145.821 39.9895 145.845 39.7622L148.859 4.81751C148.908 4.33155 149.131 3.88056 149.485 3.54967C149.84 3.21878 150.302 3.0309 150.783 3.02151H202.406C202.632 3.02025 202.855 3.06722 203.062 3.15936C203.268 3.25149 203.453 3.38672 203.604 3.55622C203.756 3.72571 203.87 3.92566 203.94 4.14299C204.01 4.36033 204.034 4.59018 204.01 4.81751L200.995 39.7622C200.945 40.2461 200.723 40.695 200.371 41.0254C200.018 41.3558 199.559 41.5451 199.079 41.5582Z" fill="#407BFF"/>
<path d="M6.22208 148.856H71.2638C71.5479 148.858 71.8291 148.797 72.0891 148.678C72.3491 148.559 72.5821 148.384 72.7727 148.164C72.9633 147.945 73.1074 147.686 73.1954 147.405C73.2835 147.124 73.3136 146.826 73.2837 146.532L69.4863 101.31C69.4247 100.681 69.1441 100.097 68.6976 99.6689C68.251 99.2407 67.6693 98.9975 67.0624 98.9854H2.03073C1.74664 98.9837 1.46542 99.0445 1.20542 99.1638C0.945427 99.283 0.712517 99.458 0.521889 99.6774C0.331261 99.8967 0.187202 100.155 0.0991364 100.437C0.0110779 100.718 -0.0190277 101.015 0.0108032 101.31L3.80828 146.532C3.87172 147.158 4.15148 147.739 4.5955 148.167C5.03952 148.594 5.61755 148.839 6.22208 148.856Z" fill="#407BFF"/>
<path opacity="0.7" d="M199.079 41.5582H147.448C147.223 41.5594 147 41.5125 146.793 41.4203C146.587 41.3282 146.402 41.193 146.25 41.0235C146.099 40.854 145.985 40.654 145.915 40.4367C145.845 40.2193 145.821 39.9895 145.845 39.7622L148.859 4.81751C148.908 4.33155 149.131 3.88056 149.485 3.54967C149.84 3.21878 150.302 3.0309 150.783 3.02151H202.406C202.632 3.02025 202.855 3.06722 203.062 3.15936C203.268 3.25149 203.453 3.38672 203.604 3.55622C203.756 3.72571 203.87 3.92566 203.94 4.14299C204.01 4.36033 204.034 4.59018 204.01 4.81751L200.995 39.7622C200.945 40.2461 200.723 40.695 200.371 41.0254C200.018 41.3558 199.559 41.5451 199.079 41.5582Z" fill="white"/>
<path opacity="0.7" d="M6.22208 148.856H71.2638C71.5479 148.858 71.8291 148.797 72.0891 148.678C72.3491 148.559 72.5821 148.384 72.7727 148.164C72.9633 147.945 73.1074 147.686 73.1954 147.405C73.2835 147.124 73.3136 146.826 73.2837 146.532L69.4863 101.31C69.4247 100.681 69.1441 100.097 68.6976 99.6689C68.251 99.2407 67.6693 98.9975 67.0624 98.9854H2.03073C1.74664 98.9837 1.46542 99.0445 1.20542 99.1638C0.945427 99.283 0.712517 99.458 0.521889 99.6774C0.331261 99.8967 0.187202 100.155 0.0991364 100.437C0.0110779 100.718 -0.0190277 101.015 0.0108032 101.31L3.80828 146.532C3.87172 147.158 4.15148 147.739 4.5955 148.167C5.03952 148.594 5.61755 148.839 6.22208 148.856Z" fill="white"/>
<path d="M151.327 8.56391L148.866 36.7657C148.843 36.9899 148.867 37.2166 148.936 37.4309C149.006 37.6452 149.121 37.8424 149.272 38.0095C149.423 38.1767 149.608 38.3101 149.814 38.4009C150.021 38.4918 150.244 38.5381 150.469 38.5369H195.839C196.321 38.5276 196.782 38.3423 197.137 38.016C197.491 37.6897 197.714 37.2449 197.763 36.7657L200.232 8.56391C200.254 8.34036 200.229 8.11457 200.159 7.90121C200.088 7.68785 199.974 7.49168 199.823 7.32543C199.672 7.15918 199.487 7.02656 199.281 6.93618C199.076 6.8458 198.853 6.79967 198.628 6.8008H153.259C152.777 6.8079 152.314 6.99118 151.959 7.31602C151.603 7.64087 151.378 8.08478 151.327 8.56391Z" fill="#407BFF"/>
<path d="M64.9187 105.074L67.9948 142.004C68.0244 142.298 67.9945 142.595 67.9071 142.876C67.8198 143.156 67.6769 143.414 67.4877 143.633C67.2986 143.852 67.0676 144.027 66.8096 144.146C66.5517 144.265 66.2727 144.325 65.9908 144.324H9.27892C8.67677 144.312 8.09968 144.069 7.65664 143.642C7.2136 143.214 6.93528 142.632 6.87418 142.004L3.78808 105.074C3.75999 104.781 3.79097 104.485 3.87902 104.206C3.96707 103.926 4.11023 103.669 4.29919 103.452C4.48815 103.234 4.71869 103.06 4.97588 102.942C5.23306 102.824 5.51112 102.763 5.79203 102.765H62.5039C63.1063 102.774 63.6845 103.014 64.1294 103.439C64.5743 103.865 64.8551 104.446 64.9187 105.074Z" fill="#407BFF"/>
<path opacity="0.4" d="M151.327 8.56391L148.866 36.7657C148.843 36.9899 148.867 37.2166 148.936 37.4309C149.006 37.6452 149.121 37.8424 149.272 38.0095C149.423 38.1767 149.608 38.3101 149.814 38.4009C150.021 38.4918 150.244 38.5381 150.469 38.5369H195.839C196.321 38.5276 196.782 38.3423 197.137 38.016C197.491 37.6897 197.714 37.2449 197.763 36.7657L200.232 8.56391C200.254 8.34036 200.229 8.11457 200.159 7.90121C200.088 7.68785 199.974 7.49168 199.823 7.32543C199.672 7.15918 199.487 7.02656 199.281 6.93618C199.076 6.8458 198.853 6.79967 198.628 6.8008H153.259C152.777 6.8079 152.314 6.99118 151.959 7.31602C151.603 7.64087 151.378 8.08478 151.327 8.56391Z" fill="white"/>
<path opacity="0.4" d="M64.9187 105.074L67.9948 142.004C68.0244 142.298 67.9945 142.595 67.9071 142.876C67.8198 143.156 67.6769 143.414 67.4877 143.633C67.2986 143.852 67.0676 144.027 66.8096 144.146C66.5517 144.265 66.2727 144.325 65.9908 144.324H9.27892C8.67677 144.312 8.09968 144.069 7.65664 143.642C7.2136 143.214 6.93528 142.632 6.87418 142.004L3.78808 105.074C3.75999 104.781 3.79097 104.485 3.87902 104.206C3.96707 103.926 4.11023 103.669 4.29919 103.452C4.48815 103.234 4.71869 103.06 4.97588 102.942C5.23306 102.824 5.51112 102.763 5.79203 102.765H62.5039C63.1063 102.774 63.6845 103.014 64.1294 103.439C64.5743 103.865 64.8551 104.446 64.9187 105.074Z" fill="white"/>
<path d="M177.132 12.2985L177.619 6.80078H175.729L175.195 12.9877L170.794 28.8157H159.798L162.262 15.6324L165.395 6.80078H163.434L160.444 15.2157L157.741 29.6091L154.902 38.5369H156.856L159.336 30.7231H170.259L168.091 38.5369H170.02L174.174 23.5985H186.366L182.762 38.5369H184.683L188.335 23.3981L199.347 20.6653L199.474 19.1907L187.474 22.1639H174.573L176.917 13.741L190.105 12.8354L200.112 11.8577L200.24 10.4232L190.105 11.4089L177.132 12.2985Z" fill="white"/>
<path d="M33.8038 109.964L33.1877 102.765H35.5814L36.258 110.867L41.8331 131.594H55.7606L52.6398 114.33L48.6706 102.765H51.1552L54.9426 113.784L58.3664 132.633L61.9619 144.324H59.4875L56.3465 134.091H42.5098L45.2569 144.324H42.8128L37.5508 124.762H22.1082L26.6734 144.324H24.2393L19.6136 124.499L5.66584 120.921L5.50427 118.99L20.7044 122.883H37.0458L34.0765 111.853L17.3715 110.667L4.69627 109.387L4.53468 107.508L17.3715 108.799L33.8038 109.964Z" fill="white"/>
<path d="M182.862 15.1123H180.59L178.326 17.5049V20.4017H185.127V17.5049L182.862 15.1123Z" fill="#407BFF"/>
<path d="M26.4438 113.344H29.4731L32.4922 116.42V120.144H23.4247V116.42L26.4438 113.344Z" fill="#407BFF"/>
<path opacity="0.3" d="M182.862 15.1123H180.59L178.326 17.5049V20.4017H185.127V17.5049L182.862 15.1123Z" fill="black"/>
<path opacity="0.3" d="M26.4438 113.344H29.4731L32.4922 116.42V120.144H23.4247V116.42L26.4438 113.344Z" fill="black"/>
<path d="M178.326 17.5049L180.589 15.1123L182.86 17.5049V20.4017H178.326V17.5049Z" fill="#407BFF"/>
<path d="M32.4922 116.42L29.4748 113.344L26.4472 116.42V120.144H32.4922V116.42Z" fill="#407BFF"/>
<path d="M181.729 0C180.226 0 178.784 0.570432 177.721 1.58581C176.659 2.60118 176.062 3.97833 176.062 5.41429C176.062 8.39784 181.729 14.3568 181.729 14.3568C181.729 14.3568 187.396 8.40597 187.396 5.41429C187.396 4.70328 187.249 3.99922 186.964 3.34233C186.68 2.68544 186.262 2.08857 185.736 1.58581C185.21 1.08304 184.585 0.684234 183.897 0.412141C183.21 0.140047 182.473 0 181.729 0ZM181.729 7.66618C181.26 7.66617 180.803 7.53342 180.414 7.28473C180.024 7.03603 179.721 6.68258 179.542 6.26914C179.364 5.85571 179.317 5.40087 179.409 4.96225C179.501 4.52363 179.727 4.12095 180.059 3.80521C180.391 3.48946 180.813 3.27486 181.272 3.18858C181.732 3.1023 182.208 3.14821 182.64 3.32052C183.072 3.49282 183.441 3.78376 183.7 4.15648C183.959 4.52921 184.096 4.96696 184.094 5.41429C184.094 5.7107 184.033 6.00419 183.914 6.27793C183.795 6.55168 183.621 6.80028 183.401 7.0095C183.181 7.21871 182.92 7.38441 182.633 7.4971C182.346 7.60979 182.039 7.66725 181.729 7.66618Z" fill="#407BFF"/>
<path d="M27.9582 93.6982C29.7618 93.6982 31.4916 94.4488 32.767 95.7848C34.0423 97.1209 34.7588 98.9329 34.7588 100.822C34.7588 104.748 27.9582 112.589 27.9582 112.589C27.9582 112.589 21.1576 104.759 21.1576 100.822C21.1576 99.8868 21.3335 98.9604 21.6753 98.096C22.0171 97.2317 22.518 96.4464 23.1495 95.7848C23.781 95.1233 24.5306 94.5986 25.3557 94.2405C26.1808 93.8825 27.0651 93.6982 27.9582 93.6982ZM27.9582 103.785C28.5201 103.785 29.0693 103.611 29.5364 103.283C30.0034 102.956 30.3672 102.491 30.5818 101.947C30.7963 101.403 30.8519 100.805 30.7416 100.228C30.6312 99.6504 30.3598 99.1205 29.9618 98.7051C29.5638 98.2896 29.057 98.0073 28.5057 97.8937C27.9544 97.7802 27.3833 97.8406 26.8648 98.0673C26.3463 98.2941 25.9036 98.6769 25.593 99.1673C25.2823 99.6577 25.1175 100.234 25.1195 100.822C25.1195 101.212 25.193 101.598 25.3358 101.959C25.4786 102.319 25.6878 102.646 25.9516 102.921C26.2153 103.197 26.5283 103.415 26.8727 103.563C27.217 103.711 27.5859 103.787 27.9582 103.785Z" fill="#407BFF"/>
<path d="M148.101 21.1562L141.301 27.579L147.001 34.0018L148.101 21.1562Z" fill="#407BFF"/>
<path d="M69.5175 122.41L78.585 130.722L70.9846 139.034L69.5175 122.41Z" fill="#407BFF"/>
<path opacity="0.7" d="M148.101 21.1562L141.301 27.579L147.001 34.0018L148.101 21.1562Z" fill="white"/>
<path opacity="0.7" d="M69.5175 122.41L78.585 130.722L70.9846 139.034L69.5175 122.41Z" fill="white"/>
<path d="M71.877 61.9608H25.7948C25.5689 61.9621 25.3453 61.9155 25.1385 61.824C24.9318 61.7325 24.7465 61.5982 24.595 61.4299C24.4434 61.2616 24.3288 61.063 24.2588 60.8472C24.1888 60.6314 24.1648 60.4032 24.1886 60.1774L28.2041 13.8733C28.2514 13.3901 28.474 12.9412 28.8294 12.6123C29.1849 12.2834 29.6484 12.0974 30.1315 12.0899H76.2137C76.4396 12.0886 76.6633 12.1353 76.87 12.2267C77.0767 12.3182 77.262 12.4525 77.4135 12.6208C77.5651 12.7891 77.6797 12.9877 77.7497 13.2035C77.8197 13.4193 77.8437 13.6475 77.8199 13.8733L73.8044 60.1774C73.7538 60.6593 73.5302 61.1062 73.1754 61.4344C72.8207 61.7626 72.3591 61.9498 71.877 61.9608Z" fill="#407BFF"/>
<path opacity="0.7" d="M71.877 61.9608H25.7948C25.5689 61.9621 25.3453 61.9155 25.1385 61.824C24.9318 61.7325 24.7465 61.5982 24.595 61.4299C24.4434 61.2616 24.3288 61.063 24.2588 60.8472C24.1888 60.6314 24.1648 60.4032 24.1886 60.1774L28.2041 13.8733C28.2514 13.3901 28.474 12.9412 28.8294 12.6123C29.1849 12.2834 29.6484 12.0974 30.1315 12.0899H76.2137C76.4396 12.0886 76.6633 12.1353 76.87 12.2267C77.0767 12.3182 77.262 12.4525 77.4135 12.6208C77.5651 12.7891 77.6797 12.9877 77.7497 13.2035C77.8197 13.4193 77.8437 13.6475 77.8199 13.8733L73.8044 60.1774C73.7538 60.6593 73.5302 61.1062 73.1754 61.4344C72.8207 61.7626 72.3591 61.9498 71.877 61.9608Z" fill="white"/>
<path d="M30.7438 16.8866L27.2111 57.1641C27.1872 57.3887 27.2113 57.6157 27.2816 57.8304C27.3519 58.0451 27.467 58.2426 27.6192 58.4101C27.7714 58.5775 27.9574 58.7111 28.1651 58.8022C28.3727 58.8932 28.5973 58.9396 28.8242 58.9383H69.2806C69.7667 58.931 70.2332 58.7463 70.5915 58.4192C70.9498 58.0921 71.175 57.6455 71.2244 57.1641L74.7974 16.8866C74.8212 16.662 74.7972 16.4349 74.7268 16.2202C74.6565 16.0055 74.5415 15.808 74.3893 15.6406C74.237 15.4731 74.051 15.3395 73.8434 15.2485C73.6357 15.1575 73.4112 15.1111 73.1843 15.1123H32.6795C32.1942 15.1199 31.7288 15.3049 31.3718 15.6321C31.0148 15.9593 30.7912 16.4058 30.7438 16.8866Z" fill="#407BFF"/>
<path opacity="0.2" d="M30.7438 16.8866L27.2111 57.1641C27.1872 57.3887 27.2113 57.6157 27.2816 57.8304C27.3519 58.0451 27.467 58.2426 27.6192 58.4101C27.7714 58.5775 27.9574 58.7111 28.1651 58.8022C28.3727 58.8932 28.5973 58.9396 28.8242 58.9383H69.2806C69.7667 58.931 70.2332 58.7463 70.5915 58.4192C70.9498 58.0921 71.175 57.6455 71.2244 57.1641L74.7974 16.8866C74.8212 16.662 74.7972 16.4349 74.7268 16.2202C74.6565 16.0055 74.5415 15.808 74.3893 15.6406C74.237 15.4731 74.051 15.3395 73.8434 15.2485C73.6357 15.1575 73.4112 15.1111 73.1843 15.1123H32.6795C32.1942 15.1199 31.7288 15.3049 31.3718 15.6321C31.0148 15.9593 30.7912 16.4058 30.7438 16.8866Z" fill="white"/>
<path d="M71.0279 46.4692L66.4964 20.4033L64.0558 20.6693L60.4492 47.6057L71.0279 46.4692Z" fill="#407BFF"/>
<path opacity="0.3" d="M71.0279 46.4692L66.4964 20.4033L64.0558 20.6693L60.4492 47.6057L71.0279 46.4692Z" fill="black"/>
<path d="M62.7489 47.0916L28.7139 50.6282L32.46 23.9399L66.4949 20.4033L62.7489 47.0916Z" fill="#407BFF"/>
<path opacity="0.9" d="M62.7489 47.0916L28.7139 50.6282L32.46 23.9399L66.4949 20.4033L62.7489 47.0916Z" fill="white"/>
<path d="M53.2508 29.0957L34.0029 30.981L34.3933 28.3326L53.6491 26.4473L53.2508 29.0957Z" fill="#407BFF"/>
<path d="M35.8009 41.9654L32.4922 42.3152L32.9616 38.8947L36.2703 38.5371L35.8009 41.9654Z" fill="#407BFF"/>
<path d="M35.0507 47.2477L31.7354 47.6053L32.1981 44.1848L35.5135 43.8271L35.0507 47.2477Z" fill="#407BFF"/>
<path opacity="0.3" d="M35.8009 41.9654L32.4922 42.3152L32.9616 38.8947L36.2703 38.5371L35.8009 41.9654Z" fill="white"/>
<path opacity="0.3" d="M35.0507 47.2477L31.7354 47.6053L32.1981 44.1848L35.5135 43.8271L35.0507 47.2477Z" fill="white"/>
<path d="M36.5624 36.6763L33.2471 37.0262L33.7099 33.6057L37.0252 33.248L36.5624 36.6763Z" fill="#407BFF"/>
<path d="M41.7587 36.6686L37.7803 37.0262L38.3356 33.6057L42.314 33.248L41.7587 36.6686Z" fill="#407BFF"/>
<path opacity="0.7" d="M36.5624 36.6763L33.2471 37.0262L33.7099 33.6057L37.0252 33.248L36.5624 36.6763Z" fill="white"/>
<path opacity="0.7" d="M41.7587 36.6686L37.7803 37.0262L38.3356 33.6057L42.314 33.248L41.7587 36.6686Z" fill="white"/>
<path d="M41.0889 41.2018L37.7803 41.5594L38.2497 38.1311L41.5584 37.7812L41.0889 41.2018Z" fill="#407BFF"/>
<path d="M40.3417 46.4969L37.0264 46.8474L37.4891 43.4199L40.8045 43.0693L40.3417 46.4969Z" fill="#407BFF"/>
<path d="M46.379 35.9117L43.0703 36.2693L43.5397 32.841L46.8484 32.4912L46.379 35.9117Z" fill="#407BFF"/>
<path d="M45.6308 41.2088L42.3154 41.5594L42.7782 38.1318L46.0935 37.7812L45.6308 41.2088Z" fill="#407BFF"/>
<path d="M44.8683 45.7437L41.5596 46.0935L42.029 42.673L45.3377 42.3154L44.8683 45.7437Z" fill="#407BFF"/>
<path d="M51.5739 35.1646L47.6035 35.5144L48.1668 32.0939L52.1372 31.7363L51.5739 35.1646Z" fill="#407BFF"/>
<path d="M50.829 40.4459L46.8506 40.8035L47.415 37.383L51.3843 37.0254L50.829 40.4459Z" fill="#407BFF"/>
<path d="M50.1659 45.7359L46.8506 46.0935L47.3134 42.673L50.6287 42.3154L50.1659 45.7359Z" fill="#407BFF"/>
<path d="M56.2099 35.1568L52.8945 35.5144L53.3573 32.0939L56.6726 31.7363L56.2099 35.1568Z" fill="#407BFF"/>
<path d="M55.4464 39.691L52.1377 40.0486L52.6071 36.6203L55.9158 36.2705L55.4464 39.691Z" fill="#407BFF"/>
<path d="M54.6972 44.9871L51.3818 45.3377L51.8446 41.9101L55.1599 41.5596L54.6972 44.9871Z" fill="#407BFF"/>
<path opacity="0.3" d="M41.0889 41.2018L37.7803 41.5594L38.2497 38.1311L41.5584 37.7812L41.0889 41.2018Z" fill="white"/>
<path opacity="0.3" d="M40.3417 46.4969L37.0264 46.8474L37.4891 43.4199L40.8045 43.0693L40.3417 46.4969Z" fill="white"/>
<path opacity="0.3" d="M46.379 35.9117L43.0703 36.2693L43.5397 32.841L46.8484 32.4912L46.379 35.9117Z" fill="white"/>
<path opacity="0.3" d="M45.6308 41.2088L42.3154 41.5594L42.7782 38.1318L46.0935 37.7812L45.6308 41.2088Z" fill="white"/>
<path opacity="0.3" d="M44.8683 45.7437L41.5596 46.0935L42.029 42.673L45.3377 42.3154L44.8683 45.7437Z" fill="white"/>
<path opacity="0.3" d="M51.5739 35.1646L47.6035 35.5144L48.1668 32.0939L52.1372 31.7363L51.5739 35.1646Z" fill="white"/>
<path opacity="0.3" d="M50.829 40.4459L46.8506 40.8035L47.415 37.383L51.3843 37.0254L50.829 40.4459Z" fill="white"/>
<path opacity="0.3" d="M56.2099 35.1568L52.8945 35.5144L53.3573 32.0939L56.6726 31.7363L56.2099 35.1568Z" fill="white"/>
<path opacity="0.3" d="M55.4464 39.691L52.1377 40.0486L52.6071 36.6203L55.9158 36.2705L55.4464 39.691Z" fill="white"/>
<path opacity="0.3" d="M54.6972 44.9871L51.3818 45.3377L51.8446 41.9101L55.1599 41.5596L54.6972 44.9871Z" fill="white"/>
<path d="M61.4061 34.409L57.4277 34.7596L57.9922 31.332L61.9615 30.9814L61.4061 34.409Z" fill="#407BFF"/>
<path d="M60.6423 39.6981L56.6719 40.0486L57.2352 36.6211L61.2056 36.2705L60.6423 39.6981Z" fill="#407BFF"/>
<path opacity="0.2" d="M61.4061 34.409L57.4277 34.7596L57.9922 31.332L61.9615 30.9814L61.4061 34.409Z" fill="black"/>
<path opacity="0.2" d="M60.6423 39.6981L56.6719 40.0486L57.2352 36.6211L61.2056 36.2705L60.6423 39.6981Z" fill="black"/>
<path d="M59.8864 44.231L55.916 44.5808L56.4793 41.1603L60.4497 40.8027L59.8864 44.231Z" fill="#407BFF"/>
<path opacity="0.7" d="M59.8864 44.231L55.916 44.5808L56.4793 41.1603L60.4497 40.8027L59.8864 44.231Z" fill="white"/>
<path d="M169.098 130.644C168.333 130.644 167.34 131.582 167.34 132.528V142.689L171.351 143.256C171.999 142.144 173.217 141.388 174.6 141.388C176.205 141.388 177.581 142.394 178.108 143.809H192.491C193.018 142.394 194.394 141.388 195.999 141.388C197.603 141.388 198.979 142.394 199.506 143.809H202.8V137.968L200.393 130.644H169.098ZM168.41 131.703H199.407L201.363 137.907H188.127V142.75H180.637V137.907H168.41V131.703ZM169.785 133.065V136.545H174.524V133.065H169.785ZM175.899 133.065V136.545H180.637V133.065H175.899ZM182.013 133.065V141.388H183.694V133.065H182.013ZM185.07 133.065V141.388H186.751V133.065H185.07ZM188.127 133.065V136.545H192.865V133.065H188.127ZM194.745 133.065V136.545H199.499L198.398 133.065H194.745ZM174.6 142.75C173.286 142.75 172.231 143.794 172.231 145.095C172.231 146.396 173.286 147.441 174.6 147.441C175.915 147.441 176.969 146.396 176.969 145.095C176.969 143.794 175.915 142.75 174.6 142.75ZM195.999 142.75C194.684 142.75 193.629 143.794 193.629 145.095C193.629 146.396 194.684 147.441 195.999 147.441C197.313 147.441 198.368 146.396 198.368 145.095C198.368 143.794 197.313 142.75 195.999 142.75ZM174.6 144.49C174.762 144.49 174.918 144.554 175.032 144.667C175.147 144.781 175.211 144.935 175.211 145.095C175.211 145.256 175.147 145.41 175.032 145.523C174.918 145.637 174.762 145.7 174.6 145.7C174.438 145.7 174.282 145.637 174.168 145.523C174.053 145.41 173.989 145.256 173.989 145.095C173.989 144.935 174.053 144.781 174.168 144.667C174.282 144.554 174.438 144.49 174.6 144.49ZM195.999 144.49C196.161 144.49 196.316 144.554 196.431 144.667C196.546 144.781 196.61 144.935 196.61 145.095C196.61 145.256 196.546 145.41 196.431 145.523C196.316 145.637 196.161 145.7 195.999 145.7C195.836 145.7 195.681 145.637 195.566 145.523C195.452 145.41 195.387 145.256 195.387 145.095C195.387 144.935 195.452 144.781 195.566 144.667C195.681 144.554 195.836 144.49 195.999 144.49Z" fill="white"/>
<path d="M35.5234 24.9306C35.4278 24.9423 35.3309 24.9332 35.239 24.9039C35.1471 24.8745 35.0623 24.8256 34.9901 24.7604C34.9179 24.6952 34.86 24.6151 34.8202 24.5253C34.7803 24.4356 34.7594 24.3383 34.7588 24.2397V22.7656C34.7598 22.555 34.8365 22.3523 34.9742 22.1959C35.1119 22.0396 35.301 21.9407 35.5054 21.918C35.601 21.9063 35.6979 21.9155 35.7898 21.9448C35.8817 21.9741 35.9665 22.023 36.0387 22.0882C36.1109 22.1535 36.1688 22.2336 36.2087 22.3233C36.2485 22.4131 36.2694 22.5104 36.27 22.609V24.0831C36.269 24.2936 36.1923 24.4964 36.0546 24.6527C35.9169 24.8091 35.7278 24.908 35.5234 24.9306Z" fill="#263238"/>
<path d="M201.4 115.713C202.761 115.713 204.066 116.269 205.029 117.259C205.992 118.249 206.532 119.592 206.532 120.992C206.532 123.901 201.4 129.71 201.4 129.71C201.4 129.71 196.267 123.909 196.267 120.992C196.267 120.298 196.4 119.612 196.658 118.972C196.916 118.331 197.294 117.749 197.771 117.259C198.247 116.769 198.813 116.38 199.436 116.115C200.058 115.849 200.726 115.713 201.4 115.713ZM201.4 123.187C201.824 123.187 202.238 123.058 202.591 122.815C202.943 122.573 203.218 122.228 203.38 121.825C203.542 121.422 203.584 120.979 203.5 120.551C203.417 120.123 203.212 119.731 202.912 119.423C202.612 119.115 202.229 118.906 201.813 118.822C201.397 118.738 200.966 118.782 200.575 118.95C200.183 119.118 199.849 119.402 199.615 119.765C199.38 120.129 199.256 120.556 199.257 120.992C199.257 121.281 199.313 121.567 199.421 121.834C199.528 122.101 199.686 122.343 199.885 122.547C200.084 122.751 200.321 122.913 200.581 123.022C200.84 123.132 201.119 123.188 201.4 123.187Z" fill="#407BFF"/>
<path d="M39.3097 24.1763C39.2137 24.185 39.1164 24.1781 39.024 24.1562C38.9316 24.1343 38.8463 24.0977 38.7734 24.0489C38.7005 24.0001 38.6418 23.9401 38.6009 23.8728C38.56 23.8054 38.538 23.7323 38.5361 23.658V22.5525C38.5369 22.3956 38.6123 22.2444 38.7482 22.1273C38.8841 22.0102 39.071 21.9353 39.2738 21.9167C39.3698 21.9081 39.4671 21.9149 39.5595 21.9368C39.6519 21.9588 39.7372 21.9953 39.8101 22.0442C39.883 22.093 39.9417 22.153 39.9826 22.2203C40.0235 22.2876 40.0455 22.3607 40.0474 22.435V23.5406C40.0447 23.697 39.9686 23.8475 39.8331 23.9642C39.6976 24.081 39.5118 24.1563 39.3097 24.1763Z" fill="#263238"/>
<path d="M43.08 24.1738C42.9845 24.1855 42.8876 24.1764 42.7957 24.147C42.7037 24.1177 42.6189 24.0688 42.5467 24.0036C42.4746 23.9383 42.4166 23.8582 42.3768 23.7685C42.3369 23.6788 42.316 23.5814 42.3154 23.4828V22.0088C42.3164 21.7982 42.3931 21.5954 42.5308 21.4391C42.6686 21.2827 42.8577 21.1838 43.062 21.1612C43.1576 21.1495 43.2546 21.1586 43.3465 21.188C43.4384 21.2173 43.5232 21.2662 43.5953 21.3314C43.6675 21.3966 43.7255 21.4767 43.7653 21.5665C43.8052 21.6562 43.8261 21.7536 43.8267 21.8521V23.3262C43.8134 23.5329 43.7324 23.7289 43.597 23.8827C43.4615 24.0365 43.2794 24.139 43.08 24.1738Z" fill="#263238"/>
<path d="M46.8664 23.4175C46.7706 23.4284 46.6729 23.4234 46.5799 23.4027C46.4869 23.3819 46.4008 23.3461 46.3274 23.2975C46.254 23.2489 46.1951 23.1887 46.1546 23.121C46.1141 23.0534 46.093 22.9798 46.0928 22.9053V21.7977C46.1061 21.6424 46.187 21.4951 46.3225 21.3796C46.4579 21.2641 46.64 21.187 46.8394 21.1609C46.9345 21.151 47.0312 21.1569 47.1231 21.1781C47.215 21.1993 47.3 21.2354 47.3723 21.2838C47.4447 21.3323 47.5028 21.3921 47.5427 21.4593C47.5827 21.5264 47.6036 21.5993 47.604 21.6731V22.7807C47.6052 22.9382 47.5305 23.0905 47.3942 23.2082C47.258 23.3258 47.0699 23.4004 46.8664 23.4175Z" fill="#263238"/>
<path d="M50.6357 23.4196C50.5406 23.4328 50.4439 23.4249 50.352 23.3966C50.2601 23.3683 50.1751 23.3203 50.1027 23.2556C50.0304 23.1909 49.9723 23.1112 49.9324 23.0216C49.8924 22.9321 49.8715 22.8348 49.8711 22.7363V21.2589C49.8719 21.0493 49.9473 20.8472 50.0831 20.6908C50.219 20.5343 50.406 20.4342 50.6087 20.4094C50.7043 20.3964 50.8014 20.4043 50.8938 20.4325C50.9861 20.4607 51.0716 20.5086 51.1447 20.5731C51.2177 20.6377 51.2767 20.7173 51.3176 20.8069C51.3586 20.8964 51.3806 20.9938 51.3823 21.0927V22.5701C51.3794 22.7806 51.302 22.9827 51.1647 23.139C51.0273 23.2953 50.8394 23.395 50.6357 23.4196Z" fill="#263238"/>
<path d="M54.4221 22.6646C54.3263 22.6755 54.2286 22.6704 54.1356 22.6497C54.0426 22.629 53.9564 22.5931 53.883 22.5446C53.8097 22.496 53.7507 22.4358 53.7102 22.3681C53.6697 22.3004 53.6487 22.2268 53.6484 22.1523V21.0448C53.6514 20.887 53.7287 20.7355 53.8661 20.6183C54.0034 20.5012 54.1914 20.4264 54.3951 20.408C54.4901 20.3981 54.5869 20.404 54.6788 20.4252C54.7707 20.4464 54.8557 20.4824 54.928 20.5309C55.0004 20.5794 55.0585 20.6392 55.0984 20.7063C55.1384 20.7734 55.1593 20.8464 55.1597 20.9202V22.0277C55.1589 22.1849 55.0835 22.3364 54.9476 22.4537C54.8118 22.571 54.6248 22.646 54.4221 22.6646Z" fill="#263238"/>
<path d="M58.2014 22.6609C58.1058 22.6739 58.0087 22.6661 57.9163 22.6379C57.824 22.6097 57.7384 22.5617 57.6654 22.4972C57.5923 22.4327 57.5334 22.353 57.4925 22.2635C57.4515 22.1739 57.4294 22.0765 57.4277 21.9776V20.5002C57.4265 20.29 57.5013 20.0868 57.6375 19.9299C57.7738 19.773 57.9618 19.6735 58.1654 19.6506C58.2609 19.6376 58.358 19.6455 58.4504 19.6737C58.5428 19.7019 58.6283 19.7498 58.7013 19.8144C58.7744 19.8789 58.8333 19.9585 58.8743 20.0481C58.9152 20.1376 58.9373 20.2351 58.939 20.334V21.8114C58.9382 22.021 58.8628 22.2231 58.7269 22.3796C58.591 22.536 58.4041 22.6361 58.2014 22.6609Z" fill="#263238"/>
<path d="M61.9687 21.9077C61.8739 21.9164 61.7777 21.9097 61.6864 21.8881C61.5952 21.8664 61.5108 21.8303 61.4387 21.782C61.3667 21.7337 61.3086 21.6743 61.2682 21.6076C61.2278 21.541 61.206 21.4686 61.2041 21.395V20.2865C61.2031 20.1278 61.2791 19.9744 61.4172 19.8565C61.5553 19.7387 61.7456 19.6647 61.9507 19.6492C62.0458 19.6393 62.1425 19.6452 62.2344 19.6664C62.3263 19.6876 62.4113 19.7237 62.4837 19.7722C62.556 19.8208 62.6141 19.8806 62.6541 19.9478C62.694 20.015 62.7149 20.0879 62.7153 20.1618V21.2703C62.7143 21.4286 62.6376 21.5811 62.4999 21.6987C62.3622 21.8163 62.1731 21.8907 61.9687 21.9077Z" fill="#263238"/>
<g opacity="0.5">
<path d="M35.6778 24.8407C35.5925 24.8509 35.506 24.8429 35.4239 24.8173C35.3418 24.7918 35.2661 24.7491 35.2017 24.6923C35.1372 24.6354 35.0855 24.5656 35.0499 24.4873C35.0143 24.4091 34.9956 24.3242 34.9951 24.2383V22.9532C34.996 22.7696 35.0645 22.5928 35.1875 22.4565C35.3104 22.3202 35.4793 22.234 35.6618 22.2143C35.7471 22.2041 35.8336 22.212 35.9157 22.2376C35.9978 22.2632 36.0735 22.3058 36.1379 22.3627C36.2024 22.4195 36.2541 22.4894 36.2897 22.5676C36.3253 22.6458 36.344 22.7307 36.3445 22.8167V24.1018C36.3436 24.2853 36.2751 24.4621 36.1521 24.5984C36.0292 24.7347 35.8603 24.821 35.6778 24.8407Z" fill="white"/>
<path d="M39.4691 24.4481C39.3833 24.4582 39.2964 24.4502 39.2139 24.4247C39.1315 24.3992 39.0552 24.3567 38.9902 24.3C38.9251 24.2432 38.8726 24.1735 38.8362 24.0952C38.7997 24.017 38.78 23.932 38.7783 23.8457V22.5606C38.779 22.3782 38.8463 22.2025 38.9677 22.0663C39.089 21.9302 39.2559 21.8432 39.4369 21.8216C39.5227 21.8115 39.6096 21.8195 39.6921 21.845C39.7745 21.8705 39.8508 21.913 39.9158 21.9697C39.9809 22.0265 40.0334 22.0962 40.0698 22.1745C40.1063 22.2527 40.126 22.3377 40.1277 22.424V23.7091C40.1253 23.891 40.0574 24.0658 39.9364 24.2016C39.8154 24.3373 39.6494 24.4249 39.4691 24.4481Z" fill="white"/>
<path d="M43.252 24.0536C43.1667 24.0638 43.0802 24.0558 42.9981 24.0302C42.9161 24.0047 42.8403 23.962 42.7759 23.9052C42.7114 23.8483 42.6597 23.7785 42.6241 23.7002C42.5885 23.622 42.5699 23.5371 42.5693 23.4512V22.1661C42.5702 21.9825 42.6387 21.8057 42.7617 21.6694C42.8846 21.5331 43.0535 21.4469 43.236 21.4271C43.3213 21.417 43.4079 21.4249 43.4899 21.4505C43.572 21.4761 43.6477 21.5187 43.7121 21.5756C43.7766 21.6324 43.8283 21.7023 43.8639 21.7805C43.8995 21.8587 43.9182 21.9436 43.9187 22.0295V23.3147C43.9068 23.4948 43.8346 23.6657 43.7136 23.7998C43.5926 23.9339 43.43 24.0233 43.252 24.0536Z" fill="white"/>
<path d="M47.0433 23.6531C46.9578 23.6658 46.8705 23.6599 46.7875 23.6359C46.7045 23.6118 46.6276 23.5702 46.562 23.5138C46.4965 23.4574 46.4439 23.3876 46.4077 23.3091C46.3716 23.2306 46.3528 23.1452 46.3525 23.0587V21.7736C46.3644 21.5934 46.4367 21.4225 46.5576 21.2885C46.6786 21.1544 46.8412 21.065 47.0192 21.0347C47.1041 21.0233 47.1905 21.0301 47.2725 21.0547C47.3546 21.0793 47.4304 21.1211 47.4951 21.1774C47.5597 21.2336 47.6115 21.303 47.6472 21.3809C47.6829 21.4588 47.7015 21.5434 47.7019 21.629V22.9141C47.703 23.097 47.6362 23.2737 47.5146 23.4102C47.393 23.5467 47.225 23.6332 47.0433 23.6531Z" fill="white"/>
<path d="M50.8272 23.2575C50.7423 23.2689 50.656 23.2621 50.5739 23.2375C50.4919 23.2129 50.416 23.1711 50.3514 23.1148C50.2868 23.0586 50.2349 22.9892 50.1992 22.9113C50.1636 22.8334 50.1449 22.7488 50.1445 22.6631V21.378C50.1452 21.1957 50.2126 21.0199 50.3339 20.8838C50.4552 20.7477 50.6221 20.6607 50.8032 20.6391C50.8885 20.6278 50.9752 20.6346 51.0577 20.6591C51.1401 20.6837 51.2165 20.7254 51.2817 20.7815C51.3469 20.8376 51.3996 20.9069 51.4361 20.9848C51.4727 21.0627 51.4924 21.1474 51.4939 21.2335V22.5186C51.4912 22.7016 51.4222 22.8775 51.2995 23.0134C51.1769 23.1494 51.0091 23.2361 50.8272 23.2575Z" fill="white"/>
<path d="M54.6185 22.865C54.533 22.8777 54.4457 22.8718 54.3627 22.8478C54.2796 22.8237 54.2027 22.7821 54.1372 22.7257C54.0717 22.6693 54.0191 22.5995 53.9829 22.521C53.9468 22.4425 53.928 22.3571 53.9277 22.2706V20.9855C53.9304 20.8025 53.9994 20.6266 54.1221 20.4907C54.2447 20.3547 54.4125 20.268 54.5944 20.2466C54.6793 20.2352 54.7656 20.242 54.8477 20.2666C54.9298 20.2912 55.0056 20.333 55.0702 20.3893C55.1349 20.4455 55.1867 20.5149 55.2224 20.5928C55.2581 20.6707 55.2767 20.7553 55.2771 20.841V22.1261C55.2764 22.3084 55.2091 22.4842 55.0877 22.6203C54.9664 22.7564 54.7995 22.8434 54.6185 22.865Z" fill="white"/>
<path d="M58.4007 22.4724C58.3154 22.4837 58.2287 22.4769 58.1462 22.4523C58.0637 22.4278 57.9874 22.3861 57.9222 22.33C57.8569 22.2738 57.8043 22.2046 57.7677 22.1267C57.7312 22.0488 57.7115 21.964 57.71 21.878V20.5929C57.7089 20.4101 57.7756 20.2333 57.8973 20.0968C58.0189 19.9604 58.1869 19.8738 58.3686 19.854C58.4539 19.8426 58.5406 19.8494 58.6231 19.874C58.7056 19.8985 58.7819 19.9402 58.8471 19.9964C58.9124 20.0525 58.965 20.1218 59.0016 20.1996C59.0381 20.2775 59.0578 20.3623 59.0593 20.4483V21.7334C59.0587 21.9157 58.9913 22.0915 58.87 22.2276C58.7487 22.3637 58.5818 22.4508 58.4007 22.4724Z" fill="white"/>
<path d="M62.1837 22.0779C62.099 22.088 62.0132 22.0803 61.9317 22.0552C61.8501 22.0301 61.7748 21.9882 61.7105 21.9322C61.6462 21.8762 61.5943 21.8073 61.5582 21.73C61.5221 21.6528 61.5026 21.5688 61.501 21.4835V20.1984C61.5001 20.0143 61.568 19.8366 61.6913 19.6999C61.8146 19.5632 61.9844 19.4775 62.1676 19.4595C62.2525 19.4481 62.3389 19.4549 62.421 19.4795C62.503 19.5041 62.5789 19.5459 62.6435 19.6022C62.7081 19.6584 62.76 19.7278 62.7957 19.8057C62.8313 19.8836 62.85 19.9682 62.8504 20.0538V21.339C62.8494 21.5225 62.781 21.6993 62.658 21.8356C62.535 21.9719 62.3662 22.0581 62.1837 22.0779Z" fill="white"/>
</g>
<path d="M48.4449 37.6474C49.0964 37.4972 49.765 37.4972 50.4166 37.6474C51.7 38.123 50.474 39.8407 49.6638 40.1843C48.8535 40.5278 47.5773 40.2988 47.2833 39.1713C46.9392 37.85 48.1581 36.9162 49.0758 36.7401C49.3268 36.7401 49.3196 36.2292 49.0758 36.2732C47.9716 36.4758 46.6882 37.5064 46.8675 39.0568C47.0395 40.4661 48.3516 41.0035 49.4056 40.7392C50.3521 40.5102 51.6355 39.3386 51.3415 37.9997C51.0476 36.6608 49.2766 37.0396 48.4735 37.1188C48.2298 37.1188 48.2369 37.6209 48.4735 37.5857L48.4449 37.6474Z" fill="#407BFF"/>
<g opacity="0.4">
<path d="M48.4246 37.7642C49.1545 37.6273 49.9035 37.6273 50.6334 37.7642C52.0711 38.1979 50.6976 39.7642 49.79 40.0774C48.8824 40.3907 47.4527 40.1818 47.1234 39.1537C46.7379 37.9489 48.1033 37.0976 49.1314 36.9369C49.4125 36.9369 49.4045 36.4711 49.1314 36.5112C47.8945 36.696 46.4568 37.6357 46.6576 39.0493C46.8503 40.3344 48.3202 40.8244 49.5009 40.5834C50.5611 40.3746 51.9988 39.3063 51.6695 38.0855C51.3402 36.8646 49.3563 37.21 48.4567 37.2823C48.1836 37.2823 48.1917 37.7401 48.4567 37.708L48.4246 37.7642Z" fill="black"/>
</g>
<path d="M74.0508 46.0939L82.3626 38.5377L75.3929 30.9814L74.0508 46.0939Z" fill="#407BFF"/>
<path opacity="0.7" d="M74.0508 46.0939L82.3626 38.5377L75.3929 30.9814L74.0508 46.0939Z" fill="white"/>
<path d="M187.298 104.269H233.385C233.611 104.27 233.834 104.224 234.041 104.133C234.248 104.042 234.433 103.908 234.585 103.741C234.736 103.573 234.851 103.375 234.921 103.161C234.991 102.946 235.015 102.719 234.991 102.494L230.975 56.4069C230.928 55.926 230.705 55.4792 230.35 55.1519C229.994 54.8245 229.531 54.6394 229.048 54.6319H182.96C182.735 54.6306 182.511 54.677 182.304 54.7681C182.097 54.8592 181.912 54.9928 181.76 55.1603C181.609 55.3279 181.494 55.5255 181.424 55.7403C181.354 55.9551 181.33 56.1822 181.354 56.4069L185.37 102.494C185.421 102.974 185.644 103.418 185.999 103.745C186.354 104.072 186.815 104.258 187.298 104.269Z" fill="#407BFF"/>
<path opacity="0.7" d="M187.298 104.269H233.385C233.611 104.27 233.834 104.224 234.041 104.133C234.248 104.042 234.433 103.908 234.585 103.741C234.736 103.573 234.851 103.375 234.921 103.161C234.991 102.946 235.015 102.719 234.991 102.494L230.975 56.4069C230.928 55.926 230.705 55.4792 230.35 55.1519C229.994 54.8245 229.531 54.6394 229.048 54.6319H182.96C182.735 54.6306 182.511 54.677 182.304 54.7681C182.097 54.8592 181.912 54.9928 181.76 55.1603C181.609 55.3279 181.494 55.5255 181.424 55.7403C181.354 55.9551 181.33 56.1822 181.354 56.4069L185.37 102.494C185.421 102.974 185.644 103.418 185.999 103.745C186.354 104.072 186.815 104.258 187.298 104.269Z" fill="white"/>
<path d="M228.325 59.2995L231.843 99.5955C231.866 99.8202 231.842 100.047 231.772 100.262C231.702 100.477 231.588 100.675 231.436 100.842C231.285 101.01 231.099 101.143 230.893 101.234C230.686 101.325 230.462 101.372 230.236 101.371H189.948C189.464 101.363 189 101.178 188.643 100.851C188.286 100.524 188.062 100.077 188.013 99.5955L184.454 59.2995C184.431 59.0748 184.455 58.8476 184.525 58.6328C184.595 58.418 184.709 58.2204 184.861 58.0529C185.012 57.8854 185.198 57.7517 185.404 57.6607C185.611 57.5696 185.835 57.5232 186.061 57.5244H226.397C226.88 57.532 227.344 57.7171 227.699 58.0444C228.055 58.3718 228.277 58.8185 228.325 59.2995Z" fill="#407BFF"/>
<path opacity="0.2" d="M228.325 59.2995L231.843 99.5955C231.866 99.8202 231.842 100.047 231.772 100.262C231.702 100.477 231.588 100.675 231.436 100.842C231.285 101.01 231.099 101.143 230.893 101.234C230.686 101.325 230.462 101.372 230.236 101.371H189.948C189.464 101.363 189 101.178 188.643 100.851C188.286 100.524 188.062 100.077 188.013 99.5955L184.454 59.2995C184.431 59.0748 184.455 58.8476 184.525 58.6328C184.595 58.418 184.709 58.2204 184.861 58.0529C185.012 57.8854 185.198 57.7517 185.404 57.6607C185.611 57.5696 185.835 57.5232 186.061 57.5244H226.397C226.88 57.532 227.344 57.7171 227.699 58.0444C228.055 58.3718 228.277 58.8185 228.325 59.2995Z" fill="white"/>
<path d="M187.795 88.8717L192.478 62.8965L195 63.1615L198.727 90.0042L187.795 88.8717Z" fill="#407BFF"/>
<path opacity="0.3" d="M187.795 88.8717L192.478 62.8965L195 63.1615L198.727 90.0042L187.795 88.8717Z" fill="black"/>
<path d="M196.236 89.7471L230.388 93.3053L226.629 66.4546L192.477 62.8965L196.236 89.7471Z" fill="#407BFF"/>
<path opacity="0.9" d="M196.236 89.7471L230.388 93.3053L226.629 66.4546L192.477 62.8965L196.236 89.7471Z" fill="white"/>
<path d="M205.586 71.6685L224.991 73.6925L224.598 70.8492L205.185 68.8252L205.586 71.6685Z" fill="#407BFF"/>
<path d="M223.063 84.6143L226.573 84.9758L226.075 81.4417L222.565 81.0723L223.063 84.6143Z" fill="#407BFF"/>
<path d="M223.763 89.6268L227.273 89.9963L226.783 86.4622L223.274 86.0928L223.763 89.6268Z" fill="#407BFF"/>
<path opacity="0.3" d="M223.063 84.6143L226.573 84.9758L226.075 81.4417L222.565 81.0723L223.063 84.6143Z" fill="white"/>
<path opacity="0.3" d="M223.763 89.6268L227.273 89.9963L226.783 86.4622L223.274 86.0928L223.763 89.6268Z" fill="white"/>
<path d="M222.356 79.5948L225.866 79.9562L225.376 76.4222L221.866 76.0527L222.356 79.5948Z" fill="#407BFF"/>
<path d="M217.473 79.0809L220.983 79.4504L220.493 75.9163L216.984 75.5469L217.473 79.0809Z" fill="#407BFF"/>
<path opacity="0.7" d="M222.356 79.5948L225.866 79.9562L225.376 76.4222L221.866 76.0527L222.356 79.5948Z" fill="white"/>
<path opacity="0.7" d="M217.473 79.0809L220.983 79.4504L220.493 75.9163L216.984 75.5469L217.473 79.0809Z" fill="white"/>
<path d="M218.18 84.1014L221.69 84.4709L221.192 80.9288L217.683 80.5674L218.18 84.1014Z" fill="#407BFF"/>
<path d="M218.879 89.1219L222.389 89.4834L221.899 85.9493L218.389 85.5879L218.879 89.1219Z" fill="#407BFF"/>
<path d="M212.589 78.575L216.099 78.9445L215.601 75.4024L212.091 75.041L212.589 78.575Z" fill="#407BFF"/>
<path d="M213.289 83.5946L216.799 83.956L216.309 80.422L212.799 80.0605L213.289 83.5946Z" fill="#407BFF"/>
<path d="M213.995 88.6153L217.505 88.9767L217.007 85.4427L213.497 85.0732L213.995 88.6153Z" fill="#407BFF"/>
<path d="M207.705 78.0704L211.215 78.4318L210.717 74.8978L207.207 74.5283L207.705 78.0704Z" fill="#407BFF"/>
<path d="M208.405 83.0809L211.915 83.4504L211.417 79.9163L207.915 79.5469L208.405 83.0809Z" fill="#407BFF"/>
<path d="M209.104 88.1024L212.614 88.4719L212.124 84.9378L208.614 84.5684L209.104 88.1024Z" fill="#407BFF"/>
<path d="M202.814 77.5575L206.324 77.9269L205.834 74.3929L202.324 74.0234L202.814 77.5575Z" fill="#407BFF"/>
<path d="M203.521 82.575L207.031 82.9445L206.533 79.4024L203.023 79.041L203.521 82.575Z" fill="#407BFF"/>
<path d="M204.221 87.5956L207.73 87.957L207.241 84.423L203.731 84.0615L204.221 87.5956Z" fill="#407BFF"/>
<path opacity="0.3" d="M218.18 84.1014L221.69 84.4709L221.192 80.9288L217.683 80.5674L218.18 84.1014Z" fill="white"/>
<path opacity="0.3" d="M218.879 89.1219L222.389 89.4834L221.899 85.9493L218.389 85.5879L218.879 89.1219Z" fill="white"/>
<path opacity="0.3" d="M212.589 78.575L216.099 78.9445L215.601 75.4024L212.091 75.041L212.589 78.575Z" fill="white"/>
<path opacity="0.3" d="M213.289 83.5946L216.799 83.956L216.309 80.422L212.799 80.0605L213.289 83.5946Z" fill="white"/>
<path opacity="0.3" d="M213.995 88.6153L217.505 88.9767L217.007 85.4427L213.497 85.0732L213.995 88.6153Z" fill="white"/>
<path opacity="0.3" d="M207.705 78.0704L211.215 78.4318L210.717 74.8978L207.207 74.5283L207.705 78.0704Z" fill="white"/>
<path opacity="0.3" d="M208.405 83.0809L211.915 83.4504L211.417 79.9163L207.915 79.5469L208.405 83.0809Z" fill="white"/>
<path opacity="0.3" d="M209.104 88.1024L212.614 88.4719L212.124 84.9378L208.614 84.5684L209.104 88.1024Z" fill="white"/>
<path opacity="0.3" d="M202.814 77.5575L206.324 77.9269L205.834 74.3929L202.324 74.0234L202.814 77.5575Z" fill="white"/>
<path opacity="0.3" d="M203.521 82.575L207.031 82.9445L206.533 79.4024L203.023 79.041L203.521 82.575Z" fill="white"/>
<path opacity="0.3" d="M204.221 87.5956L207.73 87.957L207.241 84.423L203.731 84.0615L204.221 87.5956Z" fill="white"/>
<path d="M197.931 77.0497L201.441 77.4111L200.943 73.8771L197.442 73.5156L197.931 77.0497Z" fill="#407BFF"/>
<path d="M198.638 82.0702L202.147 82.4316L201.649 78.8976L198.14 78.5361L198.638 82.0702Z" fill="#407BFF"/>
<path opacity="0.2" d="M197.931 77.0497L201.441 77.4111L200.943 73.8771L197.442 73.5156L197.931 77.0497Z" fill="black"/>
<path opacity="0.2" d="M198.638 82.0702L202.147 82.4316L201.649 78.8976L198.14 78.5361L198.638 82.0702Z" fill="black"/>
<path d="M199.337 87.088L202.847 87.4494L202.349 83.9154L198.839 83.5459L199.337 87.088Z" fill="#407BFF"/>
<path opacity="0.7" d="M199.337 87.088L202.847 87.4494L202.349 83.9154L198.839 83.5459L199.337 87.088Z" fill="white"/>
<path d="M223.416 67.411C223.501 67.4212 223.588 67.4132 223.67 67.3877C223.752 67.3621 223.828 67.3195 223.892 67.2626C223.957 67.2057 224.008 67.1359 224.044 67.0577C224.079 66.9794 224.098 66.8946 224.099 66.8086V65.5235C224.098 65.3399 224.029 65.1631 223.906 65.0268C223.783 64.8906 223.614 64.8043 223.432 64.7846C223.347 64.7744 223.26 64.7823 223.178 64.8079C223.096 64.8335 223.02 64.8761 222.956 64.933C222.891 64.9898 222.84 65.0597 222.804 65.1379C222.768 65.2161 222.75 65.301 222.749 65.387V66.6721C222.75 66.8556 222.819 67.0324 222.942 67.1687C223.065 67.305 223.233 67.3913 223.416 67.411Z" fill="#263238"/>
<path d="M219.625 67.0164C219.71 67.0265 219.797 67.0186 219.88 66.9931C219.962 66.9676 220.039 66.9251 220.104 66.8683C220.169 66.8116 220.221 66.7418 220.258 66.6636C220.294 66.5854 220.314 66.5003 220.315 66.414V65.1289C220.315 64.9466 220.247 64.7708 220.126 64.6347C220.005 64.4986 219.838 64.4116 219.657 64.39C219.571 64.3799 219.484 64.3878 219.402 64.4133C219.319 64.4389 219.243 64.4814 219.178 64.5381C219.113 64.5948 219.06 64.6646 219.024 64.7428C218.987 64.8211 218.968 64.9061 218.966 64.9924V66.2775C218.968 66.4593 219.036 66.6342 219.157 66.77C219.278 66.9057 219.444 66.9932 219.625 67.0164Z" fill="#263238"/>
<path d="M215.844 66.6239C215.929 66.6341 216.016 66.6261 216.098 66.6005C216.18 66.575 216.255 66.5324 216.32 66.4755C216.384 66.4186 216.436 66.3488 216.472 66.2706C216.507 66.1923 216.526 66.1075 216.526 66.0215V64.7364C216.525 64.5528 216.457 64.376 216.334 64.2397C216.211 64.1034 216.042 64.0172 215.86 63.9975C215.774 63.9873 215.688 63.9952 215.606 64.0208C215.524 64.0464 215.448 64.089 215.384 64.1459C215.319 64.2027 215.267 64.2726 215.232 64.3508C215.196 64.429 215.178 64.5139 215.177 64.5999V65.885C215.189 66.0651 215.261 66.236 215.382 66.3701C215.503 66.5042 215.666 66.5936 215.844 66.6239Z" fill="#263238"/>
<path d="M212.051 66.2224C212.137 66.2351 212.224 66.2292 212.307 66.2052C212.39 66.1812 212.467 66.1395 212.533 66.0832C212.598 66.0268 212.651 65.9569 212.687 65.8784C212.723 65.7999 212.742 65.7145 212.742 65.6281V64.3429C212.73 64.1628 212.658 63.9919 212.537 63.8578C212.416 63.7237 212.254 63.6343 212.076 63.604C211.991 63.5926 211.904 63.5994 211.822 63.624C211.74 63.6486 211.664 63.6904 211.6 63.7467C211.535 63.8029 211.483 63.8723 211.448 63.9502C211.412 64.0281 211.393 64.1127 211.393 64.1984V65.4835C211.392 65.6663 211.458 65.843 211.58 65.9795C211.702 66.116 211.87 66.2025 212.051 66.2224Z" fill="#263238"/>
<path d="M208.269 65.8288C208.354 65.8402 208.441 65.8334 208.523 65.8088C208.605 65.7842 208.681 65.7424 208.745 65.6861C208.81 65.6299 208.862 65.5605 208.897 65.4826C208.933 65.4047 208.952 65.3201 208.952 65.2344V63.9493C208.951 63.767 208.884 63.5912 208.763 63.4551C208.641 63.319 208.475 63.232 208.294 63.2104C208.208 63.1991 208.121 63.2059 208.039 63.2304C207.957 63.255 207.88 63.2967 207.815 63.3528C207.75 63.4089 207.697 63.4782 207.661 63.5561C207.624 63.634 207.604 63.7187 207.603 63.8048V65.0899C207.605 65.2729 207.674 65.4488 207.797 65.5847C207.92 65.7206 208.088 65.8074 208.269 65.8288Z" fill="#263238"/>
<path d="M204.479 65.4363C204.565 65.449 204.652 65.4431 204.735 65.4191C204.818 65.395 204.895 65.3534 204.96 65.297C205.026 65.2406 205.079 65.1708 205.115 65.0923C205.151 65.0138 205.17 64.9284 205.17 64.8419V63.5568C205.167 63.3738 205.098 63.1979 204.976 63.062C204.853 62.926 204.685 62.8393 204.503 62.8179C204.418 62.8065 204.332 62.8133 204.25 62.8379C204.168 62.8625 204.092 62.9043 204.027 62.9606C203.963 63.0168 203.911 63.0862 203.875 63.1641C203.84 63.242 203.821 63.3266 203.821 63.4122V64.6973C203.821 64.8797 203.889 65.0555 204.01 65.1916C204.131 65.3277 204.298 65.4147 204.479 65.4363Z" fill="#263238"/>
<path d="M200.696 65.0407C200.781 65.0521 200.868 65.0452 200.95 65.0207C201.033 64.9961 201.109 64.9544 201.175 64.8983C201.24 64.8422 201.292 64.7729 201.329 64.695C201.366 64.6171 201.385 64.5324 201.387 64.4464V63.1613C201.388 62.9784 201.321 62.8017 201.199 62.6652C201.078 62.5287 200.91 62.4422 200.728 62.4223C200.643 62.411 200.556 62.4178 200.474 62.4423C200.391 62.4669 200.315 62.5086 200.25 62.5647C200.184 62.6208 200.132 62.6901 200.095 62.768C200.059 62.8459 200.039 62.9306 200.037 63.0167V64.3018C200.038 64.4841 200.105 64.6599 200.227 64.796C200.348 64.9321 200.515 65.0192 200.696 65.0407Z" fill="#263238"/>
<path d="M196.912 64.6472C196.997 64.6573 197.083 64.6496 197.164 64.6245C197.246 64.5994 197.321 64.5575 197.385 64.5015C197.45 64.4455 197.501 64.3766 197.537 64.2994C197.574 64.2221 197.593 64.1381 197.595 64.0529V62.7678C197.596 62.5837 197.528 62.4059 197.404 62.2692C197.281 62.1326 197.111 62.0468 196.928 62.0288C196.843 62.0174 196.757 62.0242 196.675 62.0488C196.593 62.0734 196.517 62.1152 196.452 62.1715C196.388 62.2277 196.336 62.2971 196.3 62.375C196.264 62.4529 196.246 62.5375 196.245 62.6232V63.9083C196.246 64.0918 196.315 64.2686 196.438 64.4049C196.561 64.5412 196.73 64.6275 196.912 64.6472Z" fill="#263238"/>
<g opacity="0.5">
<path d="M223.417 67.409C223.502 67.4192 223.589 67.4113 223.671 67.3857C223.753 67.3601 223.829 67.3175 223.893 67.2606C223.958 67.2038 224.009 67.1339 224.045 67.0557C224.08 66.9775 224.099 66.8926 224.1 66.8067V65.5216C224.099 65.338 224.03 65.1612 223.907 65.0249C223.784 64.8886 223.615 64.8024 223.433 64.7826C223.348 64.7724 223.261 64.7804 223.179 64.806C223.097 64.8315 223.021 64.8742 222.957 64.931C222.892 64.9879 222.841 65.0577 222.805 65.136C222.769 65.2142 222.751 65.2991 222.75 65.385V66.6701C222.751 66.8537 222.82 67.0305 222.943 67.1668C223.066 67.3031 223.234 67.3893 223.417 67.409Z" fill="white"/>
<path d="M219.626 67.0164C219.711 67.0265 219.798 67.0186 219.881 66.9931C219.963 66.9676 220.039 66.9251 220.105 66.8683C220.17 66.8116 220.222 66.7418 220.259 66.6636C220.295 66.5854 220.315 66.5003 220.316 66.414V65.1289C220.316 64.9466 220.248 64.7708 220.127 64.6347C220.006 64.4986 219.839 64.4116 219.658 64.39C219.572 64.3799 219.485 64.3878 219.403 64.4133C219.32 64.4389 219.244 64.4814 219.179 64.5381C219.114 64.5948 219.061 64.6646 219.025 64.7428C218.988 64.8211 218.969 64.9061 218.967 64.9924V66.2775C218.969 66.4593 219.037 66.6342 219.158 66.77C219.279 66.9057 219.445 66.9932 219.626 67.0164Z" fill="white"/>
<path d="M215.843 66.621C215.928 66.6311 216.015 66.6232 216.097 66.5976C216.179 66.572 216.254 66.5294 216.319 66.4726C216.383 66.4157 216.435 66.3459 216.471 66.2676C216.506 66.1894 216.525 66.1045 216.525 66.0186V64.7335C216.524 64.5499 216.456 64.3731 216.333 64.2368C216.21 64.1005 216.041 64.0143 215.859 63.9945C215.773 63.9844 215.687 63.9923 215.605 64.0179C215.523 64.0435 215.447 64.0861 215.383 64.1429C215.318 64.1998 215.266 64.2696 215.231 64.3479C215.195 64.4261 215.177 64.511 215.176 64.5969V65.882C215.188 66.0622 215.26 66.2331 215.381 66.3672C215.502 66.5013 215.665 66.5907 215.843 66.621Z" fill="white"/>
<path d="M212.051 66.2214C212.137 66.2341 212.224 66.2282 212.307 66.2042C212.39 66.1802 212.467 66.1386 212.533 66.0822C212.598 66.0258 212.651 65.956 212.687 65.8774C212.723 65.7989 212.742 65.7135 212.742 65.6271V64.342C212.73 64.1618 212.658 63.9909 212.537 63.8568C212.416 63.7227 212.254 63.6333 212.076 63.603C211.991 63.5916 211.904 63.5984 211.822 63.623C211.74 63.6476 211.664 63.6895 211.6 63.7457C211.535 63.802 211.483 63.8714 211.448 63.9492C211.412 64.0271 211.393 64.1117 211.393 64.1974V65.4825C211.392 65.6653 211.458 65.8421 211.58 65.9785C211.702 66.115 211.87 66.2016 212.051 66.2214Z" fill="white"/>
<path d="M208.267 65.8259C208.352 65.8373 208.439 65.8305 208.521 65.8059C208.603 65.7813 208.679 65.7394 208.743 65.6832C208.808 65.6269 208.86 65.5576 208.895 65.4797C208.931 65.4018 208.95 65.3172 208.95 65.2315V63.9464C208.95 63.7641 208.882 63.5883 208.761 63.4522C208.64 63.3161 208.473 63.229 208.292 63.2075C208.206 63.1961 208.12 63.203 208.037 63.2275C207.955 63.252 207.878 63.2937 207.813 63.3499C207.748 63.406 207.695 63.4753 207.659 63.5532C207.622 63.6311 207.602 63.7158 207.601 63.8018V65.0869C207.603 65.27 207.673 65.4459 207.795 65.5818C207.918 65.7177 208.086 65.8045 208.267 65.8259Z" fill="white"/>
<path d="M204.476 65.4333C204.562 65.446 204.649 65.4402 204.732 65.4161C204.815 65.3921 204.892 65.3505 204.958 65.2941C205.023 65.2377 205.076 65.1679 205.112 65.0894C205.148 65.0108 205.167 64.9254 205.167 64.839V63.5539C205.164 63.3708 205.095 63.195 204.973 63.059C204.85 62.9231 204.682 62.8364 204.5 62.815C204.415 62.8035 204.329 62.8103 204.247 62.8349C204.165 62.8595 204.089 62.9014 204.024 62.9576C203.96 63.0139 203.908 63.0833 203.872 63.1611C203.837 63.239 203.818 63.3236 203.818 63.4093V64.6944C203.818 64.8767 203.886 65.0525 204.007 65.1886C204.128 65.3247 204.295 65.4118 204.476 65.4333Z" fill="white"/>
<path d="M200.694 65.0397C200.779 65.0511 200.866 65.0442 200.949 65.0197C201.031 64.9952 201.107 64.9535 201.173 64.8973C201.238 64.8412 201.29 64.7719 201.327 64.694C201.364 64.6162 201.383 64.5314 201.385 64.4454V63.1603C201.386 62.9775 201.319 62.8007 201.197 62.6642C201.076 62.5277 200.908 62.4412 200.726 62.4213C200.641 62.41 200.554 62.4168 200.472 62.4414C200.389 62.4659 200.313 62.5076 200.248 62.5637C200.182 62.6199 200.13 62.6891 200.093 62.767C200.057 62.8449 200.037 62.9297 200.035 63.0157V64.3008C200.036 64.4831 200.103 64.6589 200.225 64.795C200.346 64.9311 200.513 65.0182 200.694 65.0397Z" fill="white"/>
<path d="M196.911 64.6462C196.996 64.6564 197.082 64.6486 197.163 64.6235C197.245 64.5984 197.32 64.5565 197.384 64.5005C197.449 64.4445 197.5 64.3757 197.537 64.2984C197.573 64.2211 197.592 64.1371 197.594 64.0519V62.7668C197.595 62.5827 197.527 62.4049 197.403 62.2683C197.28 62.1316 197.11 62.0458 196.927 62.0278C196.842 62.0164 196.756 62.0232 196.674 62.0478C196.592 62.0724 196.516 62.1143 196.451 62.1705C196.387 62.2268 196.335 62.2962 196.299 62.374C196.263 62.4519 196.245 62.5365 196.244 62.6222V63.9073C196.245 64.0909 196.314 64.2677 196.437 64.404C196.56 64.5403 196.729 64.6265 196.911 64.6462Z" fill="white"/>
</g>
<path d="M210.671 80.3336C209.941 80.1967 209.192 80.1967 208.462 80.3336C207.025 80.7673 208.398 82.3335 209.306 82.6467C210.213 82.96 211.643 82.7512 211.972 81.7231C212.358 80.5183 210.992 79.6669 209.964 79.5063C209.683 79.5063 209.691 79.0404 209.964 79.0806C211.201 79.2653 212.639 80.205 212.438 81.6187C212.245 82.9038 210.776 83.3937 209.595 83.1527C208.535 82.9439 207.097 81.8757 207.426 80.6548C207.756 79.434 209.739 79.7793 210.639 79.8516C210.912 79.8516 210.904 80.3095 210.639 80.2773L210.671 80.3336Z" fill="#407BFF"/>
<g opacity="0.4">
<path d="M210.671 80.3355C209.941 80.1986 209.192 80.1986 208.462 80.3355C207.025 80.7692 208.398 82.3355 209.306 82.6487C210.213 82.9619 211.643 82.7531 211.972 81.725C212.358 80.5202 210.992 79.6689 209.964 79.5082C209.683 79.5082 209.691 79.0424 209.964 79.0825C211.201 79.2673 212.639 80.207 212.438 81.6206C212.245 82.9057 210.776 83.3957 209.595 83.1547C208.535 82.9459 207.097 81.8776 207.426 80.6568C207.756 79.4359 209.739 79.7813 210.639 79.8536C210.912 79.8536 210.904 80.3114 210.639 80.2793L210.671 80.3355Z" fill="black"/>
</g>
<path d="M185.209 88.8391L176.703 81.024L183.836 73.209L185.209 88.8391Z" fill="#407BFF"/>
<path opacity="0.7" d="M185.209 88.8391L176.703 81.024L183.836 73.209L185.209 88.8391Z" fill="white"/>
<path d="M115.264 18.1355C109.627 18.2035 97.8851 16.7074 100.628 39.5574C100.802 41.5845 100.507 43.6244 99.7666 45.5193L103.265 46.5922C103.265 46.5922 103.734 42.9653 103.265 41.3558C103.265 41.3558 105.2 42.9124 104.519 47.023L107.731 47.7786L108.282 42.4892L112.113 42.1719L113.73 42.0661L115.242 41.3104C115.242 41.3104 115.098 44.809 116.058 46.9776L119.33 45.4664C119.33 45.4664 117.561 42.7915 118.468 40.6531C118.468 40.6531 119.662 43.4942 120.539 44.3254L122.677 42.8821C122.677 42.8821 121.241 40.313 121.997 35.5451C122.753 30.7771 123.561 29.5832 123.561 29.5832C123.561 29.5832 122.7 35.0463 123.561 35.5451L124.71 34.1169C124.231 33.2921 123.964 32.362 123.931 31.409C123.898 30.4561 124.1 29.5097 124.521 28.6538C125.941 25.4953 121.801 18.06 115.264 18.1355Z" fill="#263238"/>
<path d="M125.39 87.457H101.633V100.839H125.39V87.457Z" fill="#263238"/>
<path d="M145.768 217.007L147.514 227.676L141.831 228.152L139.738 218.571L145.768 217.007Z" fill="#FFBE9D"/>
<path d="M138.515 228.893C137.838 229.016 137.139 228.887 136.55 228.531C136.477 228.434 136.433 228.318 136.427 228.196C136.42 228.075 136.45 227.954 136.513 227.85C136.611 227.661 136.779 227.517 136.981 227.45C138.054 227.072 140.434 228.206 140.54 228.274C140.569 228.288 140.593 228.311 140.608 228.339C140.623 228.368 140.628 228.4 140.623 228.432C140.618 228.463 140.605 228.492 140.585 228.516C140.565 228.54 140.539 228.558 140.51 228.568C139.855 228.733 139.188 228.842 138.515 228.893ZM137.382 227.692C137.281 227.695 137.182 227.713 137.087 227.745C137.024 227.761 136.966 227.791 136.916 227.833C136.867 227.875 136.827 227.927 136.8 227.986C136.694 228.19 136.747 228.281 136.8 228.326C137.132 228.735 138.787 228.629 139.996 228.394C139.171 227.992 138.275 227.754 137.359 227.692H137.382Z" fill="#407BFF"/>
<path d="M140.488 228.568C140.466 228.575 140.442 228.575 140.42 228.568C139.612 228.28 137.934 226.966 138.025 226.218C138.025 226.036 138.146 225.81 138.569 225.742C138.723 225.712 138.88 225.715 139.033 225.751C139.185 225.786 139.328 225.852 139.453 225.946C140.337 226.573 140.639 228.333 140.655 228.409C140.658 228.437 140.655 228.466 140.644 228.492C140.634 228.519 140.616 228.542 140.594 228.56C140.561 228.573 140.524 228.576 140.488 228.568ZM138.698 226.021H138.607C138.327 226.059 138.32 226.172 138.312 226.218C138.312 226.663 139.408 227.729 140.262 228.129C140.13 227.392 139.777 226.712 139.249 226.18C139.091 226.061 138.895 226.004 138.698 226.021Z" fill="#407BFF"/>
<path d="M141.136 227.603L148.299 227.097C148.431 227.089 148.561 227.126 148.669 227.201C148.777 227.277 148.857 227.386 148.896 227.512L150.596 233.247C150.633 233.367 150.647 233.494 150.635 233.619C150.623 233.744 150.587 233.866 150.528 233.977C150.468 234.088 150.388 234.186 150.291 234.266C150.194 234.345 150.082 234.405 149.961 234.441C149.895 234.464 149.827 234.479 149.757 234.487C147.173 234.623 144.869 234.638 141.657 234.872C137.879 235.136 138.854 235.522 134.396 235.9C131.713 236.126 131.01 233.104 132.129 232.877C137.297 231.85 137.728 230.24 139.609 228.23C140.025 227.842 140.567 227.619 141.136 227.603Z" fill="#263238"/>
<path opacity="0.2" d="M146.041 218.693L146.698 222.691L140.865 223.726L140.17 220.545L146.041 218.693Z" fill="black"/>
<path d="M108.448 216.448L107.307 227.201L101.708 226.166L102.214 216.365L108.448 216.448Z" fill="#FFBE9D"/>
<path d="M97.3713 226.234C96.5401 226.053 95.7165 225.705 95.52 225.29C95.4731 225.172 95.4639 225.043 95.4937 224.919C95.5235 224.796 95.5907 224.685 95.6862 224.602C95.8394 224.444 96.0481 224.352 96.268 224.345C97.4544 224.285 99.4946 226.136 99.5852 226.219C99.608 226.243 99.6236 226.272 99.6303 226.304C99.637 226.336 99.6345 226.37 99.623 226.4C99.609 226.431 99.5867 226.457 99.5587 226.476C99.5307 226.495 99.498 226.505 99.4643 226.506C98.7601 226.476 98.0598 226.385 97.3713 226.234ZM96.6156 224.723C96.5132 224.705 96.4083 224.705 96.3058 224.723C96.2378 224.718 96.1696 224.729 96.1066 224.756C96.0436 224.782 95.9877 224.822 95.9431 224.874C95.7769 225.048 95.7996 225.154 95.8298 225.214C96.0489 225.72 97.734 226.106 99.011 226.227C98.3131 225.568 97.4947 225.049 96.6005 224.7L96.6156 224.723Z" fill="#407BFF"/>
<path d="M99.4427 226.499H99.3747C98.6569 225.963 97.3723 224.157 97.6821 223.431C97.735 223.258 97.9239 223.061 98.3697 223.122C98.531 223.139 98.6872 223.189 98.8287 223.268C98.9703 223.347 99.0943 223.454 99.1934 223.582C99.8885 224.474 99.6619 226.325 99.6543 226.408C99.6512 226.438 99.6395 226.466 99.6207 226.489C99.6019 226.511 99.5768 226.528 99.5485 226.537C99.5099 226.537 99.4725 226.524 99.4427 226.499ZM98.4075 223.416H98.3168C98.0297 223.416 97.9844 223.484 97.9617 223.522C97.8181 223.968 98.6266 225.335 99.3445 226.016C99.4383 225.234 99.2878 224.442 98.9138 223.749C98.7886 223.584 98.6093 223.469 98.4075 223.424V223.416Z" fill="#407BFF"/>
<path d="M101.043 225.683L107.315 227.081C107.449 227.108 107.569 227.181 107.656 227.287C107.742 227.393 107.79 227.526 107.791 227.663V233.904C106.771 235.665 103.113 233.254 100.234 233.103C96.8186 232.915 93.4309 232.378 90.1242 231.501C87.3737 230.927 88.9681 227.587 90.1242 227.723C95.6327 228.207 100.476 225.547 101.043 225.683Z" fill="#263238"/>
<path opacity="0.2" d="M108.268 218.148L107.845 222.176L101.943 221.632L102.11 218.375L108.268 218.148Z" fill="black"/>
<path d="M100.069 94.3702L98.6406 160.2L99.3131 218.164L109.491 219.282C109.491 219.282 112.514 200.165 113.141 184.569C113.617 171.92 112.506 167.053 112.786 161.22C113.292 150.551 119.813 134.35 120.471 118.905C120.758 112.331 121.226 92.5869 121.226 92.5869L100.069 94.3702Z" fill="#263238"/>
<path opacity="0.5" d="M113.231 113.299C113.359 123.569 114.289 133.814 116.012 143.939C116.7 140.72 117.871 137.04 118.46 133.648C119.785 127.593 120.504 121.422 120.606 115.226L118.067 114.621L113.231 113.299Z" fill="black"/>
<path d="M109.341 96.335L124.975 162.595L137.684 220.31L147.893 218.647C147.893 218.647 146.185 194.007 144.598 185.906C141.825 171.716 139.588 167.265 138.515 160.925C135.78 144.763 137.45 111.342 127.937 96.335H109.341Z" fill="#263238"/>
<path opacity="0.3" d="M127.158 96.336H118.733C118.733 94.4998 118.733 93.3135 118.733 93.3135L99.9863 95.6786V101.724C101.626 102.351 105.404 103.439 111.094 102.985L112.658 95.8977L117.947 102.464C121.806 102.397 125.641 101.835 129.357 100.794C128.756 99.2467 128.02 97.755 127.158 96.336Z" fill="black"/>
<path d="M138.735 74.7471C138.735 74.7471 141.327 82.4469 143.103 87.4566C144.478 91.3103 147.055 98.3602 147.055 98.3602C147.055 98.3602 151.921 101.557 152.405 103.65C152.888 105.743 153.228 108.425 150.742 108.425C148.256 108.425 148.03 107.866 146.783 105.161C145.536 102.456 143.655 101.897 143.723 99.8715L132.547 77.3691L138.735 74.7471Z" fill="#FFBE9D"/>
<path d="M133.429 81.3141L140.464 77.8231L139.663 75.7149L134.865 57.6934L127.157 63.1112L131.842 77.5889L133.429 81.3141Z" fill="#407BFF"/>
<path opacity="0.5" d="M133.429 81.3141L140.464 77.8231L139.663 75.7149L134.865 57.6934L127.157 63.1112L131.842 77.5889L133.429 81.3141Z" fill="white"/>
<path d="M132.191 80.2328L133.302 82.1974L141.153 78.4949L140.465 75.9258L132.191 80.2328Z" fill="#407BFF"/>
<path opacity="0.7" d="M132.191 80.2328L133.302 82.1974L141.153 78.4949L140.465 75.9258L132.191 80.2328Z" fill="white"/>
<path d="M125.456 48.2084C125.456 48.2084 130.315 47.5132 132.536 50.6415C134.182 53.1139 135.622 55.7169 136.843 58.4244C133.77 61.335 130.312 63.8112 126.567 65.7842C126.567 65.7842 117.537 49.8783 125.456 48.2084Z" fill="#407BFF"/>
<path opacity="0.1" d="M126.57 65.7843C127.876 65.1437 129.138 64.4167 130.348 63.6081L128.648 53.1201L124.771 62.0893C125.701 64.2504 126.57 65.7843 126.57 65.7843Z" fill="black"/>
<path d="M144.992 109.708L143.428 110.464C143.386 110.483 143.34 110.488 143.295 110.48C143.25 110.473 143.208 110.451 143.176 110.42C143.143 110.388 143.121 110.347 143.112 110.302C143.103 110.257 143.108 110.211 143.125 110.169L143.881 108.597L143.926 108.537L153.802 98.661C153.923 98.541 154.086 98.4736 154.256 98.4736C154.426 98.4736 154.589 98.541 154.709 98.661L154.936 98.8877C155.056 99.0093 155.124 99.1736 155.124 99.3448C155.124 99.516 155.056 99.6803 154.936 99.802L145.06 109.67C145.042 109.69 145.018 109.703 144.992 109.708Z" fill="#263238"/>
<path opacity="0.7" d="M144.992 109.708L143.428 110.464C143.386 110.483 143.34 110.488 143.295 110.48C143.25 110.473 143.208 110.451 143.176 110.42C143.143 110.388 143.121 110.347 143.112 110.302C143.103 110.257 143.108 110.211 143.125 110.169L143.881 108.597L143.926 108.537L153.802 98.661C153.923 98.541 154.086 98.4736 154.256 98.4736C154.426 98.4736 154.589 98.541 154.709 98.661L154.936 98.8877C155.056 99.0093 155.124 99.1736 155.124 99.3448C155.124 99.516 155.056 99.6803 154.936 99.802L145.06 109.67C145.042 109.69 145.018 109.703 144.992 109.708Z" fill="white"/>
<path d="M153.246 99.2086L152.846 99.6094L153.984 100.747L154.385 100.347L153.246 99.2086Z" fill="#263238"/>
<path d="M143.48 109.416L143.125 110.172C143.108 110.214 143.103 110.26 143.112 110.305C143.121 110.349 143.143 110.39 143.176 110.422C143.208 110.454 143.25 110.475 143.295 110.483C143.34 110.491 143.386 110.485 143.428 110.466L144.183 110.111L143.48 109.416Z" fill="#263238"/>
<path opacity="0.8" d="M153.246 99.2086L152.846 99.6094L153.984 100.747L154.385 100.347L153.246 99.2086Z" fill="white"/>
<path opacity="0.8" d="M143.48 109.416L143.125 110.172C143.108 110.214 143.103 110.26 143.112 110.305C143.121 110.349 143.143 110.39 143.176 110.422C143.208 110.454 143.25 110.475 143.295 110.483C143.34 110.491 143.386 110.485 143.428 110.466L144.183 110.111L143.48 109.416Z" fill="white"/>
<path d="M146.179 103.786C146.179 103.786 147.131 106.052 148.249 106.219C149.367 106.385 147.441 101.753 147.441 101.753L146.179 103.786Z" fill="#FFBE9D"/>
<path d="M101.544 48.4577C108.294 47.6662 115.091 47.3506 121.885 47.5131L117.608 56.2859L110.112 58.787L105.004 57.5402L100.471 52.6438L101.544 48.4577Z" fill="#407BFF"/>
<path opacity="0.5" d="M101.544 48.4577C108.294 47.6662 115.091 47.3506 121.885 47.5131L117.608 56.2859L110.112 58.787L105.004 57.5402L100.471 52.6438L101.544 48.4577Z" fill="white"/>
<path d="M112.173 52.2068L116.42 48.338C115.754 47.7744 115.248 47.0456 114.952 46.2247C114.656 45.4038 114.581 44.5196 114.735 43.6607C114.803 43.0127 114.909 42.3693 115.052 41.7339L110.315 37.782L106.846 34.8955C107.783 39.1043 108.841 46.3583 105.97 49.1692C108.002 50.2422 110.073 51.2623 112.173 52.2068Z" fill="#FFBE9D"/>
<path d="M99.2764 86.6558L98.0674 98.4964C98.0674 98.4964 104.392 101.209 110.505 100.763L112.439 93.7209V87.2905L113.278 93.7209L118.001 100.28C118.001 100.28 126.063 100.28 131.133 97.5745C129.386 93.7269 127.429 89.9784 125.27 86.346C125.27 86.346 106.5 85.0917 99.2764 86.6558Z" fill="#407BFF"/>
<path opacity="0.5" d="M99.2764 86.6558L98.0674 98.4964C98.0674 98.4964 104.392 101.209 110.505 100.763L112.439 93.7209V87.2905L113.278 93.7209L118.001 100.28C118.001 100.28 126.063 100.28 131.133 97.5745C129.386 93.7269 127.429 89.9784 125.27 86.346C125.27 86.346 106.5 85.0917 99.2764 86.6558Z" fill="white"/>
<path d="M126.977 48.0436C125.375 47.8245 122.995 47.5525 120.078 47.4014C119.224 50.2576 115.046 54.6402 110.799 54.6402C106.553 54.6402 103.689 50.915 103.122 48.2023C101.958 48.3837 100.772 48.5801 99.5782 48.8219C98.9587 48.9427 98.3862 49.2369 97.9274 49.6703C97.4686 50.1037 97.1423 50.6585 96.9865 51.2701C95.9059 55.5999 94.2511 67.1382 98.9964 88.5676C103.473 88.9666 107.97 89.0827 112.462 88.9152C116.413 88.8094 121.113 89.1646 126.357 88.0085L129.108 50.6959C129.158 50.0654 128.966 49.4395 128.569 48.9464C128.173 48.4533 127.604 48.1303 126.977 48.0436Z" fill="#407BFF"/>
<path d="M103.854 48.1497L106.498 47.5527L111.289 51.7918L109.067 54.1644L103.854 48.1497Z" fill="#407BFF"/>
<path opacity="0.7" d="M103.854 48.1497L106.498 47.5527L111.289 51.7918L109.067 54.1644L103.854 48.1497Z" fill="white"/>
<path d="M119.088 47.3102L116.443 47.0684L110.821 51.791L113.043 54.1636L119.088 47.3102Z" fill="#407BFF"/>
<path opacity="0.7" d="M119.088 47.3102L116.443 47.0684L110.821 51.791L113.043 54.1636L119.088 47.3102Z" fill="white"/>
<path opacity="0.2" d="M115.054 41.7322C114.91 42.3676 114.804 43.011 114.736 43.659C112.953 43.3039 110.293 41.7171 110.044 39.7147C110.059 39.0615 110.15 38.4122 110.316 37.7803L115.054 41.7322Z" fill="black"/>
<path d="M81.3582 76.8633L80.0963 79.0621C80.0036 79.2191 79.9578 79.3993 79.9645 79.5815C79.9712 79.7637 80.0301 79.9401 80.1341 80.0898C80.5723 80.6628 81.1357 81.1281 81.7813 81.4499C82.4111 81.8084 83.1084 82.0322 83.8291 82.1073C83.9868 82.1164 84.1443 82.0867 84.2879 82.0208C84.4314 81.9549 84.5567 81.8549 84.6527 81.7295L86.8213 78.9412L81.3582 76.8633Z" fill="#FFBE9D"/>
<path d="M90.5858 59.2559L80.9365 75.8569L87.4651 79.3932L99.0639 64.3941L90.5858 59.2559Z" fill="#407BFF"/>
<path opacity="0.5" d="M90.5858 59.2559L80.9365 75.8569L87.4651 79.3932L99.0639 64.3941L90.5858 59.2559Z" fill="white"/>
<path opacity="0.1" d="M97.0083 67.0458L97.764 64.6807C91.8288 67.8485 86.2355 71.6188 81.0723 75.9319L86.014 78.6143L86.9434 78.2214L91.1372 74.6549L97.0083 67.0458Z" fill="black"/>
<path d="M100.454 48.6562C100.454 48.6562 94.4092 48.2255 88.6514 60.3532C88.6514 60.3532 93.9936 64.9398 99.4341 66.7836C99.4341 66.7836 106.983 49.306 100.454 48.6562Z" fill="#407BFF"/>
<path opacity="0.1" d="M96.8583 65.7158L96.1858 55.8096L94.0625 64.197C94.939 64.7259 95.8835 65.2397 96.8583 65.7158Z" fill="black"/>
<path d="M80.3775 74.7471L88.6516 78.8425L87.3293 80.3689L79.5312 77.1046L80.3775 74.7471Z" fill="#407BFF"/>
<path opacity="0.7" d="M80.3775 74.7471L88.6516 78.8425L87.3293 80.3689L79.5312 77.1046L80.3775 74.7471Z" fill="white"/>
<path d="M113.336 50.1301L99.3043 51.5851C98.4782 51.6708 97.878 52.4099 97.9637 53.2359L99.9113 72.0182C99.9969 72.8442 100.736 73.4444 101.562 73.3588L115.594 71.9037C116.42 71.8181 117.02 71.079 116.935 70.253L114.987 51.4707C114.902 50.6447 114.163 50.0445 113.336 50.1301Z" fill="#263238"/>
<path opacity="0.7" d="M113.336 50.1301L99.3043 51.5851C98.4782 51.6708 97.878 52.4099 97.9637 53.2359L99.9113 72.0182C99.9969 72.8442 100.736 73.4444 101.562 73.3588L115.594 71.9037C116.42 71.8181 117.02 71.079 116.935 70.253L114.987 51.4707C114.902 50.6447 114.163 50.0445 113.336 50.1301Z" fill="white"/>
<path d="M115.372 72.2446L101.846 73.6652C101.29 73.7202 100.735 73.5532 100.302 73.2008C99.869 72.8483 99.5928 72.3389 99.5337 71.7837L97.6446 53.5354C97.6153 53.2605 97.6406 52.9824 97.719 52.7172C97.7974 52.4521 97.9274 52.205 98.1015 51.9902C98.2756 51.7754 98.4904 51.597 98.7336 51.4654C98.9767 51.3338 99.2435 51.2515 99.5186 51.2232L113.022 49.8253C113.296 49.796 113.575 49.8213 113.84 49.8997C114.105 49.9781 114.352 50.108 114.567 50.2822C114.782 50.4563 114.96 50.6711 115.092 50.9142C115.223 51.1574 115.305 51.4242 115.334 51.6992L117.223 69.9551C117.276 70.5032 117.112 71.0502 116.765 71.4785C116.419 71.9067 115.919 72.1818 115.372 72.2446ZM99.6092 51.8428C99.2307 51.8847 98.8838 52.0739 98.6435 52.3693C98.4032 52.6648 98.2887 53.0429 98.3247 53.4221L100.221 71.6703C100.24 71.8586 100.296 72.0412 100.386 72.2078C100.475 72.3743 100.597 72.5215 100.744 72.6409C100.891 72.7603 101.06 72.8495 101.241 72.9033C101.422 72.9572 101.612 72.9747 101.801 72.9549L115.304 71.5494C115.491 71.5306 115.672 71.4749 115.838 71.3856C116.004 71.2963 116.15 71.1751 116.269 71.0291C116.387 70.883 116.476 70.7149 116.53 70.5345C116.583 70.3541 116.6 70.1649 116.581 69.9777L114.691 51.7521C114.65 51.3742 114.46 51.028 114.164 50.7888C113.869 50.5497 113.491 50.437 113.112 50.4751L99.6092 51.8428Z" fill="#263238"/>
<path opacity="0.5" d="M115.372 72.2446L101.846 73.6652C101.29 73.7202 100.735 73.5532 100.302 73.2008C99.869 72.8483 99.5928 72.3389 99.5337 71.7837L97.6446 53.5354C97.6153 53.2605 97.6406 52.9824 97.719 52.7172C97.7974 52.4521 97.9274 52.205 98.1015 51.9902C98.2756 51.7754 98.4904 51.597 98.7336 51.4654C98.9767 51.3338 99.2435 51.2515 99.5186 51.2232L113.022 49.8253C113.296 49.796 113.575 49.8213 113.84 49.8997C114.105 49.9781 114.352 50.108 114.567 50.2822C114.782 50.4563 114.96 50.6711 115.092 50.9142C115.223 51.1574 115.305 51.4242 115.334 51.6992L117.223 69.9551C117.276 70.5032 117.112 71.0502 116.765 71.4785C116.419 71.9067 115.919 72.1818 115.372 72.2446ZM99.6092 51.8428C99.2307 51.8847 98.8838 52.0739 98.6435 52.3693C98.4032 52.6648 98.2887 53.0429 98.3247 53.4221L100.221 71.6703C100.24 71.8586 100.296 72.0412 100.386 72.2078C100.475 72.3743 100.597 72.5215 100.744 72.6409C100.891 72.7603 101.06 72.8495 101.241 72.9033C101.422 72.9572 101.612 72.9747 101.801 72.9549L115.304 71.5494C115.491 71.5306 115.672 71.4749 115.838 71.3856C116.004 71.2963 116.15 71.1751 116.269 71.0291C116.387 70.883 116.476 70.7149 116.53 70.5345C116.583 70.3541 116.6 70.1649 116.581 69.9777L114.691 51.7521C114.65 51.3742 114.46 51.028 114.164 50.7888C113.869 50.5497 113.491 50.437 113.112 50.4751L99.6092 51.8428Z" fill="white"/>
<path d="M102.367 52.83L100.27 53.0475C99.8259 53.0935 99.5032 53.4909 99.5492 53.9351L99.7666 56.032C99.8127 56.4762 100.21 56.7989 100.654 56.7528L102.751 56.5354C103.195 56.4893 103.518 56.0919 103.472 55.6478L103.255 53.5509C103.208 53.1067 102.811 52.784 102.367 52.83Z" fill="#263238"/>
<path opacity="0.5" d="M102.367 52.83L100.27 53.0475C99.8259 53.0935 99.5032 53.4909 99.5492 53.9351L99.7666 56.032C99.8127 56.4762 100.21 56.7989 100.654 56.7528L102.751 56.5354C103.195 56.4893 103.518 56.0919 103.472 55.6478L103.255 53.5509C103.208 53.1067 102.811 52.784 102.367 52.83Z" fill="white"/>
<path d="M102.426 54.6846C102.446 54.8664 102.412 55.05 102.327 55.2122C102.243 55.3744 102.112 55.5077 101.951 55.5953C101.791 55.6829 101.608 55.7208 101.426 55.7041C101.244 55.6875 101.071 55.617 100.929 55.5017C100.787 55.3865 100.682 55.2316 100.629 55.0568C100.575 54.8819 100.574 54.6951 100.627 54.52C100.68 54.3449 100.784 54.1895 100.925 54.0735C101.066 53.9575 101.239 53.8861 101.421 53.8685C101.662 53.8452 101.903 53.9178 102.091 54.0705C102.279 54.2232 102.399 54.4438 102.426 54.6846Z" fill="#263238"/>
<path d="M99.7664 66.291C99.7664 66.291 73.9544 76.9226 78.3294 81.5092C81.3519 84.6451 87.3969 82.2649 100.93 68.8752C100.93 68.8752 101.844 67.3111 99.7664 66.291Z" fill="#FFBE9D"/>
<path d="M109.348 61.931C109.348 62.2822 109.244 62.6255 109.049 62.9175C108.854 63.2095 108.577 63.4371 108.252 63.5715C107.928 63.7059 107.571 63.7411 107.226 63.6726C106.882 63.6041 106.565 63.4349 106.317 63.1866C106.069 62.9383 105.9 62.6219 105.831 62.2774C105.762 61.933 105.798 61.5759 105.932 61.2515C106.066 60.927 106.294 60.6497 106.586 60.4545C106.878 60.2594 107.221 60.1553 107.573 60.1553C108.044 60.1553 108.495 60.3424 108.828 60.6754C109.161 61.0084 109.348 61.46 109.348 61.931Z" fill="white"/>
<path d="M97.7627 67.1519C97.7627 67.1519 101.178 62.928 103.687 62.6182C105.174 62.4492 106.674 62.4163 108.168 62.52C108.168 62.52 111.326 68.1569 108.168 68.8899C105.765 69.449 105.674 69.2903 104.488 69.6455C103.165 70.0308 103.264 69.8722 99.4175 70.0384L97.7627 67.1519Z" fill="#FFBE9D"/>
<path d="M148.995 215.949L149.305 220.657L136.739 222.977L135.183 218.307L148.995 215.949Z" fill="#407BFF"/>
<path d="M111.843 216.275L110.899 220.899L98.1666 219.819L97.8945 214.907L111.843 216.275Z" fill="#407BFF"/>
<path d="M104.066 31.1693C104.374 32.5515 105.158 33.7816 106.28 34.6452C107.723 35.703 108.811 34.4185 108.736 32.6125C108.66 30.9804 107.829 28.4717 106.235 28.1393C104.64 27.8068 103.673 29.4314 104.066 31.1693Z" fill="#FFBE9D"/>
<path d="M107.202 26.387C106.447 32.0693 105.759 35.3487 108.064 38.8396C111.479 44.0761 118.824 42.9805 121.189 37.6609C123.35 32.8853 124.113 24.3922 119.096 20.9919C118.018 20.2264 116.759 19.757 115.443 19.6304C114.128 19.5039 112.802 19.7246 111.598 20.2706C110.394 20.8166 109.355 21.6688 108.584 22.742C107.812 23.8153 107.336 25.0721 107.202 26.387Z" fill="#FFBE9D"/>
<path d="M115.016 31.3513C114.963 31.7745 115.152 32.1523 115.424 32.1901C115.696 32.2278 115.975 31.9029 116.036 31.4798C116.096 31.0566 115.9 30.6713 115.628 30.6335C115.356 30.5957 115.091 30.9735 115.016 31.3513Z" fill="#263238"/>
<path d="M119.851 32.0007C119.805 32.4389 119.987 32.8092 120.266 32.847C120.546 32.8847 120.818 32.5598 120.871 32.1291C120.924 31.6984 120.742 31.3282 120.463 31.2979C120.183 31.2677 119.911 31.5775 119.851 32.0007Z" fill="#263238"/>
<path d="M120.333 31.3L121.398 31.1338C121.398 31.1338 120.771 31.8743 120.333 31.3Z" fill="#263238"/>
<path d="M118.265 32.5898C118.524 33.6172 118.923 34.6038 119.452 35.5217C119.211 35.648 118.947 35.7214 118.676 35.737C118.404 35.7527 118.133 35.7101 117.88 35.6123L118.265 32.5898Z" fill="#D38F84"/>
<path d="M115.34 36.9893C115.545 37.0509 115.755 37.0939 115.967 37.1177C115.983 37.121 116 37.121 116.016 37.1178C116.031 37.1146 116.047 37.1082 116.06 37.0991C116.073 37.0899 116.085 37.0781 116.094 37.0645C116.102 37.0508 116.108 37.0355 116.111 37.0195C116.111 36.9859 116.099 36.9534 116.077 36.9283C116.054 36.9032 116.023 36.8872 115.99 36.8835C115.455 36.8244 114.942 36.6413 114.491 36.3488C114.04 36.0562 113.663 35.6623 113.391 35.1984C113.383 35.1838 113.373 35.1708 113.361 35.1601C113.349 35.1495 113.334 35.1415 113.319 35.1365C113.303 35.1316 113.287 35.1299 113.271 35.1314C113.255 35.1329 113.239 35.1378 113.224 35.1455C113.195 35.1602 113.172 35.1857 113.161 35.2166C113.15 35.2475 113.151 35.2816 113.164 35.3118C113.396 35.7224 113.709 36.0824 114.083 36.3705C114.456 36.6586 114.884 36.869 115.34 36.9893Z" fill="#263238"/>
<path d="M113.178 30.158C113.229 30.175 113.284 30.1746 113.335 30.1568C113.386 30.139 113.429 30.1049 113.458 30.0598C113.732 29.7514 114.067 29.5024 114.441 29.3283C114.816 29.1541 115.222 29.0585 115.634 29.0473C115.668 29.0473 115.701 29.0406 115.733 29.0277C115.764 29.0148 115.792 28.9959 115.816 28.972C115.84 28.9482 115.859 28.9199 115.872 28.8887C115.885 28.8575 115.891 28.8241 115.891 28.7904C115.891 28.7242 115.865 28.6608 115.818 28.614C115.771 28.5673 115.708 28.541 115.642 28.541C115.146 28.5494 114.658 28.6645 114.211 28.8783C113.764 29.0921 113.368 29.3998 113.05 29.7802C113.015 29.8358 113.002 29.9029 113.015 29.9676C113.027 30.0323 113.064 30.0897 113.118 30.1278C113.135 30.1428 113.156 30.1532 113.178 30.158Z" fill="#263238"/>
<path d="M121.588 29.9536C121.632 29.9648 121.679 29.9652 121.723 29.9546C121.768 29.9441 121.81 29.923 121.844 29.8932C121.891 29.8441 121.916 29.7792 121.916 29.7118C121.916 29.6444 121.891 29.5795 121.844 29.5305C121.574 29.2251 121.233 28.991 120.851 28.8487C120.469 28.7064 120.057 28.6603 119.653 28.7144C119.621 28.7181 119.59 28.7281 119.563 28.7439C119.535 28.7596 119.51 28.7808 119.49 28.8061C119.471 28.8314 119.456 28.8604 119.448 28.8913C119.439 28.9223 119.437 28.9546 119.442 28.9864C119.453 29.0515 119.489 29.1095 119.543 29.1478C119.597 29.186 119.664 29.2014 119.729 29.1904C120.053 29.1506 120.382 29.1887 120.688 29.3018C120.994 29.4148 121.269 29.5994 121.489 29.8403C121.511 29.8865 121.545 29.9258 121.588 29.9536Z" fill="#263238"/>
<path d="M115.485 30.716L116.551 30.5498C116.551 30.5498 115.931 31.2601 115.485 30.716Z" fill="#263238"/>
<path d="M119.227 20.8482C119.227 20.8482 120.239 25.5028 117.171 27.9057C115.797 28.0468 114.44 28.3252 113.121 28.7369C113.707 27.7539 114.073 26.6558 114.194 25.5179C114.194 25.5179 112.683 28.7369 111.376 29.4623C110.108 29.739 108.897 30.2296 107.794 30.9131C107.992 29.3949 108.458 27.9238 109.169 26.5682C107.173 29.0969 106.061 32.2104 106.003 35.4317L103.275 33.6182V26.062L104.787 22.6768L108.255 20.3419L109.766 19.3747C109.766 19.3747 113.423 19.6165 113.627 19.3747C113.831 19.1329 116.166 19.0498 116.166 19.0498L119.227 20.8482Z" fill="#263238"/>
<path d="M116.904 22.2395C116.904 22.2395 120.682 22.5417 120.849 28.1031C121.245 28.2064 121.609 28.405 121.911 28.6816C122.213 28.9582 122.442 29.3044 122.579 29.6899C122.972 28.8541 123.127 27.9256 123.025 27.0075C123.025 27.0075 122.413 24.121 122.367 23.9472C122.322 23.7734 121.045 21.8088 121.045 21.8088L119.224 20.5393L118.808 20.2598L116.904 22.2395Z" fill="#263238"/>
<path opacity="0.3" d="M50.1659 45.7359L46.8506 46.0935L47.3134 42.673L50.6287 42.3154L50.1659 45.7359Z" fill="white"/>
</svg>
