<svg width="428" height="172" viewBox="0 0 428 172" fill="none" xmlns="http://www.w3.org/2000/svg">
<path fill-rule="evenodd" clip-rule="evenodd" d="M13 0V171.947H428V120.914C363.543 122.132 328.243 88.9959 328.243 88.9959C254.855 30.9304 226.044 38.5568 183.205 49.8966C167.633 54.0188 150.207 58.6317 128.112 60.7581C45.2351 68.7343 13 0 13 0Z" fill="white"/>
<path opacity="0.7" d="M404.824 122.84C352.096 120.223 322.058 94.3635 321.738 94.067C261.698 41.8825 222.934 49.3421 169.295 59.6857C155.069 62.4282 140.343 65.2663 123.606 67.4297C41.8008 78.0194 7.31641 27.4562 6.93818 26.9963L10.0832 24.1487C10.4488 24.5946 42.4197 76.5931 123.417 66.1104C140.128 63.9456 154.813 61.1189 169.026 58.3757C223.042 47.9706 262.063 40.457 322.603 93.0673C322.975 93.3932 359.425 124.744 422.618 121.478L422.686 122.804C416.48 123.138 410.519 123.123 404.824 122.84Z" fill="#4382EE"/>
<path opacity="0.7" d="M404.65 132.336C351.922 129.719 321.883 103.86 321.564 103.563C261.524 51.3788 222.76 58.8384 169.121 69.182C154.895 71.9246 140.169 74.7626 123.431 76.926C41.6264 87.5157 3.83688 43.0257 3.45865 42.5658L3.64355 38.8408C4.0091 39.2867 42.2453 86.0894 123.243 75.6067C139.954 73.4419 154.639 70.6153 168.852 67.872C222.868 57.4669 261.889 49.9533 322.429 102.564C322.801 102.889 359.25 134.24 422.444 130.974L422.512 132.301C416.306 132.634 410.344 132.619 404.65 132.336Z" fill="#4382EE"/>
<path opacity="0.7" d="M404.65 143.336C351.922 140.719 321.883 114.86 321.564 114.563C261.524 62.3788 222.76 69.8384 169.121 80.182C154.895 82.9246 140.169 85.7626 123.431 87.926C41.6264 98.5157 3.83688 54.0257 3.45865 53.5658L3.64355 49.8408C4.0091 50.2867 42.2453 97.0894 123.243 86.6067C139.954 84.4419 154.639 81.6153 168.852 78.872C222.868 68.4669 261.889 60.9533 322.429 113.564C322.801 113.889 359.25 145.24 422.444 141.974L422.512 143.301C416.306 143.634 410.344 143.619 404.65 143.336Z" fill="#4382EE"/>
</svg>
