<svg width="424" height="522" viewBox="0 0 424 522" fill="none" xmlns="http://www.w3.org/2000/svg">
<path opacity="0.8" d="M4.15039 0V382.053C4.15039 382.053 36.3855 450.788 119.262 442.811C202.139 434.835 219.328 391.876 319.393 471.049C319.393 471.049 354.694 504.185 419.15 502.967V0H4.15039Z" fill="#4382EE"/>
<path opacity="0.7" d="M397.554 505.528C345.909 502.964 316.446 478.471 316.132 478.19C257.241 428.763 219.289 435.748 166.774 445.434C152.846 448.002 138.428 450.659 122.039 452.676C41.9393 462.546 4.48058 414.935 4.10938 414.5L4.10938 403C4.46814 403.422 42.543 461.199 121.853 451.428C138.215 449.411 152.593 446.764 166.508 444.195C219.393 434.452 257.596 427.416 316.978 477.247C317.342 477.555 357.224 507.48 419.109 504.5L419.109 505.5C413.032 505.805 403.131 505.805 397.554 505.528Z" fill="#4382EE"/>
<path opacity="0.7" d="M397.878 511.251C346.562 508.704 317.161 486.908 316.848 486.658C258.078 442.676 220.417 448.638 168.303 456.906C154.482 459.098 140.175 461.366 123.906 463.058C44.3926 471.338 4.47621 434.012 4.10509 433.626L4.11133 429C4.47002 429.375 44.9849 470.151 123.714 461.955C139.956 460.262 154.224 458.003 168.032 455.81C220.512 447.494 258.423 441.488 317.683 485.829C318.047 486.104 357.57 512.438 419.028 510.145L419.026 511.687C412.99 511.923 403.42 511.526 397.878 511.251Z" fill="#4382EE"/>
<path opacity="0.7" d="M398.001 520.053C346.673 517.505 317.204 496.921 316.89 496.685C257.984 455.152 220.337 460.646 168.243 468.266C154.427 470.287 140.125 472.377 123.86 473.919C44.3637 481.469 4.42699 444.865 4.05469 444.5L4.05469 441C4.41453 441.354 44.9525 480.355 123.664 472.882C139.904 471.338 154.165 469.256 167.969 467.235C220.429 459.571 258.326 454.036 317.723 495.908C318.087 496.168 357.597 520.974 419.053 519L419.053 520.053C413.017 520.257 403.544 520.328 398.001 520.053Z" fill="#4382EE"/>
<path d="M86.5165 371.723C155.055 391.532 266.169 391.532 334.708 371.723C403.247 351.914 403.239 319.813 334.708 299.994C266.177 280.175 155.055 280.19 86.5165 299.994C17.9775 319.798 17.9698 351.904 86.5165 371.723Z" fill="#FAFAFA"/>
<path d="M86.5165 371.723C155.055 391.532 266.169 391.532 334.708 371.723C403.247 351.914 403.239 319.813 334.708 299.994C266.177 280.175 155.055 280.19 86.5165 299.994C17.9775 319.798 17.9698 351.904 86.5165 371.723Z" fill="#FAFAFA"/>
<path d="M265.707 192.707L341.615 193.02C341.615 193.02 334.412 176.761 319.045 176.751C307.332 176.751 306.814 183.958 299.783 186.018C292.753 188.078 277.938 175.465 265.707 192.707Z" fill="#EBEBEB"/>
<path d="M145.656 166.574L200.723 166.802C200.723 166.802 195.508 155.009 184.362 155C175.867 155 175.487 160.222 170.392 161.722C165.297 163.222 154.531 154.07 145.656 166.574Z" fill="#EBEBEB"/>
<path d="M225.109 151.633L313.109 152C313.109 152 304.775 133.015 286.963 133C273.388 133 272.781 141.407 264.639 143.822C256.497 146.237 239.291 131.502 225.109 151.633Z" fill="#EBEBEB"/>
<path d="M107.109 218.846L56.1094 219C56.1094 219 60.9394 211.006 71.2622 211C79.1299 211 79.4812 214.54 84.2001 215.557C88.9189 216.574 98.8903 210.369 107.109 218.846Z" fill="#EBEBEB"/>
<path d="M106.109 150.846L55.1094 151C55.1094 151 59.9394 143.006 70.2622 143C78.1299 143 78.4812 146.54 83.2001 147.557C87.9189 148.574 97.8903 142.369 106.109 150.846Z" fill="#EBEBEB"/>
<path d="M329.922 302.87C325.542 294.8 315.722 289.165 306.871 291.8C307.832 283.198 303.029 274.235 295.259 270.228C290.472 267.834 284.971 267.227 279.768 268.519V341.56H328.106L332.5 329.659C334.234 320.668 334.306 310.926 329.922 302.87Z" fill="#EBEBEB"/>
<path d="M343.67 321.081C341.172 320.797 338.641 321.058 336.256 321.845C336.466 317.843 335.587 313.858 333.712 310.305C331.836 306.752 329.031 303.761 325.589 301.643C322.148 299.525 318.195 298.358 314.142 298.262C310.089 298.167 306.084 299.146 302.544 301.1C302.166 298.639 301.223 296.296 299.788 294.251C298.353 292.205 296.464 290.511 294.265 289.299C292.066 288.086 289.615 287.387 287.101 287.254C284.587 287.122 282.075 287.559 279.758 288.534V341.038H360.286V339.751C360.286 330.309 353.198 322.111 343.67 321.081Z" fill="#E0E0E0"/>
<path d="M54.66 341.461C53.5807 338.191 53.21 334.734 53.572 331.314C53.934 327.893 55.0206 324.587 56.7611 321.609C58.5016 318.632 60.8569 316.05 63.6738 314.032C66.4906 312.014 69.7058 310.605 73.11 309.896C73.1965 299.51 79.521 289.403 88.8804 284.684C98.2399 279.965 110.231 280.844 118.784 286.872L120.637 341.641L54.66 341.461Z" fill="#E0E0E0"/>
<path d="M369.843 341.703C369.843 341.774 299.467 341.826 212.677 341.826C125.887 341.826 55.4961 341.788 55.4961 341.703C55.4961 341.618 125.858 341.58 212.677 341.58C299.496 341.58 369.843 341.651 369.843 341.703Z" fill="#263238"/>
<path d="M279.361 318.807H93.5742V223.388H278.262C278.262 223.388 279.361 319.866 279.361 318.807Z" fill="#F5F5F5"/>
<path d="M210.877 229.066V271.791H243.052V229.066C243.052 229.066 210.877 229.408 210.877 229.066Z" fill="#E0E0E0"/>
<path d="M210.877 229.151V235.797L243.042 235.992V229.066L210.877 229.151Z" fill="#455A64"/>
<path d="M222.508 232.123V233.424H232.809V232.294L222.508 232.123Z" fill="white"/>
<path d="M222.738 238.855H212.668V249.527H222.738V238.855Z" fill="#EDC808"/>
<path d="M221.332 260.711H221.779H223.056H227.733L227.695 260.749C227.695 257.568 227.695 253.372 227.695 248.776V246.051H227.743H237.002L236.963 246.085C236.997 244.115 237.026 242.505 237.045 241.337C237.045 240.796 237.045 240.388 237.069 240.046C237.093 239.704 237.069 239.595 237.069 239.595C237.069 239.595 237.069 239.752 237.069 240.046C237.069 240.341 237.069 240.796 237.069 241.337C237.069 242.486 237.04 244.096 237.021 246.085V246.118H236.982H227.724L227.777 246.07V248.743C227.777 253.338 227.777 257.535 227.777 260.716V260.754H227.738H223.061H221.783L221.332 260.711Z" fill="#4382EE"/>
<path d="M240.286 263.873H239.523H237.371H229.688H229.645V263.83C229.645 260.759 229.645 257.141 229.645 253.282V248.354H236.041L235.998 248.397C235.998 245.454 235.998 242.999 235.998 241.276C235.998 240.431 235.998 239.762 235.998 239.282C235.998 238.803 235.998 238.58 235.998 238.58C235.998 238.58 235.998 238.822 235.998 239.282C235.998 239.743 235.998 240.431 235.998 241.276C235.998 243.013 235.998 245.468 235.998 248.397V248.44H229.678L229.726 248.392V253.315C229.726 257.174 229.726 260.792 229.726 263.863L229.683 263.82H237.366H239.518L240.286 263.873Z" fill="#263238"/>
<path d="M212.734 251.919V252.925H220.879V251.719L212.734 251.919Z" fill="white"/>
<path d="M212.668 253.61V254.611H220.817V253.41L212.668 253.61Z" fill="white"/>
<path d="M81.6544 179.102V210.3H289.642V179.482C289.642 179.482 80.8957 178.352 81.6544 179.102Z" fill="#263238"/>
<path d="M251.315 207.642L251.339 341.703H254.609L254.638 208.383C254.638 208.383 250.767 207.642 251.315 207.642Z" fill="#263238"/>
<path d="M274.266 208.648L274.813 341.456H281.354V208.648C281.354 208.648 273.723 208.088 274.266 208.648Z" fill="#263238"/>
<path d="M82.1094 185.91V201H290.109V185L82.1094 185.91Z" fill="#4382EE"/>
<path d="M87.8206 206.84L88.368 341.756H94.9182V206.84C94.9182 206.84 87.2779 206.27 87.8206 206.84Z" fill="#263238"/>
<path d="M117.786 210.011V341.826H121.056V209.379C121.056 209.379 117.239 210.011 117.786 210.011Z" fill="#263238"/>
<path d="M97.3281 227.917L97.5202 313.999H115.341L114.986 227.917H97.3281Z" fill="#4382EE"/>
<path d="M173.708 306.284H170.352V341.508H173.708V306.284Z" fill="#263238"/>
<path d="M211.885 306.521H130.454C130.086 306.521 129.722 306.45 129.383 306.311C129.043 306.171 128.734 305.968 128.474 305.711C128.214 305.454 128.008 305.149 127.867 304.813C127.727 304.477 127.654 304.117 127.654 303.754C127.656 303.02 127.951 302.318 128.476 301.8C129.001 301.282 129.712 300.991 130.454 300.991H211.899C212.64 300.992 213.35 301.283 213.874 301.801C214.398 302.319 214.693 303.021 214.694 303.754C214.694 304.118 214.621 304.479 214.48 304.815C214.339 305.151 214.132 305.457 213.871 305.714C213.61 305.971 213.3 306.175 212.959 306.313C212.618 306.452 212.253 306.522 211.885 306.521Z" fill="#455A64"/>
<path d="M355.867 227.831H351.564V341.721H355.867V227.831Z" fill="#263238"/>
<path d="M373.987 196.152H336.256V227.826H373.987V196.152Z" fill="#4382EE"/>
<path d="M371.788 225.694H338.869V198.023H371.769L371.788 225.694ZM339.249 225.338H371.423V198.379H339.249V225.338Z" fill="white"/>
<path d="M343.905 207.014L343.818 216.655H367.916V212.995C367.916 212.733 367.863 212.472 367.761 212.229C367.66 211.987 367.51 211.766 367.322 211.58C367.134 211.395 366.91 211.248 366.664 211.148C366.419 211.047 366.155 210.996 365.889 210.997C365.353 210.996 364.838 210.784 364.459 210.408C364.08 210.033 363.868 209.524 363.868 208.993V206.952C363.868 206.69 363.816 206.429 363.715 206.187C363.614 205.944 363.465 205.723 363.277 205.538C363.089 205.352 362.866 205.205 362.62 205.104C362.375 205.004 362.111 204.953 361.846 204.954L345.903 205.03C345.372 205.032 344.864 205.242 344.489 205.614C344.115 205.986 343.905 206.489 343.905 207.014Z" fill="#EDC808"/>
<path d="M366.336 216.66C366.336 217.105 366.202 217.54 365.952 217.91C365.701 218.281 365.346 218.569 364.929 218.739C364.513 218.909 364.055 218.954 363.614 218.866C363.172 218.779 362.766 218.564 362.448 218.249C362.13 217.934 361.914 217.533 361.826 217.096C361.739 216.659 361.785 216.207 361.958 215.795C362.131 215.384 362.423 215.033 362.798 214.787C363.173 214.54 363.614 214.409 364.064 214.41C364.363 214.41 364.659 214.468 364.935 214.581C365.21 214.694 365.461 214.86 365.672 215.069C365.883 215.278 366.05 215.526 366.164 215.799C366.278 216.072 366.336 216.365 366.336 216.66Z" fill="#4382EE"/>
<path d="M364.033 218.251C364.911 218.251 365.622 217.547 365.622 216.679C365.622 215.811 364.911 215.108 364.033 215.108C363.155 215.108 362.443 215.811 362.443 216.679C362.443 217.547 363.155 218.251 364.033 218.251Z" fill="#EDC808"/>
<path d="M350.293 216.323C350.293 216.769 350.159 217.204 349.909 217.574C349.658 217.944 349.303 218.233 348.886 218.403C348.47 218.573 348.012 218.617 347.571 218.53C347.129 218.443 346.723 218.228 346.405 217.913C346.087 217.598 345.871 217.196 345.783 216.759C345.696 216.323 345.742 215.87 345.915 215.459C346.088 215.048 346.38 214.697 346.755 214.45C347.13 214.203 347.571 214.072 348.021 214.073C348.32 214.073 348.616 214.131 348.892 214.245C349.168 214.358 349.418 214.524 349.629 214.733C349.84 214.942 350.007 215.19 350.121 215.463C350.235 215.736 350.293 216.028 350.293 216.323Z" fill="#4382EE"/>
<path d="M349.577 216.343C349.577 216.654 349.484 216.958 349.309 217.216C349.134 217.475 348.886 217.676 348.595 217.795C348.304 217.914 347.985 217.945 347.676 217.884C347.368 217.823 347.084 217.672 346.862 217.452C346.64 217.232 346.489 216.952 346.428 216.646C346.368 216.341 346.4 216.025 346.521 215.738C346.642 215.451 346.846 215.206 347.108 215.034C347.37 214.862 347.678 214.771 347.993 214.771C348.414 214.773 348.817 214.939 349.114 215.233C349.411 215.528 349.577 215.927 349.577 216.343Z" fill="#EDC808"/>
<path d="M344.881 207.683V210.94H347.119V207.683C346.374 207.636 345.626 207.636 344.881 207.683Z" fill="#4382EE"/>
<path d="M348.123 207.683V210.94H350.366V207.683C349.619 207.636 348.87 207.636 348.123 207.683Z" fill="#4382EE"/>
<path d="M351.354 207.683V210.94H353.596V207.683C352.849 207.636 352.1 207.636 351.354 207.683Z" fill="#4382EE"/>
<path d="M354.797 207.683V210.94H357.04V207.683C356.293 207.636 355.544 207.636 354.797 207.683Z" fill="#4382EE"/>
<path d="M357.996 207.683V210.94H360.239V207.683C359.492 207.636 358.743 207.636 357.996 207.683Z" fill="#4382EE"/>
<path d="M361.439 207.683V210.94H363.682V207.683C362.935 207.636 362.186 207.636 361.439 207.683Z" fill="#4382EE"/>
<path d="M358.522 254.853C357.98 254.549 355.775 256.851 355.886 256.144C355.996 255.437 358.998 253.571 358.412 253.296C357.653 252.911 355.396 255.351 355.185 255.546C354.973 255.741 354.613 255.513 354.815 255.347C355.103 255.104 358.066 252.498 357.326 252.109C356.914 251.895 356.481 252.517 356.481 252.517C356.481 252.517 353.936 255.114 353.6 254.924C353.264 254.734 354.685 253.163 355.214 252.664C355.742 252.166 355.651 251.772 355.185 251.777C354.868 251.777 353.201 253.286 352.692 253.789C352.183 254.293 350.815 255.688 350.771 254.587C350.728 253.486 350.176 252.631 349.811 252.489C349.446 252.346 349.067 252.683 349.264 252.992C349.427 253.338 349.531 253.709 349.571 254.089C349.609 254.353 349.596 254.622 349.533 254.881C348.26 255.921 339.136 263.327 338.074 263.009C336.936 262.671 332.557 248.572 332.557 248.572L328.086 261.418C328.086 261.418 331.222 270.694 337.032 270.789C344 270.908 353.907 258.503 353.907 258.499C355.223 257.711 356.63 256.832 357.341 256.277C358.854 255.071 358.724 254.962 358.522 254.853Z" fill="#FFBE9D"/>
<path d="M330.555 261.974L336.769 257.977C336.769 257.977 333.696 245.458 328.605 245.06L328.125 249.641L330.555 261.974Z" fill="#4382EE"/>
<path d="M316.465 278.788C316.863 279.339 319.999 302.348 319.999 302.348L298.898 322.761L303.845 327.936C303.845 327.936 328.672 307.248 329.176 304.879C329.781 302.03 328.096 280.44 328.096 280.44L316.465 278.788Z" fill="#F8B491"/>
<path d="M316.844 291.407H321.43L315.48 282.093L316.844 291.407Z" fill="#263238"/>
<path d="M315.202 233.975C315.135 235.16 314.687 236.294 313.921 237.209C313.155 238.124 312.113 238.772 310.947 239.059C309.742 239.348 308.354 239.211 307.393 240.008C305.756 241.38 306.716 244.229 305.612 246.075C304.93 247.205 303.58 247.765 302.817 248.838C301.544 250.628 302.399 253.329 304.133 254.663C305.866 255.997 308.176 256.248 310.347 256.192C315.149 256.073 320.023 254.568 323.481 251.221C325.104 249.645 330.362 243.664 327.975 235.038" fill="#263238"/>
<path d="M326.094 245.088C325.969 244.428 325.878 240.872 325.878 240.872C325.878 240.872 328.38 240.559 328.486 238.024C328.591 235.489 328.342 229.697 328.342 229.697L323.741 227.514L318.795 231.454L319.65 244.271L326.094 245.088Z" fill="#FFBE9D"/>
<path d="M327.918 233.941C327.924 233.986 327.92 234.031 327.906 234.074C327.893 234.117 327.87 234.157 327.84 234.191C327.81 234.225 327.773 234.252 327.731 234.27C327.69 234.289 327.645 234.298 327.599 234.298C327.554 234.298 327.508 234.289 327.467 234.27C327.425 234.252 327.388 234.225 327.358 234.191C327.328 234.157 327.305 234.117 327.292 234.074C327.278 234.031 327.274 233.986 327.28 233.941C327.274 233.897 327.278 233.851 327.292 233.808C327.305 233.765 327.328 233.726 327.358 233.692C327.388 233.658 327.425 233.631 327.467 233.613C327.508 233.594 327.554 233.584 327.599 233.584C327.645 233.584 327.69 233.594 327.731 233.613C327.773 233.631 327.81 233.658 327.84 233.692C327.87 233.726 327.893 233.765 327.906 233.808C327.92 233.851 327.924 233.897 327.918 233.941Z" fill="#263238"/>
<path d="M328.217 233.595C328.178 233.637 327.938 233.443 327.597 233.428C327.256 233.414 327.002 233.585 326.963 233.542C326.925 233.5 326.963 233.443 327.098 233.362C327.247 233.26 327.426 233.209 327.607 233.22C327.783 233.231 327.951 233.298 328.087 233.409C328.202 233.495 328.236 233.576 328.217 233.595Z" fill="#263238"/>
<path d="M324.236 234.017C324.238 234.101 324.206 234.182 324.148 234.243C324.089 234.304 324.009 234.341 323.924 234.344C323.882 234.345 323.839 234.337 323.8 234.322C323.76 234.306 323.724 234.283 323.694 234.253C323.663 234.223 323.639 234.188 323.623 234.149C323.606 234.11 323.598 234.068 323.598 234.026C323.596 233.942 323.628 233.861 323.687 233.8C323.745 233.739 323.825 233.702 323.91 233.699C323.952 233.698 323.995 233.706 324.034 233.722C324.074 233.737 324.11 233.761 324.14 233.79C324.171 233.82 324.195 233.855 324.211 233.894C324.228 233.933 324.236 233.975 324.236 234.017Z" fill="#263238"/>
<path d="M324.428 233.661C324.385 233.704 324.149 233.505 323.803 233.495C323.458 233.486 323.208 233.652 323.17 233.604C323.131 233.557 323.194 233.509 323.304 233.429C323.453 233.325 323.632 233.274 323.813 233.282C323.99 233.291 324.158 233.358 324.293 233.471C324.409 233.562 324.461 233.642 324.428 233.661Z" fill="#263238"/>
<path d="M325.709 236.571C325.892 236.519 326.081 236.49 326.271 236.486C326.357 236.486 326.439 236.486 326.454 236.405C326.464 236.31 326.446 236.214 326.401 236.13L326.156 235.413C325.925 234.806 325.74 234.182 325.604 233.547C325.879 234.136 326.111 234.743 326.295 235.366C326.377 235.617 326.454 235.84 326.53 236.082C326.582 236.197 326.596 236.325 326.569 236.448C326.557 236.479 326.538 236.507 326.512 236.529C326.487 236.552 326.457 236.568 326.425 236.576C326.375 236.585 326.325 236.585 326.276 236.576C326.088 236.602 325.897 236.6 325.709 236.571Z" fill="#263238"/>
<path d="M324.585 236.918C325.09 237.227 325.66 237.416 326.251 237.469C326.129 237.642 325.952 237.771 325.747 237.834C325.543 237.897 325.323 237.89 325.123 237.815C324.932 237.766 324.768 237.644 324.667 237.476C324.566 237.308 324.537 237.107 324.585 236.918Z" fill="white"/>
<path d="M325.901 240.872C324.715 240.841 323.565 240.468 322.592 239.799C322.91 240.379 323.398 240.851 323.991 241.154C324.585 241.458 325.257 241.577 325.92 241.498L325.901 240.872Z" fill="#A36957"/>
<path d="M328.47 233.249C328.825 232.335 328.9 231.339 328.684 230.384C328.469 229.428 327.973 228.557 327.26 227.88C324.753 225.326 323.072 225.895 322.107 225.91C321.141 225.924 316.675 226.982 315.412 232.257C315.35 232.596 315.305 232.938 315.278 233.282C315.249 233.567 315.225 233.833 315.201 234.013H315.259C315.259 236.197 315.571 242.648 319.581 243.45L319.192 233.415C319.192 233.415 323.278 232.94 323.936 229.171C323.951 229.161 326.914 233.386 328.47 233.249Z" fill="#263238"/>
<path d="M330.349 304.224C331.746 310.893 336.861 338.878 336.861 338.878L343.954 337.634L340.635 302.301C340.554 301.369 340.362 300.45 340.064 299.562L331.9 275.351L315.904 265.097C315.75 265.097 314.022 271.928 314.358 276.258C314.521 278.185 315.189 280.038 316.298 281.632C317.258 283.056 318.636 285.007 318.944 285.463C319.443 286.189 330.349 304.224 330.349 304.224Z" fill="#FFBE9D"/>
<path d="M299.758 237.568C299.033 231.914 300.719 225.776 301.401 223.621C301.636 223.398 301.924 223.146 302.275 222.852C302.578 222.608 302.921 222.415 303.288 222.282C303.739 222.103 304.212 221.985 304.695 221.931C304.789 221.936 304.881 221.913 304.961 221.863C305.04 221.814 305.102 221.742 305.138 221.656C305.174 221.571 305.182 221.476 305.161 221.386C305.14 221.296 305.092 221.214 305.022 221.152C304.69 220.92 303.456 220.901 302.14 221.504C300.824 222.106 301.819 220.079 302.164 219.348C302.51 218.617 303.466 216.263 303.317 215.978C303.105 215.56 302.611 215.712 302.284 216.453C301.958 217.193 300.82 219.382 300.431 219.182C300.042 218.983 301.871 215.233 301.871 215.233C301.871 215.233 302.39 214.492 301.953 214.25C301.156 213.808 299.552 217.938 299.389 218.332C299.288 218.608 298.86 218.408 298.985 218.119C299.11 217.829 300.872 214.416 300.071 213.96C299.451 213.609 298.702 217.345 297.938 217.848C297.175 218.351 298.803 215.076 298.198 214.763C297.972 214.649 297.789 214.592 297.132 216.609C296.722 218.085 296.391 219.581 296.142 221.091C296.142 221.091 287.849 241.299 296.675 245.301C306.044 249.536 314.371 252.508 314.371 252.508L316.777 243.91C316.777 243.91 299.893 238.589 299.758 237.568Z" fill="#FFBE9D"/>
<path d="M314.405 252.508L315.817 265.667L315.212 268.364L330.098 268.435L332.888 254.436L333.172 252.878C333.347 251.926 333.32 250.947 333.091 250.006C332.862 249.064 332.438 248.18 331.844 247.41C331.25 246.64 330.5 246 329.642 245.533C328.785 245.065 327.838 244.78 326.862 244.694H326.674L313.449 242.829L314.405 252.508Z" fill="#FFBE9D"/>
<path d="M330.003 271.828L330.113 268.434L315.812 266.127L330.003 271.828Z" fill="#FFBE9D"/>
<path d="M298.899 322.781L296.666 324.746L296.949 325.088C298.227 326.607 303.552 332.717 304.753 333.41C306.098 334.179 302.928 328.805 302.928 328.805L303.845 327.955" fill="#4382EE"/>
<g opacity="0.5">
<path d="M298.491 326.602C298.861 326.113 299.032 325.505 298.971 324.898C298.925 324.297 298.652 323.734 298.208 323.322L296.729 324.684L298.491 326.602Z" fill="white"/>
</g>
<path opacity="0.5" d="M304.398 331.506C304.398 331.506 305.411 333.481 304.969 333.524C304.527 333.566 298.909 327.594 296.666 324.746L296.791 324.646L303.283 331.668C303.283 331.668 304.1 331.212 304.398 331.506Z" fill="white"/>
<path d="M296.719 324.561C296.739 324.596 296.763 324.63 296.791 324.66L297.021 324.931L297.871 325.923C298.596 326.749 299.614 327.884 300.753 329.113C301.891 330.343 302.971 331.425 303.754 332.204L304.714 333.12L304.974 333.362C305.001 333.392 305.031 333.42 305.065 333.443C305.038 333.412 305.008 333.385 304.974 333.362C304.902 333.281 304.82 333.2 304.729 333.106L303.816 332.156C303.043 331.368 301.982 330.257 300.834 329.047C299.687 327.836 298.654 326.673 297.919 325.876L297.045 324.926C296.959 324.826 296.877 324.741 296.805 324.665C296.779 324.628 296.75 324.593 296.719 324.561Z" fill="#263238"/>
<path d="M303.197 331.734C303.396 331.627 303.608 331.545 303.826 331.487C304.05 331.463 304.275 331.463 304.499 331.487C304.285 331.379 304.039 331.353 303.807 331.416C303.571 331.444 303.354 331.557 303.197 331.734Z" fill="#263238"/>
<path d="M302.539 329.469C302.658 329.497 302.781 329.497 302.899 329.469C303.091 329.432 303.245 329.384 303.24 329.36C303.12 329.339 302.996 329.347 302.88 329.384C302.688 329.398 302.534 329.446 302.539 329.469Z" fill="#263238"/>
<path d="M302.371 328.838C302.371 328.861 302.506 328.895 302.669 328.909C302.832 328.923 302.976 328.909 302.976 328.909C302.976 328.909 302.847 328.852 302.678 328.838C302.51 328.823 302.371 328.814 302.371 328.838Z" fill="#263238"/>
<path d="M302.615 328.111C302.615 328.111 302.697 328.263 302.836 328.415C302.975 328.567 303.105 328.681 303.124 328.662C303.072 328.546 302.995 328.442 302.899 328.358C302.759 328.206 302.634 328.097 302.615 328.111Z" fill="#263238"/>
<path d="M302.881 327.699C302.908 327.843 302.976 327.976 303.078 328.083C303.231 328.273 303.404 328.377 303.419 328.358C303.433 328.339 303.294 328.211 303.145 328.031C302.996 327.851 302.905 327.684 302.881 327.699Z" fill="#263238"/>
<path d="M303.169 329.223C303.251 329.354 303.359 329.469 303.486 329.56C303.616 329.666 303.756 329.762 303.903 329.845C303.991 329.896 304.085 329.937 304.182 329.968C304.211 329.981 304.242 329.987 304.273 329.987C304.305 329.987 304.336 329.981 304.364 329.968C304.395 329.95 304.419 329.924 304.435 329.893C304.45 329.862 304.456 329.827 304.451 329.792C304.394 329.606 304.273 329.445 304.109 329.337C303.946 329.228 303.749 329.18 303.553 329.199C303.437 329.21 303.324 329.244 303.222 329.299C303.154 329.337 303.121 329.37 303.125 329.375C303.261 329.311 303.408 329.273 303.558 329.261C303.718 329.255 303.876 329.295 304.014 329.375C304.098 329.419 304.173 329.48 304.233 329.553C304.293 329.627 304.338 329.711 304.364 329.802C304.364 329.892 304.292 329.925 304.201 329.902C304.112 329.87 304.025 329.832 303.942 329.788C303.797 329.71 303.657 329.623 303.524 329.527C303.298 329.36 303.178 329.213 303.169 329.223Z" fill="#263238"/>
<path d="M303.23 329.327C303.23 329.327 303.365 329.303 303.504 329.147C303.583 329.055 303.639 328.946 303.667 328.828C303.69 328.753 303.694 328.673 303.678 328.596C303.662 328.519 303.627 328.447 303.576 328.387C303.536 328.36 303.488 328.35 303.44 328.358C303.393 328.366 303.35 328.392 303.322 328.43C303.276 328.487 303.244 328.554 303.226 328.624C303.192 328.739 303.173 328.857 303.168 328.976C303.156 329.084 303.171 329.193 303.211 329.294C303.211 329.294 303.211 329.17 303.211 328.98C303.224 328.868 303.248 328.756 303.283 328.648C303.312 328.539 303.408 328.387 303.504 328.458C303.542 328.509 303.567 328.567 303.579 328.629C303.59 328.69 303.588 328.754 303.571 328.814C303.549 328.921 303.503 329.022 303.437 329.109C303.376 329.188 303.307 329.262 303.23 329.327Z" fill="#263238"/>
<path d="M298.266 323.336C298.266 323.336 298.424 323.474 298.616 323.735C298.868 324.077 299.02 324.481 299.058 324.903C299.088 325.325 298.998 325.748 298.799 326.123C298.65 326.412 298.501 326.559 298.515 326.569C298.53 326.578 298.559 326.54 298.621 326.469C298.71 326.371 298.789 326.265 298.856 326.151C299.075 325.77 299.175 325.334 299.144 324.898C299.11 324.46 298.943 324.043 298.664 323.701C298.582 323.597 298.489 323.501 298.386 323.417C298.314 323.36 298.27 323.331 298.266 323.336Z" fill="#263238"/>
<path d="M299.629 326.787C300.009 327.385 300.497 327.908 301.07 328.33C301.07 328.33 300.743 327.988 300.354 327.566C299.965 327.143 299.648 326.773 299.629 326.787Z" fill="#263238"/>
<path d="M298.663 325.762C298.663 325.762 298.615 325.857 298.572 325.966C298.529 326.075 298.471 326.156 298.49 326.175C298.509 326.194 298.601 326.123 298.649 325.999C298.697 325.876 298.687 325.762 298.663 325.762Z" fill="#263238"/>
<path d="M298.789 324.926C298.789 324.926 298.741 325.011 298.736 325.116C298.731 325.22 298.736 325.306 298.77 325.31C298.803 325.315 298.818 325.225 298.822 325.12C298.827 325.016 298.813 324.931 298.789 324.926Z" fill="#263238"/>
<path d="M298.49 324.172C298.49 324.172 298.543 324.262 298.586 324.361C298.63 324.461 298.639 324.556 298.668 324.561C298.697 324.566 298.721 324.452 298.668 324.328C298.615 324.205 298.5 324.138 298.49 324.172Z" fill="#263238"/>
<path d="M298.227 323.664C298.227 323.664 298.227 323.726 298.227 323.787C298.227 323.849 298.289 323.887 298.313 323.878C298.337 323.868 298.313 323.811 298.313 323.754C298.313 323.697 298.246 323.664 298.227 323.664Z" fill="#263238"/>
<path d="M315.816 265.667C315.816 265.667 312.502 274.782 314.308 279.543C316.114 284.305 321.411 292.47 321.411 292.47L338.031 285.074L330.117 271.093V268.435L315.816 265.667Z" fill="#455A64"/>
<path d="M319.595 243.436L307.052 240.645L304.973 251.9L313.765 253.832L315.816 265.667L330.117 268.435C330.117 268.435 332.749 256.363 333.234 254.155C334.194 249.84 332.436 247.78 332.436 247.78C332.018 247.09 331.462 246.494 330.801 246.026C330.14 245.558 329.389 245.229 328.595 245.059L319.595 243.436Z" fill="#4382EE"/>
<path d="M330.67 250.69C330.55 251.234 330.55 251.798 330.67 252.342C330.828 252.926 331.063 253.486 331.371 254.008C331.763 254.658 332.104 255.337 332.389 256.04C332.855 257.363 332.871 258.799 332.437 260.132C332.308 260.532 332.134 260.915 331.918 261.276C331.849 261.413 331.758 261.538 331.649 261.646C331.886 261.136 332.093 260.613 332.269 260.08C332.637 258.781 332.597 257.402 332.153 256.125C331.883 255.434 331.562 254.763 331.193 254.117C330.886 253.573 330.66 252.988 330.521 252.38C330.436 251.965 330.436 251.537 330.521 251.122C330.538 250.969 330.589 250.822 330.67 250.69Z" fill="#263238"/>
<path d="M336.261 281.935C336.295 281.992 332.683 283.834 328.203 286.07C323.722 288.306 320.039 290.048 320.039 289.986C320.039 289.925 323.617 288.087 328.097 285.851C332.578 283.616 336.232 281.888 336.261 281.935Z" fill="#263238"/>
<path d="M327.491 268.05C327.577 268.388 327.577 268.742 327.491 269.08C327.359 269.923 326.964 270.703 326.362 271.314C325.759 271.924 324.979 272.333 324.13 272.484C323.788 272.567 323.43 272.567 323.088 272.484C323.088 272.441 323.486 272.45 324.092 272.294C324.886 272.114 325.612 271.716 326.187 271.146C326.763 270.575 327.163 269.856 327.343 269.07C327.472 268.444 327.448 268.05 327.491 268.05Z" fill="#263238"/>
<path d="M311.307 275.66C311.307 275.66 308.532 275.148 306.356 279.069C304.856 281.892 303.635 284.852 302.712 287.908C302.422 288.832 302.512 289.831 302.961 290.689C303.41 291.548 304.183 292.198 305.113 292.499L307.173 293.168C308.105 293.47 309.119 293.396 309.996 292.963C310.874 292.531 311.543 291.773 311.86 290.856C313.593 285.743 316.009 276.595 311.307 275.66Z" fill="#263238"/>
<path d="M313.285 276.457C313.129 276.975 312.93 277.48 312.69 277.966C312.479 278.441 312.239 278.992 311.974 279.58C311.914 279.759 311.818 279.924 311.693 280.066C311.568 280.207 311.415 280.323 311.244 280.406C310.862 280.54 310.448 280.56 310.054 280.463C309.839 280.421 309.643 280.315 309.492 280.16C309.421 280.075 309.37 279.977 309.341 279.871C309.313 279.766 309.309 279.655 309.328 279.547C309.414 279.196 309.56 278.862 309.761 278.56L310.635 277.026C310.883 276.545 311.168 276.083 311.489 275.645C311.295 276.151 311.061 276.642 310.788 277.112L309.962 278.669C309.785 278.951 309.652 279.259 309.569 279.58C309.556 279.654 309.56 279.73 309.58 279.802C309.6 279.874 309.635 279.941 309.684 279.998C309.799 280.115 309.949 280.192 310.111 280.221C310.45 280.317 310.809 280.317 311.148 280.221C311.438 280.078 311.659 279.827 311.763 279.523L312.522 277.933C312.739 277.423 312.994 276.93 313.285 276.457Z" fill="#455A64"/>
<path d="M310.4 280.346C310.383 280.531 310.344 280.715 310.285 280.892C310.194 281.238 310.054 281.737 309.862 282.349C309.478 283.574 308.902 285.245 308.215 287.096L307.36 289.47V289.536H307.288C305.949 289.698 304.806 289.821 303.994 289.902C303.568 289.969 303.138 289.999 302.707 289.992C303.125 289.885 303.55 289.809 303.98 289.764C304.782 289.641 305.924 289.484 307.26 289.289L307.163 289.365C307.413 288.63 307.701 287.823 308.004 286.992C308.676 285.155 309.296 283.498 309.718 282.292L310.198 280.868C310.243 280.686 310.31 280.51 310.4 280.346Z" fill="#455A64"/>
<path d="M307.25 289.417C307.862 289.877 308.421 290.403 308.916 290.984C309.472 291.511 309.969 292.095 310.4 292.726C309.79 292.261 309.232 291.735 308.734 291.154C308.178 290.63 307.68 290.047 307.25 289.417Z" fill="#455A64"/>
<path d="M307.331 277.497C307.331 277.497 307.383 277.497 307.479 277.497C307.62 277.541 307.749 277.614 307.859 277.711C308.053 277.898 308.198 278.13 308.282 278.386C308.366 278.641 308.385 278.913 308.339 279.178C308.257 279.861 307.801 280.54 307.431 281.295C307.228 281.677 307.119 282.102 307.114 282.534C307.156 282.999 307.297 283.45 307.527 283.858C307.781 284.297 307.944 284.781 308.008 285.282C308.042 285.524 308.016 285.77 307.933 285.999C307.849 286.228 307.71 286.434 307.527 286.597C307.341 286.723 307.123 286.797 306.898 286.811C306.672 286.825 306.447 286.779 306.245 286.678C305.909 286.52 305.605 286.303 305.347 286.037C305.018 285.649 304.637 285.307 304.214 285.021C304.047 284.936 303.874 284.865 303.695 284.808C303.695 284.808 303.748 284.808 303.849 284.808C303.992 284.83 304.131 284.874 304.262 284.936C304.715 285.197 305.123 285.527 305.472 285.914C305.72 286.155 306.009 286.349 306.327 286.488C306.494 286.571 306.681 286.608 306.867 286.595C307.054 286.583 307.234 286.521 307.388 286.417C307.541 286.276 307.657 286.1 307.725 285.905C307.794 285.71 307.813 285.501 307.782 285.297C307.724 284.831 307.574 284.381 307.34 283.972C307.098 283.532 306.953 283.047 306.913 282.548C306.92 282.078 307.04 281.616 307.263 281.2C307.667 280.426 308.113 279.776 308.224 279.159C308.273 278.917 308.265 278.667 308.2 278.429C308.135 278.191 308.015 277.971 307.849 277.787C307.695 277.66 307.519 277.562 307.331 277.497Z" fill="#E0E0E0"/>
<path d="M312.742 288.007C312.625 288.076 312.497 288.124 312.363 288.15C312.008 288.257 311.639 288.316 311.268 288.325C310.983 288.338 310.697 288.294 310.429 288.196C310.161 288.098 309.916 287.948 309.707 287.756C309.446 287.521 309.276 287.204 309.227 286.858C309.199 286.488 309.305 286.12 309.525 285.819C309.95 285.274 310.543 284.882 311.215 284.703C311.731 284.557 312.232 284.367 312.713 284.133C313.149 283.911 313.509 283.567 313.751 283.146C313.751 283.146 313.751 283.298 313.611 283.526C313.407 283.84 313.129 284.101 312.8 284.285C312.32 284.545 311.814 284.756 311.292 284.917C310.674 285.093 310.128 285.456 309.731 285.956C309.543 286.21 309.451 286.521 309.472 286.835C309.504 287.124 309.638 287.393 309.851 287.594C310.226 287.952 310.727 288.152 311.249 288.15C311.61 288.156 311.97 288.124 312.324 288.055C312.46 288.016 312.601 288 312.742 288.007Z" fill="#E0E0E0"/>
<path d="M311.976 291.459C311.701 291.247 311.416 291.049 311.121 290.865C310.397 290.452 309.54 290.333 308.729 290.533C307.918 290.733 307.217 291.237 306.775 291.938C306.599 292.238 306.439 292.547 306.295 292.864C306.301 292.502 306.411 292.15 306.612 291.848C306.827 291.464 307.12 291.128 307.472 290.861C307.824 290.594 308.227 290.401 308.658 290.295C309.089 290.188 309.537 290.171 309.974 290.243C310.412 290.315 310.83 290.475 311.203 290.713C311.526 290.886 311.793 291.144 311.976 291.459Z" fill="#E0E0E0"/>
<path opacity="0.7" d="M319.826 254.544C319.946 254.753 319.826 257.445 319.826 257.445L329.743 257.977V255.152L319.826 254.544Z" fill="white"/>
<path d="M326.674 244.679L311.062 276.158L312.863 277.359L328.586 245.078C328.31 244.889 327.999 244.756 327.671 244.688C327.343 244.619 327.004 244.617 326.674 244.679Z" fill="#263238"/>
<path d="M317.861 228.055C318.14 227.748 318.323 227.369 318.387 226.962C318.452 226.555 318.396 226.138 318.226 225.762C318.048 225.39 317.779 225.069 317.444 224.826C317.109 224.583 316.717 224.427 316.306 224.371C315.892 224.323 315.472 224.361 315.074 224.482C314.675 224.603 314.307 224.805 313.991 225.073C313.749 225.245 313.559 225.478 313.441 225.748C313.322 226.018 313.28 226.315 313.319 226.607C313.43 226.952 313.647 227.255 313.938 227.476C314.548 228.048 315.331 228.406 316.166 228.496C316.583 228.535 317.002 228.46 317.378 228.279C317.754 228.098 318.072 227.818 318.298 227.471" fill="#263238"/>
<path d="M344.02 337.241L344.289 338.484C344.289 338.484 350.715 338.617 349.317 339.363C348.064 340.032 339.843 341.366 337.826 341.656L337.345 341.717L336.803 338.746L344.02 337.241Z" fill="#4382EE"/>
<g opacity="0.5">
<path d="M339.98 341.133C339.748 340.551 339.307 340.074 338.741 339.794C338.187 339.513 337.546 339.449 336.945 339.614L337.353 341.612L339.98 341.133Z" fill="white"/>
</g>
<path opacity="0.5" d="M347.449 338.656C347.449 338.656 349.73 338.836 349.533 339.244C349.336 339.653 341.076 341.305 337.369 341.718V341.556L347.017 339.705C347.017 339.705 347.031 338.76 347.449 338.656Z" fill="white"/>
<path d="M337.234 341.574H337.359L337.724 341.522L339.05 341.313C340.169 341.133 341.71 340.839 343.405 340.521C345.1 340.202 346.627 339.842 347.727 339.571L349.029 339.253L349.384 339.158C349.426 339.152 349.467 339.14 349.504 339.12L349.379 339.144L349.024 339.22L347.713 339.509C346.608 339.756 345.076 340.084 343.391 340.421C341.705 340.758 340.159 341.043 339.069 341.242L337.743 341.479L337.388 341.546L337.234 341.574Z" fill="#263238"/>
<path d="M347.031 339.804C347.035 339.342 347.206 338.896 347.511 338.546C347.303 338.671 347.15 338.87 347.084 339.102C346.981 339.322 346.962 339.572 347.031 339.804Z" fill="#263238"/>
<path d="M344.664 339.173C344.664 339.173 344.765 339.04 344.837 338.855C344.909 338.67 344.947 338.513 344.923 338.503C344.844 338.596 344.787 338.705 344.755 338.821C344.7 338.931 344.669 339.051 344.664 339.173Z" fill="#263238"/>
<path d="M344.015 338.988C344.015 338.988 344.135 338.902 344.236 338.769C344.337 338.636 344.404 338.508 344.385 338.494C344.366 338.48 344.265 338.579 344.164 338.712C344.063 338.845 343.996 338.974 344.015 338.988Z" fill="#263238"/>
<path d="M343.506 338.38C343.636 338.401 343.769 338.391 343.895 338.351C344.025 338.341 344.152 338.303 344.265 338.238C344.134 338.219 344.002 338.229 343.876 338.266C343.745 338.276 343.619 338.315 343.506 338.38Z" fill="#263238"/>
<path d="M343.285 337.934C343.425 337.993 343.579 338.006 343.727 337.972C343.879 337.968 344.026 337.918 344.15 337.83C344.004 337.836 343.859 337.855 343.717 337.887C343.572 337.89 343.428 337.906 343.285 337.934Z" fill="#263238"/>
<path d="M344.783 338.503C344.948 338.499 345.111 338.465 345.264 338.403C345.43 338.352 345.591 338.283 345.744 338.199C345.835 338.149 345.922 338.092 346.003 338.028C346.05 337.984 346.081 337.925 346.089 337.862C346.09 337.826 346.08 337.791 346.06 337.76C346.04 337.73 346.012 337.706 345.979 337.691C345.782 337.643 345.574 337.664 345.391 337.75C345.208 337.837 345.061 337.984 344.975 338.166C344.922 338.27 344.892 338.386 344.889 338.503C344.889 338.588 344.889 338.631 344.889 338.631C344.903 338.48 344.947 338.333 345.019 338.199C345.098 338.056 345.218 337.938 345.364 337.862C345.448 337.813 345.541 337.782 345.638 337.769C345.734 337.756 345.832 337.762 345.926 337.786C346.008 337.829 345.998 337.919 345.926 337.985C345.852 338.047 345.772 338.101 345.686 338.147C345.542 338.231 345.391 338.304 345.235 338.365C344.956 338.451 344.778 338.489 344.783 338.503Z" fill="#263238"/>
<path d="M344.908 338.498C344.948 338.393 344.948 338.277 344.908 338.171C344.873 338.053 344.806 337.947 344.716 337.862C344.663 337.802 344.594 337.756 344.518 337.728C344.442 337.701 344.359 337.693 344.279 337.706C344.257 337.714 344.236 337.728 344.219 337.744C344.201 337.761 344.188 337.781 344.178 337.803C344.169 337.825 344.164 337.849 344.164 337.873C344.164 337.897 344.169 337.921 344.178 337.943C344.203 338.014 344.244 338.079 344.298 338.133C344.382 338.222 344.476 338.301 344.577 338.37C344.75 338.479 344.879 338.513 344.879 338.498C344.879 338.484 344.774 338.437 344.615 338.318C344.522 338.248 344.437 338.168 344.361 338.081C344.279 337.995 344.197 337.829 344.313 337.786C344.428 337.744 344.567 337.843 344.658 337.919C344.74 337.996 344.805 338.088 344.851 338.19C344.876 338.291 344.895 338.394 344.908 338.498Z" fill="#263238"/>
<path d="M336.98 339.59C336.98 339.59 337.182 339.529 337.518 339.5C337.954 339.461 338.391 339.545 338.78 339.741C339.17 339.938 339.495 340.24 339.718 340.611C339.891 340.896 339.943 341.086 339.963 341.086C339.96 341.037 339.95 340.989 339.934 340.943C339.893 340.815 339.84 340.691 339.775 340.573C339.553 340.18 339.219 339.86 338.815 339.652C338.41 339.451 337.954 339.374 337.504 339.429C337.368 339.445 337.235 339.476 337.105 339.519C337.059 339.534 337.017 339.558 336.98 339.59Z" fill="#263238"/>
<path d="M340.75 340.278C341.112 340.288 341.474 340.252 341.826 340.169C342.185 340.117 342.535 340.018 342.868 339.875C342.868 339.851 342.388 339.974 341.807 340.083C341.225 340.193 340.745 340.231 340.75 340.278Z" fill="#263238"/>
<path d="M339.348 340.535C339.348 340.535 339.41 340.63 339.477 340.725C339.545 340.819 339.593 340.914 339.617 340.905C339.641 340.895 339.617 340.786 339.549 340.672C339.482 340.558 339.348 340.516 339.348 340.535Z" fill="#263238"/>
<path d="M338.66 339.989C338.66 339.989 338.708 340.075 338.8 340.132C338.891 340.189 338.973 340.227 338.987 340.203C339.002 340.18 338.939 340.118 338.848 340.061C338.756 340.003 338.675 339.965 338.66 339.989Z" fill="#263238"/>
<path d="M337.835 339.841C337.835 339.841 337.941 339.841 338.056 339.841C338.171 339.841 338.258 339.894 338.272 339.875C338.287 339.856 338.205 339.77 338.066 339.751C337.927 339.732 337.821 339.803 337.835 339.841Z" fill="#263238"/>
<path d="M337.264 339.804C337.264 339.828 337.307 339.857 337.37 339.866C337.432 339.876 337.49 339.866 337.495 339.842C337.5 339.819 337.451 339.79 337.389 339.781C337.326 339.771 337.264 339.804 337.264 339.804Z" fill="#263238"/>
<path d="M204.004 338.982L204.518 335.184L197.362 334.188L196.551 339.704L196.993 339.794C198.952 340.178 206.976 341.612 208.355 341.403C209.886 341.185 204.004 338.982 204.004 338.982Z" fill="#4382EE"/>
<g opacity="0.3">
<path d="M199.155 340.032C199.133 339.421 198.885 338.84 198.459 338.399C198.039 337.96 197.469 337.692 196.859 337.648L196.576 339.623L199.155 340.032Z" fill="white"/>
</g>
<g opacity="0.3">
<path d="M206.863 340.165C206.863 340.165 208.909 341.067 208.592 341.38C208.275 341.693 200.111 340.544 196.553 339.723L196.586 339.571L206.104 340.995C206.104 340.995 206.445 340.122 206.863 340.165Z" fill="white"/>
</g>
<path d="M196.475 339.546C196.513 339.562 196.554 339.573 196.595 339.58L196.945 339.651L198.237 339.888C199.332 340.078 200.845 340.325 202.521 340.562C204.197 340.8 205.719 340.98 206.843 341.099L208.149 341.227L208.504 341.255H208.629L208.509 341.232L208.154 341.189L206.809 341.037C205.709 340.904 204.187 340.714 202.487 340.477C200.787 340.239 199.298 340.002 198.203 339.826L196.907 339.618L196.556 339.561L196.475 339.546Z" fill="#263238"/>
<path d="M206.084 341.095C206.17 340.889 206.281 340.694 206.415 340.515C206.57 340.353 206.742 340.208 206.929 340.083C206.696 340.135 206.49 340.268 206.348 340.459C206.183 340.63 206.089 340.857 206.084 341.095Z" fill="#263238"/>
<path d="M204.126 339.741C204.126 339.741 204.26 339.646 204.39 339.499C204.519 339.352 204.606 339.219 204.587 339.205C204.568 339.191 204.452 339.295 204.323 339.442C204.193 339.589 204.107 339.722 204.126 339.741Z" fill="#263238"/>
<path d="M203.587 339.357C203.587 339.357 203.726 339.319 203.865 339.224C204.004 339.129 204.105 339.044 204.091 339.02C204.076 338.996 203.956 339.063 203.817 339.153C203.678 339.243 203.577 339.329 203.587 339.357Z" fill="#263238"/>
<path d="M203.318 338.636C203.43 338.697 203.555 338.731 203.683 338.735C203.81 338.765 203.941 338.765 204.068 338.735C203.953 338.677 203.827 338.643 203.698 338.636C203.573 338.609 203.443 338.609 203.318 338.636Z" fill="#263238"/>
<path d="M203.26 338.147C203.37 338.247 203.509 338.311 203.658 338.327C203.801 338.372 203.953 338.372 204.095 338.327C203.959 338.286 203.819 338.256 203.678 338.237C203.541 338.197 203.401 338.167 203.26 338.147Z" fill="#263238"/>
<path d="M204.457 339.157C204.612 339.207 204.775 339.228 204.937 339.219C205.106 339.219 205.275 339.206 205.441 339.181C205.543 339.168 205.643 339.142 205.739 339.105C205.797 339.083 205.844 339.038 205.869 338.982C205.881 338.949 205.884 338.913 205.876 338.878C205.868 338.844 205.851 338.812 205.826 338.787C205.662 338.678 205.466 338.628 205.27 338.646C205.073 338.664 204.89 338.749 204.75 338.887C204.667 338.966 204.601 339.061 204.558 339.167C204.539 339.205 204.529 339.247 204.529 339.29C204.594 339.155 204.683 339.033 204.793 338.93C204.913 338.824 205.062 338.756 205.221 338.735C205.41 338.7 205.605 338.741 205.763 338.849C205.83 338.911 205.787 338.991 205.701 339.029C205.612 339.062 205.521 339.086 205.427 339.1C205.269 339.133 205.108 339.152 204.947 339.157C204.635 339.167 204.457 339.143 204.457 339.157Z" fill="#263238"/>
<path d="M204.57 339.196C204.639 339.108 204.675 338.999 204.671 338.887C204.671 338.767 204.643 338.648 204.589 338.541C204.56 338.469 204.512 338.405 204.452 338.356C204.392 338.306 204.32 338.272 204.243 338.256C204.219 338.257 204.196 338.263 204.174 338.273C204.153 338.283 204.133 338.298 204.117 338.315C204.101 338.333 204.089 338.354 204.081 338.376C204.073 338.398 204.069 338.422 204.071 338.446C204.071 338.52 204.087 338.593 204.119 338.659C204.165 338.768 204.224 338.87 204.296 338.963C204.421 339.125 204.527 339.191 204.532 339.182C204.536 339.172 204.455 339.091 204.349 338.93C204.286 338.835 204.235 338.733 204.195 338.626C204.143 338.522 204.123 338.346 204.243 338.341C204.364 338.337 204.46 338.474 204.517 338.574C204.569 338.671 204.6 338.778 204.608 338.887C204.604 338.991 204.591 339.094 204.57 339.196Z" fill="#263238"/>
<path d="M196.896 337.634C196.896 337.634 197.108 337.634 197.425 337.729C197.839 337.834 198.215 338.053 198.51 338.36C198.804 338.668 199.004 339.051 199.086 339.466C199.149 339.784 199.13 339.988 199.149 339.988C199.157 339.941 199.157 339.893 199.149 339.846C199.164 339.717 199.164 339.586 199.149 339.457C199.08 339.023 198.881 338.619 198.577 338.298C198.271 337.981 197.877 337.762 197.444 337.667C197.314 337.639 197.183 337.623 197.05 337.62L196.896 337.634Z" fill="#263238"/>
<path d="M198.064 334.795C197.943 335.264 197.852 335.739 197.79 336.219C197.7 336.701 197.639 337.188 197.607 337.676C197.725 337.207 197.815 336.732 197.876 336.252C197.966 335.77 198.029 335.284 198.064 334.795Z" fill="#263238"/>
<path d="M200.152 339.466C200.482 339.596 200.827 339.68 201.18 339.717C201.53 339.783 201.886 339.804 202.241 339.779C202.241 339.755 201.761 339.717 201.194 339.632C200.628 339.547 200.157 339.442 200.152 339.466Z" fill="#263238"/>
<path d="M198.75 339.272C198.75 339.272 198.75 339.371 198.808 339.485C198.865 339.599 198.851 339.694 198.88 339.699C198.908 339.704 198.932 339.59 198.88 339.462C198.827 339.334 198.769 339.253 198.75 339.272Z" fill="#263238"/>
<path d="M198.318 338.546C198.294 338.546 198.318 338.641 198.394 338.726C198.471 338.811 198.524 338.868 198.543 338.854C198.562 338.84 198.543 338.759 198.466 338.674C198.39 338.588 198.337 338.531 198.318 338.546Z" fill="#263238"/>
<path d="M197.604 338.141C197.604 338.165 197.7 338.179 197.801 338.231C197.901 338.284 197.969 338.35 197.988 338.336C198.007 338.322 197.964 338.217 197.839 338.155C197.714 338.094 197.599 338.117 197.604 338.141Z" fill="#263238"/>
<path d="M197.084 337.928C197.084 337.928 197.108 337.99 197.166 338.023C197.224 338.057 197.277 338.061 197.286 338.023C197.296 337.985 197.262 337.961 197.209 337.933C197.156 337.904 197.098 337.904 197.084 337.928Z" fill="#263238"/>
<path d="M223.204 319.737L221.283 316.414L215.002 319.941L217.768 324.802L218.171 324.612C219.958 323.734 227.2 320.021 228.16 319.025C229.226 317.933 223.204 319.737 223.204 319.737Z" fill="#4382EE"/>
<g opacity="0.3">
<path d="M220.01 323.496C219.618 323.023 219.062 322.711 218.449 322.623C217.847 322.528 217.23 322.66 216.721 322.993L217.715 324.73L220.01 323.496Z" fill="white"/>
</g>
<g opacity="0.3">
<path d="M226.201 318.948C226.201 318.948 228.376 318.431 228.318 318.868C228.261 319.304 221.082 323.32 217.754 324.821L217.682 324.678L226.095 320.059C226.095 320.059 225.841 319.167 226.201 318.948Z" fill="white"/>
</g>
<path d="M217.59 324.731L217.705 324.683L218.027 324.527L219.199 323.933C220.183 323.43 221.532 322.709 223.007 321.887C224.481 321.066 225.797 320.288 226.743 319.713L227.857 319.025L228.159 318.835L228.26 318.764C228.221 318.777 228.184 318.796 228.15 318.821L227.843 318.996L226.709 319.661C225.749 320.221 224.438 320.985 222.963 321.811C221.489 322.637 220.145 323.359 219.17 323.881L218.012 324.498L217.695 324.664L217.59 324.731Z" fill="#263238"/>
<path d="M226.157 320.155C226.098 319.942 226.066 319.721 226.061 319.5C226.083 319.279 226.129 319.06 226.201 318.85C226.047 319.03 225.967 319.26 225.975 319.495C225.947 319.73 226.013 319.967 226.157 320.155Z" fill="#263238"/>
<path d="M223.764 320.264C223.793 320.264 223.817 320.112 223.827 319.917C223.847 319.798 223.838 319.676 223.803 319.561C223.733 319.789 223.719 320.03 223.764 320.264Z" fill="#263238"/>
<path d="M223.107 320.283C223.131 320.283 223.189 320.169 223.241 320.012C223.294 319.856 223.323 319.723 223.299 319.718C223.275 319.713 223.213 319.832 223.16 319.989C223.107 320.145 223.083 320.278 223.107 320.283Z" fill="#263238"/>
<path d="M222.45 319.865C222.576 319.843 222.696 319.794 222.801 319.723C222.983 319.623 223.123 319.523 223.108 319.504C223.094 319.485 222.94 319.547 222.758 319.647C222.575 319.747 222.436 319.865 222.45 319.865Z" fill="#263238"/>
<path d="M222.1 319.528C222.249 319.539 222.399 319.504 222.527 319.428C222.666 319.375 222.788 319.285 222.878 319.167C222.743 319.216 222.613 319.276 222.489 319.347C222.354 319.396 222.223 319.456 222.1 319.528Z" fill="#263238"/>
<path d="M223.67 319.604C223.824 319.559 223.969 319.486 224.097 319.39C224.233 319.29 224.359 319.178 224.472 319.053C224.544 318.981 224.609 318.902 224.664 318.816C224.696 318.762 224.706 318.697 224.693 318.636C224.682 318.603 224.661 318.574 224.634 318.552C224.607 318.53 224.574 318.517 224.539 318.512C224.342 318.524 224.156 318.602 224.011 318.735C223.867 318.867 223.773 319.045 223.747 319.239C223.72 319.351 223.72 319.468 223.747 319.58C223.756 319.622 223.774 319.661 223.8 319.694C223.774 319.547 223.774 319.396 223.8 319.248C223.833 319.093 223.91 318.95 224.021 318.835C224.081 318.766 224.154 318.71 224.237 318.669C224.319 318.628 224.409 318.604 224.501 318.598C224.592 318.598 224.606 318.697 224.563 318.778C224.513 318.857 224.455 318.932 224.39 319.001C224.281 319.124 224.162 319.238 224.035 319.343C223.819 319.504 223.665 319.59 223.67 319.604Z" fill="#263238"/>
<path d="M223.785 319.566C223.788 319.455 223.749 319.346 223.675 319.262C223.602 319.165 223.506 319.087 223.396 319.034C223.328 318.995 223.25 318.975 223.17 318.975C223.091 318.975 223.013 318.995 222.945 319.034C222.911 319.069 222.893 319.115 222.893 319.163C222.893 319.21 222.911 319.256 222.945 319.291C222.989 319.349 223.047 319.396 223.113 319.428C223.218 319.486 223.329 319.532 223.444 319.566C223.641 319.618 223.766 319.609 223.766 319.595C223.766 319.58 223.646 319.571 223.463 319.504C223.356 319.469 223.252 319.421 223.156 319.362C223.05 319.31 222.926 319.177 223.017 319.101C223.074 319.073 223.136 319.059 223.199 319.059C223.263 319.059 223.325 319.073 223.382 319.101C223.484 319.145 223.574 319.211 223.646 319.295C223.701 319.381 223.748 319.471 223.785 319.566Z" fill="#263238"/>
<path d="M216.745 322.96C216.9 322.869 217.06 322.787 217.225 322.713C217.62 322.545 218.055 322.492 218.48 322.558C218.905 322.624 219.302 322.808 219.626 323.088C219.876 323.302 219.986 323.477 220 323.468C219.985 323.421 219.961 323.377 219.928 323.34C219.852 323.233 219.765 323.135 219.669 323.045C219.347 322.744 218.94 322.545 218.502 322.476C218.063 322.409 217.614 322.472 217.21 322.656C217.091 322.715 216.977 322.783 216.869 322.86C216.778 322.917 216.74 322.955 216.745 322.96Z" fill="#263238"/>
<path d="M215.934 320.007C216.131 320.456 216.357 320.892 216.611 321.313C216.835 321.75 217.087 322.174 217.365 322.58C217.165 322.133 216.939 321.697 216.688 321.275C216.461 320.838 216.209 320.415 215.934 320.007Z" fill="#263238"/>
<path d="M220.457 322.448C221.128 322.222 221.753 321.88 222.301 321.437C222.301 321.413 221.893 321.669 221.384 321.949C220.875 322.229 220.443 322.424 220.457 322.448Z" fill="#263238"/>
<path d="M219.223 323.136C219.223 323.16 219.304 323.202 219.4 323.274C219.496 323.345 219.564 323.411 219.588 323.397C219.612 323.383 219.564 323.283 219.453 323.202C219.343 323.122 219.227 323.112 219.223 323.136Z" fill="#263238"/>
<path d="M218.43 322.823C218.43 322.823 218.502 322.889 218.603 322.917C218.703 322.946 218.795 322.951 218.799 322.917C218.804 322.884 218.727 322.856 218.627 322.827C218.526 322.799 218.434 322.804 218.43 322.823Z" fill="#263238"/>
<path d="M217.618 322.936C217.618 322.936 217.714 322.908 217.825 322.889C217.935 322.87 218.031 322.889 218.041 322.855C218.05 322.822 217.945 322.775 217.81 322.803C217.676 322.832 217.599 322.922 217.618 322.936Z" fill="#263238"/>
<path d="M217.072 323.079C217.072 323.102 217.13 323.112 217.197 323.102C217.265 323.093 217.308 323.069 217.303 323.045C217.298 323.021 217.246 323.007 217.183 323.017C217.12 323.026 217.072 323.055 217.072 323.079Z" fill="#263238"/>
<path d="M199.068 266.933C199.068 266.933 201.843 277.961 202.712 277.491C207.438 274.932 212.12 270.218 213.873 268.362C213.94 268.11 214.007 267.83 214.074 267.512C214.148 267.142 214.159 266.762 214.108 266.387C214.065 265.92 213.957 265.462 213.786 265.025C213.594 264.64 213.959 264.218 214.305 264.393C214.651 264.569 215.213 265.618 215.265 267.004C215.318 268.391 216.61 266.648 217.09 266.017C217.57 265.386 219.146 263.515 219.453 263.515C219.904 263.515 219.991 263.99 219.501 264.616C219.011 265.243 217.657 267.189 217.998 267.432C218.339 267.674 220.73 264.436 220.73 264.436C220.73 264.436 221.134 263.658 221.537 263.928C222.262 264.403 219.462 267.655 219.189 267.954C218.997 268.167 219.357 268.428 219.554 268.205C219.751 267.982 221.868 264.925 222.613 265.409C223.184 265.78 220.336 268.101 220.24 268.979C220.144 269.857 222.229 266.995 222.757 267.375C222.958 267.512 223.083 267.645 221.657 269.112C220.456 270.241 219.193 271.303 217.873 272.293C214.089 276.47 200.105 289.91 197.248 282.703C193.848 274.13 194.366 268.59 194.366 268.59L199.068 266.933Z" fill="#FFBE9D"/>
<path d="M179.158 270.888L180.013 279.608L179.004 285.709L177.564 289.07L196.436 287.066L194.871 279.238L195.02 276.584C195.409 278.328 195.89 280.05 196.46 281.745C197.454 284.493 199.298 285.068 199.298 285.068C205.541 286.43 217.547 273.147 217.547 273.147L213.273 268.044L203.126 276.665C203.199 276.58 203.239 276.471 203.239 276.359C203.239 276.247 203.199 276.138 203.126 276.053C202.866 275.744 202.401 276.665 202.401 276.665L200.028 268.239C200.028 268.239 199.337 260.672 191.836 260.311H185.593C182.727 260.888 180.111 262.326 178.102 264.428C176.093 266.53 174.79 269.194 174.37 272.056C174.251 272.921 174.183 273.793 174.169 274.667C173.991 285.11 179.168 287.437 179.168 287.437L182.049 278.863L179.158 270.888Z" fill="#455A64"/>
<path d="M194.324 276.874C194.62 276.65 194.867 276.369 195.049 276.048C195.539 275.304 195.848 274.459 195.951 273.577C196.054 272.696 195.949 271.803 195.645 270.968C195.538 270.621 195.362 270.298 195.126 270.019C195.093 270.019 195.294 270.404 195.491 271.035C195.744 271.855 195.826 272.718 195.731 273.57C195.632 274.422 195.355 275.245 194.92 275.986C194.588 276.537 194.324 276.85 194.324 276.874Z" fill="#263238"/>
<path d="M196.144 285.21C195.848 285.081 195.561 284.933 195.284 284.769C193.363 283.739 191.307 282.973 189.176 282.495C188.46 282.338 187.697 282.2 186.904 282.105C186.511 282.058 186.102 282.015 185.689 281.991C185.276 281.968 184.859 281.963 184.422 281.892C183.97 281.839 183.553 281.624 183.25 281.289C182.985 280.953 182.803 280.562 182.717 280.145C182.544 279.352 182.477 278.592 182.39 277.861C182.257 276.571 182.191 275.275 182.193 273.978C182.193 272.872 182.251 271.98 182.304 271.362C182.304 271.054 182.352 270.812 182.376 270.65C182.378 270.568 182.393 270.486 182.419 270.408C182.436 270.724 182.436 271.041 182.419 271.358C182.419 271.975 182.371 272.867 182.39 273.969C182.41 275.07 182.477 276.38 182.64 277.828C182.726 278.55 182.808 279.323 182.976 280.078C183.05 280.458 183.215 280.814 183.456 281.118C183.721 281.411 184.085 281.597 184.479 281.64C184.883 281.702 185.305 281.702 185.723 281.735C186.141 281.768 186.549 281.806 186.948 281.854C187.72 281.95 188.486 282.088 189.243 282.267C190.522 282.562 191.773 282.969 192.979 283.482C193.795 283.826 194.586 284.224 195.347 284.674C195.616 284.825 195.827 284.963 195.957 285.053C196.024 285.099 196.087 285.152 196.144 285.21Z" fill="#263238"/>
<path d="M181.877 283.24C181.987 282.781 182.241 282.369 182.602 282.062C182.964 281.755 183.414 281.569 183.889 281.531C183.889 281.602 183.318 281.773 182.765 282.248C182.213 282.722 181.944 283.268 181.877 283.24Z" fill="#263238"/>
<path d="M188.689 243.791C189.887 243.376 191.187 243.356 192.397 243.734C192.996 243.931 193.533 244.279 193.954 244.745C194.375 245.21 194.666 245.777 194.798 246.387C194.899 247 194.798 247.66 195.105 248.201C195.413 248.742 196.066 249.074 196.579 249.506C196.965 249.851 197.255 250.288 197.423 250.774C197.591 251.261 197.631 251.782 197.54 252.288C197.362 252.821 197.256 253.375 197.223 253.935C197.314 254.505 197.592 255.029 198.015 255.426C198.438 255.818 198.805 256.265 199.105 256.755C199.253 257.002 199.326 257.286 199.314 257.572C199.302 257.859 199.206 258.136 199.038 258.369C198.616 258.844 197.871 258.844 197.228 258.844C194.981 258.834 192.736 258.959 190.505 259.219" fill="#263238"/>
<path d="M191.841 260.211C191.841 259.124 191.812 258.194 191.812 258.194C191.812 258.194 194.496 257.857 194.616 255.151C194.736 252.445 194.458 246.198 194.458 246.198L189.521 243.853L185.199 248.714L185.353 260.316C185.363 261.156 185.706 261.958 186.309 262.551C186.912 263.143 187.725 263.477 188.575 263.482C189.009 263.486 189.438 263.403 189.839 263.239C190.239 263.075 190.603 262.834 190.907 262.529C191.211 262.224 191.451 261.862 191.611 261.464C191.772 261.066 191.85 260.64 191.841 260.211Z" fill="#FFBE9D"/>
<path d="M193.766 250.76C193.766 250.828 193.746 250.894 193.708 250.95C193.67 251.006 193.616 251.05 193.553 251.076C193.49 251.102 193.421 251.109 193.354 251.096C193.287 251.083 193.226 251.051 193.177 251.004C193.129 250.956 193.095 250.896 193.081 250.83C193.068 250.764 193.074 250.695 193.099 250.633C193.125 250.57 193.168 250.517 193.224 250.478C193.281 250.44 193.347 250.419 193.415 250.418C193.461 250.418 193.506 250.426 193.549 250.443C193.591 250.46 193.63 250.485 193.663 250.517C193.695 250.549 193.721 250.587 193.739 250.628C193.757 250.67 193.766 250.715 193.766 250.76Z" fill="#263238"/>
<path d="M194.323 250.376C194.279 250.423 194.025 250.21 193.66 250.195C193.295 250.181 193.017 250.366 192.978 250.314C192.94 250.262 193.002 250.21 193.122 250.124C193.282 250.014 193.474 249.959 193.668 249.967C193.863 249.976 194.049 250.048 194.198 250.172C194.323 250.267 194.347 250.357 194.323 250.376Z" fill="#263238"/>
<path d="M189.762 250.76C189.761 250.826 189.74 250.891 189.703 250.946C189.665 251 189.611 251.043 189.549 251.068C189.487 251.093 189.419 251.099 189.353 251.086C189.288 251.073 189.227 251.041 189.18 250.994C189.133 250.947 189.1 250.887 189.087 250.822C189.074 250.757 189.08 250.69 189.105 250.629C189.13 250.567 189.173 250.515 189.229 250.477C189.284 250.44 189.349 250.419 189.416 250.418C189.508 250.418 189.596 250.454 189.661 250.519C189.726 250.583 189.762 250.67 189.762 250.76Z" fill="#263238"/>
<path d="M190.251 250.447C190.208 250.49 189.949 250.276 189.584 250.262C189.219 250.248 188.94 250.433 188.902 250.385C188.864 250.338 188.926 250.281 189.046 250.196C189.206 250.086 189.399 250.031 189.593 250.039C189.787 250.047 189.973 250.119 190.122 250.243C190.232 250.338 190.271 250.423 190.251 250.447Z" fill="#263238"/>
<path d="M191.629 253.574C191.824 253.516 192.026 253.486 192.229 253.484C192.325 253.484 192.416 253.484 192.431 253.394C192.441 253.291 192.421 253.187 192.373 253.095C192.287 252.848 192.2 252.62 192.109 252.326C191.862 251.672 191.663 251.001 191.514 250.318C191.811 250.95 192.06 251.604 192.258 252.274C192.344 252.544 192.431 252.801 192.513 253.048C192.569 253.171 192.584 253.309 192.556 253.442C192.542 253.475 192.52 253.505 192.493 253.528C192.465 253.552 192.433 253.57 192.397 253.579C192.345 253.585 192.291 253.585 192.239 253.579C192.036 253.603 191.831 253.601 191.629 253.574Z" fill="#263238"/>
<path d="M191.811 258.194C190.538 258.161 189.303 257.76 188.258 257.04C188.258 257.04 189.093 259.015 191.768 258.858L191.811 258.194Z" fill="#EB996E"/>
<path d="M178.823 257.064C179.119 256.843 179.372 256.569 179.567 256.257C179.822 255.716 179.567 255.08 179.289 254.548C179.01 254.016 178.679 253.456 178.784 252.868C178.967 251.833 180.321 251.406 180.705 250.432C181.056 249.559 180.532 248.481 181.003 247.66C181.382 247 182.261 246.786 182.765 246.207C183.086 245.71 183.339 245.174 183.519 244.612C183.745 244.143 184.08 243.734 184.498 243.42C184.916 243.106 185.405 242.895 185.922 242.806C186.44 242.716 186.971 242.751 187.472 242.907C187.973 243.063 188.429 243.335 188.802 243.701C189.554 243.511 190.338 243.474 191.105 243.592C191.873 243.709 192.608 243.979 193.268 244.384C193.873 244.706 194.364 245.203 194.675 245.809C194.886 246.371 194.976 246.971 194.939 247.57V248.856C194.95 248.965 194.93 249.076 194.881 249.174C194.82 249.238 194.745 249.286 194.662 249.317C194.579 249.347 194.489 249.359 194.401 249.35L192.394 249.426C192.256 249.442 192.117 249.421 191.99 249.364C191.887 249.295 191.804 249.201 191.749 249.09C191.694 248.979 191.67 248.856 191.678 248.733C191.678 248.543 191.678 248.163 191.678 248.054C191.587 248.481 191.505 248.562 191.438 248.828C191.418 248.966 191.369 249.098 191.294 249.216C191.22 249.335 191.122 249.437 191.006 249.516C190.824 249.593 190.627 249.626 190.43 249.611H189.561C189.416 249.616 189.272 249.58 189.148 249.507C189.07 249.422 189.015 249.319 188.989 249.208C188.963 249.096 188.967 248.98 188.999 248.87C189.073 248.58 189.118 248.282 189.133 247.983C188.874 248.486 188.749 249.113 188.432 249.198C188.111 249.245 187.783 249.222 187.472 249.132C187.15 249.032 186.919 248.946 186.684 248.875C186.706 249.008 186.74 249.138 186.785 249.265C187.03 249.915 187.577 250.542 187.385 251.211C187.193 251.88 186.521 252.113 186.17 252.635C186.005 252.938 185.912 253.274 185.899 253.618C185.886 253.962 185.952 254.305 186.093 254.619C186.374 255.239 186.62 255.873 186.833 256.518C186.938 256.85 186.946 257.204 186.856 257.54C186.766 257.876 186.581 258.18 186.324 258.417C185.863 258.688 185.326 258.808 184.792 258.759L179.918 258.768C179.604 258.791 179.288 258.757 178.986 258.669C178.835 258.624 178.697 258.54 178.588 258.427C178.479 258.314 178.401 258.175 178.362 258.023C178.356 257.839 178.395 257.655 178.475 257.489C178.555 257.322 178.675 257.176 178.823 257.064Z" fill="#263238"/>
<path d="M196.942 255.597C196.942 255.597 196.894 255.55 196.841 255.436C196.769 255.266 196.729 255.084 196.726 254.9C196.754 254.221 196.974 253.563 197.359 253.001C197.595 252.617 197.78 252.205 197.912 251.776C198.048 251.291 197.991 250.773 197.753 250.328C197.636 250.09 197.473 249.877 197.273 249.701C197.05 249.521 196.796 249.382 196.524 249.288C196.217 249.179 195.931 249.019 195.679 248.814C195.549 248.691 195.447 248.544 195.378 248.38C195.31 248.217 195.276 248.041 195.28 247.864C195.28 247.527 195.304 247.214 195.28 246.915C195.268 246.62 195.212 246.329 195.112 246.051C194.924 245.511 194.609 245.024 194.195 244.627C193.489 243.957 192.575 243.544 191.602 243.454C190.942 243.387 190.276 243.422 189.628 243.558C189.148 243.649 188.917 243.729 188.912 243.71C188.908 243.691 188.97 243.672 189.085 243.63C189.256 243.564 189.431 243.508 189.609 243.464C190.263 243.287 190.945 243.226 191.621 243.283C192.643 243.353 193.609 243.769 194.358 244.46C194.798 244.875 195.136 245.383 195.347 245.946C195.454 246.253 195.515 246.572 195.53 246.896C195.53 247.219 195.506 247.537 195.53 247.845C195.527 247.987 195.553 248.128 195.608 248.26C195.662 248.391 195.744 248.51 195.847 248.61C196.08 248.791 196.341 248.933 196.62 249.032C196.915 249.143 197.188 249.303 197.427 249.507C197.654 249.704 197.842 249.942 197.979 250.209C198.236 250.707 198.291 251.283 198.133 251.819C197.989 252.261 197.787 252.682 197.532 253.072C197.146 253.605 196.909 254.228 196.846 254.881C196.838 255.123 196.87 255.365 196.942 255.597Z" fill="#263238"/>
<path d="M177.957 252.117C178.121 252.206 178.295 252.274 178.476 252.322C178.718 252.37 178.969 252.358 179.205 252.287C179.442 252.215 179.657 252.087 179.83 251.913C180.072 251.641 180.232 251.307 180.29 250.949C180.349 250.592 180.304 250.225 180.162 249.891C179.953 249.461 179.899 248.974 180.008 248.51C180.239 248.043 180.643 247.682 181.136 247.503C181.579 247.349 181.986 247.109 182.332 246.796C182.596 246.456 182.762 246.053 182.812 245.628C182.867 245.217 182.975 244.815 183.134 244.432C183.297 244.099 183.537 243.81 183.835 243.587C184.264 243.273 184.785 243.106 185.319 243.112C185.463 243.114 185.606 243.132 185.747 243.164C185.795 243.176 185.842 243.193 185.886 243.216C185.886 243.216 185.679 243.188 185.324 243.216C184.819 243.247 184.336 243.435 183.946 243.753C183.679 243.966 183.467 244.237 183.326 244.546C183.183 244.917 183.086 245.305 183.038 245.699C182.988 246.167 182.808 246.612 182.519 246.986C182.151 247.325 181.716 247.587 181.242 247.755C180.81 247.911 180.452 248.221 180.238 248.623C180.147 249.036 180.198 249.467 180.382 249.848C180.532 250.22 180.571 250.626 180.495 251.018C180.419 251.411 180.232 251.774 179.955 252.065C179.759 252.252 179.518 252.385 179.254 252.451C178.991 252.518 178.714 252.516 178.452 252.445C178.313 252.403 178.181 252.339 178.063 252.255C177.996 252.165 177.953 252.122 177.957 252.117Z" fill="#4382EE"/>
<path d="M191.499 254.529C191.475 254.414 191.424 254.307 191.35 254.216C191.276 254.125 191.18 254.053 191.072 254.007C190.996 253.972 190.914 253.954 190.831 253.954C190.748 253.954 190.666 253.972 190.591 254.007C190.519 254.044 190.46 254.102 190.421 254.173C190.383 254.245 190.367 254.325 190.375 254.406C190.398 254.494 190.445 254.574 190.513 254.636C190.58 254.699 190.664 254.741 190.755 254.757C190.938 254.782 191.124 254.769 191.302 254.719C191.352 254.712 191.399 254.694 191.441 254.667C191.463 254.653 191.48 254.634 191.491 254.612C191.502 254.589 191.507 254.564 191.504 254.539" fill="#EB996E"/>
<path d="M190.587 253.561C190.654 253.561 190.659 253.974 190.99 254.282C191.322 254.591 191.739 254.572 191.744 254.638C191.749 254.705 191.648 254.724 191.466 254.724C191.224 254.72 190.993 254.627 190.817 254.463C190.642 254.297 190.535 254.074 190.515 253.836C190.505 253.656 190.553 253.556 190.587 253.561Z" fill="#263238"/>
<path d="M177.871 288.823C177.871 288.823 205.81 283.036 208.514 284.304C211.218 285.571 223.468 317.966 223.468 317.966L214.68 323.188L202.843 294.425C202.843 294.425 183.283 301.484 179.864 300.786C176.445 300.088 177.871 288.823 177.871 288.823Z" fill="#263238"/>
<path d="M190.356 290.432C190.784 290.575 206.943 297.14 208.081 299.252C209.219 301.365 206.328 337.842 206.328 337.842L196.205 337.007L197.814 305.277L179.873 300.786L190.356 290.432Z" fill="#263238"/>
<path d="M179.773 300.876C179.854 300.879 179.935 300.871 180.014 300.852L180.705 300.738L183.241 300.263C185.378 299.86 188.331 299.314 191.558 298.497C193.167 298.094 194.689 297.657 196.058 297.215C197.426 296.774 198.646 296.328 199.65 295.91C200.653 295.492 201.46 295.141 202.003 294.866L202.632 294.552C202.705 294.519 202.776 294.479 202.843 294.434C202.762 294.447 202.684 294.475 202.613 294.514L201.969 294.79C201.417 295.041 200.605 295.378 199.592 295.772C198.579 296.166 197.364 296.594 196 297.03C194.636 297.467 193.119 297.885 191.5 298.288C188.288 299.086 185.339 299.67 183.212 300.111L180.691 300.638L180.009 300.795C179.928 300.813 179.849 300.841 179.773 300.876Z" fill="#455A64"/>
<path d="M208.082 307.318C208.128 307.147 208.157 306.972 208.168 306.796C208.207 306.411 208.26 305.932 208.322 305.372C208.385 304.811 208.447 304.028 208.524 303.235C208.647 302.358 208.647 301.468 208.524 300.591C208.34 299.705 207.868 298.903 207.179 298.308C206.642 297.822 206.031 297.423 205.369 297.126C204.924 296.925 204.469 296.747 204.005 296.594C203.838 296.526 203.664 296.476 203.486 296.447C203.486 296.485 204.197 296.736 205.302 297.263C205.947 297.567 206.544 297.962 207.074 298.436C207.719 299.012 208.162 299.777 208.337 300.62C208.449 301.478 208.449 302.348 208.337 303.207C208.279 304 208.226 304.721 208.183 305.343C208.14 305.965 208.12 306.402 208.096 306.767C208.072 306.95 208.067 307.134 208.082 307.318Z" fill="#455A64"/>
<path d="M200.019 304.308C199.621 304.364 199.237 304.491 198.886 304.683C198.507 304.811 198.154 305.004 197.844 305.253C198.24 305.197 198.622 305.07 198.972 304.878C199.352 304.749 199.706 304.557 200.019 304.308Z" fill="#455A64"/>
<path d="M199.208 303.35C198.944 303.678 198.699 304.02 198.473 304.375C198.188 304.685 197.922 305.012 197.676 305.353C198.068 305.162 198.4 304.868 198.636 304.503C198.934 304.18 199.132 303.78 199.208 303.35Z" fill="#455A64"/>
<path d="M149.689 339.803L149.415 336.005L156.619 335.45L157.075 341.009L156.633 341.07C154.655 341.336 146.548 342.262 145.189 341.968C143.677 341.645 149.689 339.803 149.689 339.803Z" fill="#4382EE"/>
<g opacity="0.3">
<path d="M154.463 341.166C154.52 340.556 154.804 339.99 155.26 339.575C155.705 339.161 156.292 338.931 156.902 338.93L157.061 340.919L154.463 341.166Z" fill="white"/>
</g>
<g opacity="0.3">
<path d="M146.779 340.814C146.779 340.814 144.68 341.593 144.973 341.92C145.266 342.248 153.492 341.612 157.094 341.018L157.07 340.862L147.466 341.683C147.466 341.683 147.178 340.8 146.779 340.814Z" fill="white"/>
</g>
<path d="M157.167 340.847L157.042 340.871L156.691 340.918L155.385 341.075C154.281 341.203 152.758 341.355 151.063 341.483C149.368 341.611 147.846 341.702 146.741 341.749L145.426 341.797H145.07C145.029 341.802 144.987 341.802 144.945 341.797H145.07L145.426 341.773L146.737 341.702C147.846 341.635 149.373 341.54 151.059 341.407C152.744 341.274 154.271 341.132 155.38 341.023L156.687 340.895L157.042 340.861L157.167 340.847Z" fill="#263238"/>
<path d="M147.481 341.792C147.403 341.583 147.303 341.383 147.183 341.194C147.043 341.018 146.882 340.858 146.703 340.719C146.925 340.799 147.119 340.942 147.258 341.13C147.398 341.319 147.477 341.544 147.486 341.778L147.481 341.792Z" fill="#263238"/>
<path d="M149.516 340.563C149.516 340.563 149.387 340.463 149.272 340.306C149.156 340.15 149.07 340.017 149.094 340.003C149.118 339.988 149.224 340.102 149.339 340.254C149.454 340.406 149.54 340.549 149.516 340.563Z" fill="#263238"/>
<path d="M150.079 340.216C150.079 340.216 149.945 340.169 149.81 340.065C149.676 339.96 149.585 339.87 149.599 339.851C149.614 339.832 149.734 339.898 149.863 339.998C149.993 340.098 150.094 340.197 150.079 340.216Z" fill="#263238"/>
<path d="M150.397 339.513C150.279 339.565 150.151 339.591 150.022 339.589C149.897 339.618 149.767 339.618 149.643 339.589C149.76 339.537 149.888 339.511 150.017 339.513C150.142 339.485 150.272 339.485 150.397 339.513Z" fill="#263238"/>
<path d="M150.482 339.03C150.365 339.121 150.222 339.174 150.074 339.182C149.929 339.219 149.776 339.211 149.637 339.158C149.776 339.126 149.917 339.105 150.059 339.096C150.198 339.061 150.339 339.039 150.482 339.03Z" fill="#263238"/>
<path d="M149.224 339.959C149.068 340.001 148.905 340.013 148.744 339.993C148.582 339.986 148.421 339.963 148.264 339.926C148.162 339.907 148.064 339.875 147.971 339.831C147.913 339.805 147.868 339.757 147.846 339.698C147.836 339.665 147.835 339.63 147.845 339.596C147.854 339.562 147.873 339.532 147.899 339.509C148.069 339.41 148.269 339.372 148.464 339.402C148.659 339.433 148.838 339.529 148.97 339.675C149.048 339.759 149.107 339.859 149.142 339.969C149.162 340.007 149.171 340.05 149.166 340.092C149.109 339.954 149.028 339.828 148.926 339.717C148.811 339.605 148.666 339.528 148.509 339.494C148.417 339.469 148.32 339.464 148.226 339.478C148.132 339.492 148.042 339.525 147.961 339.575C147.889 339.632 147.927 339.717 148.014 339.76C148.1 339.799 148.19 339.828 148.283 339.846C148.44 339.888 148.601 339.918 148.763 339.936C149.046 339.959 149.224 339.945 149.224 339.959Z" fill="#263238"/>
<path d="M149.109 339.993C149.046 339.901 149.017 339.79 149.028 339.679C149.034 339.559 149.069 339.442 149.128 339.338C149.163 339.266 149.215 339.205 149.279 339.158C149.344 339.112 149.419 339.082 149.498 339.072C149.545 339.079 149.588 339.103 149.617 339.14C149.647 339.177 149.661 339.224 149.657 339.271C149.65 339.346 149.629 339.418 149.594 339.485C149.541 339.59 149.474 339.689 149.397 339.779C149.263 339.931 149.152 339.993 149.148 339.983C149.143 339.974 149.234 339.893 149.349 339.741C149.416 339.65 149.474 339.553 149.522 339.452C149.575 339.347 149.604 339.171 149.489 339.157C149.373 339.143 149.263 339.281 149.2 339.376C149.142 339.47 149.104 339.575 149.09 339.684C149.086 339.787 149.093 339.891 149.109 339.993Z" fill="#263238"/>
<path d="M156.865 338.91C156.865 338.91 156.658 338.91 156.336 338.972C155.916 339.051 155.527 339.245 155.213 339.532C154.902 339.825 154.678 340.196 154.564 340.605C154.478 340.918 154.488 341.122 154.468 341.122C154.461 341.075 154.461 341.027 154.468 340.98C154.469 340.847 154.485 340.715 154.516 340.586C154.613 340.159 154.837 339.77 155.16 339.47C155.487 339.174 155.894 338.98 156.332 338.91C156.464 338.895 156.598 338.895 156.73 338.91C156.775 338.903 156.82 338.903 156.865 338.91Z" fill="#263238"/>
<path d="M155.904 336.005C155.991 336.488 156.05 336.974 156.082 337.463C156.14 337.95 156.17 338.439 156.173 338.93C156.084 338.448 156.025 337.961 155.996 337.472C155.935 336.986 155.904 336.496 155.904 336.005Z" fill="#263238"/>
<path d="M153.504 340.539C153.167 340.648 152.816 340.71 152.462 340.724C152.109 340.767 151.753 340.767 151.4 340.724C151.4 340.696 151.881 340.691 152.457 340.639C153.033 340.586 153.504 340.515 153.504 340.539Z" fill="#263238"/>
<path d="M154.909 340.43C154.909 340.43 154.881 340.529 154.842 340.639C154.804 340.748 154.785 340.848 154.756 340.848C154.727 340.848 154.713 340.738 154.756 340.61C154.799 340.482 154.895 340.411 154.909 340.43Z" fill="#263238"/>
<path d="M155.39 339.732C155.39 339.732 155.39 339.827 155.299 339.907C155.208 339.988 155.16 340.04 155.145 340.026C155.131 340.012 155.145 339.931 155.237 339.851C155.328 339.77 155.376 339.718 155.39 339.732Z" fill="#263238"/>
<path d="M156.13 339.376C156.13 339.376 156.03 339.405 155.929 339.452C155.828 339.5 155.756 339.557 155.732 339.542C155.708 339.528 155.766 339.424 155.895 339.371C156.025 339.319 156.135 339.353 156.13 339.376Z" fill="#263238"/>
<path d="M156.658 339.191C156.658 339.215 156.658 339.253 156.576 339.281C156.494 339.31 156.46 339.315 156.451 339.281C156.441 339.248 156.48 339.22 156.537 339.196C156.595 339.172 156.648 339.172 156.658 339.191Z" fill="#263238"/>
<path d="M133.69 339.803L133.786 336.005L141.014 336.138L140.927 341.702L140.481 341.726C138.483 341.797 130.329 341.954 129.003 341.526C127.529 341.071 133.69 339.803 133.69 339.803Z" fill="#4382EE"/>
<g opacity="0.3">
<path d="M138.309 341.612C138.431 341.011 138.773 340.475 139.269 340.107C139.757 339.746 140.362 339.577 140.969 339.632L140.931 341.631L138.309 341.612Z" fill="white"/>
</g>
<g opacity="0.3">
<path d="M130.678 340.534C130.678 340.534 128.513 341.108 128.758 341.483C129.003 341.858 137.267 341.986 140.907 341.735V341.578L131.303 341.483C131.303 341.483 131.096 340.557 130.678 340.534Z" fill="white"/>
</g>
<path d="M141.018 341.555C140.977 341.562 140.935 341.562 140.893 341.555H140.538L139.222 341.583C138.113 341.583 136.581 341.612 134.9 341.583C133.22 341.555 131.678 341.493 130.578 341.436L129.267 341.36L128.912 341.332H128.787H128.912H129.267L130.583 341.384C131.688 341.426 133.22 341.474 134.905 341.507C136.591 341.54 138.127 341.536 139.227 341.536H141.018V341.555Z" fill="#263238"/>
<path d="M131.297 341.579C131.245 341.362 131.166 341.151 131.062 340.952C130.938 340.767 130.792 340.598 130.625 340.449C130.851 340.538 131.034 340.707 131.139 340.924C131.271 341.116 131.327 341.349 131.297 341.579Z" fill="#263238"/>
<path d="M133.449 340.548C133.449 340.548 133.329 340.434 133.228 340.268C133.127 340.102 133.06 339.96 133.079 339.945C133.099 339.931 133.2 340.055 133.3 340.221C133.374 340.317 133.425 340.429 133.449 340.548Z" fill="#263238"/>
<path d="M134.04 340.25C134.04 340.25 133.91 340.193 133.79 340.079C133.67 339.965 133.579 339.861 133.598 339.842C133.617 339.823 133.728 339.903 133.848 340.017C133.968 340.131 134.054 340.236 134.04 340.25Z" fill="#263238"/>
<path d="M134.423 339.585C134.301 339.626 134.171 339.639 134.043 339.623C133.915 339.637 133.786 339.622 133.664 339.58C133.786 339.539 133.915 339.524 134.043 339.538C134.172 339.524 134.302 339.541 134.423 339.585Z" fill="#263238"/>
<path d="M134.558 339.11C134.432 339.19 134.285 339.23 134.135 339.224C133.988 339.248 133.836 339.225 133.703 339.158C133.845 339.146 133.988 339.146 134.131 339.158C134.271 339.128 134.414 339.112 134.558 339.11Z" fill="#263238"/>
<path d="M133.214 339.917C133.055 339.946 132.892 339.946 132.734 339.917C132.57 339.892 132.409 339.853 132.253 339.798C132.156 339.769 132.063 339.729 131.975 339.679C131.92 339.648 131.879 339.597 131.86 339.537C131.854 339.502 131.859 339.467 131.872 339.434C131.886 339.401 131.908 339.373 131.936 339.352C132.115 339.27 132.317 339.252 132.508 339.301C132.699 339.349 132.867 339.461 132.983 339.618C133.053 339.709 133.102 339.815 133.127 339.926C133.127 340.007 133.127 340.05 133.127 340.05C133.086 339.907 133.017 339.774 132.926 339.656C132.823 339.533 132.686 339.442 132.532 339.395C132.443 339.363 132.348 339.349 132.253 339.354C132.158 339.358 132.065 339.382 131.98 339.423C131.903 339.475 131.932 339.561 132.013 339.608C132.095 339.657 132.182 339.697 132.273 339.727C132.429 339.783 132.589 339.826 132.753 339.855C133.041 339.903 133.214 339.903 133.214 339.917Z" fill="#263238"/>
<path d="M133.093 339.941C133.039 339.842 133.022 339.728 133.045 339.618C133.063 339.499 133.109 339.385 133.18 339.286C133.221 339.219 133.277 339.164 133.345 339.124C133.413 339.084 133.49 339.062 133.569 339.058C133.616 339.069 133.657 339.099 133.683 339.139C133.709 339.18 133.718 339.229 133.708 339.276C133.695 339.349 133.668 339.419 133.626 339.481C133.563 339.58 133.488 339.671 133.401 339.751C133.328 339.834 133.236 339.896 133.132 339.932C133.132 339.932 133.228 339.851 133.357 339.708C133.434 339.625 133.501 339.535 133.559 339.438C133.621 339.343 133.669 339.167 133.559 339.144C133.449 339.12 133.324 339.243 133.252 339.333C133.183 339.421 133.135 339.524 133.112 339.633C133.096 339.735 133.09 339.838 133.093 339.941Z" fill="#263238"/>
<path d="M140.921 339.599C140.921 339.599 140.715 339.575 140.388 339.599C139.961 339.646 139.555 339.81 139.217 340.073C138.879 340.335 138.62 340.683 138.467 341.08C138.411 341.246 138.363 341.416 138.323 341.588C138.314 341.539 138.314 341.489 138.323 341.44C138.339 341.31 138.368 341.181 138.41 341.056C138.547 340.639 138.809 340.272 139.162 340.005C139.514 339.738 139.94 339.583 140.384 339.561C140.516 339.547 140.65 339.547 140.782 339.561C140.83 339.566 140.877 339.578 140.921 339.599Z" fill="#263238"/>
<path d="M140.231 336.613C140.27 337.101 140.282 337.591 140.264 338.08C140.276 338.571 140.258 339.063 140.211 339.552C140.172 339.062 140.16 338.571 140.178 338.08C140.164 337.591 140.181 337.101 140.231 336.613Z" fill="#263238"/>
<path d="M137.416 340.9C137.069 340.973 136.714 341.002 136.359 340.985C136.004 340.997 135.649 340.962 135.303 340.881C135.303 340.881 135.783 340.881 136.359 340.881C136.935 340.881 137.411 340.876 137.416 340.9Z" fill="#263238"/>
<path d="M138.828 340.923C138.828 340.923 138.79 341.023 138.742 341.127C138.694 341.232 138.66 341.327 138.636 341.327C138.612 341.327 138.602 341.213 138.66 341.089C138.718 340.966 138.814 340.904 138.828 340.923Z" fill="#263238"/>
<path d="M139.374 340.278C139.374 340.278 139.345 340.369 139.268 340.44C139.192 340.511 139.115 340.563 139.1 340.544C139.086 340.525 139.129 340.454 139.206 340.378C139.283 340.302 139.36 340.278 139.374 340.278Z" fill="#263238"/>
<path d="M140.143 339.992C140.143 340.016 140.042 339.992 139.936 340.045C139.831 340.097 139.749 340.135 139.735 340.121C139.72 340.106 139.778 340.007 139.907 339.964C140.037 339.921 140.152 339.969 140.143 339.992Z" fill="#263238"/>
<path d="M140.691 339.86C140.691 339.884 140.658 339.917 140.595 339.941C140.533 339.965 140.48 339.941 140.47 339.941C140.46 339.941 140.504 339.884 140.566 339.865C140.629 339.846 140.682 339.836 140.691 339.86Z" fill="#263238"/>
<path d="M139.677 292.098C146.036 291.469 152.44 291.39 158.813 291.861L150.726 303.335L143.427 303.363L141.9 338.64H132.219L133.141 299.295C133.183 297.522 133.864 295.822 135.063 294.502C136.262 293.183 137.898 292.33 139.677 292.098Z" fill="#263238"/>
<path d="M142.223 335.919C140.554 336.044 138.879 336.086 137.205 336.043C135.533 336.086 133.859 336.045 132.191 335.919C132.191 335.853 134.434 335.796 137.205 335.796C139.976 335.796 142.223 335.853 142.223 335.919Z" fill="#455A64"/>
<path d="M146.055 296.252C145.895 296.253 145.734 296.243 145.575 296.224C145.263 296.2 144.807 296.162 144.221 296.143C143.508 296.113 142.795 296.125 142.084 296.181C141.643 296.214 141.206 296.285 140.778 296.395C140.299 296.485 139.861 296.72 139.524 297.069C139.37 297.275 139.259 297.509 139.198 297.757C139.111 298.014 139.044 298.279 138.977 298.555C138.842 299.125 138.749 299.704 138.698 300.287C138.588 301.507 138.487 302.813 138.391 304.185C138.199 306.929 138.06 309.953 137.944 313.129C137.728 319.48 137.464 325.234 137.306 329.393C137.21 331.458 137.133 333.138 137.08 334.32C137.046 334.885 137.022 335.336 137.003 335.659C137.003 335.801 137.003 335.915 137.003 336.01C137.008 336.05 137.008 336.089 137.003 336.129C136.999 336.088 136.999 336.046 137.003 336.005C137.003 335.915 137.003 335.801 137.003 335.659C137.003 335.331 137.003 334.885 137.027 334.315C137.065 333.133 137.114 331.467 137.176 329.388C137.32 325.206 137.522 319.461 137.743 313.119C137.858 309.943 138.002 306.915 138.223 304.166C138.324 302.794 138.434 301.488 138.554 300.268C138.611 299.677 138.711 299.09 138.852 298.512C138.919 298.233 138.996 297.963 139.082 297.7C139.156 297.431 139.282 297.178 139.452 296.955C139.815 296.585 140.285 296.337 140.797 296.243C141.237 296.138 141.685 296.071 142.137 296.043C142.853 295.995 143.572 295.995 144.288 296.043C144.879 296.077 145.335 296.129 145.642 296.167L145.993 296.219L146.055 296.252Z" fill="#455A64"/>
<path d="M157.446 304.242L158.147 338.118L146.948 338.659C146.948 338.659 145.166 305.472 146.055 296.053C146.665 289.607 171.545 292.379 171.545 292.379C171.905 305.196 157.446 304.247 157.446 304.247" fill="#263238"/>
<path d="M158.147 335.446C157.621 335.541 157.088 335.597 156.553 335.612C155.563 335.683 154.195 335.764 152.711 335.84C151.227 335.915 149.83 335.968 148.84 335.996C148.306 336.037 147.77 336.037 147.236 335.996C147.762 335.896 148.295 335.839 148.831 335.825C149.82 335.754 151.184 335.673 152.696 335.597C154.209 335.521 155.578 335.469 156.538 335.441C157.074 335.396 157.612 335.398 158.147 335.446Z" fill="#455A64"/>
<path d="M169.13 292.131C169.141 292.18 169.141 292.23 169.13 292.279C169.13 292.378 169.13 292.521 169.082 292.711C168.98 293.258 168.782 293.783 168.496 294.263C168.125 294.883 167.616 295.412 167.008 295.81C166.4 296.208 165.709 296.465 164.986 296.56C164.361 296.612 163.734 296.626 163.108 296.603H156.51C156.107 296.603 155.684 296.603 155.276 296.603C154.64 296.622 154.025 296.83 153.511 297.201C152.997 297.571 152.608 298.085 152.395 298.678C152.248 299.089 152.182 299.524 152.198 299.96V301.35C152.198 303.197 152.198 305.11 152.198 307.047C152.198 314.875 152.169 321.958 152.159 327.109C152.159 329.663 152.13 331.733 152.121 333.185C152.121 333.893 152.121 334.443 152.121 334.837C152.121 335.018 152.121 335.16 152.121 335.269C152.127 335.318 152.127 335.368 152.121 335.416C152.115 335.368 152.115 335.318 152.121 335.269C152.121 335.16 152.121 335.018 152.121 334.837C152.121 334.443 152.121 333.888 152.097 333.185C152.097 331.733 152.073 329.663 152.058 327.109C152.058 321.958 152.058 314.875 152.02 307.047V301.35C152.02 300.876 152.02 300.429 152.02 299.978C152.003 299.515 152.075 299.053 152.231 298.616C152.388 298.192 152.629 297.804 152.94 297.474C153.251 297.144 153.626 296.878 154.042 296.693C154.442 296.514 154.875 296.414 155.314 296.399C155.737 296.399 156.145 296.399 156.553 296.399H158.921L163.166 296.423C163.779 296.444 164.393 296.432 165.005 296.385C165.695 296.294 166.356 296.053 166.941 295.681C167.526 295.308 168.021 294.813 168.391 294.23C168.681 293.764 168.89 293.254 169.01 292.72C169.049 292.535 169.063 292.392 169.082 292.298C169.095 292.241 169.111 292.186 169.13 292.131Z" fill="#455A64"/>
<path d="M157.59 301.398C157.681 301.943 157.691 302.498 157.619 303.045C157.627 303.597 157.554 304.147 157.403 304.678C157.306 304.134 157.294 303.579 157.369 303.031C157.361 302.479 157.435 301.929 157.59 301.398Z" fill="#455A64"/>
<path d="M158.023 291.857C157.755 291.906 157.483 291.936 157.211 291.947L154.988 292.108C154.027 292.179 152.937 292.279 151.712 292.469C150.39 292.657 149.122 293.113 147.986 293.808C147.408 294.157 146.961 294.684 146.713 295.308C146.519 295.912 146.388 296.534 146.32 297.164C146.176 298.379 146.161 299.485 146.137 300.416C146.113 301.346 146.094 302.096 146.065 302.619C146.065 302.88 146.031 303.093 146.017 303.217C146.017 303.288 146.004 303.359 145.979 303.426C145.96 303.155 145.96 302.884 145.979 302.614C145.979 302.054 145.979 301.313 145.979 300.411C145.965 299.319 146.008 298.228 146.108 297.14C146.172 296.495 146.304 295.859 146.502 295.241C146.766 294.568 147.245 293.998 147.866 293.618C149.033 292.899 150.343 292.436 151.708 292.26C152.942 292.08 154.066 291.999 155.007 291.947C155.948 291.895 156.707 291.876 157.235 291.861C157.497 291.839 157.76 291.837 158.023 291.857Z" fill="#455A64"/>
<path d="M141.498 272.331C141.498 272.331 143.664 286.862 150.661 286.392L150.238 278.512L144.077 272.915L141.498 272.331Z" fill="#F5AE88"/>
<path d="M171.618 292.256L170.086 280.312L171.666 268.092C170.628 262.396 162.541 261.983 162.541 261.983L156.178 261.878C156.178 261.878 150.834 261.109 148.884 264.665L145.287 277.402C145.287 277.402 147.765 277.753 150.089 277.834L150.248 279.225H150.286L150.958 291.786L171.618 292.256Z" fill="#4382EE"/>
<path d="M162.585 261.812C162.597 261.937 162.582 262.063 162.542 262.182C162.451 262.604 162.273 263.003 162.018 263.353C161.764 263.704 161.438 263.998 161.063 264.218C160.515 264.553 159.883 264.729 159.238 264.726C158.654 264.737 158.076 264.598 157.562 264.322C157.048 264.047 156.614 263.645 156.304 263.155C156.133 262.861 156.015 262.54 155.958 262.206C155.923 262.084 155.915 261.956 155.934 261.831C156.063 262.265 156.239 262.686 156.458 263.084C156.766 263.53 157.181 263.893 157.667 264.142C158.152 264.39 158.692 264.516 159.238 264.508C159.783 264.511 160.32 264.382 160.804 264.134C161.287 263.886 161.703 263.526 162.014 263.084C162.242 262.677 162.433 262.252 162.585 261.812Z" fill="#263238"/>
<path d="M150.622 267.385C150.745 268.394 150.787 269.412 150.747 270.428C150.787 271.444 150.745 272.461 150.622 273.471C150.495 272.461 150.454 271.444 150.497 270.428C150.454 269.412 150.495 268.394 150.622 267.385Z" fill="#263238"/>
<path d="M138.574 261.384C138.766 261.607 145.724 270.807 145.724 270.807L144.764 271.353L137.623 262.276L138.574 261.384Z" fill="#263238"/>
<path d="M166.523 268.656C166.523 268.656 159.204 279.072 158.787 279.276C157.917 279.679 147.905 271.125 146.949 270.308C146.82 270.133 146.546 269.767 145.989 269.036C145.989 269.036 145.201 265.461 144.356 265.737C143.511 266.012 144.836 267.555 144.27 268.913C143.703 270.27 141.206 267.014 141.105 266.738L140.457 265.903C140.457 265.903 139.775 267.802 139.823 268.604C139.972 271.153 142.411 274.187 142.411 274.187C142.411 274.187 153.37 287.607 160.876 288.025C164.328 288.215 172.06 272.649 172.06 272.649L166.523 268.656Z" fill="#FFBE9D"/>
<path d="M141.051 269.07C140.804 268.812 140.609 268.511 140.474 268.182C140.292 267.875 140.168 267.537 140.109 267.185C140.298 267.487 140.459 267.804 140.59 268.134C140.773 268.431 140.927 268.744 141.051 269.07Z" fill="#EB996E"/>
<path d="M168.218 263.573C168.218 263.573 175.498 266.611 169.932 279.324L161.125 274.192L168.218 263.573Z" fill="#4382EE"/>
<path d="M168.389 263.8C168.31 263.826 168.228 263.84 168.144 263.843C167.914 263.855 167.687 263.897 167.467 263.967C166.652 264.219 165.926 264.695 165.373 265.338C163.894 266.919 162.66 269.673 161.402 272.706C161.215 273.157 161.023 273.608 160.845 274.031L160.792 273.879C163.414 275.303 165.69 276.646 167.289 277.676C168.091 278.189 168.73 278.626 169.153 278.915L169.633 279.267C169.692 279.305 169.745 279.351 169.791 279.404C169.549 279.282 169.314 279.144 169.09 278.991L167.193 277.819C165.575 276.831 163.284 275.512 160.662 274.102L160.566 274.05L160.61 273.945L161.162 272.621C162.42 269.587 163.688 266.815 165.239 265.229C165.817 264.576 166.58 264.108 167.429 263.886C167.658 263.823 167.896 263.794 168.135 263.8C168.219 263.789 168.305 263.789 168.389 263.8Z" fill="#263238"/>
<path d="M159.266 264.536C158.821 264.536 158.381 264.449 157.97 264.28C157.56 264.11 157.188 263.862 156.875 263.549C156.562 263.237 156.316 262.866 156.149 262.458C155.982 262.051 155.899 261.615 155.904 261.175C155.904 260.017 155.933 259.02 155.933 259.02C155.933 259.02 153.229 258.768 153.052 256.124C152.874 253.48 152.936 247.375 152.936 247.375C154.419 246.635 156.074 246.3 157.731 246.404C159.389 246.508 160.988 247.048 162.363 247.968L162.776 248.244L162.627 261.246C162.618 262.122 162.26 262.959 161.631 263.575C161.001 264.191 160.151 264.536 159.266 264.536Z" fill="#FFBE9D"/>
<path d="M155.841 254.495C155.645 254.548 155.44 254.567 155.236 254.552C155.181 254.559 155.124 254.559 155.068 254.552C155.03 254.543 154.995 254.526 154.965 254.501C154.935 254.476 154.911 254.445 154.895 254.41C154.858 254.278 154.868 254.137 154.924 254.011C154.996 253.764 155.073 253.536 155.15 253.247C155.324 252.585 155.562 251.941 155.861 251.324C155.757 252 155.586 252.665 155.352 253.309C155.265 253.57 155.184 253.821 155.107 254.068C155.062 254.153 155.043 254.249 155.054 254.343C155.054 254.396 155.14 254.415 155.236 254.419C155.441 254.409 155.646 254.435 155.841 254.495Z" fill="#263238"/>
<path d="M157.066 254.828C157.436 254.581 156.043 255.45 155.289 255.46C155.426 255.644 155.623 255.776 155.846 255.836C156.069 255.895 156.306 255.878 156.518 255.787C157.301 255.445 157.066 254.828 157.066 254.828Z" fill="white"/>
<path d="M155.904 258.982C157.142 258.929 158.336 258.512 159.333 257.786C159.333 257.786 158.627 259.742 155.938 259.685L155.904 258.982Z" fill="#EB996E"/>
<path d="M162.041 251.168C162.094 251.168 163.736 250.94 163.583 252.858C163.429 254.776 161.518 253.988 161.518 253.931C161.518 253.874 162.041 251.168 162.041 251.168Z" fill="#FFBE9D"/>
<path d="M162.146 253.304C162.146 253.304 162.18 253.333 162.233 253.361C162.271 253.382 162.314 253.396 162.357 253.401C162.401 253.406 162.445 253.402 162.487 253.39C162.618 253.32 162.729 253.217 162.807 253.092C162.885 252.968 162.929 252.824 162.934 252.677C162.95 252.517 162.931 252.355 162.876 252.203C162.863 252.142 162.835 252.086 162.795 252.038C162.755 251.99 162.704 251.952 162.646 251.927C162.607 251.914 162.565 251.914 162.527 251.928C162.488 251.942 162.456 251.969 162.435 252.003C162.406 252.056 162.435 252.094 162.406 252.098C162.377 252.103 162.367 252.06 162.406 251.984C162.422 251.938 162.452 251.899 162.492 251.87C162.55 251.836 162.618 251.822 162.684 251.832C162.763 251.855 162.835 251.896 162.893 251.954C162.951 252.011 162.993 252.082 163.016 252.16C163.082 252.334 163.107 252.521 163.088 252.706C163.083 252.877 163.028 253.044 162.928 253.184C162.828 253.324 162.688 253.432 162.526 253.494C162.473 253.505 162.418 253.504 162.366 253.491C162.313 253.478 162.264 253.453 162.223 253.418C162.146 253.352 162.146 253.309 162.146 253.304Z" fill="#EB996E"/>
<path d="M153.105 247.532C152.778 247.435 152.492 247.235 152.292 246.961C152.092 246.687 151.99 246.355 152.001 246.017C152.029 245.681 152.147 245.359 152.342 245.082C152.538 244.806 152.805 244.587 153.115 244.446C153.43 244.315 153.769 244.25 154.11 244.256C154.452 244.262 154.788 244.338 155.098 244.479C155.194 243.986 155.465 243.542 155.861 243.228C156.258 242.914 156.754 242.749 157.262 242.763C157.77 242.777 158.257 242.97 158.634 243.306C159.012 243.642 159.257 244.1 159.324 244.598C159.391 244.085 159.972 243.8 160.496 243.767C160.755 243.742 161.017 243.775 161.261 243.864C161.506 243.953 161.727 244.095 161.908 244.28C162.082 244.472 162.178 244.72 162.178 244.978C162.178 245.235 162.082 245.484 161.908 245.676C162.492 245.597 163.085 245.737 163.569 246.07C163.808 246.236 164 246.458 164.13 246.717C164.259 246.976 164.32 247.262 164.309 247.551C164.288 247.84 164.175 248.115 163.988 248.337C163.8 248.559 163.546 248.718 163.262 248.79C163.065 248.828 162.83 248.837 162.724 249.008C162.675 249.107 162.657 249.217 162.671 249.326L162.729 251.225C162.55 251.162 162.353 251.169 162.178 251.245C162.004 251.321 161.866 251.46 161.792 251.633C161.661 251.988 161.625 252.371 161.687 252.744C161.524 252.986 161.106 252.915 160.928 252.682C160.773 252.429 160.704 252.133 160.731 251.837C160.731 250.817 160.731 249.796 160.693 248.775C160.54 248.86 160.368 248.905 160.193 248.905C160.019 248.905 159.847 248.861 159.694 248.776C159.541 248.692 159.413 248.571 159.321 248.423C159.23 248.276 159.178 248.108 159.17 247.935C158.952 248.144 158.688 248.301 158.4 248.396C158.112 248.492 157.806 248.522 157.504 248.486C157.202 248.449 156.913 248.347 156.656 248.186C156.399 248.025 156.182 247.81 156.02 247.555C155.71 247.819 155.368 248.044 155.002 248.225C154.632 248.406 154.207 248.442 153.811 248.324C153.617 248.263 153.446 248.144 153.321 247.984C153.197 247.823 153.125 247.629 153.115 247.427L153.254 247.313" fill="#263238"/>
<path d="M153.805 251.392C153.804 251.436 153.811 251.481 153.827 251.523C153.844 251.565 153.868 251.603 153.899 251.636C153.93 251.669 153.968 251.695 154.009 251.713C154.051 251.732 154.096 251.742 154.141 251.743C154.234 251.743 154.323 251.706 154.389 251.641C154.455 251.576 154.492 251.488 154.492 251.396C154.492 251.304 154.455 251.216 154.389 251.151C154.323 251.086 154.234 251.05 154.141 251.05C154.051 251.053 153.967 251.091 153.904 251.154C153.841 251.218 153.806 251.303 153.805 251.392Z" fill="#263238"/>
<path d="M153.243 251.03C153.287 251.078 153.541 250.864 153.911 250.85C154.281 250.836 154.554 251.021 154.593 250.973C154.631 250.926 154.569 250.864 154.449 250.779C154.288 250.669 154.096 250.614 153.901 250.622C153.708 250.632 153.523 250.704 153.373 250.826C153.258 250.902 153.224 250.987 153.243 251.03Z" fill="#263238"/>
<path d="M157.824 251.392C157.823 251.482 157.857 251.569 157.92 251.635C157.983 251.7 158.069 251.739 158.16 251.743C158.206 251.744 158.252 251.735 158.294 251.718C158.337 251.701 158.375 251.676 158.408 251.644C158.441 251.613 158.467 251.575 158.484 251.533C158.502 251.491 158.511 251.446 158.511 251.401C158.512 251.311 158.478 251.224 158.415 251.158C158.352 251.092 158.266 251.054 158.175 251.05C158.083 251.051 157.995 251.087 157.93 251.151C157.865 251.215 157.827 251.301 157.824 251.392Z" fill="#263238"/>
<path d="M157.344 251.078C157.388 251.125 157.642 250.912 158.012 250.897C158.382 250.883 158.651 251.068 158.694 251.016C158.737 250.964 158.665 250.912 158.545 250.826C158.387 250.716 158.196 250.66 158.002 250.669C157.807 250.678 157.62 250.75 157.469 250.874C157.344 250.968 157.301 251.059 157.344 251.078Z" fill="#263238"/>
</svg>
