<svg width="15" height="15" viewBox="0 0 15 15" fill="none" xmlns="http://www.w3.org/2000/svg">
<circle cx="7.5" cy="7.5" r="7.5" fill="#4382EE"/>
<g clip-path="url(#clip0_575_6008)">
<path d="M10.1786 5.17857C10.1786 3.70089 8.97768 2.5 7.5 2.5C6.02232 2.5 4.82143 3.70089 4.82143 5.17857C4.82143 7.1875 7.5 10.0893 7.5 10.0893C7.5 10.0893 10.1786 7.1875 10.1786 5.17857ZM6.60714 5.17857C6.60714 4.6875 7.00893 4.28571 7.5 4.28571C7.99107 4.28571 8.39286 4.6875 8.39286 5.17857C8.39286 5.66964 7.99554 6.07143 7.5 6.07143C7.00893 6.07143 6.60714 5.66964 6.60714 5.17857ZM4.375 10.5357V11.4286H10.625V10.5357H4.375Z" fill="white"/>
</g>
<defs>
<clipPath id="clip0_575_6008">
<rect width="10.7143" height="10.7143" fill="white" transform="translate(2.14258 1.60742)"/>
</clipPath>
</defs>
</svg>
