<svg width="20" height="20" viewBox="0 0 20 20" fill="none" xmlns="http://www.w3.org/2000/svg">
<path d="M16.6667 6.48109L11.6667 2.21951C11.2084 1.82094 10.615 1.60059 10.0001 1.60059C9.38513 1.60059 8.79176 1.82094 8.33341 2.21951L3.33341 6.48109C3.06872 6.71124 2.8575 6.99357 2.71381 7.30929C2.57012 7.62501 2.49726 7.96687 2.50008 8.3121V15.3931C2.50008 16.0377 2.76347 16.656 3.23231 17.1118C3.70115 17.5676 4.33704 17.8237 5.00008 17.8237H15.0001C15.6631 17.8237 16.299 17.5676 16.7678 17.1118C17.2367 16.656 17.5001 16.0377 17.5001 15.3931V8.304C17.5017 7.96013 17.4283 7.61983 17.2846 7.3056C17.141 6.99136 16.9304 6.71033 16.6667 6.48109V6.48109ZM11.6667 16.2033H8.33341V12.1524C8.33341 11.9375 8.42121 11.7314 8.57749 11.5795C8.73377 11.4276 8.94573 11.3422 9.16675 11.3422H10.8334C11.0544 11.3422 11.2664 11.4276 11.4227 11.5795C11.5789 11.7314 11.6667 11.9375 11.6667 12.1524V16.2033ZM15.8334 15.3931C15.8334 15.608 15.7456 15.8141 15.5893 15.966C15.4331 16.118 15.2211 16.2033 15.0001 16.2033H13.3334V12.1524C13.3334 11.5078 13.07 10.8895 12.6012 10.4337C12.1323 9.9779 11.4965 9.72183 10.8334 9.72183H9.16675C8.5037 9.72183 7.86782 9.9779 7.39898 10.4337C6.93014 10.8895 6.66675 11.5078 6.66675 12.1524V16.2033H5.00008C4.77907 16.2033 4.5671 16.118 4.41082 15.966C4.25454 15.8141 4.16675 15.608 4.16675 15.3931V8.304C4.1669 8.18897 4.19224 8.07528 4.24109 7.97051C4.28995 7.86574 4.36119 7.77229 4.45008 7.69636L9.45008 3.44289C9.60215 3.313 9.79766 3.24137 10.0001 3.24137C10.2025 3.24137 10.398 3.313 10.5501 3.44289L15.5501 7.69636C15.639 7.77229 15.7102 7.86574 15.7591 7.97051C15.8079 8.07528 15.8333 8.18897 15.8334 8.304V15.3931Z" fill="#4382EE"/>
</svg>
