<svg width="20" height="20" viewBox="0 0 20 20" fill="none" xmlns="http://www.w3.org/2000/svg">
<g clip-path="url(#clip0_860_7221)">
<path d="M8.15 9.30033L6.96667 10.4837C6.4 9.90866 5.85 9.16699 5.475 8.03366L7.09167 7.62533C7.35833 8.36699 7.73333 8.87533 8.15 9.30033ZM9.16667 5.00033L5.83333 1.66699L2.5 5.00033H5.01667C5.03333 5.67533 5.08333 6.28366 5.175 6.80866L6.79167 6.40033C6.73333 6.00033 6.69167 5.52533 6.68333 5.00033H9.16667ZM17.5 5.00033L14.1667 1.66699L10.8333 5.00033H13.325C13.2417 8.06699 12.2583 8.95866 11.2083 9.90033C10.7917 10.267 10.3667 10.667 10 11.192C9.71667 10.7837 9.39167 10.4587 9.05833 10.1587L7.88333 11.3337C8.65833 12.042 9.16667 12.617 9.16667 14.167V18.3337H10.8333V14.167C10.8333 12.4837 11.425 11.9503 12.325 11.142C13.475 10.1087 14.8917 8.82533 14.9917 5.00033H17.5V5.00033Z" fill="#4382EE"/>
</g>
<defs>
<clipPath id="clip0_860_7221">
<rect width="20" height="20" fill="white"/>
</clipPath>
</defs>
</svg>
