<svg width="24" height="25" viewBox="0 0 24 25" fill="none" xmlns="http://www.w3.org/2000/svg">
<path d="M16.4039 6.94694e-08C15.1585 -0.000167699 13.9318 0.303541 12.8303 0.88478C11.7288 1.46602 10.7858 2.30723 10.083 3.33544L10.1048 3.30264C9.6674 3.28076 9.2081 3.28076 8.74879 3.28076C3.91513 3.28076 8.23975e-05 3.82756 8.23975e-05 7.65512V18.591C8.23975e-05 19.5534 0.426582 20.4173 1.09367 21.0188V22.9654C1.09367 23.2554 1.20889 23.5335 1.41398 23.7386C1.61906 23.9437 1.89722 24.0589 2.18726 24.0589H3.28085C3.57088 24.0589 3.84904 23.9437 4.05413 23.7386C4.25922 23.5335 4.37444 23.2554 4.37444 22.9654V21.8718H13.1231V22.9654C13.1231 23.2554 13.2384 23.5335 13.4434 23.7386C13.6485 23.9437 13.9267 24.0589 14.2167 24.0589H15.3103C15.6004 24.0589 15.8785 23.9437 16.0836 23.7386C16.2887 23.5335 16.4039 23.2554 16.4039 22.9654V21.0188C17.071 20.4173 17.4975 19.5534 17.4975 18.591V15.2227C19.4007 14.9329 21.1248 13.9366 22.3263 12.4324C23.5277 10.9282 24.1183 9.02655 23.9804 7.10637C23.8424 5.18618 22.9861 3.38847 21.5819 2.07145C20.1778 0.754438 18.329 0.0148264 16.4039 6.94694e-08ZM3.82764 19.6846C3.39258 19.6846 2.97535 19.5118 2.66772 19.2041C2.36008 18.8965 2.18726 18.4793 2.18726 18.0442C2.18726 17.6091 2.36008 17.1919 2.66772 16.8843C2.97535 16.5766 3.39258 16.4038 3.82764 16.4038C4.2627 16.4038 4.67994 16.5766 4.98757 16.8843C5.2952 17.1919 5.46802 17.6091 5.46802 18.0442C5.46802 18.4793 5.2952 18.8965 4.98757 19.2041C4.67994 19.5118 4.2627 19.6846 3.82764 19.6846ZM2.18726 13.1231V7.65512H8.74879C8.74879 9.79855 9.6346 11.7342 11.0563 13.1231H2.18726ZM13.6699 19.6846C13.2349 19.6846 12.8176 19.5118 12.51 19.2041C12.2024 18.8965 12.0296 18.4793 12.0296 18.0442C12.0296 17.6091 12.2024 17.1919 12.51 16.8843C12.8176 16.5766 13.2349 16.4038 13.6699 16.4038C14.105 16.4038 14.5222 16.5766 14.8299 16.8843C15.1375 17.1919 15.3103 17.6091 15.3103 18.0442C15.3103 18.4793 15.1375 18.8965 14.8299 19.2041C14.5222 19.5118 14.105 19.6846 13.6699 19.6846ZM16.4039 13.1231C14.9537 13.1231 13.5629 12.547 12.5375 11.5215C11.5121 10.4961 10.936 9.10531 10.936 7.65512C10.936 6.20493 11.5121 4.81414 12.5375 3.7887C13.5629 2.76326 14.9537 2.18718 16.4039 2.18718C17.8541 2.18718 19.2449 2.76326 20.2703 3.7887C21.2958 4.81414 21.8718 6.20493 21.8718 7.65512C21.8718 9.10531 21.2958 10.4961 20.2703 11.5215C19.2449 12.547 17.8541 13.1231 16.4039 13.1231ZM15.3103 6.56153H17.4975V9.84229L15.3103 10.9359V6.56153ZM15.3103 10.9359L17.4975 9.84229V12.0295H15.3103V10.9359Z" fill="white"/>
<path d="M15.2128 3.28076H17.4V5.46794H15.2128V3.28076Z" fill="white"/>
</svg>
