<svg width="28" height="28" viewBox="0 0 28 28" fill="none" xmlns="http://www.w3.org/2000/svg">
<g clip-path="url(#clip0_575_7266)">
<path d="M11.5315 13.067L9.95286 14.6456C9.19691 13.8785 8.46318 12.8891 7.96292 11.3772L10.1196 10.8325C10.4754 11.8219 10.9756 12.5 11.5315 13.067ZM12.8878 7.3306L8.44095 2.88379L3.99414 7.3306H7.35148C7.37371 8.23108 7.44042 9.04262 7.5627 9.74299L9.71941 9.19826C9.64159 8.66464 9.586 8.03097 9.57489 7.3306H12.8878ZM24.0048 7.3306L19.558 2.88379L15.1112 7.3306H18.4352C18.324 11.4217 17.0122 12.6112 15.6114 13.8674C15.0556 14.3566 14.4886 14.8902 13.9995 15.5905C13.6215 15.0458 13.1879 14.6122 12.7432 14.212L11.1757 15.7795C12.2096 16.7245 12.8878 17.4916 12.8878 19.5593V25.1178H15.1112V19.5593C15.1112 17.3137 15.9005 16.6022 17.1011 15.5238C18.6353 14.1453 20.5252 12.4333 20.6586 7.3306H24.0048V7.3306Z" fill="#453B2A"/>
</g>
<defs>
<clipPath id="clip0_575_7266">
<rect width="26.6808" height="26.6808" fill="white" transform="translate(0.65918 0.660156)"/>
</clipPath>
</defs>
</svg>
