<svg width="20" height="23" viewBox="0 0 20 23" fill="none" xmlns="http://www.w3.org/2000/svg">
<path d="M7.53333 10.1778L5.95556 11.7556C5.2 10.9889 4.46667 10 3.96667 8.48889L6.12222 7.94444C6.47778 8.93333 6.97778 9.61111 7.53333 10.1778ZM8.88889 4.44444L4.44444 0L0 4.44444H3.35556C3.37778 5.34444 3.44444 6.15556 3.56667 6.85556L5.72222 6.31111C5.64444 5.77778 5.58889 5.14444 5.57778 4.44444H8.88889ZM20 4.44444L15.5556 0L11.1111 4.44444H14.4333C14.3222 8.53333 13.0111 9.72222 11.6111 10.9778C11.0556 11.4667 10.4889 12 10 12.7C9.62222 12.1556 9.18889 11.7222 8.74444 11.3222L7.17778 12.8889C8.21111 13.8333 8.88889 14.6 8.88889 16.6667V22.2222H11.1111V16.6667C11.1111 14.4222 11.9 13.7111 13.1 12.6333C14.6333 11.2556 16.5222 9.54444 16.6556 4.44444H20V4.44444Z" fill="url(#paint0_linear_1023_7159)"/>
<defs>
<linearGradient id="paint0_linear_1023_7159" x1="1.66667" y1="8.88889" x2="17.7778" y2="8.88889" gradientUnits="userSpaceOnUse">
<stop offset="0.525942" stop-color="#F25858"/>
<stop offset="0.526042" stop-color="#5896F2"/>
</linearGradient>
</defs>
</svg>
