<svg width="10" height="10" viewBox="0 0 10 10" fill="none" xmlns="http://www.w3.org/2000/svg">
<g clip-path="url(#clip0_575_6263)">
<path d="M4.99453 0.833008C2.69453 0.833008 0.832031 2.69967 0.832031 4.99967C0.832031 7.29967 2.69453 9.16634 4.99453 9.16634C7.2987 9.16634 9.16537 7.29967 9.16537 4.99967C9.16537 2.69967 7.2987 0.833008 4.99453 0.833008ZM4.9987 8.33301C3.15703 8.33301 1.66536 6.84134 1.66536 4.99967C1.66536 3.15801 3.15703 1.66634 4.9987 1.66634C6.84036 1.66634 8.33203 3.15801 8.33203 4.99967C8.33203 6.84134 6.84036 8.33301 4.9987 8.33301Z" fill="#868686"/>
<path d="M5.20703 2.91602H4.58203V5.41602L6.76953 6.72852L7.08203 6.21602L5.20703 5.10352V2.91602Z" fill="#868686"/>
</g>
<defs>
<clipPath id="clip0_575_6263">
<rect width="10" height="10" fill="white"/>
</clipPath>
</defs>
</svg>
