<svg width="15" height="16" viewBox="0 0 15 16" fill="none" xmlns="http://www.w3.org/2000/svg">
<path d="M12.6316 13.4211H2.36842L0 15.7895V2.36842C0 1.06579 1.06579 0 2.36842 0H12.6316C13.9342 0 15 1.06579 15 2.36842V11.0526C15 12.3553 13.9342 13.4211 12.6316 13.4211Z" fill="#4382EE"/>
<path d="M6.71094 5.52539H8.28988V9.8675H6.71094V5.52539Z" fill="white"/>
<path d="M7.50041 4.34164C7.93643 4.34164 8.28988 3.98818 8.28988 3.55217C8.28988 3.11615 7.93643 2.7627 7.50041 2.7627C7.0644 2.7627 6.71094 3.11615 6.71094 3.55217C6.71094 3.98818 7.0644 4.34164 7.50041 4.34164Z" fill="white"/>
</svg>
