<svg width="38" height="38" viewBox="0 0 38 38" fill="none" xmlns="http://www.w3.org/2000/svg">
<rect width="38" height="38" rx="4" fill="white"/>
<path d="M19 15C16.79 15 15 16.79 15 19C15 21.21 16.79 23 19 23C21.21 23 23 21.21 23 19C23 16.79 21.21 15 19 15ZM27.94 18C27.48 13.83 24.17 10.52 20 10.06V8H18V10.06C13.83 10.52 10.52 13.83 10.06 18H8V20H10.06C10.52 24.17 13.83 27.48 18 27.94V30H20V27.94C24.17 27.48 27.48 24.17 27.94 20H30V18H27.94ZM19 26C15.13 26 12 22.87 12 19C12 15.13 15.13 12 19 12C22.87 12 26 15.13 26 19C26 22.87 22.87 26 19 26Z" fill="#453B2A"/>
</svg>
