<svg width="85" height="85" viewBox="0 0 85 85" fill="none" xmlns="http://www.w3.org/2000/svg">
<g clip-path="url(#clip0_709_9378)">
<path d="M42.5 45.1562C48.2729 45.1562 53.3729 46.5375 57.5167 48.3438C61.3417 50.0437 63.75 53.8687 63.75 58.0125V63.75H21.25V58.0479C21.25 53.8687 23.6583 50.0438 27.4833 48.3792C31.6271 46.5375 36.7271 45.1562 42.5 45.1562ZM14.1667 46.0417C18.0625 46.0417 21.25 42.8542 21.25 38.9583C21.25 35.0625 18.0625 31.875 14.1667 31.875C10.2708 31.875 7.08333 35.0625 7.08333 38.9583C7.08333 42.8542 10.2708 46.0417 14.1667 46.0417ZM18.1688 49.9375C16.8583 49.725 15.5479 49.5833 14.1667 49.5833C10.6604 49.5833 7.33125 50.3271 4.32083 51.6375C1.7 52.7708 0 55.3208 0 58.1896V63.75H15.9375V58.0479C15.9375 55.1083 16.7521 52.3458 18.1688 49.9375ZM70.8333 46.0417C74.7292 46.0417 77.9167 42.8542 77.9167 38.9583C77.9167 35.0625 74.7292 31.875 70.8333 31.875C66.9375 31.875 63.75 35.0625 63.75 38.9583C63.75 42.8542 66.9375 46.0417 70.8333 46.0417ZM85 58.1896C85 55.3208 83.3 52.7708 80.6792 51.6375C77.6688 50.3271 74.3396 49.5833 70.8333 49.5833C69.4521 49.5833 68.1417 49.725 66.8313 49.9375C68.2479 52.3458 69.0625 55.1083 69.0625 58.0479V63.75H85V58.1896ZM42.5 21.25C48.3792 21.25 53.125 25.9958 53.125 31.875C53.125 37.7542 48.3792 42.5 42.5 42.5C36.6208 42.5 31.875 37.7542 31.875 31.875C31.875 25.9958 36.6208 21.25 42.5 21.25Z" fill="#EDC808"/>
</g>
<defs>
<clipPath id="clip0_709_9378">
<rect width="85" height="85" fill="white"/>
</clipPath>
</defs>
</svg>
