<svg width="77" height="77" viewBox="0 0 77 77" fill="none" xmlns="http://www.w3.org/2000/svg">
<g clip-path="url(#clip0_1129_6265)">
<path d="M38.5 40.9063C43.7296 40.9063 48.3496 42.1575 52.1033 43.7938C55.5683 45.3338 57.75 48.7988 57.75 52.5525V57.75H19.25V52.5846C19.25 48.7988 21.4317 45.3338 24.8967 43.8258C28.6504 42.1575 33.2704 40.9063 38.5 40.9063ZM12.8333 41.7083C16.3625 41.7083 19.25 38.8208 19.25 35.2917C19.25 31.7625 16.3625 28.875 12.8333 28.875C9.30417 28.875 6.41667 31.7625 6.41667 35.2917C6.41667 38.8208 9.30417 41.7083 12.8333 41.7083ZM16.4588 45.2375C15.2717 45.045 14.0846 44.9167 12.8333 44.9167C9.65708 44.9167 6.64125 45.5904 3.91417 46.7775C1.54 47.8042 0 50.1142 0 52.7129V57.75H14.4375V52.5846C14.4375 49.9217 15.1754 47.4192 16.4588 45.2375ZM64.1667 41.7083C67.6958 41.7083 70.5833 38.8208 70.5833 35.2917C70.5833 31.7625 67.6958 28.875 64.1667 28.875C60.6375 28.875 57.75 31.7625 57.75 35.2917C57.75 38.8208 60.6375 41.7083 64.1667 41.7083ZM77 52.7129C77 50.1142 75.46 47.8042 73.0858 46.7775C70.3588 45.5904 67.3429 44.9167 64.1667 44.9167C62.9154 44.9167 61.7283 45.045 60.5413 45.2375C61.8246 47.4192 62.5625 49.9217 62.5625 52.5846V57.75H77V52.7129ZM38.5 19.25C43.8258 19.25 48.125 23.5492 48.125 28.875C48.125 34.2008 43.8258 38.5 38.5 38.5C33.1742 38.5 28.875 34.2008 28.875 28.875C28.875 23.5492 33.1742 19.25 38.5 19.25Z" fill="#3EBC70"/>
</g>
<defs>
<clipPath id="clip0_1129_6265">
<rect width="77" height="77" fill="white"/>
</clipPath>
</defs>
</svg>
