<svg width="427" height="527" viewBox="0 0 427 527" fill="none" xmlns="http://www.w3.org/2000/svg">
<path opacity="0.8" d="M0 0V382.053C0 382.053 33.1672 450.788 118.44 442.811C203.714 434.835 221.399 391.876 324.358 471.049C324.358 471.049 360.679 504.185 427 502.967V0H0Z" fill="#4382EE"/>
<path opacity="0.7" d="M404.824 504.84C352.096 502.223 322.058 476.364 321.738 476.067C261.698 423.883 222.934 431.342 169.295 441.686C155.069 444.428 140.343 447.266 123.606 449.43C41.8008 460.019 7.31641 409.456 6.93818 408.996L10.0832 406.149C10.4488 406.595 42.4197 458.593 123.417 448.11C140.128 445.946 154.813 443.119 169.026 440.376C223.042 429.971 262.063 422.457 322.603 475.067C322.975 475.393 359.425 506.744 422.618 503.478L422.686 504.804C416.48 505.138 410.519 505.123 404.824 504.84Z" fill="#4382EE"/>
<path opacity="0.7" d="M404.65 514.336C351.922 511.719 321.883 485.86 321.564 485.563C261.524 433.379 222.76 440.838 169.121 451.182C154.895 453.925 140.169 456.763 123.431 458.926C41.6264 469.516 3.83688 425.026 3.45865 424.566L3.64355 420.841C4.0091 421.287 42.2453 468.089 123.243 457.607C139.954 455.442 154.639 452.615 168.852 449.872C222.868 439.467 261.889 431.953 322.429 484.564C322.801 484.889 359.25 516.24 422.444 512.974L422.512 514.301C416.306 514.634 410.344 514.619 404.65 514.336Z" fill="#4382EE"/>
<path opacity="0.7" d="M404.65 525.336C351.922 522.719 321.883 496.86 321.564 496.563C261.524 444.379 222.76 451.838 169.121 462.182C154.895 464.925 140.169 467.763 123.431 469.926C41.6264 480.516 3.83688 436.026 3.45865 435.566L3.64355 431.841C4.0091 432.287 42.2453 479.089 123.243 468.607C139.954 466.442 154.639 463.615 168.852 460.872C222.868 450.467 261.889 442.953 322.429 495.564C322.801 495.889 359.25 527.24 422.444 523.974L422.512 525.301C416.306 525.634 410.344 525.619 404.65 525.336Z" fill="#4382EE"/>
</svg>
