<svg width="602" height="527" viewBox="0 0 602 527" fill="none" xmlns="http://www.w3.org/2000/svg">
<path opacity="0.8" d="M16.918 0V382.053C16.918 382.053 62.3641 450.788 179.207 442.811C296.049 434.835 320.282 391.876 461.358 471.049C461.358 471.049 511.126 504.185 601.999 502.967V0H16.918Z" fill="#4382EE"/>
<path opacity="0.7" d="M570.735 504.84C496.397 502.223 454.048 476.364 453.598 476.067C368.951 423.883 314.3 431.342 238.678 441.686C218.621 444.428 197.861 447.266 174.263 449.43C58.932 460.019 10.3148 409.456 9.78153 408.996L14.2155 406.149C14.7309 406.595 59.8046 458.593 173.998 448.11C197.557 445.946 218.261 443.119 238.299 440.376C314.453 429.971 369.465 422.457 454.817 475.067C455.341 475.393 506.729 506.744 595.822 503.478L595.918 504.804C587.168 505.138 578.763 505.123 570.735 504.84Z" fill="#4382EE"/>
<path opacity="0.7" d="M570.491 514.336C496.152 511.719 453.803 485.86 453.353 485.563C368.706 433.379 314.055 440.838 238.433 451.182C218.377 453.925 197.616 456.763 174.019 458.926C58.6872 469.516 5.41025 425.026 4.87702 424.566L5.1377 420.841C5.65306 421.287 59.5598 468.089 173.753 457.607C197.312 455.442 218.016 452.615 238.054 449.872C314.208 439.467 369.221 431.953 454.573 484.564C455.096 484.889 506.485 516.24 595.577 512.974L595.673 514.301C586.923 514.634 578.519 514.619 570.491 514.336Z" fill="#4382EE"/>
<path opacity="0.7" d="M570.491 525.336C496.152 522.719 453.803 496.86 453.353 496.563C368.706 444.379 314.055 451.838 238.433 462.182C218.377 464.925 197.616 467.763 174.019 469.926C58.6872 480.516 5.41025 436.026 4.87702 435.566L5.1377 431.841C5.65306 432.287 59.5598 479.089 173.753 468.607C197.312 466.442 218.016 463.615 238.054 460.872C314.208 450.467 369.221 442.953 454.573 495.564C455.096 495.889 506.485 527.24 595.577 523.974L595.673 525.301C586.923 525.634 578.519 525.619 570.491 525.336Z" fill="#4382EE"/>
</svg>
