<svg width="343" height="577" viewBox="0 0 343 577" fill="none" xmlns="http://www.w3.org/2000/svg">
<path d="M142.655 154V142.119H150.521V144.19H145.167V147.021H149.999V149.092H145.167V154H142.655ZM154.414 154.168C153.846 154.168 153.339 154.07 152.894 153.872C152.449 153.671 152.097 153.375 151.838 152.985C151.583 152.59 151.455 152.099 151.455 151.511C151.455 151.016 151.546 150.6 151.728 150.264C151.91 149.928 152.157 149.657 152.471 149.452C152.784 149.247 153.14 149.092 153.538 148.988C153.94 148.883 154.362 148.81 154.803 148.767C155.321 148.713 155.739 148.663 156.056 148.616C156.373 148.566 156.603 148.493 156.746 148.396C156.889 148.299 156.961 148.156 156.961 147.967V147.932C156.961 147.564 156.845 147.28 156.613 147.079C156.385 146.878 156.06 146.777 155.638 146.777C155.193 146.777 154.839 146.876 154.576 147.073C154.313 147.267 154.139 147.51 154.054 147.804L151.769 147.619C151.885 147.077 152.113 146.609 152.453 146.215C152.794 145.816 153.233 145.511 153.77 145.298C154.312 145.082 154.938 144.973 155.65 144.973C156.145 144.973 156.619 145.031 157.071 145.147C157.527 145.263 157.932 145.443 158.283 145.687C158.639 145.93 158.92 146.244 159.125 146.627C159.33 147.006 159.432 147.46 159.432 147.99V154H157.088V152.764H157.019C156.876 153.043 156.684 153.288 156.444 153.501C156.205 153.71 155.917 153.874 155.58 153.994C155.244 154.11 154.855 154.168 154.414 154.168ZM155.122 152.463C155.485 152.463 155.806 152.391 156.085 152.248C156.363 152.101 156.582 151.904 156.74 151.656C156.899 151.409 156.978 151.128 156.978 150.815V149.87C156.901 149.92 156.794 149.966 156.659 150.009C156.528 150.047 156.379 150.084 156.212 150.119C156.046 150.15 155.88 150.179 155.714 150.206C155.547 150.229 155.396 150.25 155.261 150.27C154.971 150.312 154.718 150.38 154.501 150.473C154.284 150.566 154.116 150.691 153.996 150.85C153.876 151.005 153.817 151.198 153.817 151.43C153.817 151.767 153.938 152.024 154.182 152.202C154.43 152.376 154.743 152.463 155.122 152.463ZM163.409 151.436L163.415 148.471H163.774L166.629 145.089H169.466L165.631 149.568H165.045L163.409 151.436ZM161.17 154V142.119H163.641V154H161.17ZM166.739 154L164.117 150.119L165.764 148.373L169.634 154H166.739ZM171.943 154.151C171.56 154.151 171.231 154.015 170.957 153.745C170.686 153.47 170.55 153.141 170.55 152.759C170.55 152.38 170.686 152.055 170.957 151.784C171.231 151.513 171.56 151.378 171.943 151.378C172.314 151.378 172.639 151.513 172.917 151.784C173.196 152.055 173.335 152.38 173.335 152.759C173.335 153.014 173.269 153.248 173.138 153.46C173.01 153.669 172.842 153.838 172.633 153.965C172.424 154.089 172.194 154.151 171.943 154.151ZM123.441 176V164.119H128.129C129.03 164.119 129.798 164.291 130.432 164.635C131.066 164.976 131.55 165.449 131.882 166.057C132.219 166.66 132.387 167.356 132.387 168.145C132.387 168.934 132.217 169.63 131.876 170.234C131.536 170.837 131.043 171.307 130.397 171.643C129.755 171.98 128.978 172.148 128.065 172.148H125.077V170.135H127.659C128.142 170.135 128.541 170.052 128.854 169.885C129.171 169.715 129.407 169.481 129.562 169.184C129.72 168.882 129.8 168.536 129.8 168.145C129.8 167.751 129.72 167.406 129.562 167.112C129.407 166.815 129.171 166.585 128.854 166.422C128.537 166.256 128.135 166.173 127.647 166.173H125.953V176H123.441ZM141.206 169.63L138.944 169.769C138.905 169.576 138.822 169.402 138.694 169.247C138.567 169.089 138.399 168.963 138.19 168.87C137.985 168.774 137.739 168.725 137.453 168.725C137.07 168.725 136.747 168.806 136.484 168.969C136.221 169.127 136.09 169.34 136.09 169.607C136.09 169.82 136.175 170 136.345 170.147C136.515 170.294 136.807 170.411 137.221 170.5L138.834 170.825C139.7 171.003 140.346 171.289 140.771 171.684C141.197 172.078 141.409 172.597 141.409 173.239C141.409 173.823 141.237 174.335 140.893 174.776C140.553 175.217 140.085 175.561 139.489 175.809C138.898 176.052 138.215 176.174 137.441 176.174C136.262 176.174 135.322 175.928 134.622 175.437C133.926 174.942 133.518 174.269 133.398 173.418L135.829 173.291C135.902 173.65 136.08 173.925 136.362 174.115C136.645 174.3 137.006 174.393 137.447 174.393C137.88 174.393 138.228 174.31 138.491 174.144C138.758 173.973 138.894 173.755 138.898 173.488C138.894 173.264 138.799 173.08 138.613 172.937C138.428 172.79 138.141 172.678 137.755 172.6L136.212 172.293C135.341 172.119 134.694 171.817 134.268 171.388C133.847 170.959 133.636 170.411 133.636 169.746C133.636 169.174 133.79 168.681 134.1 168.267C134.413 167.853 134.852 167.534 135.417 167.31C135.985 167.085 136.65 166.973 137.412 166.973C138.538 166.973 139.423 167.211 140.069 167.687C140.719 168.163 141.098 168.81 141.206 169.63ZM142.786 176V167.089H145.257V176H142.786ZM144.027 165.941C143.66 165.941 143.345 165.819 143.082 165.575C142.823 165.328 142.693 165.032 142.693 164.688C142.693 164.347 142.823 164.055 143.082 163.812C143.345 163.564 143.66 163.44 144.027 163.44C144.395 163.44 144.708 163.564 144.967 163.812C145.23 164.055 145.362 164.347 145.362 164.688C145.362 165.032 145.23 165.328 144.967 165.575C144.708 165.819 144.395 165.941 144.027 165.941ZM149.297 173.436L149.302 170.471H149.662L152.516 167.089H155.353L151.518 171.568H150.932L149.297 173.436ZM147.057 176V164.119H149.529V176H147.057ZM152.626 176L150.004 172.119L151.652 170.373L155.521 176H152.626ZM160.045 176.174C159.144 176.174 158.365 175.983 157.707 175.6C157.053 175.213 156.549 174.675 156.193 173.987C155.837 173.295 155.659 172.492 155.659 171.579C155.659 170.659 155.837 169.855 156.193 169.166C156.549 168.474 157.053 167.936 157.707 167.553C158.365 167.167 159.144 166.973 160.045 166.973C160.946 166.973 161.723 167.167 162.377 167.553C163.035 167.936 163.541 168.474 163.897 169.166C164.253 169.855 164.431 170.659 164.431 171.579C164.431 172.492 164.253 173.295 163.897 173.987C163.541 174.675 163.035 175.213 162.377 175.6C161.723 175.983 160.946 176.174 160.045 176.174ZM160.057 174.26C160.466 174.26 160.809 174.144 161.083 173.912C161.358 173.676 161.565 173.355 161.704 172.949C161.847 172.542 161.919 172.08 161.919 171.562C161.919 171.044 161.847 170.582 161.704 170.176C161.565 169.769 161.358 169.448 161.083 169.213C160.809 168.977 160.466 168.859 160.057 168.859C159.643 168.859 159.295 168.977 159.012 169.213C158.734 169.448 158.523 169.769 158.38 170.176C158.241 170.582 158.171 171.044 158.171 171.562C158.171 172.08 158.241 172.542 158.38 172.949C158.523 173.355 158.734 173.676 159.012 173.912C159.295 174.144 159.643 174.26 160.057 174.26ZM168.329 164.119V176H165.858V164.119H168.329ZM174.155 176.174C173.254 176.174 172.475 175.983 171.817 175.6C171.164 175.213 170.659 174.675 170.303 173.987C169.947 173.295 169.77 172.492 169.77 171.579C169.77 170.659 169.947 169.855 170.303 169.166C170.659 168.474 171.164 167.936 171.817 167.553C172.475 167.167 173.254 166.973 174.155 166.973C175.056 166.973 175.834 167.167 176.487 167.553C177.145 167.936 177.652 168.474 178.007 169.166C178.363 169.855 178.541 170.659 178.541 171.579C178.541 172.492 178.363 173.295 178.007 173.987C177.652 174.675 177.145 175.213 176.487 175.6C175.834 175.983 175.056 176.174 174.155 176.174ZM174.167 174.26C174.577 174.26 174.919 174.144 175.194 173.912C175.468 173.676 175.675 173.355 175.814 172.949C175.958 172.542 176.029 172.08 176.029 171.562C176.029 171.044 175.958 170.582 175.814 170.176C175.675 169.769 175.468 169.448 175.194 169.213C174.919 168.977 174.577 168.859 174.167 168.859C173.753 168.859 173.405 168.977 173.123 169.213C172.844 169.448 172.633 169.769 172.49 170.176C172.351 170.582 172.282 171.044 172.282 171.562C172.282 172.08 172.351 172.542 172.49 172.949C172.633 173.355 172.844 173.676 173.123 173.912C173.405 174.144 173.753 174.26 174.167 174.26ZM183.983 179.527C183.182 179.527 182.496 179.417 181.923 179.196C181.355 178.98 180.902 178.684 180.566 178.309C180.229 177.934 180.011 177.512 179.91 177.044L182.196 176.737C182.266 176.915 182.376 177.081 182.527 177.236C182.677 177.39 182.877 177.514 183.124 177.607C183.376 177.704 183.681 177.752 184.041 177.752C184.578 177.752 185.021 177.62 185.369 177.357C185.721 177.098 185.897 176.663 185.897 176.052V174.422H185.793C185.684 174.67 185.522 174.904 185.305 175.124C185.089 175.344 184.81 175.524 184.47 175.664C184.13 175.803 183.724 175.872 183.252 175.872C182.583 175.872 181.974 175.718 181.424 175.408C180.879 175.095 180.444 174.617 180.119 173.975C179.798 173.329 179.638 172.513 179.638 171.527C179.638 170.518 179.802 169.675 180.131 168.998C180.459 168.321 180.896 167.814 181.442 167.478C181.991 167.141 182.592 166.973 183.246 166.973C183.745 166.973 184.163 167.058 184.499 167.229C184.836 167.395 185.106 167.604 185.311 167.855C185.52 168.103 185.681 168.346 185.793 168.586H185.886V167.089H188.34V176.087C188.34 176.845 188.154 177.479 187.783 177.99C187.411 178.5 186.897 178.883 186.239 179.138C185.586 179.398 184.834 179.527 183.983 179.527ZM184.035 174.016C184.433 174.016 184.77 173.917 185.044 173.72C185.323 173.519 185.536 173.233 185.683 172.862C185.833 172.486 185.909 172.038 185.909 171.516C185.909 170.994 185.835 170.541 185.688 170.158C185.541 169.771 185.329 169.472 185.05 169.259C184.772 169.046 184.433 168.94 184.035 168.94C183.629 168.94 183.287 169.05 183.008 169.271C182.73 169.487 182.519 169.789 182.376 170.176C182.233 170.562 182.161 171.009 182.161 171.516C182.161 172.03 182.233 172.475 182.376 172.85C182.523 173.221 182.734 173.509 183.008 173.714C183.287 173.915 183.629 174.016 184.035 174.016ZM190.126 176V167.089H192.598V176H190.126ZM191.368 165.941C191 165.941 190.685 165.819 190.422 165.575C190.163 165.328 190.034 165.032 190.034 164.688C190.034 164.347 190.163 164.055 190.422 163.812C190.685 163.564 191 163.44 191.368 163.44C191.735 163.44 192.049 163.564 192.308 163.812C192.571 164.055 192.702 164.347 192.702 164.688C192.702 165.032 192.571 165.328 192.308 165.575C192.049 165.819 191.735 165.941 191.368 165.941Z" fill="black"/>
<path d="M239 36V516C239 529.255 228.255 540 215 540H103C89.7452 540 79 529.255 79 516V220C79 206.745 89.7452 196 103 196H215C228.255 196 239 185.255 239 172V100" stroke="#F25858" stroke-width="14" stroke-miterlimit="0" stroke-linecap="round" stroke-linejoin="bevel"/>
<path d="M209.697 16H207.304L210.95 5.43915H213.828L217.468 16H215.076L212.43 7.85247H212.348L209.697 16ZM209.548 11.8489H215.199V13.5918H209.548V11.8489ZM224.944 10.338L222.933 10.4617C222.899 10.2899 222.825 10.1352 222.711 9.99764C222.598 9.85669 222.448 9.74496 222.263 9.66246C222.081 9.57651 221.862 9.53354 221.608 9.53354C221.268 9.53354 220.981 9.60573 220.747 9.75012C220.513 9.89107 220.396 10.0801 220.396 10.3174C220.396 10.5064 220.472 10.6663 220.623 10.7969C220.774 10.9276 221.034 11.0324 221.402 11.1115L222.835 11.4003C223.605 11.5584 224.179 11.8128 224.558 12.1634C224.936 12.5141 225.125 12.9748 225.125 13.5454C225.125 14.0645 224.972 14.52 224.666 14.9119C224.363 15.3039 223.947 15.6098 223.418 15.8298C222.892 16.0464 222.285 16.1547 221.598 16.1547C220.549 16.1547 219.714 15.9364 219.091 15.4998C218.473 15.0598 218.11 14.4616 218.003 13.7053L220.164 13.5918C220.229 13.9116 220.387 14.1556 220.638 14.3241C220.889 14.4891 221.211 14.5716 221.603 14.5716C221.988 14.5716 222.297 14.4977 222.531 14.3499C222.768 14.1986 222.888 14.0044 222.892 13.7672C222.888 13.5678 222.804 13.4045 222.639 13.2773C222.474 13.1466 222.22 13.0469 221.876 12.9782L220.504 12.7049C219.731 12.5502 219.155 12.282 218.777 11.9005C218.402 11.5189 218.215 11.0324 218.215 10.4411C218.215 9.93232 218.352 9.49401 218.627 9.12616C218.906 8.75832 219.296 8.4747 219.798 8.27531C220.303 8.07592 220.895 7.97623 221.572 7.97623C222.572 7.97623 223.359 8.18765 223.934 8.6105C224.511 9.03334 224.848 9.60917 224.944 10.338ZM226.348 16V8.07936H228.478V9.46135H228.561C228.705 8.96974 228.947 8.59846 229.288 8.34751C229.628 8.09311 230.02 7.96591 230.463 7.96591C230.573 7.96591 230.692 7.97279 230.819 7.98654C230.946 8.00029 231.058 8.0192 231.154 8.04326V9.99248C231.051 9.96154 230.909 9.93404 230.726 9.90998C230.544 9.88591 230.377 9.87388 230.226 9.87388C229.903 9.87388 229.614 9.94435 229.36 10.0853C229.109 10.2228 228.909 10.4153 228.762 10.6629C228.617 10.9104 228.545 11.1957 228.545 11.5189V16H226.348ZM234.162 16.1495C233.657 16.1495 233.206 16.0619 232.811 15.8866C232.416 15.7078 232.103 15.4448 231.873 15.0976C231.646 14.7469 231.532 14.3103 231.532 13.7878C231.532 13.3478 231.613 12.9782 231.775 12.6791C231.936 12.38 232.156 12.1394 232.435 11.9572C232.713 11.775 233.029 11.6375 233.383 11.5446C233.741 11.4518 234.116 11.3865 234.508 11.3487C234.968 11.3006 235.339 11.2559 235.621 11.2146C235.903 11.1699 236.108 11.1046 236.235 11.0187C236.362 10.9327 236.426 10.8055 236.426 10.6371V10.6061C236.426 10.2795 236.323 10.0269 236.116 9.8481C235.914 9.66933 235.625 9.57995 235.25 9.57995C234.855 9.57995 234.54 9.66761 234.306 9.84294C234.073 10.0148 233.918 10.2314 233.842 10.4927L231.811 10.3277C231.914 9.84638 232.117 9.43041 232.419 9.07975C232.722 8.72566 233.112 8.45408 233.59 8.265C234.071 8.07248 234.628 7.97623 235.26 7.97623C235.7 7.97623 236.122 8.02779 236.524 8.13093C236.929 8.23406 237.289 8.39392 237.602 8.6105C237.918 8.82708 238.167 9.10554 238.349 9.44588C238.531 9.78278 238.623 10.1867 238.623 10.6577V16H236.539V14.9016H236.477C236.35 15.1492 236.18 15.3674 235.967 15.5565C235.754 15.7422 235.498 15.8883 235.199 15.9948C234.899 16.098 234.554 16.1495 234.162 16.1495ZM234.791 14.6335C235.114 14.6335 235.4 14.5699 235.647 14.4427C235.895 14.3121 236.089 14.1367 236.23 13.9167C236.371 13.6967 236.441 13.4475 236.441 13.169V12.3285C236.373 12.3731 236.278 12.4144 236.158 12.4522C236.041 12.4866 235.908 12.5193 235.761 12.5502C235.613 12.5777 235.465 12.6035 235.317 12.6275C235.169 12.6482 235.035 12.6671 234.915 12.6843C234.657 12.7221 234.432 12.7822 234.239 12.8647C234.047 12.9473 233.897 13.059 233.791 13.1999C233.684 13.3374 233.631 13.5093 233.631 13.7156C233.631 14.0147 233.739 14.2433 233.956 14.4014C234.176 14.5561 234.454 14.6335 234.791 14.6335ZM240.167 16V8.07936H242.261V9.47682H242.354C242.519 9.01272 242.794 8.64659 243.179 8.37845C243.564 8.1103 244.024 7.97623 244.561 7.97623C245.104 7.97623 245.566 8.11202 245.948 8.3836C246.329 8.65175 246.584 9.01615 246.711 9.47682H246.793C246.955 9.02303 247.247 8.66034 247.67 8.38876C248.096 8.11374 248.6 7.97623 249.181 7.97623C249.92 7.97623 250.52 8.21171 250.981 8.68269C251.445 9.15023 251.677 9.81372 251.677 10.6732V16H249.485V11.1063C249.485 10.6663 249.368 10.3363 249.135 10.1162C248.901 9.89623 248.609 9.78622 248.258 9.78622C247.859 9.78622 247.548 9.91341 247.325 10.1678C247.101 10.4188 246.989 10.7505 246.989 11.163V16H244.86V11.0599C244.86 10.6714 244.748 10.362 244.525 10.1317C244.304 9.90138 244.014 9.78622 243.653 9.78622C243.409 9.78622 243.189 9.8481 242.993 9.97186C242.8 10.0922 242.647 10.2623 242.534 10.4824C242.421 10.6989 242.364 10.9533 242.364 11.2456V16H240.167ZM255.511 16.1495C255.006 16.1495 254.555 16.0619 254.16 15.8866C253.765 15.7078 253.452 15.4448 253.221 15.0976C252.994 14.7469 252.881 14.3103 252.881 13.7878C252.881 13.3478 252.962 12.9782 253.123 12.6791C253.285 12.38 253.505 12.1394 253.783 11.9572C254.062 11.775 254.378 11.6375 254.732 11.5446C255.09 11.4518 255.464 11.3865 255.856 11.3487C256.317 11.3006 256.688 11.2559 256.97 11.2146C257.252 11.1699 257.457 11.1046 257.584 11.0187C257.711 10.9327 257.775 10.8055 257.775 10.6371V10.6061C257.775 10.2795 257.672 10.0269 257.465 9.8481C257.262 9.66933 256.974 9.57995 256.599 9.57995C256.204 9.57995 255.889 9.66761 255.655 9.84294C255.422 10.0148 255.267 10.2314 255.191 10.4927L253.159 10.3277C253.263 9.84638 253.465 9.43041 253.768 9.07975C254.07 8.72566 254.461 8.45408 254.939 8.265C255.42 8.07248 255.977 7.97623 256.609 7.97623C257.049 7.97623 257.47 8.02779 257.873 8.13093C258.278 8.23406 258.638 8.39392 258.95 8.6105C259.267 8.82708 259.516 9.10554 259.698 9.44588C259.88 9.78278 259.971 10.1867 259.971 10.6577V16H257.888V14.9016H257.826C257.699 15.1492 257.529 15.3674 257.316 15.5565C257.103 15.7422 256.846 15.8883 256.547 15.9948C256.248 16.098 255.903 16.1495 255.511 16.1495ZM256.14 14.6335C256.463 14.6335 256.749 14.5699 256.996 14.4427C257.244 14.3121 257.438 14.1367 257.579 13.9167C257.72 13.6967 257.79 13.4475 257.79 13.169V12.3285C257.721 12.3731 257.627 12.4144 257.507 12.4522C257.39 12.4866 257.257 12.5193 257.109 12.5502C256.962 12.5777 256.814 12.6035 256.666 12.6275C256.518 12.6482 256.384 12.6671 256.264 12.6843C256.006 12.7221 255.781 12.7822 255.588 12.8647C255.396 12.9473 255.246 13.059 255.14 13.1999C255.033 13.3374 254.98 13.5093 254.98 13.7156C254.98 14.0147 255.088 14.2433 255.305 14.4014C255.525 14.5561 255.803 14.6335 256.14 14.6335ZM271.282 5.43915H273.514V12.2975C273.514 13.0676 273.33 13.7414 272.963 14.3189C272.598 14.8965 272.088 15.3468 271.431 15.67C270.774 15.9897 270.01 16.1495 269.136 16.1495C268.26 16.1495 267.493 15.9897 266.836 15.67C266.18 15.3468 265.669 14.8965 265.305 14.3189C264.941 13.7414 264.758 13.0676 264.758 12.2975V5.43915H266.991V12.1067C266.991 12.5089 267.079 12.8665 267.254 13.1793C267.433 13.4921 267.684 13.7379 268.007 13.9167C268.33 14.0955 268.707 14.1849 269.136 14.1849C269.57 14.1849 269.946 14.0955 270.266 13.9167C270.589 13.7379 270.838 13.4921 271.013 13.1793C271.192 12.8665 271.282 12.5089 271.282 12.1067V5.43915ZM277.425 5.43915V16H275.192V5.43915H277.425Z" fill="black"/>
<path d="M263.777 130.536C263.731 130.068 263.532 129.704 263.18 129.445C262.828 129.186 262.35 129.057 261.747 129.057C261.337 129.057 260.991 129.115 260.708 129.231C260.426 129.343 260.209 129.499 260.059 129.701C259.912 129.902 259.838 130.13 259.838 130.385C259.83 130.598 259.875 130.783 259.972 130.942C260.072 131.101 260.209 131.238 260.383 131.354C260.557 131.466 260.759 131.565 260.987 131.65C261.215 131.731 261.459 131.801 261.718 131.859L262.785 132.114C263.303 132.23 263.779 132.385 264.212 132.578C264.645 132.771 265.021 133.009 265.338 133.292C265.655 133.574 265.9 133.907 266.074 134.289C266.252 134.672 266.343 135.111 266.347 135.606C266.343 136.333 266.158 136.964 265.79 137.497C265.427 138.027 264.901 138.439 264.212 138.733C263.528 139.023 262.702 139.168 261.735 139.168C260.776 139.168 259.941 139.021 259.229 138.727C258.521 138.433 257.968 137.998 257.57 137.422C257.175 136.842 256.968 136.125 256.949 135.27H259.38C259.407 135.668 259.521 136.001 259.722 136.268C259.927 136.531 260.2 136.73 260.54 136.865C260.884 136.997 261.273 137.062 261.706 137.062C262.132 137.062 262.501 137.001 262.814 136.877C263.131 136.753 263.377 136.581 263.551 136.36C263.725 136.14 263.812 135.887 263.812 135.6C263.812 135.334 263.733 135.109 263.574 134.928C263.419 134.746 263.191 134.591 262.89 134.463C262.592 134.336 262.226 134.22 261.793 134.115L260.499 133.79C259.498 133.547 258.707 133.166 258.127 132.648C257.547 132.129 257.259 131.431 257.262 130.553C257.259 129.834 257.45 129.206 257.837 128.668C258.227 128.13 258.763 127.711 259.444 127.409C260.124 127.107 260.898 126.957 261.764 126.957C262.646 126.957 263.416 127.107 264.073 127.409C264.734 127.711 265.249 128.13 265.616 128.668C265.984 129.206 266.173 129.828 266.185 130.536H263.777ZM272.55 130.089V131.946H267.184V130.089H272.55ZM268.402 127.954H270.874V136.262C270.874 136.49 270.908 136.668 270.978 136.796C271.048 136.919 271.144 137.006 271.268 137.057C271.396 137.107 271.543 137.132 271.709 137.132C271.825 137.132 271.941 137.122 272.057 137.103C272.173 137.08 272.262 137.062 272.324 137.051L272.713 138.89C272.589 138.928 272.415 138.973 272.191 139.023C271.966 139.077 271.694 139.11 271.373 139.122C270.777 139.145 270.255 139.066 269.806 138.884C269.361 138.702 269.015 138.42 268.768 138.037C268.52 137.654 268.398 137.171 268.402 136.587V127.954ZM276.521 139.168C275.953 139.168 275.446 139.07 275.001 138.872C274.557 138.671 274.205 138.375 273.946 137.985C273.69 137.59 273.563 137.099 273.563 136.511C273.563 136.016 273.654 135.6 273.835 135.264C274.017 134.928 274.265 134.657 274.578 134.452C274.891 134.247 275.247 134.092 275.645 133.988C276.048 133.883 276.469 133.81 276.91 133.767C277.428 133.713 277.846 133.663 278.163 133.616C278.48 133.566 278.71 133.493 278.853 133.396C278.997 133.299 279.068 133.156 279.068 132.967V132.932C279.068 132.564 278.952 132.28 278.72 132.079C278.492 131.878 278.167 131.777 277.745 131.777C277.301 131.777 276.947 131.876 276.684 132.073C276.421 132.267 276.247 132.51 276.162 132.804L273.876 132.619C273.992 132.077 274.22 131.609 274.561 131.215C274.901 130.816 275.34 130.511 275.877 130.298C276.419 130.082 277.045 129.973 277.757 129.973C278.252 129.973 278.726 130.031 279.178 130.147C279.635 130.263 280.039 130.443 280.391 130.687C280.747 130.93 281.027 131.244 281.232 131.627C281.437 132.006 281.539 132.46 281.539 132.99V139H279.196V137.764H279.126C278.983 138.043 278.792 138.288 278.552 138.501C278.312 138.71 278.024 138.874 277.687 138.994C277.351 139.11 276.962 139.168 276.521 139.168ZM277.229 137.463C277.593 137.463 277.914 137.391 278.192 137.248C278.471 137.101 278.689 136.904 278.848 136.656C279.006 136.409 279.085 136.128 279.085 135.815V134.87C279.008 134.92 278.902 134.966 278.766 135.009C278.635 135.047 278.486 135.084 278.32 135.119C278.153 135.15 277.987 135.179 277.821 135.206C277.655 135.229 277.504 135.25 277.368 135.27C277.078 135.312 276.825 135.38 276.608 135.473C276.392 135.566 276.224 135.691 276.104 135.85C275.984 136.005 275.924 136.198 275.924 136.43C275.924 136.767 276.046 137.024 276.289 137.202C276.537 137.376 276.85 137.463 277.229 137.463ZM290.691 132.63L288.429 132.769C288.39 132.576 288.307 132.402 288.179 132.247C288.051 132.089 287.883 131.963 287.674 131.87C287.469 131.774 287.224 131.725 286.938 131.725C286.555 131.725 286.232 131.806 285.969 131.969C285.706 132.127 285.574 132.34 285.574 132.607C285.574 132.82 285.659 133 285.83 133.147C286 133.294 286.292 133.411 286.706 133.5L288.318 133.825C289.185 134.003 289.831 134.289 290.256 134.684C290.681 135.078 290.894 135.597 290.894 136.239C290.894 136.823 290.722 137.335 290.378 137.776C290.037 138.217 289.569 138.561 288.974 138.809C288.382 139.052 287.7 139.174 286.926 139.174C285.746 139.174 284.807 138.928 284.107 138.437C283.41 137.942 283.002 137.269 282.883 136.418L285.313 136.291C285.387 136.65 285.565 136.925 285.847 137.115C286.129 137.3 286.491 137.393 286.932 137.393C287.365 137.393 287.713 137.31 287.976 137.144C288.243 136.973 288.378 136.755 288.382 136.488C288.378 136.264 288.284 136.08 288.098 135.937C287.912 135.79 287.626 135.678 287.239 135.6L285.696 135.293C284.826 135.119 284.178 134.817 283.753 134.388C283.331 133.959 283.12 133.411 283.12 132.746C283.12 132.174 283.275 131.681 283.585 131.267C283.898 130.853 284.337 130.534 284.901 130.31C285.47 130.085 286.135 129.973 286.897 129.973C288.022 129.973 288.908 130.211 289.554 130.687C290.204 131.163 290.583 131.81 290.691 132.63ZM292.271 139V130.089H294.742V139H292.271ZM293.512 128.941C293.145 128.941 292.829 128.819 292.566 128.575C292.307 128.328 292.178 128.032 292.178 127.688C292.178 127.347 292.307 127.055 292.566 126.812C292.829 126.564 293.145 126.44 293.512 126.44C293.879 126.44 294.193 126.564 294.452 126.812C294.715 127.055 294.846 127.347 294.846 127.688C294.846 128.032 294.715 128.328 294.452 128.575C294.193 128.819 293.879 128.941 293.512 128.941ZM302.256 135.206V130.089H304.727V139H302.355V137.381H302.262C302.061 137.904 301.726 138.323 301.258 138.64C300.794 138.957 300.228 139.116 299.559 139.116C298.963 139.116 298.439 138.981 297.986 138.71C297.534 138.439 297.18 138.054 296.925 137.555C296.673 137.057 296.546 136.459 296.542 135.763V130.089H299.013V135.322C299.017 135.848 299.158 136.264 299.437 136.569C299.715 136.875 300.088 137.028 300.556 137.028C300.854 137.028 301.133 136.96 301.392 136.825C301.651 136.685 301.86 136.48 302.018 136.21C302.181 135.939 302.26 135.604 302.256 135.206ZM308.996 133.848V139H306.525V130.089H308.88V131.661H308.984C309.181 131.143 309.512 130.733 309.976 130.432C310.44 130.126 311.003 129.973 311.664 129.973C312.283 129.973 312.823 130.109 313.283 130.379C313.743 130.65 314.101 131.037 314.356 131.54C314.611 132.039 314.739 132.634 314.739 133.326V139H312.268V133.767C312.272 133.222 312.132 132.797 311.85 132.491C311.568 132.182 311.179 132.027 310.684 132.027C310.351 132.027 310.057 132.098 309.802 132.242C309.551 132.385 309.354 132.593 309.21 132.868C309.071 133.139 309 133.466 308.996 133.848ZM286.213 149.119H288.725V156.835C288.725 157.701 288.518 158.459 288.104 159.109C287.694 159.759 287.12 160.265 286.381 160.629C285.643 160.988 284.782 161.168 283.8 161.168C282.814 161.168 281.951 160.988 281.212 160.629C280.474 160.265 279.899 159.759 279.489 159.109C279.08 158.459 278.875 157.701 278.875 156.835V149.119H281.386V156.62C281.386 157.073 281.485 157.475 281.682 157.827C281.883 158.179 282.166 158.455 282.529 158.656C282.893 158.857 283.316 158.958 283.8 158.958C284.287 158.958 284.711 158.857 285.07 158.656C285.434 158.455 285.714 158.179 285.911 157.827C286.113 157.475 286.213 157.073 286.213 156.62V149.119ZM293.124 149.119V161H290.612V149.119H293.124Z" fill="black"/>
<rect x="222.838" y="25.3614" width="32.6726" height="14.5212" rx="7.26059" fill="white" stroke="black" stroke-width="2.72272"/>
<path d="M245.453 32.8107L244.17 31.5274L240.274 35.4236V26.7236H238.459V35.4236L234.563 31.5274L233.279 32.8107L239.366 38.8978L245.453 32.8107Z" fill="#494949"/>
<circle cx="239.628" cy="144.689" r="8.62195" fill="white" stroke="black" stroke-width="2.72272"/>
<path d="M239.632 137.429C235.628 137.429 232.371 140.686 232.371 144.689C232.371 148.693 235.628 151.95 239.632 151.95C243.635 151.95 246.892 148.693 246.892 144.689C246.892 140.686 243.635 137.429 239.632 137.429ZM239.632 148.32L236.001 144.689H238.906V141.059H240.358V144.689H243.262L239.632 148.32Z" fill="#494949"/>
<circle cx="239.628" cy="79.704" r="8.62195" fill="white" stroke="black" stroke-width="2.72272"/>
<path d="M258.033 73.119H261.13L264.402 81.1016H264.542L267.814 73.119H270.911V85H268.475V77.2669H268.376L265.302 84.942H263.642L260.568 77.2379H260.469V85H258.033V73.119ZM276.816 85.174C275.899 85.174 275.11 84.9884 274.449 84.6171C273.791 84.242 273.285 83.7121 272.929 83.0276C272.573 82.3392 272.395 81.5251 272.395 80.5852C272.395 79.6687 272.573 78.8642 272.929 78.1719C273.285 77.4796 273.786 76.9401 274.431 76.5534C275.081 76.1666 275.843 75.9733 276.717 75.9733C277.305 75.9733 277.852 76.068 278.359 76.2575C278.869 76.4432 279.314 76.7236 279.693 77.0987C280.076 77.4738 280.374 77.9457 280.587 78.5142C280.799 79.0789 280.906 79.7402 280.906 80.4982V81.177H273.381V79.6454H278.579C278.579 79.2896 278.502 78.9744 278.347 78.6998C278.193 78.4253 277.978 78.2106 277.703 78.0559C277.433 77.8973 277.117 77.8181 276.758 77.8181C276.383 77.8181 276.05 77.9051 275.76 78.0791C275.474 78.2493 275.249 78.4794 275.087 78.7695C274.925 79.0557 274.841 79.3747 274.838 79.7267V81.1828C274.838 81.6237 274.919 82.0046 275.081 82.3256C275.247 82.6466 275.481 82.8941 275.783 83.0682C276.085 83.2422 276.443 83.3292 276.856 83.3292C277.131 83.3292 277.382 83.2906 277.611 83.2132C277.839 83.1359 278.034 83.0198 278.196 82.8651C278.359 82.7104 278.483 82.5209 278.568 82.2966L280.853 82.4475C280.737 82.9966 280.5 83.4762 280.14 83.8862C279.784 84.2922 279.324 84.6094 278.759 84.8376C278.198 85.0619 277.551 85.174 276.816 85.174ZM284.81 79.8485V85H282.339V76.0893H284.694V77.6614H284.798C284.996 77.1432 285.326 76.7332 285.79 76.4316C286.255 76.126 286.817 75.9733 287.479 75.9733C288.097 75.9733 288.637 76.1086 289.097 76.3793C289.557 76.6501 289.915 77.0368 290.17 77.5396C290.426 78.0385 290.553 78.6341 290.553 79.3264V85H288.082V79.7673C288.086 79.222 287.947 78.7965 287.664 78.491C287.382 78.1816 286.993 78.0269 286.498 78.0269C286.166 78.0269 285.872 78.0984 285.616 78.2415C285.365 78.3846 285.168 78.5935 285.025 78.8681C284.885 79.1388 284.814 79.4656 284.81 79.8485ZM294.079 85L291.654 76.0893H294.155L295.535 82.0762H295.616L297.055 76.0893H299.509L300.971 82.0414H301.046L302.404 76.0893H304.898L302.479 85H299.863L298.331 79.396H298.221L296.69 85H294.079ZM308.578 85.1682C308.009 85.1682 307.503 85.0696 307.058 84.8724C306.613 84.6713 306.261 84.3754 306.002 83.9848C305.747 83.5903 305.619 83.0991 305.619 82.5113C305.619 82.0162 305.71 81.6005 305.892 81.264C306.074 80.9275 306.321 80.6568 306.635 80.4518C306.948 80.2468 307.304 80.0921 307.702 79.9877C308.104 79.8833 308.526 79.8098 308.967 79.7673C309.485 79.7131 309.903 79.6629 310.22 79.6164C310.537 79.5662 310.767 79.4927 310.91 79.396C311.053 79.2993 311.125 79.1562 311.125 78.9667V78.9319C311.125 78.5645 311.009 78.2802 310.777 78.0791C310.549 77.878 310.224 77.7774 309.802 77.7774C309.357 77.7774 309.003 77.8761 308.74 78.0733C308.477 78.2667 308.303 78.5103 308.218 78.8043L305.933 78.6186C306.049 78.0772 306.277 77.6092 306.617 77.2147C306.958 76.8164 307.396 76.5108 307.934 76.2981C308.476 76.0815 309.102 75.9733 309.814 75.9733C310.309 75.9733 310.782 76.0313 311.235 76.1473C311.691 76.2633 312.096 76.4432 312.447 76.6868C312.803 76.9305 313.084 77.2437 313.289 77.6266C313.494 78.0056 313.596 78.4601 313.596 78.9899V85H311.252V83.7643H311.183C311.04 84.0428 310.848 84.2884 310.608 84.5011C310.369 84.7099 310.081 84.8743 309.744 84.9942C309.408 85.1102 309.019 85.1682 308.578 85.1682ZM309.286 83.4627C309.649 83.4627 309.97 83.3911 310.249 83.248C310.527 83.1011 310.746 82.9038 310.904 82.6563C311.063 82.4088 311.142 82.1284 311.142 81.8151V80.8695C311.065 80.9198 310.958 80.9662 310.823 81.0087C310.692 81.0474 310.543 81.0842 310.376 81.119C310.21 81.1499 310.044 81.1789 309.877 81.206C309.711 81.2292 309.56 81.2505 309.425 81.2698C309.135 81.3123 308.882 81.38 308.665 81.4728C308.448 81.5657 308.28 81.6914 308.16 81.8499C308.04 82.0046 307.98 82.198 307.98 82.43C307.98 82.7665 308.102 83.0237 308.346 83.2016C308.593 83.3757 308.907 83.4627 309.286 83.4627Z" fill="black"/>
<path d="M239.632 72.4453C235.628 72.4453 232.371 75.7024 232.371 79.7059C232.371 83.7094 235.628 86.9665 239.632 86.9665C243.635 86.9665 246.892 83.7094 246.892 79.7059C246.892 75.7024 243.635 72.4453 239.632 72.4453ZM239.632 83.3362L236.001 79.7059H238.906V76.0756H240.358V79.7059H243.262L239.632 83.3362Z" fill="#494949"/>
<circle cx="157.983" cy="195.983" r="8.62195" fill="white" stroke="black" stroke-width="2.72272"/>
<path d="M150.727 195.981C150.727 191.978 153.984 188.721 157.987 188.721C161.991 188.721 165.248 191.978 165.248 195.981C165.248 199.985 161.991 203.242 157.987 203.242C153.984 203.242 150.727 199.985 150.727 195.981ZM161.617 195.981L157.987 192.351L157.987 195.255L154.357 195.255L154.357 196.707L157.987 196.707L157.987 199.612L161.617 195.981Z" fill="#494949"/>
<circle cx="79.8837" cy="222.983" r="8.62195" fill="white" stroke="black" stroke-width="2.72272"/>
<path d="M8.39439 230V218.119H16.2609V220.19H10.9063V223.021H15.7388V225.092H10.9063V230H8.39439ZM20.2827 218.119V230H17.7708V218.119H20.2827ZM28.6149 221.536C28.5685 221.068 28.3693 220.704 28.0174 220.445C27.6655 220.186 27.1878 220.057 26.5845 220.057C26.1745 220.057 25.8284 220.115 25.5461 220.231C25.2637 220.343 25.0472 220.499 24.8963 220.701C24.7494 220.902 24.6759 221.13 24.6759 221.385C24.6681 221.598 24.7126 221.783 24.8093 221.942C24.9099 222.101 25.0472 222.238 25.2212 222.354C25.3952 222.466 25.5963 222.565 25.8245 222.65C26.0527 222.731 26.2964 222.801 26.5555 222.859L27.6229 223.114C28.1412 223.23 28.6169 223.385 29.05 223.578C29.4832 223.771 29.8583 224.009 30.1755 224.292C30.4926 224.574 30.7382 224.907 30.9122 225.289C31.0901 225.672 31.181 226.111 31.1849 226.606C31.181 227.333 30.9954 227.964 30.628 228.497C30.2644 229.027 29.7384 229.439 29.05 229.733C28.3655 230.023 27.5398 230.168 26.5729 230.168C25.6137 230.168 24.7784 230.021 24.0667 229.727C23.359 229.433 22.8059 228.998 22.4076 228.422C22.0131 227.842 21.8062 227.125 21.7869 226.27H24.2176C24.2446 226.668 24.3587 227.001 24.5598 227.268C24.7648 227.531 25.0375 227.73 25.3778 227.865C25.722 227.997 26.1107 228.062 26.5439 228.062C26.9693 228.062 27.3386 228.001 27.6519 227.877C27.9691 227.753 28.2146 227.581 28.3887 227.36C28.5627 227.14 28.6497 226.887 28.6497 226.6C28.6497 226.334 28.5704 226.109 28.4119 225.928C28.2572 225.746 28.029 225.591 27.7273 225.463C27.4295 225.336 27.0641 225.22 26.6309 225.115L25.3372 224.79C24.3355 224.547 23.5446 224.166 22.9645 223.648C22.3844 223.129 22.0963 222.431 22.1001 221.553C22.0963 220.834 22.2877 220.206 22.6744 219.668C23.0651 219.13 23.6007 218.711 24.2814 218.409C24.9621 218.107 25.7356 217.957 26.6019 217.957C27.4837 217.957 28.2533 218.107 28.9108 218.409C29.5721 218.711 30.0865 219.13 30.4539 219.668C30.8213 220.206 31.0108 220.828 31.0224 221.536H28.6149ZM35.2067 218.119V230H32.6948V218.119H35.2067ZM37.0937 230V218.119H41.7811C42.6823 218.119 43.45 218.291 44.0842 218.635C44.7185 218.976 45.2019 219.449 45.5345 220.057C45.871 220.66 46.0393 221.356 46.0393 222.145C46.0393 222.934 45.8691 223.63 45.5287 224.234C45.1884 224.837 44.6953 225.307 44.0494 225.643C43.4074 225.98 42.6301 226.148 41.7173 226.148H38.7297V224.135H41.3112C41.7947 224.135 42.193 224.052 42.5063 223.885C42.8234 223.715 43.0593 223.481 43.214 223.184C43.3726 222.882 43.4519 222.536 43.4519 222.145C43.4519 221.751 43.3726 221.406 43.214 221.112C43.0593 220.815 42.8234 220.585 42.5063 220.422C42.1892 220.256 41.7869 220.173 41.2996 220.173H39.6057V230H37.0937Z" fill="black"/>
<path d="M79.8856 230.244C75.8821 230.244 72.625 226.987 72.625 222.984C72.625 218.98 75.8821 215.723 79.8856 215.723C83.8891 215.723 87.1462 218.98 87.1462 222.984C87.1462 226.987 83.8891 230.244 79.8856 230.244ZM79.8856 219.353L76.2553 222.984H79.1595V226.614H80.6116V222.984H83.5159L79.8856 219.353Z" fill="#494949"/>
<circle cx="78.9579" cy="286.983" r="8.62195" fill="white" stroke="black" stroke-width="2.72272"/>
<path d="M15.5221 294V282.119H23.3886V284.19H18.034V287.021H22.8664V289.092H18.034V294H15.5221ZM27.4104 282.119V294H24.8985V282.119H27.4104ZM29.2974 294V282.119H34.0544C34.9285 282.119 35.6575 282.249 36.2415 282.508C36.8255 282.767 37.2645 283.127 37.5584 283.587C37.8523 284.043 37.9993 284.569 37.9993 285.165C37.9993 285.629 37.9065 286.037 37.7208 286.389C37.5352 286.737 37.2799 287.023 36.9551 287.247C36.634 287.468 36.2666 287.624 35.8528 287.717V287.833C36.3053 287.853 36.7288 287.98 37.1233 288.216C37.5216 288.452 37.8446 288.783 38.0921 289.208C38.3396 289.63 38.4634 290.132 38.4634 290.716C38.4634 291.347 38.3067 291.91 37.9935 292.405C37.6841 292.896 37.2258 293.285 36.6186 293.571C36.0114 293.857 35.263 294 34.3735 294H29.2974ZM31.8093 291.946H33.8572C34.5572 291.946 35.0677 291.813 35.3887 291.546C35.7097 291.275 35.8702 290.916 35.8702 290.467C35.8702 290.138 35.7909 289.848 35.6324 289.597C35.4738 289.345 35.2476 289.148 34.9536 289.005C34.6636 288.862 34.3174 288.79 33.9152 288.79H31.8093V291.946ZM31.8093 287.091H33.6715C34.0158 287.091 34.3213 287.031 34.5881 286.911C34.8589 286.787 35.0716 286.613 35.2263 286.389C35.3848 286.164 35.4641 285.896 35.4641 285.582C35.4641 285.153 35.3114 284.807 35.0058 284.544C34.7042 284.281 34.2749 284.149 33.718 284.149H31.8093V287.091Z" fill="black"/>
<path d="M78.9579 294.245C74.9544 294.245 71.6973 290.988 71.6973 286.985C71.6973 282.981 74.9544 279.724 78.9579 279.724C82.9613 279.724 86.2184 282.981 86.2184 286.985C86.2184 290.988 82.9613 294.245 78.9579 294.245ZM78.9579 283.354L75.3276 286.985H78.2318V290.615H79.6839V286.985H82.5881L78.9579 283.354Z" fill="#494949"/>
<circle cx="78.9618" cy="350.983" r="8.62195" fill="white" stroke="black" stroke-width="2.72272"/>
<path d="M11.6498 358V346.119H19.5163V348.19H14.1618V351.021H18.9942V353.092H14.1618V358H11.6498ZM21.0262 358V346.119H29.0319V348.19H23.5382V351.021H28.6201V353.092H23.5382V355.929H29.0552V358H21.0262ZM30.8493 358V346.119H35.6064C36.4804 346.119 37.2094 346.249 37.7934 346.508C38.3774 346.767 38.8164 347.127 39.1103 347.587C39.4042 348.043 39.5512 348.569 39.5512 349.165C39.5512 349.629 39.4584 350.037 39.2727 350.389C39.0871 350.737 38.8319 351.023 38.507 351.247C38.186 351.468 37.8186 351.624 37.4047 351.717V351.833C37.8572 351.853 38.2807 351.98 38.6752 352.216C39.0736 352.452 39.3965 352.783 39.644 353.208C39.8915 353.63 40.0153 354.132 40.0153 354.716C40.0153 355.347 39.8587 355.91 39.5454 356.405C39.236 356.896 38.7777 357.285 38.1705 357.571C37.5633 357.857 36.8149 358 35.9254 358H30.8493ZM33.3613 355.946H35.4091C36.1091 355.946 36.6196 355.813 36.9406 355.546C37.2616 355.275 37.4221 354.916 37.4221 354.467C37.4221 354.138 37.3429 353.848 37.1843 353.597C37.0257 353.345 36.7995 353.148 36.5055 353.005C36.2155 352.862 35.8693 352.79 35.4671 352.79H33.3613V355.946ZM33.3613 351.091H35.2235C35.5677 351.091 35.8732 351.031 36.1401 350.911C36.4108 350.787 36.6235 350.613 36.7782 350.389C36.9368 350.164 37.0161 349.896 37.0161 349.582C37.0161 349.153 36.8633 348.807 36.5578 348.544C36.2561 348.281 35.8268 348.149 35.2699 348.149H33.3613V351.091Z" fill="black"/>
<path d="M78.9579 358.244C74.9544 358.244 71.6973 354.987 71.6973 350.984C71.6973 346.98 74.9544 343.723 78.9579 343.723C82.9613 343.723 86.2184 346.98 86.2184 350.984C86.2184 354.987 82.9613 358.244 78.9579 358.244ZM78.9579 347.353L75.3276 350.984H78.2318V354.614H79.6839V350.984H82.5881L78.9579 347.353Z" fill="#494949"/>
<circle cx="78.9599" cy="414.983" r="8.62195" fill="white" stroke="black" stroke-width="2.72272"/>
<path d="M16.5387 422V410.119H24.4052V412.19H19.0507V415.021H23.8831V417.092H19.0507V422H16.5387ZM25.4626 412.19V410.119H35.2203V412.19H31.583V422H29.1V412.19H25.4626Z" fill="black"/>
<path d="M78.9579 422.243C74.9544 422.243 71.6973 418.986 71.6973 414.983C71.6973 410.979 74.9544 407.722 78.9579 407.722C82.9613 407.722 86.2184 410.979 86.2184 414.983C86.2184 418.986 82.9613 422.243 78.9579 422.243ZM78.9579 411.352L75.3276 414.983H78.2318V418.613H79.6839V414.983H82.5881L78.9579 411.352Z" fill="#494949"/>
<circle cx="78.9579" cy="478.983" r="8.62195" fill="white" stroke="black" stroke-width="2.72272"/>
<path d="M3.20691 474.119L6.07853 483.146H6.18875L9.06617 474.119H11.8508L7.75509 486H4.51799L0.416508 474.119H3.20691ZM16.0757 486.174C15.1745 486.174 14.3952 485.983 13.7378 485.6C13.0842 485.213 12.5795 484.675 12.2236 483.987C11.8678 483.295 11.6899 482.492 11.6899 481.579C11.6899 480.659 11.8678 479.855 12.2236 479.166C12.5795 478.474 13.0842 477.936 13.7378 477.553C14.3952 477.167 15.1745 476.973 16.0757 476.973C16.9768 476.973 17.7542 477.167 18.4078 477.553C19.0652 477.936 19.5719 478.474 19.9277 479.166C20.2835 479.855 20.4614 480.659 20.4614 481.579C20.4614 482.492 20.2835 483.295 19.9277 483.987C19.5719 484.675 19.0652 485.213 18.4078 485.6C17.7542 485.983 16.9768 486.174 16.0757 486.174ZM16.0873 484.26C16.4972 484.26 16.8395 484.144 17.1141 483.912C17.3887 483.676 17.5956 483.355 17.7348 482.949C17.8779 482.542 17.9495 482.08 17.9495 481.562C17.9495 481.044 17.8779 480.582 17.7348 480.176C17.5956 479.769 17.3887 479.448 17.1141 479.213C16.8395 478.977 16.4972 478.859 16.0873 478.859C15.6735 478.859 15.3254 478.977 15.043 479.213C14.7646 479.448 14.5538 479.769 14.4107 480.176C14.2715 480.582 14.2019 481.044 14.2019 481.562C14.2019 482.08 14.2715 482.542 14.4107 482.949C14.5538 483.355 14.7646 483.676 15.043 483.912C15.3254 484.144 15.6735 484.26 16.0873 484.26ZM24.1279 483.436L24.1337 480.471H24.4934L27.3476 477.089H30.1844L26.3498 481.568H25.7639L24.1279 483.436ZM21.8887 486V474.119H24.36V486H21.8887ZM27.4579 486L24.8357 482.119L26.4833 480.373L30.3527 486H27.4579ZM33.7582 486.168C33.1896 486.168 32.683 486.07 32.2382 485.872C31.7935 485.671 31.4415 485.375 31.1824 484.985C30.9271 484.59 30.7995 484.099 30.7995 483.511C30.7995 483.016 30.8904 482.6 31.0722 482.264C31.254 481.928 31.5015 481.657 31.8147 481.452C32.128 481.247 32.4838 481.092 32.8822 480.988C33.2844 480.883 33.7059 480.81 34.1468 480.767C34.6651 480.713 35.0828 480.663 35.3999 480.616C35.717 480.566 35.9472 480.493 36.0903 480.396C36.2334 480.299 36.3049 480.156 36.3049 479.967V479.932C36.3049 479.564 36.1889 479.28 35.9568 479.079C35.7287 478.878 35.4038 478.777 34.9822 478.777C34.5375 478.777 34.1836 478.876 33.9206 479.073C33.6576 479.267 33.4836 479.51 33.3985 479.804L31.1128 479.619C31.2288 479.077 31.457 478.609 31.7973 478.215C32.1377 477.816 32.5766 477.511 33.1142 477.298C33.6557 477.082 34.2822 476.973 34.9938 476.973C35.4889 476.973 35.9626 477.031 36.4151 477.147C36.8715 477.263 37.2757 477.443 37.6276 477.687C37.9834 477.93 38.2638 478.244 38.4688 478.627C38.6738 479.006 38.7762 479.46 38.7762 479.99V486H36.4325V484.764H36.3629C36.2198 485.043 36.0284 485.288 35.7886 485.501C35.5488 485.71 35.2607 485.874 34.9242 485.994C34.5877 486.11 34.1991 486.168 33.7582 486.168ZM34.4659 484.463C34.8295 484.463 35.1505 484.391 35.4289 484.248C35.7074 484.101 35.9259 483.904 36.0845 483.656C36.243 483.409 36.3223 483.128 36.3223 482.815V481.87C36.245 481.92 36.1386 481.966 36.0032 482.009C35.8717 482.047 35.7228 482.084 35.5565 482.119C35.3902 482.15 35.2239 482.179 35.0576 482.206C34.8913 482.229 34.7405 482.25 34.6051 482.27C34.3151 482.312 34.0618 482.38 33.8452 482.473C33.6286 482.566 33.4604 482.691 33.3405 482.85C33.2206 483.005 33.1606 483.198 33.1606 483.43C33.1606 483.767 33.2825 484.024 33.5261 484.202C33.7736 484.376 34.0869 484.463 34.4659 484.463ZM47.9279 479.63L45.6654 479.769C45.6267 479.576 45.5435 479.402 45.4159 479.247C45.2883 479.089 45.12 478.963 44.9112 478.87C44.7062 478.774 44.4606 478.725 44.1744 478.725C43.7916 478.725 43.4686 478.806 43.2056 478.969C42.9426 479.127 42.8111 479.34 42.8111 479.607C42.8111 479.82 42.8962 480 43.0664 480.147C43.2366 480.294 43.5286 480.411 43.9424 480.5L45.5551 480.825C46.4215 481.003 47.0673 481.289 47.4928 481.684C47.9182 482.078 48.1309 482.597 48.1309 483.239C48.1309 483.823 47.9588 484.335 47.6146 484.776C47.2742 485.217 46.8063 485.561 46.2107 485.809C45.619 486.052 44.9363 486.174 44.1628 486.174C42.9833 486.174 42.0434 485.928 41.3434 485.437C40.6473 484.942 40.2393 484.269 40.1194 483.418L42.5501 483.291C42.6236 483.65 42.8015 483.925 43.0838 484.115C43.3661 484.3 43.7277 484.393 44.1686 484.393C44.6018 484.393 44.9499 484.31 45.2129 484.144C45.4797 483.973 45.6151 483.755 45.619 483.488C45.6151 483.264 45.5203 483.08 45.3347 482.937C45.1491 482.79 44.8629 482.678 44.4761 482.6L42.933 482.293C42.0628 482.119 41.415 481.817 40.9896 481.388C40.568 480.959 40.3572 480.411 40.3572 479.746C40.3572 479.174 40.5119 478.681 40.8213 478.267C41.1346 477.853 41.5735 477.534 42.1382 477.31C42.7067 477.085 43.3719 476.973 44.1338 476.973C45.2593 476.973 46.1449 477.211 46.7908 477.687C47.4405 478.163 47.8196 478.81 47.9279 479.63ZM49.5074 486V477.089H51.9787V486H49.5074ZM50.7488 475.941C50.3814 475.941 50.0662 475.819 49.8032 475.575C49.5441 475.328 49.4146 475.032 49.4146 474.688C49.4146 474.347 49.5441 474.055 49.8032 473.812C50.0662 473.564 50.3814 473.44 50.7488 473.44C51.1163 473.44 51.4295 473.564 51.6887 473.812C51.9516 474.055 52.0831 474.347 52.0831 474.688C52.0831 475.032 51.9516 475.328 51.6887 475.575C51.4295 475.819 51.1163 475.941 50.7488 475.941Z" fill="black"/>
<path d="M78.9579 486.242C74.9544 486.242 71.6973 482.985 71.6973 478.982C71.6973 474.978 74.9544 471.721 78.9579 471.721C82.9613 471.721 86.2184 474.978 86.2184 478.982C86.2184 482.985 82.9613 486.242 78.9579 486.242ZM78.9579 475.351L75.3276 478.982H78.2318V482.612H79.6839V478.982H82.5881L78.9579 475.351Z" fill="#494949"/>
<circle cx="117.249" cy="539.983" r="8.62195" fill="white" stroke="black" stroke-width="2.72272"/>
<path d="M106.555 561.224C106.509 560.756 106.31 560.393 105.958 560.134C105.606 559.875 105.128 559.745 104.525 559.745C104.115 559.745 103.769 559.803 103.487 559.919C103.204 560.031 102.988 560.188 102.837 560.389C102.69 560.59 102.616 560.818 102.616 561.074C102.609 561.286 102.653 561.472 102.75 561.631C102.85 561.789 102.988 561.926 103.162 562.042C103.336 562.155 103.537 562.253 103.765 562.338C103.993 562.42 104.237 562.489 104.496 562.547L105.563 562.802C106.082 562.918 106.557 563.073 106.991 563.266C107.424 563.46 107.799 563.698 108.116 563.98C108.433 564.262 108.679 564.595 108.853 564.978C109.031 565.361 109.122 565.8 109.125 566.295C109.122 567.022 108.936 567.652 108.568 568.186C108.205 568.716 107.679 569.128 106.991 569.422C106.306 569.712 105.48 569.857 104.513 569.857C103.554 569.857 102.719 569.71 102.007 569.416C101.299 569.122 100.746 568.687 100.348 568.111C99.9536 567.53 99.7467 566.813 99.7274 565.958H102.158C102.185 566.357 102.299 566.689 102.5 566.956C102.705 567.219 102.978 567.418 103.318 567.554C103.663 567.685 104.051 567.751 104.484 567.751C104.91 567.751 105.279 567.689 105.592 567.565C105.91 567.441 106.155 567.269 106.329 567.049C106.503 566.828 106.59 566.575 106.59 566.289C106.59 566.022 106.511 565.798 106.352 565.616C106.198 565.434 105.97 565.28 105.668 565.152C105.37 565.024 105.005 564.908 104.571 564.804L103.278 564.479C102.276 564.235 101.485 563.854 100.905 563.336C100.325 562.818 100.037 562.12 100.041 561.242C100.037 560.523 100.228 559.894 100.615 559.356C101.006 558.819 101.541 558.399 102.222 558.098C102.903 557.796 103.676 557.645 104.542 557.645C105.424 557.645 106.194 557.796 106.851 558.098C107.513 558.399 108.027 558.819 108.394 559.356C108.762 559.894 108.951 560.517 108.963 561.224H106.555ZM121.553 563.748C121.553 565.044 121.308 566.146 120.816 567.055C120.329 567.964 119.664 568.658 118.821 569.137C117.982 569.613 117.038 569.851 115.99 569.851C114.934 569.851 113.986 569.611 113.147 569.132C112.308 568.652 111.645 567.958 111.157 567.049C110.67 566.14 110.426 565.04 110.426 563.748C110.426 562.452 110.67 561.35 111.157 560.441C111.645 559.532 112.308 558.84 113.147 558.364C113.986 557.885 114.934 557.645 115.99 557.645C117.038 557.645 117.982 557.885 118.821 558.364C119.664 558.84 120.329 559.532 120.816 560.441C121.308 561.35 121.553 562.452 121.553 563.748ZM119.006 563.748C119.006 562.909 118.881 562.201 118.629 561.625C118.382 561.048 118.032 560.611 117.579 560.314C117.127 560.016 116.597 559.867 115.99 559.867C115.383 559.867 114.853 560.016 114.4 560.314C113.948 560.611 113.596 561.048 113.344 561.625C113.097 562.201 112.973 562.909 112.973 563.748C112.973 564.587 113.097 565.295 113.344 565.871C113.596 566.448 113.948 566.885 114.4 567.182C114.853 567.48 115.383 567.629 115.99 567.629C116.597 567.629 117.127 567.48 117.579 567.182C118.032 566.885 118.382 566.448 118.629 565.871C118.881 565.295 119.006 564.587 119.006 563.748ZM123.234 569.688V557.808H127.922C128.819 557.808 129.585 557.968 130.219 558.289C130.857 558.606 131.343 559.057 131.675 559.641C132.012 560.221 132.18 560.903 132.18 561.689C132.18 562.478 132.01 563.156 131.669 563.725C131.329 564.289 130.836 564.723 130.19 565.024C129.548 565.326 128.771 565.477 127.858 565.477H124.719V563.458H127.452C127.931 563.458 128.33 563.392 128.647 563.261C128.964 563.129 129.2 562.932 129.355 562.669C129.513 562.406 129.592 562.079 129.592 561.689C129.592 561.294 129.513 560.961 129.355 560.691C129.2 560.42 128.962 560.215 128.641 560.076C128.324 559.933 127.924 559.861 127.44 559.861H125.746V569.688H123.234ZM129.65 564.282L132.603 569.688H129.83L126.941 564.282H129.65Z" fill="black"/>
<path d="M124.514 539.983C124.514 543.986 121.257 547.243 117.253 547.243C113.25 547.243 109.992 543.986 109.992 539.983C109.992 535.979 113.25 532.722 117.253 532.722C121.257 532.722 124.514 535.979 124.514 539.983ZM113.623 539.983L117.253 543.613L117.253 540.709L120.883 540.709L120.883 539.257L117.253 539.257L117.253 536.352L113.623 539.983Z" fill="#494949"/>
<path d="M178.138 572V560.119H186.004V562.19H180.65V565.021H185.482V567.092H180.65V572H178.138ZM187.514 560.119H190.612L193.884 568.102H194.023L197.295 560.119H200.393V572H197.956V564.267H197.858L194.783 571.942H193.124L190.049 564.238H189.951V572H187.514V560.119ZM204.795 560.119V572H202.283V560.119H204.795ZM206.682 572V560.119H211.369C212.27 560.119 213.038 560.291 213.672 560.635C214.307 560.976 214.79 561.449 215.123 562.057C215.459 562.66 215.627 563.356 215.627 564.145C215.627 564.934 215.457 565.63 215.117 566.234C214.776 566.837 214.283 567.307 213.637 567.643C212.995 567.98 212.218 568.148 211.305 568.148H208.318V566.135H210.899C211.383 566.135 211.781 566.052 212.094 565.885C212.411 565.715 212.647 565.481 212.802 565.184C212.961 564.882 213.04 564.536 213.04 564.145C213.04 563.751 212.961 563.406 212.802 563.112C212.647 562.815 212.411 562.585 212.094 562.422C211.777 562.256 211.375 562.173 210.888 562.173H209.194V572H206.682ZM217.755 572H215.063L219.165 560.119H222.402L226.498 572H223.806L220.83 562.834H220.737L217.755 572ZM217.587 567.33H223.945V569.291H217.587V567.33Z" fill="black"/>
<circle cx="201.983" cy="539.983" r="8.62195" fill="white" stroke="black" stroke-width="2.72272"/>
<path d="M209.248 539.984C209.248 543.987 205.991 547.244 201.987 547.244C197.984 547.244 194.727 543.987 194.727 539.984C194.727 535.98 197.984 532.723 201.987 532.723C205.991 532.723 209.248 535.98 209.248 539.984ZM198.357 539.984L201.987 543.614L201.987 540.71L205.618 540.71L205.618 539.257L201.987 539.257L201.987 536.353L198.357 539.984Z" fill="#494949"/>
<path d="M288.324 482V470.119H296.19V472.19H290.836V475.021H295.668V477.092H290.836V482H288.324ZM300.212 470.119V482H297.7V470.119H300.212ZM302.099 482V470.119H304.611V475.358H304.768L309.043 470.119H312.054L307.645 475.439L312.106 482H309.101L305.847 477.115L304.611 478.624V482H302.099Z" fill="black"/>
<circle cx="239.983" cy="476.8" r="8.62195" fill="white" stroke="black" stroke-width="2.72272"/>
<path d="M239.987 469.537C235.984 469.537 232.727 472.794 232.727 476.798C232.727 480.801 235.984 484.058 239.987 484.058C243.991 484.058 247.248 480.801 247.248 476.798C247.248 472.794 243.991 469.537 239.987 469.537ZM239.987 480.428L236.357 476.798L239.261 476.798L239.261 473.167L240.713 473.167L240.713 476.798L243.617 476.798L239.987 480.428Z" fill="#494949"/>
<path d="M282.764 420V408.119H290.631V410.19H285.276V413.021H290.108V415.092H285.276V420H282.764ZM292.14 420V408.119H294.652V413.358H294.809L299.085 408.119H302.095L297.686 413.439L302.148 420H299.143L295.888 415.115L294.652 416.624V420H292.14ZM303.224 408.119H306.322L309.594 416.102H309.733L313.005 408.119H316.103V420H313.666V412.267H313.568L310.493 419.942H308.834L305.759 412.238H305.66V420H303.224V408.119Z" fill="black"/>
<circle cx="239.983" cy="414.8" r="8.62195" fill="white" stroke="black" stroke-width="2.72272"/>
<path d="M239.987 407.538C235.984 407.538 232.727 410.795 232.727 414.799C232.727 418.802 235.984 422.059 239.987 422.059C243.991 422.059 247.248 418.802 247.248 414.799C247.248 410.795 243.991 407.538 239.987 407.538ZM239.987 418.429L236.357 414.799H239.261V411.168H240.713V414.799H243.617L239.987 418.429Z" fill="#494949"/>
<path d="M289.31 358V346.119H293.997C294.895 346.119 295.66 346.28 296.295 346.601C296.933 346.918 297.418 347.368 297.751 347.952C298.087 348.532 298.256 349.215 298.256 350C298.256 350.789 298.085 351.468 297.745 352.036C297.405 352.601 296.912 353.034 296.266 353.336C295.624 353.637 294.846 353.788 293.934 353.788H290.795V351.769H293.528C294.007 351.769 294.405 351.704 294.723 351.572C295.04 351.441 295.276 351.243 295.43 350.98C295.589 350.717 295.668 350.391 295.668 350C295.668 349.606 295.589 349.273 295.43 349.002C295.276 348.732 295.038 348.527 294.717 348.387C294.4 348.244 293.999 348.173 293.516 348.173H291.822V358H289.31ZM295.726 352.593L298.679 358H295.906L293.017 352.593H295.726ZM302.363 346.119V358H299.851V346.119H302.363ZM304.25 358V346.119H306.762V351.358H306.919L311.194 346.119H314.205L309.796 351.439L314.257 358H311.252L307.998 353.115L306.762 354.624V358H304.25Z" fill="black"/>
<circle cx="239.983" cy="352.798" r="8.62195" fill="white" stroke="black" stroke-width="2.72272"/>
<path d="M239.987 345.537C235.984 345.537 232.727 348.794 232.727 352.798C232.727 356.801 235.984 360.058 239.987 360.058C243.991 360.058 247.248 356.801 247.248 352.798C247.248 348.794 243.991 345.537 239.987 345.537ZM239.987 356.428L236.357 352.798H239.261V349.167H240.713V352.798H243.617L239.987 356.428Z" fill="#494949"/>
<path d="M285.214 279.855C285.177 279.483 285.019 279.194 284.739 278.987C284.459 278.781 284.078 278.678 283.598 278.678C283.272 278.678 282.997 278.724 282.772 278.817C282.547 278.906 282.375 279.031 282.255 279.191C282.138 279.351 282.08 279.532 282.08 279.735C282.073 279.905 282.109 280.052 282.186 280.179C282.266 280.305 282.375 280.414 282.513 280.506C282.652 280.596 282.812 280.674 282.994 280.742C283.175 280.806 283.369 280.862 283.575 280.908L284.425 281.111C284.837 281.203 285.216 281.326 285.56 281.48C285.905 281.634 286.204 281.824 286.456 282.048C286.708 282.273 286.904 282.538 287.042 282.842C287.184 283.147 287.256 283.496 287.259 283.89C287.256 284.469 287.108 284.97 286.816 285.395C286.527 285.817 286.108 286.145 285.56 286.378C285.016 286.609 284.359 286.725 283.589 286.725C282.826 286.725 282.161 286.608 281.595 286.374C281.032 286.14 280.591 285.794 280.274 285.335C279.961 284.873 279.796 284.303 279.781 283.622H281.715C281.736 283.939 281.827 284.204 281.987 284.416C282.15 284.626 282.367 284.784 282.638 284.892C282.912 284.997 283.221 285.049 283.566 285.049C283.905 285.049 284.198 285 284.448 284.901C284.7 284.803 284.896 284.666 285.034 284.49C285.173 284.315 285.242 284.113 285.242 283.886C285.242 283.673 285.179 283.495 285.053 283.35C284.929 283.205 284.748 283.082 284.508 282.981C284.271 282.879 283.98 282.787 283.635 282.704L282.606 282.445C281.809 282.251 281.179 281.948 280.718 281.536C280.256 281.123 280.027 280.568 280.03 279.869C280.027 279.297 280.179 278.797 280.487 278.369C280.798 277.941 281.224 277.607 281.766 277.367C282.307 277.127 282.923 277.007 283.612 277.007C284.314 277.007 284.926 277.127 285.45 277.367C285.976 277.607 286.385 277.941 286.678 278.369C286.97 278.797 287.121 279.292 287.13 279.855H285.214ZM292.195 279.5V280.977H287.925V279.5H292.195ZM288.895 277.801H290.861V284.412C290.861 284.593 290.889 284.735 290.944 284.837C291 284.935 291.077 285.004 291.175 285.044C291.277 285.084 291.394 285.104 291.526 285.104C291.618 285.104 291.711 285.097 291.803 285.081C291.895 285.063 291.966 285.049 292.015 285.04L292.325 286.503C292.226 286.534 292.088 286.569 291.909 286.609C291.731 286.652 291.514 286.679 291.258 286.688C290.784 286.706 290.369 286.643 290.012 286.498C289.658 286.354 289.383 286.129 289.186 285.824C288.989 285.52 288.892 285.135 288.895 284.67V277.801ZM295.356 286.725C294.903 286.725 294.5 286.646 294.146 286.489C293.792 286.329 293.512 286.094 293.306 285.783C293.103 285.469 293.001 285.078 293.001 284.61C293.001 284.216 293.074 283.886 293.218 283.618C293.363 283.35 293.56 283.135 293.809 282.972C294.058 282.808 294.341 282.685 294.658 282.602C294.979 282.519 295.314 282.461 295.665 282.427C296.077 282.384 296.41 282.344 296.662 282.307C296.914 282.267 297.098 282.208 297.211 282.131C297.325 282.054 297.382 281.94 297.382 281.79V281.762C297.382 281.47 297.29 281.243 297.105 281.083C296.924 280.923 296.665 280.843 296.33 280.843C295.976 280.843 295.694 280.922 295.485 281.079C295.276 281.233 295.137 281.427 295.069 281.66L293.25 281.513C293.343 281.082 293.524 280.709 293.795 280.396C294.066 280.079 294.415 279.835 294.843 279.666C295.274 279.494 295.773 279.408 296.339 279.408C296.733 279.408 297.11 279.454 297.47 279.546C297.833 279.638 298.155 279.782 298.435 279.975C298.718 280.169 298.941 280.419 299.104 280.723C299.267 281.025 299.349 281.387 299.349 281.808V286.591H297.484V285.608H297.428C297.315 285.829 297.162 286.025 296.971 286.194C296.781 286.36 296.551 286.491 296.283 286.586C296.016 286.679 295.706 286.725 295.356 286.725ZM295.919 285.367C296.208 285.367 296.464 285.311 296.685 285.197C296.907 285.08 297.081 284.923 297.207 284.726C297.333 284.529 297.396 284.306 297.396 284.056V283.304C297.335 283.344 297.25 283.381 297.142 283.415C297.038 283.445 296.919 283.475 296.787 283.502C296.654 283.527 296.522 283.55 296.39 283.572C296.257 283.59 296.137 283.607 296.03 283.622C295.799 283.656 295.597 283.71 295.425 283.784C295.252 283.858 295.119 283.958 295.023 284.084C294.928 284.207 294.88 284.361 294.88 284.546C294.88 284.813 294.977 285.018 295.171 285.16C295.368 285.298 295.617 285.367 295.919 285.367ZM306.631 281.522L304.831 281.633C304.8 281.479 304.734 281.34 304.633 281.217C304.531 281.091 304.397 280.991 304.231 280.917C304.068 280.84 303.872 280.802 303.645 280.802C303.34 280.802 303.083 280.866 302.874 280.996C302.664 281.122 302.56 281.291 302.56 281.503C302.56 281.673 302.627 281.816 302.763 281.933C302.898 282.05 303.131 282.144 303.46 282.214L304.743 282.473C305.433 282.614 305.947 282.842 306.285 283.156C306.624 283.47 306.793 283.882 306.793 284.393C306.793 284.858 306.656 285.266 306.382 285.617C306.111 285.968 305.739 286.242 305.265 286.438C304.794 286.632 304.251 286.729 303.635 286.729C302.697 286.729 301.949 286.534 301.392 286.143C300.838 285.749 300.513 285.214 300.418 284.536L302.352 284.435C302.41 284.721 302.552 284.94 302.777 285.09C303.001 285.238 303.289 285.312 303.64 285.312C303.985 285.312 304.262 285.246 304.471 285.114C304.683 284.978 304.791 284.804 304.794 284.592C304.791 284.413 304.716 284.267 304.568 284.153C304.42 284.036 304.192 283.947 303.885 283.886L302.657 283.641C301.964 283.502 301.449 283.262 301.11 282.921C300.775 282.579 300.607 282.144 300.607 281.614C300.607 281.159 300.73 280.766 300.976 280.437C301.226 280.108 301.575 279.854 302.024 279.675C302.477 279.497 303.006 279.408 303.612 279.408C304.508 279.408 305.213 279.597 305.727 279.975C306.244 280.354 306.545 280.869 306.631 281.522ZM307.888 286.591V279.5H309.855V286.591H307.888ZM308.876 278.586C308.584 278.586 308.333 278.489 308.124 278.295C307.918 278.098 307.815 277.863 307.815 277.589C307.815 277.318 307.918 277.085 308.124 276.892C308.333 276.695 308.584 276.596 308.876 276.596C309.169 276.596 309.418 276.695 309.624 276.892C309.833 277.085 309.938 277.318 309.938 277.589C309.938 277.863 309.833 278.098 309.624 278.295C309.418 278.489 309.169 278.586 308.876 278.586ZM315.835 283.572V279.5H317.801V286.591H315.913V285.303H315.839C315.679 285.718 315.413 286.052 315.041 286.305C314.671 286.557 314.22 286.683 313.688 286.683C313.214 286.683 312.797 286.575 312.437 286.36C312.077 286.145 311.795 285.838 311.592 285.441C311.392 285.044 311.29 284.569 311.287 284.015V279.5H313.254V283.664C313.257 284.083 313.369 284.413 313.591 284.657C313.813 284.9 314.11 285.021 314.482 285.021C314.719 285.021 314.941 284.967 315.147 284.86C315.353 284.749 315.519 284.586 315.645 284.37C315.775 284.155 315.838 283.889 315.835 283.572ZM321.198 282.491V286.591H319.231V279.5H321.106V280.751H321.189C321.346 280.339 321.609 280.012 321.978 279.772C322.347 279.529 322.795 279.408 323.321 279.408C323.814 279.408 324.243 279.515 324.609 279.731C324.976 279.946 325.26 280.254 325.464 280.654C325.667 281.051 325.768 281.525 325.768 282.076V286.591H323.802V282.427C323.805 281.993 323.694 281.654 323.469 281.411C323.245 281.165 322.935 281.042 322.541 281.042C322.277 281.042 322.043 281.099 321.84 281.213C321.64 281.326 321.483 281.493 321.369 281.711C321.258 281.927 321.201 282.187 321.198 282.491ZM264.375 304.591V295.136H268.105C268.822 295.136 269.433 295.273 269.938 295.547C270.443 295.818 270.827 296.195 271.092 296.678C271.36 297.158 271.494 297.712 271.494 298.34C271.494 298.968 271.358 299.522 271.087 300.002C270.817 300.482 270.424 300.856 269.91 301.124C269.399 301.392 268.781 301.525 268.054 301.525H265.677V299.924H267.731C268.116 299.924 268.433 299.857 268.682 299.725C268.935 299.59 269.122 299.403 269.245 299.166C269.372 298.926 269.435 298.651 269.435 298.34C269.435 298.026 269.372 297.752 269.245 297.518C269.122 297.281 268.935 297.098 268.682 296.969C268.43 296.837 268.11 296.771 267.722 296.771H266.374V304.591H264.375ZM275.702 304.729C274.985 304.729 274.365 304.577 273.841 304.272C273.321 303.965 272.92 303.537 272.636 302.989C272.353 302.438 272.212 301.799 272.212 301.073C272.212 300.341 272.353 299.7 272.636 299.153C272.92 298.602 273.321 298.174 273.841 297.869C274.365 297.561 274.985 297.408 275.702 297.408C276.419 297.408 277.037 297.561 277.558 297.869C278.081 298.174 278.484 298.602 278.767 299.153C279.05 299.7 279.192 300.341 279.192 301.073C279.192 301.799 279.05 302.438 278.767 302.989C278.484 303.537 278.081 303.965 277.558 304.272C277.037 304.577 276.419 304.729 275.702 304.729ZM275.711 303.206C276.037 303.206 276.31 303.114 276.528 302.929C276.747 302.741 276.911 302.486 277.022 302.163C277.136 301.839 277.193 301.472 277.193 301.059C277.193 300.647 277.136 300.279 277.022 299.956C276.911 299.633 276.747 299.377 276.528 299.19C276.31 299.002 276.037 298.908 275.711 298.908C275.382 298.908 275.105 299.002 274.88 299.19C274.658 299.377 274.491 299.633 274.377 299.956C274.266 300.279 274.211 300.647 274.211 301.059C274.211 301.472 274.266 301.839 274.377 302.163C274.491 302.486 274.658 302.741 274.88 302.929C275.105 303.114 275.382 303.206 275.711 303.206ZM282.294 300.491V304.591H280.328V297.5H282.202V298.751H282.285C282.442 298.339 282.705 298.012 283.074 297.772C283.444 297.529 283.891 297.408 284.418 297.408C284.91 297.408 285.34 297.515 285.706 297.731C286.072 297.946 286.357 298.254 286.56 298.654C286.763 299.051 286.865 299.525 286.865 300.076V304.591H284.898V300.427C284.901 299.993 284.79 299.654 284.565 299.411C284.341 299.165 284.032 299.042 283.638 299.042C283.373 299.042 283.139 299.099 282.936 299.213C282.736 299.326 282.579 299.493 282.465 299.711C282.354 299.927 282.297 300.187 282.294 300.491ZM290.884 304.706C290.346 304.706 289.858 304.568 289.421 304.291C288.987 304.011 288.642 303.6 288.387 303.058C288.135 302.513 288.008 301.846 288.008 301.055C288.008 300.242 288.139 299.567 288.401 299.028C288.662 298.486 289.01 298.082 289.444 297.814C289.881 297.543 290.36 297.408 290.88 297.408C291.277 297.408 291.608 297.475 291.872 297.611C292.14 297.743 292.356 297.909 292.519 298.109C292.685 298.306 292.811 298.5 292.897 298.691H292.957V295.136H294.919V304.591H292.98V303.455H292.897C292.805 303.652 292.674 303.848 292.505 304.041C292.339 304.232 292.122 304.391 291.854 304.517C291.589 304.643 291.266 304.706 290.884 304.706ZM291.508 303.141C291.825 303.141 292.092 303.055 292.311 302.883C292.532 302.707 292.702 302.463 292.819 302.149C292.939 301.835 292.999 301.467 292.999 301.045C292.999 300.624 292.94 300.257 292.823 299.947C292.706 299.636 292.537 299.396 292.316 299.226C292.094 299.057 291.825 298.973 291.508 298.973C291.184 298.973 290.912 299.06 290.691 299.236C290.469 299.411 290.301 299.654 290.187 299.965C290.073 300.276 290.017 300.636 290.017 301.045C290.017 301.458 290.073 301.822 290.187 302.139C290.304 302.453 290.472 302.7 290.691 302.878C290.912 303.054 291.184 303.141 291.508 303.141ZM299.597 304.729C298.88 304.729 298.26 304.577 297.737 304.272C297.216 303.965 296.815 303.537 296.532 302.989C296.248 302.438 296.107 301.799 296.107 301.073C296.107 300.341 296.248 299.7 296.532 299.153C296.815 298.602 297.216 298.174 297.737 297.869C298.26 297.561 298.88 297.408 299.597 297.408C300.314 297.408 300.933 297.561 301.453 297.869C301.976 298.174 302.379 298.602 302.662 299.153C302.945 299.7 303.087 300.341 303.087 301.073C303.087 301.799 302.945 302.438 302.662 302.989C302.379 303.537 301.976 303.965 301.453 304.272C300.933 304.577 300.314 304.729 299.597 304.729ZM299.606 303.206C299.932 303.206 300.205 303.114 300.423 302.929C300.642 302.741 300.806 302.486 300.917 302.163C301.031 301.839 301.088 301.472 301.088 301.059C301.088 300.647 301.031 300.279 300.917 299.956C300.806 299.633 300.642 299.377 300.423 299.19C300.205 299.002 299.932 298.908 299.606 298.908C299.277 298.908 299 299.002 298.775 299.19C298.554 299.377 298.386 299.633 298.272 299.956C298.161 300.279 298.106 300.647 298.106 301.059C298.106 301.472 298.161 301.839 298.272 302.163C298.386 302.486 298.554 302.741 298.775 302.929C299 303.114 299.277 303.206 299.606 303.206ZM306.005 302.55L306.009 300.191H306.296L308.567 297.5H310.824L307.773 301.064H307.307L306.005 302.55ZM304.223 304.591V295.136H306.189V304.591H304.223ZM308.655 304.591L306.568 301.502L307.879 300.113L310.958 304.591H308.655ZM322.891 298.446H320.869C320.832 298.185 320.757 297.952 320.643 297.749C320.529 297.543 320.383 297.368 320.204 297.223C320.026 297.078 319.819 296.967 319.585 296.891C319.355 296.814 319.104 296.775 318.833 296.775C318.344 296.775 317.917 296.897 317.554 297.14C317.191 297.38 316.909 297.731 316.709 298.192C316.509 298.651 316.409 299.208 316.409 299.864C316.409 300.538 316.509 301.104 316.709 301.562C316.913 302.021 317.196 302.367 317.559 302.601C317.922 302.835 318.342 302.952 318.819 302.952C319.087 302.952 319.335 302.917 319.562 302.846C319.793 302.775 319.998 302.672 320.176 302.536C320.355 302.398 320.503 302.23 320.62 302.033C320.74 301.836 320.823 301.612 320.869 301.359L322.891 301.369C322.839 301.802 322.708 302.221 322.498 302.624C322.292 303.024 322.014 303.383 321.663 303.7C321.315 304.014 320.9 304.263 320.416 304.448C319.936 304.629 319.393 304.72 318.787 304.72C317.944 304.72 317.19 304.529 316.525 304.148C315.863 303.766 315.34 303.214 314.955 302.49C314.574 301.767 314.383 300.891 314.383 299.864C314.383 298.833 314.577 297.955 314.964 297.232C315.352 296.509 315.878 295.958 316.543 295.579C317.208 295.198 317.956 295.007 318.787 295.007C319.335 295.007 319.842 295.084 320.31 295.238C320.781 295.392 321.198 295.616 321.561 295.912C321.925 296.204 322.22 296.563 322.448 296.987C322.679 297.412 322.826 297.898 322.891 298.446ZM324.144 304.591V297.5H326.111V304.591H324.144ZM325.132 296.586C324.84 296.586 324.589 296.489 324.38 296.295C324.174 296.098 324.071 295.863 324.071 295.589C324.071 295.318 324.174 295.085 324.38 294.892C324.589 294.695 324.84 294.596 325.132 294.596C325.425 294.596 325.674 294.695 325.88 294.892C326.089 295.085 326.194 295.318 326.194 295.589C326.194 295.863 326.089 296.098 325.88 296.295C325.674 296.489 325.425 296.586 325.132 296.586ZM329.51 300.491V304.591H327.543V297.5H329.418V298.751H329.501C329.658 298.339 329.921 298.012 330.29 297.772C330.659 297.529 331.107 297.408 331.634 297.408C332.126 297.408 332.555 297.515 332.922 297.731C333.288 297.946 333.572 298.254 333.776 298.654C333.979 299.051 334.08 299.525 334.08 300.076V304.591H332.114V300.427C332.117 299.993 332.006 299.654 331.781 299.411C331.557 299.165 331.247 299.042 330.853 299.042C330.589 299.042 330.355 299.099 330.152 299.213C329.952 299.326 329.795 299.493 329.681 299.711C329.57 299.927 329.513 300.187 329.51 300.491ZM337.509 304.725C337.057 304.725 336.654 304.646 336.3 304.489C335.946 304.329 335.666 304.094 335.46 303.783C335.256 303.469 335.155 303.078 335.155 302.61C335.155 302.216 335.227 301.886 335.372 301.618C335.517 301.35 335.713 301.135 335.963 300.972C336.212 300.808 336.495 300.685 336.812 300.602C337.132 300.519 337.468 300.461 337.819 300.427C338.231 300.384 338.563 300.344 338.816 300.307C339.068 300.267 339.251 300.208 339.365 300.131C339.479 300.054 339.536 299.94 339.536 299.79V299.762C339.536 299.47 339.444 299.243 339.259 299.083C339.077 298.923 338.819 298.843 338.483 298.843C338.129 298.843 337.848 298.922 337.639 299.079C337.429 299.233 337.291 299.427 337.223 299.66L335.404 299.513C335.497 299.082 335.678 298.709 335.949 298.396C336.22 298.079 336.569 297.835 336.997 297.666C337.428 297.494 337.926 297.408 338.493 297.408C338.887 297.408 339.264 297.454 339.624 297.546C339.987 297.638 340.308 297.782 340.588 297.975C340.872 298.169 341.095 298.419 341.258 298.723C341.421 299.025 341.503 299.387 341.503 299.808V304.591H339.637V303.608H339.582C339.468 303.829 339.316 304.025 339.125 304.194C338.934 304.36 338.705 304.491 338.437 304.586C338.169 304.679 337.86 304.725 337.509 304.725ZM338.073 303.367C338.362 303.367 338.617 303.311 338.839 303.197C339.06 303.08 339.234 302.923 339.361 302.726C339.487 302.529 339.55 302.306 339.55 302.056V301.304C339.488 301.344 339.404 301.381 339.296 301.415C339.191 301.445 339.073 301.475 338.94 301.502C338.808 301.527 338.676 301.55 338.543 301.572C338.411 301.59 338.291 301.607 338.183 301.622C337.952 301.656 337.751 301.71 337.579 301.784C337.406 301.858 337.272 301.958 337.177 302.084C337.082 302.207 337.034 302.361 337.034 302.546C337.034 302.813 337.131 303.018 337.325 303.16C337.522 303.298 337.771 303.367 338.073 303.367Z" fill="black"/>
<circle cx="239.983" cy="285.298" r="8.62195" fill="white" stroke="black" stroke-width="2.72272"/>
<path d="M239.987 278.036C235.984 278.036 232.727 281.293 232.727 285.297C232.727 289.3 235.984 292.557 239.987 292.557C243.991 292.557 247.248 289.3 247.248 285.297C247.248 281.293 243.991 278.036 239.987 278.036ZM239.987 288.927L236.357 285.297H239.261V281.666H240.713V285.297H243.617L239.987 288.927Z" fill="#494949"/>
<path d="M291.752 233V221.119H299.619V223.19H294.264V226.021H299.097V228.092H294.264V233H291.752ZM301.129 233V221.119H303.641V226.021H308.74V221.119H311.246V233H308.74V228.092H303.641V233H301.129Z" fill="black"/>
<circle cx="240.087" cy="225.983" r="8.62195" fill="white" stroke="black" stroke-width="2.72272"/>
<path d="M240.091 218.723C236.087 218.723 232.83 221.98 232.83 225.983C232.83 229.987 236.087 233.244 240.091 233.244C244.094 233.244 247.351 229.987 247.351 225.983C247.351 221.98 244.094 218.723 240.091 218.723ZM240.091 229.614L236.46 225.983H239.365V222.353H240.817V225.983H243.721L240.091 229.614Z" fill="#494949"/>
</svg>
