<svg width="334" height="566" viewBox="0 0 334 566" fill="none" xmlns="http://www.w3.org/2000/svg">
<path d="M140.437 151.151V139.517H148.14V141.545H142.896V144.318H147.628V146.346H142.896V151.151H140.437ZM151.952 151.316C151.395 151.316 150.899 151.22 150.463 151.026C150.028 150.829 149.683 150.54 149.429 150.157C149.179 149.771 149.054 149.29 149.054 148.714C149.054 148.23 149.143 147.823 149.321 147.493C149.499 147.164 149.742 146.898 150.048 146.698C150.355 146.497 150.704 146.346 151.094 146.243C151.488 146.141 151.9 146.069 152.332 146.027C152.84 145.974 153.249 145.925 153.559 145.88C153.87 145.831 154.095 145.759 154.235 145.664C154.375 145.569 154.445 145.429 154.445 145.244V145.209C154.445 144.85 154.332 144.571 154.104 144.374C153.881 144.177 153.563 144.079 153.15 144.079C152.715 144.079 152.368 144.176 152.111 144.369C151.853 144.558 151.683 144.797 151.599 145.084L149.361 144.903C149.475 144.373 149.698 143.914 150.031 143.528C150.365 143.138 150.795 142.839 151.321 142.63C151.851 142.418 152.465 142.312 153.161 142.312C153.646 142.312 154.11 142.369 154.553 142.483C155 142.596 155.396 142.772 155.74 143.011C156.089 143.25 156.363 143.556 156.564 143.931C156.765 144.302 156.865 144.747 156.865 145.266V151.151H154.57V149.941H154.502C154.362 150.214 154.175 150.455 153.94 150.663C153.705 150.867 153.423 151.028 153.093 151.146C152.764 151.259 152.383 151.316 151.952 151.316ZM152.645 149.646C153.001 149.646 153.315 149.576 153.588 149.436C153.86 149.292 154.074 149.099 154.229 148.856C154.385 148.614 154.462 148.339 154.462 148.033V147.107C154.387 147.156 154.282 147.201 154.15 147.243C154.021 147.281 153.875 147.317 153.712 147.351C153.55 147.381 153.387 147.41 153.224 147.436C153.061 147.459 152.913 147.48 152.781 147.499C152.497 147.54 152.249 147.607 152.037 147.698C151.825 147.788 151.66 147.912 151.542 148.067C151.425 148.218 151.366 148.408 151.366 148.635C151.366 148.964 151.486 149.216 151.724 149.39C151.967 149.561 152.273 149.646 152.645 149.646ZM160.759 148.641L160.765 145.738H161.117L163.912 142.426H166.69L162.935 146.811H162.361L160.759 148.641ZM158.567 151.151V139.517H160.987V151.151H158.567ZM164.02 151.151L161.452 147.351L163.066 145.641L166.855 151.151H164.02ZM169.116 151.299C168.741 151.299 168.419 151.167 168.15 150.901C167.885 150.633 167.752 150.311 167.752 149.936C167.752 149.565 167.885 149.246 168.15 148.981C168.419 148.716 168.741 148.584 169.116 148.584C169.479 148.584 169.797 148.716 170.07 148.981C170.343 149.246 170.479 149.565 170.479 149.936C170.479 150.186 170.415 150.415 170.286 150.623C170.161 150.828 169.996 150.992 169.792 151.117C169.587 151.238 169.362 151.299 169.116 151.299ZM121.623 173.151V161.517H126.213C127.095 161.517 127.847 161.686 128.468 162.023C129.089 162.356 129.563 162.82 129.888 163.415C130.218 164.006 130.382 164.687 130.382 165.46C130.382 166.232 130.216 166.914 129.883 167.505C129.549 168.096 129.066 168.556 128.434 168.885C127.805 169.215 127.044 169.379 126.15 169.379H123.225V167.408H125.753C126.226 167.408 126.616 167.327 126.923 167.164C127.234 166.997 127.465 166.768 127.616 166.477C127.771 166.181 127.849 165.842 127.849 165.46C127.849 165.074 127.771 164.737 127.616 164.449C127.465 164.157 127.234 163.932 126.923 163.773C126.612 163.61 126.219 163.528 125.741 163.528H124.083V173.151H121.623ZM139.019 166.914L136.803 167.05C136.765 166.861 136.684 166.691 136.559 166.539C136.434 166.384 136.269 166.261 136.065 166.17C135.864 166.075 135.623 166.028 135.343 166.028C134.968 166.028 134.652 166.107 134.395 166.266C134.137 166.422 134.008 166.63 134.008 166.891C134.008 167.1 134.092 167.276 134.258 167.42C134.425 167.564 134.711 167.679 135.116 167.766L136.695 168.084C137.544 168.258 138.176 168.539 138.593 168.925C139.009 169.311 139.217 169.819 139.217 170.447C139.217 171.019 139.049 171.521 138.712 171.953C138.379 172.384 137.92 172.722 137.337 172.964C136.758 173.202 136.089 173.322 135.332 173.322C134.177 173.322 133.257 173.081 132.571 172.6C131.889 172.116 131.49 171.457 131.372 170.624L133.753 170.499C133.825 170.851 133.999 171.12 134.275 171.305C134.552 171.487 134.906 171.578 135.338 171.578C135.762 171.578 136.103 171.496 136.36 171.334C136.621 171.167 136.754 170.953 136.758 170.692C136.754 170.472 136.661 170.292 136.479 170.152C136.298 170.008 136.017 169.898 135.639 169.823L134.128 169.521C133.275 169.351 132.641 169.056 132.225 168.635C131.812 168.215 131.605 167.679 131.605 167.028C131.605 166.467 131.757 165.984 132.06 165.579C132.367 165.174 132.796 164.861 133.349 164.642C133.906 164.422 134.557 164.312 135.303 164.312C136.405 164.312 137.273 164.545 137.905 165.011C138.541 165.477 138.913 166.111 139.019 166.914ZM140.565 173.151V164.426H142.985V173.151H140.565ZM141.781 163.301C141.421 163.301 141.112 163.182 140.855 162.943C140.601 162.701 140.474 162.411 140.474 162.074C140.474 161.741 140.601 161.455 140.855 161.216C141.112 160.974 141.421 160.853 141.781 160.853C142.141 160.853 142.447 160.974 142.701 161.216C142.959 161.455 143.087 161.741 143.087 162.074C143.087 162.411 142.959 162.701 142.701 162.943C142.447 163.182 142.141 163.301 141.781 163.301ZM146.94 170.641L146.946 167.738H147.298L150.093 164.426H152.871L149.116 168.811H148.542L146.94 170.641ZM144.748 173.151V161.517H147.168V173.151H144.748ZM150.201 173.151L147.633 169.351L149.247 167.641L153.036 173.151H150.201ZM157.465 173.322C156.583 173.322 155.82 173.134 155.176 172.759C154.536 172.381 154.042 171.854 153.693 171.18C153.345 170.502 153.171 169.716 153.171 168.823C153.171 167.921 153.345 167.134 153.693 166.46C154.042 165.782 154.536 165.255 155.176 164.88C155.82 164.502 156.583 164.312 157.465 164.312C158.348 164.312 159.109 164.502 159.749 164.88C160.393 165.255 160.889 165.782 161.237 166.46C161.586 167.134 161.76 167.921 161.76 168.823C161.76 169.716 161.586 170.502 161.237 171.18C160.889 171.854 160.393 172.381 159.749 172.759C159.109 173.134 158.348 173.322 157.465 173.322ZM157.477 171.447C157.878 171.447 158.213 171.334 158.482 171.106C158.751 170.875 158.954 170.561 159.09 170.163C159.23 169.766 159.3 169.313 159.3 168.806C159.3 168.298 159.23 167.846 159.09 167.448C158.954 167.05 158.751 166.736 158.482 166.505C158.213 166.274 157.878 166.159 157.477 166.159C157.071 166.159 156.731 166.274 156.454 166.505C156.181 166.736 155.975 167.05 155.835 167.448C155.699 167.846 155.63 168.298 155.63 168.806C155.63 169.313 155.699 169.766 155.835 170.163C155.975 170.561 156.181 170.875 156.454 171.106C156.731 171.334 157.071 171.447 157.477 171.447ZM165.577 161.517V173.151H163.157V161.517H165.577ZM171.282 173.322C170.4 173.322 169.637 173.134 168.993 172.759C168.353 172.381 167.859 171.854 167.51 171.18C167.162 170.502 166.988 169.716 166.988 168.823C166.988 167.921 167.162 167.134 167.51 166.46C167.859 165.782 168.353 165.255 168.993 164.88C169.637 164.502 170.4 164.312 171.282 164.312C172.165 164.312 172.926 164.502 173.566 164.88C174.21 165.255 174.706 165.782 175.054 166.46C175.403 167.134 175.577 167.921 175.577 168.823C175.577 169.716 175.403 170.502 175.054 171.18C174.706 171.854 174.21 172.381 173.566 172.759C172.926 173.134 172.165 173.322 171.282 173.322ZM171.294 171.447C171.695 171.447 172.03 171.334 172.299 171.106C172.568 170.875 172.771 170.561 172.907 170.163C173.047 169.766 173.117 169.313 173.117 168.806C173.117 168.298 173.047 167.846 172.907 167.448C172.771 167.05 172.568 166.736 172.299 166.505C172.03 166.274 171.695 166.159 171.294 166.159C170.888 166.159 170.548 166.274 170.271 166.505C169.998 166.736 169.792 167.05 169.652 167.448C169.516 167.846 169.447 168.298 169.447 168.806C169.447 169.313 169.516 169.766 169.652 170.163C169.792 170.561 169.998 170.875 170.271 171.106C170.548 171.334 170.888 171.447 171.294 171.447ZM180.905 176.605C180.121 176.605 179.449 176.497 178.889 176.281C178.332 176.069 177.889 175.78 177.559 175.412C177.23 175.045 177.016 174.632 176.918 174.174L179.156 173.873C179.224 174.047 179.332 174.21 179.479 174.361C179.627 174.513 179.822 174.634 180.065 174.725C180.311 174.82 180.61 174.867 180.962 174.867C181.488 174.867 181.922 174.738 182.263 174.481C182.608 174.227 182.78 173.801 182.78 173.202V171.606H182.678C182.572 171.849 182.413 172.078 182.2 172.294C181.988 172.509 181.716 172.686 181.382 172.822C181.049 172.958 180.652 173.026 180.19 173.026C179.534 173.026 178.938 172.875 178.4 172.572C177.866 172.265 177.44 171.797 177.122 171.169C176.808 170.536 176.651 169.737 176.651 168.772C176.651 167.783 176.811 166.958 177.133 166.295C177.455 165.632 177.883 165.136 178.417 164.807C178.955 164.477 179.544 164.312 180.184 164.312C180.672 164.312 181.081 164.396 181.411 164.562C181.74 164.725 182.005 164.93 182.206 165.176C182.411 165.418 182.568 165.657 182.678 165.892H182.769V164.426H185.171V173.237C185.171 173.979 184.99 174.6 184.626 175.1C184.263 175.6 183.759 175.975 183.115 176.225C182.475 176.478 181.738 176.605 180.905 176.605ZM180.956 171.209C181.346 171.209 181.676 171.112 181.945 170.919C182.218 170.722 182.426 170.442 182.57 170.078C182.717 169.711 182.791 169.272 182.791 168.76C182.791 168.249 182.719 167.806 182.575 167.431C182.431 167.052 182.223 166.759 181.951 166.551C181.678 166.342 181.346 166.238 180.956 166.238C180.559 166.238 180.224 166.346 179.951 166.562C179.678 166.774 179.472 167.069 179.332 167.448C179.192 167.827 179.122 168.264 179.122 168.76C179.122 169.264 179.192 169.699 179.332 170.067C179.476 170.43 179.682 170.712 179.951 170.913C180.224 171.11 180.559 171.209 180.956 171.209ZM186.921 173.151V164.426H189.341V173.151H186.921ZM188.137 163.301C187.777 163.301 187.468 163.182 187.211 162.943C186.957 162.701 186.83 162.411 186.83 162.074C186.83 161.741 186.957 161.455 187.211 161.216C187.468 160.974 187.777 160.853 188.137 160.853C188.497 160.853 188.803 160.974 189.057 161.216C189.315 161.455 189.443 161.741 189.443 162.074C189.443 162.411 189.315 162.701 189.057 162.943C188.803 163.182 188.497 163.301 188.137 163.301Z" fill="black"/>
<path d="M235.029 35.251L235.03 504.769C235.03 518.024 224.285 528.769 211.03 528.769H102.357C89.1026 528.769 78.3574 518.024 78.3574 504.769V215.923C78.3574 202.669 89.1026 191.923 102.357 191.923H211.03C224.285 191.923 235.03 181.178 235.03 167.923V97.92" stroke="#4382EE" stroke-width="14" stroke-miterlimit="0" stroke-linecap="round" stroke-linejoin="bevel"/>
<path d="M206.336 16H203.993L207.563 5.65878H210.38L213.945 16H211.602L209.012 8.02191H208.931L206.336 16ZM206.189 11.9352H211.723V13.6419H206.189V11.9352ZM221.266 10.4557L219.296 10.5769C219.263 10.4086 219.19 10.2571 219.079 10.1225C218.968 9.98446 218.822 9.87505 218.64 9.79426C218.461 9.7101 218.248 9.66802 217.999 9.66802C217.665 9.66802 217.384 9.73872 217.155 9.8801C216.926 10.0181 216.812 10.2033 216.812 10.4355C216.812 10.6207 216.886 10.7772 217.034 10.9051C217.182 11.0331 217.436 11.1357 217.797 11.2131L219.2 11.4959C219.954 11.6508 220.517 11.8999 220.887 12.2432C221.257 12.5866 221.442 13.0377 221.442 13.5965C221.442 14.1048 221.292 14.5508 220.993 14.9346C220.697 15.3183 220.289 15.6179 219.771 15.8334C219.256 16.0454 218.662 16.1515 217.988 16.1515C216.962 16.1515 216.144 15.9377 215.534 15.5102C214.929 15.0793 214.573 14.4936 214.469 13.753L216.585 13.6419C216.649 13.955 216.804 14.194 217.049 14.3589C217.295 14.5205 217.61 14.6013 217.994 14.6013C218.371 14.6013 218.674 14.5289 218.902 14.3842C219.135 14.2361 219.253 14.0459 219.256 13.8136C219.253 13.6184 219.17 13.4585 219.008 13.3339C218.847 13.206 218.598 13.1084 218.261 13.041L216.918 12.7734C216.161 12.6219 215.597 12.3594 215.226 11.9857C214.86 11.6121 214.676 11.1357 214.676 10.5567C214.676 10.0585 214.811 9.62931 215.08 9.26912C215.353 8.90893 215.735 8.63121 216.226 8.43597C216.721 8.24072 217.3 8.1431 217.963 8.1431C218.943 8.1431 219.714 8.35013 220.276 8.76418C220.841 9.17823 221.171 9.74208 221.266 10.4557ZM222.64 16V8.24409H224.726V9.59733H224.807C224.948 9.11595 225.185 8.7524 225.519 8.50666C225.852 8.25755 226.236 8.133 226.67 8.133C226.778 8.133 226.894 8.13973 227.018 8.1532C227.143 8.16666 227.252 8.18518 227.346 8.20874V10.1174C227.245 10.0871 227.106 10.0602 226.927 10.0366C226.749 10.0131 226.586 10.0013 226.438 10.0013C226.121 10.0013 225.838 10.0703 225.589 10.2083C225.343 10.343 225.148 10.5315 225.003 10.7738C224.862 11.0162 224.791 11.2956 224.791 11.6121V16H222.64ZM230.292 16.1464C229.797 16.1464 229.356 16.0606 228.969 15.8889C228.582 15.7139 228.275 15.4563 228.05 15.1164C227.828 14.773 227.716 14.3455 227.716 13.8338C227.716 13.4029 227.796 13.041 227.954 12.7482C228.112 12.4553 228.327 12.2197 228.6 12.0413C228.873 11.8628 229.182 11.7282 229.529 11.6373C229.879 11.5464 230.246 11.4825 230.63 11.4454C231.081 11.3983 231.445 11.3545 231.721 11.3141C231.997 11.2704 232.197 11.2064 232.321 11.1223C232.446 11.0381 232.508 10.9135 232.508 10.7486V10.7183C232.508 10.3985 232.407 10.1511 232.205 9.97604C232.007 9.80099 231.724 9.71347 231.357 9.71347C230.97 9.71347 230.662 9.79931 230.433 9.97099C230.204 10.1393 230.053 10.3514 229.979 10.6072L227.989 10.4456C228.09 9.97436 228.289 9.56704 228.585 9.22368C228.881 8.87695 229.263 8.61101 229.731 8.42587C230.202 8.23736 230.748 8.1431 231.367 8.1431C231.798 8.1431 232.21 8.19359 232.604 8.29458C233.001 8.39557 233.353 8.5521 233.66 8.76418C233.969 8.97625 234.213 9.24892 234.392 9.58218C234.57 9.91208 234.659 10.3076 234.659 10.7688V16H232.619V14.9245H232.559C232.434 15.1668 232.268 15.3806 232.059 15.5657C231.85 15.7475 231.599 15.8906 231.307 15.995C231.014 16.0959 230.675 16.1464 230.292 16.1464ZM230.908 14.6619C231.224 14.6619 231.503 14.5996 231.746 14.4751C231.988 14.3472 232.178 14.1755 232.316 13.96C232.454 13.7446 232.523 13.5005 232.523 13.2279V12.4048C232.456 12.4486 232.364 12.489 232.246 12.526C232.131 12.5597 232.002 12.5916 231.857 12.6219C231.712 12.6489 231.567 12.6741 231.423 12.6977C231.278 12.7179 231.147 12.7364 231.029 12.7532C230.776 12.7903 230.556 12.8492 230.367 12.93C230.179 13.0107 230.032 13.1201 229.928 13.2582C229.824 13.3928 229.772 13.5611 229.772 13.7631C229.772 14.056 229.878 14.2798 230.09 14.4347C230.305 14.5862 230.578 14.6619 230.908 14.6619ZM236.172 16V8.24409H238.222V9.61248H238.313C238.474 9.15803 238.744 8.79952 239.121 8.53695C239.498 8.27438 239.949 8.1431 240.474 8.1431C241.006 8.1431 241.459 8.27607 241.832 8.542C242.206 8.80457 242.455 9.1614 242.58 9.61248H242.66C242.819 9.16813 243.105 8.81299 243.519 8.54705C243.936 8.27775 244.429 8.1431 244.998 8.1431C245.722 8.1431 246.309 8.37369 246.76 8.83487C247.215 9.29268 247.442 9.94238 247.442 10.7839V16H245.296V11.2081C245.296 10.7772 245.182 10.4541 244.953 10.2386C244.724 10.0232 244.438 9.91545 244.094 9.91545C243.704 9.91545 243.399 10.04 243.18 10.2891C242.962 10.5348 242.852 10.8597 242.852 11.2636V16H240.767V11.1627C240.767 10.7823 240.657 10.4793 240.439 10.2538C240.223 10.0282 239.939 9.91545 239.585 9.91545C239.346 9.91545 239.131 9.97604 238.939 10.0972C238.75 10.215 238.601 10.3817 238.489 10.5971C238.378 10.8092 238.323 11.0583 238.323 11.3444V16H236.172ZM251.196 16.1464C250.702 16.1464 250.261 16.0606 249.874 15.8889C249.486 15.7139 249.18 15.4563 248.955 15.1164C248.732 14.773 248.621 14.3455 248.621 13.8338C248.621 13.4029 248.7 13.041 248.859 12.7482C249.017 12.4553 249.232 12.2197 249.505 12.0413C249.778 11.8628 250.087 11.7282 250.434 11.6373C250.784 11.5464 251.151 11.4825 251.535 11.4454C251.986 11.3983 252.349 11.3545 252.625 11.3141C252.901 11.2704 253.102 11.2064 253.226 11.1223C253.351 11.0381 253.413 10.9135 253.413 10.7486V10.7183C253.413 10.3985 253.312 10.1511 253.11 9.97604C252.912 9.80099 252.629 9.71347 252.262 9.71347C251.875 9.71347 251.567 9.79931 251.338 9.97099C251.109 10.1393 250.957 10.3514 250.883 10.6072L248.894 10.4456C248.995 9.97436 249.194 9.56704 249.49 9.22368C249.786 8.87695 250.168 8.61101 250.636 8.42587C251.107 8.23736 251.653 8.1431 252.272 8.1431C252.703 8.1431 253.115 8.19359 253.509 8.29458C253.906 8.39557 254.258 8.5521 254.564 8.76418C254.874 8.97625 255.118 9.24892 255.297 9.58218C255.475 9.91208 255.564 10.3076 255.564 10.7688V16H253.524V14.9245H253.464C253.339 15.1668 253.172 15.3806 252.964 15.5657C252.755 15.7475 252.504 15.8906 252.211 15.995C251.919 16.0959 251.58 16.1464 251.196 16.1464ZM251.813 14.6619C252.129 14.6619 252.408 14.5996 252.651 14.4751C252.893 14.3472 253.083 14.1755 253.221 13.96C253.359 13.7446 253.428 13.5005 253.428 13.2279V12.4048C253.361 12.4486 253.268 12.489 253.151 12.526C253.036 12.5597 252.907 12.5916 252.762 12.6219C252.617 12.6489 252.472 12.6741 252.328 12.6977C252.183 12.7179 252.052 12.7364 251.934 12.7532C251.681 12.7903 251.461 12.8492 251.272 12.93C251.084 13.0107 250.937 13.1201 250.833 13.2582C250.729 13.3928 250.676 13.5611 250.676 13.7631C250.676 14.056 250.782 14.2798 250.994 14.4347C251.21 14.5862 251.483 14.6619 251.813 14.6619ZM266.639 5.65878H268.826V12.3745C268.826 13.1286 268.645 13.7884 268.285 14.3539C267.928 14.9194 267.429 15.3604 266.786 15.6768C266.143 15.9899 265.394 16.1464 264.539 16.1464C263.68 16.1464 262.929 15.9899 262.287 15.6768C261.644 15.3604 261.144 14.9194 260.787 14.3539C260.43 13.7884 260.252 13.1286 260.252 12.3745V5.65878H262.438V12.1877C262.438 12.5815 262.524 12.9316 262.696 13.238C262.871 13.5443 263.116 13.785 263.433 13.96C263.749 14.1351 264.118 14.2226 264.539 14.2226C264.963 14.2226 265.331 14.1351 265.644 13.96C265.961 13.785 266.205 13.5443 266.377 13.238C266.552 12.9316 266.639 12.5815 266.639 12.1877V5.65878ZM272.654 5.65878V16H270.468V5.65878H272.654Z" fill="black"/>
<path d="M259.415 128.175C259.37 127.717 259.175 127.361 258.83 127.107C258.485 126.853 258.018 126.726 257.427 126.726C257.025 126.726 256.687 126.783 256.41 126.897C256.134 127.007 255.922 127.16 255.774 127.357C255.63 127.554 255.558 127.777 255.558 128.027C255.55 128.235 255.594 128.417 255.689 128.573C255.787 128.728 255.922 128.862 256.092 128.976C256.262 129.086 256.459 129.182 256.683 129.266C256.906 129.345 257.145 129.413 257.399 129.47L258.444 129.72C258.951 129.834 259.417 129.985 259.841 130.174C260.265 130.364 260.633 130.597 260.943 130.873C261.254 131.15 261.494 131.475 261.665 131.85C261.839 132.225 261.928 132.655 261.932 133.14C261.928 133.852 261.746 134.469 261.386 134.992C261.03 135.51 260.515 135.914 259.841 136.202C259.171 136.486 258.362 136.628 257.416 136.628C256.476 136.628 255.658 136.484 254.962 136.196C254.269 135.908 253.727 135.482 253.337 134.918C252.951 134.35 252.748 133.647 252.729 132.81H255.109C255.136 133.2 255.247 133.526 255.444 133.787C255.645 134.045 255.912 134.24 256.245 134.372C256.582 134.501 256.963 134.566 257.387 134.566C257.804 134.566 258.165 134.505 258.472 134.384C258.783 134.263 259.023 134.094 259.194 133.878C259.364 133.662 259.449 133.414 259.449 133.134C259.449 132.873 259.372 132.653 259.216 132.475C259.065 132.297 258.841 132.146 258.546 132.021C258.254 131.896 257.897 131.782 257.472 131.68L256.206 131.362C255.225 131.123 254.45 130.75 253.882 130.243C253.314 129.735 253.032 129.052 253.036 128.192C253.032 127.488 253.219 126.872 253.598 126.346C253.981 125.819 254.505 125.408 255.172 125.113C255.838 124.818 256.596 124.67 257.444 124.67C258.307 124.67 259.061 124.818 259.705 125.113C260.352 125.408 260.856 125.819 261.216 126.346C261.576 126.872 261.761 127.482 261.773 128.175H259.415ZM268.006 127.737V129.555H262.751V127.737H268.006ZM263.944 125.647H266.364V133.782C266.364 134.005 266.398 134.179 266.466 134.304C266.534 134.425 266.629 134.511 266.75 134.56C266.875 134.609 267.019 134.634 267.182 134.634C267.296 134.634 267.409 134.624 267.523 134.605C267.637 134.583 267.724 134.566 267.784 134.554L268.165 136.355C268.044 136.393 267.873 136.436 267.654 136.486C267.434 136.539 267.167 136.571 266.853 136.582C266.269 136.605 265.758 136.527 265.319 136.349C264.883 136.171 264.544 135.895 264.302 135.52C264.06 135.145 263.94 134.672 263.944 134.1V125.647ZM271.894 136.628C271.338 136.628 270.841 136.531 270.406 136.338C269.97 136.141 269.626 135.851 269.372 135.469C269.122 135.083 268.997 134.602 268.997 134.026C268.997 133.541 269.086 133.134 269.264 132.805C269.442 132.475 269.685 132.21 269.991 132.009C270.298 131.809 270.646 131.657 271.036 131.555C271.43 131.453 271.843 131.381 272.275 131.339C272.782 131.286 273.191 131.237 273.502 131.191C273.812 131.142 274.038 131.07 274.178 130.975C274.318 130.881 274.388 130.741 274.388 130.555V130.521C274.388 130.161 274.274 129.883 274.047 129.686C273.824 129.489 273.506 129.391 273.093 129.391C272.657 129.391 272.311 129.487 272.053 129.68C271.796 129.87 271.625 130.108 271.542 130.396L269.304 130.214C269.418 129.684 269.641 129.226 269.974 128.84C270.307 128.449 270.737 128.15 271.264 127.942C271.794 127.73 272.407 127.624 273.104 127.624C273.589 127.624 274.053 127.681 274.496 127.794C274.943 127.908 275.339 128.084 275.683 128.323C276.032 128.561 276.306 128.868 276.507 129.243C276.708 129.614 276.808 130.059 276.808 130.578V136.463H274.513V135.253H274.445C274.305 135.526 274.117 135.766 273.882 135.974C273.648 136.179 273.366 136.34 273.036 136.457C272.707 136.571 272.326 136.628 271.894 136.628ZM272.587 134.958C272.943 134.958 273.258 134.887 273.53 134.747C273.803 134.603 274.017 134.41 274.172 134.168C274.327 133.926 274.405 133.651 274.405 133.344V132.418C274.329 132.468 274.225 132.513 274.093 132.555C273.964 132.593 273.818 132.628 273.655 132.663C273.492 132.693 273.33 132.721 273.167 132.748C273.004 132.771 272.856 132.791 272.724 132.81C272.44 132.852 272.192 132.918 271.979 133.009C271.767 133.1 271.603 133.223 271.485 133.378C271.368 133.53 271.309 133.719 271.309 133.946C271.309 134.276 271.428 134.528 271.667 134.702C271.909 134.872 272.216 134.958 272.587 134.958ZM285.769 130.226L283.554 130.362C283.516 130.173 283.435 130.002 283.31 129.851C283.185 129.695 283.02 129.572 282.815 129.481C282.615 129.387 282.374 129.339 282.094 129.339C281.719 129.339 281.403 129.419 281.145 129.578C280.888 129.733 280.759 129.942 280.759 130.203C280.759 130.411 280.842 130.587 281.009 130.731C281.176 130.875 281.461 130.991 281.867 131.078L283.446 131.396C284.294 131.57 284.927 131.85 285.343 132.237C285.76 132.623 285.968 133.13 285.968 133.759C285.968 134.331 285.8 134.833 285.463 135.264C285.129 135.696 284.671 136.033 284.088 136.275C283.508 136.514 282.84 136.633 282.083 136.633C280.927 136.633 280.007 136.393 279.322 135.912C278.64 135.427 278.241 134.768 278.123 133.935L280.503 133.81C280.575 134.162 280.75 134.431 281.026 134.617C281.302 134.798 281.657 134.889 282.088 134.889C282.512 134.889 282.853 134.808 283.111 134.645C283.372 134.478 283.505 134.264 283.508 134.003C283.505 133.784 283.412 133.604 283.23 133.464C283.048 133.32 282.768 133.21 282.389 133.134L280.878 132.833C280.026 132.663 279.392 132.367 278.975 131.947C278.562 131.526 278.356 130.991 278.356 130.339C278.356 129.779 278.508 129.296 278.811 128.891C279.117 128.485 279.547 128.173 280.1 127.953C280.657 127.734 281.308 127.624 282.054 127.624C283.156 127.624 284.023 127.857 284.656 128.323C285.292 128.788 285.663 129.423 285.769 130.226ZM287.316 136.463V127.737H289.736V136.463H287.316ZM288.532 126.613C288.172 126.613 287.863 126.493 287.606 126.255C287.352 126.012 287.225 125.723 287.225 125.386C287.225 125.052 287.352 124.767 287.606 124.528C287.863 124.286 288.172 124.164 288.532 124.164C288.891 124.164 289.198 124.286 289.452 124.528C289.709 124.767 289.838 125.052 289.838 125.386C289.838 125.723 289.709 126.012 289.452 126.255C289.198 126.493 288.891 126.613 288.532 126.613ZM297.094 132.748V127.737H299.514V136.463H297.19V134.878H297.099C296.903 135.389 296.575 135.8 296.117 136.111C295.662 136.421 295.107 136.577 294.452 136.577C293.869 136.577 293.356 136.444 292.913 136.179C292.47 135.914 292.123 135.537 291.873 135.048C291.627 134.56 291.502 133.975 291.498 133.293V127.737H293.918V132.861C293.922 133.376 294.06 133.784 294.333 134.083C294.606 134.382 294.971 134.531 295.429 134.531C295.721 134.531 295.994 134.465 296.247 134.333C296.501 134.196 296.706 133.996 296.861 133.731C297.02 133.465 297.098 133.138 297.094 132.748ZM303.693 131.419V136.463H301.273V127.737H303.58V129.277H303.682C303.875 128.769 304.199 128.368 304.653 128.073C305.108 127.773 305.659 127.624 306.306 127.624C306.912 127.624 307.441 127.756 307.891 128.022C308.342 128.287 308.692 128.665 308.942 129.158C309.192 129.646 309.317 130.229 309.317 130.907V136.463H306.897V131.339C306.901 130.805 306.765 130.388 306.488 130.089C306.212 129.786 305.831 129.635 305.346 129.635C305.021 129.635 304.733 129.705 304.483 129.845C304.237 129.985 304.044 130.19 303.904 130.458C303.767 130.724 303.697 131.044 303.693 131.419ZM281.384 146.829H283.844V154.384C283.844 155.233 283.642 155.975 283.236 156.611C282.835 157.247 282.273 157.743 281.549 158.099C280.826 158.452 279.983 158.628 279.021 158.628C278.056 158.628 277.211 158.452 276.488 158.099C275.764 157.743 275.202 157.247 274.801 156.611C274.399 155.975 274.199 155.233 274.199 154.384V146.829H276.658V154.174C276.658 154.617 276.755 155.011 276.948 155.356C277.145 155.7 277.421 155.971 277.777 156.168C278.133 156.365 278.548 156.463 279.021 156.463C279.499 156.463 279.913 156.365 280.265 156.168C280.621 155.971 280.896 155.7 281.089 155.356C281.286 155.011 281.384 154.617 281.384 154.174V146.829ZM288.152 146.829V158.463H285.692V146.829H288.152Z" fill="black"/>
<rect x="219.202" y="24.834" width="31.9931" height="14.2192" rx="7.10959" fill="white" stroke="black" stroke-width="2.66609"/>
<path d="M241.347 32.1285L240.09 30.8719L236.275 34.687V26.168H234.498V34.687L230.682 30.8719L229.426 32.1285L235.386 38.089L241.347 32.1285Z" fill="#494949"/>
<circle cx="235.643" cy="141.681" r="8.44263" fill="white" stroke="black" stroke-width="2.66609"/>
<path d="M235.647 134.571C231.726 134.571 228.537 137.761 228.537 141.681C228.537 145.601 231.726 148.79 235.647 148.79C239.567 148.79 242.756 145.601 242.756 141.681C242.756 137.761 239.567 134.571 235.647 134.571ZM235.647 145.236L232.092 141.681H234.936V138.126H236.358V141.681H239.201L235.647 145.236Z" fill="#494949"/>
<circle cx="235.645" cy="78.0462" r="8.44263" fill="white" stroke="black" stroke-width="2.66609"/>
<path d="M253.665 71.9726H256.699L259.903 79.7891H260.039L263.243 71.9726H266.276V83.6064H263.891V76.0342H263.794L260.783 83.5496H259.159L256.148 76.0058H256.051V83.6064H253.665V71.9726ZM272.058 83.7769C271.16 83.7769 270.388 83.5951 269.74 83.2315C269.096 82.8642 268.6 82.3454 268.252 81.675C267.904 81.0009 267.729 80.2038 267.729 79.2835C267.729 78.386 267.904 77.5983 268.252 76.9204C268.6 76.2425 269.091 75.7142 269.723 75.3355C270.359 74.9568 271.105 74.7674 271.961 74.7674C272.537 74.7674 273.073 74.8602 273.569 75.0458C274.069 75.2276 274.504 75.5021 274.876 75.8695C275.25 76.2368 275.542 76.6988 275.75 77.2555C275.959 77.8084 276.063 78.456 276.063 79.1983V79.8629H268.695V78.3633H273.785C273.785 78.0148 273.709 77.7062 273.558 77.4373C273.406 77.1684 273.196 76.9582 272.927 76.8068C272.662 76.6515 272.353 76.5739 272.001 76.5739C271.634 76.5739 271.308 76.6591 271.024 76.8295C270.744 76.9961 270.524 77.2215 270.365 77.5055C270.206 77.7857 270.125 78.0982 270.121 78.4428V79.8686C270.121 80.3003 270.2 80.6734 270.359 80.9877C270.522 81.302 270.751 81.5444 271.047 81.7148C271.342 81.8852 271.692 81.9704 272.098 81.9704C272.367 81.9704 272.613 81.9326 272.836 81.8568C273.06 81.7811 273.251 81.6675 273.41 81.516C273.569 81.3645 273.69 81.1789 273.773 80.9593L276.012 81.107C275.898 81.6447 275.665 82.1143 275.313 82.5158C274.965 82.9134 274.514 83.224 273.961 83.4474C273.412 83.667 272.777 83.7769 272.058 83.7769ZM279.886 78.5621V83.6064H277.466V74.881H279.772V76.4205H279.875C280.068 75.913 280.392 75.5116 280.846 75.2162C281.3 74.917 281.851 74.7674 282.499 74.7674C283.105 74.7674 283.633 74.9 284.084 75.1651C284.535 75.4302 284.885 75.8089 285.135 76.3012C285.385 76.7897 285.51 77.3729 285.51 78.0508V83.6064H283.09V78.4825C283.094 77.9486 282.957 77.532 282.681 77.2328C282.404 76.9298 282.024 76.7784 281.539 76.7784C281.213 76.7784 280.925 76.8484 280.676 76.9885C280.429 77.1287 280.236 77.3332 280.096 77.6021C279.96 77.8671 279.89 78.1872 279.886 78.5621ZM288.962 83.6064L286.588 74.881H289.036L290.388 80.7434H290.468L291.876 74.881H294.279L295.711 80.7093H295.785L297.114 74.881H299.557L297.188 83.6064H294.626L293.126 78.119H293.018L291.519 83.6064H288.962ZM303.16 83.7712C302.603 83.7712 302.107 83.6746 301.671 83.4815C301.236 83.2845 300.891 82.9948 300.637 82.6123C300.388 82.2261 300.263 81.7451 300.263 81.1695C300.263 80.6847 300.352 80.2776 300.53 79.9481C300.708 79.6187 300.95 79.3536 301.257 79.1529C301.563 78.9521 301.912 78.8007 302.302 78.6984C302.696 78.5962 303.109 78.5242 303.54 78.4825C304.048 78.4295 304.457 78.3803 304.767 78.3348C305.078 78.2856 305.303 78.2137 305.443 78.119C305.583 78.0243 305.653 77.8842 305.653 77.6986V77.6645C305.653 77.3048 305.54 77.0264 305.313 76.8295C305.089 76.6326 304.771 76.5341 304.358 76.5341C303.923 76.5341 303.576 76.6307 303.319 76.8238C303.061 77.0132 302.891 77.2517 302.807 77.5396L300.569 77.3578C300.683 76.8276 300.906 76.3694 301.24 75.9831C301.573 75.593 302.003 75.2938 302.529 75.0855C303.059 74.8735 303.673 74.7674 304.37 74.7674C304.854 74.7674 305.318 74.8242 305.761 74.9378C306.208 75.0515 306.604 75.2276 306.949 75.4661C307.297 75.7047 307.572 76.0115 307.772 76.3864C307.973 76.7575 308.073 77.2025 308.073 77.7213V83.6064H305.778V82.3965H305.71C305.57 82.6691 305.383 82.9096 305.148 83.1179C304.913 83.3224 304.631 83.4834 304.301 83.6008C303.972 83.7144 303.591 83.7712 303.16 83.7712ZM303.853 82.1011C304.209 82.1011 304.523 82.031 304.796 81.8909C305.068 81.747 305.282 81.5539 305.438 81.3115C305.593 81.0691 305.67 80.7945 305.67 80.4878V79.5619C305.595 79.6111 305.491 79.6565 305.358 79.6982C305.229 79.7361 305.083 79.772 304.921 79.8061C304.758 79.8364 304.595 79.8648 304.432 79.8913C304.269 79.9141 304.122 79.9349 303.989 79.9538C303.705 79.9955 303.457 80.0618 303.245 80.1526C303.033 80.2435 302.868 80.3666 302.751 80.5219C302.633 80.6734 302.575 80.8627 302.575 81.0899C302.575 81.4194 302.694 81.6713 302.932 81.8455C303.175 82.0159 303.482 82.1011 303.853 82.1011Z" fill="black"/>
<path d="M235.649 70.9385C231.728 70.9385 228.539 74.1278 228.539 78.0481C228.539 81.9683 231.728 85.1576 235.649 85.1576C239.569 85.1576 242.758 81.9683 242.758 78.0481C242.758 74.1278 239.569 70.9385 235.649 70.9385ZM235.649 81.6029L232.094 78.0481H234.938V74.4933H236.36V78.0481H239.203L235.649 81.6029Z" fill="#494949"/>
<circle cx="155.698" cy="191.908" r="8.44263" fill="white" stroke="black" stroke-width="2.66609"/>
<path d="M162.811 191.905C162.811 187.985 159.621 184.796 155.701 184.796C151.781 184.796 148.591 187.985 148.591 191.905C148.591 195.826 151.781 199.015 155.701 199.015C159.621 199.015 162.811 195.826 162.811 191.905ZM152.146 191.905L155.701 188.351L155.701 191.195L159.256 191.195L159.256 192.616L155.701 192.616L155.701 195.46L152.146 191.905Z" fill="#494949"/>
<circle cx="79.2229" cy="218.346" r="8.44263" fill="white" stroke="black" stroke-width="2.66609"/>
<path d="M9.1368 225.57V213.936H16.8397V215.964H11.5965V218.737H16.3284V220.765H11.5965V225.57H9.1368ZM20.7779 213.936V225.57H18.3182V213.936H20.7779ZM28.9368 217.282C28.8914 216.824 28.6963 216.468 28.3517 216.214C28.0071 215.961 27.5394 215.834 26.9486 215.834C26.5472 215.834 26.2082 215.891 25.9318 216.004C25.6553 216.114 25.4432 216.267 25.2955 216.464C25.1516 216.661 25.0797 216.885 25.0797 217.135C25.0721 217.343 25.1157 217.525 25.2103 217.68C25.3088 217.835 25.4432 217.97 25.6137 218.083C25.7841 218.193 25.981 218.29 26.2044 218.373C26.4279 218.453 26.6665 218.521 26.9202 218.577L27.9654 218.827C28.4729 218.941 28.9387 219.093 29.3629 219.282C29.787 219.471 30.1543 219.704 30.4649 219.981C30.7754 220.257 31.0159 220.583 31.1863 220.958C31.3605 221.333 31.4495 221.762 31.4533 222.247C31.4495 222.959 31.2677 223.576 30.908 224.099C30.552 224.618 30.0369 225.021 29.3629 225.309C28.6925 225.593 27.884 225.735 26.9372 225.735C25.998 225.735 25.18 225.591 24.4832 225.303C23.7902 225.016 23.2486 224.589 22.8586 224.025C22.4723 223.457 22.2697 222.755 22.2507 221.918H24.6309C24.6574 222.308 24.7691 222.633 24.9661 222.895C25.1668 223.152 25.4338 223.347 25.767 223.48C26.1041 223.609 26.4847 223.673 26.9088 223.673C27.3254 223.673 27.6871 223.612 27.9938 223.491C28.3044 223.37 28.5448 223.202 28.7153 222.986C28.8857 222.77 28.9709 222.522 28.9709 222.241C28.9709 221.98 28.8933 221.761 28.738 221.583C28.5865 221.405 28.3631 221.253 28.0677 221.128C27.7761 221.003 27.4182 220.889 26.994 220.787L25.7273 220.469C24.7464 220.231 23.972 219.858 23.4039 219.35C22.8358 218.843 22.5537 218.159 22.5575 217.299C22.5537 216.595 22.7412 215.98 23.1199 215.453C23.5024 214.927 24.0269 214.516 24.6934 214.22C25.3599 213.925 26.1173 213.777 26.9656 213.777C27.8291 213.777 28.5827 213.925 29.2265 214.22C29.8741 214.516 30.3778 214.927 30.7376 215.453C31.0973 215.98 31.2829 216.589 31.2943 217.282H28.9368ZM35.3915 213.936V225.57H32.9318V213.936H35.3915ZM37.2393 225.57V213.936H41.8292C42.7116 213.936 43.4633 214.105 44.0844 214.442C44.7055 214.775 45.1789 215.239 45.5045 215.834C45.834 216.425 45.9988 217.106 45.9988 217.879C45.9988 218.651 45.8321 219.333 45.4989 219.924C45.1656 220.515 44.6828 220.975 44.0503 221.304C43.4217 221.634 42.6605 221.798 41.7667 221.798H38.8412V219.827H41.3691C41.8425 219.827 42.2325 219.746 42.5393 219.583C42.8498 219.416 43.0808 219.187 43.2323 218.896C43.3876 218.6 43.4652 218.261 43.4652 217.879C43.4652 217.492 43.3876 217.155 43.2323 216.868C43.0808 216.576 42.8498 216.351 42.5393 216.192C42.2287 216.029 41.8349 215.947 41.3577 215.947H39.699V225.57H37.2393Z" fill="black"/>
<path d="M79.2248 211.236C75.3046 211.236 72.1152 214.426 72.1152 218.346C72.1152 222.266 75.3046 225.456 79.2248 225.456C83.145 225.456 86.3344 222.266 86.3344 218.346C86.3344 214.426 83.145 211.236 79.2248 211.236ZM79.2248 221.901L75.67 218.346H78.5139V214.791H79.9358V218.346H82.7796L79.2248 221.901Z" fill="#494949"/>
<circle cx="78.3167" cy="281.015" r="8.44263" fill="white" stroke="black" stroke-width="2.66609"/>
<path d="M16.4593 288.239V276.605H24.1622V278.633H18.919V281.405H23.6509V283.433H18.919V288.239H16.4593ZM28.1004 276.605V288.239H25.6407V276.605H28.1004ZM29.9481 288.239V276.605H34.6062C35.4621 276.605 36.1759 276.732 36.7478 276.986C37.3196 277.24 37.7495 277.592 38.0373 278.043C38.3251 278.489 38.469 279.004 38.469 279.588C38.469 280.042 38.3781 280.442 38.1963 280.786C38.0146 281.127 37.7646 281.407 37.4465 281.627C37.1322 281.843 36.7724 281.996 36.3672 282.087V282.201C36.8103 282.22 37.225 282.345 37.6112 282.576C38.0013 282.807 38.3175 283.131 38.5599 283.547C38.8023 283.96 38.9235 284.452 38.9235 285.024C38.9235 285.641 38.7701 286.192 38.4633 286.677C38.1604 287.158 37.7116 287.539 37.117 287.819C36.5225 288.099 35.7897 288.239 34.9186 288.239H29.9481ZM32.4078 286.228H34.4131C35.0985 286.228 35.5984 286.098 35.9127 285.836C36.2271 285.571 36.3842 285.219 36.3842 284.78C36.3842 284.458 36.3066 284.174 36.1513 283.928C35.9961 283.682 35.7745 283.488 35.4867 283.348C35.2027 283.208 34.8637 283.138 34.4699 283.138H32.4078V286.228ZM32.4078 281.474H34.2313C34.5683 281.474 34.8675 281.415 35.1288 281.298C35.3939 281.176 35.6022 281.006 35.7537 280.786C35.909 280.567 35.9866 280.303 35.9866 279.997C35.9866 279.576 35.837 279.237 35.5378 278.98C35.2424 278.722 34.8221 278.594 34.2767 278.594H32.4078V281.474Z" fill="black"/>
<path d="M78.3166 273.906C74.3964 273.906 71.207 277.096 71.207 281.016C71.207 284.936 74.3964 288.125 78.3166 288.125C82.2368 288.125 85.4262 284.936 85.4262 281.016C85.4262 277.096 82.2368 273.906 78.3166 273.906ZM78.3166 284.571L74.7618 281.016H77.6057V277.461H79.0276V281.016H81.8714L78.3166 284.571Z" fill="#494949"/>
<circle cx="78.3206" cy="343.684" r="8.44263" fill="white" stroke="black" stroke-width="2.66609"/>
<path d="M11.7196 350.908V339.274H19.4225V341.302H14.1793V344.074H18.9112V346.102H14.1793V350.908H11.7196ZM20.901 350.908V339.274H28.7402V341.302H23.3607V344.074H28.3369V346.102H23.3607V348.88H28.7629V350.908H20.901ZM30.5198 350.908V339.274H35.1779C36.0338 339.274 36.7476 339.401 37.3195 339.655C37.8913 339.909 38.3212 340.261 38.609 340.712C38.8968 341.158 39.0407 341.673 39.0407 342.257C39.0407 342.711 38.9498 343.111 38.768 343.455C38.5863 343.796 38.3363 344.076 38.0182 344.296C37.7039 344.512 37.3441 344.665 36.9389 344.756V344.87C37.382 344.889 37.7967 345.014 38.1829 345.245C38.573 345.476 38.8892 345.799 39.1316 346.216C39.374 346.629 39.4952 347.121 39.4952 347.693C39.4952 348.31 39.3418 348.861 39.035 349.346C38.7321 349.827 38.2833 350.208 37.6887 350.488C37.0942 350.768 36.3614 350.908 35.4903 350.908H30.5198ZM32.9795 348.897H34.9848C35.6702 348.897 36.1701 348.767 36.4844 348.505C36.7988 348.24 36.9559 347.888 36.9559 347.449C36.9559 347.127 36.8783 346.843 36.723 346.597C36.5678 346.35 36.3462 346.157 36.0584 346.017C35.7744 345.877 35.4354 345.807 35.0416 345.807H32.9795V348.897ZM32.9795 344.143H34.803C35.14 344.143 35.4392 344.084 35.7005 343.967C35.9656 343.845 36.1739 343.675 36.3254 343.455C36.4807 343.236 36.5583 342.972 36.5583 342.666C36.5583 342.245 36.4087 341.906 36.1095 341.649C35.8141 341.391 35.3938 341.263 34.8484 341.263H32.9795V344.143Z" fill="black"/>
<path d="M78.3166 336.574C74.3964 336.574 71.207 339.764 71.207 343.684C71.207 347.604 74.3964 350.793 78.3166 350.793C82.2368 350.793 85.4262 347.604 85.4262 343.684C85.4262 339.764 82.2368 336.574 78.3166 336.574ZM78.3166 347.239L74.7618 343.684H77.6057V340.129H79.0276V343.684H81.8714L78.3166 347.239Z" fill="#494949"/>
<circle cx="78.3167" cy="406.353" r="8.44263" fill="white" stroke="black" stroke-width="2.66609"/>
<path d="M16.9118 413.577V401.943H24.6147V403.971H19.3715V406.743H24.1035V408.771H19.3715V413.577H16.9118ZM25.6501 403.971V401.943H35.2049V403.971H31.6432V413.577H29.2119V403.971H25.6501Z" fill="black"/>
<path d="M78.3147 399.242C74.3944 399.242 71.2051 402.432 71.2051 406.352C71.2051 410.272 74.3944 413.461 78.3147 413.461C82.2349 413.461 85.4243 410.272 85.4243 406.352C85.4243 402.432 82.2349 399.242 78.3147 399.242ZM78.3147 409.907L74.7599 406.352H77.6037V402.797H79.0256V406.352H81.8695L78.3147 409.907Z" fill="#494949"/>
<circle cx="78.3167" cy="469.022" r="8.44263" fill="white" stroke="black" stroke-width="2.66609"/>
<path d="M3.19134 464.612L6.00324 473.451H6.11117L8.92875 464.612H11.6554L7.64493 476.246H4.47516L0.458973 464.612H3.19134ZM15.7925 476.417C14.9101 476.417 14.147 476.229 13.5032 475.854C12.8632 475.475 12.369 474.949 12.0205 474.275C11.6721 473.597 11.4979 472.811 11.4979 471.917C11.4979 471.016 11.6721 470.228 12.0205 469.554C12.369 468.876 12.8632 468.35 13.5032 467.975C14.147 467.596 14.9101 467.407 15.7925 467.407C16.6749 467.407 17.4361 467.596 18.0761 467.975C18.7199 468.35 19.216 468.876 19.5644 469.554C19.9128 470.228 20.087 471.016 20.087 471.917C20.087 472.811 19.9128 473.597 19.5644 474.275C19.216 474.949 18.7199 475.475 18.0761 475.854C17.4361 476.229 16.6749 476.417 15.7925 476.417ZM15.8038 474.542C16.2053 474.542 16.5404 474.428 16.8093 474.201C17.0782 473.97 17.2808 473.656 17.4171 473.258C17.5572 472.86 17.6273 472.408 17.6273 471.9C17.6273 471.393 17.5572 470.94 17.4171 470.543C17.2808 470.145 17.0782 469.831 16.8093 469.6C16.5404 469.369 16.2053 469.253 15.8038 469.253C15.3986 469.253 15.0578 469.369 14.7813 469.6C14.5087 469.831 14.3023 470.145 14.1621 470.543C14.0258 470.94 13.9576 471.393 13.9576 471.9C13.9576 472.408 14.0258 472.86 14.1621 473.258C14.3023 473.656 14.5087 473.97 14.7813 474.201C15.0578 474.428 15.3986 474.542 15.8038 474.542ZM23.6773 473.735L23.683 470.832H24.0352L26.83 467.521H29.6078L25.8529 471.906H25.2792L23.6773 473.735ZM21.4846 476.246V464.612H23.9045V476.246H21.4846ZM26.9379 476.246L24.3703 472.446L25.9836 470.736L29.7726 476.246H26.9379ZM33.1072 476.411C32.5505 476.411 32.0544 476.314 31.6189 476.121C31.1834 475.924 30.8388 475.634 30.585 475.252C30.3351 474.866 30.2101 474.385 30.2101 473.809C30.2101 473.324 30.2991 472.917 30.4771 472.588C30.6551 472.258 30.8975 471.993 31.2042 471.793C31.511 471.592 31.8594 471.44 32.2494 471.338C32.6433 471.236 33.0561 471.164 33.4878 471.122C33.9953 471.069 34.4043 471.02 34.7148 470.974C35.0254 470.925 35.2507 470.853 35.3908 470.759C35.5309 470.664 35.601 470.524 35.601 470.338V470.304C35.601 469.944 35.4874 469.666 35.2602 469.469C35.0367 469.272 34.7186 469.174 34.3058 469.174C33.8703 469.174 33.5238 469.27 33.2663 469.463C33.0087 469.653 32.8383 469.891 32.755 470.179L30.5169 469.997C30.6305 469.467 30.8539 469.009 31.1872 468.623C31.5204 468.233 31.9503 467.933 32.4767 467.725C33.0069 467.513 33.6204 467.407 34.3172 467.407C34.8019 467.407 35.2658 467.464 35.7089 467.577C36.1558 467.691 36.5515 467.867 36.8962 468.106C37.2446 468.344 37.5191 468.651 37.7199 469.026C37.9206 469.397 38.0209 469.842 38.0209 470.361V476.246H35.726V475.036H35.6578C35.5177 475.309 35.3302 475.549 35.0954 475.758C34.8606 475.962 34.5785 476.123 34.249 476.24C33.9195 476.354 33.5389 476.411 33.1072 476.411ZM33.8002 474.741C34.1562 474.741 34.4706 474.671 34.7432 474.531C35.0159 474.387 35.2299 474.194 35.3851 473.951C35.5404 473.709 35.618 473.434 35.618 473.127V472.202C35.5423 472.251 35.4381 472.296 35.3056 472.338C35.1768 472.376 35.031 472.412 34.8682 472.446C34.7054 472.476 34.5425 472.504 34.3797 472.531C34.2168 472.554 34.0691 472.575 33.9366 472.593C33.6525 472.635 33.4045 472.701 33.1924 472.792C32.9803 472.883 32.8156 473.006 32.6982 473.162C32.5808 473.313 32.5221 473.502 32.5221 473.73C32.5221 474.059 32.6414 474.311 32.88 474.485C33.1224 474.656 33.4291 474.741 33.8002 474.741ZM46.9822 470.009L44.7668 470.145C44.7289 469.956 44.6475 469.785 44.5225 469.634C44.3975 469.479 44.2328 469.356 44.0283 469.265C43.8276 469.17 43.5871 469.123 43.3069 469.123C42.9319 469.123 42.6157 469.202 42.3582 469.361C42.1007 469.516 41.9719 469.725 41.9719 469.986C41.9719 470.194 42.0552 470.37 42.2219 470.514C42.3885 470.658 42.6744 470.774 43.0796 470.861L44.6588 471.179C45.5071 471.353 46.1396 471.633 46.5562 472.02C46.9727 472.406 47.181 472.913 47.181 473.542C47.181 474.114 47.0125 474.616 46.6755 475.047C46.3422 475.479 45.884 475.816 45.3008 476.059C44.7213 476.297 44.0529 476.417 43.2955 476.417C42.1404 476.417 41.2202 476.176 40.5347 475.695C39.8531 475.21 39.4535 474.551 39.3361 473.718L41.7163 473.593C41.7882 473.945 41.9625 474.214 42.2389 474.4C42.5154 474.582 42.8695 474.673 43.3012 474.673C43.7253 474.673 44.0662 474.591 44.3237 474.428C44.585 474.262 44.7175 474.048 44.7213 473.786C44.7175 473.567 44.6248 473.387 44.443 473.247C44.2612 473.103 43.981 472.993 43.6023 472.917L42.0912 472.616C41.2391 472.446 40.6048 472.15 40.1882 471.73C39.7754 471.31 39.569 470.774 39.569 470.122C39.569 469.562 39.7205 469.079 40.0235 468.674C40.3302 468.269 40.7601 467.956 41.313 467.737C41.8697 467.517 42.521 467.407 43.2671 467.407C44.3691 467.407 45.2364 467.64 45.8688 468.106C46.505 468.572 46.8762 469.206 46.9822 470.009ZM48.5289 476.246V467.521H50.9488V476.246H48.5289ZM49.7445 466.396C49.3848 466.396 49.0761 466.277 48.8186 466.038C48.5649 465.796 48.438 465.506 48.438 465.169C48.438 464.836 48.5649 464.55 48.8186 464.311C49.0761 464.069 49.3848 463.948 49.7445 463.948C50.1043 463.948 50.4111 464.069 50.6648 464.311C50.9223 464.55 51.0511 464.836 51.0511 465.169C51.0511 465.506 50.9223 465.796 50.6648 466.038C50.4111 466.277 50.1043 466.396 49.7445 466.396Z" fill="black"/>
<path d="M78.3166 461.91C74.3964 461.91 71.207 465.1 71.207 469.02C71.207 472.94 74.3964 476.129 78.3166 476.129C82.2368 476.129 85.4262 472.94 85.4262 469.02C85.4262 465.1 82.2368 461.91 78.3166 461.91ZM78.3166 472.575L74.7618 469.02H77.6057V465.465H79.0276V469.02H81.8714L78.3166 472.575Z" fill="#494949"/>
<circle cx="115.809" cy="528.753" r="8.44263" fill="white" stroke="black" stroke-width="2.66609"/>
<path d="M104.691 549.906C104.646 549.448 104.451 549.092 104.106 548.838C103.762 548.585 103.294 548.458 102.703 548.458C102.302 548.458 101.963 548.515 101.686 548.628C101.41 548.738 101.198 548.891 101.05 549.088C100.906 549.285 100.834 549.509 100.834 549.759C100.827 549.967 100.87 550.149 100.965 550.304C101.063 550.459 101.198 550.594 101.368 550.707C101.539 550.817 101.735 550.914 101.959 550.997C102.182 551.077 102.421 551.145 102.675 551.202L103.72 551.451C104.227 551.565 104.693 551.717 105.117 551.906C105.541 552.095 105.909 552.328 106.219 552.605C106.53 552.881 106.77 553.207 106.941 553.582C107.115 553.957 107.204 554.386 107.208 554.871C107.204 555.583 107.022 556.2 106.662 556.723C106.306 557.242 105.791 557.645 105.117 557.933C104.447 558.217 103.638 558.359 102.692 558.359C101.753 558.359 100.935 558.215 100.238 557.927C99.5447 557.64 99.0031 557.213 98.6131 556.649C98.2268 556.081 98.0242 555.379 98.0052 554.542H100.385C100.412 554.932 100.524 555.257 100.721 555.519C100.921 555.776 101.188 555.971 101.522 556.104C101.859 556.233 102.239 556.297 102.663 556.297C103.08 556.297 103.442 556.236 103.748 556.115C104.059 555.994 104.299 555.826 104.47 555.61C104.64 555.394 104.725 555.146 104.725 554.866C104.725 554.604 104.648 554.385 104.492 554.207C104.341 554.029 104.118 553.877 103.822 553.752C103.531 553.627 103.173 553.514 102.749 553.411L101.482 553.093C100.501 552.855 99.7265 552.482 99.1584 551.974C98.5903 551.467 98.3082 550.783 98.312 549.923C98.3082 549.219 98.4957 548.604 98.8744 548.077C99.2569 547.551 99.7814 547.14 100.448 546.844C101.114 546.549 101.872 546.401 102.72 546.401C103.584 546.401 104.337 546.549 104.981 546.844C105.629 547.14 106.132 547.551 106.492 548.077C106.852 548.604 107.037 549.213 107.049 549.906H104.691ZM119.377 552.377C119.377 553.646 119.137 554.725 118.656 555.615C118.179 556.505 117.527 557.185 116.702 557.655C115.88 558.12 114.956 558.353 113.93 558.353C112.896 558.353 111.968 558.119 111.146 557.649C110.324 557.179 109.675 556.5 109.198 555.61C108.72 554.72 108.482 553.642 108.482 552.377C108.482 551.109 108.72 550.029 109.198 549.139C109.675 548.249 110.324 547.572 111.146 547.106C111.968 546.636 112.896 546.401 113.93 546.401C114.956 546.401 115.88 546.636 116.702 547.106C117.527 547.572 118.179 548.249 118.656 549.139C119.137 550.029 119.377 551.109 119.377 552.377ZM116.883 552.377C116.883 551.556 116.76 550.863 116.514 550.298C116.272 549.734 115.929 549.306 115.486 549.014C115.043 548.723 114.524 548.577 113.93 548.577C113.335 548.577 112.816 548.723 112.373 549.014C111.93 549.306 111.585 549.734 111.339 550.298C111.097 550.863 110.976 551.556 110.976 552.377C110.976 553.199 111.097 553.892 111.339 554.457C111.585 555.021 111.93 555.449 112.373 555.74C112.816 556.032 113.335 556.178 113.93 556.178C114.524 556.178 115.043 556.032 115.486 555.74C115.929 555.449 116.272 555.021 116.514 554.457C116.76 553.892 116.883 553.199 116.883 552.377ZM121.023 558.194V546.56H125.613C126.492 546.56 127.242 546.718 127.863 547.032C128.488 547.342 128.963 547.784 129.289 548.356C129.618 548.924 129.783 549.592 129.783 550.361C129.783 551.133 129.616 551.798 129.283 552.355C128.95 552.908 128.467 553.332 127.834 553.627C127.206 553.923 126.444 554.07 125.551 554.07H122.478V552.093H125.153C125.623 552.093 126.013 552.029 126.323 551.9C126.634 551.771 126.865 551.578 127.016 551.321C127.172 551.063 127.249 550.743 127.249 550.361C127.249 549.975 127.172 549.649 127.016 549.384C126.865 549.119 126.632 548.918 126.318 548.782C126.007 548.641 125.615 548.571 125.142 548.571H123.483V558.194H121.023ZM127.306 552.9L130.197 558.194H127.482L124.653 552.9H127.306Z" fill="black"/>
<path d="M108.703 528.753C108.703 532.673 111.892 535.862 115.813 535.862C119.733 535.862 122.922 532.673 122.922 528.753C122.922 524.832 119.733 521.643 115.813 521.643C111.892 521.643 108.703 524.832 108.703 528.753ZM119.368 528.753L115.813 532.308L115.813 529.464L112.258 529.464L112.258 528.042L115.813 528.042L115.813 525.198L119.368 528.753Z" fill="#494949"/>
<path d="M175.452 560.457V548.823H183.155V550.851H177.912V553.623H182.644V555.651H177.912V560.457H175.452ZM184.634 548.823H187.667L190.871 556.64H191.007L194.211 548.823H197.245V560.457H194.859V552.885H194.762L191.752 560.4H190.127L187.116 552.856H187.02V560.457H184.634V548.823ZM201.555 548.823V560.457H199.095V548.823H201.555ZM203.403 560.457V548.823H207.993C208.875 548.823 209.627 548.992 210.248 549.329C210.869 549.662 211.342 550.126 211.668 550.72C211.997 551.311 212.162 551.993 212.162 552.765C212.162 553.538 211.996 554.22 211.662 554.811C211.329 555.401 210.846 555.861 210.214 556.191C209.585 556.52 208.824 556.685 207.93 556.685H205.005V554.714H207.533C208.006 554.714 208.396 554.633 208.703 554.47C209.013 554.303 209.244 554.074 209.396 553.782C209.551 553.487 209.629 553.148 209.629 552.765C209.629 552.379 209.551 552.042 209.396 551.754C209.244 551.463 209.013 551.237 208.703 551.078C208.392 550.916 207.998 550.834 207.521 550.834H205.862V560.457H203.403ZM214.246 560.457H211.61L215.626 548.823H218.796L222.806 560.457H220.171L217.256 551.482H217.166L214.246 560.457ZM214.081 555.884H220.307V557.804H214.081V555.884Z" fill="black"/>
<circle cx="198.782" cy="528.753" r="8.44263" fill="white" stroke="black" stroke-width="2.66609"/>
<path d="M191.676 528.754C191.676 532.674 194.865 535.863 198.785 535.863C202.706 535.863 205.895 532.674 205.895 528.754C205.895 524.833 202.706 521.644 198.785 521.644C194.865 521.644 191.676 524.833 191.676 528.754ZM202.34 528.754L198.785 532.308L198.785 529.465L195.231 529.465L195.231 528.043L198.785 528.043L198.785 525.199L202.34 528.754Z" fill="#494949"/>
<path d="M283.098 472.329V460.695H290.801V462.723H285.558V465.495H290.29V467.523H285.558V472.329H283.098ZM294.739 460.695V472.329H292.279V460.695H294.739ZM296.587 472.329V460.695H299.047V465.825H299.2L303.387 460.695H306.335L302.017 465.904L306.386 472.329H303.443L300.257 467.546L299.047 469.023V472.329H296.587Z" fill="black"/>
<circle cx="235.992" cy="466.884" r="8.44263" fill="white" stroke="black" stroke-width="2.66609"/>
<path d="M235.996 473.991C239.916 473.991 243.105 470.802 243.105 466.882C243.105 462.961 239.916 459.772 235.996 459.772C232.076 459.772 228.886 462.961 228.886 466.882C228.886 470.802 232.076 473.991 235.996 473.991ZM235.996 463.327L239.551 466.882L236.707 466.882L236.707 470.436L235.285 470.436L235.285 466.882L232.441 466.882L235.996 463.327Z" fill="#494949"/>
<path d="M277.757 411.618V399.984H285.46V402.012H280.217V404.784H284.949V406.812H280.217V411.618H277.757ZM286.939 411.618V399.984H289.398V405.114H289.552L293.738 399.984H296.687L292.369 405.193L296.738 411.618H293.795L290.608 406.835L289.398 408.312V411.618H286.939ZM297.792 399.984H300.825L304.029 407.801H304.165L307.369 399.984H310.403V411.618H308.017V404.046H307.92L304.909 411.561H303.285L300.274 404.018H300.177V411.618H297.792V399.984Z" fill="black"/>
<circle cx="235.992" cy="406.172" r="8.44263" fill="white" stroke="black" stroke-width="2.66609"/>
<path d="M235.996 413.281C239.916 413.281 243.105 410.092 243.105 406.172C243.105 402.251 239.916 399.062 235.996 399.062C232.076 399.062 228.886 402.251 228.886 406.172C228.886 410.092 232.076 413.281 235.996 413.281ZM235.996 402.617L239.551 406.172L236.707 406.172L236.707 409.726L235.285 409.726L235.285 406.172L232.441 406.172L235.996 402.617Z" fill="#494949"/>
<path d="M284.075 350.908V339.274H288.665C289.543 339.274 290.293 339.431 290.914 339.746C291.539 340.056 292.014 340.498 292.34 341.069C292.669 341.637 292.834 342.306 292.834 343.075C292.834 343.847 292.668 344.512 292.334 345.069C292.001 345.621 291.518 346.046 290.886 346.341C290.257 346.636 289.496 346.784 288.602 346.784H285.529V344.807H288.204C288.674 344.807 289.064 344.743 289.375 344.614C289.685 344.485 289.916 344.292 290.068 344.035C290.223 343.777 290.301 343.457 290.301 343.075C290.301 342.688 290.223 342.363 290.068 342.098C289.916 341.832 289.683 341.632 289.369 341.495C289.058 341.355 288.666 341.285 288.193 341.285H286.534V350.908H284.075ZM290.357 345.614L293.249 350.908H290.534L287.705 345.614H290.357ZM296.856 339.274V350.908H294.396V339.274H296.856ZM298.704 350.908V339.274H301.164V344.404H301.317L305.504 339.274H308.452L304.135 344.483L308.503 350.908H305.56L302.374 346.125L301.164 347.602V350.908H298.704Z" fill="black"/>
<circle cx="235.992" cy="345.46" r="8.44263" fill="white" stroke="black" stroke-width="2.66609"/>
<path d="M235.996 352.57C239.916 352.57 243.105 349.381 243.105 345.461C243.105 341.54 239.916 338.351 235.996 338.351C232.076 338.351 228.886 341.541 228.886 345.461C228.886 349.381 232.076 352.57 235.996 352.57ZM235.996 341.906L239.551 345.461L236.707 345.461L236.707 349.016L235.285 349.016L235.285 345.461L232.441 345.461L235.996 341.906Z" fill="#494949"/>
<path d="M261.383 283.922V272.288H266.041C266.897 272.288 267.611 272.415 268.183 272.669C268.755 272.922 269.184 273.275 269.472 273.725C269.76 274.172 269.904 274.687 269.904 275.27C269.904 275.725 269.813 276.124 269.631 276.469C269.45 276.81 269.2 277.09 268.882 277.31C268.567 277.526 268.207 277.679 267.802 277.77V277.883C268.245 277.902 268.66 278.027 269.046 278.258C269.436 278.489 269.753 278.813 269.995 279.23C270.237 279.642 270.358 280.135 270.358 280.707C270.358 281.324 270.205 281.875 269.898 282.36C269.595 282.841 269.147 283.221 268.552 283.502C267.957 283.782 267.225 283.922 266.354 283.922H261.383ZM263.843 281.911H265.848C266.534 281.911 267.033 281.78 267.348 281.519C267.662 281.254 267.819 280.902 267.819 280.462C267.819 280.14 267.742 279.856 267.586 279.61C267.431 279.364 267.21 279.171 266.922 279.031C266.638 278.891 266.299 278.821 265.905 278.821H263.843V281.911ZM263.843 277.156H265.666C266.003 277.156 266.303 277.098 266.564 276.98C266.829 276.859 267.037 276.689 267.189 276.469C267.344 276.249 267.422 275.986 267.422 275.679C267.422 275.259 267.272 274.92 266.973 274.662C266.677 274.405 266.257 274.276 265.712 274.276H263.843V277.156ZM274.226 284.087C273.669 284.087 273.173 283.99 272.737 283.797C272.302 283.6 271.957 283.31 271.703 282.928C271.454 282.541 271.329 282.061 271.329 281.485C271.329 281 271.418 280.593 271.596 280.264C271.774 279.934 272.016 279.669 272.323 279.468C272.629 279.268 272.978 279.116 273.368 279.014C273.762 278.912 274.175 278.84 274.606 278.798C275.114 278.745 275.523 278.696 275.833 278.65C276.144 278.601 276.369 278.529 276.509 278.434C276.649 278.34 276.719 278.2 276.719 278.014V277.98C276.719 277.62 276.606 277.342 276.379 277.145C276.155 276.948 275.837 276.85 275.424 276.85C274.989 276.85 274.642 276.946 274.385 277.139C274.127 277.329 273.957 277.567 273.873 277.855L271.635 277.673C271.749 277.143 271.972 276.685 272.306 276.299C272.639 275.908 273.069 275.609 273.595 275.401C274.125 275.189 274.739 275.083 275.436 275.083C275.92 275.083 276.384 275.14 276.827 275.253C277.274 275.367 277.67 275.543 278.015 275.782C278.363 276.02 278.638 276.327 278.838 276.702C279.039 277.073 279.139 277.518 279.139 278.037V283.922H276.844V282.712H276.776C276.636 282.985 276.449 283.225 276.214 283.433C275.979 283.638 275.697 283.799 275.367 283.916C275.038 284.03 274.657 284.087 274.226 284.087ZM274.919 282.417C275.275 282.417 275.589 282.346 275.862 282.206C276.134 282.062 276.348 281.869 276.504 281.627C276.659 281.385 276.737 281.11 276.737 280.803V279.877C276.661 279.927 276.557 279.972 276.424 280.014C276.295 280.051 276.15 280.087 275.987 280.122C275.824 280.152 275.661 280.18 275.498 280.207C275.335 280.229 275.188 280.25 275.055 280.269C274.771 280.311 274.523 280.377 274.311 280.468C274.099 280.559 273.934 280.682 273.817 280.837C273.699 280.989 273.641 281.178 273.641 281.405C273.641 281.735 273.76 281.987 273.998 282.161C274.241 282.331 274.548 282.417 274.919 282.417ZM283.261 272.288V283.922H280.841V272.288H283.261ZM287.511 284.087C286.955 284.087 286.459 283.99 286.023 283.797C285.588 283.6 285.243 283.31 284.989 282.928C284.739 282.541 284.614 282.061 284.614 281.485C284.614 281 284.703 280.593 284.881 280.264C285.059 279.934 285.302 279.669 285.608 279.468C285.915 279.268 286.264 279.116 286.654 279.014C287.048 278.912 287.46 278.84 287.892 278.798C288.4 278.745 288.809 278.696 289.119 278.65C289.43 278.601 289.655 278.529 289.795 278.434C289.935 278.34 290.005 278.2 290.005 278.014V277.98C290.005 277.62 289.892 277.342 289.664 277.145C289.441 276.948 289.123 276.85 288.71 276.85C288.275 276.85 287.928 276.946 287.671 277.139C287.413 277.329 287.243 277.567 287.159 277.855L284.921 277.673C285.035 277.143 285.258 276.685 285.591 276.299C285.925 275.908 286.355 275.609 286.881 275.401C287.411 275.189 288.025 275.083 288.721 275.083C289.206 275.083 289.67 275.14 290.113 275.253C290.56 275.367 290.956 275.543 291.3 275.782C291.649 276.02 291.923 276.327 292.124 276.702C292.325 277.073 292.425 277.518 292.425 278.037V283.922H290.13V282.712H290.062C289.922 282.985 289.734 283.225 289.5 283.433C289.265 283.638 288.983 283.799 288.653 283.916C288.324 284.03 287.943 284.087 287.511 284.087ZM288.204 282.417C288.56 282.417 288.875 282.346 289.147 282.206C289.42 282.062 289.634 281.869 289.789 281.627C289.945 281.385 290.022 281.11 290.022 280.803V279.877C289.947 279.927 289.842 279.972 289.71 280.014C289.581 280.051 289.435 280.087 289.272 280.122C289.11 280.152 288.947 280.18 288.784 280.207C288.621 280.229 288.473 280.25 288.341 280.269C288.057 280.311 287.809 280.377 287.597 280.468C287.385 280.559 287.22 280.682 287.102 280.837C286.985 280.989 286.926 281.178 286.926 281.405C286.926 281.735 287.046 281.987 287.284 282.161C287.527 282.331 287.833 282.417 288.204 282.417ZM294.127 283.922V275.196H296.547V283.922H294.127ZM295.342 274.072C294.983 274.072 294.674 273.952 294.416 273.714C294.163 273.471 294.036 273.182 294.036 272.845C294.036 272.511 294.163 272.226 294.416 271.987C294.674 271.745 294.983 271.623 295.342 271.623C295.702 271.623 296.009 271.745 296.263 271.987C296.52 272.226 296.649 272.511 296.649 272.845C296.649 273.182 296.52 273.471 296.263 273.714C296.009 273.952 295.702 274.072 295.342 274.072ZM298.309 283.922V275.196H300.655V276.719H300.746C300.905 276.177 301.172 275.768 301.547 275.492C301.922 275.212 302.354 275.072 302.842 275.072C302.963 275.072 303.094 275.079 303.234 275.094C303.374 275.109 303.497 275.13 303.603 275.157V277.304C303.49 277.27 303.333 277.24 303.132 277.213C302.931 277.187 302.748 277.173 302.581 277.173C302.225 277.173 301.907 277.251 301.627 277.406C301.35 277.558 301.13 277.77 300.968 278.042C300.809 278.315 300.729 278.629 300.729 278.985V283.922H298.309ZM310.274 280.207V275.196H312.694V283.922H310.371V282.337H310.28C310.083 282.848 309.755 283.259 309.297 283.57C308.843 283.88 308.288 284.035 307.633 284.035C307.049 284.035 306.536 283.903 306.093 283.638C305.65 283.373 305.304 282.996 305.054 282.507C304.807 282.019 304.682 281.434 304.679 280.752V275.196H307.099V280.32C307.102 280.835 307.241 281.243 307.513 281.542C307.786 281.841 308.151 281.99 308.61 281.99C308.901 281.99 309.174 281.924 309.428 281.792C309.681 281.655 309.886 281.455 310.041 281.19C310.2 280.924 310.278 280.597 310.274 280.207ZM316.874 278.878V283.922H314.454V275.196H316.76V276.736H316.862C317.055 276.228 317.379 275.827 317.834 275.532C318.288 275.232 318.839 275.083 319.487 275.083C320.093 275.083 320.621 275.215 321.072 275.481C321.522 275.746 321.873 276.124 322.122 276.617C322.372 277.105 322.497 277.688 322.497 278.366V283.922H320.077V278.798C320.081 278.264 319.945 277.847 319.668 277.548C319.392 277.245 319.011 277.094 318.527 277.094C318.201 277.094 317.913 277.164 317.663 277.304C317.417 277.444 317.224 277.649 317.084 277.917C316.947 278.183 316.877 278.503 316.874 278.878ZM328.16 287.376C327.376 287.376 326.704 287.268 326.143 287.052C325.586 286.84 325.143 286.55 324.814 286.183C324.484 285.815 324.27 285.403 324.172 284.944L326.41 284.643C326.478 284.818 326.586 284.98 326.734 285.132C326.882 285.283 327.077 285.405 327.319 285.495C327.565 285.59 327.864 285.637 328.216 285.637C328.743 285.637 329.177 285.509 329.517 285.251C329.862 284.997 330.034 284.571 330.034 283.973V282.377H329.932C329.826 282.619 329.667 282.848 329.455 283.064C329.243 283.28 328.97 283.456 328.637 283.592C328.304 283.729 327.906 283.797 327.444 283.797C326.789 283.797 326.192 283.645 325.655 283.342C325.121 283.036 324.695 282.568 324.376 281.939C324.062 281.307 323.905 280.508 323.905 279.542C323.905 278.554 324.066 277.728 324.388 277.065C324.71 276.403 325.138 275.907 325.672 275.577C326.209 275.248 326.798 275.083 327.438 275.083C327.927 275.083 328.336 275.166 328.665 275.333C328.995 275.496 329.26 275.7 329.461 275.946C329.665 276.189 329.822 276.427 329.932 276.662H330.023V275.196H332.426V284.007C332.426 284.749 332.244 285.37 331.88 285.87C331.517 286.37 331.013 286.745 330.369 286.995C329.729 287.249 328.993 287.376 328.16 287.376ZM328.211 281.979C328.601 281.979 328.93 281.883 329.199 281.689C329.472 281.492 329.68 281.212 329.824 280.849C329.972 280.481 330.046 280.042 330.046 279.531C330.046 279.02 329.974 278.576 329.83 278.202C329.686 277.823 329.478 277.529 329.205 277.321C328.932 277.113 328.601 277.009 328.211 277.009C327.813 277.009 327.478 277.117 327.205 277.332C326.933 277.544 326.726 277.84 326.586 278.219C326.446 278.597 326.376 279.035 326.376 279.531C326.376 280.034 326.446 280.47 326.586 280.837C326.73 281.201 326.936 281.483 327.205 281.684C327.478 281.881 327.813 281.979 328.211 281.979Z" fill="black"/>
<circle cx="235.992" cy="279.365" r="8.44263" fill="white" stroke="black" stroke-width="2.66609"/>
<path d="M235.996 286.474C239.916 286.474 243.105 283.284 243.105 279.364C243.105 275.444 239.916 272.254 235.996 272.254C232.076 272.254 228.886 275.444 228.886 279.364C228.886 283.284 232.076 286.474 235.996 286.474ZM235.996 275.809L239.551 279.364L236.707 279.364L236.707 282.919L235.285 282.919L235.285 279.364L232.441 279.364L235.996 275.809Z" fill="#494949"/>
<path d="M262.375 216.874H265.408L268.612 224.69H268.749L271.953 216.874H274.986V228.508H272.6V220.936H272.504L269.493 228.451H267.868L264.857 220.907H264.761V228.508H262.375V216.874ZM279.279 228.673C278.723 228.673 278.226 228.576 277.791 228.383C277.355 228.186 277.011 227.896 276.757 227.514C276.507 227.127 276.382 226.646 276.382 226.071C276.382 225.586 276.471 225.179 276.649 224.85C276.827 224.52 277.069 224.255 277.376 224.054C277.683 223.854 278.031 223.702 278.421 223.6C278.815 223.498 279.228 223.426 279.66 223.384C280.167 223.331 280.576 223.282 280.887 223.236C281.197 223.187 281.423 223.115 281.563 223.02C281.703 222.926 281.773 222.786 281.773 222.6V222.566C281.773 222.206 281.659 221.928 281.432 221.731C281.209 221.534 280.891 221.435 280.478 221.435C280.042 221.435 279.696 221.532 279.438 221.725C279.181 221.915 279.01 222.153 278.927 222.441L276.689 222.259C276.802 221.729 277.026 221.271 277.359 220.884C277.692 220.494 278.122 220.195 278.649 219.987C279.179 219.775 279.792 219.669 280.489 219.669C280.974 219.669 281.438 219.726 281.881 219.839C282.328 219.953 282.724 220.129 283.068 220.368C283.417 220.606 283.691 220.913 283.892 221.288C284.093 221.659 284.193 222.104 284.193 222.623V228.508H281.898V227.298H281.83C281.69 227.571 281.502 227.811 281.267 228.019C281.033 228.224 280.75 228.385 280.421 228.502C280.092 228.616 279.711 228.673 279.279 228.673ZM279.972 227.002C280.328 227.002 280.643 226.932 280.915 226.792C281.188 226.648 281.402 226.455 281.557 226.213C281.712 225.97 281.79 225.696 281.79 225.389V224.463C281.714 224.512 281.61 224.558 281.478 224.6C281.349 224.637 281.203 224.673 281.04 224.707C280.877 224.738 280.715 224.766 280.552 224.793C280.389 224.815 280.241 224.836 280.109 224.855C279.825 224.897 279.576 224.963 279.364 225.054C279.152 225.145 278.988 225.268 278.87 225.423C278.753 225.575 278.694 225.764 278.694 225.991C278.694 226.321 278.813 226.573 279.052 226.747C279.294 226.917 279.601 227.002 279.972 227.002ZM293.154 222.271L290.939 222.407C290.901 222.217 290.819 222.047 290.695 221.896C290.57 221.74 290.405 221.617 290.2 221.526C290 221.432 289.759 221.384 289.479 221.384C289.104 221.384 288.788 221.464 288.53 221.623C288.273 221.778 288.144 221.986 288.144 222.248C288.144 222.456 288.227 222.632 288.394 222.776C288.56 222.92 288.846 223.036 289.252 223.123L290.831 223.441C291.679 223.615 292.312 223.895 292.728 224.281C293.145 224.668 293.353 225.175 293.353 225.804C293.353 226.376 293.185 226.877 292.847 227.309C292.514 227.741 292.056 228.078 291.473 228.32C290.893 228.559 290.225 228.678 289.467 228.678C288.312 228.678 287.392 228.438 286.707 227.957C286.025 227.472 285.626 226.813 285.508 225.98L287.888 225.855C287.96 226.207 288.134 226.476 288.411 226.662C288.687 226.843 289.041 226.934 289.473 226.934C289.897 226.934 290.238 226.853 290.496 226.69C290.757 226.523 290.89 226.309 290.893 226.048C290.89 225.828 290.797 225.649 290.615 225.508C290.433 225.365 290.153 225.255 289.774 225.179L288.263 224.878C287.411 224.707 286.777 224.412 286.36 223.992C285.947 223.571 285.741 223.036 285.741 222.384C285.741 221.824 285.893 221.341 286.195 220.936C286.502 220.53 286.932 220.218 287.485 219.998C288.042 219.779 288.693 219.669 289.439 219.669C290.541 219.669 291.408 219.902 292.041 220.368C292.677 220.833 293.048 221.468 293.154 222.271ZM294.701 219.782H297.121V228.94C297.121 229.614 296.988 230.159 296.723 230.576C296.458 230.992 296.077 231.297 295.581 231.49C295.089 231.683 294.5 231.78 293.815 231.78C293.731 231.78 293.652 231.778 293.576 231.774C293.497 231.774 293.413 231.772 293.326 231.768V229.877C293.391 229.881 293.447 229.883 293.497 229.883C293.542 229.886 293.591 229.888 293.644 229.888C294.034 229.888 294.307 229.805 294.462 229.638C294.621 229.475 294.701 229.229 294.701 228.9V219.782ZM295.905 218.658C295.549 218.658 295.242 218.538 294.985 218.3C294.727 218.057 294.599 217.768 294.599 217.431C294.599 217.097 294.727 216.811 294.985 216.573C295.242 216.33 295.549 216.209 295.905 216.209C296.269 216.209 296.577 216.33 296.831 216.573C297.089 216.811 297.217 217.097 297.217 217.431C297.217 217.768 297.089 218.057 296.831 218.3C296.577 218.538 296.269 218.658 295.905 218.658ZM298.883 228.508V219.782H301.303V228.508H298.883ZM300.099 218.658C299.739 218.658 299.431 218.538 299.173 218.3C298.919 218.057 298.792 217.768 298.792 217.431C298.792 217.097 298.919 216.811 299.173 216.573C299.431 216.33 299.739 216.209 300.099 216.209C300.459 216.209 300.766 216.33 301.019 216.573C301.277 216.811 301.406 217.097 301.406 217.431C301.406 217.768 301.277 218.057 301.019 218.3C300.766 218.538 300.459 218.658 300.099 218.658ZM306.281 228.65C305.618 228.65 305.018 228.479 304.48 228.139C303.946 227.794 303.522 227.288 303.208 226.622C302.897 225.952 302.742 225.13 302.742 224.156C302.742 223.157 302.903 222.325 303.225 221.663C303.547 220.996 303.975 220.498 304.509 220.169C305.046 219.835 305.635 219.669 306.275 219.669C306.764 219.669 307.171 219.752 307.497 219.919C307.826 220.082 308.091 220.286 308.292 220.532C308.496 220.775 308.652 221.013 308.758 221.248H308.832V216.874H311.246V228.508H308.86V227.11H308.758C308.644 227.353 308.483 227.593 308.275 227.832C308.07 228.067 307.803 228.262 307.474 228.417C307.148 228.572 306.751 228.65 306.281 228.65ZM307.048 226.724C307.438 226.724 307.767 226.618 308.036 226.406C308.309 226.19 308.517 225.889 308.661 225.503C308.809 225.116 308.883 224.664 308.883 224.145C308.883 223.626 308.811 223.176 308.667 222.793C308.523 222.411 308.315 222.115 308.042 221.907C307.769 221.699 307.438 221.595 307.048 221.595C306.65 221.595 306.315 221.702 306.042 221.918C305.77 222.134 305.563 222.433 305.423 222.816C305.283 223.198 305.213 223.641 305.213 224.145C305.213 224.653 305.283 225.101 305.423 225.491C305.567 225.878 305.774 226.181 306.042 226.4C306.315 226.616 306.65 226.724 307.048 226.724ZM323.817 216.874H326.277V224.429C326.277 225.277 326.074 226.02 325.669 226.656C325.268 227.292 324.705 227.788 323.982 228.144C323.259 228.496 322.416 228.673 321.454 228.673C320.489 228.673 319.644 228.496 318.921 228.144C318.197 227.788 317.635 227.292 317.234 226.656C316.832 226.02 316.631 225.277 316.631 224.429V216.874H319.091V224.219C319.091 224.662 319.188 225.056 319.381 225.401C319.578 225.745 319.854 226.016 320.21 226.213C320.566 226.41 320.981 226.508 321.454 226.508C321.931 226.508 322.346 226.41 322.698 226.213C323.054 226.016 323.329 225.745 323.522 225.401C323.719 225.056 323.817 224.662 323.817 224.219V216.874ZM330.584 216.874V228.508H328.125V216.874H330.584Z" fill="black"/>
<circle cx="236.094" cy="221.283" r="8.44263" fill="white" stroke="black" stroke-width="2.66609"/>
<path d="M236.097 228.394C240.018 228.394 243.207 225.204 243.207 221.284C243.207 217.364 240.018 214.174 236.097 214.174C232.177 214.174 228.988 217.364 228.988 221.284C228.988 225.204 232.177 228.394 236.097 228.394ZM236.097 217.729L239.652 221.284L236.808 221.284L236.808 224.839L235.386 224.839L235.386 221.284L232.543 221.284L236.097 217.729Z" fill="#494949"/>
</svg>
