<svg width="347" height="554" viewBox="0 0 347 554" fill="none" xmlns="http://www.w3.org/2000/svg">
<path d="M148.481 127.141V116.97H155.215V118.743H150.631V121.166H154.768V122.939H150.631V127.141H148.481ZM158.547 127.285C158.061 127.285 157.627 127.2 157.246 127.031C156.866 126.859 156.564 126.606 156.343 126.272C156.124 125.934 156.015 125.513 156.015 125.01C156.015 124.586 156.093 124.23 156.248 123.942C156.404 123.654 156.616 123.423 156.884 123.247C157.152 123.072 157.457 122.939 157.798 122.85C158.142 122.761 158.503 122.698 158.88 122.661C159.324 122.615 159.681 122.572 159.953 122.532C160.224 122.489 160.421 122.426 160.544 122.343C160.666 122.261 160.728 122.138 160.728 121.976V121.946C160.728 121.632 160.628 121.388 160.43 121.216C160.234 121.044 159.956 120.958 159.595 120.958C159.215 120.958 158.912 121.042 158.687 121.211C158.461 121.377 158.312 121.585 158.24 121.837L156.283 121.678C156.382 121.214 156.578 120.814 156.869 120.476C157.16 120.135 157.536 119.874 157.996 119.691C158.46 119.506 158.996 119.413 159.605 119.413C160.029 119.413 160.435 119.463 160.822 119.562C161.213 119.662 161.559 119.816 161.86 120.024C162.164 120.233 162.404 120.501 162.58 120.829C162.755 121.153 162.843 121.542 162.843 121.996V127.141H160.837V126.083H160.777C160.655 126.321 160.491 126.531 160.286 126.714C160.08 126.892 159.834 127.033 159.546 127.136C159.258 127.235 158.925 127.285 158.547 127.285ZM159.153 125.825C159.465 125.825 159.739 125.763 159.978 125.641C160.216 125.515 160.403 125.346 160.539 125.134C160.675 124.922 160.742 124.682 160.742 124.414V123.605C160.676 123.648 160.585 123.688 160.469 123.724C160.357 123.757 160.229 123.789 160.087 123.818C159.945 123.845 159.802 123.87 159.66 123.893C159.518 123.913 159.388 123.931 159.273 123.947C159.024 123.984 158.807 124.042 158.622 124.121C158.437 124.201 158.293 124.308 158.19 124.444C158.087 124.576 158.036 124.742 158.036 124.941C158.036 125.229 158.14 125.449 158.349 125.601C158.561 125.75 158.829 125.825 159.153 125.825ZM166.248 124.946L166.252 122.408H166.56L169.004 119.513H171.432L168.15 123.347H167.648L166.248 124.946ZM164.331 127.141V116.97H166.446V127.141H164.331ZM169.098 127.141L166.853 123.818L168.264 122.324L171.576 127.141H169.098ZM173.553 127.27C173.225 127.27 172.944 127.154 172.708 126.922C172.477 126.687 172.361 126.406 172.361 126.078C172.361 125.753 172.477 125.475 172.708 125.244C172.944 125.012 173.225 124.896 173.553 124.896C173.871 124.896 174.149 125.012 174.387 125.244C174.625 125.475 174.745 125.753 174.745 126.078C174.745 126.296 174.688 126.497 174.576 126.679C174.466 126.858 174.322 127.002 174.144 127.111C173.965 127.217 173.768 127.27 173.553 127.27ZM132.034 146.141V135.97H136.046C136.818 135.97 137.475 136.117 138.018 136.412C138.561 136.703 138.975 137.109 139.259 137.629C139.547 138.145 139.691 138.741 139.691 139.417C139.691 140.092 139.546 140.688 139.254 141.204C138.963 141.721 138.541 142.123 137.988 142.411C137.438 142.699 136.773 142.843 135.992 142.843H133.434V141.12H135.644C136.058 141.12 136.399 141.049 136.667 140.906C136.939 140.761 137.141 140.56 137.273 140.305C137.409 140.047 137.477 139.751 137.477 139.417C137.477 139.079 137.409 138.784 137.273 138.533C137.141 138.278 136.939 138.081 136.667 137.942C136.396 137.799 136.051 137.728 135.634 137.728H134.184V146.141H132.034ZM147.241 140.688L145.304 140.807C145.271 140.642 145.2 140.493 145.091 140.36C144.982 140.224 144.838 140.117 144.659 140.037C144.483 139.955 144.273 139.913 144.028 139.913C143.7 139.913 143.424 139.983 143.199 140.122C142.974 140.257 142.861 140.44 142.861 140.668C142.861 140.85 142.934 141.004 143.08 141.13C143.225 141.256 143.475 141.357 143.83 141.433L145.21 141.711C145.952 141.863 146.505 142.108 146.869 142.446C147.233 142.784 147.415 143.227 147.415 143.777C147.415 144.277 147.268 144.715 146.973 145.093C146.682 145.47 146.281 145.765 145.771 145.977C145.265 146.185 144.68 146.29 144.018 146.29C143.008 146.29 142.204 146.079 141.605 145.659C141.009 145.235 140.66 144.659 140.557 143.931L142.638 143.821C142.701 144.129 142.853 144.364 143.095 144.527C143.336 144.686 143.646 144.765 144.023 144.765C144.394 144.765 144.692 144.694 144.917 144.551C145.146 144.406 145.261 144.219 145.265 143.99C145.261 143.798 145.18 143.641 145.021 143.519C144.863 143.393 144.618 143.297 144.286 143.23L142.965 142.967C142.221 142.818 141.666 142.56 141.302 142.193C140.941 141.825 140.761 141.357 140.761 140.787C140.761 140.297 140.893 139.875 141.158 139.521C141.426 139.167 141.802 138.893 142.285 138.701C142.772 138.509 143.341 138.413 143.993 138.413C144.957 138.413 145.715 138.617 146.268 139.024C146.824 139.431 147.149 139.986 147.241 140.688ZM148.593 146.141V138.513H150.709V146.141H148.593ZM149.656 137.529C149.342 137.529 149.072 137.425 148.847 137.217C148.625 137.005 148.514 136.751 148.514 136.457C148.514 136.165 148.625 135.915 148.847 135.707C149.072 135.495 149.342 135.389 149.656 135.389C149.971 135.389 150.239 135.495 150.461 135.707C150.686 135.915 150.798 136.165 150.798 136.457C150.798 136.751 150.686 137.005 150.461 137.217C150.239 137.425 149.971 137.529 149.656 137.529ZM154.167 143.946L154.172 141.408H154.48L156.923 138.513H159.351L156.069 142.347H155.567L154.167 143.946ZM152.25 146.141V135.97H154.365V146.141H152.25ZM157.017 146.141L154.773 142.818L156.183 141.324L159.495 146.141H157.017ZM163.368 146.29C162.596 146.29 161.929 146.126 161.366 145.798C160.807 145.467 160.375 145.007 160.07 144.417C159.766 143.825 159.613 143.138 159.613 142.356C159.613 141.569 159.766 140.88 160.07 140.291C160.375 139.698 160.807 139.238 161.366 138.91C161.929 138.579 162.596 138.413 163.368 138.413C164.139 138.413 164.805 138.579 165.364 138.91C165.927 139.238 166.361 139.698 166.665 140.291C166.97 140.88 167.122 141.569 167.122 142.356C167.122 143.138 166.97 143.825 166.665 144.417C166.361 145.007 165.927 145.467 165.364 145.798C164.805 146.126 164.139 146.29 163.368 146.29ZM163.378 144.651C163.729 144.651 164.022 144.551 164.257 144.353C164.492 144.151 164.669 143.876 164.788 143.528C164.911 143.181 164.972 142.785 164.972 142.342C164.972 141.898 164.911 141.502 164.788 141.155C164.669 140.807 164.492 140.532 164.257 140.33C164.022 140.128 163.729 140.027 163.378 140.027C163.023 140.027 162.725 140.128 162.484 140.33C162.245 140.532 162.065 140.807 161.942 141.155C161.823 141.502 161.764 141.898 161.764 142.342C161.764 142.785 161.823 143.181 161.942 143.528C162.065 143.876 162.245 144.151 162.484 144.353C162.725 144.551 163.023 144.651 163.378 144.651ZM170.459 135.97V146.141H168.344V135.97H170.459ZM175.447 146.29C174.675 146.29 174.008 146.126 173.445 145.798C172.886 145.467 172.454 145.007 172.149 144.417C171.845 143.825 171.692 143.138 171.692 142.356C171.692 141.569 171.845 140.88 172.149 140.291C172.454 139.698 172.886 139.238 173.445 138.91C174.008 138.579 174.675 138.413 175.447 138.413C176.218 138.413 176.884 138.579 177.443 138.91C178.006 139.238 178.44 139.698 178.744 140.291C179.049 140.88 179.201 141.569 179.201 142.356C179.201 143.138 179.049 143.825 178.744 144.417C178.44 145.007 178.006 145.467 177.443 145.798C176.884 146.126 176.218 146.29 175.447 146.29ZM175.457 144.651C175.808 144.651 176.101 144.551 176.336 144.353C176.571 144.151 176.748 143.876 176.867 143.528C176.99 143.181 177.051 142.785 177.051 142.342C177.051 141.898 176.99 141.502 176.867 141.155C176.748 140.807 176.571 140.532 176.336 140.33C176.101 140.128 175.808 140.027 175.457 140.027C175.102 140.027 174.804 140.128 174.563 140.33C174.324 140.532 174.144 140.807 174.021 141.155C173.902 141.502 173.843 141.898 173.843 142.342C173.843 142.785 173.902 143.181 174.021 143.528C174.144 143.876 174.324 144.151 174.563 144.353C174.804 144.551 175.102 144.651 175.457 144.651ZM183.859 149.16C183.174 149.16 182.586 149.066 182.096 148.877C181.61 148.692 181.222 148.438 180.934 148.117C180.646 147.796 180.459 147.435 180.373 147.035L182.33 146.771C182.389 146.924 182.484 147.066 182.613 147.198C182.742 147.331 182.913 147.437 183.124 147.516C183.34 147.599 183.601 147.64 183.909 147.64C184.369 147.64 184.748 147.528 185.046 147.303C185.348 147.081 185.498 146.708 185.498 146.185V144.79H185.409C185.316 145.002 185.177 145.202 184.992 145.391C184.806 145.579 184.568 145.733 184.277 145.853C183.985 145.972 183.638 146.031 183.234 146.031C182.661 146.031 182.139 145.899 181.669 145.634C181.203 145.366 180.83 144.957 180.552 144.407C180.277 143.855 180.14 143.156 180.14 142.312C180.14 141.448 180.281 140.726 180.562 140.147C180.843 139.567 181.217 139.133 181.684 138.845C182.154 138.557 182.669 138.413 183.229 138.413C183.656 138.413 184.013 138.486 184.301 138.632C184.589 138.774 184.821 138.953 184.997 139.168C185.175 139.38 185.313 139.589 185.409 139.794H185.488V138.513H187.589V146.215C187.589 146.864 187.43 147.407 187.112 147.844C186.794 148.281 186.354 148.609 185.791 148.827C185.232 149.049 184.588 149.16 183.859 149.16ZM183.904 144.442C184.245 144.442 184.533 144.358 184.768 144.189C185.007 144.017 185.189 143.772 185.314 143.454C185.444 143.133 185.508 142.749 185.508 142.302C185.508 141.855 185.445 141.468 185.319 141.14C185.194 140.809 185.012 140.552 184.773 140.37C184.535 140.188 184.245 140.097 183.904 140.097C183.556 140.097 183.263 140.191 183.025 140.38C182.787 140.565 182.606 140.824 182.484 141.155C182.361 141.486 182.3 141.868 182.3 142.302C182.3 142.742 182.361 143.123 182.484 143.444C182.61 143.762 182.79 144.009 183.025 144.184C183.263 144.356 183.556 144.442 183.904 144.442ZM189.119 146.141V138.513H191.234V146.141H189.119ZM190.181 137.529C189.867 137.529 189.597 137.425 189.372 137.217C189.15 137.005 189.039 136.751 189.039 136.457C189.039 136.165 189.15 135.915 189.372 135.707C189.597 135.495 189.867 135.389 190.181 135.389C190.496 135.389 190.764 135.495 190.986 135.707C191.211 135.915 191.324 136.165 191.324 136.457C191.324 136.751 191.211 137.005 190.986 137.217C190.764 137.425 190.496 137.529 190.181 137.529Z" fill="black"/>
<path d="M256.955 32.5293L256.954 490.478C256.954 503.733 246.209 514.478 232.954 514.478H90.9141C77.6593 514.478 66.9141 503.733 66.9141 490.478V193.495C66.9141 180.24 77.6592 169.495 90.9141 169.495H232.954C246.209 169.495 256.954 158.75 256.954 145.495V87.3157" stroke="#F25858" stroke-width="14" stroke-miterlimit="0" stroke-linecap="round" stroke-linejoin="bevel"/>
<path d="M110.14 541.921C110.1 541.521 109.929 541.21 109.628 540.988C109.327 540.766 108.918 540.655 108.402 540.655C108.051 540.655 107.754 540.705 107.513 540.804C107.271 540.9 107.086 541.034 106.956 541.206C106.831 541.379 106.768 541.574 106.768 541.792C106.761 541.974 106.799 542.133 106.882 542.269C106.968 542.405 107.086 542.522 107.235 542.622C107.384 542.718 107.556 542.802 107.751 542.875C107.946 542.944 108.155 543.004 108.377 543.054L109.291 543.272C109.734 543.372 110.141 543.504 110.512 543.67C110.883 543.835 111.204 544.039 111.476 544.28C111.747 544.522 111.957 544.807 112.106 545.135C112.259 545.462 112.336 545.838 112.34 546.262C112.336 546.884 112.177 547.424 111.863 547.881C111.552 548.334 111.101 548.687 110.512 548.939C109.926 549.187 109.219 549.311 108.392 549.311C107.571 549.311 106.855 549.185 106.246 548.934C105.64 548.682 105.167 548.31 104.826 547.816C104.488 547.32 104.311 546.705 104.295 545.974H106.375C106.399 546.315 106.496 546.6 106.668 546.828C106.844 547.053 107.077 547.224 107.369 547.339C107.663 547.452 107.996 547.508 108.367 547.508C108.731 547.508 109.047 547.455 109.315 547.349C109.587 547.243 109.797 547.096 109.946 546.907C110.095 546.719 110.17 546.502 110.17 546.257C110.17 546.028 110.102 545.836 109.966 545.681C109.833 545.525 109.638 545.393 109.38 545.284C109.125 545.174 108.812 545.075 108.441 544.986L107.334 544.707C106.476 544.499 105.799 544.173 105.303 543.729C104.806 543.285 104.559 542.688 104.563 541.936C104.559 541.321 104.723 540.783 105.054 540.322C105.389 539.862 105.847 539.503 106.43 539.245C107.013 538.987 107.675 538.857 108.416 538.857C109.171 538.857 109.83 538.987 110.393 539.245C110.959 539.503 111.399 539.862 111.714 540.322C112.028 540.783 112.191 541.316 112.201 541.921H110.14ZM122.978 544.082C122.978 545.191 122.768 546.134 122.348 546.912C121.931 547.69 121.361 548.285 120.639 548.695C119.921 549.102 119.113 549.306 118.216 549.306C117.312 549.306 116.501 549.101 115.783 548.69C115.064 548.28 114.496 547.685 114.079 546.907C113.662 546.129 113.453 545.188 113.453 544.082C113.453 542.973 113.662 542.029 114.079 541.251C114.496 540.473 115.064 539.88 115.783 539.473C116.501 539.063 117.312 538.857 118.216 538.857C119.113 538.857 119.921 539.063 120.639 539.473C121.361 539.88 121.931 540.473 122.348 541.251C122.768 542.029 122.978 542.973 122.978 544.082ZM120.798 544.082C120.798 543.363 120.691 542.757 120.475 542.264C120.264 541.771 119.964 541.397 119.577 541.142C119.189 540.887 118.736 540.759 118.216 540.759C117.696 540.759 117.243 540.887 116.855 541.142C116.468 541.397 116.167 541.771 115.951 542.264C115.739 542.757 115.634 543.363 115.634 544.082C115.634 544.8 115.739 545.406 115.951 545.899C116.167 546.393 116.468 546.767 116.855 547.022C117.243 547.277 117.696 547.404 118.216 547.404C118.736 547.404 119.189 547.277 119.577 547.022C119.964 546.767 120.264 546.393 120.475 545.899C120.691 545.406 120.798 544.8 120.798 544.082ZM124.417 549.167V538.996H128.43C129.198 538.996 129.854 539.134 130.397 539.409C130.943 539.68 131.358 540.066 131.643 540.566C131.931 541.062 132.075 541.647 132.075 542.319C132.075 542.994 131.929 543.575 131.638 544.062C131.347 544.545 130.925 544.916 130.372 545.174C129.822 545.432 129.157 545.562 128.375 545.562H125.689V543.833H128.028C128.438 543.833 128.779 543.777 129.051 543.665C129.322 543.552 129.524 543.383 129.657 543.158C129.792 542.933 129.86 542.653 129.86 542.319C129.86 541.981 129.792 541.696 129.657 541.465C129.524 541.233 129.321 541.057 129.046 540.938C128.774 540.816 128.432 540.754 128.018 540.754H126.568V549.167H124.417ZM129.91 544.539L132.438 549.167H130.064L127.591 544.539H129.91Z" fill="black"/>
<path d="M194.68 549.167V538.996H201.414V540.769H196.831V543.193H200.967V544.966H196.831V549.167H194.68ZM202.707 538.996H205.359L208.16 545.83H208.279L211.08 538.996H213.732V549.167H211.646V542.547H211.562L208.929 549.117H207.509L204.877 542.522H204.793V549.167H202.707V538.996ZM217.5 538.996V549.167H215.35V538.996H217.5ZM219.115 549.167V538.996H223.128C223.899 538.996 224.556 539.144 225.099 539.438C225.642 539.73 226.056 540.135 226.341 540.655C226.629 541.172 226.773 541.768 226.773 542.443C226.773 543.118 226.627 543.714 226.336 544.231C226.045 544.747 225.622 545.149 225.07 545.437C224.52 545.725 223.854 545.87 223.073 545.87H220.516V544.146H222.726C223.139 544.146 223.48 544.075 223.749 543.933C224.02 543.787 224.222 543.587 224.354 543.332C224.49 543.074 224.558 542.777 224.558 542.443C224.558 542.105 224.49 541.811 224.354 541.559C224.222 541.304 224.02 541.107 223.749 540.968C223.477 540.826 223.133 540.754 222.716 540.754H221.265V549.167H219.115ZM228.594 549.167H226.29L229.801 538.996H232.572L236.078 549.167H233.774L231.226 541.321H231.147L228.594 549.167ZM228.45 545.169H233.893V546.848H228.45V545.169Z" fill="black"/>
<path d="M292.364 469.556V459.385H299.098V461.158H294.515V463.581H298.651V465.354H294.515V469.556H292.364ZM302.541 459.385V469.556H300.391V459.385H302.541ZM304.157 469.556V459.385H306.307V463.869H306.441L310.101 459.385H312.678L308.904 463.939L312.723 469.556H310.151L307.365 465.374L306.307 466.665V469.556H304.157Z" fill="black"/>
<path d="M289.857 403.641V393.47H296.592V395.243H292.008V397.666H296.145V399.439H292.008V403.641H289.857ZM297.884 403.641V393.47H300.034V397.954H300.168L303.828 393.47H306.406L302.632 398.024L306.451 403.641H303.878L301.092 399.459L300.034 400.75V403.641H297.884ZM307.372 393.47H310.024L312.825 400.303H312.944L315.745 393.47H318.397V403.641H316.311V397.021H316.226L313.594 403.591H312.174L309.542 396.996H309.458V403.641H307.372V393.47Z" fill="black"/>
<path d="M289.797 343.719V333.548H293.81C294.578 333.548 295.234 333.686 295.777 333.96C296.323 334.232 296.738 334.618 297.023 335.117C297.311 335.614 297.455 336.198 297.455 336.871C297.455 337.546 297.31 338.127 297.018 338.614C296.727 339.097 296.305 339.468 295.752 339.726C295.202 339.984 294.537 340.113 293.755 340.113H291.069V338.385H293.408C293.818 338.385 294.159 338.329 294.431 338.216C294.702 338.104 294.904 337.935 295.037 337.71C295.172 337.485 295.24 337.205 295.24 336.871C295.24 336.533 295.172 336.248 295.037 336.016C294.904 335.785 294.701 335.609 294.426 335.49C294.154 335.367 293.812 335.306 293.398 335.306H291.948V343.719H289.797ZM295.29 339.09L297.818 343.719H295.444L292.971 339.09H295.29ZM300.971 333.548V343.719H298.821V333.548H300.971ZM302.587 343.719V333.548H304.737V338.033H304.871L308.531 333.548H311.108L307.334 338.102L311.153 343.719H308.581L305.795 339.537L304.737 340.828V343.719H302.587Z" fill="black"/>
<path d="M292.351 215.312V205.142H299.085V206.915H294.501V209.338H298.638V211.111H294.501V215.312H292.351ZM300.378 215.312V205.142H302.528V209.338H306.893V205.142H309.038V215.312H306.893V211.111H302.528V215.312H300.378Z" fill="black"/>
<path d="M252.203 29.1045L252.203 486.198C252.203 499.452 241.458 510.198 228.203 510.198H95.666C82.4112 510.198 71.666 499.452 71.666 486.198V196.063C71.666 182.808 82.4112 172.063 95.666 172.063H228.203C241.458 172.063 252.203 161.318 252.203 148.063V83.8909" stroke="#4382EE" stroke-width="8" stroke-miterlimit="0" stroke-linecap="round" stroke-linejoin="bevel"/>
<path d="M8.06509 217.024V206.854H14.7991V208.627H10.2154V211.05H14.3522V212.823H10.2154V217.024H8.06509ZM18.242 206.854V217.024H16.0916V206.854H18.242ZM25.3746 209.779C25.3349 209.378 25.1644 209.067 24.8631 208.845C24.5618 208.623 24.153 208.513 23.6365 208.513C23.2856 208.513 22.9892 208.562 22.7476 208.662C22.5059 208.758 22.3205 208.892 22.1914 209.064C22.0656 209.236 22.0026 209.431 22.0026 209.65C21.996 209.832 22.0341 209.991 22.1169 210.127C22.2029 210.262 22.3205 210.38 22.4695 210.479C22.6184 210.575 22.7906 210.66 22.9859 210.732C23.1813 210.802 23.3898 210.862 23.6117 210.911L24.5254 211.13C24.9691 211.229 25.3763 211.361 25.7471 211.527C26.1179 211.692 26.439 211.896 26.7105 212.138C26.982 212.379 27.1922 212.664 27.3412 212.992C27.4935 213.32 27.5713 213.695 27.5746 214.119C27.5713 214.742 27.4124 215.281 27.0979 215.738C26.7866 216.192 26.3364 216.544 25.7471 216.796C25.1611 217.044 24.4542 217.168 23.6266 217.168C22.8055 217.168 22.0904 217.043 21.4812 216.791C20.8753 216.539 20.4019 216.167 20.0609 215.674C19.7232 215.177 19.5461 214.563 19.5295 213.831H21.6103C21.6335 214.172 21.7312 214.457 21.9033 214.685C22.0788 214.911 22.3122 215.081 22.6035 215.197C22.8982 215.309 23.2309 215.366 23.6017 215.366C23.9659 215.366 24.2821 215.313 24.5503 215.207C24.8217 215.101 25.032 214.954 25.1809 214.765C25.3299 214.576 25.4044 214.359 25.4044 214.114C25.4044 213.886 25.3365 213.694 25.2008 213.538C25.0684 213.383 24.873 213.25 24.6148 213.141C24.3599 213.032 24.047 212.932 23.6762 212.843L22.5688 212.565C21.7113 212.356 21.0343 212.03 20.5377 211.587C20.041 211.143 19.7944 210.545 19.7977 209.794C19.7944 209.178 19.9583 208.64 20.2893 208.18C20.6237 207.72 21.0823 207.36 21.665 207.102C22.2476 206.844 22.9098 206.715 23.6514 206.715C24.4062 206.715 25.0651 206.844 25.6279 207.102C26.194 207.36 26.6344 207.72 26.9489 208.18C27.2634 208.64 27.4256 209.173 27.4355 209.779H25.3746ZM31.0175 206.854V217.024H28.8671V206.854H31.0175ZM32.6328 217.024V206.854H36.6454C37.4168 206.854 38.074 207.001 38.6169 207.296C39.1599 207.587 39.5737 207.993 39.8584 208.513C40.1465 209.029 40.2905 209.625 40.2905 210.3C40.2905 210.976 40.1448 211.572 39.8535 212.088C39.5621 212.605 39.14 213.007 38.5871 213.295C38.0375 213.583 37.3721 213.727 36.5908 213.727H34.0332V212.004H36.2431C36.657 212.004 36.998 211.933 37.2661 211.79C37.5376 211.644 37.7396 211.444 37.872 211.189C38.0078 210.931 38.0756 210.635 38.0756 210.3C38.0756 209.963 38.0078 209.668 37.872 209.416C37.7396 209.161 37.5376 208.964 37.2661 208.825C36.9947 208.683 36.6504 208.612 36.2332 208.612H34.7831V217.024H32.6328Z" fill="black"/>
<path d="M13.5877 280.371V270.201H20.3217V271.973H15.738V274.397H19.8748V276.17H15.738V280.371H13.5877ZM23.7646 270.201V280.371H21.6143V270.201H23.7646ZM25.3799 280.371V270.201H29.4521C30.2003 270.201 30.8244 270.311 31.3243 270.533C31.8242 270.755 32.2 271.063 32.4516 271.457C32.7032 271.848 32.829 272.298 32.829 272.808C32.829 273.205 32.7496 273.554 32.5907 273.856C32.4318 274.154 32.2133 274.399 31.9352 274.591C31.6604 274.779 31.3458 274.913 30.9916 274.993V275.092C31.3789 275.109 31.7415 275.218 32.0792 275.42C32.4202 275.622 32.6966 275.905 32.9085 276.269C33.1204 276.63 33.2263 277.06 33.2263 277.56C33.2263 278.1 33.0922 278.582 32.8241 279.005C32.5592 279.426 32.1669 279.759 31.6471 280.004C31.1273 280.249 30.4867 280.371 29.7252 280.371H25.3799ZM27.5302 278.613H29.2833C29.8825 278.613 30.3195 278.499 30.5943 278.27C30.8691 278.039 31.0065 277.731 31.0065 277.347C31.0065 277.065 30.9386 276.817 30.8029 276.602C30.6671 276.387 30.4735 276.218 30.2219 276.095C29.9735 275.973 29.6772 275.912 29.3329 275.912H27.5302V278.613ZM27.5302 274.456H29.1243C29.419 274.456 29.6805 274.405 29.909 274.303C30.1407 274.197 30.3228 274.048 30.4553 273.856C30.591 273.664 30.6589 273.433 30.6589 273.165C30.6589 272.798 30.5281 272.502 30.2665 272.276C30.0083 272.051 29.6408 271.939 29.1641 271.939H27.5302V274.456Z" fill="black"/>
<path d="M10.1313 344.574V334.404H16.8653V336.177H12.2816V338.6H16.4184V340.373H12.2816V344.574H10.1313ZM18.1579 344.574V334.404H25.0111V336.177H20.3082V338.6H24.6585V340.373H20.3082V342.801H25.0309V344.574H18.1579ZM26.5668 344.574V334.404H30.639C31.3872 334.404 32.0113 334.515 32.5112 334.736C33.0111 334.958 33.3869 335.266 33.6385 335.66C33.8901 336.051 34.0159 336.501 34.0159 337.011C34.0159 337.408 33.9365 337.757 33.7776 338.059C33.6186 338.357 33.4001 338.602 33.122 338.794C32.8472 338.982 32.5327 339.116 32.1785 339.196V339.295C32.5658 339.312 32.9284 339.421 33.266 339.623C33.6071 339.825 33.8835 340.108 34.0954 340.472C34.3073 340.833 34.4132 341.263 34.4132 341.763C34.4132 342.303 34.2791 342.785 34.011 343.209C33.7461 343.629 33.3538 343.962 32.834 344.207C32.3142 344.452 31.6736 344.574 30.9121 344.574H26.5668ZM28.7171 342.816H30.4701C31.0694 342.816 31.5064 342.702 31.7812 342.474C32.056 342.242 32.1934 341.934 32.1934 341.55C32.1934 341.268 32.1255 341.02 31.9898 340.805C31.854 340.59 31.6603 340.421 31.4087 340.298C31.1604 340.176 30.8641 340.115 30.5198 340.115H28.7171V342.816ZM28.7171 338.66H30.3112C30.6059 338.66 30.8674 338.608 31.0959 338.506C31.3276 338.4 31.5097 338.251 31.6421 338.059C31.7779 337.867 31.8457 337.637 31.8457 337.368C31.8457 337.001 31.715 336.705 31.4534 336.479C31.1952 336.254 30.8277 336.142 30.351 336.142H28.7171V338.66Z" fill="black"/>
<path d="M14.1688 407.065V396.895H20.9028V398.668H16.3191V401.091H20.4559V402.864H16.3191V407.065H14.1688ZM21.808 398.668V396.895H30.161V398.668H27.0473V407.065H24.9218V398.668H21.808Z" fill="black"/>
<path d="M3.06025 459.385L5.51846 467.112H5.61282L8.076 459.385H10.4597L6.95366 469.556H4.18258L0.671562 459.385H3.06025ZM14.0764 469.705C13.305 469.705 12.6379 469.541 12.0751 469.213C11.5155 468.882 11.0835 468.422 10.7789 467.832C10.4743 467.24 10.322 466.553 10.322 465.772C10.322 464.984 10.4743 464.295 10.7789 463.706C11.0835 463.113 11.5155 462.653 12.0751 462.325C12.6379 461.994 13.305 461.828 14.0764 461.828C14.8478 461.828 15.5132 461.994 16.0728 462.325C16.6356 462.653 17.0693 463.113 17.3739 463.706C17.6785 464.295 17.8307 464.984 17.8307 465.772C17.8307 466.553 17.6785 467.24 17.3739 467.832C17.0693 468.422 16.6356 468.882 16.0728 469.213C15.5132 469.541 14.8478 469.705 14.0764 469.705ZM14.0863 468.066C14.4373 468.066 14.7303 467.967 14.9653 467.768C15.2004 467.566 15.3775 467.291 15.4967 466.944C15.6192 466.596 15.6804 466.2 15.6804 465.757C15.6804 465.313 15.6192 464.917 15.4967 464.57C15.3775 464.222 15.2004 463.947 14.9653 463.745C14.7303 463.543 14.4373 463.442 14.0863 463.442C13.7321 463.442 13.4341 463.543 13.1924 463.745C12.9541 463.947 12.7736 464.222 12.6511 464.57C12.5319 464.917 12.4723 465.313 12.4723 465.757C12.4723 466.2 12.5319 466.596 12.6511 466.944C12.7736 467.291 12.9541 467.566 13.1924 467.768C13.4341 467.967 13.7321 468.066 14.0863 468.066ZM20.9694 467.361L20.9744 464.823H21.2823L23.7256 461.928H26.154L22.8714 465.762H22.3699L20.9694 467.361ZM19.0525 469.556V459.385H21.1681V469.556H19.0525ZM23.82 469.556L21.5753 466.233L22.9857 464.739L26.298 469.556H23.82ZM29.2133 469.7C28.7266 469.7 28.2929 469.615 27.9121 469.446C27.5314 469.274 27.2301 469.021 27.0083 468.687C26.7898 468.349 26.6806 467.928 26.6806 467.425C26.6806 467.001 26.7584 466.646 26.914 466.358C27.0696 466.069 27.2814 465.838 27.5496 465.662C27.8178 465.487 28.1224 465.354 28.4634 465.265C28.8077 465.176 29.1686 465.113 29.546 465.076C29.9896 465.03 30.3472 464.987 30.6187 464.947C30.8901 464.904 31.0871 464.841 31.2096 464.758C31.3321 464.676 31.3934 464.553 31.3934 464.391V464.361C31.3934 464.047 31.294 463.803 31.0954 463.631C30.9001 463.459 30.622 463.373 30.2611 463.373C29.8804 463.373 29.5774 463.457 29.3523 463.626C29.1272 463.792 28.9782 464 28.9054 464.252L26.9487 464.093C27.048 463.629 27.2434 463.229 27.5347 462.891C27.8261 462.55 28.2018 462.289 28.662 462.107C29.1255 461.921 29.6619 461.828 30.271 461.828C30.6948 461.828 31.1004 461.878 31.4877 461.977C31.8784 462.077 32.2244 462.231 32.5256 462.439C32.8302 462.648 33.0702 462.916 33.2457 463.244C33.4212 463.568 33.5089 463.957 33.5089 464.411V469.556H31.5026V468.498H31.443C31.3205 468.736 31.1566 468.946 30.9514 469.129C30.7461 469.307 30.4995 469.448 30.2114 469.551C29.9234 469.65 29.5907 469.7 29.2133 469.7ZM29.8191 468.24C30.1303 468.24 30.4051 468.178 30.6435 468.056C30.8819 467.93 31.0689 467.761 31.2047 467.549C31.3404 467.337 31.4083 467.097 31.4083 466.829V466.02C31.342 466.063 31.251 466.103 31.1351 466.139C31.0226 466.172 30.8951 466.204 30.7527 466.233C30.6104 466.26 30.468 466.285 30.3257 466.308C30.1833 466.328 30.0542 466.346 29.9383 466.362C29.69 466.399 29.4731 466.457 29.2877 466.536C29.1023 466.616 28.9583 466.723 28.8557 466.859C28.7531 466.992 28.7017 467.157 28.7017 467.356C28.7017 467.644 28.806 467.864 29.0146 468.016C29.2265 468.165 29.4947 468.24 29.8191 468.24ZM41.343 464.103L39.4063 464.222C39.3732 464.057 39.302 463.908 39.1927 463.775C39.0835 463.639 38.9395 463.532 38.7607 463.452C38.5852 463.37 38.375 463.328 38.13 463.328C37.8022 463.328 37.5258 463.398 37.3006 463.537C37.0755 463.673 36.9629 463.855 36.9629 464.083C36.9629 464.265 37.0358 464.419 37.1815 464.545C37.3271 464.671 37.5771 464.772 37.9313 464.848L39.3119 465.126C40.0535 465.278 40.6064 465.523 40.9706 465.861C41.3348 466.199 41.5169 466.642 41.5169 467.192C41.5169 467.692 41.3695 468.13 41.0749 468.508C40.7835 468.885 40.3829 469.18 39.8731 469.392C39.3665 469.6 38.7822 469.705 38.12 469.705C37.1103 469.705 36.3058 469.494 35.7065 469.074C35.1106 468.65 34.7613 468.074 34.6587 467.346L36.7395 467.237C36.8024 467.544 36.9547 467.779 37.1964 467.942C37.438 468.101 37.7476 468.18 38.125 468.18C38.4958 468.18 38.7938 468.109 39.0189 467.967C39.2473 467.821 39.3632 467.634 39.3665 467.405C39.3632 467.213 39.2821 467.056 39.1232 466.934C38.9643 466.808 38.7193 466.712 38.3882 466.646L37.0672 466.382C36.3223 466.233 35.7678 465.975 35.4036 465.608C35.0427 465.24 34.8623 464.772 34.8623 464.202C34.8623 463.712 34.9947 463.29 35.2596 462.936C35.5278 462.582 35.9035 462.308 36.3869 462.116C36.8736 461.924 37.443 461.828 38.0952 461.828C39.0586 461.828 39.8168 462.032 40.3697 462.439C40.9259 462.846 41.2503 463.401 41.343 464.103ZM42.6952 469.556V461.928H44.8107V469.556H42.6952ZM43.7579 460.944C43.4434 460.944 43.1736 460.84 42.9484 460.632C42.7266 460.42 42.6157 460.166 42.6157 459.872C42.6157 459.58 42.7266 459.33 42.9484 459.122C43.1736 458.91 43.4434 458.804 43.7579 458.804C44.0724 458.804 44.3406 458.91 44.5624 459.122C44.7875 459.33 44.9001 459.58 44.9001 459.872C44.9001 460.166 44.7875 460.42 44.5624 460.632C44.3406 460.84 44.0724 460.944 43.7579 460.944Z" fill="black"/>
<path d="M231.049 14H229.001L232.122 4.95952H234.585L237.701 14H235.653L233.389 7.02541H233.318L231.049 14ZM230.921 10.4465H235.759V11.9385H230.921V10.4465ZM244.101 9.1531L242.38 9.25904C242.35 9.1119 242.287 8.97947 242.19 8.86176C242.093 8.7411 241.965 8.64546 241.806 8.57483C241.65 8.50126 241.463 8.46447 241.245 8.46447C240.954 8.46447 240.708 8.52627 240.508 8.64987C240.308 8.77053 240.208 8.93239 240.208 9.13544C240.208 9.2973 240.272 9.43414 240.402 9.54597C240.531 9.6578 240.754 9.74756 241.069 9.81525L242.296 10.0624C242.955 10.1978 243.446 10.4156 243.77 10.7158C244.094 11.0159 244.256 11.4103 244.256 11.8988C244.256 12.3432 244.125 12.7331 243.863 13.0686C243.604 13.4041 243.248 13.666 242.795 13.8543C242.344 14.0397 241.825 14.1324 241.236 14.1324C240.339 14.1324 239.624 13.9456 239.091 13.5718C238.561 13.1951 238.251 12.6831 238.16 12.0356L240.009 11.9385C240.065 12.2122 240.2 12.4212 240.415 12.5654C240.63 12.7066 240.905 12.7772 241.241 12.7772C241.57 12.7772 241.835 12.714 242.035 12.5874C242.238 12.4579 242.341 12.2917 242.344 12.0886C242.341 11.9179 242.269 11.7781 242.128 11.6693C241.987 11.5574 241.769 11.4721 241.475 11.4132L240.3 11.1793C239.638 11.0468 239.145 10.8173 238.822 10.4906C238.501 10.164 238.34 9.74756 238.34 9.24139C238.34 8.80584 238.458 8.43063 238.694 8.11574C238.932 7.80085 239.266 7.55807 239.696 7.38738C240.128 7.2167 240.634 7.13135 241.214 7.13135C242.071 7.13135 242.744 7.31234 243.236 7.67431C243.73 8.03628 244.019 8.52921 244.101 9.1531ZM245.303 14V7.21964H247.126V8.40267H247.197C247.32 7.98184 247.528 7.66401 247.819 7.44918C248.111 7.23141 248.446 7.12252 248.826 7.12252C248.92 7.12252 249.021 7.12841 249.13 7.14018C249.239 7.15195 249.335 7.16814 249.417 7.18874V8.85734C249.329 8.83086 249.207 8.80731 249.051 8.78671C248.895 8.76611 248.752 8.75581 248.623 8.75581C248.346 8.75581 248.099 8.81614 247.881 8.9368C247.666 9.05451 247.495 9.21932 247.369 9.4312C247.245 9.64309 247.184 9.88735 247.184 10.164V14H245.303ZM251.992 14.128C251.559 14.128 251.174 14.053 250.835 13.9029C250.497 13.7499 250.229 13.5247 250.032 13.2275C249.838 12.9273 249.741 12.5536 249.741 12.1063C249.741 11.7296 249.81 11.4132 249.948 11.1572C250.086 10.9012 250.275 10.6952 250.513 10.5392C250.752 10.3832 251.022 10.2655 251.325 10.186C251.631 10.1066 251.952 10.0507 252.288 10.0183C252.682 9.9771 253 9.93885 253.241 9.90353C253.482 9.86527 253.658 9.80936 253.766 9.73579C253.875 9.66222 253.93 9.55333 253.93 9.40913V9.38264C253.93 9.10307 253.842 8.88677 253.665 8.73374C253.491 8.58071 253.244 8.5042 252.923 8.5042C252.585 8.5042 252.316 8.57924 252.116 8.72933C251.915 8.87647 251.783 9.06187 251.718 9.28553L249.979 9.14427C250.067 8.73227 250.241 8.37618 250.5 8.07601C250.759 7.7729 251.093 7.54041 251.502 7.37855C251.914 7.21375 252.391 7.13135 252.932 7.13135C253.309 7.13135 253.669 7.1755 254.014 7.26378C254.361 7.35207 254.668 7.48891 254.936 7.67431C255.207 7.85971 255.42 8.09808 255.576 8.38943C255.732 8.67783 255.81 9.02361 255.81 9.42679V14H254.027V13.0598H253.974C253.865 13.2716 253.719 13.4585 253.537 13.6204C253.354 13.7793 253.135 13.9044 252.879 13.9956C252.623 14.0839 252.327 14.128 251.992 14.128ZM252.53 12.8302C252.807 12.8302 253.051 12.7758 253.263 12.6669C253.475 12.5551 253.641 12.405 253.762 12.2166C253.883 12.0283 253.943 11.8149 253.943 11.5766V10.857C253.884 10.8953 253.803 10.9306 253.7 10.963C253.6 10.9924 253.487 11.0203 253.36 11.0468C253.234 11.0704 253.107 11.0924 252.981 11.113C252.854 11.1307 252.739 11.1469 252.636 11.1616C252.416 11.194 252.223 11.2455 252.058 11.3161C251.893 11.3867 251.765 11.4824 251.674 11.603C251.583 11.7208 251.537 11.8679 251.537 12.0445C251.537 12.3005 251.63 12.4962 251.815 12.6316C252.004 12.764 252.242 12.8302 252.53 12.8302ZM257.132 14V7.21964H258.925V8.41591H259.004C259.145 8.01863 259.381 7.70521 259.71 7.47567C260.04 7.24612 260.434 7.13135 260.893 7.13135C261.358 7.13135 261.754 7.2476 262.081 7.48008C262.408 7.70963 262.625 8.02157 262.734 8.41591H262.805C262.943 8.02745 263.193 7.71698 263.555 7.4845C263.92 7.24907 264.351 7.13135 264.849 7.13135C265.481 7.13135 265.995 7.33294 266.389 7.73611C266.787 8.13634 266.985 8.70431 266.985 9.44003V14H265.109V9.81083C265.109 9.43414 265.009 9.15163 264.809 8.96329C264.609 8.77494 264.359 8.68077 264.059 8.68077C263.717 8.68077 263.451 8.78966 263.26 9.00743C263.068 9.22226 262.973 9.50624 262.973 9.85939V14H261.149V9.7711C261.149 9.43856 261.054 9.1737 260.863 8.97653C260.674 8.77936 260.426 8.68077 260.117 8.68077C259.908 8.68077 259.719 8.73374 259.552 8.83969C259.387 8.94269 259.256 9.08836 259.159 9.2767C259.062 9.4621 259.013 9.67987 259.013 9.93002V14H257.132ZM270.267 14.128C269.835 14.128 269.449 14.053 269.111 13.9029C268.772 13.7499 268.505 13.5247 268.307 13.2275C268.113 12.9273 268.016 12.5536 268.016 12.1063C268.016 11.7296 268.085 11.4132 268.224 11.1572C268.362 10.9012 268.55 10.6952 268.789 10.5392C269.027 10.3832 269.298 10.2655 269.601 10.186C269.907 10.1066 270.228 10.0507 270.563 10.0183C270.957 9.9771 271.275 9.93885 271.517 9.90353C271.758 9.86527 271.933 9.80936 272.042 9.73579C272.151 9.66222 272.205 9.55333 272.205 9.40913V9.38264C272.205 9.10307 272.117 8.88677 271.94 8.73374C271.767 8.58071 271.52 8.5042 271.199 8.5042C270.86 8.5042 270.591 8.57924 270.391 8.72933C270.191 8.87647 270.058 9.06187 269.994 9.28553L268.254 9.14427C268.343 8.73227 268.516 8.37618 268.775 8.07601C269.034 7.7729 269.368 7.54041 269.777 7.37855C270.189 7.21375 270.666 7.13135 271.208 7.13135C271.584 7.13135 271.945 7.1755 272.289 7.26378C272.636 7.35207 272.944 7.48891 273.212 7.67431C273.482 7.85971 273.696 8.09808 273.852 8.38943C274.008 8.67783 274.086 9.02361 274.086 9.42679V14H272.302V13.0598H272.249C272.14 13.2716 271.995 13.4585 271.812 13.6204C271.63 13.7793 271.411 13.9044 271.155 13.9956C270.899 14.0839 270.603 14.128 270.267 14.128ZM270.806 12.8302C271.083 12.8302 271.327 12.7758 271.539 12.6669C271.751 12.5551 271.917 12.405 272.037 12.2166C272.158 12.0283 272.218 11.8149 272.218 11.5766V10.857C272.16 10.8953 272.079 10.9306 271.976 10.963C271.876 10.9924 271.762 11.0203 271.636 11.0468C271.509 11.0704 271.383 11.0924 271.256 11.113C271.13 11.1307 271.015 11.1469 270.912 11.1616C270.691 11.194 270.498 11.2455 270.334 11.3161C270.169 11.3867 270.041 11.4824 269.949 11.603C269.858 11.7208 269.813 11.8679 269.813 12.0445C269.813 12.3005 269.905 12.4962 270.091 12.6316C270.279 12.764 270.517 12.8302 270.806 12.8302ZM283.768 4.95952H285.679V10.8305C285.679 11.4897 285.522 12.0665 285.207 12.5609C284.895 13.0553 284.458 13.4409 283.896 13.7175C283.333 13.9912 282.679 14.128 281.931 14.128C281.181 14.128 280.525 13.9912 279.962 13.7175C279.4 13.4409 278.963 13.0553 278.651 12.5609C278.339 12.0665 278.183 11.4897 278.183 10.8305V4.95952H280.095V10.6672C280.095 11.0115 280.17 11.3176 280.32 11.5854C280.473 11.8532 280.688 12.0636 280.964 12.2166C281.241 12.3697 281.563 12.4462 281.931 12.4462C282.302 12.4462 282.624 12.3697 282.898 12.2166C283.175 12.0636 283.388 11.8532 283.538 11.5854C283.691 11.3176 283.768 11.0115 283.768 10.6672V4.95952ZM289.026 4.95952V14H287.115V4.95952H289.026Z" fill="black"/>
<path d="M287.4 103.63C287.361 103.23 287.19 102.919 286.889 102.697C286.587 102.475 286.179 102.364 285.662 102.364C285.311 102.364 285.015 102.414 284.773 102.513C284.532 102.609 284.346 102.743 284.217 102.915C284.091 103.087 284.028 103.283 284.028 103.501C284.022 103.683 284.06 103.842 284.143 103.978C284.229 104.114 284.346 104.231 284.495 104.331C284.644 104.427 284.816 104.511 285.012 104.584C285.207 104.653 285.415 104.713 285.637 104.763L286.551 104.981C286.995 105.081 287.402 105.213 287.773 105.379C288.144 105.544 288.465 105.748 288.736 105.989C289.008 106.231 289.218 106.516 289.367 106.844C289.519 107.171 289.597 107.547 289.6 107.971C289.597 108.593 289.438 109.133 289.123 109.59C288.812 110.043 288.362 110.396 287.773 110.648C287.187 110.896 286.48 111.02 285.652 111.02C284.831 111.02 284.116 110.894 283.507 110.643C282.901 110.391 282.428 110.018 282.087 109.525C281.749 109.029 281.572 108.414 281.555 107.683H283.636C283.659 108.024 283.757 108.309 283.929 108.537C284.104 108.762 284.338 108.933 284.629 109.048C284.924 109.161 285.257 109.217 285.627 109.217C285.992 109.217 286.308 109.164 286.576 109.058C286.847 108.952 287.058 108.805 287.207 108.616C287.356 108.428 287.43 108.211 287.43 107.966C287.43 107.737 287.362 107.545 287.226 107.39C287.094 107.234 286.899 107.102 286.64 106.992C286.386 106.883 286.073 106.784 285.702 106.695L284.594 106.416C283.737 106.208 283.06 105.882 282.563 105.438C282.067 104.994 281.82 104.397 281.823 103.645C281.82 103.03 281.984 102.492 282.315 102.031C282.649 101.571 283.108 101.212 283.691 100.954C284.273 100.696 284.935 100.566 285.677 100.566C286.432 100.566 287.091 100.696 287.654 100.954C288.22 101.212 288.66 101.571 288.975 102.031C289.289 102.492 289.451 103.025 289.461 103.63H287.4ZM294.91 103.248V104.837H290.317V103.248H294.91ZM291.36 101.421H293.475V108.532C293.475 108.727 293.505 108.88 293.565 108.989C293.624 109.095 293.707 109.169 293.813 109.212C293.922 109.255 294.048 109.277 294.19 109.277C294.29 109.277 294.389 109.269 294.488 109.252C294.588 109.232 294.664 109.217 294.717 109.207L295.049 110.782C294.943 110.815 294.794 110.853 294.602 110.896C294.41 110.942 294.177 110.97 293.902 110.98C293.392 111 292.945 110.932 292.561 110.777C292.181 110.621 291.884 110.379 291.672 110.052C291.461 109.724 291.356 109.31 291.36 108.81V101.421ZM298.31 111.02C297.823 111.02 297.389 110.936 297.009 110.767C296.628 110.595 296.327 110.341 296.105 110.007C295.886 109.669 295.777 109.249 295.777 108.746C295.777 108.322 295.855 107.966 296.01 107.678C296.166 107.39 296.378 107.158 296.646 106.983C296.914 106.807 297.219 106.675 297.56 106.585C297.904 106.496 298.265 106.433 298.642 106.397C299.086 106.35 299.444 106.307 299.715 106.267C299.987 106.224 300.184 106.162 300.306 106.079C300.429 105.996 300.49 105.873 300.49 105.711V105.681C300.49 105.367 300.391 105.124 300.192 104.951C299.997 104.779 299.718 104.693 299.358 104.693C298.977 104.693 298.674 104.778 298.449 104.946C298.224 105.112 298.075 105.321 298.002 105.572L296.045 105.413C296.145 104.95 296.34 104.549 296.631 104.211C296.923 103.87 297.298 103.609 297.759 103.427C298.222 103.241 298.758 103.149 299.368 103.149C299.791 103.149 300.197 103.198 300.584 103.298C300.975 103.397 301.321 103.551 301.622 103.76C301.927 103.968 302.167 104.236 302.342 104.564C302.518 104.889 302.605 105.278 302.605 105.731V110.876H300.599V109.818H300.54C300.417 110.057 300.253 110.267 300.048 110.449C299.843 110.628 299.596 110.768 299.308 110.871C299.02 110.97 298.687 111.02 298.31 111.02ZM298.916 109.56C299.227 109.56 299.502 109.499 299.74 109.376C299.978 109.25 300.165 109.082 300.301 108.87C300.437 108.658 300.505 108.418 300.505 108.15V107.34C300.439 107.383 300.347 107.423 300.232 107.459C300.119 107.492 299.992 107.524 299.849 107.554C299.707 107.58 299.565 107.605 299.422 107.628C299.28 107.648 299.151 107.666 299.035 107.683C298.786 107.719 298.57 107.777 298.384 107.857C298.199 107.936 298.055 108.044 297.952 108.179C297.85 108.312 297.798 108.477 297.798 108.676C297.798 108.964 297.903 109.184 298.111 109.336C298.323 109.485 298.591 109.56 298.916 109.56ZM310.44 105.423L308.503 105.542C308.47 105.377 308.398 105.228 308.289 105.095C308.18 104.96 308.036 104.852 307.857 104.773C307.682 104.69 307.471 104.649 307.226 104.649C306.899 104.649 306.622 104.718 306.397 104.857C306.172 104.993 306.059 105.175 306.059 105.403C306.059 105.585 306.132 105.739 306.278 105.865C306.424 105.991 306.674 106.092 307.028 106.168L308.408 106.446C309.15 106.599 309.703 106.844 310.067 107.181C310.431 107.519 310.613 107.963 310.613 108.512C310.613 109.012 310.466 109.451 310.171 109.828C309.88 110.206 309.479 110.5 308.97 110.712C308.463 110.921 307.879 111.025 307.217 111.025C306.207 111.025 305.402 110.815 304.803 110.394C304.207 109.97 303.858 109.394 303.755 108.666L305.836 108.557C305.899 108.865 306.051 109.1 306.293 109.262C306.535 109.421 306.844 109.5 307.222 109.5C307.592 109.5 307.89 109.429 308.115 109.287C308.344 109.141 308.46 108.954 308.463 108.726C308.46 108.534 308.379 108.376 308.22 108.254C308.061 108.128 307.816 108.032 307.485 107.966L306.164 107.703C305.419 107.554 304.864 107.295 304.5 106.928C304.139 106.56 303.959 106.092 303.959 105.523C303.959 105.033 304.091 104.61 304.356 104.256C304.624 103.902 305 103.629 305.483 103.437C305.97 103.245 306.539 103.149 307.192 103.149C308.155 103.149 308.913 103.352 309.466 103.76C310.022 104.167 310.347 104.721 310.44 105.423ZM311.792 110.876V103.248H313.907V110.876H311.792ZM312.854 102.265C312.54 102.265 312.27 102.16 312.045 101.952C311.823 101.74 311.712 101.487 311.712 101.192C311.712 100.901 311.823 100.651 312.045 100.442C312.27 100.23 312.54 100.124 312.854 100.124C313.169 100.124 313.437 100.23 313.659 100.442C313.884 100.651 313.997 100.901 313.997 101.192C313.997 101.487 313.884 101.74 313.659 101.952C313.437 102.16 313.169 102.265 312.854 102.265ZM320.34 107.628V103.248H322.455V110.876H320.424V109.49H320.345C320.172 109.937 319.886 110.297 319.485 110.568C319.088 110.84 318.603 110.975 318.03 110.975C317.521 110.975 317.072 110.859 316.685 110.628C316.297 110.396 315.994 110.067 315.776 109.639C315.561 109.212 315.451 108.701 315.448 108.105V103.248H317.564V107.727C317.567 108.178 317.688 108.534 317.926 108.795C318.165 109.057 318.484 109.188 318.885 109.188C319.14 109.188 319.378 109.13 319.6 109.014C319.822 108.895 320 108.719 320.136 108.487C320.275 108.256 320.343 107.969 320.34 107.628ZM326.109 106.466V110.876H323.994V103.248H326.01V104.594H326.099C326.268 104.15 326.551 103.799 326.948 103.541C327.346 103.28 327.827 103.149 328.394 103.149C328.923 103.149 329.385 103.265 329.779 103.496C330.173 103.728 330.479 104.059 330.698 104.49C330.916 104.917 331.026 105.427 331.026 106.019V110.876H328.91V106.397C328.913 105.93 328.794 105.566 328.552 105.304C328.311 105.039 327.978 104.907 327.554 104.907C327.27 104.907 327.018 104.968 326.799 105.09C326.584 105.213 326.415 105.392 326.293 105.627C326.174 105.859 326.112 106.138 326.109 106.466ZM306.606 119.705H308.757V126.31C308.757 127.052 308.579 127.701 308.225 128.257C307.874 128.813 307.383 129.247 306.75 129.558C306.118 129.866 305.381 130.02 304.54 130.02C303.696 130.02 302.958 129.866 302.326 129.558C301.693 129.247 301.202 128.813 300.851 128.257C300.5 127.701 300.324 127.052 300.324 126.31V119.705H302.474V126.127C302.474 126.514 302.559 126.858 302.728 127.16C302.9 127.461 303.142 127.698 303.453 127.87C303.764 128.042 304.127 128.128 304.54 128.128C304.958 128.128 305.32 128.042 305.628 127.87C305.939 127.698 306.179 127.461 306.348 127.16C306.52 126.858 306.606 126.514 306.606 126.127V119.705ZM312.522 119.705V129.876H310.372V119.705H312.522Z" fill="black"/>
<rect x="242.298" y="21.7103" width="27.969" height="12.4307" rx="6.21533" fill="white" stroke="black" stroke-width="2.33075"/>
<path d="M261.658 28.0868L260.559 26.9882L257.224 30.3235V22.876H255.67V30.3235L252.335 26.9882L251.236 28.0868L256.447 33.2975L261.658 28.0868Z" fill="#494949"/>
<path d="M283.521 63.1839H286.173L288.973 70.0173H289.093L291.894 63.1839H294.545V73.3545H292.46V66.7347H292.375L289.743 73.3048H288.323L285.691 66.7099H285.606V73.3545H283.521V63.1839ZM299.6 73.5035C298.815 73.5035 298.14 73.3446 297.574 73.0267C297.011 72.7056 296.577 72.252 296.272 71.666C295.968 71.0767 295.816 70.3798 295.816 69.5753C295.816 68.7907 295.968 68.102 296.272 67.5094C296.577 66.9168 297.006 66.4549 297.559 66.1239C298.115 65.7928 298.767 65.6273 299.515 65.6273C300.019 65.6273 300.487 65.7084 300.921 65.8706C301.358 66.0295 301.738 66.2695 302.063 66.5907C302.391 66.9118 302.646 67.3157 302.828 67.8024C303.01 68.2858 303.101 68.8519 303.101 69.5008V70.0818H296.66V68.7708H301.109C301.109 68.4662 301.043 68.1964 300.911 67.9613C300.778 67.7263 300.595 67.5425 300.36 67.4101C300.128 67.2743 299.858 67.2065 299.55 67.2065C299.229 67.2065 298.944 67.281 298.696 67.43C298.451 67.5756 298.259 67.7726 298.12 68.0209C297.981 68.2659 297.91 68.539 297.906 68.8403V70.0868C297.906 70.4642 297.976 70.7903 298.115 71.0651C298.257 71.3399 298.458 71.5518 298.716 71.7008C298.974 71.8498 299.28 71.9243 299.635 71.9243C299.87 71.9243 300.085 71.8912 300.28 71.8249C300.475 71.7587 300.643 71.6594 300.782 71.527C300.921 71.3945 301.027 71.2323 301.1 71.0403L303.056 71.1694C302.957 71.6395 302.753 72.0501 302.445 72.401C302.141 72.7486 301.747 73.0201 301.263 73.2154C300.783 73.4075 300.229 73.5035 299.6 73.5035ZM306.443 68.9446V73.3545H304.328V65.7266H306.344V67.0724H306.433C306.602 66.6288 306.885 66.2778 307.282 66.0196C307.68 65.758 308.161 65.6273 308.728 65.6273C309.257 65.6273 309.719 65.7431 310.113 65.9749C310.507 66.2066 310.813 66.5377 311.032 66.9681C311.25 67.3952 311.36 67.905 311.36 68.4977V73.3545H309.244V68.8751C309.247 68.4083 309.128 68.0441 308.886 67.7825C308.645 67.5177 308.312 67.3853 307.888 67.3853C307.604 67.3853 307.352 67.4465 307.133 67.569C306.918 67.6915 306.749 67.8703 306.627 68.1053C306.508 68.3371 306.446 68.6168 306.443 68.9446ZM314.378 73.3545L312.302 65.7266H314.442L315.624 70.8516H315.694L316.925 65.7266H319.026L320.278 70.8218H320.342L321.504 65.7266H323.64L321.569 73.3545H319.329L318.018 68.5573H317.924L316.613 73.3545H314.378ZM326.789 73.4985C326.303 73.4985 325.869 73.4141 325.488 73.2452C325.108 73.0731 324.806 72.8198 324.584 72.4854C324.366 72.1477 324.257 71.7273 324.257 71.224C324.257 70.8003 324.335 70.4444 324.49 70.1563C324.646 69.8683 324.858 69.6365 325.126 69.4611C325.394 69.2856 325.699 69.1532 326.04 69.0638C326.384 68.9744 326.745 68.9115 327.122 68.8751C327.566 68.8287 327.923 68.7857 328.195 68.746C328.466 68.7029 328.663 68.64 328.786 68.5573C328.908 68.4745 328.97 68.352 328.97 68.1898V68.16C328.97 67.8454 328.87 67.6021 328.672 67.43C328.476 67.2578 328.198 67.1717 327.837 67.1717C327.457 67.1717 327.154 67.2561 326.928 67.425C326.703 67.5905 326.554 67.7991 326.482 68.0507L324.525 67.8918C324.624 67.4283 324.82 67.0277 325.111 66.69C325.402 66.349 325.778 66.0875 326.238 65.9054C326.702 65.72 327.238 65.6273 327.847 65.6273C328.271 65.6273 328.677 65.6769 329.064 65.7762C329.455 65.8756 329.801 66.0295 330.102 66.2381C330.406 66.4467 330.646 66.7148 330.822 67.0426C330.997 67.367 331.085 67.7561 331.085 68.2096V73.3545H329.079V72.2967H329.019C328.897 72.5351 328.733 72.7453 328.528 72.9274C328.322 73.1062 328.076 73.2469 327.788 73.3495C327.5 73.4488 327.167 73.4985 326.789 73.4985ZM327.395 72.0385C327.706 72.0385 327.981 71.9772 328.22 71.8547C328.458 71.7289 328.645 71.5601 328.781 71.3482C328.917 71.1363 328.984 70.8963 328.984 70.6281V69.8186C328.918 69.8617 328.827 69.9014 328.711 69.9378C328.599 69.9709 328.471 70.0024 328.329 70.0322C328.187 70.0587 328.044 70.0835 327.902 70.1067C327.759 70.1265 327.63 70.1447 327.514 70.1613C327.266 70.1977 327.049 70.2557 326.864 70.3351C326.679 70.4146 326.534 70.5222 326.432 70.6579C326.329 70.7903 326.278 70.9559 326.278 71.1545C326.278 71.4425 326.382 71.6627 326.591 71.815C326.803 71.964 327.071 72.0385 327.395 72.0385Z" fill="black"/>
<circle cx="249.239" cy="401.468" r="7.38071" fill="white" stroke="black" stroke-width="2.33075"/>
<path d="M249.239 407.682C245.812 407.682 243.023 404.893 243.023 401.466C243.023 398.039 245.812 395.251 249.239 395.251C252.666 395.251 255.454 398.039 255.454 401.466C255.454 404.893 252.666 407.682 249.239 407.682ZM249.239 398.359L246.131 401.466H248.617V404.574H249.86V401.466H252.346L249.239 398.359Z" fill="#494949"/>
<circle r="7.38071" transform="matrix(1 0 0 -1 265.503 401.467)" fill="white" stroke="black" stroke-width="2.33075"/>
<path d="M265.502 395.253C262.075 395.253 259.287 398.041 259.287 401.468C259.287 404.895 262.075 407.684 265.502 407.684C268.93 407.684 271.718 404.895 271.718 401.468C271.718 398.041 268.93 395.253 265.502 395.253ZM265.502 404.576L262.395 401.468H264.881V398.361H266.124V401.468H268.61L265.502 404.576Z" fill="#494949"/>
<circle cx="60.0539" cy="401.468" r="7.38071" fill="white" stroke="black" stroke-width="2.33075"/>
<path d="M60.0532 407.682C56.6261 407.682 53.8379 404.893 53.8379 401.466C53.8379 398.039 56.6261 395.251 60.0532 395.251C63.4804 395.251 66.2686 398.039 66.2686 401.466C66.2686 404.893 63.4804 407.682 60.0532 407.682ZM60.0532 398.359L56.9456 401.466H59.4317V404.574H60.6748V401.466H63.1609L60.0532 398.359Z" fill="#494949"/>
<circle r="7.38071" transform="matrix(1 0 0 -1 76.3176 401.467)" fill="white" stroke="black" stroke-width="2.33075"/>
<path d="M76.3169 395.253C72.8898 395.253 70.1016 398.041 70.1016 401.468C70.1016 404.895 72.8898 407.684 76.3169 407.684C79.744 407.684 82.5322 404.895 82.5322 401.468C82.5322 398.041 79.744 395.253 76.3169 395.253ZM76.3169 404.576L73.2092 401.468H75.6954V398.361H76.9384V401.468H79.4246L76.3169 404.576Z" fill="#494949"/>
<circle cx="249.239" cy="464.814" r="7.38071" fill="white" stroke="black" stroke-width="2.33075"/>
<path d="M249.239 471.027C245.812 471.027 243.023 468.239 243.023 464.812C243.023 461.385 245.812 458.597 249.239 458.597C252.666 458.597 255.454 461.385 255.454 464.812C255.454 468.239 252.666 471.027 249.239 471.027ZM249.239 461.704L246.131 464.812H248.617V467.92H249.86V464.812H252.346L249.239 461.704Z" fill="#494949"/>
<circle r="7.38071" transform="matrix(1 0 0 -1 265.503 464.813)" fill="white" stroke="black" stroke-width="2.33075"/>
<path d="M265.502 458.6C262.075 458.6 259.287 461.388 259.287 464.815C259.287 468.242 262.075 471.03 265.502 471.03C268.93 471.03 271.718 468.242 271.718 464.815C271.718 461.388 268.93 458.6 265.502 458.6ZM265.502 467.923L262.395 464.815H264.881V461.707H266.124V464.815H268.61L265.502 467.923Z" fill="#494949"/>
<circle cx="60.0539" cy="464.815" r="7.38071" fill="white" stroke="black" stroke-width="2.33075"/>
<path d="M60.0532 471.028C56.6261 471.028 53.8379 468.24 53.8379 464.813C53.8379 461.386 56.6261 458.598 60.0532 458.598C63.4804 458.598 66.2686 461.386 66.2686 464.813C66.2686 468.24 63.4804 471.028 60.0532 471.028ZM60.0532 461.705L56.9456 464.813H59.4317V467.921H60.6748V464.813H63.1609L60.0532 461.705Z" fill="#494949"/>
<circle r="7.38071" transform="matrix(1 0 0 -1 76.3176 464.813)" fill="white" stroke="black" stroke-width="2.33075"/>
<path d="M76.3169 458.6C72.8898 458.6 70.1016 461.388 70.1016 464.815C70.1016 468.242 72.8898 471.03 76.3169 471.03C79.744 471.03 82.5322 468.242 82.5322 464.815C82.5322 461.388 79.744 458.6 76.3169 458.6ZM76.3169 467.923L73.2092 464.815H75.6954V461.707H76.9384V464.815H79.4246L76.3169 467.923Z" fill="#494949"/>
<circle cx="249.239" cy="338.121" r="7.38071" fill="white" stroke="black" stroke-width="2.33075"/>
<path d="M249.239 344.335C245.812 344.335 243.023 341.547 243.023 338.12C243.023 334.692 245.812 331.904 249.239 331.904C252.666 331.904 255.454 334.692 255.454 338.12C255.454 341.547 252.666 344.335 249.239 344.335ZM249.239 335.012L246.131 338.12H248.617V341.227H249.86V338.12H252.346L249.239 335.012Z" fill="#494949"/>
<circle r="7.38071" transform="matrix(1 0 0 -1 265.503 338.12)" fill="white" stroke="black" stroke-width="2.33075"/>
<path d="M265.502 331.906C262.075 331.906 259.287 334.694 259.287 338.122C259.287 341.549 262.075 344.337 265.502 344.337C268.93 344.337 271.718 341.549 271.718 338.122C271.718 334.694 268.93 331.906 265.502 331.906ZM265.502 341.229L262.395 338.122H264.881V335.014H266.124V338.122H268.61L265.502 341.229Z" fill="#494949"/>
<circle cx="60.0539" cy="338.121" r="7.38071" fill="white" stroke="black" stroke-width="2.33075"/>
<path d="M60.0532 344.335C56.6261 344.335 53.8379 341.547 53.8379 338.12C53.8379 334.692 56.6261 331.904 60.0532 331.904C63.4804 331.904 66.2686 334.692 66.2686 338.12C66.2686 341.547 63.4804 344.335 60.0532 344.335ZM60.0532 335.012L56.9456 338.12H59.4317V341.227H60.6748V338.12H63.1609L60.0532 335.012Z" fill="#494949"/>
<circle r="7.38071" transform="matrix(1 0 0 -1 76.3176 338.12)" fill="white" stroke="black" stroke-width="2.33075"/>
<path d="M76.3169 331.906C72.8898 331.906 70.1016 334.694 70.1016 338.122C70.1016 341.549 72.8898 344.337 76.3169 344.337C79.744 344.337 82.5322 341.549 82.5322 338.122C82.5322 334.694 79.744 331.906 76.3169 331.906ZM76.3169 341.229L73.2092 338.122H75.6954V335.014H76.9384V338.122H79.4246L76.3169 341.229Z" fill="#494949"/>
<circle cx="249.239" cy="274.774" r="7.38071" fill="white" stroke="black" stroke-width="2.33075"/>
<path d="M249.239 280.987C245.812 280.987 243.023 278.199 243.023 274.772C243.023 271.345 245.812 268.557 249.239 268.557C252.666 268.557 255.454 271.345 255.454 274.772C255.454 278.199 252.666 280.987 249.239 280.987ZM249.239 271.664L246.131 274.772H248.617V277.88H249.86V274.772H252.346L249.239 271.664Z" fill="#494949"/>
<circle r="7.38071" transform="matrix(1 0 0 -1 265.503 274.772)" fill="white" stroke="black" stroke-width="2.33075"/>
<path d="M265.502 268.559C262.075 268.559 259.287 271.347 259.287 274.774C259.287 278.201 262.075 280.989 265.502 280.989C268.93 280.989 271.718 278.201 271.718 274.774C271.718 271.347 268.93 268.559 265.502 268.559ZM265.502 277.882L262.395 274.774H264.881V271.666H266.124V274.774H268.61L265.502 277.882Z" fill="#494949"/>
<circle cx="60.0539" cy="274.774" r="7.38071" fill="white" stroke="black" stroke-width="2.33075"/>
<path d="M60.0532 280.987C56.6261 280.987 53.8379 278.199 53.8379 274.772C53.8379 271.345 56.6261 268.557 60.0532 268.557C63.4804 268.557 66.2686 271.345 66.2686 274.772C66.2686 278.199 63.4804 280.987 60.0532 280.987ZM60.0532 271.664L56.9456 274.772H59.4317V277.88H60.6748V274.772H63.1609L60.0532 271.664Z" fill="#494949"/>
<circle r="7.38071" transform="matrix(1 0 0 -1 76.3176 274.772)" fill="white" stroke="black" stroke-width="2.33075"/>
<path d="M76.3169 268.559C72.8898 268.559 70.1016 271.347 70.1016 274.774C70.1016 278.201 72.8898 280.989 76.3169 280.989C79.744 280.989 82.5322 278.201 82.5322 274.774C82.5322 271.347 79.744 268.559 76.3169 268.559ZM76.3169 277.882L73.2092 274.774H75.6954V271.666H76.9384V274.774H79.4246L76.3169 277.882Z" fill="#494949"/>
<circle cx="249.239" cy="210.573" r="7.38071" fill="white" stroke="black" stroke-width="2.33075"/>
<path d="M249.239 216.787C245.812 216.787 243.023 213.999 243.023 210.572C243.023 207.145 245.812 204.356 249.239 204.356C252.666 204.356 255.454 207.145 255.454 210.572C255.454 213.999 252.666 216.787 249.239 216.787ZM249.239 207.464L246.131 210.572H248.617V213.679H249.86V210.572H252.346L249.239 207.464Z" fill="#494949"/>
<circle r="7.38071" transform="matrix(1 0 0 -1 265.503 210.572)" fill="white" stroke="black" stroke-width="2.33075"/>
<path d="M265.502 204.358C262.075 204.358 259.287 207.147 259.287 210.574C259.287 214.001 262.075 216.789 265.502 216.789C268.93 216.789 271.718 214.001 271.718 210.574C271.718 207.147 268.93 204.358 265.502 204.358ZM265.502 213.681L262.395 210.574H264.881V207.466H266.124V210.574H268.61L265.502 213.681Z" fill="#494949"/>
<circle cx="249.239" cy="114.695" r="7.38071" fill="white" stroke="black" stroke-width="2.33075"/>
<path d="M249.239 120.909C245.812 120.909 243.023 118.121 243.023 114.694C243.023 111.267 245.812 108.479 249.239 108.479C252.666 108.479 255.454 111.267 255.454 114.694C255.454 118.121 252.666 120.909 249.239 120.909ZM249.239 111.586L246.131 114.694H248.617V117.802H249.86V114.694H252.346L249.239 111.586Z" fill="#494949"/>
<circle r="7.38071" transform="matrix(1 0 0 -1 265.503 114.694)" fill="white" stroke="black" stroke-width="2.33075"/>
<path d="M265.502 108.48C262.075 108.48 259.287 111.269 259.287 114.696C259.287 118.123 262.075 120.911 265.502 120.911C268.93 120.911 271.718 118.123 271.718 114.696C271.718 111.269 268.93 108.48 265.502 108.48ZM265.502 117.803L262.395 114.696H264.881V111.588H266.124V114.696H268.61L265.502 117.803Z" fill="#494949"/>
<circle cx="249.239" cy="70.1808" r="7.38071" fill="white" stroke="black" stroke-width="2.33075"/>
<path d="M249.239 76.3945C245.812 76.3945 243.023 73.6063 243.023 70.1792C243.023 66.7521 245.812 63.9639 249.239 63.9639C252.666 63.9639 255.454 66.7521 255.454 70.1792C255.454 73.6063 252.666 76.3945 249.239 76.3945ZM249.239 67.0715L246.131 70.1792H248.617V73.2869H249.86V70.1792H252.346L249.239 67.0715Z" fill="#494949"/>
<circle r="7.38071" transform="matrix(1 0 0 -1 265.503 70.1824)" fill="white" stroke="black" stroke-width="2.33075"/>
<path d="M265.502 63.9688C262.075 63.9688 259.287 66.7569 259.287 70.1841C259.287 73.6112 262.075 76.3994 265.502 76.3994C268.93 76.3994 271.718 73.6112 271.718 70.1841C271.718 66.7569 268.93 63.9688 265.502 63.9688ZM265.502 73.2917L262.395 70.1841H264.881V67.0764H266.124V70.1841H268.61L265.502 73.2917Z" fill="#494949"/>
<circle cx="249.239" cy="210.573" r="7.38071" fill="white" stroke="black" stroke-width="2.33075"/>
<path d="M249.239 216.787C245.812 216.787 243.023 213.999 243.023 210.572C243.023 207.145 245.812 204.356 249.239 204.356C252.666 204.356 255.454 207.145 255.454 210.572C255.454 213.999 252.666 216.787 249.239 216.787ZM249.239 207.464L246.131 210.572H248.617V213.679H249.86V210.572H252.346L249.239 207.464Z" fill="#494949"/>
<circle r="7.38071" transform="matrix(1 0 0 -1 265.503 210.572)" fill="white" stroke="black" stroke-width="2.33075"/>
<path d="M265.502 204.358C262.075 204.358 259.287 207.147 259.287 210.574C259.287 214.001 262.075 216.789 265.502 216.789C268.93 216.789 271.718 214.001 271.718 210.574C271.718 207.147 268.93 204.358 265.502 204.358ZM265.502 213.681L262.395 210.574H264.881V207.466H266.124V210.574H268.61L265.502 213.681Z" fill="#494949"/>
<circle cx="60.0539" cy="210.573" r="7.38071" fill="white" stroke="black" stroke-width="2.33075"/>
<path d="M60.0532 216.787C56.6261 216.787 53.8379 213.999 53.8379 210.572C53.8379 207.145 56.6261 204.356 60.0532 204.356C63.4804 204.356 66.2686 207.145 66.2686 210.572C66.2686 213.999 63.4804 216.787 60.0532 216.787ZM60.0532 207.464L56.9456 210.572H59.4317V213.679H60.6748V210.572H63.1609L60.0532 207.464Z" fill="#494949"/>
<circle r="7.38071" transform="matrix(1 0 0 -1 76.3176 210.572)" fill="white" stroke="black" stroke-width="2.33075"/>
<path d="M76.3169 204.358C72.8898 204.358 70.1016 207.147 70.1016 210.574C70.1016 214.001 72.8898 216.789 76.3169 216.789C79.744 216.789 82.5322 214.001 82.5322 210.574C82.5322 207.147 79.744 204.358 76.3169 204.358ZM76.3169 213.681L73.2092 210.574H75.6954V207.466H76.9384V210.574H79.4246L76.3169 213.681Z" fill="#494949"/>
<circle cx="161.921" cy="161.778" r="7.38071" transform="rotate(90 161.921 161.778)" fill="white" stroke="black" stroke-width="2.33075"/>
<path d="M155.707 161.778C155.707 158.351 158.495 155.563 161.922 155.563C165.349 155.563 168.138 158.351 168.138 161.778C168.138 165.205 165.349 167.993 161.922 167.993C158.495 167.993 155.707 165.205 155.707 161.778ZM165.03 161.778L161.922 158.67L161.922 161.156L158.815 161.156L158.815 162.399L161.922 162.399L161.922 164.885L165.03 161.778Z" fill="#494949"/>
<circle r="7.38071" transform="matrix(-4.37114e-08 1 1 4.37114e-08 161.919 178.043)" fill="white" stroke="black" stroke-width="2.33075"/>
<path d="M168.133 178.043C168.133 174.616 165.345 171.828 161.917 171.828C158.49 171.828 155.702 174.616 155.702 178.043C155.702 181.471 158.49 184.259 161.917 184.259C165.345 184.259 168.133 181.471 168.133 178.043ZM158.81 178.043L161.917 174.936L161.917 177.422L165.025 177.422L165.025 178.665L161.917 178.665L161.917 181.151L158.81 178.043Z" fill="#494949"/>
<circle cx="118.264" cy="506.759" r="7.38071" transform="rotate(90 118.264 506.759)" fill="white" stroke="black" stroke-width="2.33075"/>
<path d="M112.051 506.759C112.051 503.332 114.839 500.544 118.266 500.544C121.693 500.544 124.481 503.332 124.481 506.759C124.481 510.186 121.693 512.975 118.266 512.975C114.839 512.975 112.051 510.186 112.051 506.759ZM121.374 506.759L118.266 503.652L118.266 506.138L115.158 506.138L115.158 507.381L118.266 507.381L118.266 509.867L121.374 506.759Z" fill="#494949"/>
<circle r="7.38071" transform="matrix(-4.37114e-08 1 1 4.37114e-08 118.263 523.025)" fill="white" stroke="black" stroke-width="2.33075"/>
<path d="M124.477 523.024C124.477 519.597 121.688 516.809 118.261 516.809C114.834 516.809 112.046 519.597 112.046 523.024C112.046 526.451 114.834 529.239 118.261 529.239C121.688 529.239 124.477 526.451 124.477 523.024ZM115.154 523.024L118.261 519.916L118.261 522.402L121.369 522.402L121.369 523.645L118.261 523.645L118.261 526.132L115.154 523.024Z" fill="#494949"/>
<circle cx="214.997" cy="506.759" r="7.38071" transform="rotate(90 214.997 506.759)" fill="white" stroke="black" stroke-width="2.33075"/>
<path d="M208.783 506.759C208.783 503.332 211.571 500.544 214.999 500.544C218.426 500.544 221.214 503.332 221.214 506.759C221.214 510.186 218.426 512.975 214.999 512.975C211.571 512.975 208.783 510.186 208.783 506.759ZM218.106 506.759L214.999 503.652L214.999 506.138L211.891 506.138L211.891 507.381L214.999 507.381L214.999 509.867L218.106 506.759Z" fill="#494949"/>
<circle r="7.38071" transform="matrix(-4.37114e-08 1 1 4.37114e-08 214.995 523.024)" fill="white" stroke="black" stroke-width="2.33075"/>
<path d="M221.209 523.024C221.209 519.597 218.421 516.809 214.994 516.809C211.567 516.809 208.778 519.597 208.778 523.024C208.778 526.451 211.567 529.239 214.994 529.239C218.421 529.239 221.209 526.451 221.209 523.024ZM211.886 523.024L214.994 519.916L214.994 522.402L218.101 522.402L218.101 523.645L214.994 523.645L214.994 526.132L211.886 523.024Z" fill="#494949"/>
<path d="M168.929 205.142H171.581L174.382 211.975H174.501L177.302 205.142H179.954V215.312H177.868V208.693H177.784L175.152 215.263H173.732L171.1 208.668H171.015V215.312H168.929V205.142ZM183.707 215.457C183.221 215.457 182.787 215.372 182.406 215.203C182.026 215.031 181.724 214.778 181.502 214.443C181.284 214.106 181.175 213.685 181.175 213.182C181.175 212.758 181.253 212.402 181.408 212.114C181.564 211.826 181.776 211.595 182.044 211.419C182.312 211.244 182.617 211.111 182.958 211.022C183.302 210.932 183.663 210.87 184.04 210.833C184.484 210.787 184.841 210.744 185.113 210.704C185.384 210.661 185.581 210.598 185.704 210.515C185.826 210.432 185.888 210.31 185.888 210.148V210.118C185.888 209.803 185.788 209.56 185.59 209.388C185.394 209.216 185.116 209.13 184.755 209.13C184.375 209.13 184.072 209.214 183.846 209.383C183.621 209.549 183.472 209.757 183.4 210.009L181.443 209.85C181.542 209.386 181.738 208.986 182.029 208.648C182.32 208.307 182.696 208.045 183.156 207.863C183.62 207.678 184.156 207.585 184.765 207.585C185.189 207.585 185.595 207.635 185.982 207.734C186.373 207.834 186.719 207.988 187.02 208.196C187.324 208.405 187.564 208.673 187.74 209.001C187.915 209.325 188.003 209.714 188.003 210.168V215.312H185.997V214.255H185.937C185.815 214.493 185.651 214.703 185.446 214.885C185.24 215.064 184.994 215.205 184.706 215.308C184.418 215.407 184.085 215.457 183.707 215.457ZM184.313 213.996C184.624 213.996 184.899 213.935 185.138 213.813C185.376 213.687 185.563 213.518 185.699 213.306C185.835 213.094 185.902 212.854 185.902 212.586V211.777C185.836 211.82 185.745 211.859 185.629 211.896C185.517 211.929 185.389 211.96 185.247 211.99C185.105 212.017 184.962 212.042 184.82 212.065C184.677 212.085 184.548 212.103 184.432 212.119C184.184 212.156 183.967 212.214 183.782 212.293C183.596 212.373 183.452 212.48 183.35 212.616C183.247 212.748 183.196 212.914 183.196 213.113C183.196 213.401 183.3 213.621 183.509 213.773C183.721 213.922 183.989 213.996 184.313 213.996ZM195.837 209.86L193.9 209.979C193.867 209.813 193.796 209.664 193.687 209.532C193.578 209.396 193.434 209.289 193.255 209.209C193.079 209.126 192.869 209.085 192.624 209.085C192.296 209.085 192.02 209.155 191.795 209.294C191.57 209.429 191.457 209.611 191.457 209.84C191.457 210.022 191.53 210.176 191.676 210.302C191.821 210.428 192.071 210.529 192.425 210.605L193.806 210.883C194.548 211.035 195.101 211.28 195.465 211.618C195.829 211.955 196.011 212.399 196.011 212.949C196.011 213.449 195.864 213.887 195.569 214.265C195.278 214.642 194.877 214.937 194.367 215.149C193.861 215.357 193.276 215.461 192.614 215.461C191.604 215.461 190.8 215.251 190.201 214.831C189.605 214.407 189.255 213.831 189.153 213.103L191.234 212.993C191.297 213.301 191.449 213.536 191.691 213.699C191.932 213.857 192.242 213.937 192.619 213.937C192.99 213.937 193.288 213.866 193.513 213.723C193.742 213.578 193.857 213.391 193.861 213.162C193.857 212.97 193.776 212.813 193.617 212.69C193.458 212.565 193.213 212.469 192.882 212.402L191.561 212.139C190.816 211.99 190.262 211.732 189.898 211.364C189.537 210.997 189.356 210.529 189.356 209.959C189.356 209.469 189.489 209.047 189.754 208.693C190.022 208.338 190.398 208.065 190.881 207.873C191.368 207.681 191.937 207.585 192.589 207.585C193.553 207.585 194.311 207.789 194.864 208.196C195.42 208.603 195.744 209.158 195.837 209.86ZM197.189 207.685H199.305V215.69C199.305 216.279 199.189 216.756 198.957 217.12C198.726 217.484 198.393 217.751 197.959 217.92C197.529 218.089 197.014 218.173 196.415 218.173C196.342 218.173 196.272 218.171 196.206 218.168C196.137 218.168 196.064 218.166 195.988 218.163V216.509C196.044 216.513 196.093 216.514 196.137 216.514C196.176 216.518 196.219 216.519 196.266 216.519C196.607 216.519 196.845 216.446 196.981 216.301C197.12 216.158 197.189 215.943 197.189 215.655V207.685ZM198.242 206.701C197.931 206.701 197.663 206.597 197.438 206.388C197.213 206.177 197.1 205.923 197.1 205.629C197.1 205.337 197.213 205.087 197.438 204.879C197.663 204.667 197.931 204.561 198.242 204.561C198.56 204.561 198.83 204.667 199.052 204.879C199.277 205.087 199.389 205.337 199.389 205.629C199.389 205.923 199.277 206.177 199.052 206.388C198.83 206.597 198.56 206.701 198.242 206.701ZM200.846 215.312V207.685H202.961V215.312H200.846ZM201.908 206.701C201.594 206.701 201.324 206.597 201.099 206.388C200.877 206.177 200.766 205.923 200.766 205.629C200.766 205.337 200.877 205.087 201.099 204.879C201.324 204.667 201.594 204.561 201.908 204.561C202.223 204.561 202.491 204.667 202.713 204.879C202.938 205.087 203.051 205.337 203.051 205.629C203.051 205.923 202.938 206.177 202.713 206.388C202.491 206.597 202.223 206.701 201.908 206.701ZM207.313 215.437C206.734 215.437 206.209 215.288 205.739 214.99C205.272 214.688 204.901 214.246 204.626 213.664C204.355 213.078 204.219 212.359 204.219 211.508C204.219 210.634 204.36 209.908 204.641 209.328C204.923 208.746 205.297 208.31 205.764 208.022C206.234 207.731 206.748 207.585 207.308 207.585C207.735 207.585 208.091 207.658 208.376 207.804C208.664 207.946 208.895 208.125 209.071 208.34C209.25 208.552 209.385 208.761 209.478 208.966H209.543V205.142H211.653V215.312H209.568V214.091H209.478C209.379 214.303 209.238 214.513 209.056 214.722C208.877 214.927 208.644 215.097 208.356 215.233C208.071 215.369 207.723 215.437 207.313 215.437ZM207.983 213.753C208.324 213.753 208.612 213.66 208.847 213.475C209.086 213.286 209.268 213.023 209.394 212.685C209.523 212.348 209.587 211.952 209.587 211.499C209.587 211.045 209.524 210.651 209.399 210.317C209.273 209.982 209.091 209.724 208.852 209.542C208.614 209.36 208.324 209.269 207.983 209.269C207.636 209.269 207.343 209.363 207.104 209.552C206.866 209.741 206.686 210.002 206.563 210.336C206.441 210.671 206.379 211.058 206.379 211.499C206.379 211.942 206.441 212.335 206.563 212.676C206.689 213.013 206.869 213.278 207.104 213.47C207.343 213.659 207.636 213.753 207.983 213.753ZM222.643 205.142H224.794V211.747C224.794 212.488 224.617 213.137 224.262 213.694C223.911 214.25 223.42 214.683 222.787 214.995C222.155 215.303 221.419 215.457 220.578 215.457C219.733 215.457 218.995 215.303 218.363 214.995C217.73 214.683 217.239 214.25 216.888 213.694C216.537 213.137 216.361 212.488 216.361 211.747V205.142H218.512V211.563C218.512 211.95 218.596 212.295 218.765 212.596C218.937 212.897 219.179 213.134 219.49 213.306C219.801 213.478 220.164 213.564 220.578 213.564C220.995 213.564 221.357 213.478 221.665 213.306C221.976 213.134 222.216 212.897 222.385 212.596C222.557 212.295 222.643 211.95 222.643 211.563V205.142ZM228.559 205.142V215.312H226.409V205.142H228.559Z" fill="black"/>
<path d="M297.074 269.038C297.043 268.719 296.907 268.471 296.667 268.295C296.428 268.118 296.102 268.03 295.691 268.03C295.412 268.03 295.176 268.07 294.984 268.149C294.792 268.225 294.644 268.332 294.541 268.469C294.441 268.606 294.391 268.761 294.391 268.935C294.386 269.08 294.416 269.207 294.482 269.315C294.551 269.423 294.644 269.516 294.763 269.595C294.881 269.672 295.018 269.739 295.174 269.797C295.329 269.852 295.495 269.899 295.672 269.939L296.399 270.113C296.752 270.192 297.076 270.297 297.371 270.429C297.666 270.561 297.921 270.723 298.138 270.915C298.354 271.107 298.521 271.334 298.639 271.595C298.761 271.856 298.822 272.155 298.825 272.492C298.822 272.987 298.696 273.417 298.446 273.78C298.198 274.141 297.84 274.422 297.371 274.622C296.905 274.82 296.342 274.918 295.683 274.918C295.03 274.918 294.461 274.818 293.976 274.618C293.494 274.418 293.117 274.121 292.846 273.729C292.577 273.334 292.436 272.845 292.423 272.263H294.079C294.097 272.534 294.175 272.761 294.312 272.942C294.452 273.122 294.637 273.257 294.869 273.349C295.104 273.439 295.369 273.484 295.664 273.484C295.953 273.484 296.205 273.442 296.418 273.357C296.634 273.273 296.802 273.156 296.92 273.006C297.039 272.855 297.098 272.683 297.098 272.488C297.098 272.306 297.044 272.153 296.936 272.029C296.831 271.906 296.675 271.8 296.47 271.713C296.267 271.626 296.018 271.547 295.723 271.476L294.842 271.255C294.159 271.089 293.621 270.829 293.225 270.476C292.83 270.123 292.634 269.648 292.636 269.05C292.634 268.56 292.764 268.132 293.028 267.765C293.294 267.399 293.659 267.113 294.122 266.908C294.586 266.702 295.113 266.6 295.703 266.6C296.304 266.6 296.828 266.702 297.276 266.908C297.727 267.113 298.077 267.399 298.327 267.765C298.577 268.132 298.707 268.556 298.714 269.038H297.074ZM303.051 268.734V269.998H299.395V268.734H303.051ZM300.225 267.279H301.909V272.938C301.909 273.094 301.932 273.215 301.98 273.302C302.027 273.386 302.093 273.446 302.177 273.48C302.264 273.514 302.364 273.531 302.478 273.531C302.557 273.531 302.636 273.525 302.715 273.511C302.794 273.496 302.854 273.484 302.897 273.476L303.161 274.729C303.077 274.755 302.959 274.785 302.806 274.82C302.653 274.856 302.467 274.879 302.249 274.887C301.843 274.903 301.487 274.848 301.182 274.725C300.879 274.601 300.643 274.409 300.474 274.148C300.306 273.887 300.223 273.558 300.225 273.16V267.279ZM305.756 274.918C305.369 274.918 305.024 274.851 304.721 274.717C304.418 274.58 304.178 274.378 304.001 274.112C303.827 273.843 303.74 273.509 303.74 273.108C303.74 272.771 303.802 272.488 303.926 272.259C304.05 272.029 304.219 271.845 304.432 271.705C304.645 271.566 304.888 271.46 305.159 271.389C305.433 271.318 305.72 271.268 306.021 271.239C306.374 271.202 306.658 271.168 306.874 271.136C307.09 271.102 307.247 271.052 307.345 270.986C307.442 270.92 307.491 270.823 307.491 270.694V270.67C307.491 270.42 307.412 270.226 307.254 270.089C307.098 269.952 306.877 269.884 306.59 269.884C306.287 269.884 306.046 269.951 305.867 270.085C305.687 270.217 305.569 270.383 305.511 270.583L303.954 270.457C304.033 270.088 304.188 269.769 304.42 269.5C304.652 269.229 304.951 269.021 305.317 268.876C305.686 268.728 306.113 268.655 306.598 268.655C306.935 268.655 307.258 268.694 307.566 268.773C307.877 268.852 308.152 268.975 308.392 269.141C308.634 269.307 308.825 269.52 308.965 269.781C309.104 270.039 309.174 270.349 309.174 270.71V274.804H307.578V273.962H307.53C307.433 274.152 307.302 274.319 307.139 274.464C306.976 274.606 306.779 274.718 306.55 274.8C306.321 274.879 306.056 274.918 305.756 274.918ZM306.238 273.756C306.486 273.756 306.704 273.708 306.894 273.61C307.084 273.51 307.233 273.376 307.341 273.207C307.449 273.039 307.503 272.848 307.503 272.634V271.99C307.45 272.024 307.378 272.056 307.285 272.085C307.196 272.111 307.094 272.136 306.981 272.16C306.868 272.181 306.754 272.201 306.641 272.219C306.528 272.235 306.425 272.249 306.333 272.263C306.135 272.292 305.963 272.338 305.815 272.401C305.668 272.464 305.553 272.55 305.471 272.658C305.39 272.763 305.349 272.895 305.349 273.053C305.349 273.282 305.432 273.457 305.598 273.579C305.766 273.697 305.98 273.756 306.238 273.756ZM315.408 270.465L313.867 270.559C313.841 270.428 313.784 270.309 313.697 270.204C313.61 270.096 313.496 270.01 313.354 269.947C313.214 269.881 313.047 269.848 312.852 269.848C312.591 269.848 312.371 269.903 312.192 270.014C312.012 270.122 311.923 270.267 311.923 270.449C311.923 270.594 311.981 270.716 312.097 270.816C312.213 270.916 312.412 270.997 312.694 271.057L313.792 271.279C314.382 271.4 314.822 271.595 315.112 271.864C315.402 272.132 315.547 272.485 315.547 272.923C315.547 273.32 315.43 273.67 315.195 273.97C314.963 274.27 314.644 274.505 314.239 274.673C313.836 274.839 313.371 274.922 312.844 274.922C312.04 274.922 311.4 274.755 310.923 274.42C310.449 274.083 310.171 273.625 310.089 273.045L311.745 272.958C311.795 273.203 311.916 273.39 312.109 273.519C312.301 273.646 312.547 273.709 312.848 273.709C313.143 273.709 313.38 273.652 313.559 273.539C313.741 273.423 313.833 273.274 313.836 273.093C313.833 272.94 313.768 272.815 313.642 272.717C313.516 272.617 313.321 272.541 313.057 272.488L312.006 272.278C311.413 272.16 310.972 271.954 310.682 271.662C310.395 271.37 310.251 270.997 310.251 270.544C310.251 270.154 310.357 269.818 310.567 269.536C310.781 269.254 311.08 269.037 311.465 268.884C311.852 268.731 312.305 268.655 312.824 268.655C313.591 268.655 314.194 268.817 314.634 269.141C315.077 269.465 315.335 269.906 315.408 270.465ZM316.484 274.804V268.734H318.168V274.804H316.484ZM317.33 267.951C317.08 267.951 316.865 267.868 316.686 267.702C316.509 267.534 316.421 267.332 316.421 267.098C316.421 266.866 316.509 266.667 316.686 266.501C316.865 266.332 317.08 266.248 317.33 266.248C317.58 266.248 317.794 266.332 317.97 266.501C318.15 266.667 318.239 266.866 318.239 267.098C318.239 267.332 318.15 267.534 317.97 267.702C317.794 267.868 317.58 267.951 317.33 267.951ZM323.287 272.219V268.734H324.97V274.804H323.354V273.701H323.291C323.154 274.057 322.926 274.343 322.607 274.559C322.291 274.775 321.905 274.883 321.449 274.883C321.043 274.883 320.686 274.791 320.378 274.606C320.07 274.422 319.829 274.16 319.655 273.82C319.484 273.48 319.397 273.073 319.394 272.599V268.734H321.078V272.298C321.08 272.657 321.176 272.94 321.366 273.148C321.556 273.356 321.81 273.46 322.129 273.46C322.332 273.46 322.521 273.414 322.698 273.322C322.874 273.227 323.017 273.087 323.125 272.903C323.235 272.718 323.289 272.491 323.287 272.219ZM327.878 271.294V274.804H326.194V268.734H327.799V269.805H327.87C328.004 269.452 328.23 269.172 328.546 268.967C328.862 268.759 329.245 268.655 329.696 268.655C330.117 268.655 330.485 268.747 330.798 268.931C331.112 269.116 331.356 269.379 331.529 269.722C331.703 270.061 331.79 270.467 331.79 270.939V274.804H330.107V271.239C330.109 270.868 330.015 270.578 329.822 270.37C329.63 270.159 329.365 270.054 329.028 270.054C328.801 270.054 328.601 270.102 328.427 270.2C328.256 270.297 328.122 270.44 328.024 270.627C327.929 270.811 327.881 271.034 327.878 271.294ZM279.235 289.804V281.71H282.429C283.042 281.71 283.565 281.828 283.998 282.062C284.43 282.294 284.759 282.617 284.985 283.03C285.215 283.441 285.329 283.915 285.329 284.453C285.329 284.99 285.213 285.465 284.982 285.876C284.75 286.287 284.414 286.607 283.974 286.836C283.536 287.065 283.007 287.18 282.385 287.18H280.35V285.808H282.109C282.438 285.808 282.709 285.752 282.923 285.638C283.139 285.523 283.299 285.363 283.405 285.16C283.513 284.955 283.567 284.719 283.567 284.453C283.567 284.184 283.513 283.95 283.405 283.749C283.299 283.547 283.139 283.39 282.923 283.279C282.707 283.166 282.433 283.109 282.101 283.109H280.947V289.804H279.235ZM288.932 289.922C288.318 289.922 287.787 289.792 287.339 289.531C286.894 289.268 286.55 288.901 286.307 288.432C286.065 287.961 285.944 287.414 285.944 286.792C285.944 286.165 286.065 285.617 286.307 285.148C286.55 284.677 286.894 284.311 287.339 284.05C287.787 283.786 288.318 283.655 288.932 283.655C289.545 283.655 290.075 283.786 290.52 284.05C290.968 284.311 291.313 284.677 291.556 285.148C291.798 285.617 291.919 286.165 291.919 286.792C291.919 287.414 291.798 287.961 291.556 288.432C291.313 288.901 290.968 289.268 290.52 289.531C290.075 289.792 289.545 289.922 288.932 289.922ZM288.939 288.618C289.219 288.618 289.452 288.539 289.639 288.381C289.826 288.22 289.967 288.002 290.062 287.725C290.159 287.448 290.208 287.134 290.208 286.781C290.208 286.427 290.159 286.113 290.062 285.836C289.967 285.559 289.826 285.341 289.639 285.18C289.452 285.019 289.219 284.939 288.939 284.939C288.658 284.939 288.42 285.019 288.228 285.18C288.038 285.341 287.895 285.559 287.797 285.836C287.702 286.113 287.655 286.427 287.655 286.781C287.655 287.134 287.702 287.448 287.797 287.725C287.895 288.002 288.038 288.22 288.228 288.381C288.42 288.539 288.658 288.618 288.939 288.618ZM294.575 286.294V289.804H292.891V283.734H294.496V284.805H294.567C294.701 284.452 294.927 284.172 295.243 283.967C295.559 283.759 295.942 283.655 296.393 283.655C296.814 283.655 297.182 283.747 297.495 283.931C297.809 284.116 298.053 284.379 298.226 284.722C298.4 285.061 298.487 285.467 298.487 285.939V289.804H296.804V286.239C296.806 285.868 296.712 285.578 296.519 285.37C296.327 285.159 296.062 285.054 295.725 285.054C295.498 285.054 295.298 285.102 295.124 285.2C294.953 285.297 294.819 285.44 294.721 285.627C294.626 285.811 294.578 286.034 294.575 286.294ZM301.928 289.903C301.467 289.903 301.05 289.784 300.676 289.547C300.304 289.307 300.009 288.955 299.79 288.492C299.574 288.025 299.466 287.454 299.466 286.777C299.466 286.081 299.578 285.503 299.802 285.042C300.026 284.578 300.324 284.232 300.695 284.002C301.07 283.771 301.479 283.655 301.924 283.655C302.264 283.655 302.548 283.713 302.774 283.828C303.003 283.942 303.188 284.084 303.327 284.255C303.47 284.424 303.578 284.59 303.651 284.753H303.703V281.71H305.382V289.804H303.723V288.832H303.651C303.572 289 303.46 289.167 303.316 289.333C303.173 289.497 302.988 289.632 302.758 289.74C302.532 289.848 302.255 289.903 301.928 289.903ZM302.462 288.563C302.733 288.563 302.963 288.489 303.15 288.342C303.339 288.191 303.484 287.982 303.584 287.713C303.687 287.444 303.738 287.13 303.738 286.769C303.738 286.408 303.688 286.094 303.588 285.828C303.488 285.562 303.343 285.357 303.154 285.212C302.964 285.067 302.733 284.994 302.462 284.994C302.185 284.994 301.952 285.069 301.762 285.22C301.573 285.37 301.429 285.578 301.332 285.844C301.234 286.11 301.185 286.418 301.185 286.769C301.185 287.122 301.234 287.434 301.332 287.705C301.432 287.974 301.575 288.185 301.762 288.338C301.952 288.488 302.185 288.563 302.462 288.563ZM309.387 289.922C308.773 289.922 308.242 289.792 307.794 289.531C307.349 289.268 307.005 288.901 306.763 288.432C306.52 287.961 306.399 287.414 306.399 286.792C306.399 286.165 306.52 285.617 306.763 285.148C307.005 284.677 307.349 284.311 307.794 284.05C308.242 283.786 308.773 283.655 309.387 283.655C310.001 283.655 310.53 283.786 310.975 284.05C311.423 284.311 311.768 284.677 312.011 285.148C312.253 285.617 312.374 286.165 312.374 286.792C312.374 287.414 312.253 287.961 312.011 288.432C311.768 288.901 311.423 289.268 310.975 289.531C310.53 289.792 310.001 289.922 309.387 289.922ZM309.395 288.618C309.674 288.618 309.907 288.539 310.094 288.381C310.281 288.22 310.422 288.002 310.517 287.725C310.614 287.448 310.663 287.134 310.663 286.781C310.663 286.427 310.614 286.113 310.517 285.836C310.422 285.559 310.281 285.341 310.094 285.18C309.907 285.019 309.674 284.939 309.395 284.939C309.113 284.939 308.876 285.019 308.683 285.18C308.494 285.341 308.35 285.559 308.253 285.836C308.158 286.113 308.11 286.427 308.11 286.781C308.11 287.134 308.158 287.448 308.253 287.725C308.35 288.002 308.494 288.22 308.683 288.381C308.876 288.539 309.113 288.618 309.395 288.618ZM314.872 288.057L314.876 286.038H315.121L317.065 283.734H318.998L316.386 286.784H315.986L314.872 288.057ZM313.347 289.804V281.71H315.03V289.804H313.347ZM317.14 289.804L315.354 287.16L316.476 285.97L319.112 289.804H317.14ZM329.327 284.544H327.596C327.565 284.32 327.5 284.121 327.403 283.947C327.305 283.771 327.18 283.62 327.027 283.497C326.874 283.373 326.698 283.278 326.498 283.212C326.3 283.146 326.085 283.113 325.853 283.113C325.435 283.113 325.07 283.217 324.759 283.425C324.448 283.631 324.207 283.931 324.036 284.326C323.864 284.719 323.779 285.196 323.779 285.757C323.779 286.334 323.864 286.819 324.036 287.211C324.209 287.604 324.452 287.9 324.763 288.1C325.074 288.301 325.433 288.401 325.842 288.401C326.071 288.401 326.283 288.37 326.478 288.31C326.675 288.249 326.851 288.161 327.003 288.045C327.156 287.927 327.283 287.783 327.383 287.614C327.486 287.446 327.557 287.253 327.596 287.037L329.327 287.045C329.282 287.417 329.17 287.775 328.991 288.12C328.815 288.463 328.576 288.77 328.276 289.041C327.978 289.31 327.623 289.523 327.209 289.681C326.798 289.837 326.333 289.914 325.814 289.914C325.092 289.914 324.447 289.751 323.878 289.424C323.311 289.098 322.863 288.625 322.534 288.006C322.207 287.386 322.044 286.637 322.044 285.757C322.044 284.874 322.21 284.124 322.542 283.504C322.874 282.885 323.324 282.414 323.893 282.09C324.462 281.763 325.103 281.6 325.814 281.6C326.283 281.6 326.718 281.665 327.118 281.797C327.521 281.929 327.878 282.121 328.189 282.374C328.5 282.624 328.753 282.931 328.948 283.295C329.145 283.659 329.272 284.075 329.327 284.544ZM330.4 289.804V283.734H332.084V289.804H330.4ZM331.246 282.951C330.996 282.951 330.781 282.868 330.602 282.702C330.425 282.534 330.337 282.332 330.337 282.098C330.337 281.866 330.425 281.667 330.602 281.501C330.781 281.332 330.996 281.248 331.246 281.248C331.496 281.248 331.71 281.332 331.886 281.501C332.065 281.667 332.155 281.866 332.155 282.098C332.155 282.332 332.065 282.534 331.886 282.702C331.71 282.868 331.496 282.951 331.246 282.951ZM334.993 286.294V289.804H333.31V283.734H334.914V284.805H334.985C335.12 284.452 335.345 284.172 335.661 283.967C335.977 283.759 336.361 283.655 336.811 283.655C337.233 283.655 337.6 283.747 337.914 283.931C338.227 284.116 338.471 284.379 338.645 284.722C338.819 285.061 338.906 285.467 338.906 285.939V289.804H337.222V286.239C337.225 285.868 337.13 285.578 336.938 285.37C336.745 285.159 336.481 285.054 336.143 285.054C335.917 285.054 335.717 285.102 335.543 285.2C335.371 285.297 335.237 285.44 335.14 285.627C335.045 285.811 334.996 286.034 334.993 286.294ZM341.841 289.918C341.454 289.918 341.109 289.851 340.806 289.717C340.503 289.58 340.263 289.378 340.086 289.112C339.913 288.843 339.826 288.509 339.826 288.108C339.826 287.771 339.888 287.488 340.011 287.259C340.135 287.029 340.304 286.845 340.517 286.705C340.731 286.566 340.973 286.46 341.244 286.389C341.518 286.318 341.806 286.268 342.106 286.239C342.459 286.202 342.743 286.168 342.959 286.136C343.175 286.102 343.332 286.052 343.43 285.986C343.527 285.92 343.576 285.823 343.576 285.694V285.67C343.576 285.42 343.497 285.226 343.339 285.089C343.183 284.952 342.962 284.884 342.675 284.884C342.372 284.884 342.131 284.951 341.952 285.085C341.773 285.217 341.654 285.383 341.596 285.583L340.039 285.457C340.118 285.088 340.273 284.769 340.505 284.5C340.737 284.229 341.036 284.021 341.402 283.876C341.771 283.728 342.198 283.655 342.683 283.655C343.02 283.655 343.343 283.694 343.651 283.773C343.962 283.852 344.237 283.975 344.477 284.141C344.719 284.307 344.91 284.52 345.05 284.781C345.19 285.039 345.259 285.349 345.259 285.71V289.804H343.663V288.962H343.615C343.518 289.152 343.388 289.319 343.224 289.464C343.061 289.606 342.865 289.718 342.635 289.8C342.406 289.879 342.141 289.918 341.841 289.918ZM342.323 288.756C342.571 288.756 342.79 288.708 342.979 288.61C343.169 288.51 343.318 288.376 343.426 288.207C343.534 288.039 343.588 287.848 343.588 287.634V286.99C343.535 287.024 343.463 287.056 343.37 287.085C343.281 287.111 343.179 287.136 343.066 287.16C342.953 287.181 342.84 287.201 342.726 287.219C342.613 287.235 342.51 287.249 342.418 287.263C342.22 287.292 342.048 287.338 341.9 287.401C341.753 287.464 341.638 287.55 341.557 287.658C341.475 287.763 341.434 287.895 341.434 288.053C341.434 288.282 341.517 288.457 341.683 288.579C341.852 288.697 342.065 288.756 342.323 288.756Z" fill="black"/>
<path d="M168.897 281.228V271.057H172.969C173.717 271.057 174.341 271.168 174.841 271.39C175.341 271.612 175.717 271.919 175.968 272.313C176.22 272.704 176.346 273.154 176.346 273.664C176.346 274.061 176.266 274.411 176.107 274.712C175.949 275.01 175.73 275.255 175.452 275.447C175.177 275.636 174.863 275.77 174.508 275.849V275.949C174.896 275.965 175.258 276.074 175.596 276.276C175.937 276.478 176.213 276.761 176.425 277.126C176.637 277.486 176.743 277.917 176.743 278.417C176.743 278.956 176.609 279.438 176.341 279.862C176.076 280.282 175.684 280.615 175.164 280.86C174.644 281.105 174.003 281.228 173.242 281.228H168.897ZM171.047 279.47H172.8C173.399 279.47 173.836 279.355 174.111 279.127C174.386 278.895 174.523 278.587 174.523 278.203C174.523 277.922 174.455 277.673 174.32 277.458C174.184 277.243 173.99 277.074 173.739 276.952C173.49 276.829 173.194 276.768 172.85 276.768H171.047V279.47ZM171.047 275.313H172.641C172.936 275.313 173.197 275.262 173.426 275.159C173.657 275.053 173.84 274.904 173.972 274.712C174.108 274.52 174.176 274.29 174.176 274.022C174.176 273.654 174.045 273.358 173.783 273.133C173.525 272.908 173.158 272.795 172.681 272.795H171.047V275.313ZM180.124 281.372C179.637 281.372 179.203 281.287 178.823 281.118C178.442 280.946 178.141 280.693 177.919 280.358C177.7 280.021 177.591 279.6 177.591 279.097C177.591 278.673 177.669 278.317 177.825 278.029C177.98 277.741 178.192 277.51 178.46 277.334C178.728 277.159 179.033 277.026 179.374 276.937C179.718 276.847 180.079 276.785 180.457 276.748C180.9 276.702 181.258 276.659 181.529 276.619C181.801 276.576 181.998 276.513 182.12 276.43C182.243 276.348 182.304 276.225 182.304 276.063V276.033C182.304 275.718 182.205 275.475 182.006 275.303C181.811 275.131 181.533 275.045 181.172 275.045C180.791 275.045 180.488 275.129 180.263 275.298C180.038 275.464 179.889 275.672 179.816 275.924L177.859 275.765C177.959 275.301 178.154 274.901 178.445 274.563C178.737 274.222 179.112 273.961 179.573 273.778C180.036 273.593 180.572 273.5 181.182 273.5C181.605 273.5 182.011 273.55 182.398 273.649C182.789 273.749 183.135 273.903 183.436 274.111C183.741 274.32 183.981 274.588 184.156 274.916C184.332 275.24 184.42 275.629 184.42 276.083V281.228H182.413V280.17H182.354C182.231 280.408 182.067 280.618 181.862 280.8C181.657 280.979 181.41 281.12 181.122 281.223C180.834 281.322 180.501 281.372 180.124 281.372ZM180.73 279.912C181.041 279.912 181.316 279.85 181.554 279.728C181.792 279.602 181.98 279.433 182.115 279.221C182.251 279.009 182.319 278.769 182.319 278.501V277.692C182.253 277.735 182.162 277.774 182.046 277.811C181.933 277.844 181.806 277.875 181.663 277.905C181.521 277.932 181.379 277.957 181.236 277.98C181.094 278 180.965 278.018 180.849 278.034C180.601 278.071 180.384 278.129 180.198 278.208C180.013 278.288 179.869 278.395 179.766 278.531C179.664 278.663 179.612 278.829 179.612 279.028C179.612 279.316 179.717 279.536 179.925 279.688C180.137 279.837 180.405 279.912 180.73 279.912ZM188.023 271.057V281.228H185.907V271.057H188.023ZM191.739 281.372C191.252 281.372 190.818 281.287 190.437 281.118C190.057 280.946 189.755 280.693 189.534 280.358C189.315 280.021 189.206 279.6 189.206 279.097C189.206 278.673 189.284 278.317 189.439 278.029C189.595 277.741 189.807 277.51 190.075 277.334C190.343 277.159 190.648 277.026 190.989 276.937C191.333 276.847 191.694 276.785 192.071 276.748C192.515 276.702 192.872 276.659 193.144 276.619C193.415 276.576 193.612 276.513 193.735 276.43C193.857 276.348 193.919 276.225 193.919 276.063V276.033C193.919 275.718 193.819 275.475 193.621 275.303C193.425 275.131 193.147 275.045 192.786 275.045C192.406 275.045 192.103 275.129 191.878 275.298C191.652 275.464 191.503 275.672 191.431 275.924L189.474 275.765C189.573 275.301 189.769 274.901 190.06 274.563C190.351 274.222 190.727 273.961 191.187 273.778C191.651 273.593 192.187 273.5 192.796 273.5C193.22 273.5 193.626 273.55 194.013 273.649C194.404 273.749 194.75 273.903 195.051 274.111C195.356 274.32 195.596 274.588 195.771 274.916C195.946 275.24 196.034 275.629 196.034 276.083V281.228H194.028V280.17H193.968C193.846 280.408 193.682 280.618 193.477 280.8C193.271 280.979 193.025 281.12 192.737 281.223C192.449 281.322 192.116 281.372 191.739 281.372ZM192.344 279.912C192.656 279.912 192.93 279.85 193.169 279.728C193.407 279.602 193.594 279.433 193.73 279.221C193.866 279.009 193.934 278.769 193.934 278.501V277.692C193.867 277.735 193.776 277.774 193.66 277.811C193.548 277.844 193.42 277.875 193.278 277.905C193.136 277.932 192.993 277.957 192.851 277.98C192.709 278 192.579 278.018 192.464 278.034C192.215 278.071 191.998 278.129 191.813 278.208C191.628 278.288 191.484 278.395 191.381 278.531C191.278 278.663 191.227 278.829 191.227 279.028C191.227 279.316 191.331 279.536 191.54 279.688C191.752 279.837 192.02 279.912 192.344 279.912ZM197.522 281.228V273.6H199.637V281.228H197.522ZM198.584 272.616C198.27 272.616 198 272.512 197.775 272.303C197.553 272.092 197.442 271.838 197.442 271.544C197.442 271.252 197.553 271.002 197.775 270.794C198 270.582 198.27 270.476 198.584 270.476C198.899 270.476 199.167 270.582 199.389 270.794C199.614 271.002 199.727 271.252 199.727 271.544C199.727 271.838 199.614 272.092 199.389 272.303C199.167 272.512 198.899 272.616 198.584 272.616ZM201.178 281.228V273.6H203.229V274.931H203.309C203.448 274.457 203.681 274.1 204.009 273.858C204.336 273.613 204.714 273.49 205.141 273.49C205.247 273.49 205.361 273.497 205.484 273.51C205.606 273.523 205.714 273.542 205.806 273.565V275.442C205.707 275.412 205.57 275.386 205.394 275.363C205.219 275.339 205.058 275.328 204.913 275.328C204.601 275.328 204.323 275.396 204.078 275.531C203.837 275.664 203.645 275.849 203.502 276.088C203.363 276.326 203.294 276.601 203.294 276.912V281.228H201.178ZM211.638 277.98V273.6H213.754V281.228H211.722V279.842H211.643C211.471 280.289 211.184 280.648 210.784 280.92C210.387 281.191 209.902 281.327 209.329 281.327C208.819 281.327 208.37 281.211 207.983 280.979C207.596 280.747 207.293 280.418 207.074 279.991C206.859 279.564 206.75 279.052 206.746 278.456V273.6H208.862V278.079C208.865 278.529 208.986 278.885 209.224 279.147C209.463 279.408 209.782 279.539 210.183 279.539C210.438 279.539 210.676 279.481 210.898 279.365C211.12 279.246 211.299 279.071 211.434 278.839C211.573 278.607 211.641 278.321 211.638 277.98ZM217.407 276.818V281.228H215.292V273.6H217.308V274.945H217.398C217.566 274.502 217.849 274.151 218.247 273.893C218.644 273.631 219.126 273.5 219.692 273.5C220.222 273.5 220.683 273.616 221.077 273.848C221.471 274.08 221.778 274.411 221.996 274.841C222.215 275.268 222.324 275.778 222.324 276.371V281.228H220.208V276.748C220.212 276.281 220.092 275.917 219.851 275.656C219.609 275.391 219.276 275.258 218.853 275.258C218.568 275.258 218.316 275.32 218.098 275.442C217.883 275.565 217.714 275.743 217.591 275.978C217.472 276.21 217.411 276.49 217.407 276.818ZM227.274 284.247C226.589 284.247 226.001 284.153 225.511 283.964C225.024 283.778 224.637 283.525 224.349 283.204C224.061 282.883 223.874 282.522 223.788 282.121L225.744 281.858C225.804 282.011 225.898 282.153 226.027 282.285C226.157 282.418 226.327 282.524 226.539 282.603C226.754 282.686 227.016 282.727 227.324 282.727C227.784 282.727 228.163 282.615 228.461 282.39C228.762 282.168 228.913 281.795 228.913 281.272V279.877H228.823C228.731 280.089 228.592 280.289 228.406 280.478C228.221 280.666 227.982 280.82 227.691 280.94C227.4 281.059 227.052 281.118 226.648 281.118C226.075 281.118 225.554 280.986 225.084 280.721C224.617 280.453 224.245 280.044 223.967 279.494C223.692 278.941 223.554 278.243 223.554 277.399C223.554 276.535 223.695 275.813 223.976 275.233C224.258 274.654 224.632 274.22 225.099 273.932C225.569 273.644 226.084 273.5 226.643 273.5C227.07 273.5 227.428 273.573 227.716 273.719C228.004 273.861 228.236 274.04 228.411 274.255C228.59 274.467 228.727 274.676 228.823 274.881H228.903V273.6H231.003V281.302C231.003 281.951 230.845 282.494 230.527 282.931C230.209 283.368 229.769 283.696 229.206 283.914C228.646 284.136 228.002 284.247 227.274 284.247ZM227.319 279.529C227.66 279.529 227.948 279.445 228.183 279.276C228.421 279.104 228.603 278.859 228.729 278.541C228.858 278.22 228.923 277.836 228.923 277.389C228.923 276.942 228.86 276.554 228.734 276.227C228.608 275.896 228.426 275.639 228.188 275.457C227.949 275.275 227.66 275.184 227.319 275.184C226.971 275.184 226.678 275.278 226.44 275.467C226.201 275.652 226.021 275.911 225.898 276.242C225.776 276.573 225.715 276.955 225.715 277.389C225.715 277.829 225.776 278.21 225.898 278.531C226.024 278.849 226.205 279.095 226.44 279.271C226.678 279.443 226.971 279.529 227.319 279.529Z" fill="black"/>
</svg>
