<svg width="20" height="21" viewBox="0 0 20 21" fill="none" xmlns="http://www.w3.org/2000/svg">
<path d="M13.6699 5.78912e-08C12.6321 -0.000139749 11.6098 0.252951 10.6919 0.737316C9.774 1.22168 8.98813 1.92269 8.40247 2.77954L8.4207 2.7522C8.05617 2.73397 7.67341 2.73397 7.29066 2.73397C3.26261 2.73397 6.86646e-05 3.18963 6.86646e-05 6.37926V15.4925C6.86646e-05 16.2945 0.355485 17.0144 0.911392 17.5156V19.1378C0.911392 19.3795 1.00741 19.6113 1.17831 19.7822C1.34922 19.9531 1.58102 20.0491 1.82272 20.0491H2.73404C2.97574 20.0491 3.20754 19.9531 3.37844 19.7822C3.54935 19.6113 3.64536 19.3795 3.64536 19.1378V18.2265H10.936V19.1378C10.936 19.3795 11.032 19.6113 11.2029 19.7822C11.3738 19.9531 11.6056 20.0491 11.8473 20.0491H12.7586C13.0003 20.0491 13.2321 19.9531 13.403 19.7822C13.5739 19.6113 13.6699 19.3795 13.6699 19.1378V17.5156C14.2258 17.0144 14.5812 16.2945 14.5812 15.4925V12.6856C16.1672 12.4441 17.604 11.6138 18.6052 10.3603C19.6064 9.10685 20.0986 7.52213 19.9837 5.92197C19.8687 4.32182 19.1551 2.82372 17.9849 1.72621C16.8148 0.628699 15.2742 0.0123553 13.6699 5.78912e-08ZM3.1897 16.4038C2.82715 16.4038 2.47946 16.2598 2.2231 16.0034C1.96674 15.7471 1.82272 15.3994 1.82272 15.0368C1.82272 14.6743 1.96674 14.3266 2.2231 14.0702C2.47946 13.8139 2.82715 13.6699 3.1897 13.6699C3.55225 13.6699 3.89995 13.8139 4.15631 14.0702C4.41267 14.3266 4.55669 14.6743 4.55669 15.0368C4.55669 15.3994 4.41267 15.7471 4.15631 16.0034C3.89995 16.2598 3.55225 16.4038 3.1897 16.4038ZM1.82272 10.9359V6.37926H7.29066C7.29066 8.16546 8.02883 9.7785 9.21355 10.9359H1.82272ZM11.3916 16.4038C11.0291 16.4038 10.6814 16.2598 10.425 16.0034C10.1686 15.7471 10.0246 15.3994 10.0246 15.0368C10.0246 14.6743 10.1686 14.3266 10.425 14.0702C10.6814 13.8139 11.0291 13.6699 11.3916 13.6699C11.7542 13.6699 12.1019 13.8139 12.3582 14.0702C12.6146 14.3266 12.7586 14.6743 12.7586 15.0368C12.7586 15.3994 12.6146 15.7471 12.3582 16.0034C12.1019 16.2598 11.7542 16.4038 11.3916 16.4038ZM13.6699 10.9359C12.4614 10.9359 11.3024 10.4558 10.4479 9.60128C9.59337 8.74675 9.1133 7.58775 9.1133 6.37926C9.1133 5.17077 9.59337 4.01178 10.4479 3.15725C11.3024 2.30272 12.4614 1.82265 13.6699 1.82265C14.8784 1.82265 16.0374 2.30272 16.8919 3.15725C17.7465 4.01178 18.2265 5.17077 18.2265 6.37926C18.2265 7.58775 17.7465 8.74675 16.8919 9.60128C16.0374 10.4558 14.8784 10.9359 13.6699 10.9359ZM12.7586 5.46794H14.5812V8.20191L12.7586 9.11324V5.46794ZM12.7586 9.11324L14.5812 8.20191V10.0246H12.7586V9.11324Z" fill="#494949"/>
<path d="M12.6774 2.73397H14.5V4.55662H12.6774V2.73397Z" fill="#494949"/>
</svg>
