<svg width="125" height="75" viewBox="0 0 125 75" fill="none" xmlns="http://www.w3.org/2000/svg">
<path d="M36.219 45.1C34.919 45.1 33.7524 44.8 32.719 44.2C31.6857 43.5833 30.869 42.75 30.269 41.7C29.669 40.65 29.3607 39.4667 29.344 38.15V26.75C29.344 26.3667 29.4607 26.0583 29.694 25.825C29.944 25.5917 30.2524 25.475 30.619 25.475C31.0024 25.475 31.3107 25.5917 31.544 25.825C31.7774 26.0583 31.894 26.3667 31.894 26.75V33.5C32.4774 32.8 33.1774 32.25 33.994 31.85C34.8274 31.4333 35.7357 31.225 36.719 31.225C37.9357 31.225 39.0274 31.5333 39.994 32.15C40.9607 32.75 41.719 33.575 42.269 34.625C42.8357 35.6583 43.119 36.8333 43.119 38.15C43.119 39.4667 42.8107 40.65 42.194 41.7C41.594 42.75 40.7774 43.5833 39.744 44.2C38.7107 44.8 37.5357 45.1 36.219 45.1ZM36.219 42.85C37.069 42.85 37.8274 42.65 38.494 42.25C39.1607 41.8333 39.6857 41.2667 40.069 40.55C40.469 39.8333 40.669 39.0333 40.669 38.15C40.669 37.25 40.469 36.45 40.069 35.75C39.6857 35.05 39.1607 34.5 38.494 34.1C37.8274 33.6833 37.069 33.475 36.219 33.475C35.3857 33.475 34.6274 33.6833 33.944 34.1C33.2774 34.5 32.7524 35.05 32.369 35.75C31.9857 36.45 31.794 37.25 31.794 38.15C31.794 39.0333 31.9857 39.8333 32.369 40.55C32.7524 41.2667 33.2774 41.8333 33.944 42.25C34.6274 42.65 35.3857 42.85 36.219 42.85ZM47.2972 45C46.9305 45 46.6222 44.8833 46.3722 44.65C46.1388 44.4 46.0222 44.0917 46.0222 43.725V32.6C46.0222 32.2167 46.1388 31.9083 46.3722 31.675C46.6222 31.4417 46.9305 31.325 47.2972 31.325C47.6805 31.325 47.9888 31.4417 48.2222 31.675C48.4555 31.9083 48.5722 32.2167 48.5722 32.6V43.725C48.5722 44.0917 48.4555 44.4 48.2222 44.65C47.9888 44.8833 47.6805 45 47.2972 45ZM47.2972 29.1C46.8472 29.1 46.4555 28.9417 46.1222 28.625C45.8055 28.2917 45.6472 27.9 45.6472 27.45C45.6472 27 45.8055 26.6167 46.1222 26.3C46.4555 25.9667 46.8472 25.8 47.2972 25.8C47.7472 25.8 48.1305 25.9667 48.4472 26.3C48.7805 26.6167 48.9472 27 48.9472 27.45C48.9472 27.9 48.7805 28.2917 48.4472 28.625C48.1305 28.9417 47.7472 29.1 47.2972 29.1ZM54.5661 40L53.0161 38.3L60.6911 31.45C60.9411 31.2167 61.2161 31.1083 61.5161 31.125C61.8328 31.1417 62.0994 31.275 62.3161 31.525C62.5494 31.775 62.6578 32.05 62.6411 32.35C62.6244 32.65 62.4911 32.9167 62.2411 33.15L54.5661 40ZM53.3911 45C53.0244 45 52.7244 44.8917 52.4911 44.675C52.2744 44.4417 52.1661 44.1417 52.1661 43.775V26.7C52.1661 26.3333 52.2744 26.0417 52.4911 25.825C52.7244 25.5917 53.0244 25.475 53.3911 25.475C53.7578 25.475 54.0494 25.5917 54.2661 25.825C54.4994 26.0417 54.6161 26.3333 54.6161 26.7V43.775C54.6161 44.1417 54.4994 44.4417 54.2661 44.675C54.0494 44.8917 53.7578 45 53.3911 45ZM62.3161 44.875C62.0494 45.0917 61.7494 45.1833 61.4161 45.15C61.0994 45.1333 60.8328 44.9917 60.6161 44.725L55.5411 38.45L57.2911 36.8L62.4911 43.2C62.7078 43.4667 62.7994 43.7583 62.7661 44.075C62.7494 44.375 62.5994 44.6417 62.3161 44.875ZM70.9995 45.125C69.8495 45.125 68.8162 44.8833 67.8995 44.4C66.9995 43.9 66.2828 43.175 65.7495 42.225C65.2328 41.275 64.9745 40.1083 64.9745 38.725V32.575C64.9745 32.2083 65.0912 31.9083 65.3245 31.675C65.5745 31.425 65.8828 31.3 66.2495 31.3C66.6162 31.3 66.9162 31.425 67.1495 31.675C67.3995 31.9083 67.5245 32.2083 67.5245 32.575V38.725C67.5245 39.6583 67.6995 40.4333 68.0495 41.05C68.3995 41.65 68.8745 42.1 69.4745 42.4C70.0745 42.6833 70.7495 42.825 71.4995 42.825C72.2162 42.825 72.8495 42.6833 73.3995 42.4C73.9662 42.1167 74.4162 41.7333 74.7495 41.25C75.0828 40.7667 75.2495 40.225 75.2495 39.625H76.8245C76.8245 40.6583 76.5662 41.5917 76.0495 42.425C75.5495 43.2583 74.8578 43.9167 73.9745 44.4C73.1078 44.8833 72.1162 45.125 70.9995 45.125ZM76.5245 45C76.1578 45 75.8495 44.8833 75.5995 44.65C75.3662 44.4 75.2495 44.0917 75.2495 43.725V32.575C75.2495 32.1917 75.3662 31.8833 75.5995 31.65C75.8495 31.4167 76.1578 31.3 76.5245 31.3C76.9078 31.3 77.2162 31.4167 77.4495 31.65C77.6828 31.8833 77.7995 32.1917 77.7995 32.575V43.725C77.7995 44.0917 77.6828 44.4 77.4495 44.65C77.2162 44.8833 76.9078 45 76.5245 45ZM92.6905 45.025C92.3239 45.025 92.0155 44.9083 91.7655 44.675C91.5322 44.425 91.4155 44.1167 91.4155 43.75V37.6C91.4155 36.65 91.2405 35.875 90.8905 35.275C90.5405 34.675 90.0655 34.2333 89.4655 33.95C88.8822 33.65 88.2072 33.5 87.4405 33.5C86.7405 33.5 86.1072 33.6417 85.5405 33.925C84.9739 34.2083 84.5239 34.5917 84.1905 35.075C83.8572 35.5417 83.6905 36.0833 83.6905 36.7H82.1155C82.1155 35.65 82.3655 34.7167 82.8655 33.9C83.3822 33.0667 84.0822 32.4083 84.9655 31.925C85.8489 31.4417 86.8405 31.2 87.9405 31.2C89.0905 31.2 90.1155 31.45 91.0155 31.95C91.9322 32.4333 92.6489 33.15 93.1655 34.1C93.6989 35.05 93.9655 36.2167 93.9655 37.6V43.75C93.9655 44.1167 93.8405 44.425 93.5905 44.675C93.3572 44.9083 93.0572 45.025 92.6905 45.025ZM82.4155 45.025C82.0489 45.025 81.7405 44.9083 81.4905 44.675C81.2572 44.425 81.1405 44.1167 81.1405 43.75V32.6C81.1405 32.2167 81.2572 31.9083 81.4905 31.675C81.7405 31.4417 82.0489 31.325 82.4155 31.325C82.7989 31.325 83.1072 31.4417 83.3405 31.675C83.5739 31.9083 83.6905 32.2167 83.6905 32.6V43.75C83.6905 44.1167 83.5739 44.425 83.3405 44.675C83.1072 44.9083 82.7989 45.025 82.4155 45.025ZM99.4315 40L97.8815 38.3L105.557 31.45C105.807 31.2167 106.082 31.1083 106.382 31.125C106.698 31.1417 106.965 31.275 107.182 31.525C107.415 31.775 107.523 32.05 107.507 32.35C107.49 32.65 107.357 32.9167 107.107 33.15L99.4315 40ZM98.2565 45C97.8899 45 97.5899 44.8917 97.3565 44.675C97.1399 44.4417 97.0315 44.1417 97.0315 43.775V26.7C97.0315 26.3333 97.1399 26.0417 97.3565 25.825C97.5899 25.5917 97.8899 25.475 98.2565 25.475C98.6232 25.475 98.9149 25.5917 99.1315 25.825C99.3649 26.0417 99.4815 26.3333 99.4815 26.7V43.775C99.4815 44.1417 99.3649 44.4417 99.1315 44.675C98.9149 44.8917 98.6232 45 98.2565 45ZM107.182 44.875C106.915 45.0917 106.615 45.1833 106.282 45.15C105.965 45.1333 105.698 44.9917 105.482 44.725L100.407 38.45L102.157 36.8L107.357 43.2C107.573 43.4667 107.665 43.7583 107.632 44.075C107.615 44.375 107.465 44.6417 107.182 44.875ZM115.865 45.125C114.715 45.125 113.682 44.8833 112.765 44.4C111.865 43.9 111.148 43.175 110.615 42.225C110.098 41.275 109.84 40.1083 109.84 38.725V32.575C109.84 32.2083 109.957 31.9083 110.19 31.675C110.44 31.425 110.748 31.3 111.115 31.3C111.482 31.3 111.782 31.425 112.015 31.675C112.265 31.9083 112.39 32.2083 112.39 32.575V38.725C112.39 39.6583 112.565 40.4333 112.915 41.05C113.265 41.65 113.74 42.1 114.34 42.4C114.94 42.6833 115.615 42.825 116.365 42.825C117.082 42.825 117.715 42.6833 118.265 42.4C118.832 42.1167 119.282 41.7333 119.615 41.25C119.948 40.7667 120.115 40.225 120.115 39.625H121.69C121.69 40.6583 121.432 41.5917 120.915 42.425C120.415 43.2583 119.723 43.9167 118.84 44.4C117.973 44.8833 116.982 45.125 115.865 45.125ZM121.39 45C121.023 45 120.715 44.8833 120.465 44.65C120.232 44.4 120.115 44.0917 120.115 43.725V32.575C120.115 32.1917 120.232 31.8833 120.465 31.65C120.715 31.4167 121.023 31.3 121.39 31.3C121.773 31.3 122.082 31.4167 122.315 31.65C122.548 31.8833 122.665 32.1917 122.665 32.575V43.725C122.665 44.0917 122.548 44.4 122.315 44.65C122.082 44.8833 121.773 45 121.39 45Z" fill="#EDC808"/>
<path d="M32.719 44.2L32.514 44.5435L32.5182 44.5459L32.719 44.2ZM30.269 41.7L29.9217 41.8985L29.9217 41.8985L30.269 41.7ZM29.344 38.15H28.944L28.9441 38.1551L29.344 38.15ZM29.694 25.825L29.421 25.5324L29.4112 25.5422L29.694 25.825ZM31.894 33.5H31.494V34.6048L32.2013 33.7561L31.894 33.5ZM33.994 31.85L34.17 32.2092L34.1729 32.2078L33.994 31.85ZM39.994 32.15L39.7789 32.4873L39.7831 32.4899L39.994 32.15ZM42.269 34.625L41.9146 34.8106L41.9183 34.8173L42.269 34.625ZM42.194 41.7L41.8491 41.4974L41.8467 41.5015L42.194 41.7ZM39.744 44.2L39.9449 44.5459L39.949 44.5435L39.744 44.2ZM38.494 42.25L38.6999 42.5931L38.706 42.5892L38.494 42.25ZM40.069 40.55L39.7197 40.355L39.7163 40.3613L40.069 40.55ZM40.069 35.75L39.7181 35.9422L39.7217 35.9485L40.069 35.75ZM38.494 34.1L38.282 34.4393L38.2882 34.443L38.494 34.1ZM33.944 34.1L34.1498 34.443L34.1523 34.4415L33.944 34.1ZM32.369 35.75L32.7199 35.9421L32.7199 35.9421L32.369 35.75ZM32.369 40.55L32.0163 40.7387L32.0163 40.7387L32.369 40.55ZM33.944 42.25L33.732 42.5893L33.742 42.5952L33.944 42.25ZM36.219 44.7C34.9832 44.7 33.8869 44.4156 32.9199 43.8541L32.5182 44.5459C33.6178 45.1844 34.8549 45.5 36.219 45.5V44.7ZM32.924 43.8565C31.9501 43.2753 31.1824 42.4921 30.6163 41.5015L29.9217 41.8985C30.5557 43.0079 31.4213 43.8913 32.5141 44.5435L32.924 43.8565ZM30.6163 41.5015C30.053 40.5156 29.7599 39.3999 29.744 38.1449L28.9441 38.1551C28.9615 39.5334 29.2851 40.7844 29.9217 41.8985L30.6163 41.5015ZM29.744 38.15V26.75H28.944V38.15H29.744ZM29.744 26.75C29.744 26.4542 29.8307 26.254 29.9769 26.1078L29.4112 25.5422C29.0907 25.8627 28.944 26.2791 28.944 26.75H29.744ZM29.967 26.1174C30.1372 25.9585 30.3457 25.875 30.619 25.875V25.075C30.1591 25.075 29.7508 25.2248 29.4211 25.5326L29.967 26.1174ZM30.619 25.875C30.9148 25.875 31.115 25.9617 31.2612 26.1078L31.8269 25.5422C31.5064 25.2216 31.0899 25.075 30.619 25.075V25.875ZM31.2612 26.1078C31.4074 26.254 31.494 26.4542 31.494 26.75H32.294C32.294 26.2791 32.1474 25.8627 31.8269 25.5422L31.2612 26.1078ZM31.494 26.75V33.5H32.294V26.75H31.494ZM32.2013 33.7561C32.7487 33.0992 33.404 32.5844 34.17 32.2092L33.8181 31.4908C32.9508 31.9156 32.206 32.5008 31.5868 33.2439L32.2013 33.7561ZM34.1729 32.2078C34.9476 31.8204 35.7943 31.625 36.719 31.625V30.825C35.6771 30.825 34.7071 31.0463 33.8152 31.4922L34.1729 32.2078ZM36.719 31.625C37.8644 31.625 38.8805 31.9141 39.7789 32.4872L40.2092 31.8128C39.1743 31.1526 38.0071 30.825 36.719 30.825V31.625ZM39.7831 32.4899C40.6864 33.0506 41.3964 33.8211 41.9147 34.8106L42.6234 34.4394C42.0417 33.3289 41.235 32.4494 40.205 31.8101L39.7831 32.4899ZM41.9183 34.8173C42.449 35.7851 42.719 36.8925 42.719 38.15H43.519C43.519 36.7741 43.2224 35.5316 42.6198 34.4327L41.9183 34.8173ZM42.719 38.15C42.719 39.4014 42.4268 40.5138 41.8491 41.4974L42.539 41.9026C43.1946 40.7862 43.519 39.5319 43.519 38.15H42.719ZM41.8467 41.5015C41.2807 42.4921 40.513 43.2753 39.5391 43.8565L39.949 44.5435C41.0418 43.8913 41.9074 43.0079 42.5413 41.8985L41.8467 41.5015ZM39.5432 43.8541C38.577 44.4151 37.4725 44.7 36.219 44.7V45.5C37.5989 45.5 38.8445 45.1849 39.9449 44.5459L39.5432 43.8541ZM36.219 43.25C37.1346 43.25 37.9653 43.0337 38.6998 42.593L38.2882 41.907C37.6895 42.2663 37.0035 42.45 36.219 42.45V43.25ZM38.706 42.5892C39.434 42.1342 40.0066 41.5148 40.4218 40.7387L39.7163 40.3613C39.3648 41.0186 38.8874 41.5324 38.282 41.9108L38.706 42.5892ZM40.4183 40.7449C40.8541 39.9642 41.069 39.0962 41.069 38.15H40.269C40.269 38.9705 40.084 39.7025 39.7198 40.3551L40.4183 40.7449ZM41.069 38.15C41.069 37.1887 40.8548 36.3188 40.4163 35.5515L39.7217 35.9485C40.0833 36.5812 40.269 37.3113 40.269 38.15H41.069ZM40.4199 35.5579C40.0034 34.7973 39.4291 34.1945 38.6998 33.757L38.2882 34.443C38.8924 34.8055 39.368 35.3027 39.7182 35.9421L40.4199 35.5579ZM38.706 33.7608C37.9706 33.3012 37.1377 33.075 36.219 33.075V33.875C37.0004 33.875 37.6841 34.0655 38.282 34.4392L38.706 33.7608ZM36.219 33.075C35.3154 33.075 34.4845 33.3019 33.7358 33.7585L34.1523 34.4415C34.7702 34.0647 35.456 33.875 36.219 33.875V33.075ZM33.7382 33.757C33.009 34.1945 32.4347 34.7973 32.0182 35.5579L32.7199 35.9421C33.0701 35.3027 33.5457 34.8055 34.1498 34.443L33.7382 33.757ZM32.0182 35.5579C31.5987 36.324 31.394 37.1916 31.394 38.15H32.194C32.194 37.3084 32.3727 36.576 32.7199 35.9421L32.0182 35.5579ZM31.394 38.15C31.394 39.0933 31.5993 39.959 32.0163 40.7387L32.7218 40.3613C32.3721 39.7077 32.194 38.9734 32.194 38.15H31.394ZM32.0163 40.7387C32.4315 41.5148 33.0041 42.1342 33.732 42.5892L34.156 41.9108C33.5507 41.5324 33.0733 41.0186 32.7218 40.3613L32.0163 40.7387ZM33.742 42.5952C34.4899 43.033 35.3186 43.25 36.219 43.25V42.45C35.4529 42.45 34.7649 42.267 34.1461 41.9048L33.742 42.5952ZM46.3722 44.65L46.0797 44.9229L46.0892 44.933L46.0992 44.9424L46.3722 44.65ZM46.3722 31.675L46.0991 31.3824L46.0893 31.3922L46.3722 31.675ZM48.2222 44.65L48.5052 44.933L48.5146 44.9229L48.2222 44.65ZM46.1222 28.625L45.8322 28.9005L45.8392 28.9079L45.8467 28.915L46.1222 28.625ZM46.1222 26.3L45.8393 26.0172L45.8393 26.0172L46.1222 26.3ZM48.4472 26.3L48.1572 26.5755L48.1642 26.5829L48.1717 26.59L48.4472 26.3ZM48.4472 28.625L48.73 28.9078L48.4472 28.625ZM47.2972 44.6C47.0238 44.6 46.8154 44.5165 46.6451 44.3576L46.0992 44.9424C46.429 45.2502 46.8372 45.4 47.2972 45.4V44.6ZM46.6646 44.3771C46.5057 44.2068 46.4222 43.9984 46.4222 43.725H45.6222C45.6222 44.185 45.772 44.5932 46.0797 44.9229L46.6646 44.3771ZM46.4222 43.725V32.6H45.6222V43.725H46.4222ZM46.4222 32.6C46.4222 32.3042 46.5089 32.104 46.655 31.9578L46.0893 31.3922C45.7688 31.7127 45.6222 32.1291 45.6222 32.6H46.4222ZM46.6451 31.9674C46.8154 31.8085 47.0238 31.725 47.2972 31.725V30.925C46.8372 30.925 46.429 31.0748 46.0992 31.3826L46.6451 31.9674ZM47.2972 31.725C47.593 31.725 47.7932 31.8117 47.9393 31.9578L48.505 31.3922C48.1845 31.0716 47.768 30.925 47.2972 30.925V31.725ZM47.9393 31.9578C48.0855 32.104 48.1722 32.3042 48.1722 32.6H48.9722C48.9722 32.1291 48.8255 31.7127 48.505 31.3922L47.9393 31.9578ZM48.1722 32.6V43.725H48.9722V32.6H48.1722ZM48.1722 43.725C48.1722 43.9984 48.0887 44.2068 47.9297 44.3771L48.5146 44.9229C48.8223 44.5932 48.9722 44.185 48.9722 43.725H48.1722ZM47.9393 44.3672C47.7932 44.5133 47.593 44.6 47.2972 44.6V45.4C47.768 45.4 48.1845 45.2534 48.505 44.9328L47.9393 44.3672ZM47.2972 28.7C46.9522 28.7 46.6585 28.5827 46.3977 28.335L45.8467 28.915C46.2525 29.3006 46.7422 29.5 47.2972 29.5V28.7ZM46.4122 28.3495C46.1644 28.0887 46.0472 27.795 46.0472 27.45H45.2472C45.2472 28.005 45.4466 28.4946 45.8322 28.9005L46.4122 28.3495ZM46.0472 27.45C46.0472 27.1055 46.1638 26.8241 46.405 26.5828L45.8393 26.0172C45.4472 26.4092 45.2472 26.8945 45.2472 27.45H46.0472ZM46.405 26.5828C46.6673 26.3206 46.9587 26.2 47.2972 26.2V25.4C46.7356 25.4 46.2437 25.6128 45.8393 26.0172L46.405 26.5828ZM47.2972 26.2C47.6349 26.2 47.9142 26.3197 48.1572 26.5755L48.7372 26.0245C48.3468 25.6136 47.8595 25.4 47.2972 25.4V26.2ZM48.1717 26.59C48.4275 26.833 48.5472 27.1123 48.5472 27.45H49.3472C49.3472 26.8877 49.1335 26.4003 48.7227 26.01L48.1717 26.59ZM48.5472 27.45C48.5472 27.7884 48.4266 28.0799 48.1643 28.3422L48.73 28.9078C49.1344 28.5035 49.3472 28.0116 49.3472 27.45H48.5472ZM48.1643 28.3422C47.9231 28.5834 47.6417 28.7 47.2972 28.7V29.5C47.8527 29.5 48.3379 29.2999 48.73 28.9078L48.1643 28.3422ZM54.5661 40L54.2705 40.2695L54.5372 40.562L54.8325 40.2984L54.5661 40ZM53.0161 38.3L52.7498 38.0016L52.4482 38.2708L52.7205 38.5695L53.0161 38.3ZM60.6911 31.45L60.9575 31.7485L60.964 31.7424L60.6911 31.45ZM61.5161 31.125L61.4939 31.5244L61.4951 31.5244L61.5161 31.125ZM62.3161 31.525L62.0138 31.787L62.0187 31.7925L62.0237 31.7979L62.3161 31.525ZM62.6411 32.35L62.2417 32.3278L62.2417 32.3278L62.6411 32.35ZM62.2411 33.15L62.5075 33.4485L62.514 33.4424L62.2411 33.15ZM52.4911 44.675L52.198 44.9472L52.2081 44.958L52.2189 44.9681L52.4911 44.675ZM52.4911 25.825L52.2083 25.5422L52.2083 25.5422L52.4911 25.825ZM54.2661 25.825L53.973 26.0972L53.9831 26.108L53.9939 26.1181L54.2661 25.825ZM54.2661 44.675L53.9833 44.3922L53.9833 44.3922L54.2661 44.675ZM62.3161 44.875L62.5684 45.1855L62.5704 45.1838L62.3161 44.875ZM61.4161 45.15L61.4559 44.752L61.4465 44.751L61.4371 44.7506L61.4161 45.15ZM60.6161 44.725L60.3051 44.9765L60.3057 44.9772L60.6161 44.725ZM55.5411 38.45L55.2667 38.159L54.997 38.4133L55.2301 38.7015L55.5411 38.45ZM57.2911 36.8L57.6016 36.5478L57.33 36.2136L57.0167 36.509L57.2911 36.8ZM62.4911 43.2L62.1807 43.4522L62.1807 43.4522L62.4911 43.2ZM62.7661 44.075L62.3683 44.0331L62.3673 44.0429L62.3667 44.0528L62.7661 44.075ZM54.8617 39.7305L53.3117 38.0305L52.7205 38.5695L54.2705 40.2695L54.8617 39.7305ZM53.2825 38.5984L60.9575 31.7484L60.4248 31.1516L52.7498 38.0016L53.2825 38.5984ZM60.964 31.7424C61.1464 31.5722 61.3182 31.5146 61.4939 31.5244L61.5383 30.7256C61.114 30.702 60.7358 30.8611 60.4182 31.1576L60.964 31.7424ZM61.4951 31.5244C61.6981 31.5351 61.8649 31.6151 62.0138 31.787L62.6184 31.263C62.334 30.9349 61.9675 30.7482 61.5371 30.7256L61.4951 31.5244ZM62.0237 31.7979C62.1939 31.9803 62.2515 32.1521 62.2417 32.3278L63.0405 32.3722C63.0641 31.9479 62.905 31.5697 62.6085 31.2521L62.0237 31.7979ZM62.2417 32.3278C62.2316 32.5104 62.154 32.6841 61.9682 32.8576L62.514 33.4424C62.8282 33.1492 63.0173 32.7896 63.0405 32.3722L62.2417 32.3278ZM61.9748 32.8516L54.2998 39.7016L54.8325 40.2984L62.5075 33.4484L61.9748 32.8516ZM53.3911 44.6C53.109 44.6 52.9114 44.5194 52.7633 44.3819L52.2189 44.9681C52.5375 45.2639 52.9399 45.4 53.3911 45.4V44.6ZM52.7842 44.4028C52.6467 44.2547 52.5661 44.0571 52.5661 43.775H51.7661C51.7661 44.2262 51.9022 44.6287 52.198 44.9472L52.7842 44.4028ZM52.5661 43.775V26.7H51.7661V43.775H52.5661ZM52.5661 26.7C52.5661 26.4171 52.6468 26.235 52.774 26.1078L52.2083 25.5422C51.9021 25.8483 51.7661 26.2496 51.7661 26.7H52.5661ZM52.774 26.1078C52.9236 25.9582 53.1176 25.875 53.3911 25.875V25.075C52.9313 25.075 52.5253 25.2251 52.2083 25.5422L52.774 26.1078ZM53.3911 25.875C53.665 25.875 53.8437 25.958 53.973 26.0972L54.5592 25.5528C54.2552 25.2254 53.8505 25.075 53.3911 25.075V25.875ZM53.9939 26.1181C54.1331 26.2474 54.2161 26.4261 54.2161 26.7H55.0161C55.0161 26.2406 54.8658 25.836 54.5383 25.5319L53.9939 26.1181ZM54.2161 26.7V43.775H55.0161V26.7H54.2161ZM54.2161 43.775C54.2161 44.0485 54.1329 44.2425 53.9833 44.3922L54.549 44.9578C54.866 44.6408 55.0161 44.2348 55.0161 43.775H54.2161ZM53.9833 44.3922C53.8561 44.5194 53.674 44.6 53.3911 44.6V45.4C53.8415 45.4 54.2428 45.264 54.549 44.9578L53.9833 44.3922ZM62.0639 44.5646C61.8768 44.7165 61.6812 44.7745 61.4559 44.752L61.3763 45.548C61.8177 45.5922 62.2221 45.4668 62.5684 45.1854L62.0639 44.5646ZM61.4371 44.7506C61.2436 44.7404 61.0786 44.6599 60.9266 44.4728L60.3057 44.9772C60.587 45.3235 60.9553 45.5263 61.3951 45.5494L61.4371 44.7506ZM60.9271 44.4735L55.8521 38.1985L55.2301 38.7015L60.3051 44.9765L60.9271 44.4735ZM55.8155 38.741L57.5655 37.091L57.0167 36.509L55.2667 38.159L55.8155 38.741ZM56.9807 37.0522L62.1807 43.4522L62.8016 42.9478L57.6016 36.5478L56.9807 37.0522ZM62.1807 43.4522C62.3361 43.6436 62.3896 43.8311 62.3683 44.0331L63.1639 44.1169C63.2093 43.6856 63.0794 43.2897 62.8016 42.9478L62.1807 43.4522ZM62.3667 44.0528C62.3576 44.2171 62.2795 44.387 62.0618 44.5662L62.5704 45.1838C62.9194 44.8964 63.1413 44.5329 63.1655 44.0972L62.3667 44.0528ZM67.8995 44.4L67.7052 44.7497L67.7129 44.7538L67.8995 44.4ZM65.7495 42.225L65.3981 42.4161L65.4007 42.4208L65.7495 42.225ZM65.3245 31.675L65.0417 31.3922L65.0417 31.3922L65.3245 31.675ZM67.1495 31.675L66.8571 31.9479L66.8665 31.958L66.8766 31.9674L67.1495 31.675ZM68.0495 41.05L67.7016 41.2475L67.704 41.2515L68.0495 41.05ZM69.4745 42.4L69.2956 42.7579L69.3037 42.7617L69.4745 42.4ZM73.3995 42.4L73.2206 42.0422L73.2163 42.0444L73.3995 42.4ZM74.7495 41.25L75.0788 41.4771L75.0788 41.4771L74.7495 41.25ZM75.2495 39.625V39.225H74.8495V39.625H75.2495ZM76.8245 39.625H77.2245V39.225H76.8245V39.625ZM76.0495 42.425L75.7095 42.2142L75.7065 42.2192L76.0495 42.425ZM73.9745 44.4L73.7825 44.0491L73.7797 44.0507L73.9745 44.4ZM75.5995 44.65L75.3071 44.9229L75.3165 44.933L75.3266 44.9424L75.5995 44.65ZM75.5995 31.65L75.3264 31.3574L75.3167 31.3672L75.5995 31.65ZM77.4495 44.65L77.7325 44.933L77.7419 44.9229L77.4495 44.65ZM70.9995 44.725C69.9073 44.725 68.9391 44.496 68.0861 44.0462L67.7129 44.7538C68.6932 45.2707 69.7918 45.525 70.9995 45.525V44.725ZM68.0938 44.0503C67.2624 43.5884 66.5976 42.9185 66.0983 42.0292L65.4007 42.4208C65.9681 43.4315 66.7367 44.2116 67.7053 44.7497L68.0938 44.0503ZM66.1009 42.0339C65.6238 41.1567 65.3745 40.0598 65.3745 38.725H64.5745C64.5745 40.1569 64.8419 41.3933 65.3981 42.4161L66.1009 42.0339ZM65.3745 38.725V32.575H64.5745V38.725H65.3745ZM65.3745 32.575C65.3745 32.3015 65.4577 32.1075 65.6074 31.9578L65.0417 31.3922C64.7247 31.7092 64.5745 32.1152 64.5745 32.575H65.3745ZM65.6074 31.9578C65.7793 31.7859 65.9845 31.7 66.2495 31.7V30.9C65.7812 30.9 65.3697 31.0641 65.0417 31.3922L65.6074 31.9578ZM66.2495 31.7C66.5143 31.7 66.7053 31.7853 66.8571 31.9479L67.4419 31.4021C67.127 31.0647 66.7181 30.9 66.2495 30.9V31.7ZM66.8766 31.9674C67.0392 32.1192 67.1245 32.3102 67.1245 32.575H67.9245C67.9245 32.1064 67.7598 31.6975 67.4224 31.3826L66.8766 31.9674ZM67.1245 32.575V38.725H67.9245V32.575H67.1245ZM67.1245 38.725C67.1245 39.7063 67.3083 40.5545 67.7016 41.2474L68.3974 40.8526C68.0907 40.3122 67.9245 39.6103 67.9245 38.725H67.1245ZM67.704 41.2515C68.0917 41.9162 68.6235 42.4217 69.2956 42.7578L69.6534 42.0422C69.1255 41.7783 68.7073 41.3838 68.395 40.8485L67.704 41.2515ZM69.3037 42.7617C69.9637 43.0734 70.6982 43.225 71.4995 43.225V42.425C70.8008 42.425 70.1853 42.2933 69.6453 42.0383L69.3037 42.7617ZM71.4995 43.225C72.2698 43.225 72.9677 43.0724 73.5827 42.7556L73.2163 42.0444C72.7313 42.2943 72.1626 42.425 71.4995 42.425V43.225ZM73.5784 42.7578C74.2005 42.4467 74.7042 42.0203 75.0788 41.4771L74.4202 41.0229C74.1282 41.4463 73.7318 41.7866 73.2206 42.0422L73.5784 42.7578ZM75.0788 41.4771C75.4592 40.9254 75.6495 40.3042 75.6495 39.625H74.8495C74.8495 40.1458 74.7064 40.6079 74.4202 41.0229L75.0788 41.4771ZM75.2495 40.025H76.8245V39.225H75.2495V40.025ZM76.4245 39.625C76.4245 40.5881 76.1848 41.4477 75.7096 42.2142L76.3895 42.6358C76.9475 41.7357 77.2245 40.7286 77.2245 39.625H76.4245ZM75.7065 42.2192C75.2444 42.9894 74.6059 43.5986 73.7825 44.0491L74.1665 44.7509C75.1098 44.2348 75.8546 43.5273 76.3925 42.6308L75.7065 42.2192ZM73.7797 44.0507C72.9797 44.4968 72.0567 44.725 70.9995 44.725V45.525C72.1757 45.525 73.236 45.2699 74.1693 44.7493L73.7797 44.0507ZM76.5245 44.6C76.2512 44.6 76.0427 44.5165 75.8724 44.3576L75.3266 44.9424C75.6563 45.2502 76.0645 45.4 76.5245 45.4V44.6ZM75.8919 44.3771C75.733 44.2068 75.6495 43.9984 75.6495 43.725H74.8495C74.8495 44.185 74.9993 44.5932 75.3071 44.9229L75.8919 44.3771ZM75.6495 43.725V32.575H74.8495V43.725H75.6495ZM75.6495 32.575C75.6495 32.2792 75.7362 32.079 75.8824 31.9328L75.3167 31.3672C74.9962 31.6877 74.8495 32.1041 74.8495 32.575H75.6495ZM75.8724 31.9424C76.0427 31.7835 76.2512 31.7 76.5245 31.7V30.9C76.0645 30.9 75.6563 31.0498 75.3266 31.3576L75.8724 31.9424ZM76.5245 31.7C76.8203 31.7 77.0205 31.7867 77.1667 31.9328L77.7324 31.3672C77.4118 31.0466 76.9954 30.9 76.5245 30.9V31.7ZM77.1667 31.9328C77.3128 32.079 77.3995 32.2792 77.3995 32.575H78.1995C78.1995 32.1041 78.0529 31.6877 77.7324 31.3672L77.1667 31.9328ZM77.3995 32.575V43.725H78.1995V32.575H77.3995ZM77.3995 43.725C77.3995 43.9984 77.316 44.2068 77.1571 44.3771L77.7419 44.9229C78.0497 44.5932 78.1995 44.185 78.1995 43.725H77.3995ZM77.1667 44.3672C77.0205 44.5133 76.8203 44.6 76.5245 44.6V45.4C76.9954 45.4 77.4118 45.2534 77.7324 44.9328L77.1667 44.3672ZM91.7655 44.675L91.4731 44.9479L91.4825 44.958L91.4926 44.9674L91.7655 44.675ZM90.8905 35.275L90.545 35.4765L90.545 35.4765L90.8905 35.275ZM89.4655 33.95L89.2825 34.3059L89.2947 34.3117L89.4655 33.95ZM85.5405 33.925L85.3616 33.5672L85.3616 33.5672L85.5405 33.925ZM84.1905 35.075L84.5161 35.3075L84.5198 35.3021L84.1905 35.075ZM83.6905 36.7V37.1H84.0905V36.7H83.6905ZM82.1155 36.7H81.7155V37.1H82.1155V36.7ZM82.8655 33.9L82.5256 33.6892L82.5244 33.6911L82.8655 33.9ZM84.9655 31.925L85.1575 32.2759L85.1575 32.2759L84.9655 31.925ZM91.0155 31.95L90.8212 32.2997L90.829 32.3038L91.0155 31.95ZM93.1655 34.1L92.8141 34.2911L92.8167 34.2958L93.1655 34.1ZM93.5905 44.675L93.3077 44.3922L93.3077 44.3922L93.5905 44.675ZM81.4905 44.675L81.1981 44.9479L81.2075 44.958L81.2176 44.9674L81.4905 44.675ZM81.4905 31.675L81.2174 31.3824L81.2077 31.3922L81.4905 31.675ZM83.3405 44.675L83.6235 44.958L83.633 44.9479L83.3405 44.675ZM92.6905 44.625C92.4172 44.625 92.2087 44.5415 92.0385 44.3826L91.4926 44.9674C91.8223 45.2752 92.2306 45.425 92.6905 45.425V44.625ZM92.058 44.4021C91.899 44.2318 91.8155 44.0234 91.8155 43.75H91.0155C91.0155 44.21 91.1654 44.6182 91.4731 44.9479L92.058 44.4021ZM91.8155 43.75V37.6H91.0155V43.75H91.8155ZM91.8155 37.6C91.8155 36.6041 91.6325 35.7531 91.236 35.0735L90.545 35.4765C90.8486 35.9969 91.0155 36.6959 91.0155 37.6H91.8155ZM91.236 35.0735C90.8473 34.4071 90.313 33.9078 89.6363 33.5883L89.2947 34.3117C89.8181 34.5588 90.2337 34.9429 90.545 35.4765L91.236 35.0735ZM89.6485 33.5943C88.9997 33.2606 88.2601 33.1 87.4405 33.1V33.9C88.1543 33.9 88.7647 34.0394 89.2826 34.3057L89.6485 33.5943ZM87.4405 33.1C86.685 33.1 85.9895 33.2533 85.3616 33.5672L85.7194 34.2828C86.2249 34.03 86.796 33.9 87.4405 33.9V33.1ZM85.3616 33.5672C84.7395 33.8783 84.2359 34.3047 83.8612 34.8479L84.5198 35.3021C84.8118 34.8787 85.2082 34.5384 85.7194 34.2828L85.3616 33.5672ZM83.865 34.8425C83.4795 35.3822 83.2905 36.0066 83.2905 36.7H84.0905C84.0905 36.1601 84.2349 35.7011 84.516 35.3075L83.865 34.8425ZM83.6905 36.3H82.1155V37.1H83.6905V36.3ZM82.5155 36.7C82.5155 35.7164 82.7488 34.8567 83.2067 34.1089L82.5244 33.6911C81.9822 34.5767 81.7155 35.5836 81.7155 36.7H82.5155ZM83.2055 34.1108C83.6848 33.3378 84.3331 32.727 85.1575 32.2759L84.7735 31.5741C83.8313 32.0896 83.0796 32.7956 82.5256 33.6892L83.2055 34.1108ZM85.1575 32.2759C85.9767 31.8277 86.9013 31.6 87.9405 31.6V30.8C86.7798 30.8 85.7211 31.0556 84.7735 31.5741L85.1575 32.2759ZM87.9405 31.6C89.0307 31.6 89.9874 31.8364 90.8213 32.2997L91.2098 31.6003C90.2437 31.0636 89.1504 30.8 87.9405 30.8V31.6ZM90.829 32.3038C91.6727 32.7487 92.3334 33.4072 92.8141 34.2911L93.5169 33.9089C92.9643 32.8928 92.1917 32.118 91.2021 31.5962L90.829 32.3038ZM92.8167 34.2958C93.3086 35.172 93.5655 36.2671 93.5655 37.6H94.3655C94.3655 36.1662 94.0891 34.928 93.5143 33.9042L92.8167 34.2958ZM93.5655 37.6V43.75H94.3655V37.6H93.5655ZM93.5655 43.75C93.5655 44.015 93.4796 44.2202 93.3077 44.3922L93.8734 44.9578C94.2014 44.6298 94.3655 44.2184 94.3655 43.75H93.5655ZM93.3077 44.3922C93.158 44.5418 92.964 44.625 92.6905 44.625V45.425C93.1504 45.425 93.5564 45.2749 93.8734 44.9578L93.3077 44.3922ZM82.4155 44.625C82.1422 44.625 81.9337 44.5415 81.7635 44.3826L81.2176 44.9674C81.5473 45.2752 81.9556 45.425 82.4155 45.425V44.625ZM81.783 44.4021C81.624 44.2318 81.5405 44.0234 81.5405 43.75H80.7405C80.7405 44.21 80.8904 44.6182 81.1981 44.9479L81.783 44.4021ZM81.5405 43.75V32.6H80.7405V43.75H81.5405ZM81.5405 32.6C81.5405 32.3042 81.6272 32.104 81.7734 31.9578L81.2077 31.3922C80.8872 31.7127 80.7405 32.1291 80.7405 32.6H81.5405ZM81.7635 31.9674C81.9337 31.8085 82.1422 31.725 82.4155 31.725V30.925C81.9556 30.925 81.5473 31.0748 81.2176 31.3826L81.7635 31.9674ZM82.4155 31.725C82.7113 31.725 82.9115 31.8117 83.0577 31.9578L83.6234 31.3922C83.3029 31.0716 82.8864 30.925 82.4155 30.925V31.725ZM83.0577 31.9578C83.2038 32.104 83.2905 32.3042 83.2905 32.6H84.0905C84.0905 32.1291 83.9439 31.7127 83.6234 31.3922L83.0577 31.9578ZM83.2905 32.6V43.75H84.0905V32.6H83.2905ZM83.2905 43.75C83.2905 44.0234 83.207 44.2318 83.0481 44.4021L83.633 44.9479C83.9407 44.6182 84.0905 44.21 84.0905 43.75H83.2905ZM83.0577 44.3922C82.9115 44.5383 82.7113 44.625 82.4155 44.625V45.425C82.8864 45.425 83.3029 45.2784 83.6234 44.9578L83.0577 44.3922ZM99.4315 40L99.136 40.2695L99.4026 40.562L99.6979 40.2984L99.4315 40ZM97.8815 38.3L97.6152 38.0016L97.3136 38.2708L97.586 38.5695L97.8815 38.3ZM105.557 31.45L105.823 31.7485L105.829 31.7424L105.557 31.45ZM106.382 31.125L106.359 31.5244L106.361 31.5244L106.382 31.125ZM107.182 31.525L106.879 31.787L106.884 31.7925L106.889 31.7979L107.182 31.525ZM107.507 32.35L107.107 32.3278L107.107 32.3278L107.507 32.35ZM107.107 33.15L107.373 33.4485L107.379 33.4424L107.107 33.15ZM97.3565 44.675L97.0634 44.9472L97.0735 44.958L97.0844 44.9681L97.3565 44.675ZM97.3565 25.825L97.0737 25.5422L97.0737 25.5422L97.3565 25.825ZM99.1315 25.825L98.8384 26.0972L98.8485 26.108L98.8594 26.1181L99.1315 25.825ZM99.1315 44.675L98.8487 44.3922L98.8487 44.3922L99.1315 44.675ZM107.182 44.875L107.434 45.1855L107.436 45.1838L107.182 44.875ZM106.282 45.15L106.321 44.752L106.312 44.751L106.303 44.7506L106.282 45.15ZM105.482 44.725L105.171 44.9765L105.171 44.9772L105.482 44.725ZM100.407 38.45L100.132 38.159L99.8624 38.4133L100.096 38.7015L100.407 38.45ZM102.157 36.8L102.467 36.5478L102.195 36.2136L101.882 36.509L102.157 36.8ZM107.357 43.2L107.046 43.4522L107.046 43.4522L107.357 43.2ZM107.632 44.075L107.234 44.0331L107.233 44.0429L107.232 44.0528L107.632 44.075ZM99.7271 39.7305L98.1771 38.0305L97.586 38.5695L99.136 40.2695L99.7271 39.7305ZM98.1479 38.5984L105.823 31.7484L105.29 31.1516L97.6152 38.0016L98.1479 38.5984ZM105.829 31.7424C106.012 31.5722 106.184 31.5146 106.359 31.5244L106.404 30.7256C105.979 30.702 105.601 30.8611 105.284 31.1576L105.829 31.7424ZM106.361 31.5244C106.563 31.5351 106.73 31.6151 106.879 31.787L107.484 31.263C107.199 30.9349 106.833 30.7482 106.403 30.7256L106.361 31.5244ZM106.889 31.7979C107.059 31.9803 107.117 32.1521 107.107 32.3278L107.906 32.3722C107.929 31.9479 107.77 31.5697 107.474 31.2521L106.889 31.7979ZM107.107 32.3278C107.097 32.5104 107.019 32.6841 106.834 32.8576L107.379 33.4424C107.694 33.1492 107.883 32.7896 107.906 32.3722L107.107 32.3278ZM106.84 32.8516L99.1652 39.7016L99.6979 40.2984L107.373 33.4484L106.84 32.8516ZM98.2565 44.6C97.9744 44.6 97.7769 44.5194 97.6287 44.3819L97.0844 44.9681C97.4029 45.2639 97.8053 45.4 98.2565 45.4V44.6ZM97.6497 44.4028C97.5121 44.2547 97.4315 44.0571 97.4315 43.775H96.6315C96.6315 44.2262 96.7677 44.6287 97.0634 44.9472L97.6497 44.4028ZM97.4315 43.775V26.7H96.6315V43.775H97.4315ZM97.4315 26.7C97.4315 26.4171 97.5122 26.235 97.6394 26.1078L97.0737 25.5422C96.7676 25.8483 96.6315 26.2496 96.6315 26.7H97.4315ZM97.6394 26.1078C97.789 25.9582 97.983 25.875 98.2565 25.875V25.075C97.7967 25.075 97.3907 25.2251 97.0737 25.5422L97.6394 26.1078ZM98.2565 25.875C98.5305 25.875 98.7092 25.958 98.8384 26.0972L99.4247 25.5528C99.1206 25.2254 98.7159 25.075 98.2565 25.075V25.875ZM98.8594 26.1181C98.9986 26.2474 99.0815 26.4261 99.0815 26.7H99.8815C99.8815 26.2406 99.7312 25.836 99.4037 25.5319L98.8594 26.1181ZM99.0815 26.7V43.775H99.8815V26.7H99.0815ZM99.0815 43.775C99.0815 44.0485 98.9983 44.2425 98.8487 44.3922L99.4144 44.9578C99.7314 44.6408 99.8815 44.2348 99.8815 43.775H99.0815ZM98.8487 44.3922C98.7215 44.5194 98.5395 44.6 98.2565 44.6V45.4C98.7069 45.4 99.1083 45.264 99.4144 44.9578L98.8487 44.3922ZM106.929 44.5646C106.742 44.7165 106.547 44.7745 106.321 44.752L106.242 45.548C106.683 45.5922 107.087 45.4668 107.434 45.1854L106.929 44.5646ZM106.303 44.7506C106.109 44.7404 105.944 44.6599 105.792 44.4728L105.171 44.9772C105.452 45.3235 105.821 45.5263 106.261 45.5494L106.303 44.7506ZM105.793 44.4735L100.718 38.1985L100.096 38.7015L105.171 44.9765L105.793 44.4735ZM100.681 38.741L102.431 37.091L101.882 36.509L100.132 38.159L100.681 38.741ZM101.846 37.0522L107.046 43.4522L107.667 42.9478L102.467 36.5478L101.846 37.0522ZM107.046 43.4522C107.202 43.6436 107.255 43.8311 107.234 44.0331L108.029 44.1169C108.075 43.6856 107.945 43.2897 107.667 42.9478L107.046 43.4522ZM107.232 44.0528C107.223 44.2171 107.145 44.387 106.927 44.5662L107.436 45.1838C107.785 44.8964 108.007 44.5329 108.031 44.0972L107.232 44.0528ZM112.765 44.4L112.571 44.7497L112.578 44.7538L112.765 44.4ZM110.615 42.225L110.264 42.4161L110.266 42.4208L110.615 42.225ZM110.19 31.675L109.907 31.3922L109.907 31.3922L110.19 31.675ZM112.015 31.675L111.723 31.9479L111.732 31.958L111.742 31.9674L112.015 31.675ZM112.915 41.05L112.567 41.2475L112.569 41.2515L112.915 41.05ZM114.34 42.4L114.161 42.7579L114.169 42.7617L114.34 42.4ZM118.265 42.4L118.086 42.0422L118.082 42.0444L118.265 42.4ZM119.615 41.25L119.944 41.4771L119.944 41.4771L119.615 41.25ZM120.115 39.625V39.225H119.715V39.625H120.115ZM121.69 39.625H122.09V39.225H121.69V39.625ZM120.915 42.425L120.575 42.2142L120.572 42.2192L120.915 42.425ZM118.84 44.4L118.648 44.0491L118.645 44.0507L118.84 44.4ZM120.465 44.65L120.173 44.9229L120.182 44.933L120.192 44.9424L120.465 44.65ZM120.465 31.65L120.192 31.3574L120.182 31.3672L120.465 31.65ZM122.315 44.65L122.598 44.933L122.607 44.9229L122.315 44.65ZM115.865 44.725C114.773 44.725 113.805 44.496 112.952 44.0462L112.578 44.7538C113.559 45.2707 114.657 45.525 115.865 45.525V44.725ZM112.959 44.0503C112.128 43.5884 111.463 42.9185 110.964 42.0292L110.266 42.4208C110.834 43.4315 111.602 44.2116 112.571 44.7497L112.959 44.0503ZM110.966 42.0339C110.489 41.1567 110.24 40.0598 110.24 38.725H109.44C109.44 40.1569 109.707 41.3933 110.264 42.4161L110.966 42.0339ZM110.24 38.725V32.575H109.44V38.725H110.24ZM110.24 32.575C110.24 32.3015 110.323 32.1075 110.473 31.9578L109.907 31.3922C109.59 31.7092 109.44 32.1152 109.44 32.575H110.24ZM110.473 31.9578C110.645 31.7859 110.85 31.7 111.115 31.7V30.9C110.647 30.9 110.235 31.0641 109.907 31.3922L110.473 31.9578ZM111.115 31.7C111.38 31.7 111.571 31.7853 111.723 31.9479L112.307 31.4021C111.992 31.0647 111.584 30.9 111.115 30.9V31.7ZM111.742 31.9674C111.905 32.1192 111.99 32.3102 111.99 32.575H112.79C112.79 32.1064 112.625 31.6975 112.288 31.3826L111.742 31.9674ZM111.99 32.575V38.725H112.79V32.575H111.99ZM111.99 38.725C111.99 39.7063 112.174 40.5545 112.567 41.2474L113.263 40.8526C112.956 40.3122 112.79 39.6103 112.79 38.725H111.99ZM112.569 41.2515C112.957 41.9162 113.489 42.4217 114.161 42.7578L114.519 42.0422C113.991 41.7783 113.573 41.3838 113.26 40.8485L112.569 41.2515ZM114.169 42.7617C114.829 43.0734 115.564 43.225 116.365 43.225V42.425C115.666 42.425 115.051 42.2933 114.511 42.0383L114.169 42.7617ZM116.365 43.225C117.135 43.225 117.833 43.0724 118.448 42.7556L118.082 42.0444C117.597 42.2943 117.028 42.425 116.365 42.425V43.225ZM118.444 42.7578C119.066 42.4467 119.57 42.0203 119.944 41.4771L119.286 41.0229C118.994 41.4463 118.597 41.7866 118.086 42.0422L118.444 42.7578ZM119.944 41.4771C120.325 40.9254 120.515 40.3042 120.515 39.625H119.715C119.715 40.1458 119.572 40.6079 119.286 41.0229L119.944 41.4771ZM120.115 40.025H121.69V39.225H120.115V40.025ZM121.29 39.625C121.29 40.5881 121.05 41.4477 120.575 42.2142L121.255 42.6358C121.813 41.7357 122.09 40.7286 122.09 39.625H121.29ZM120.572 42.2192C120.11 42.9894 119.471 43.5986 118.648 44.0491L119.032 44.7509C119.975 44.2348 120.72 43.5273 121.258 42.6308L120.572 42.2192ZM118.645 44.0507C117.845 44.4968 116.922 44.725 115.865 44.725V45.525C117.041 45.525 118.101 45.2699 119.035 44.7493L118.645 44.0507ZM121.39 44.6C121.117 44.6 120.908 44.5165 120.738 44.3576L120.192 44.9424C120.522 45.2502 120.93 45.4 121.39 45.4V44.6ZM120.757 44.3771C120.598 44.2068 120.515 43.9984 120.515 43.725H119.715C119.715 44.185 119.865 44.5932 120.173 44.9229L120.757 44.3771ZM120.515 43.725V32.575H119.715V43.725H120.515ZM120.515 32.575C120.515 32.2792 120.602 32.079 120.748 31.9328L120.182 31.3672C119.862 31.6877 119.715 32.1041 119.715 32.575H120.515ZM120.738 31.9424C120.908 31.7835 121.117 31.7 121.39 31.7V30.9C120.93 30.9 120.522 31.0498 120.192 31.3576L120.738 31.9424ZM121.39 31.7C121.686 31.7 121.886 31.7867 122.032 31.9328L122.598 31.3672C122.277 31.0466 121.861 30.9 121.39 30.9V31.7ZM122.032 31.9328C122.178 32.079 122.265 32.2792 122.265 32.575H123.065C123.065 32.1041 122.918 31.6877 122.598 31.3672L122.032 31.9328ZM122.265 32.575V43.725H123.065V32.575H122.265ZM122.265 43.725C122.265 43.9984 122.181 44.2068 122.023 44.3771L122.607 44.9229C122.915 44.5932 123.065 44.185 123.065 43.725H122.265ZM122.032 44.3672C121.886 44.5133 121.686 44.6 121.39 44.6V45.4C121.861 45.4 122.277 45.2534 122.598 44.9328L122.032 44.3672Z" fill="#EDC808"/>
<path d="M11.5 22C8.45114 22.0036 5.52816 23.2164 3.37226 25.3723C1.21637 27.5281 0.0036091 30.4511 1.22349e-05 33.5C-0.00363943 35.9916 0.810221 38.4155 2.31674 40.4C2.31674 40.4 2.63038 40.813 2.68161 40.8726L11.5 51.2728L20.3226 40.8674C20.3686 40.8119 20.6833 40.4 20.6833 40.4L20.6844 40.3969C22.1901 38.4133 23.0036 35.9904 23.0001 33.5C22.9965 30.4511 21.7837 27.5281 19.6278 25.3723C17.4719 23.2164 14.5489 22.0036 11.5 22ZM12.5455 38.7273H10.4546V36.6364H12.5455V38.7273ZM12.5455 34.5455H10.4546V32.4546H12.5455V34.5455ZM16.7273 38.7273H14.6364V30.3637H8.36366V38.7273H6.27275V30.3637C6.2733 29.8093 6.49377 29.2778 6.88578 28.8858C7.27778 28.4938 7.80929 28.2733 8.36366 28.2727H14.6364C15.1908 28.2733 15.7223 28.4938 16.1143 28.8858C16.5063 29.2778 16.7268 29.8093 16.7273 30.3637V38.7273Z" fill="#EDC808"/>
<rect x="5.08984" y="26.3652" width="13.0909" height="13.8182" fill="#EDC808"/>
<path d="M8.51226 35.8286C8.23965 35.8286 7.9782 35.7203 7.78544 35.5275C7.59267 35.3347 7.48438 35.0733 7.48438 34.8007V32.7449M8.51226 35.8286V36.5995C8.51226 36.6676 8.53934 36.733 8.58753 36.7812C8.63572 36.8294 8.70108 36.8565 8.76923 36.8565C8.83739 36.8565 8.90275 36.8294 8.95094 36.7812C8.99913 36.733 9.02621 36.6676 9.02621 36.5995V35.8286M8.51226 35.8286H9.02621M14.6796 35.8286C14.9522 35.8286 15.2136 35.7203 15.4064 35.5275C15.5992 35.3347 15.7075 35.0733 15.7075 34.8007V32.7449M14.6796 35.8286V36.5995C14.6796 36.6676 14.6525 36.733 14.6043 36.7812C14.5561 36.8294 14.4908 36.8565 14.4226 36.8565C14.3545 36.8565 14.2891 36.8294 14.2409 36.7812C14.1927 36.733 14.1656 36.6676 14.1656 36.5995V35.8286M14.6796 35.8286H14.1656M7.48438 32.7449V29.6612M7.48438 32.7449H11.5959M15.7075 32.7449V29.6612M15.7075 32.7449H11.5959M9.02621 35.8286H14.1656M7.48438 29.6612V28.6334C7.48438 28.3607 7.59267 28.0993 7.78544 27.9065C7.9782 27.7138 8.23965 27.6055 8.51226 27.6055H14.6796C14.9522 27.6055 15.2136 27.7138 15.4064 27.9065C15.5992 28.0993 15.7075 28.3607 15.7075 28.6334V29.6612M7.48438 29.6612H11.5959M15.7075 29.6612H11.5959M11.5959 29.6612V32.7449" stroke="white" stroke-width="1.42617" stroke-linecap="round" stroke-linejoin="round"/>
<path fill-rule="evenodd" clip-rule="evenodd" d="M7.48438 32.7441H15.7075V35.8278H7.48438V32.7441ZM9.02621 34.286C9.02621 34.1497 9.08035 34.0189 9.17674 33.9226C9.27312 33.8262 9.40384 33.772 9.54015 33.772H9.54066C9.67697 33.772 9.80769 33.8262 9.90408 33.9226C10.0005 34.0189 10.0546 34.1497 10.0546 34.286C10.0546 34.4223 10.0005 34.553 9.90408 34.6494C9.80769 34.7458 9.67697 34.7999 9.54066 34.7999H9.54015C9.40384 34.7999 9.27312 34.7458 9.17674 34.6494C9.08035 34.553 9.02621 34.4223 9.02621 34.286ZM13.6517 33.772C13.5154 33.772 13.3847 33.8262 13.2883 33.9226C13.1919 34.0189 13.1378 34.1497 13.1378 34.286C13.1378 34.4223 13.1919 34.553 13.2883 34.6494C13.3847 34.7458 13.5154 34.7999 13.6517 34.7999H13.6522C13.7885 34.7999 13.9192 34.7458 14.0156 34.6494C14.112 34.553 14.1662 34.4223 14.1662 34.286C14.1662 34.1497 14.112 34.0189 14.0156 33.9226C13.9192 33.8262 13.7885 33.772 13.6522 33.772H13.6517Z" fill="white"/>
<path d="M7.48438 28.6334C7.48438 28.3607 7.59267 28.0993 7.78544 27.9065C7.9782 27.7138 8.23965 27.6055 8.51226 27.6055H14.6796C14.9522 27.6055 15.2136 27.7138 15.4064 27.9065C15.5992 28.0993 15.7075 28.3607 15.7075 28.6334V29.6612H7.48438V28.6334Z" fill="white"/>
<path d="M6.37793 39.3467C7.76953 40.7787 11.8052 42.7835 16.8149 39.3467" stroke="white" stroke-width="1.89764" stroke-linecap="round"/>
</svg>
