<svg width="20" height="20" viewBox="0 0 20 20" fill="none" xmlns="http://www.w3.org/2000/svg">
<path d="M16.6667 6.86976L11.6667 2.60818C11.2084 2.20961 10.615 1.98926 10.0001 1.98926C9.38513 1.98926 8.79176 2.20961 8.33341 2.60818L3.33341 6.86976C3.06872 7.09991 2.8575 7.38225 2.71381 7.69797C2.57012 8.01368 2.49726 8.35554 2.50008 8.70078V15.7818C2.50008 16.4264 2.76347 17.0446 3.23231 17.5005C3.70115 17.9563 4.33704 18.2124 5.00008 18.2124H15.0001C15.6631 18.2124 16.299 17.9563 16.7678 17.5005C17.2367 17.0446 17.5001 16.4264 17.5001 15.7818V8.69267C17.5017 8.3488 17.4283 8.00851 17.2846 7.69427C17.141 7.38003 16.9304 7.09901 16.6667 6.86976ZM11.6667 16.592H8.33341V12.5411C8.33341 12.3262 8.42121 12.1201 8.57749 11.9682C8.73377 11.8162 8.94573 11.7309 9.16675 11.7309H10.8334C11.0544 11.7309 11.2664 11.8162 11.4227 11.9682C11.5789 12.1201 11.6667 12.3262 11.6667 12.5411V16.592ZM15.8334 15.7818C15.8334 15.9967 15.7456 16.2027 15.5893 16.3547C15.4331 16.5066 15.2211 16.592 15.0001 16.592H13.3334V12.5411C13.3334 11.8964 13.07 11.2782 12.6012 10.8224C12.1323 10.3666 11.4965 10.1105 10.8334 10.1105H9.16675C8.5037 10.1105 7.86782 10.3666 7.39898 10.8224C6.93014 11.2782 6.66675 11.8964 6.66675 12.5411V16.592H5.00008C4.77907 16.592 4.5671 16.5066 4.41082 16.3547C4.25454 16.2027 4.16675 15.9967 4.16675 15.7818V8.69267C4.1669 8.57764 4.19224 8.46396 4.24109 8.35919C4.28995 8.25441 4.36119 8.16096 4.45008 8.08504L9.45008 3.83156C9.60215 3.70168 9.79766 3.63004 10.0001 3.63004C10.2025 3.63004 10.398 3.70168 10.5501 3.83156L15.5501 8.08504C15.639 8.16096 15.7102 8.25441 15.7591 8.35919C15.8079 8.46396 15.8333 8.57764 15.8334 8.69267V15.7818Z" fill="#4382EE"/>
</svg>
