<svg width="16" height="16" viewBox="0 0 16 16" fill="none" xmlns="http://www.w3.org/2000/svg">
<circle cx="7.89648" cy="7.83007" r="7.83007" fill="#494949"/>
<g clip-path="url(#clip0_575_6056)">
<path d="M10.6918 5.40485C10.6918 3.86214 9.43805 2.6084 7.89534 2.6084C6.35263 2.6084 5.09889 3.86214 5.09889 5.40485C5.09889 7.50219 7.89534 10.5317 7.89534 10.5317C7.89534 10.5317 10.6918 7.50219 10.6918 5.40485ZM6.96319 5.40485C6.96319 4.89217 7.38266 4.4727 7.89534 4.4727C8.40803 4.4727 8.82749 4.89217 8.82749 5.40485C8.82749 5.91754 8.41269 6.337 7.89534 6.337C7.38266 6.337 6.96319 5.91754 6.96319 5.40485ZM4.63281 10.9978V11.9299H11.1579V10.9978H4.63281Z" fill="white"/>
</g>
<defs>
<clipPath id="clip0_575_6056">
<rect width="11.1858" height="11.1858" fill="white" transform="translate(2.30273 1.67676)"/>
</clipPath>
</defs>
</svg>
