<svg width="32" height="29" viewBox="0 0 32 29" fill="none" xmlns="http://www.w3.org/2000/svg">
<path d="M4.39416 28.9999H6.75878C7.33878 28.9999 7.80724 28.5315 7.80724 27.9515V23.3672C7.80724 23.0862 7.6956 22.8167 7.49689 22.618C7.29817 22.4193 7.02865 22.3076 6.74763 22.3076H4.39416C3.81416 22.3076 3.3457 22.7872 3.3457 23.3672V27.9515C3.3457 28.5315 3.81416 28.9999 4.39416 28.9999ZM24.4822 28.9999H26.8357C27.4157 28.9999 27.8842 28.5315 27.873 27.9515V23.3672C27.873 22.7872 27.4046 22.3188 26.8246 22.3188H24.4711C23.8911 22.3188 23.4226 22.7872 23.4226 23.3672V27.9515C23.4226 28.5315 23.8911 28.9999 24.4822 28.9999Z" fill="#321B41"/>
<path d="M26.3003 25.6542H4.92955C4.05955 25.6542 3.3457 24.9515 3.3457 24.0704V17.8465C5.57647 17.2888 14.7449 16.2627 15.6149 16.2627C18.5239 16.2627 21.7495 16.7312 27.8842 17.8465V24.0704C27.8842 24.9515 27.1703 25.6542 26.3003 25.6542Z" fill="#EDC808"/>
<path d="M1.36077 14.4998C1.84038 14.4998 2.23077 14.1094 2.23077 13.6298V13.3844H4.46154V11.1536H2.23077V9.79285C2.23077 9.31324 1.84038 8.92285 1.36077 8.92285H0.87C0.390385 8.92285 0 9.31324 0 9.79285V13.6298C0 14.1094 0.390385 14.4998 0.87 14.4998H1.36077ZM30.3608 14.4998C30.8404 14.4998 31.2308 14.1094 31.2308 13.6298V9.79285C31.2308 9.31324 30.8404 8.92285 30.3608 8.92285H29.87C29.3904 8.92285 29 9.31324 29 9.79285V11.1536H26.7692V13.3844H29V13.6298C29 14.1094 29.3904 14.4998 29.87 14.4998H30.3608Z" fill="#321B41"/>
<path d="M24.0807 0H7.14916C5.04109 0 3.3457 1.63962 3.3457 3.66962V17.8462H27.8842V3.66962C27.8842 1.63962 26.1888 0 24.0807 0Z" fill="#EDC808"/>
<path d="M24.5498 16.731H6.68138C6.06792 16.731 5.57715 16.2291 5.57715 15.6268V6.69253L15.6156 5.57715L25.6541 6.69253V15.6268C25.6541 16.2291 25.1633 16.731 24.5498 16.731Z" fill="#868686"/>
<path d="M9.48054 20.0773H21.7498C22.0621 20.0773 22.3075 19.8319 22.3075 19.5196C22.3075 19.2073 22.0621 18.9619 21.7498 18.9619H9.48054C9.16824 18.9619 8.92285 19.2185 8.92285 19.5196C8.92285 19.8319 9.16824 20.0773 9.48054 20.0773ZM11.7113 22.3081H19.519C19.8313 22.3081 20.0767 22.0627 20.0767 21.7504C20.0767 21.4381 19.8313 21.1927 19.519 21.1927H11.7113C11.399 21.1927 11.1536 21.4381 11.1536 21.7504C11.1536 22.0627 11.399 22.3081 11.7113 22.3081Z" fill="#E6E6E6"/>
<path d="M5.57647 18.9619C6.18993 18.9619 6.69186 19.4638 6.69186 20.0773V22.3081C6.69186 22.9215 6.18993 23.4235 5.57647 23.4235H3.3457V18.9619H5.57647ZM25.6534 23.4235C25.0399 23.4235 24.538 22.9215 24.538 22.3081V20.0773C24.538 19.4638 25.0399 18.9619 25.6534 18.9619H27.8842V23.4235H25.6534Z" fill="#868686"/>
<path d="M25.6541 6.69186H5.57715V4.44993C5.57715 3.83647 6.06792 3.3457 6.68138 3.3457H24.561C25.1633 3.3457 25.6541 3.83647 25.6541 4.44993V6.69186Z" fill="#433B6B"/>
</svg>
