<svg width="37" height="37" viewBox="0 0 37 37" fill="none" xmlns="http://www.w3.org/2000/svg">
<path d="M4.39416 36.9999H6.75878C7.33878 36.9999 7.80724 36.5315 7.80724 35.9515V31.3672C7.80724 31.0862 7.6956 30.8167 7.49689 30.618C7.29817 30.4193 7.02865 30.3076 6.74763 30.3076H4.39416C3.81416 30.3076 3.3457 30.7872 3.3457 31.3672V35.9515C3.3457 36.5315 3.81416 36.9999 4.39416 36.9999V36.9999ZM24.4822 36.9999H26.8357C27.4157 36.9999 27.8842 36.5315 27.873 35.9515V31.3672C27.873 30.7872 27.4046 30.3188 26.8246 30.3188H24.4711C23.8911 30.3188 23.4226 30.7872 23.4226 31.3672V35.9515C23.4226 36.5315 23.8911 36.9999 24.4822 36.9999V36.9999Z" fill="#321B41"/>
<path d="M26.3003 33.6542H4.92955C4.05955 33.6542 3.3457 32.9515 3.3457 32.0704V25.8465C5.57647 25.2888 14.7449 24.2627 15.6149 24.2627C18.5239 24.2627 21.7495 24.7312 27.8842 25.8465V32.0704C27.8842 32.9515 27.1703 33.6542 26.3003 33.6542Z" fill="#EDC808"/>
<path d="M1.36077 22.4998C1.84038 22.4998 2.23077 22.1094 2.23077 21.6298V21.3844H4.46154V19.1536H2.23077V17.7929C2.23077 17.3132 1.84038 16.9229 1.36077 16.9229H0.87C0.390385 16.9229 0 17.3132 0 17.7929V21.6298C0 22.1094 0.390385 22.4998 0.87 22.4998H1.36077V22.4998ZM30.3608 22.4998C30.8404 22.4998 31.2308 22.1094 31.2308 21.6298V17.7929C31.2308 17.3132 30.8404 16.9229 30.3608 16.9229H29.87C29.3904 16.9229 29 17.3132 29 17.7929V19.1536H26.7692V21.3844H29V21.6298C29 22.1094 29.3904 22.4998 29.87 22.4998H30.3608Z" fill="#321B41"/>
<path d="M24.0807 8H7.14916C5.04109 8 3.3457 9.63962 3.3457 11.6696V25.8462H27.8842V11.6696C27.8842 9.63962 26.1888 8 24.0807 8Z" fill="#EDC808"/>
<path d="M24.5498 24.731H6.68138C6.06792 24.731 5.57715 24.2291 5.57715 23.6268V14.6925L15.6156 13.5771L25.6541 14.6925V23.6268C25.6541 24.2291 25.1633 24.731 24.5498 24.731V24.731Z" fill="#868686"/>
<path d="M9.48054 28.0773H21.7498C22.0621 28.0773 22.3075 27.8319 22.3075 27.5196C22.3075 27.2073 22.0621 26.9619 21.7498 26.9619H9.48054C9.16824 26.9619 8.92285 27.2185 8.92285 27.5196C8.92285 27.8319 9.16824 28.0773 9.48054 28.0773ZM11.7113 30.3081H19.519C19.8313 30.3081 20.0767 30.0627 20.0767 29.7504C20.0767 29.4381 19.8313 29.1927 19.519 29.1927H11.7113C11.399 29.1927 11.1536 29.4381 11.1536 29.7504C11.1536 30.0627 11.399 30.3081 11.7113 30.3081Z" fill="#E6E6E6"/>
<path d="M5.57647 26.9619C6.18993 26.9619 6.69186 27.4638 6.69186 28.0773V30.3081C6.69186 30.9215 6.18993 31.4235 5.57647 31.4235H3.3457V26.9619H5.57647ZM25.6534 31.4235C25.0399 31.4235 24.538 30.9215 24.538 30.3081V28.0773C24.538 27.4638 25.0399 26.9619 25.6534 26.9619H27.8842V31.4235H25.6534Z" fill="#868686"/>
<path d="M25.6541 14.6919H5.57715V12.4499C5.57715 11.8365 6.06792 11.3457 6.68138 11.3457H24.561C25.1633 11.3457 25.6541 11.8365 25.6541 12.4499V14.6919V14.6919Z" fill="#433B6B"/>
<circle cx="28.5" cy="8.5" r="6.01041" transform="rotate(-45 28.5 8.5)" fill="#4382EE"/>
<path d="M26.3323 12L26.3323 11.1435L28.6047 8.91584C28.822 8.69638 29.0031 8.50142 29.148 8.33097C29.2929 8.16051 29.4016 7.99538 29.474 7.83558C29.5465 7.67578 29.5827 7.50533 29.5827 7.32422C29.5827 7.11754 29.5358 6.9407 29.4421 6.79368C29.3483 6.64453 29.2194 6.52948 29.0553 6.44851C28.8913 6.36754 28.7049 6.32706 28.496 6.32706C28.2808 6.32706 28.0923 6.3718 27.9303 6.46129C27.7684 6.54865 27.6427 6.6733 27.5532 6.83523C27.4659 6.99716 27.4222 7.18999 27.4222 7.41371L26.294 7.41371C26.294 6.99822 26.3888 6.63707 26.5784 6.33026C26.7681 6.02344 27.0291 5.78587 27.3615 5.61754C27.696 5.44922 28.0795 5.36506 28.512 5.36506C28.9509 5.36506 29.3366 5.44709 29.669 5.61115C30.0014 5.77521 30.2592 6 30.4424 6.28551C30.6278 6.57102 30.7205 6.89702 30.7205 7.26349C30.7205 7.50852 30.6736 7.74929 30.5799 7.9858C30.4861 8.2223 30.321 8.48438 30.0845 8.77202C29.8501 9.05966 29.5209 9.40803 29.0969 9.81712L27.9687 10.9645L27.9687 11.0092L30.8196 11.0092L30.8196 12L26.3323 12Z" fill="white"/>
</svg>
