<svg width="43" height="45" viewBox="0 0 43 45" fill="none" xmlns="http://www.w3.org/2000/svg">
<g filter="url(#filter0_d_1037_7394)">
<path d="M8.39416 36.9999H10.7588C11.3388 36.9999 11.8072 36.5315 11.8072 35.9515V31.3672C11.8072 31.0862 11.6956 30.8167 11.4969 30.618C11.2982 30.4193 11.0287 30.3076 10.7476 30.3076H8.39416C7.81416 30.3076 7.3457 30.7872 7.3457 31.3672V35.9515C7.3457 36.5315 7.81416 36.9999 8.39416 36.9999ZM28.4822 36.9999H30.8357C31.4157 36.9999 31.8842 36.5315 31.873 35.9515V31.3672C31.873 30.7872 31.4046 30.3188 30.8246 30.3188H28.4711C27.8911 30.3188 27.4226 30.7872 27.4226 31.3672V35.9515C27.4226 36.5315 27.8911 36.9999 28.4822 36.9999Z" fill="#321B41"/>
<path d="M30.3003 33.6542H8.92955C8.05955 33.6542 7.3457 32.9515 7.3457 32.0704V25.8465C9.57647 25.2888 18.7449 24.2627 19.6149 24.2627C22.5239 24.2627 25.7495 24.7312 31.8842 25.8465V32.0704C31.8842 32.9515 31.1703 33.6542 30.3003 33.6542Z" fill="#EDC808"/>
<path d="M5.36077 22.4998C5.84038 22.4998 6.23077 22.1094 6.23077 21.6298V21.3844H8.46154V19.1536H6.23077V17.7929C6.23077 17.3132 5.84038 16.9229 5.36077 16.9229H4.87C4.39038 16.9229 4 17.3132 4 17.7929V21.6298C4 22.1094 4.39038 22.4998 4.87 22.4998H5.36077ZM34.3608 22.4998C34.8404 22.4998 35.2308 22.1094 35.2308 21.6298V17.7929C35.2308 17.3132 34.8404 16.9229 34.3608 16.9229H33.87C33.3904 16.9229 33 17.3132 33 17.7929V19.1536H30.7692V21.3844H33V21.6298C33 22.1094 33.3904 22.4998 33.87 22.4998H34.3608Z" fill="#321B41"/>
<path d="M28.0807 8H11.1492C9.04109 8 7.3457 9.63962 7.3457 11.6696V25.8462H31.8842V11.6696C31.8842 9.63962 30.1888 8 28.0807 8Z" fill="#EDC808"/>
<path d="M28.5498 24.731H10.6814C10.0679 24.731 9.57715 24.2291 9.57715 23.6268V14.6925L19.6156 13.5771L29.6541 14.6925V23.6268C29.6541 24.2291 29.1633 24.731 28.5498 24.731Z" fill="#868686"/>
<path d="M13.4805 28.0773H25.7498C26.0621 28.0773 26.3075 27.8319 26.3075 27.5196C26.3075 27.2073 26.0621 26.9619 25.7498 26.9619H13.4805C13.1682 26.9619 12.9229 27.2185 12.9229 27.5196C12.9229 27.8319 13.1682 28.0773 13.4805 28.0773ZM15.7113 30.3081H23.519C23.8313 30.3081 24.0767 30.0627 24.0767 29.7504C24.0767 29.4381 23.8313 29.1927 23.519 29.1927H15.7113C15.399 29.1927 15.1536 29.4381 15.1536 29.7504C15.1536 30.0627 15.399 30.3081 15.7113 30.3081Z" fill="#E6E6E6"/>
<path d="M9.57647 26.9619C10.1899 26.9619 10.6919 27.4638 10.6919 28.0773V30.3081C10.6919 30.9215 10.1899 31.4235 9.57647 31.4235H7.3457V26.9619H9.57647ZM29.6534 31.4235C29.0399 31.4235 28.538 30.9215 28.538 30.3081V28.0773C28.538 27.4638 29.0399 26.9619 29.6534 26.9619H31.8842V31.4235H29.6534Z" fill="#868686"/>
<path d="M29.6541 14.6919H9.57715V12.4499C9.57715 11.8365 10.0679 11.3457 10.6814 11.3457H28.561C29.1633 11.3457 29.6541 11.8365 29.6541 12.4499V14.6919Z" fill="#433B6B"/>
<circle cx="32.5" cy="8.5" r="6.01041" transform="rotate(-45 32.5 8.5)" fill="#4382EE"/>
<path d="M32.5452 12.0895C32.085 12.0895 31.6759 12.0107 31.3179 11.853C30.9621 11.6953 30.6808 11.4759 30.4742 11.1946C30.2675 10.9134 30.1578 10.5884 30.145 10.2198L31.3467 10.2198C31.3573 10.3967 31.4159 10.5511 31.5225 10.6832C31.629 10.8132 31.7707 10.9144 31.9475 10.9869C32.1244 11.0593 32.3225 11.0955 32.542 11.0955C32.7764 11.0955 32.9841 11.055 33.1652 10.9741C33.3463 10.891 33.488 10.7759 33.5903 10.6289C33.6926 10.4819 33.7426 10.3125 33.7405 10.1207C33.7426 9.92259 33.6915 9.74787 33.5871 9.59659C33.4827 9.44531 33.3314 9.32706 33.1333 9.24183C32.9372 9.15661 32.7007 9.11399 32.4237 9.11399L31.8453 9.11399L31.8453 8.19993L32.4237 8.19993C32.6517 8.19993 32.8509 8.16051 33.0214 8.08168C33.194 8.00284 33.3293 7.89205 33.4273 7.74929C33.5253 7.6044 33.5732 7.43715 33.5711 7.24751C33.5732 7.06215 33.5317 6.90128 33.4465 6.76492C33.3634 6.62642 33.2451 6.51882 33.0917 6.44212C32.9404 6.36541 32.7625 6.32706 32.558 6.32706C32.3577 6.32706 32.1723 6.36328 32.0019 6.43572C31.8314 6.50817 31.694 6.61151 31.5896 6.74574C31.4852 6.87784 31.4298 7.03551 31.4234 7.21875L30.2824 7.21875C30.2909 6.85227 30.3964 6.53054 30.5988 6.25355C30.8034 5.97443 31.0761 5.7571 31.417 5.60156C31.7579 5.44389 32.1404 5.36506 32.5644 5.36506C33.0012 5.36506 33.3804 5.44709 33.7021 5.61115C34.026 5.77308 34.2764 5.99148 34.4532 6.26634C34.6301 6.54119 34.7185 6.84482 34.7185 7.1772C34.7206 7.54581 34.6119 7.85476 34.3925 8.10405C34.1752 8.35334 33.8896 8.51634 33.536 8.59304L33.536 8.64418C33.9962 8.7081 34.3488 8.87855 34.5938 9.15554C34.841 9.4304 34.9635 9.77237 34.9614 10.1815C34.9614 10.5479 34.857 10.8761 34.6482 11.1658C34.4415 11.4535 34.156 11.6793 33.7916 11.8434C33.4294 12.0075 33.0139 12.0895 32.5452 12.0895Z" fill="white"/>
</g>
<defs>
<filter id="filter0_d_1037_7394" x="0" y="2.48926" width="42.5107" height="42.5107" filterUnits="userSpaceOnUse" color-interpolation-filters="sRGB">
<feFlood flood-opacity="0" result="BackgroundImageFix"/>
<feColorMatrix in="SourceAlpha" type="matrix" values="0 0 0 0 0 0 0 0 0 0 0 0 0 0 0 0 0 0 127 0" result="hardAlpha"/>
<feOffset dy="4"/>
<feGaussianBlur stdDeviation="2"/>
<feComposite in2="hardAlpha" operator="out"/>
<feColorMatrix type="matrix" values="0 0 0 0 0 0 0 0 0 0 0 0 0 0 0 0 0 0 0.25 0"/>
<feBlend mode="normal" in2="BackgroundImageFix" result="effect1_dropShadow_1037_7394"/>
<feBlend mode="normal" in="SourceGraphic" in2="effect1_dropShadow_1037_7394" result="shape"/>
</filter>
</defs>
</svg>
