<svg width="43" height="45" viewBox="0 0 43 45" fill="none" xmlns="http://www.w3.org/2000/svg">
<g filter="url(#filter0_d_1037_7406)">
<path d="M8.39416 36.9999H10.7588C11.3388 36.9999 11.8072 36.5315 11.8072 35.9515V31.3672C11.8072 31.0862 11.6956 30.8167 11.4969 30.618C11.2982 30.4193 11.0287 30.3076 10.7476 30.3076H8.39416C7.81416 30.3076 7.3457 30.7872 7.3457 31.3672V35.9515C7.3457 36.5315 7.81416 36.9999 8.39416 36.9999ZM28.4822 36.9999H30.8357C31.4157 36.9999 31.8842 36.5315 31.873 35.9515V31.3672C31.873 30.7872 31.4046 30.3188 30.8246 30.3188H28.4711C27.8911 30.3188 27.4226 30.7872 27.4226 31.3672V35.9515C27.4226 36.5315 27.8911 36.9999 28.4822 36.9999Z" fill="#321B41"/>
<path d="M30.3003 33.6542H8.92955C8.05955 33.6542 7.3457 32.9515 7.3457 32.0704V25.8465C9.57647 25.2888 18.7449 24.2627 19.6149 24.2627C22.5239 24.2627 25.7495 24.7312 31.8842 25.8465V32.0704C31.8842 32.9515 31.1703 33.6542 30.3003 33.6542Z" fill="#EDC808"/>
<path d="M5.36077 22.4998C5.84038 22.4998 6.23077 22.1094 6.23077 21.6298V21.3844H8.46154V19.1536H6.23077V17.7929C6.23077 17.3132 5.84038 16.9229 5.36077 16.9229H4.87C4.39038 16.9229 4 17.3132 4 17.7929V21.6298C4 22.1094 4.39038 22.4998 4.87 22.4998H5.36077ZM34.3608 22.4998C34.8404 22.4998 35.2308 22.1094 35.2308 21.6298V17.7929C35.2308 17.3132 34.8404 16.9229 34.3608 16.9229H33.87C33.3904 16.9229 33 17.3132 33 17.7929V19.1536H30.7692V21.3844H33V21.6298C33 22.1094 33.3904 22.4998 33.87 22.4998H34.3608Z" fill="#321B41"/>
<path d="M28.0807 8H11.1492C9.04109 8 7.3457 9.63962 7.3457 11.6696V25.8462H31.8842V11.6696C31.8842 9.63962 30.1888 8 28.0807 8Z" fill="#EDC808"/>
<path d="M28.5498 24.731H10.6814C10.0679 24.731 9.57715 24.2291 9.57715 23.6268V14.6925L19.6156 13.5771L29.6541 14.6925V23.6268C29.6541 24.2291 29.1633 24.731 28.5498 24.731Z" fill="#868686"/>
<path d="M13.4805 28.0773H25.7498C26.0621 28.0773 26.3075 27.8319 26.3075 27.5196C26.3075 27.2073 26.0621 26.9619 25.7498 26.9619H13.4805C13.1682 26.9619 12.9229 27.2185 12.9229 27.5196C12.9229 27.8319 13.1682 28.0773 13.4805 28.0773ZM15.7113 30.3081H23.519C23.8313 30.3081 24.0767 30.0627 24.0767 29.7504C24.0767 29.4381 23.8313 29.1927 23.519 29.1927H15.7113C15.399 29.1927 15.1536 29.4381 15.1536 29.7504C15.1536 30.0627 15.399 30.3081 15.7113 30.3081Z" fill="#E6E6E6"/>
<path d="M9.57647 26.9619C10.1899 26.9619 10.6919 27.4638 10.6919 28.0773V30.3081C10.6919 30.9215 10.1899 31.4235 9.57647 31.4235H7.3457V26.9619H9.57647ZM29.6534 31.4235C29.0399 31.4235 28.538 30.9215 28.538 30.3081V28.0773C28.538 27.4638 29.0399 26.9619 29.6534 26.9619H31.8842V31.4235H29.6534Z" fill="#868686"/>
<path d="M29.6541 14.6919H9.57715V12.4499C9.57715 11.8365 10.0679 11.3457 10.6814 11.3457H28.561C29.1633 11.3457 29.6541 11.8365 29.6541 12.4499V14.6919Z" fill="#433B6B"/>
<circle cx="32.5" cy="8.5" r="6.01041" transform="rotate(-45 32.5 8.5)" fill="#4382EE"/>
<path d="M30.0119 10.7855L30.0119 9.84268L32.7893 5.45455L33.5755 5.45455L33.5755 6.79688L33.0961 6.79688L31.2264 9.75959L31.2264 9.81072L35.1032 9.81073L35.1032 10.7855L30.0119 10.7855ZM33.1345 12L33.1345 10.4979L33.1472 10.076L33.1472 5.45455L34.2658 5.45455L34.2658 12L33.1345 12Z" fill="white"/>
</g>
<defs>
<filter id="filter0_d_1037_7406" x="0" y="2.48926" width="42.5107" height="42.5107" filterUnits="userSpaceOnUse" color-interpolation-filters="sRGB">
<feFlood flood-opacity="0" result="BackgroundImageFix"/>
<feColorMatrix in="SourceAlpha" type="matrix" values="0 0 0 0 0 0 0 0 0 0 0 0 0 0 0 0 0 0 127 0" result="hardAlpha"/>
<feOffset dy="4"/>
<feGaussianBlur stdDeviation="2"/>
<feComposite in2="hardAlpha" operator="out"/>
<feColorMatrix type="matrix" values="0 0 0 0 0 0 0 0 0 0 0 0 0 0 0 0 0 0 0.25 0"/>
<feBlend mode="normal" in2="BackgroundImageFix" result="effect1_dropShadow_1037_7406"/>
<feBlend mode="normal" in="SourceGraphic" in2="effect1_dropShadow_1037_7406" result="shape"/>
</filter>
</defs>
</svg>
