<svg width="43" height="45" viewBox="0 0 43 45" fill="none" xmlns="http://www.w3.org/2000/svg">
<g filter="url(#filter0_d_1037_7430)">
<path d="M8.39416 36.9999H10.7588C11.3388 36.9999 11.8072 36.5315 11.8072 35.9515V31.3672C11.8072 31.0862 11.6956 30.8167 11.4969 30.618C11.2982 30.4193 11.0287 30.3076 10.7476 30.3076H8.39416C7.81416 30.3076 7.3457 30.7872 7.3457 31.3672V35.9515C7.3457 36.5315 7.81416 36.9999 8.39416 36.9999ZM28.4822 36.9999H30.8357C31.4157 36.9999 31.8842 36.5315 31.873 35.9515V31.3672C31.873 30.7872 31.4046 30.3188 30.8246 30.3188H28.4711C27.8911 30.3188 27.4226 30.7872 27.4226 31.3672V35.9515C27.4226 36.5315 27.8911 36.9999 28.4822 36.9999Z" fill="#321B41"/>
<path d="M30.3003 33.6542H8.92955C8.05955 33.6542 7.3457 32.9515 7.3457 32.0704V25.8465C9.57647 25.2888 18.7449 24.2627 19.6149 24.2627C22.5239 24.2627 25.7495 24.7312 31.8842 25.8465V32.0704C31.8842 32.9515 31.1703 33.6542 30.3003 33.6542Z" fill="#EDC808"/>
<path d="M5.36077 22.4998C5.84038 22.4998 6.23077 22.1094 6.23077 21.6298V21.3844H8.46154V19.1536H6.23077V17.7929C6.23077 17.3132 5.84038 16.9229 5.36077 16.9229H4.87C4.39038 16.9229 4 17.3132 4 17.7929V21.6298C4 22.1094 4.39038 22.4998 4.87 22.4998H5.36077ZM34.3608 22.4998C34.8404 22.4998 35.2308 22.1094 35.2308 21.6298V17.7929C35.2308 17.3132 34.8404 16.9229 34.3608 16.9229H33.87C33.3904 16.9229 33 17.3132 33 17.7929V19.1536H30.7692V21.3844H33V21.6298C33 22.1094 33.3904 22.4998 33.87 22.4998H34.3608Z" fill="#321B41"/>
<path d="M28.0807 8H11.1492C9.04109 8 7.3457 9.63962 7.3457 11.6696V25.8462H31.8842V11.6696C31.8842 9.63962 30.1888 8 28.0807 8Z" fill="#EDC808"/>
<path d="M28.5498 24.731H10.6814C10.0679 24.731 9.57715 24.2291 9.57715 23.6268V14.6925L19.6156 13.5771L29.6541 14.6925V23.6268C29.6541 24.2291 29.1633 24.731 28.5498 24.731Z" fill="#868686"/>
<path d="M13.4805 28.0773H25.7498C26.0621 28.0773 26.3075 27.8319 26.3075 27.5196C26.3075 27.2073 26.0621 26.9619 25.7498 26.9619H13.4805C13.1682 26.9619 12.9229 27.2185 12.9229 27.5196C12.9229 27.8319 13.1682 28.0773 13.4805 28.0773ZM15.7113 30.3081H23.519C23.8313 30.3081 24.0767 30.0627 24.0767 29.7504C24.0767 29.4381 23.8313 29.1927 23.519 29.1927H15.7113C15.399 29.1927 15.1536 29.4381 15.1536 29.7504C15.1536 30.0627 15.399 30.3081 15.7113 30.3081Z" fill="#E6E6E6"/>
<path d="M9.57647 26.9619C10.1899 26.9619 10.6919 27.4638 10.6919 28.0773V30.3081C10.6919 30.9215 10.1899 31.4235 9.57647 31.4235H7.3457V26.9619H9.57647ZM29.6534 31.4235C29.0399 31.4235 28.538 30.9215 28.538 30.3081V28.0773C28.538 27.4638 29.0399 26.9619 29.6534 26.9619H31.8842V31.4235H29.6534Z" fill="#868686"/>
<path d="M29.6541 14.6919H9.57715V12.4499C9.57715 11.8365 10.0679 11.3457 10.6814 11.3457H28.561C29.1633 11.3457 29.6541 11.8365 29.6541 12.4499V14.6919Z" fill="#433B6B"/>
<circle cx="32.5" cy="8.5" r="6.01041" transform="rotate(-45 32.5 8.5)" fill="#4382EE"/>
<path d="M32.6063 12.0895C32.2931 12.0874 31.9873 12.033 31.689 11.9265C31.3908 11.8178 31.1223 11.642 30.8837 11.3991C30.645 11.1541 30.4554 10.8292 30.3148 10.4244C30.1741 10.0174 30.1049 9.51349 30.107 8.91264C30.107 8.35227 30.1667 7.85263 30.286 7.41371C30.4053 6.97479 30.5768 6.60405 30.8006 6.30149C31.0243 5.9968 31.2938 5.76456 31.6091 5.60476C31.9266 5.44496 32.2814 5.36506 32.6734 5.36506C33.0846 5.36506 33.449 5.44602 33.7665 5.60795C34.0861 5.76989 34.3439 5.99148 34.5399 6.27273C34.7359 6.55185 34.8574 6.86719 34.9042 7.21875L33.7377 7.21875C33.678 6.96733 33.5555 6.76705 33.3702 6.6179C33.1869 6.46662 32.9547 6.39098 32.6734 6.39098C32.2196 6.39098 31.8702 6.58807 31.6251 6.98224C31.3822 7.37642 31.2597 7.91761 31.2576 8.60582L31.3023 8.60582C31.4067 8.41832 31.542 8.25746 31.7082 8.12322C31.8744 7.98899 32.0619 7.88565 32.2707 7.81321C32.4817 7.73864 32.7043 7.70135 32.9387 7.70135C33.3222 7.70135 33.6663 7.79297 33.971 7.97621C34.2778 8.15945 34.5207 8.41193 34.6997 8.73367C34.8787 9.05327 34.9671 9.41974 34.965 9.8331C34.9671 10.2635 34.8691 10.6502 34.6709 10.9933C34.4728 11.3342 34.1969 11.6026 33.8432 11.7987C33.4895 11.9947 33.0772 12.0916 32.6063 12.0895ZM32.5999 11.1307C32.8322 11.1307 33.0399 11.0742 33.2231 10.9613C33.4064 10.8484 33.5513 10.696 33.6578 10.5043C33.7643 10.3125 33.8165 10.0973 33.8144 9.85867C33.8165 9.62429 33.7654 9.41229 33.661 9.22266C33.5587 9.03303 33.417 8.88281 33.2359 8.77202C33.0548 8.66122 32.8481 8.60582 32.6159 8.60582C32.4433 8.60582 32.2824 8.63885 32.1333 8.7049C31.9841 8.77095 31.8542 8.86257 31.7434 8.97976C31.6326 9.09482 31.5452 9.22905 31.4813 9.38246C31.4195 9.53374 31.3876 9.69567 31.3854 9.86825C31.3876 10.0962 31.4408 10.3061 31.5452 10.4979C31.6496 10.6896 31.7935 10.843 31.9767 10.9581C32.1599 11.0732 32.3677 11.1307 32.5999 11.1307Z" fill="white"/>
</g>
<defs>
<filter id="filter0_d_1037_7430" x="0" y="2.48926" width="42.5107" height="42.5107" filterUnits="userSpaceOnUse" color-interpolation-filters="sRGB">
<feFlood flood-opacity="0" result="BackgroundImageFix"/>
<feColorMatrix in="SourceAlpha" type="matrix" values="0 0 0 0 0 0 0 0 0 0 0 0 0 0 0 0 0 0 127 0" result="hardAlpha"/>
<feOffset dy="4"/>
<feGaussianBlur stdDeviation="2"/>
<feComposite in2="hardAlpha" operator="out"/>
<feColorMatrix type="matrix" values="0 0 0 0 0 0 0 0 0 0 0 0 0 0 0 0 0 0 0.25 0"/>
<feBlend mode="normal" in2="BackgroundImageFix" result="effect1_dropShadow_1037_7430"/>
<feBlend mode="normal" in="SourceGraphic" in2="effect1_dropShadow_1037_7430" result="shape"/>
</filter>
</defs>
</svg>
