<svg width="43" height="45" viewBox="0 0 43 45" fill="none" xmlns="http://www.w3.org/2000/svg">
<g filter="url(#filter0_d_1037_7454)">
<path d="M8.39416 36.9999H10.7588C11.3388 36.9999 11.8072 36.5315 11.8072 35.9515V31.3672C11.8072 31.0862 11.6956 30.8167 11.4969 30.618C11.2982 30.4193 11.0287 30.3076 10.7476 30.3076H8.39416C7.81416 30.3076 7.3457 30.7872 7.3457 31.3672V35.9515C7.3457 36.5315 7.81416 36.9999 8.39416 36.9999ZM28.4822 36.9999H30.8357C31.4157 36.9999 31.8842 36.5315 31.873 35.9515V31.3672C31.873 30.7872 31.4046 30.3188 30.8246 30.3188H28.4711C27.8911 30.3188 27.4226 30.7872 27.4226 31.3672V35.9515C27.4226 36.5315 27.8911 36.9999 28.4822 36.9999Z" fill="#321B41"/>
<path d="M30.3003 33.6542H8.92955C8.05955 33.6542 7.3457 32.9515 7.3457 32.0704V25.8465C9.57647 25.2888 18.7449 24.2627 19.6149 24.2627C22.5239 24.2627 25.7495 24.7312 31.8842 25.8465V32.0704C31.8842 32.9515 31.1703 33.6542 30.3003 33.6542Z" fill="#EDC808"/>
<path d="M5.36077 22.4998C5.84038 22.4998 6.23077 22.1094 6.23077 21.6298V21.3844H8.46154V19.1536H6.23077V17.7929C6.23077 17.3132 5.84038 16.9229 5.36077 16.9229H4.87C4.39038 16.9229 4 17.3132 4 17.7929V21.6298C4 22.1094 4.39038 22.4998 4.87 22.4998H5.36077ZM34.3608 22.4998C34.8404 22.4998 35.2308 22.1094 35.2308 21.6298V17.7929C35.2308 17.3132 34.8404 16.9229 34.3608 16.9229H33.87C33.3904 16.9229 33 17.3132 33 17.7929V19.1536H30.7692V21.3844H33V21.6298C33 22.1094 33.3904 22.4998 33.87 22.4998H34.3608Z" fill="#321B41"/>
<path d="M28.0807 8H11.1492C9.04109 8 7.3457 9.63962 7.3457 11.6696V25.8462H31.8842V11.6696C31.8842 9.63962 30.1888 8 28.0807 8Z" fill="#EDC808"/>
<path d="M28.5498 24.731H10.6814C10.0679 24.731 9.57715 24.2291 9.57715 23.6268V14.6925L19.6156 13.5771L29.6541 14.6925V23.6268C29.6541 24.2291 29.1633 24.731 28.5498 24.731Z" fill="#868686"/>
<path d="M13.4805 28.0773H25.7498C26.0621 28.0773 26.3075 27.8319 26.3075 27.5196C26.3075 27.2073 26.0621 26.9619 25.7498 26.9619H13.4805C13.1682 26.9619 12.9229 27.2185 12.9229 27.5196C12.9229 27.8319 13.1682 28.0773 13.4805 28.0773ZM15.7113 30.3081H23.519C23.8313 30.3081 24.0767 30.0627 24.0767 29.7504C24.0767 29.4381 23.8313 29.1927 23.519 29.1927H15.7113C15.399 29.1927 15.1536 29.4381 15.1536 29.7504C15.1536 30.0627 15.399 30.3081 15.7113 30.3081Z" fill="#E6E6E6"/>
<path d="M9.57647 26.9619C10.1899 26.9619 10.6919 27.4638 10.6919 28.0773V30.3081C10.6919 30.9215 10.1899 31.4235 9.57647 31.4235H7.3457V26.9619H9.57647ZM29.6534 31.4235C29.0399 31.4235 28.538 30.9215 28.538 30.3081V28.0773C28.538 27.4638 29.0399 26.9619 29.6534 26.9619H31.8842V31.4235H29.6534Z" fill="#868686"/>
<path d="M29.6541 14.6919H9.57715V12.4499C9.57715 11.8365 10.0679 11.3457 10.6814 11.3457H28.561C29.1633 11.3457 29.6541 11.8365 29.6541 12.4499V14.6919Z" fill="#433B6B"/>
<circle cx="32.5" cy="8.5" r="6.01041" transform="rotate(-45 32.5 8.5)" fill="#4382EE"/>
<path d="M32.5492 12.0895C32.074 12.0895 31.6522 12.0096 31.2836 11.8498C30.9171 11.69 30.6294 11.4716 30.4206 11.1946C30.214 10.9155 30.1117 10.5991 30.1138 10.2454C30.1117 9.97053 30.1713 9.71804 30.2928 9.48793C30.4142 9.25781 30.5783 9.06605 30.785 8.91264C30.9938 8.7571 31.226 8.65803 31.4817 8.61541L31.4817 8.57067C31.1451 8.49609 30.8723 8.32457 30.6635 8.05611C30.4568 7.78551 30.3546 7.47337 30.3567 7.11967C30.3546 6.78303 30.4483 6.4826 30.638 6.2184C30.8276 5.95419 31.0875 5.74645 31.4178 5.59517C31.748 5.44176 32.1252 5.36506 32.5492 5.36506C32.9689 5.36506 33.3429 5.44176 33.671 5.59517C34.0012 5.74645 34.2612 5.95419 34.4508 6.2184C34.6426 6.4826 34.7385 6.78303 34.7385 7.11967C34.7385 7.47337 34.633 7.78551 34.422 8.05611C34.2132 8.32457 33.9437 8.49609 33.6135 8.57067L33.6135 8.61541C33.8691 8.65803 34.0993 8.7571 34.3038 8.91264C34.5105 9.06605 34.6745 9.25781 34.796 9.48793C34.9196 9.71804 34.9814 9.97053 34.9814 10.2454C34.9814 10.5991 34.8769 10.9155 34.6681 11.1946C34.4593 11.4716 34.1717 11.69 33.8052 11.8498C33.4409 12.0096 33.0222 12.0895 32.5492 12.0895ZM32.5492 11.1754C32.7942 11.1754 33.0073 11.1339 33.1884 11.0508C33.3695 10.9656 33.5101 10.8462 33.6103 10.6928C33.7104 10.5394 33.7615 10.3626 33.7637 10.1623C33.7615 9.95348 33.7072 9.76918 33.6007 9.60938C33.4963 9.44744 33.3524 9.32067 33.1692 9.22905C32.9881 9.13743 32.7814 9.09162 32.5492 9.09162C32.3148 9.09162 32.106 9.13743 31.9228 9.22905C31.7395 9.32067 31.5946 9.44744 31.4881 9.60938C31.3837 9.76918 31.3326 9.95348 31.3347 10.1623C31.3326 10.3626 31.3816 10.5394 31.4817 10.6928C31.5818 10.8441 31.7225 10.9624 31.9036 11.0476C32.0868 11.1328 32.302 11.1754 32.5492 11.1754ZM32.5492 8.19354C32.7495 8.19354 32.9263 8.15305 33.0797 8.07209C33.2353 7.99112 33.3578 7.8782 33.4473 7.73331C33.5368 7.58842 33.5826 7.42117 33.5847 7.23153C33.5826 7.04403 33.5378 6.87997 33.4505 6.73935C33.3631 6.59659 33.2417 6.48686 33.0861 6.41016C32.9306 6.33132 32.7516 6.2919 32.5492 6.2919C32.3425 6.2919 32.1603 6.33132 32.0027 6.41016C31.8471 6.48686 31.7257 6.59659 31.6383 6.73935C31.5531 6.87997 31.5115 7.04403 31.5137 7.23153C31.5115 7.42116 31.5542 7.58842 31.6415 7.73331C31.731 7.87607 31.8535 7.98899 32.0091 8.07209C32.1667 8.15305 32.3468 8.19354 32.5492 8.19354Z" fill="white"/>
</g>
<defs>
<filter id="filter0_d_1037_7454" x="0" y="2.48926" width="42.5107" height="42.5107" filterUnits="userSpaceOnUse" color-interpolation-filters="sRGB">
<feFlood flood-opacity="0" result="BackgroundImageFix"/>
<feColorMatrix in="SourceAlpha" type="matrix" values="0 0 0 0 0 0 0 0 0 0 0 0 0 0 0 0 0 0 127 0" result="hardAlpha"/>
<feOffset dy="4"/>
<feGaussianBlur stdDeviation="2"/>
<feComposite in2="hardAlpha" operator="out"/>
<feColorMatrix type="matrix" values="0 0 0 0 0 0 0 0 0 0 0 0 0 0 0 0 0 0 0.25 0"/>
<feBlend mode="normal" in2="BackgroundImageFix" result="effect1_dropShadow_1037_7454"/>
<feBlend mode="normal" in="SourceGraphic" in2="effect1_dropShadow_1037_7454" result="shape"/>
</filter>
</defs>
</svg>
