<svg width="43" height="45" viewBox="0 0 43 45" fill="none" xmlns="http://www.w3.org/2000/svg">
<g filter="url(#filter0_d_1037_7466)">
<path d="M8.39416 36.9999H10.7588C11.3388 36.9999 11.8072 36.5315 11.8072 35.9515V31.3672C11.8072 31.0862 11.6956 30.8167 11.4969 30.618C11.2982 30.4193 11.0287 30.3076 10.7476 30.3076H8.39416C7.81416 30.3076 7.3457 30.7872 7.3457 31.3672V35.9515C7.3457 36.5315 7.81416 36.9999 8.39416 36.9999ZM28.4822 36.9999H30.8357C31.4157 36.9999 31.8842 36.5315 31.873 35.9515V31.3672C31.873 30.7872 31.4046 30.3188 30.8246 30.3188H28.4711C27.8911 30.3188 27.4226 30.7872 27.4226 31.3672V35.9515C27.4226 36.5315 27.8911 36.9999 28.4822 36.9999Z" fill="#321B41"/>
<path d="M30.3003 33.6542H8.92955C8.05955 33.6542 7.3457 32.9515 7.3457 32.0704V25.8465C9.57647 25.2888 18.7449 24.2627 19.6149 24.2627C22.5239 24.2627 25.7495 24.7312 31.8842 25.8465V32.0704C31.8842 32.9515 31.1703 33.6542 30.3003 33.6542Z" fill="#EDC808"/>
<path d="M5.36077 22.4998C5.84038 22.4998 6.23077 22.1094 6.23077 21.6298V21.3844H8.46154V19.1536H6.23077V17.7929C6.23077 17.3132 5.84038 16.9229 5.36077 16.9229H4.87C4.39038 16.9229 4 17.3132 4 17.7929V21.6298C4 22.1094 4.39038 22.4998 4.87 22.4998H5.36077ZM34.3608 22.4998C34.8404 22.4998 35.2308 22.1094 35.2308 21.6298V17.7929C35.2308 17.3132 34.8404 16.9229 34.3608 16.9229H33.87C33.3904 16.9229 33 17.3132 33 17.7929V19.1536H30.7692V21.3844H33V21.6298C33 22.1094 33.3904 22.4998 33.87 22.4998H34.3608Z" fill="#321B41"/>
<path d="M28.0807 8H11.1492C9.04109 8 7.3457 9.63962 7.3457 11.6696V25.8462H31.8842V11.6696C31.8842 9.63962 30.1888 8 28.0807 8Z" fill="#EDC808"/>
<path d="M28.5498 24.731H10.6814C10.0679 24.731 9.57715 24.2291 9.57715 23.6268V14.6925L19.6156 13.5771L29.6541 14.6925V23.6268C29.6541 24.2291 29.1633 24.731 28.5498 24.731Z" fill="#868686"/>
<path d="M13.4805 28.0773H25.7498C26.0621 28.0773 26.3075 27.8319 26.3075 27.5196C26.3075 27.2073 26.0621 26.9619 25.7498 26.9619H13.4805C13.1682 26.9619 12.9229 27.2185 12.9229 27.5196C12.9229 27.8319 13.1682 28.0773 13.4805 28.0773ZM15.7113 30.3081H23.519C23.8313 30.3081 24.0767 30.0627 24.0767 29.7504C24.0767 29.4381 23.8313 29.1927 23.519 29.1927H15.7113C15.399 29.1927 15.1536 29.4381 15.1536 29.7504C15.1536 30.0627 15.399 30.3081 15.7113 30.3081Z" fill="#E6E6E6"/>
<path d="M9.57647 26.9619C10.1899 26.9619 10.6919 27.4638 10.6919 28.0773V30.3081C10.6919 30.9215 10.1899 31.4235 9.57647 31.4235H7.3457V26.9619H9.57647ZM29.6534 31.4235C29.0399 31.4235 28.538 30.9215 28.538 30.3081V28.0773C28.538 27.4638 29.0399 26.9619 29.6534 26.9619H31.8842V31.4235H29.6534Z" fill="#868686"/>
<path d="M29.6541 14.6919H9.57715V12.4499C9.57715 11.8365 10.0679 11.3457 10.6814 11.3457H28.561C29.1633 11.3457 29.6541 11.8365 29.6541 12.4499V14.6919Z" fill="#433B6B"/>
<circle cx="32.5" cy="8.5" r="6.01041" transform="rotate(-45 32.5 8.5)" fill="#4382EE"/>
<path d="M32.4817 5.36506C32.7949 5.36719 33.0996 5.42259 33.3957 5.53125C33.694 5.63778 33.9625 5.8125 34.2011 6.0554C34.4398 6.29617 34.6294 6.61896 34.77 7.02379C34.9106 7.42862 34.981 7.92933 34.981 8.52592C34.9831 9.08842 34.9234 9.59126 34.802 10.0344C34.6827 10.4755 34.5111 10.8484 34.2874 11.1531C34.0637 11.4577 33.7942 11.69 33.4788 11.8498C33.1635 12.0096 32.8087 12.0895 32.4145 12.0895C32.0012 12.0895 31.6347 12.0085 31.3151 11.8466C30.9976 11.6847 30.7409 11.4631 30.5449 11.1818C30.3489 10.9006 30.2285 10.5788 30.1837 10.2166L31.3503 10.2166C31.4099 10.4766 31.5314 10.6832 31.7146 10.8366C31.9 10.9879 32.1333 11.0636 32.4145 11.0636C32.8684 11.0636 33.2178 10.8665 33.4628 10.4723C33.7079 10.0781 33.8304 9.53054 33.8304 8.82955L33.7856 8.82955C33.6812 9.01705 33.5459 9.17898 33.3797 9.31534C33.2136 9.44957 33.025 9.55291 32.814 9.62536C32.6052 9.6978 32.3837 9.73402 32.1493 9.73402C31.7658 9.73402 31.4206 9.6424 31.1138 9.45916C30.8091 9.27592 30.5672 9.0245 30.3883 8.7049C30.2114 8.3853 30.1219 8.01989 30.1198 7.60866C30.1198 7.18253 30.2178 6.80007 30.4138 6.46129C30.612 6.12038 30.8879 5.85192 31.2416 5.6559C31.5953 5.45774 32.0087 5.3608 32.4817 5.36506ZM32.4849 6.32386C32.2547 6.32386 32.047 6.38033 31.8616 6.49325C31.6784 6.60405 31.5335 6.75533 31.427 6.94709C31.3226 7.13672 31.2704 7.34872 31.2704 7.5831C31.2725 7.81534 31.3247 8.02628 31.427 8.21591C31.5314 8.40554 31.6731 8.55575 31.852 8.66655C32.0332 8.77734 32.2398 8.83274 32.4721 8.83274C32.6447 8.83274 32.8055 8.79972 32.9547 8.73366C33.1038 8.66761 33.2338 8.57599 33.3446 8.45881C33.4575 8.33949 33.5449 8.20419 33.6067 8.05291C33.6706 7.90163 33.7015 7.74183 33.6993 7.57351C33.6993 7.34979 33.6461 7.14311 33.5395 6.95348C33.4351 6.76385 33.2913 6.61151 33.1081 6.49645C32.927 6.38139 32.7192 6.32386 32.4849 6.32386Z" fill="white"/>
</g>
<defs>
<filter id="filter0_d_1037_7466" x="0" y="2.48926" width="42.5107" height="42.5107" filterUnits="userSpaceOnUse" color-interpolation-filters="sRGB">
<feFlood flood-opacity="0" result="BackgroundImageFix"/>
<feColorMatrix in="SourceAlpha" type="matrix" values="0 0 0 0 0 0 0 0 0 0 0 0 0 0 0 0 0 0 127 0" result="hardAlpha"/>
<feOffset dy="4"/>
<feGaussianBlur stdDeviation="2"/>
<feComposite in2="hardAlpha" operator="out"/>
<feColorMatrix type="matrix" values="0 0 0 0 0 0 0 0 0 0 0 0 0 0 0 0 0 0 0.25 0"/>
<feBlend mode="normal" in2="BackgroundImageFix" result="effect1_dropShadow_1037_7466"/>
<feBlend mode="normal" in="SourceGraphic" in2="effect1_dropShadow_1037_7466" result="shape"/>
</filter>
</defs>
</svg>
