<svg width="85" height="103" viewBox="0 0 85 103" fill="none" xmlns="http://www.w3.org/2000/svg">
<path d="M0 75.7772C0 80.5162 2.05177 84.7704 5.26096 87.7323V97.3179C5.26096 100.28 7.62839 102.703 10.5219 102.703H15.7829C18.6764 102.703 21.0438 100.28 21.0438 97.3179V91.9327H63.1315V97.3179C63.1315 100.28 65.4989 102.703 68.3924 102.703H73.6534C76.5469 102.703 78.9144 100.28 78.9144 97.3179V87.7323C82.1235 84.7704 84.1753 80.5162 84.1753 75.7772V21.9255C84.1753 3.07735 65.3411 0.384766 42.0877 0.384766C18.8342 0.384766 0 3.07735 0 21.9255V75.7772ZM18.4134 81.1624C14.0468 81.1624 10.5219 77.5543 10.5219 73.0846C10.5219 68.6149 14.0468 65.0069 18.4134 65.0069C22.7799 65.0069 26.3048 68.6149 26.3048 73.0846C26.3048 77.5543 22.7799 81.1624 18.4134 81.1624ZM65.762 81.1624C61.3954 81.1624 57.8705 77.5543 57.8705 73.0846C57.8705 68.6149 61.3954 65.0069 65.762 65.0069C70.1286 65.0069 73.6534 68.6149 73.6534 73.0846C73.6534 77.5543 70.1286 81.1624 65.762 81.1624ZM73.6534 48.8513H10.5219V21.9255H73.6534V48.8513Z" fill="white"/>
</svg>
