<svg width="50" height="40" viewBox="0 0 50 40" fill="none" xmlns="http://www.w3.org/2000/svg">
<g clip-path="url(#clip0_693_6822)">
<path d="M16.248 7.5C18.3184 7.5 19.998 5.82031 19.998 3.75C19.998 1.67969 18.3184 0 16.248 0C14.1777 0 12.498 1.67969 12.498 3.75C12.498 5.82031 14.1777 7.5 16.248 7.5ZM9.66211 15.6641C9.74023 15.6328 9.81055 15.6016 9.88867 15.5703L8.56836 20.5312C8.13086 22.1797 8.56055 23.9375 9.7168 25.1953L15.2402 31.2188L16.959 38.1016C17.2949 39.4375 18.6543 40.2578 19.9902 39.9219C21.3262 39.5859 22.1465 38.2266 21.8105 36.8906L20.0137 29.6953C19.8652 29.0859 19.5605 28.5312 19.1387 28.0703L15.2715 23.8516L16.7793 18.7344L17.5293 20.5312C17.873 21.3594 18.5059 22.0391 19.3105 22.4453L21.3965 23.4844C22.6309 24.1016 24.1309 23.6016 24.748 22.3672C25.3652 21.1328 24.8652 19.6328 23.6309 19.0156L21.9512 18.1797L20.7559 15.3047C19.4121 12.0938 16.2715 10 12.7871 10C11.0059 10 9.24805 10.375 7.62305 11.0938L6.99805 11.3672C4.42773 12.5078 2.45898 14.6797 1.57617 17.3438L1.37305 17.9531C0.935547 19.2656 1.64648 20.6797 2.95117 21.1172C4.25586 21.5547 5.67773 20.8438 6.11523 19.5391L6.31836 18.9297C6.76367 17.5938 7.74805 16.5156 9.0293 15.9453L9.6543 15.6719L9.66211 15.6641ZM7.31836 26.2188L5.36523 31.0938L0.732422 35.7344C-0.244141 36.7109 -0.244141 38.2969 0.732422 39.2734C1.70898 40.25 3.29492 40.25 4.27148 39.2734L9.08398 34.4531C9.44336 34.0938 9.72461 33.6641 9.91211 33.1953L11.0449 30.3672L7.86523 26.8984C7.66992 26.6875 7.49023 26.4609 7.31836 26.2266V26.2188ZM43.0137 11.9844C42.0371 11.0078 40.4512 11.0078 39.4746 11.9844C38.498 12.9609 38.498 14.5469 39.4746 15.5234L41.459 17.5H29.998C28.6152 17.5 27.498 18.6172 27.498 20C27.498 21.3828 28.6152 22.5 29.998 22.5H41.459L39.4746 24.4844C38.498 25.4609 38.498 27.0469 39.4746 28.0234C40.4512 29 42.0371 29 43.0137 28.0234L49.2637 21.7734C50.2402 20.7969 50.2402 19.2109 49.2637 18.2344L43.0137 11.9844Z" fill="#4382EE"/>
</g>
<defs>
<clipPath id="clip0_693_6822">
<rect width="50" height="40" fill="white"/>
</clipPath>
</defs>
</svg>
