<svg width="49" height="42" viewBox="0 0 49 42" fill="none" xmlns="http://www.w3.org/2000/svg">
<path d="M46.7274 0.816457C46.0153 1.53584 45.3019 2.25534 44.5906 2.97485C43.8779 2.25572 43.1653 1.53621 42.4525 0.816457C41.6279 -0.0155619 40.3503 1.27482 41.1745 2.10684C41.8868 2.82559 42.5998 3.54547 43.3113 4.26397C42.5993 4.9831 41.8865 5.70285 41.1745 6.42236C40.3503 7.25413 41.6285 8.54413 42.4525 7.71261C43.1648 6.99311 43.8775 6.27373 44.5906 5.55422C45.3032 6.27373 46.0153 6.99286 46.7274 7.71261C47.5518 8.54425 48.8295 7.25413 48.0059 6.42249C47.2932 5.70298 46.5806 4.98385 45.8678 4.26409C46.5807 3.54471 47.2933 2.82521 48.0059 2.1057C48.8295 1.27394 47.5518 -0.0164429 46.7274 0.815576" fill="#F25858"/>
<path d="M26.0877 16.6547C28.0636 16.6547 29.6673 18.2738 29.6673 20.2686V26.9801H29.6591V29.0452H11.25V22.85H11.2541V20.2686C11.2541 18.2738 12.8557 16.6547 14.8336 16.6547H26.0877ZM40.9091 20.2686C40.9091 19.3102 40.532 18.391 39.8607 17.7132C39.1894 17.0355 38.2789 16.6547 37.3295 16.6547H30.4261C31.23 17.6357 31.7127 18.8953 31.7127 20.2686V22.85H31.7045V29.0452H39.375C39.7819 29.0452 40.1721 28.882 40.4598 28.5916C40.7475 28.3011 40.9091 27.9072 40.9091 27.4964V20.2686ZM9.20455 26.9801H9.20864V20.2686L9.22705 19.8143C9.31535 18.6539 9.75849 17.5499 10.4952 16.6547H3.57955L3.285 16.6671C2.3897 16.7418 1.55493 17.1535 0.946391 17.8207C0.33785 18.4879 3.35548e-05 19.3617 0 20.2686V27.4964C0 28.3513 0.687273 29.0452 1.53409 29.0452H9.20455V26.9801ZM20.4545 2.19922C22.082 2.19922 23.6428 2.85193 24.7936 4.01376C25.9444 5.17559 26.5909 6.75137 26.5909 8.39444C26.5909 10.0375 25.9444 11.6133 24.7936 12.7751C23.6428 13.937 22.082 14.5897 20.4545 14.5897C18.8271 14.5897 17.2663 13.937 16.1155 12.7751C14.9647 11.6133 14.3182 10.0375 14.3182 8.39444C14.3182 6.75137 14.9647 5.17559 16.1155 4.01376C17.2663 2.85193 18.8271 2.19922 20.4545 2.19922ZM33.75 4.26429C35.1062 4.26429 36.4069 4.80822 37.3659 5.77641C38.3249 6.7446 38.8636 8.05775 38.8636 9.42698C38.8636 10.7962 38.3249 12.1094 37.3659 13.0776C36.4069 14.0457 35.1062 14.5897 33.75 14.5897C32.3938 14.5897 31.0931 14.0457 30.1341 13.0776C29.1751 12.1094 28.6364 10.7962 28.6364 9.42698C28.6364 8.05775 29.1751 6.7446 30.1341 5.77641C31.0931 4.80822 32.3938 4.26429 33.75 4.26429ZM7.15909 4.26429C8.51531 4.26429 9.81598 4.80822 10.775 5.77641C11.734 6.7446 12.2727 8.05775 12.2727 9.42698C12.2727 10.7962 11.734 12.1094 10.775 13.0776C9.81598 14.0457 8.51531 14.5897 7.15909 14.5897C5.80287 14.5897 4.5022 14.0457 3.5432 13.0776C2.58421 12.1094 2.04545 10.7962 2.04545 9.42698C2.04545 8.05775 2.58421 6.7446 3.5432 5.77641C4.5022 4.80822 5.80287 4.26429 7.15909 4.26429ZM0 32.6591C0 32.2483 0.161627 31.8544 0.449325 31.5639C0.737022 31.2734 1.12722 31.1103 1.53409 31.1103H39.375C39.7819 31.1103 40.1721 31.2734 40.4598 31.5639C40.7475 31.8544 40.9091 32.2483 40.9091 32.6591V33.6916C40.9091 35.7455 40.101 37.7152 38.6625 39.1675C37.224 40.6198 35.273 41.4356 33.2386 41.4356H7.67045C5.63612 41.4356 3.68511 40.6198 2.24662 39.1675C0.808135 37.7152 0 35.7455 0 33.6916V32.6591Z" fill="#F25858"/>
</svg>
