<svg width="43" height="47" viewBox="0 0 43 47" fill="none" xmlns="http://www.w3.org/2000/svg">
<path d="M13.8745 7.66211H24.0729C25.0978 7.66211 26.038 8.18365 26.4954 9.01966L27.1053 10.1164H35.2368C36.7361 10.1164 37.9474 11.2132 37.9474 12.5708C37.9474 13.9283 36.7361 15.0251 35.2368 15.0251H2.71053C1.21127 15.0251 0 13.9283 0 12.5708C0 11.2132 1.21127 10.1164 2.71053 10.1164H10.8421L11.452 9.01966C11.9094 8.18365 12.8496 7.66211 13.8745 7.66211ZM2.71053 17.4794H35.2368L33.4411 43.4799C33.3056 45.4203 31.5268 46.9313 29.3838 46.9313H8.56357C6.42056 46.9313 4.64178 45.4203 4.50625 43.4799L2.71053 17.4794ZM18.9737 22.388C18.4316 22.388 17.9149 22.5798 17.5337 22.9249L10.7574 29.0607C9.96119 29.7817 9.96119 30.9475 10.7574 31.6608C11.5536 32.3741 12.8411 32.3817 13.6289 31.6608L16.9323 28.6696V38.9547C16.9323 39.9748 17.8387 40.7955 18.9652 40.7955C20.0918 40.7955 20.9981 39.9748 20.9981 38.9547V28.6696L24.3016 31.6608C25.0978 32.3817 26.3853 32.3817 27.173 31.6608C27.9608 30.9398 27.9692 29.774 27.173 29.0607L20.3967 22.9249C20.0155 22.5798 19.4989 22.388 18.9567 22.388H18.9737Z" fill="#F25858"/>
<path d="M40.5362 0.255748C39.8607 0.938213 39.1839 1.6208 38.509 2.30338C37.833 1.62116 37.1569 0.938571 36.4806 0.255748C35.6984 -0.533575 34.4863 0.690587 35.2682 1.47991C35.944 2.16178 36.6204 2.84472 37.2954 3.52635C36.62 4.20857 35.9437 4.8914 35.2682 5.57398C34.4863 6.36307 35.699 7.58687 36.4806 6.79802C37.1565 6.11544 37.8325 5.43298 38.509 4.75039C39.1851 5.43298 39.8607 6.1152 40.5362 6.79802C41.3183 7.58699 42.5305 6.36307 41.7491 5.5741C41.073 4.89152 40.3969 4.20929 39.7207 3.52647C40.397 2.844 41.0731 2.16142 41.7491 1.47884C42.5305 0.689751 41.3183 -0.534411 40.5362 0.254913" fill="#F25858"/>
</svg>
